<?xml version="1.0" encoding="utf-8"?>
<!-- Generator: Adobe Illustrator 21.0.0, SVG Export Plug-In . SVG Version: 6.00 Build 0)  -->
<svg version="1.1" id="Layer_1" xmlns="http://www.w3.org/2000/svg" xmlns:xlink="http://www.w3.org/1999/xlink" x="0px" y="0px"
	 viewBox="0 0 64 48" style="enable-background:new 0 0 64 48;" xml:space="preserve">
<style type="text/css">
	.st0{fill:#333333;}
</style>
<title>align-center</title>
<desc>Created with Sketch.</desc>
<g>
	<path class="st0" d="M61,0H3C1.3,0,0,1.3,0,3s1.3,3,3,3h58c1.7,0,3-1.3,3-3S62.7,0,61,0z"/>
	<path class="st0" d="M57,28H7c-1.7,0-3,1.3-3,3s1.3,3,3,3h50c1.7,0,3-1.3,3-3S58.7,28,57,28z"/>
	<path class="st0" d="M50,20c1.7,0,3-1.3,3-3s-1.3-3-3-3H14c-1.7,0-3,1.3-3,3s1.3,3,3,3H50z"/>
	<path class="st0" d="M42,42H22c-1.7,0-3,1.3-3,3s1.3,3,3,3h20c1.7,0,3-1.3,3-3S43.7,42,42,42z"/>
</g>
</svg>
