<svg xmlns="http://www.w3.org/2000/svg" viewBox="0 0 64 48" enable-background="new 0 0 64 48"><style type="text/css">.st0{fill:#333333;}</style><title>align-left</title><desc>Created with Sketch.</desc><path class="st0" d="M61 0h-58c-1.7 0-3 1.3-3 3s1.3 3 3 3h58c1.7 0 3-1.3 3-3s-1.3-3-3-3zM47 28h-44c-1.7 0-3 1.3-3 3s1.3 3 3 3h44c1.7 0 3-1.3 3-3s-1.3-3-3-3zM3 20h26c1.7 0 3-1.3 3-3s-1.3-3-3-3h-26c-1.7 0-3 1.3-3 3s1.3 3 3 3zM23 42h-20c-1.7 0-3 1.3-3 3s1.3 3 3 3h20c1.7 0 3-1.3 3-3s-1.3-3-3-3z"/></svg>