<?xml version="1.0" encoding="utf-8"?>
<!-- Generator: Adobe Illustrator 21.0.0, SVG Export Plug-In . SVG Version: 6.00 Build 0)  -->
<svg version="1.1" id="Layer_1" xmlns="http://www.w3.org/2000/svg" xmlns:xlink="http://www.w3.org/1999/xlink" x="0px" y="0px"
	 viewBox="0 0 64 48" style="enable-background:new 0 0 64 48;" xml:space="preserve">
<style type="text/css">
	.st0{fill:#333333;}
</style>
<title>align-left</title>
<desc>Created with Sketch.</desc>
<g>
	<path class="st0" d="M61,0H3C1.3,0,0,1.3,0,3s1.3,3,3,3h58c1.7,0,3-1.3,3-3S62.7,0,61,0z"/>
	<path class="st0" d="M47,28H3c-1.7,0-3,1.3-3,3s1.3,3,3,3h44c1.7,0,3-1.3,3-3S48.7,28,47,28z"/>
	<path class="st0" d="M3,20h26c1.7,0,3-1.3,3-3s-1.3-3-3-3H3c-1.7,0-3,1.3-3,3S1.3,20,3,20z"/>
	<path class="st0" d="M23,42H3c-1.7,0-3,1.3-3,3s1.3,3,3,3h20c1.7,0,3-1.3,3-3S24.7,42,23,42z"/>
</g>
</svg>
