<svg xmlns="http://www.w3.org/2000/svg" viewBox="0 0 64 64" enable-background="new 0 0 64 64"><style type="text/css">.st0{fill:#333333;}</style><title>anchor</title><desc>Created with Sketch.</desc><path class="st0" d="M61 35c-1.7 0-3 1.3-3 3 0 .8.3 1.5.8 2.1-3.3 10.9-13 19-24.8 19.9v-34h7c1.1 0 2-.9 2-2s-.9-2-2-2h-7v-4.2c4-.9 7-4.5 7-8.8 0-5-4-9-9-9s-9 4-9 9c0 4.3 3 7.9 7 8.8v4.2h-7c-1.1 0-2 .9-2 2s.9 2 2 2h7v33.9c-11.8-.8-21.5-8.9-24.8-19.8.5-.6.8-1.3.8-2.1 0-1.7-1.3-3-3-3s-3 1.3-3 3c0 .9.4 1.8 1.1 2.3 3.7 13.7 16.1 23.7 30.9 23.7s27.2-10 30.9-23.7c.7-.6 1.1-1.4 1.1-2.3 0-1.7-1.3-3-3-3zm-34-26c0-2.8 2.2-5 5-5s5 2.2 5 5-2.2 5-5 5-5-2.2-5-5z"/></svg>