<?xml version="1.0" encoding="utf-8"?>
<!-- Generator: Adobe Illustrator 21.0.0, SVG Export Plug-In . SVG Version: 6.00 Build 0)  -->
<svg version="1.1" id="Layer_1" xmlns="http://www.w3.org/2000/svg" xmlns:xlink="http://www.w3.org/1999/xlink" x="0px" y="0px"
	 viewBox="0 0 64 64" style="enable-background:new 0 0 64 64;" xml:space="preserve">
<style type="text/css">
	.st0{fill:#333333;}
</style>
<title>anchor</title>
<desc>Created with Sketch.</desc>
<path class="st0" d="M61,35c-1.7,0-3,1.3-3,3c0,0.8,0.3,1.5,0.8,2.1c-3.3,10.9-13,19-24.8,19.9V26h7c1.1,0,2-0.9,2-2
	c0-1.1-0.9-2-2-2h-7v-4.2c4-0.9,7-4.5,7-8.8c0-5-4-9-9-9s-9,4-9,9c0,4.3,3,7.9,7,8.8V22h-7c-1.1,0-2,0.9-2,2c0,1.1,0.9,2,2,2h7v33.9
	C18.2,59.1,8.5,51,5.2,40.1C5.7,39.5,6,38.8,6,38c0-1.7-1.3-3-3-3s-3,1.3-3,3c0,0.9,0.4,1.8,1.1,2.3C4.8,54,17.2,64,32,64
	s27.2-10,30.9-23.7c0.7-0.6,1.1-1.4,1.1-2.3C64,36.3,62.7,35,61,35z M27,9c0-2.8,2.2-5,5-5s5,2.2,5,5s-2.2,5-5,5S27,11.8,27,9z"/>
</svg>
