<?xml version="1.0" encoding="utf-8"?>
<!-- Generator: Adobe Illustrator 21.0.0, SVG Export Plug-In . SVG Version: 6.00 Build 0)  -->
<svg version="1.1" id="Layer_1" xmlns="http://www.w3.org/2000/svg" xmlns:xlink="http://www.w3.org/1999/xlink" x="0px" y="0px"
	 viewBox="0 0 53 64" style="enable-background:new 0 0 53 64;" xml:space="preserve">
<style type="text/css">
	.st0{fill:#343434;}
</style>
<g>
	<path class="st0" d="M52.7,46.2C52.7,46.2,52.7,46.2,52.7,46.2c-0.9-0.4-8.2-3.6-8.3-12.3C44.4,26.8,49.9,23,51,22.3l0.1,0
		c0.1-0.1,0.2-0.2,0.2-0.3c0-0.1,0-0.3-0.1-0.4c-3.8-5.6-9.7-6.4-12.1-6.5c-0.3,0-0.7-0.1-1.1-0.1c-2.8,0-5.4,1-7.6,1.9
		c-1.5,0.6-2.7,1.1-3.6,1.1c-1,0-2.3-0.5-3.8-1.1c-2-0.8-4.2-1.7-6.6-1.7c-0.1,0-0.1,0-0.2,0c-5.5,0.1-10.8,3.2-13.6,8.2
		c-5.5,9.4-2,23.7,4.1,32.4c3,4.3,6.1,8.2,10.3,8.2c0.1,0,0.2,0,0.2,0c2-0.1,3.4-0.7,4.8-1.3c1.5-0.7,3.1-1.3,5.7-1.3
		c2.4,0,3.9,0.7,5.4,1.3c1.5,0.6,2.9,1.3,5.2,1.2c4.7-0.1,7.6-4.3,10.2-8c2.7-3.9,4-7.6,4.5-9.1l0-0.1
		C53.1,46.6,52.9,46.3,52.7,46.2z"/>
	<path class="st0" d="M26.6,16c0.2,0,0.5,0,0.7,0c3.3,0,6.8-1.8,9.2-4.8c2.5-3.1,3.8-7.1,3.4-10.7c0-0.3-0.3-0.5-0.6-0.5
		C36,0.1,32,2.2,29.6,5.1c-2,2.4-4,6.4-3.5,10.4C26.1,15.8,26.3,16,26.6,16z"/>
</g>
</svg>
