<svg xmlns="http://www.w3.org/2000/svg" viewBox="0 0 53 64"><path d="M52.7 46.2c-.9-.4-8.2-3.6-8.3-12.3 0-7.1 5.5-10.9 6.6-11.6h.1c.1-.1.2-.2.2-.3 0-.1 0-.3-.1-.4-3.8-5.6-9.7-6.4-12.1-6.5-.3 0-.7-.1-1.1-.1-2.8 0-5.4 1-7.6 1.9-1.5.6-2.7 1.1-3.6 1.1-1 0-2.3-.5-3.8-1.1-2-.8-4.2-1.7-6.6-1.7h-.2c-5.5.1-10.8 3.2-13.6 8.2-5.5 9.4-2 23.7 4.1 32.4 3 4.3 6.1 8.2 10.3 8.2h.2c2-.1 3.4-.7 4.8-1.3 1.5-.7 3.1-1.3 5.7-1.3 2.4 0 3.9.7 5.4 1.3 1.5.6 2.9 1.3 5.2 1.2 4.7-.1 7.6-4.3 10.2-8 2.7-3.9 4-7.6 4.5-9.1v-.1c.1-.1-.1-.4-.3-.5zM26.6 16h.7c3.3 0 6.8-1.8 9.2-4.8C39 8.1 40.3 4.1 39.9.5c0-.3-.3-.5-.6-.5-3.3.1-7.3 2.2-9.7 5.1-2 2.4-4 6.4-3.5 10.4 0 .3.2.5.5.5z" fill="#343434"/></svg>