<?xml version="1.0" encoding="utf-8"?>
<!-- Generator: Adobe Illustrator 21.0.0, SVG Export Plug-In . SVG Version: 6.00 Build 0)  -->
<svg version="1.1" id="Layer_1" xmlns="http://www.w3.org/2000/svg" xmlns:xlink="http://www.w3.org/1999/xlink" x="0px" y="0px"
	 viewBox="0 0 64 64" style="enable-background:new 0 0 64 64;" xml:space="preserve">
<style type="text/css">
	.st0{fill:#333333;}
</style>
<title>arrow-left-circle</title>
<desc>Created with Sketch.</desc>
<g>
	<path class="st0" d="M32,0C14.3,0,0,14.3,0,32s14.3,32,32,32s32-14.3,32-32S49.7,0,32,0z M32,58C17.6,58,6,46.4,6,32
		C6,17.6,17.6,6,32,6s26,11.6,26,26C58,46.4,46.4,58,32,58z"/>
	<path class="st0" d="M39.1,17.1c-1.2-1.2-3.1-1.2-4.2,0L22.1,29.9c-0.6,0.6-0.9,1.3-0.9,2.1s0.3,1.5,0.9,2.1l12.7,12.7
		c1.2,1.2,3.1,1.2,4.2,0c1.2-1.2,1.2-3.1,0-4.2L28.5,32l10.6-10.6C40.3,20.2,40.3,18.3,39.1,17.1z"/>
</g>
</svg>
