<?xml version="1.0" encoding="utf-8"?>
<!-- Generator: Adobe Illustrator 21.0.0, SVG Export Plug-In . SVG Version: 6.00 Build 0)  -->
<svg version="1.1" id="Layer_1" xmlns="http://www.w3.org/2000/svg" xmlns:xlink="http://www.w3.org/1999/xlink" x="0px" y="0px"
	 viewBox="0 0 24 63" style="enable-background:new 0 0 24 63;" xml:space="preserve">
<style type="text/css">
	.st0{fill:#333333;}
</style>
<title>arrows-v</title>
<desc>Created with Sketch.</desc>
<path class="st0" d="M22.4,48.6c-1.2-1.2-3.1-1.2-4.3,0L15,51.7V10.8l3.1,3.1c1.2,1.2,3.1,1.2,4.2,0c1.2-1.2,1.2-3.1,0-4.2l-8.5-8.5
	c-0.6-0.6-1.3-0.9-2.1-0.9s-1.5,0.3-2.1,0.9L1.1,9.6c-1.2,1.2-1.2,3.1,0,4.2c1.2,1.2,3.1,1.2,4.2,0L9,10.2v42l-3.6-3.6
	c-1.2-1.2-3.1-1.2-4.2,0c-1.2,1.2-1.2,3.1,0,4.2l8.5,8.5c0.6,0.6,1.3,0.9,2.1,0.9s1.5-0.3,2.1-0.9l8.5-8.5
	C23.6,51.6,23.6,49.7,22.4,48.6z"/>
</svg>
