<?xml version="1.0" encoding="utf-8"?>
<!-- Generator: Adobe Illustrator 21.0.0, SVG Export Plug-In . SVG Version: 6.00 Build 0)  -->
<svg version="1.1" id="Layer_1" xmlns="http://www.w3.org/2000/svg" xmlns:xlink="http://www.w3.org/1999/xlink" x="0px" y="0px"
	 viewBox="0 0 64 64" style="enable-background:new 0 0 64 64;" xml:space="preserve">
<style type="text/css">
	.st0{fill:#333333;}
</style>
<title>arrows-fullscreen</title>
<desc>Created with Sketch.</desc>
<title>arrows-corners</title>
<desc>Created with Sketch.</desc>
<path class="st0" d="M61,24c1.7,0,3-1.3,3-3V3c0-1.7-1.3-3-3-3H43c-1.7,0-3,1.3-3,3s1.3,3,3,3h10.8L32,27.8L10.2,6H21
	c1.7,0,3-1.3,3-3s-1.3-3-3-3H3C1.3,0,0,1.3,0,3v3v15c0,1.7,1.3,3,3,3s3-1.3,3-3V10.2L27.8,32L6,53.8V43c0-1.7-1.3-3-3-3s-3,1.3-3,3
	v18c0,1.7,1.3,3,3,3h18c1.7,0,3-1.3,3-3s-1.3-3-3-3H10.2L32,36.2L53.8,58H43c-1.7,0-3,1.3-3,3s1.3,3,3,3h18c1.7,0,3-1.3,3-3V43
	c0-1.7-1.3-3-3-3s-3,1.3-3,3v10.8L36.2,32L58,10.2V21C58,22.7,59.3,24,61,24z"/>
</svg>
