<?xml version="1.0" encoding="utf-8"?>
<!-- Generator: Adobe Illustrator 21.0.0, SVG Export Plug-In . SVG Version: 6.00 Build 0)  -->
<svg version="1.1" id="Layer_1" xmlns="http://www.w3.org/2000/svg" xmlns:xlink="http://www.w3.org/1999/xlink" x="0px" y="0px"
	 viewBox="0 0 63 24" style="enable-background:new 0 0 63 24;" xml:space="preserve">
<style type="text/css">
	.st0{fill:#333333;}
</style>
<title>arrows-h</title>
<desc>Created with Sketch.</desc>
<path class="st0" d="M61.3,9.6l-8.5-8.5c-1.2-1.2-3.1-1.2-4.2,0c-1.2,1.2-1.2,3.1,0,4.2L52.2,9h-42l3.6-3.6c1.2-1.2,1.2-3.1,0-4.2
	C12.6,0,10.7,0,9.6,1.2L1.1,9.6c-0.6,0.6-0.9,1.3-0.9,2.1c0,0.8,0.3,1.5,0.9,2.1l8.5,8.5c1.2,1.2,3.1,1.2,4.2,0
	c1.2-1.2,1.2-3.1,0-4.2l-3-3.1h40.9l-3.1,3.1c-1.2,1.2-1.2,3.1,0,4.2c1.2,1.2,3.1,1.2,4.2,0l8.5-8.5c0.6-0.6,0.9-1.3,0.9-2.1
	C62.2,11,61.9,10.2,61.3,9.6z"/>
</svg>
