<svg xmlns="http://www.w3.org/2000/svg" viewBox="0 0 64 64" enable-background="new 0 0 64 64"><style type="text/css">.st0{fill:#333333;}</style><title>arrow-left-circle</title><desc>Created with Sketch.</desc><path class="st0" d="M32 0c-17.7 0-32 14.3-32 32s14.3 32 32 32 32-14.3 32-32-14.3-32-32-32zm0 58c-14.4 0-26-11.6-26-26s11.6-26 26-26 26 11.6 26 26-11.6 26-26 26zM39.1 17.1c-1.2-1.2-3.1-1.2-4.2 0l-12.8 12.8c-.6.6-.9 1.3-.9 2.1s.3 1.5.9 2.1l12.7 12.7c1.2 1.2 3.1 1.2 4.2 0 1.2-1.2 1.2-3.1 0-4.2l-10.5-10.6 10.6-10.6c1.2-1.2 1.2-3.1 0-4.3z"/></svg>