<svg xmlns="http://www.w3.org/2000/svg" viewBox="0 0 64 64" enable-background="new 0 0 64 64"><style type="text/css">.st0{fill:#333333;}</style><title>arrows-fullscreen</title><desc>Created with Sketch.</desc><title>arrows-corners</title><desc>Created with Sketch.</desc><path class="st0" d="M61 24c1.7 0 3-1.3 3-3v-18c0-1.7-1.3-3-3-3h-18c-1.7 0-3 1.3-3 3s1.3 3 3 3h10.8l-21.8 21.8-21.8-21.8h10.8c1.7 0 3-1.3 3-3s-1.3-3-3-3h-18c-1.7 0-3 1.3-3 3v18c0 1.7 1.3 3 3 3s3-1.3 3-3v-10.8l21.8 21.8-21.8 21.8v-10.8c0-1.7-1.3-3-3-3s-3 1.3-3 3v18c0 1.7 1.3 3 3 3h18c1.7 0 3-1.3 3-3s-1.3-3-3-3h-10.8l21.8-21.8 21.8 21.8h-10.8c-1.7 0-3 1.3-3 3s1.3 3 3 3h18c1.7 0 3-1.3 3-3v-18c0-1.7-1.3-3-3-3s-3 1.3-3 3v10.8l-21.8-21.8 21.8-21.8v10.8c0 1.7 1.3 3 3 3z"/></svg>