<?xml version="1.0" encoding="utf-8"?>
<!-- Generator: Adobe Illustrator 21.0.0, SVG Export Plug-In . SVG Version: 6.00 Build 0)  -->
<svg version="1.1" id="Layer_1" xmlns="http://www.w3.org/2000/svg" xmlns:xlink="http://www.w3.org/1999/xlink" x="0px" y="0px"
	 viewBox="0 0 63 62" style="enable-background:new 0 0 63 62;" xml:space="preserve">
<style type="text/css">
	.st0{fill:#333333;}
</style>
<title>arrow-left</title>
<desc>Created with Sketch.</desc>
<path class="st0" d="M60,28H10.7L33.3,5.4c1.2-1.2,1.2-3.1,0-4.2c-1.2-1.2-3.1-1.2-4.2,0L1.5,28.7c-0.6,0.6-0.9,1.4-0.9,2.1
	c0,0.8,0.3,1.5,0.9,2.1l27.6,27.6c1.2,1.2,3.1,1.2,4.2,0c1.2-1.2,1.2-3.1,0-4.2L11,34h49c1.7,0,3-1.3,3-3S61.7,28,60,28z"/>
</svg>
