<svg xmlns="http://www.w3.org/2000/svg" viewBox="0 0 63 24" enable-background="new 0 0 63 24"><style type="text/css">.st0{fill:#333333;}</style><title>arrows-h</title><desc>Created with Sketch.</desc><path class="st0" d="M61.3 9.6l-8.5-8.5c-1.2-1.2-3.1-1.2-4.2 0-1.2 1.2-1.2 3.1 0 4.2l3.6 3.7h-42l3.6-3.6c1.2-1.2 1.2-3.1 0-4.2-1.2-1.2-3.1-1.2-4.2 0l-8.5 8.4c-.6.6-.9 1.3-.9 2.1s.3 1.5.9 2.1l8.5 8.5c1.2 1.2 3.1 1.2 4.2 0 1.2-1.2 1.2-3.1 0-4.2l-3-3.1h40.9l-3.1 3.1c-1.2 1.2-1.2 3.1 0 4.2 1.2 1.2 3.1 1.2 4.2 0l8.5-8.5c.6-.6.9-1.3.9-2.1 0-.7-.3-1.5-.9-2.1z"/></svg>