<?xml version="1.0" encoding="utf-8"?>
<!-- Generator: Adobe Illustrator 21.0.0, SVG Export Plug-In . SVG Version: 6.00 Build 0)  -->
<svg version="1.1" id="Layer_1" xmlns="http://www.w3.org/2000/svg" xmlns:xlink="http://www.w3.org/1999/xlink" x="0px" y="0px"
	 viewBox="0 0 63 32" style="enable-background:new 0 0 63 32;" xml:space="preserve">
<style type="text/css">
	.st0{fill:#333333;}
</style>
<title>arrow-left-sm</title>
<desc>Created with Sketch.</desc>
<path class="st0" d="M59.7,13.2H10.4l7.8-7.8c1.2-1.2,1.2-3.1,0-4.2C17,0,15.1,0,13.9,1.1L1.2,13.9c-0.6,0.6-0.9,1.3-0.9,2.1
	s0.3,1.5,0.9,2.1l12.7,12.7c1.2,1.2,3.1,1.2,4.2,0c1.2-1.2,1.2-3.1,0-4.2l-7.4-7.4h49c1.7,0,3-1.3,3-3
	C62.7,14.5,61.4,13.2,59.7,13.2z"/>
</svg>
