<?xml version="1.0" encoding="utf-8"?>
<!-- Generator: Adobe Illustrator 21.0.0, SVG Export Plug-In . SVG Version: 6.00 Build 0)  -->
<svg version="1.1" id="Layer_1" xmlns="http://www.w3.org/2000/svg" xmlns:xlink="http://www.w3.org/1999/xlink" x="0px" y="0px"
	 viewBox="0 0 32 63" style="enable-background:new 0 0 32 63;" xml:space="preserve">
<style type="text/css">
	.st0{fill:#333333;}
</style>
<title>arrow-down-sm</title>
<desc>Created with Sketch.</desc>
<path class="st0" d="M30.8,44.8c-1.2-1.2-3.1-1.2-4.2,0l-7.4,7.4v-49c0-1.7-1.3-3-3-3s-3,1.3-3,3v49.3l-7.8-7.8
	c-1.2-1.2-3.1-1.2-4.2,0C0,46,0,47.9,1.1,49.1l12.7,12.7c0.6,0.6,1.3,0.9,2.1,0.9c0.8,0,1.5-0.3,2.1-0.9l12.7-12.7
	C32,47.9,32,46,30.8,44.8z"/>
</svg>
