<?xml version="1.0" encoding="utf-8"?>
<!-- Generator: Adobe Illustrator 21.0.0, SVG Export Plug-In . SVG Version: 6.00 Build 0)  -->
<svg version="1.1" id="Layer_1" xmlns="http://www.w3.org/2000/svg" xmlns:xlink="http://www.w3.org/1999/xlink" x="0px" y="0px"
	 viewBox="0 0 62 63" style="enable-background:new 0 0 62 63;" xml:space="preserve">
<style type="text/css">
	.st0{fill:#333333;}
</style>
<title>arrow-bottom</title>
<desc>Created with Sketch.</desc>
<path class="st0" d="M60.7,30c-1.2-1.2-3.1-1.2-4.2,0L34,52.5V3.3c0-1.7-1.3-3-3-3s-3,1.3-3,3v49.2L5.5,30c-1.2-1.2-3.1-1.2-4.2,0
	c-1.2,1.2-1.2,3.1,0,4.2l27.6,27.6c0.6,0.6,1.4,0.9,2.1,0.9c0.8,0,1.5-0.3,2.1-0.9l27.6-27.6C61.9,33.1,61.9,31.2,60.7,30z"/>
</svg>
