<svg xmlns="http://www.w3.org/2000/svg" viewBox="0 0 24 63" enable-background="new 0 0 24 63"><style type="text/css">.st0{fill:#333333;}</style><title>arrows-v</title><desc>Created with Sketch.</desc><path class="st0" d="M22.4 48.6c-1.2-1.2-3.1-1.2-4.3 0l-3.1 3.1v-40.9l3.1 3.1c1.2 1.2 3.1 1.2 4.2 0 1.2-1.2 1.2-3.1 0-4.2l-8.5-8.5c-.6-.6-1.3-.9-2.1-.9s-1.5.3-2.1.9l-8.5 8.4c-1.2 1.2-1.2 3.1 0 4.2 1.2 1.2 3.1 1.2 4.2 0l3.7-3.6v42l-3.6-3.6c-1.2-1.2-3.1-1.2-4.2 0-1.2 1.2-1.2 3.1 0 4.2l8.5 8.5c.6.6 1.3.9 2.1.9s1.5-.3 2.1-.9l8.5-8.5c1.2-1.2 1.2-3.1 0-4.2z"/></svg>