<svg xmlns="http://www.w3.org/2000/svg" viewBox="0 0 51 56" enable-background="new 0 0 51 56"><style type="text/css">.st0{fill:#333333;}</style><title>attachement</title><desc>Created with Sketch.</desc><path class="st0" d="M22.8 48.8c-4.3 4.3-11.3 4.3-15.6 0-4.3-4.3-4.3-11.3 0-15.6l13.8-13.7 12.7-12.8c2.9-2.9 7.7-2.9 10.6 0 2.9 2.9 2.9 7.7 0 10.6l-13.8 13.8-12 12c-1.6 1.6-4.1 1.6-5.7 0-1.6-1.6-1.6-4.1 0-5.7l20.6-20.4-2.8-2.8-20.6 20.5c-3.1 3.1-3.1 8.2 0 11.3 3.1 3.1 8.2 3.1 11.3 0l12-12 13.8-13.8c4.5-4.5 4.5-11.8 0-16.3s-11.8-4.5-16.3 0l-12.6 12.7-13.8 13.8c-5.9 5.9-5.9 15.4 0 21.2 5.9 5.9 15.4 5.9 21.2 0l23.3-23.3-2.8-2.8-23.3 23.3z"/></svg>