<?xml version="1.0" encoding="utf-8"?>
<!-- Generator: Adobe Illustrator 21.0.0, SVG Export Plug-In . SVG Version: 6.00 Build 0)  -->
<svg version="1.1" id="Layer_1" xmlns="http://www.w3.org/2000/svg" xmlns:xlink="http://www.w3.org/1999/xlink" x="0px" y="0px"
	 viewBox="0 0 42 64" style="enable-background:new 0 0 42 64;" xml:space="preserve">
<style type="text/css">
	.st0{fill:#343434;}
</style>
<title>backpack</title>
<desc>Created with Sketch.</desc>
<g>
	<path class="st0" d="M40,20V5c0-2.8-2.2-5-5-5s-5,2.2-5,5v5c-2.7-1.3-5.8-2-9-2s-6.3,0.7-9,2V5c0-2.8-2.2-5-5-5S2,2.2,2,5v15
		c-1.3,2.7-2,5.8-2,9v31c0,2.2,1.8,4,4,4h34c2.2,0,4-1.8,4-4V29C42,25.8,41.3,22.7,40,20z M33,5c0-1.1,0.9-2,2-2s2,0.9,2,2v10.4
		c-1.2-1.4-2.5-2.6-4-3.6V5z M5,5c0-1.1,0.9-2,2-2s2,0.9,2,2v6.8c-1.5,1-2.8,2.3-4,3.6V5z M39,60c0,0.6-0.4,1-1,1H4
		c-0.6,0-1-0.5-1-1v-2h36V60z M39,55H3V29c0-5.4,2.4-10.3,6.2-13.6c0.3-0.2,0.6-0.5,0.9-0.7c0.2-0.1,0.4-0.3,0.6-0.4
		c0.3-0.2,0.6-0.4,0.9-0.6c2.7-1.7,6-2.7,9.4-2.7c3.5,0,6.7,1,9.5,2.7c0.3,0.2,0.6,0.4,0.9,0.6c0.2,0.2,0.4,0.3,0.6,0.5
		c0.3,0.2,0.5,0.4,0.8,0.6C36.6,18.7,39,23.5,39,29V55z"/>
	<path class="st0" d="M21,14c-8.3,0-15,6.7-15,15h3c0-6.6,5.4-12,12-12s12,5.4,12,12h3C36,20.7,29.3,14,21,14z"/>
	<path class="st0" d="M33,33.5c0,0.8,0.7,1.5,1.5,1.5s1.5-0.7,1.5-1.5V31h-3V33.5z"/>
	<path class="st0" d="M32,37H10c-2.2,0-4,1.8-4,4v7c0,2.2,1.8,4,4,4h22c2.2,0,4-1.8,4-4v-7C36,38.8,34.2,37,32,37z M33,48
		c0,0.6-0.4,1-1,1H10c-0.6,0-1-0.4-1-1v-7c0-0.6,0.4-1,1-1h22c0.6,0,1,0.4,1,1V48z"/>
</g>
</svg>
