<svg xmlns="http://www.w3.org/2000/svg" viewBox="0 0 42 64" enable-background="new 0 0 42 64"><style type="text/css">.st0{fill:#343434;}</style><title>backpack</title><desc>Created with Sketch.</desc><path class="st0" d="M40 20v-15c0-2.8-2.2-5-5-5s-5 2.2-5 5v5c-2.7-1.3-5.8-2-9-2s-6.3.7-9 2v-5c0-2.8-2.2-5-5-5s-5 2.2-5 5v15c-1.3 2.7-2 5.8-2 9v31c0 2.2 1.8 4 4 4h34c2.2 0 4-1.8 4-4v-31c0-3.2-.7-6.3-2-9zm-7-15c0-1.1.9-2 2-2s2 .9 2 2v10.4c-1.2-1.4-2.5-2.6-4-3.6v-6.8zm-28 0c0-1.1.9-2 2-2s2 .9 2 2v6.8c-1.5 1-2.8 2.3-4 3.6v-10.4zm34 55c0 .6-.4 1-1 1h-34c-.6 0-1-.5-1-1v-2h36v2zm0-5h-36v-26c0-5.4 2.4-10.3 6.2-13.6l.9-.7.6-.4.9-.6c2.7-1.7 6-2.7 9.4-2.7 3.5 0 6.7 1 9.5 2.7l.9.6.6.5.8.6c3.8 3.3 6.2 8.1 6.2 13.6v26zM21 14c-8.3 0-15 6.7-15 15h3c0-6.6 5.4-12 12-12s12 5.4 12 12h3c0-8.3-6.7-15-15-15zM33 33.5c0 .8.7 1.5 1.5 1.5s1.5-.7 1.5-1.5v-2.5h-3v2.5zM32 37h-22c-2.2 0-4 1.8-4 4v7c0 2.2 1.8 4 4 4h22c2.2 0 4-1.8 4-4v-7c0-2.2-1.8-4-4-4zm1 11c0 .6-.4 1-1 1h-22c-.6 0-1-.4-1-1v-7c0-.6.4-1 1-1h22c.6 0 1 .4 1 1v7z"/></svg>