<?xml version="1.0" encoding="utf-8"?>
<!-- Generator: Adobe Illustrator 21.0.0, SVG Export Plug-In . SVG Version: 6.00 Build 0)  -->
<svg version="1.1" id="Layer_1" xmlns="http://www.w3.org/2000/svg" xmlns:xlink="http://www.w3.org/1999/xlink" x="0px" y="0px"
	 viewBox="0 0 64 53" style="enable-background:new 0 0 64 53;" xml:space="preserve">
<style type="text/css">
	.st0{fill:#343434;}
</style>
<title>backward</title>
<desc>Created with Sketch.</desc>
<path class="st0" d="M61.4,1.2L45.9,11.3l-3.3,2.2l-2.7,1.8V12V8.1V2.5c0-1.7-1.1-2.3-2.5-1.4L1.1,24.9c-1.4,0.9-1.4,2.4,0,3.3
	L37.4,52c1.4,0.9,2.5,0.3,2.5-1.4v-5.5v-3.9V38l2.7,1.8l3.3,2.2l15.5,10c1.4,0.9,2.5,0.3,2.5-1.4V2.5C63.9,0.9,62.8,0.2,61.4,1.2z
	 M57.9,42.5l-24-15.7v15.7l-24.4-16l24.4-16v15.7l24-15.7V42.5z"/>
</svg>
