<svg xmlns="http://www.w3.org/2000/svg" viewBox="0 0 64 53" enable-background="new 0 0 64 53"><style type="text/css">.st0{fill:#343434;}</style><title>backward</title><desc>Created with Sketch.</desc><path class="st0" d="M61.4 1.2l-15.5 10.1-3.3 2.2-2.7 1.8v-12.799999999999999c0-1.7-1.1-2.3-2.5-1.4l-36.3 23.8c-1.4.9-1.4 2.4 0 3.3l36.3 23.8c1.4.9 2.5.3 2.5-1.4v-12.600000000000001l2.7 1.8 3.3 2.2 15.5 10c1.4.9 2.5.3 2.5-1.4v-48.1c0-1.6-1.1-2.3-2.5-1.3zm-3.5 41.3l-24-15.7v15.7l-24.4-16 24.4-16v15.7l24-15.7v32z"/></svg>