<?xml version="1.0" encoding="utf-8"?>
<!-- Generator: Adobe Illustrator 21.0.0, SVG Export Plug-In . SVG Version: 6.00 Build 0)  -->
<svg version="1.1" id="Layer_1" xmlns="http://www.w3.org/2000/svg" xmlns:xlink="http://www.w3.org/1999/xlink" x="0px" y="0px"
	 viewBox="0 0 52 64" style="enable-background:new 0 0 52 64;" xml:space="preserve">
<style type="text/css">
	.st0{fill:#343434;}
</style>
<title>balloon</title>
<desc>Created with Sketch.</desc>
<path class="st0" d="M50,38.2c-6.2,1-11,6.3-11,12.8c0,5.5-4.5,10-10,10s-10-4.5-10-10h3c1.1,0,1.7-0.9,1.4-1.9L22.7,47l0.7-2.1
	c0-0.1,0.1-0.2,0.1-0.4C30.7,40.7,36,29.7,36,21.3C36,11,27.9,0,18,0S0,11,0,21.3c0,8.4,5.3,19.4,12.6,23.3c0,0.1,0,0.2,0.1,0.4
	l0.7,2.1l-0.7,2.1C12.3,50.2,12.9,51,14,51h2c0,7.2,5.8,13,13,13s13-5.8,13-13c0-4.8,3.4-8.9,8-9.8c0,0,1.6-0.2,1.6-1.7
	C51.6,38,50,38.2,50,38.2z M4,21.3C4,12.5,10.9,4,18,4s14,8.5,14,17.3C32,30.8,24.5,42,18,42S4,30.8,4,21.3z M20,46v2h-4v-2H20z"/>
</svg>
