<svg xmlns="http://www.w3.org/2000/svg" viewBox="0 0 60 60" enable-background="new 0 0 60 60"><style type="text/css">.st0{fill:#333333;}</style><title>bandage</title><desc>Created with Sketch.</desc><path class="st0" d="M56.2 3.8c-5.1-5.1-13.3-5.1-18.4 0l-34 34c-5.1 5.1-5.1 13.3 0 18.4 5.1 5.1 13.3 5.1 18.4 0l33.9-33.9c5.1-5.1 5.1-13.4.1-18.5zm-3.6 16.3l-32.5 32.5c-3.9 3.9-9.9 4.2-13.4.7s-3.2-9.5.7-13.4l32.5-32.5c3.9-3.9 9.9-4.2 13.4-.7s3.3 9.5-.7 13.4z"/><ellipse transform="matrix(.707 -.707 .707 .707 -7.426 27.929)" class="st0" cx="30" cy="22.9" rx="2" ry="2"/><ellipse transform="matrix(.707 -.707 .707 .707 -14.497 25)" class="st0" cx="22.9" cy="30" rx="2" ry="2"/><ellipse transform="matrix(.707 -.707 .707 .707 -8.891 31.464)" class="st0" cx="33.5" cy="26.5" rx="2" ry="2"/><ellipse transform="matrix(.707 -.707 .707 .707 -12.426 30)" class="st0" cx="30" cy="30" rx="2" ry="2"/><ellipse transform="matrix(.707 -.707 .707 .707 -10.962 26.464)" class="st0" cx="26.5" cy="26.5" rx="2" ry="2"/><ellipse transform="matrix(.707 -.707 .707 .707 -13.891 33.536)" class="st0" cx="33.5" cy="33.5" rx="2" ry="2"/><ellipse transform="matrix(.707 -.707 .707 .707 -15.962 28.535)" class="st0" cx="26.5" cy="33.5" rx="2" ry="2"/><ellipse transform="matrix(.707 -.707 .707 .707 -10.355 35)" class="st0" cx="37.1" cy="30" rx="2" ry="2"/><ellipse transform="matrix(.707 -.707 .707 .707 -17.426 32.071)" class="st0" cx="30" cy="37.1" rx="2" ry="2"/></svg>