<?xml version="1.0" encoding="utf-8"?>
<!-- Generator: Adobe Illustrator 21.0.0, SVG Export Plug-In . SVG Version: 6.00 Build 0)  -->
<svg version="1.1" id="Layer_1" xmlns="http://www.w3.org/2000/svg" xmlns:xlink="http://www.w3.org/1999/xlink" x="0px" y="0px"
	 viewBox="0 0 60 60" style="enable-background:new 0 0 60 60;" xml:space="preserve">
<style type="text/css">
	.st0{fill:#333333;}
</style>
<title>bandage</title>
<desc>Created with Sketch.</desc>
<g>
	<path class="st0" d="M56.2,3.8c-5.1-5.1-13.3-5.1-18.4,0L3.8,37.8c-5.1,5.1-5.1,13.3,0,18.4c5.1,5.1,13.3,5.1,18.4,0l33.9-33.9
		C61.2,17.2,61.2,8.9,56.2,3.8z M52.6,20.1L20.1,52.6c-3.9,3.9-9.9,4.2-13.4,0.7c-3.5-3.5-3.2-9.5,0.7-13.4L39.9,7.4
		c3.9-3.9,9.9-4.2,13.4-0.7C56.8,10.2,56.6,16.2,52.6,20.1z"/>
	<ellipse transform="matrix(0.7071 -0.7071 0.7071 0.7071 -7.4262 27.9289)" class="st0" cx="30" cy="22.9" rx="2" ry="2"/>
	<ellipse transform="matrix(0.7071 -0.7071 0.7071 0.7071 -14.4972 24.9999)" class="st0" cx="22.9" cy="30" rx="2" ry="2"/>
	<ellipse transform="matrix(0.7071 -0.7071 0.7071 0.7071 -8.8906 31.4644)" class="st0" cx="33.5" cy="26.5" rx="2" ry="2"/>
	<ellipse transform="matrix(0.7071 -0.7071 0.7071 0.7071 -12.4261 30)" class="st0" cx="30" cy="30" rx="2" ry="2"/>
	<ellipse transform="matrix(0.7071 -0.7071 0.7071 0.7071 -10.9617 26.4644)" class="st0" cx="26.5" cy="26.5" rx="2" ry="2"/>
	<ellipse transform="matrix(0.7071 -0.7071 0.7071 0.7071 -13.8906 33.536)" class="st0" cx="33.5" cy="33.5" rx="2" ry="2"/>
	<ellipse transform="matrix(0.7071 -0.7071 0.7071 0.7071 -15.9616 28.5351)" class="st0" cx="26.5" cy="33.5" rx="2" ry="2"/>
	<ellipse transform="matrix(0.7071 -0.7071 0.7071 0.7071 -10.3551 35)" class="st0" cx="37.1" cy="30" rx="2" ry="2"/>
	<ellipse transform="matrix(0.7071 -0.7071 0.7071 0.7071 -17.4262 32.071)" class="st0" cx="30" cy="37.1" rx="2" ry="2"/>
</g>
</svg>
