<svg xmlns="http://www.w3.org/2000/svg" viewBox="0 0 64 64" enable-background="new 0 0 64 64"><style type="text/css">.st0{fill:#333333;}</style><title>bar-chart</title><desc>Created with Sketch.</desc><path class="st0" d="M61 58h-55v-55c0-1.7-1.3-3-3-3s-3 1.3-3 3v58c0 1.7 1.3 3 3 3h58c1.7 0 3-1.3 3-3s-1.3-3-3-3zM15 54c2.2 0 4-1.8 4-4v-32c0-2.2-1.8-4-4-4s-4 1.8-4 4v32c0 2.2 1.8 4 4 4zM29 54c2.2 0 4-1.8 4-4v-16c0-2.2-1.8-4-4-4s-4 1.8-4 4v16c0 2.2 1.8 4 4 4zM43 54c2.2 0 4-1.8 4-4v-24c0-2.2-1.8-4-4-4s-4 1.8-4 4v24c0 2.2 1.8 4 4 4zM57 54c2.2 0 4-1.8 4-4v-8c0-2.2-1.8-4-4-4s-4 1.8-4 4v8c0 2.2 1.8 4 4 4z"/></svg>