<?xml version="1.0" encoding="utf-8"?>
<!-- Generator: Adobe Illustrator 21.0.0, SVG Export Plug-In . SVG Version: 6.00 Build 0)  -->
<svg version="1.1" id="Layer_1" xmlns="http://www.w3.org/2000/svg" xmlns:xlink="http://www.w3.org/1999/xlink" x="0px" y="0px"
	 viewBox="0 0 64 64" style="enable-background:new 0 0 64 64;" xml:space="preserve">
<style type="text/css">
	.st0{fill:#333333;}
</style>
<title>baseball</title>
<desc>Created with Sketch.</desc>
<path class="st0" d="M55,54.2c5.6-5.8,9-13.6,9-22.2s-3.4-16.5-9-22.2c0,0,0,0,0,0c0-0.1-0.1-0.1-0.2-0.1c-0.4-0.4-0.8-0.8-1.2-1.2
	c0,0-0.1-0.1-0.1-0.1c-0.5-0.4-0.9-0.8-1.4-1.2c0,0-0.1-0.1-0.1-0.1c0,0,0,0,0,0c-5.5-4.4-12.4-7-20-7c-7.6,0-14.5,2.6-20,7
	c0,0,0,0,0,0c-1.1,0.8-2.1,1.8-3,2.7c0,0,0,0,0,0C3.4,15.5,0,23.3,0,32c0,17.7,14.3,32,32,32c7.6,0,14.5-2.6,20-7c0,0,0,0,0,0
	c0,0,0.1-0.1,0.1-0.1c0.5-0.4,0.9-0.8,1.4-1.2c0,0,0.1-0.1,0.1-0.1c0.4-0.4,0.8-0.8,1.2-1.2C54.9,54.3,54.9,54.3,55,54.2
	C55,54.2,55,54.2,55,54.2z M52,51.6c-1.6-1.6-3-3.5-4.2-5.5l1.8-0.8c1-0.5,1.4-1.7,1-2.7l-0.8-1.8c-0.5-1-1.7-1.4-2.7-1l-1.7,0.8
	c-0.6-1.8-1-3.7-1.2-5.6H46c1.1,0,2-0.9,2-2v-2c0-1.1-0.9-2-2-2h-1.8c0.2-1.8,0.5-3.5,1.1-5.2l1.8,0.9c1,0.5,2.2,0,2.7-1l0.8-1.8
	c0.5-1,0-2.2-1-2.7l-2-0.9c1.2-2.2,2.7-4.1,4.4-5.9c4.9,5,8,12,8,19.6S56.9,46.5,52,51.6z M12,12.4c1.8,1.8,3.3,3.8,4.5,6l-1.7,0.8
	c-1,0.5-1.4,1.7-1,2.7l0.8,1.8c0.5,1,1.7,1.4,2.7,1l1.5-0.7c0.5,1.6,0.8,3.3,1,5H18c-1.1,0-2,0.9-2,2v2c0,1.1,0.9,2,2,2h1.8
	c-0.2,1.9-0.6,3.7-1.1,5.5l-1.3-0.6c-1-0.5-2.2,0-2.7,1l-0.8,1.8c-0.5,1,0,2.2,1,2.7l1.5,0.7c-1.2,2.1-2.6,3.9-4.3,5.6
	c-4.9-5-8-12-8-19.6C4,24.4,7.1,17.5,12,12.4z M15,54.2c1.9-2,3.6-4.2,4.9-6.6l2.2,1c1,0.5,2.2,0,2.7-1l0.8-1.8c0.5-1,0-2.2-1-2.7
	l-2.3-1.1c0.8-2.3,1.3-4.7,1.5-7.2H26c1.1,0,2-0.9,2-2v-2c0-1.1-0.9-2-2-2h-2.2c-0.2-2.3-0.7-4.6-1.4-6.7l2.1-1c1-0.5,1.4-1.7,1-2.7
	l-0.8-1.8c-0.5-1-1.7-1.4-2.7-1l-1.9,0.9c-1.4-2.6-3.1-4.9-5.1-7C19.7,6.1,25.6,4,32,4c6.4,0,12.3,2.2,17,5.8c-2,2-3.7,4.3-5.1,6.8
	l-1.6-0.7c-1-0.5-2.2,0-2.7,1l-0.8,1.8c-0.5,1,0,2.2,1,2.7l1.8,0.8c-0.7,2.2-1.2,4.5-1.4,6.9H38c-1.1,0-2,0.9-2,2v2c0,1.1,0.9,2,2,2
	h2.2c0.2,2.5,0.8,5,1.6,7.3l-1.9,0.9c-1,0.5-1.4,1.7-1,2.7l0.8,1.8c0.5,1,1.7,1.4,2.7,1l1.8-0.9c1.3,2.3,3,4.5,4.8,6.4
	C44.3,57.8,38.4,60,32,60C25.6,60,19.7,57.8,15,54.2z"/>
</svg>
