<?xml version="1.0" encoding="utf-8"?>
<!-- Generator: Adobe Illustrator 21.0.0, SVG Export Plug-In . SVG Version: 6.00 Build 0)  -->
<svg version="1.1" id="Layer_1" xmlns="http://www.w3.org/2000/svg" xmlns:xlink="http://www.w3.org/1999/xlink" x="0px" y="0px"
	 viewBox="0 0 64 64" style="enable-background:new 0 0 64 64;" xml:space="preserve">
<style type="text/css">
	.st0{fill:#333333;}
</style>
<title>basketball</title>
<desc>Created with Sketch.</desc>
<path class="st0" d="M55,54.2c5.6-5.8,9-13.6,9-22.2s-3.4-16.5-9-22.2c0,0,0,0,0,0c0-0.1-0.1-0.1-0.2-0.1c-0.4-0.4-0.8-0.8-1.2-1.2
	c0,0-0.1-0.1-0.1-0.1c-0.5-0.4-0.9-0.8-1.4-1.2c0,0-0.1-0.1-0.1-0.1c0,0,0,0,0,0c-5.5-4.4-12.4-7-20-7c-7.6,0-14.5,2.6-20,7
	c0,0,0,0,0,0c-1.1,0.8-2.1,1.8-3,2.7c0,0,0,0,0,0C3.4,15.5,0,23.3,0,32c0,17.7,14.3,32,32,32c7.6,0,14.5-2.6,20-7c0,0,0,0,0,0
	c0,0,0.1-0.1,0.1-0.1c0.5-0.4,0.9-0.8,1.4-1.2c0,0,0.1-0.1,0.1-0.1c0.4-0.4,0.8-0.8,1.2-1.2C54.9,54.3,54.9,54.3,55,54.2
	C55,54.2,55,54.2,55,54.2z M4.1,34h15.8c-0.5,6.8-3.4,13-7.9,17.6C7.5,47,4.6,40.8,4.1,34z M52,12.4c4.5,4.6,7.4,10.8,7.9,17.6H44.1
	C44.6,23.2,47.5,17,52,12.4z M40.1,30H34V4.1c5.6,0.4,10.8,2.5,15,5.7C43.9,15.1,40.5,22.1,40.1,30z M30,30h-6.1
	c-0.5-7.9-3.8-14.9-8.9-20.2c4.2-3.2,9.4-5.3,15-5.7V30z M19.9,30H4.1c0.5-6.8,3.4-13,7.9-17.6C16.5,17,19.4,23.2,19.9,30z M23.9,34
	H30v25.9c-5.6-0.4-10.8-2.5-15-5.7C20.1,48.9,23.4,41.8,23.9,34z M34,34h6.1c0.5,7.9,3.8,14.9,8.9,20.2c-4.2,3.2-9.4,5.3-15,5.7V34z
	 M44.1,34h15.8c-0.5,6.8-3.4,13-7.9,17.6C47.5,47,44.6,40.8,44.1,34z"/>
</svg>
