<svg xmlns="http://www.w3.org/2000/svg" viewBox="0 0 64 64" enable-background="new 0 0 64 64"><style type="text/css">.st0{fill:#333333;}</style><title>basketball</title><desc>Created with Sketch.</desc><path class="st0" d="M55 54.2c5.6-5.8 9-13.6 9-22.2s-3.4-16.5-9-22.2c0-.1-.1-.1-.2-.1l-1.2-1.2-.1-.1-1.4-1.2-.1-.1c-5.5-4.4-12.4-7-20-7s-14.5 2.6-20 7c-1.1.8-2.1 1.8-3 2.7-5.6 5.7-9 13.5-9 22.2 0 17.7 14.3 32 32 32 7.6 0 14.5-2.6 20-7l.1-.1 1.4-1.2.1-.1 1.2-1.2.2-.2zm-50.9-20.2h15.8c-.5 6.8-3.4 13-7.9 17.6-4.5-4.6-7.4-10.8-7.9-17.6zm47.9-21.6c4.5 4.6 7.4 10.8 7.9 17.6h-15.8c.5-6.8 3.4-13 7.9-17.6zm-11.9 17.6h-6.1v-25.9c5.6.4 10.8 2.5 15 5.7-5.1 5.3-8.5 12.3-8.9 20.2zm-10.1 0h-6.1c-.5-7.9-3.8-14.9-8.9-20.2 4.2-3.2 9.4-5.3 15-5.7v25.9zm-10.1 0h-15.8c.5-6.8 3.4-13 7.9-17.6 4.5 4.6 7.4 10.8 7.9 17.6zm4 4h6.1v25.9c-5.6-.4-10.8-2.5-15-5.7 5.1-5.3 8.4-12.4 8.9-20.2zm10.1 0h6.1c.5 7.9 3.8 14.9 8.9 20.2-4.2 3.2-9.4 5.3-15 5.7v-25.9zm10.1 0h15.8c-.5 6.8-3.4 13-7.9 17.6-4.5-4.6-7.4-10.8-7.9-17.6z"/></svg>