<?xml version="1.0" encoding="utf-8"?>
<!-- Generator: Adobe Illustrator 21.0.0, SVG Export Plug-In . SVG Version: 6.00 Build 0)  -->
<svg version="1.1" id="Layer_1" xmlns="http://www.w3.org/2000/svg" xmlns:xlink="http://www.w3.org/1999/xlink" x="0px" y="0px"
	 viewBox="0 0 64 32" style="enable-background:new 0 0 64 32;" xml:space="preserve">
<style type="text/css">
	.st0{fill:#333333;}
</style>
<title>battery-charging</title>
<desc>Created with Sketch.</desc>
<g>
	<path class="st0" d="M26,17.6h5v8.9c0.2,0,0.3-0.1,0.4-0.4l5.1-10.8c0.2-0.5,0-0.9-0.6-0.9h-5V5.5c-0.2,0-0.3,0.1-0.4,0.4
		l-5.1,10.8C25.2,17.2,25.4,17.6,26,17.6z"/>
	<path class="st0" d="M63,10h-2V3c0-1.7-1.3-3-3-3H3C1.3,0,0,1.3,0,3v26c0,1.7,1.3,3,3,3h55c1.7,0,3-1.3,3-3v-7h2c0.6,0,1-0.4,1-1
		V11C64,10.5,63.5,10,63,10z M57,28H4V4h53V28z"/>
</g>
</svg>
