<svg xmlns="http://www.w3.org/2000/svg" viewBox="0 0 52 64"><path d="M7 25h26v32H7zm42.2 0H40V15c0-1.3-.8-2.4-2-2.8V12c0-4.4-3.6-8-8-8-1.4 0-2.8.4-3.9 1-1.5-3-4.5-5-8.1-5-3.2 0-6 1.6-7.6 4.1C10 4 9.5 4 9 4c-4.4 0-8 3.6-8 8 0 .3 0 .5.1.8C.4 13.3 0 14.1 0 15v46c0 1.7 1.4 3 3.1 3H37c1.7 0 3.1-1.3 3.1-3V49h9.2c1.6 0 2.8-1.3 2.8-3V28c-.1-1.7-1.4-3-2.9-3zM10.5 7c.6 0 1.2.1 1.8.3C13 4.8 15.3 3 18 3c3.3 0 6 2.7 6 6v.1c.6.1 1.1.3 1.6.5C26.5 8 28.1 7 30 7c2.8 0 5 2.2 5 5H4.1c.5-2.8 3-5 6.4-5zM36 58.2c0 1-.8 1.8-1.7 1.8H5.7c-1 0-1.7-.8-1.7-1.8V17.8c0-1 .8-1.8 1.7-1.8h28.6c1 0 1.7.8 1.7 1.8v40.4zM48 45h-8V29h8v16z" fill="#343434"/></svg>