<svg xmlns="http://www.w3.org/2000/svg" viewBox="0 0 52 64" enable-background="new 0 0 52 64"><style type="text/css">.st0{fill:#343434;}</style><title>beer</title><desc>Created with Sketch.</desc><path class="st0" d="M7 25h26v32h-26zM49.2 25h-9.2v-10c0-1.3-.8-2.4-2-2.8v-.2c0-4.4-3.6-8-8-8-1.4 0-2.8.4-3.9 1-1.5-3-4.5-5-8.1-5-3.2 0-6 1.6-7.6 4.1-.4-.1-.9-.1-1.4-.1-4.4 0-8 3.6-8 8 0 .3 0 .5.1.8-.7.5-1.1 1.3-1.1 2.2v46c0 1.7 1.4 3 3.1 3h33.9c1.7 0 3.1-1.3 3.1-3v-12h9.2c1.6 0 2.8-1.3 2.8-3v-18c-.1-1.7-1.4-3-2.9-3zm-38.7-18c.6 0 1.2.1 1.8.3.7-2.5 3-4.3 5.7-4.3 3.3 0 6 2.7 6 6v.1c.6.1 1.1.3 1.6.5.9-1.6 2.5-2.6 4.4-2.6 2.8 0 5 2.2 5 5h-30.9c.5-2.8 3-5 6.4-5zm25.5 51.2c0 1-.8 1.8-1.7 1.8h-28.6c-1 0-1.7-.8-1.7-1.8v-40.4c0-1 .8-1.8 1.7-1.8h28.6c1 0 1.7.8 1.7 1.8v40.4zm12-13.2h-8v-16h8v16z"/></svg>