<?xml version="1.0" encoding="utf-8"?>
<!-- Generator: Adobe Illustrator 21.0.0, SVG Export Plug-In . SVG Version: 6.00 Build 0)  -->
<svg version="1.1" id="Layer_1" xmlns="http://www.w3.org/2000/svg" xmlns:xlink="http://www.w3.org/1999/xlink" x="0px" y="0px"
	 viewBox="0 0 64 64" style="enable-background:new 0 0 64 64;" xml:space="preserve">
<style type="text/css">
	.st0{fill:#343434;}
</style>
<g id="Page-1">
	<g id="Social-icons-_x28_65_x29_" transform="translate(-448.000000, -960.000000)">
		<g id="behance-square" transform="translate(448.000000, 960.000000)">
			<path id="Combined-Shape" class="st0" d="M0,4c0-2.2,1.8-4,4-4h56c2.2,0,4,1.8,4,4v56c0,2.2-1.8,4-4,4H4c-2.2,0-4-1.8-4-4V4z
				 M27.4,30.7c0,0,4.6-0.3,4.6-5.7c0-5.4-3.7-8-8.4-8H8v30h15.5c0,0,9.5,0.3,9.5-8.9C33,38.1,33.4,30.7,27.4,30.7z M40,22h12v-4H40
				V22z M45.5,24C34,24,34,35.5,34,35.5S33.2,47,45.5,47c0,0,10.2,0.6,10.2-8h-5.3c0,0,0.2,3.2-4.8,3.2c0,0-5.3,0.4-5.3-5.2h15.5
				C55.9,37,57.6,24,45.5,24z"/>
			<path id="Fill-1" class="st0" d="M23.1,41.7h-8.3v-8h8.7c0,0,3.1,0,3.1,4.1C26.7,41.2,24.4,41.6,23.1,41.7z"/>
			<path id="Fill-1_1_" class="st0" d="M14.8,22.3h8.7c0,0,2.1,0,2.1,3.1c0,3.1-1.2,3.6-2.6,3.6h-8.1V22.3z"/>
			<path id="Fill-4" class="st0" d="M50.2,33h-9.8c0,0,0.6-4.6,5.3-4.6C50.2,28.4,50.2,33,50.2,33z"/>
		</g>
	</g>
</g>
</svg>
