<?xml version="1.0" encoding="utf-8"?>
<!-- Generator: Adobe Illustrator 21.0.0, SVG Export Plug-In . SVG Version: 6.00 Build 0)  -->
<svg version="1.1" id="Layer_1" xmlns="http://www.w3.org/2000/svg" xmlns:xlink="http://www.w3.org/1999/xlink" x="0px" y="0px"
	 viewBox="0 0 64 64" style="enable-background:new 0 0 64 64;" xml:space="preserve">
<style type="text/css">
	.st0{fill:#343434;}
</style>
<g>
	<path class="st0" d="M32,0C14.3,0,0,14.3,0,32c0,17.7,14.3,32,32,32s32-14.3,32-32C64,14.3,49.7,0,32,0z M40,18h12v4H40V18z
		 M33,38.1c0,9.2-9.5,8.9-9.5,8.9H8V17h15.5c4.7,0,8.4,2.6,8.4,8c0,5.4-4.6,5.7-4.6,5.7C33.4,30.7,33,38.1,33,38.1z M45.7,42.2
		c5,0,4.8-3.2,4.8-3.2h5.3c0,8.6-10.2,8-10.2,8C33.2,47,34,35.5,34,35.5S34,24,45.5,24c12.1,0,10.4,13,10.4,13H40.4
		C40.4,42.6,45.7,42.2,45.7,42.2z"/>
	<path class="st0" d="M23.5,33.7h-8.7v8h8.3c1.2,0,3.5-0.4,3.5-3.9C26.7,33.6,23.5,33.7,23.5,33.7z"/>
	<path class="st0" d="M25.6,25.5c0-3.1-2.1-3.1-2.1-3.1h-8.7V29H23C24.4,29,25.6,28.6,25.6,25.5z"/>
	<path class="st0" d="M45.6,28.4c-4.6,0-5.3,4.6-5.3,4.6h9.8C50.2,33,50.2,28.4,45.6,28.4z"/>
</g>
</svg>
