<?xml version="1.0" encoding="utf-8"?>
<!-- Generator: Adobe Illustrator 21.0.0, SVG Export Plug-In . SVG Version: 6.00 Build 0)  -->
<svg version="1.1" id="Layer_1" xmlns="http://www.w3.org/2000/svg" xmlns:xlink="http://www.w3.org/1999/xlink" x="0px" y="0px"
	 viewBox="0 0 64 40" style="enable-background:new 0 0 64 40;" xml:space="preserve">
<style type="text/css">
	.st0{fill:#343434;}
</style>
<g>
	<path class="st0" d="M26.4,18.3c0,0,6.2-0.5,6.2-7.6C32.6,3.5,27.5,0,21.1,0H0v40h21.1c0,0,12.9,0.4,12.9-11.8
		C34,28.2,34.6,18.3,26.4,18.3z M9.3,7.1h11.8c0,0,2.9,0,2.9,4.2c0,4.2-1.7,4.8-3.6,4.8H9.3V7.1z M20.6,32.9H9.3V22.2h11.8
		c0,0,4.3-0.1,4.3,5.5C25.4,32.3,22.3,32.8,20.6,32.9z"/>
	<rect x="42" y="2" class="st0" width="16" height="5"/>
	<path class="st0" d="M50.2,10C35,10,35,25,35,25s-1,15,15.2,15c0,0,13.5,0.8,13.5-10.4h-6.9c0,0,0.2,4.2-6.3,4.2
		c0,0-6.9,0.5-6.9-6.8h20.4C63.9,27,66.1,10,50.2,10z M43.4,21.8c0,0,0.8-6,6.9-6c6.1,0,6,6,6,6H43.4z"/>
</g>
</svg>
