<svg xmlns="http://www.w3.org/2000/svg" viewBox="0 0 60 65" enable-background="new 0 0 60 65"><style type="text/css">.st0{fill:#333333;}</style><title>bell-off</title><desc>Created with Sketch.</desc><path class="st0" d="M29 63c4.3 0 8.2-1.9 10.7-5h-21.4c2.5 3.1 6.4 5 10.7 5zM58 6.4c-.8-.8-2-.8-2.8 0l-9.6 9.6c-2.5-5.9-8-10.2-14.6-10.9v-3.1c0-1.1-.9-2-2-2s-2 .9-2 2v3.1c-9 1-16 8.6-16 17.9v18c0 4.3-3 7.9-7 8.8v6.2h1.6l-4.2 4.2c-.8.8-.8 2 0 2.8.8.8 2 .8 2.8 0l7-7h42.8v-6.2c-4-.9-7-4.5-7-8.8v-18c0-.9-.1-1.7-.2-2.6l11.2-11.2c.8-.7.8-2 0-2.8zm-49.1 45.6c3.7-2.3 6.1-6.4 6.1-11v-18c0-7.2 5.4-13.1 12.4-13.9l1.6-.2 1.6.2c5.7.6 10.4 4.7 11.9 10l-33 32.9h-.6zm40.2 0c.2.1-22.6.2-33.9.1l27.8-27.9v16.8c0 4.6 2.4 8.7 6.1 11z"/></svg>