<svg xmlns="http://www.w3.org/2000/svg" viewBox="0 0 60 65" enable-background="new 0 0 60 65"><style type="text/css">.st0{fill:#333333;}</style><title>bell-off-f</title><desc>Created with Sketch.</desc><path class="st0" d="M31.3 4.7v-2.4c0-1.3-1-2.3-2.3-2.3-1.3 0-2.3 1-2.3 2.3v2.4c-9 1.1-15.9 8.8-15.9 18v18.2c0 4.2-2.9 7.8-6.8 8.8v3.6l40.4-40.3c-2.9-4.5-7.6-7.6-13.1-8.3zM28.8 63.1c4.4 0 8.3-2 10.9-5.1h-21.8c2.6 3.1 6.6 5.1 10.9 5.1zM47.2 40.9v-16.6l-31.4 31.4h38.2v-6c-3.9-1-6.8-4.6-6.8-8.8zM58 6.4c-.8-.8-2-.8-2.8 0l-53.8 53.8c-.8.8-.8 2 0 2.8.8.8 2 .8 2.8 0l53.8-53.8c.8-.7.8-2 0-2.8z"/></svg>