<?xml version="1.0" encoding="utf-8"?>
<!-- Generator: Adobe Illustrator 21.0.0, SVG Export Plug-In . SVG Version: 6.00 Build 0)  -->
<svg version="1.1" id="Layer_1" xmlns="http://www.w3.org/2000/svg" xmlns:xlink="http://www.w3.org/1999/xlink" x="0px" y="0px"
	 viewBox="0 0 60 65" style="enable-background:new 0 0 60 65;" xml:space="preserve">
<style type="text/css">
	.st0{fill:#333333;}
</style>
<title>bell-off-f</title>
<desc>Created with Sketch.</desc>
<g>
	<path class="st0" d="M31.3,4.7V2.3C31.3,1,30.3,0,29,0c-1.3,0-2.3,1-2.3,2.3v2.4c-9,1.1-15.9,8.8-15.9,18v18.2
		c0,4.2-2.9,7.8-6.8,8.8v3.6L44.4,13C41.5,8.5,36.8,5.4,31.3,4.7z"/>
	<path class="st0" d="M28.8,63.1c4.4,0,8.3-2,10.9-5.1H17.9C20.5,61.1,24.5,63.1,28.8,63.1z"/>
	<path class="st0" d="M47.2,40.9V24.3L15.8,55.7H54v-6C50.1,48.7,47.2,45.1,47.2,40.9z"/>
	<path class="st0" d="M58,6.4c-0.8-0.8-2-0.8-2.8,0L1.4,60.2c-0.8,0.8-0.8,2,0,2.8c0.8,0.8,2,0.8,2.8,0L58,9.2
		C58.8,8.5,58.8,7.2,58,6.4z"/>
</g>
</svg>
