<svg xmlns="http://www.w3.org/2000/svg" viewBox="0 0 50 64" enable-background="new 0 0 50 64"><style type="text/css">.st0{fill:#343434;}</style><title>bell</title><desc>Created with Sketch.</desc><path class="st0" d="M24.8 63.1c4.4 0 8.3-2 10.9-5.1h-21.8c2.6 3.1 6.6 5.1 10.9 5.1zM43 41v-18c0-9.3-7-16.9-16-17.9v-3.1c0-1.1-.9-2-2-2s-2 .9-2 2v3.1c-9 1-16 8.6-16 17.9v18c0 4.3-3 7.9-7 8.8v6.2h50v-6.2c-4-.9-7-4.5-7-8.8zm-38.1 11c3.7-2.3 6.1-6.4 6.1-11v-18c0-7.2 5.4-13.1 12.4-13.9l1.6-.2 1.6.2c7 .8 12.4 6.7 12.4 13.9v18c0 4.6 2.4 8.7 6.1 11 .3.2-40.5.2-40.2 0z"/></svg>