<svg xmlns="http://www.w3.org/2000/svg" viewBox="0 0 60 65"><path d="M29 63c4.3 0 8.2-1.9 10.7-5H18.3c2.5 3.1 6.4 5 10.7 5zM58 6.4c-.8-.8-2-.8-2.8 0L45.6 16c-2.5-5.9-8-10.2-14.6-10.9V2c0-1.1-.9-2-2-2s-2 .9-2 2v3.1c-9 1-16 8.6-16 17.9v18c0 4.3-3 7.9-7 8.8V56h1.6l-4.2 4.2c-.8.8-.8 2 0 2.8.8.8 2 .8 2.8 0l7-7H54v-6.2c-4-.9-7-4.5-7-8.8V23c0-.9-.1-1.7-.2-2.6L58 9.2c.8-.7.8-2 0-2.8zM8.9 52c3.7-2.3 6.1-6.4 6.1-11V23c0-7.2 5.4-13.1 12.4-13.9l1.6-.2 1.6.2c5.7.6 10.4 4.7 11.9 10L9.5 52h-.6zm40.2 0c.2.1-22.6.2-33.9.1L43 24.2V41c0 4.6 2.4 8.7 6.1 11z" fill="#333"/></svg>