<?xml version="1.0" encoding="utf-8"?>
<!-- Generator: Adobe Illustrator 21.0.0, SVG Export Plug-In . SVG Version: 6.00 Build 0)  -->
<svg version="1.1" id="Layer_1" xmlns="http://www.w3.org/2000/svg" xmlns:xlink="http://www.w3.org/1999/xlink" x="0px" y="0px"
	 viewBox="0 0 50 64" style="enable-background:new 0 0 50 64;" xml:space="preserve">
<style type="text/css">
	.st0{fill:#343434;}
</style>
<title>bell</title>
<desc>Created with Sketch.</desc>
<g>
	<path class="st0" d="M24.8,63.1c4.4,0,8.3-2,10.9-5.1H13.9C16.5,61.1,20.5,63.1,24.8,63.1z"/>
	<path class="st0" d="M43,41V23c0-9.3-7-16.9-16-17.9V2c0-1.1-0.9-2-2-2c-1.1,0-2,0.9-2,2v3.1C14,6.1,7,13.7,7,23v18
		c0,4.3-3,7.9-7,8.8V56h50v-6.2C46,48.9,43,45.3,43,41z M4.9,52c3.7-2.3,6.1-6.4,6.1-11V23c0-7.2,5.4-13.1,12.4-13.9L25,8.9l1.6,0.2
		C33.6,9.9,39,15.8,39,23v18c0,4.6,2.4,8.7,6.1,11C45.4,52.2,4.6,52.2,4.9,52z"/>
</g>
</svg>
