<?xml version="1.0" encoding="utf-8"?>
<!-- Generator: Adobe Illustrator 21.0.0, SVG Export Plug-In . SVG Version: 6.00 Build 0)  -->
<svg version="1.1" id="Layer_1" xmlns="http://www.w3.org/2000/svg" xmlns:xlink="http://www.w3.org/1999/xlink" x="0px" y="0px"
	 viewBox="0 0 50 64" style="enable-background:new 0 0 50 64;" xml:space="preserve">
<style type="text/css">
	.st0{fill:#333333;}
</style>
<title>bell-f</title>
<desc>Created with Sketch.</desc>
<g>
	<path class="st0" d="M24.8,63.1c4.4,0,8.3-2,10.9-5.1H13.9C16.5,61.1,20.5,63.1,24.8,63.1z"/>
	<path class="st0" d="M43.2,40.9V22.7c0-9.3-6.9-16.9-15.9-18V2.3C27.3,1,26.3,0,25,0c-1.3,0-2.3,1-2.3,2.3v2.4
		c-9,1.1-15.9,8.8-15.9,18v18.2c0,4.2-2.9,7.8-6.8,8.8v6h50v-6C46.1,48.7,43.2,45.1,43.2,40.9z"/>
</g>
</svg>
