<?xml version="1.0" encoding="utf-8"?>
<!-- Generator: Adobe Illustrator 21.0.0, SVG Export Plug-In . SVG Version: 6.00 Build 0)  -->
<svg version="1.1" id="Layer_1" xmlns="http://www.w3.org/2000/svg" xmlns:xlink="http://www.w3.org/1999/xlink" x="0px" y="0px"
	 viewBox="0 0 48 64" style="enable-background:new 0 0 48 64;" xml:space="preserve">
<style type="text/css">
	.st0{fill:#333333;}
</style>
<title>birthday-cake</title>
<desc>Created with Sketch.</desc>
<g>
	<path class="st0" d="M24,45.8l-10,4L4,46.3c0,1.3,0,2.8,0,4.2l10,3.6l9.9-4l10,4l10-3.6c0-1.4,0-2.9,0-4.2l-10,3.5L24,45.8z"/>
	<path class="st0" d="M44,36H31V21c0-1.1-0.9-2-2-2H19c-1.1,0-2,0.9-2,2v15H4c-2.2,0-4,1.8-4,4v20c0,2.2,1.8,4,4,4h40
		c2.2,0,4-1.8,4-4V40C48,37.8,46.2,36,44,36z M21,23h6v13h-6V23z M44,46.3v4.2l0,0c0,4.8,0,9.4,0,9.4c0,0-40,0-40,0c0,0,0-4.6,0-9.4
		l0,0v-4.2l0,0C4,42.8,4,40,4,40c0,0,40,0,40,0C44,40,44,42.8,44,46.3L44,46.3z"/>
	<path class="st0" d="M24,17c3.3,0,6-2.7,6-6c0-3.2-2.7-11-6-11s-6,7.8-6,11C18,14.3,20.7,17,24,17z M23.4,6
		c0.2-0.4,0.4-0.8,0.6-1.2c0.2,0.3,0.4,0.7,0.6,1.2c0.8,1.8,1.4,4,1.4,5c0,1.1-0.9,2-2,2s-2-0.9-2-2C22,10,22.6,7.7,23.4,6z"/>
</g>
</svg>
