<svg xmlns="http://www.w3.org/2000/svg" viewBox="0 0 48 64" enable-background="new 0 0 48 64"><style type="text/css">.st0{fill:#333333;}</style><title>birthday-cake</title><desc>Created with Sketch.</desc><path class="st0" d="M24 45.8l-10 4-10-3.5v4.2l10 3.6 9.9-4 10 4 10-3.6v-4.2l-10 3.5-9.9-4zM44 36h-13v-15c0-1.1-.9-2-2-2h-10c-1.1 0-2 .9-2 2v15h-13c-2.2 0-4 1.8-4 4v20c0 2.2 1.8 4 4 4h40c2.2 0 4-1.8 4-4v-20c0-2.2-1.8-4-4-4zm-23-13h6v13h-6v-13zm23 23.3v13.600000000000001h-40v-19.900000000000002h40v6.3zM24 17c3.3 0 6-2.7 6-6 0-3.2-2.7-11-6-11s-6 7.8-6 11c0 3.3 2.7 6 6 6zm-.6-11l.6-1.2c.2.3.4.7.6 1.2.8 1.8 1.4 4 1.4 5 0 1.1-.9 2-2 2s-2-.9-2-2c0-1 .6-3.3 1.4-5z"/></svg>