<?xml version="1.0" encoding="utf-8"?>
<!-- Generator: Adobe Illustrator 21.0.0, SVG Export Plug-In . SVG Version: 6.00 Build 0)  -->
<svg version="1.1" id="Layer_1" xmlns="http://www.w3.org/2000/svg" xmlns:xlink="http://www.w3.org/1999/xlink" x="0px" y="0px"
	 viewBox="0 0 52 63" style="enable-background:new 0 0 52 63;" xml:space="preserve">
<style type="text/css">
	.st0{fill:#343434;}
</style>
<title>bold</title>
<desc>Created with Sketch.</desc>
<path class="st0" d="M50.6,38.1c-1-1.9-2.2-3.4-3.7-4.6s-3.2-2.2-5.1-2.8c-1.9-0.6-3.8-1.1-5.7-1.3V29c1.9-0.4,3.6-0.9,5.2-1.8
	c1.6-0.8,3-1.9,4.2-3.1s2.1-2.7,2.8-4.3s1-3.4,1-5.2c0-3-0.6-5.4-1.8-7.4c-1.2-1.9-2.9-3.4-4.9-4.5c-2-1.1-4.4-1.8-7-2.2
	C32.9,0.2,30.1,0,27.3,0c-2.6,0-4.9,0.1-6.9,0.3s-4.1,0.3-6.3,0.3H0v3.3C1.1,4.5,2.2,5,3.5,5.4c1.3,0.4,2.5,0.8,3.7,1v49.9
	c-1.2,0.1-2.4,0.4-3.6,0.9c-1.2,0.5-2.4,1-3.6,1.7v3.3h10.5c0.9,0,2.1,0,3.5,0.1s2.8,0.1,4.3,0.2l4.4,0.2c1.5,0.1,2.8,0.1,4,0.1
	c3.3,0,6.4-0.3,9.5-1c3-0.7,5.8-1.7,8.1-3.2c2.4-1.5,4.3-3.3,5.7-5.6s2.1-5,2.1-8.2C52,42.2,51.5,40,50.6,38.1z M19.9,6.1
	c0.8-0.1,1.6-0.2,2.5-0.3c0.9-0.1,2-0.1,3.3-0.1c3,0,5.5,0.9,7.5,2.6c1.9,1.7,2.9,4.5,2.9,8.2c0,2.5-0.7,4.8-2.1,6.7
	c-1.4,2-3.2,3.4-5.5,4.4c-0.9,0.1-1.8,0.2-2.8,0.3c-1,0.1-2,0.1-3,0.1h-2.8V6.1z M35.2,53.7c-2.1,2.2-5,3.3-8.7,3.3
	c-1.8,0-3.2-0.1-4.1-0.2c-0.9-0.1-1.8-0.3-2.6-0.4V33.8h4.7c2,0,3.8,0.2,5.5,0.5s3.2,0.9,4.4,1.8c1.2,0.9,2.2,2,2.9,3.4
	c0.7,1.4,1.1,3.3,1.1,5.5C38.4,48.6,37.3,51.5,35.2,53.7z"/>
</svg>
