<svg xmlns="http://www.w3.org/2000/svg" viewBox="0 0 52 64" enable-background="new 0 0 52 64"><style type="text/css">.st0{fill:#333333;}</style><title>bookmark</title><desc>Created with Sketch.</desc><path class="st0" d="M51.9 4c0-2.2-1.8-4-4-4h-43.9c-2.2 0-4 1.8-4 4 .1 0 0 9.9 0 10.1v42.9c0 7.6 4.3 9.3 9.5 3.9l13.1-13.7 3.4-3.5 3.5 3.6 12.7 13.2c5.4 5.6 9.8 3.8 9.8-4v-42.4c0-.2-.1-10.1-.1-10.1zm-5 54.1c-.3-.3-.7-.6-1.1-1.1l-19.8-20.5-20.1 20.8c-.3.3-.6.6-.9.8v-53.099999999999994h42v51.5c0 .6 0 1.1-.1 1.6z"/></svg>