<?xml version="1.0" encoding="utf-8"?>
<!-- Generator: Adobe Illustrator 21.0.0, SVG Export Plug-In . SVG Version: 6.00 Build 0)  -->
<svg version="1.1" id="Layer_1" xmlns="http://www.w3.org/2000/svg" xmlns:xlink="http://www.w3.org/1999/xlink" x="0px" y="0px"
	 viewBox="0 0 52 64" style="enable-background:new 0 0 52 64;" xml:space="preserve">
<style type="text/css">
	.st0{fill:#333333;}
</style>
<title>bookmark</title>
<desc>Created with Sketch.</desc>
<path class="st0" d="M51.9,4c0-2.2-1.8-4-4-4H4c-2.2,0-4,1.8-4,4C0.1,4,0,13.9,0,14.1V57c0,7.6,4.3,9.3,9.5,3.9l13.1-13.7l3.4-3.5
	l3.5,3.6l12.7,13.2c5.4,5.6,9.8,3.8,9.8-4V14.1C52,13.9,51.9,4,51.9,4z M46.9,58.1c-0.3-0.3-0.7-0.6-1.1-1.1L26,36.5L5.9,57.3
	c-0.3,0.3-0.6,0.6-0.9,0.8C5,57.8,5,57.4,5,57L5,14.2V5H47v9.2L47,56.5C47,57.1,47,57.6,46.9,58.1z"/>
</svg>
