<?xml version="1.0" encoding="utf-8"?>
<!-- Generator: Adobe Illustrator 21.0.0, SVG Export Plug-In . SVG Version: 6.00 Build 0)  -->
<svg version="1.1" id="Layer_1" xmlns="http://www.w3.org/2000/svg" xmlns:xlink="http://www.w3.org/1999/xlink" x="0px" y="0px"
	 viewBox="0 0 64 48" style="enable-background:new 0 0 64 48;" xml:space="preserve">
<style type="text/css">
	.st0{fill:#343434;}
</style>
<title>box</title>
<desc>Created with Sketch.</desc>
<path class="st0" d="M64,4c0-2.2-1.8-4-4-4H4C1.8,0,0,1.8,0,4v16h0c0,0,0,0,0,0v24c0,2.2,1.8,4,4,4h56c2.2,0,4-1.8,4-4V20
	c0,0,0,0,0,0h0V4z M4,4c0,0,56,0,56,0v12h0H41.8H22.2H4h0C4,16,4,4,4,4z M40,20c-1.8,2.4-4.7,4-8,4s-6.2-1.6-8-4H40z M60,20
	c0,0,0,24,0,24c0,0-56,0-56,0c0,0,0-24,0-24h15.3c2.3,4.8,7.1,8,12.7,8s10.4-3.2,12.7-8c0,0,0.5,0,1.4,0C49.9,20,60,20,60,20z"/>
</svg>
