<svg xmlns="http://www.w3.org/2000/svg" viewBox="0 0 48 48" enable-background="new 0 0 48 48"><style type="text/css">.st0{fill:#343434;}</style><title>brightness-down</title><desc>Created with Sketch.</desc><path class="st0" d="M7 24c0-.7 0-1.3.1-2h-5.1c-1.1 0-2 .9-2 2s.9 2 2 2h5.1c-.1-.7-.1-1.3-.1-2zM10.6 13.5c.8-1 1.8-2 2.8-2.8l-3.5-3.7c-.8-.8-2.1-.8-2.9 0-.8.8-.8 2 0 2.8l3.6 3.7zM26 7.1v-5.1c0-1.1-.9-2-2-2s-2 .9-2 2v5.1c.7-.1 1.3-.1 2-.1s1.3 0 2 .1zM37.4 13.5l3.6-3.6c.8-.8.8-2 0-2.8-.8-.8-2-.8-2.8 0l-3.6 3.6c1 .8 1.9 1.7 2.8 2.8zM22 40.9v5.1c0 1.1.9 2 2 2s2-.9 2-2v-5.1c-.7.1-1.3.1-2 .1s-1.3 0-2-.1zM37.4 34.5c-.8 1-1.8 2-2.8 2.8l3.6 3.6c.8.8 2 .8 2.8 0 .8-.8.8-2 0-2.8l-3.6-3.6zM10.6 34.5l-3.6 3.6c-.8.8-.8 2 0 2.8.8.8 2 .8 2.8 0l3.6-3.6c-1-.8-1.9-1.7-2.8-2.8zM46 22h-5.1c.1.7.1 1.3.1 2s0 1.3-.1 2h5.1c1.1 0 2-.9 2-2s-.9-2-2-2z"/><circle class="st0" cx="24" cy="24" r="14"/></svg>