<?xml version="1.0" encoding="utf-8"?>
<!-- Generator: Adobe Illustrator 21.0.0, SVG Export Plug-In . SVG Version: 6.00 Build 0)  -->
<svg version="1.1" id="Layer_1" xmlns="http://www.w3.org/2000/svg" xmlns:xlink="http://www.w3.org/1999/xlink" x="0px" y="0px"
	 viewBox="0 0 64 64" style="enable-background:new 0 0 64 64;" xml:space="preserve">
<style type="text/css">
	.st0{fill:#343434;}
</style>
<title>brightness-up</title>
<desc>Created with Sketch.</desc>
<g>
	<path class="st0" d="M18.6,21.5c0.8-1,1.8-2,2.8-2.8l-9.3-9.3c-0.8-0.8-2-0.8-2.8,0c-0.8,0.8-0.8,2,0,2.8L18.6,21.5z"/>
	<path class="st0" d="M18.6,42.5l-9.3,9.3c-0.8,0.8-0.8,2,0,2.8c0.8,0.8,2,0.8,2.8,0l9.3-9.3C20.4,44.5,19.5,43.6,18.6,42.5z"/>
	<path class="st0" d="M34,15.1V2c0-1.1-0.9-2-2-2c-1.1,0-2,0.9-2,2v13.1c0.7-0.1,1.3-0.1,2-0.1S33.3,15,34,15.1z"/>
	<path class="st0" d="M45.4,21.5l9.3-9.3c0.8-0.8,0.8-2,0-2.8c-0.8-0.8-2-0.8-2.8,0l-9.3,9.3C43.6,19.5,44.5,20.4,45.4,21.5z"/>
	<path class="st0" d="M15,32c0-0.7,0-1.3,0.1-2H2c-1.1,0-2,0.9-2,2c0,1.1,0.9,2,2,2h13.1C15,33.3,15,32.7,15,32z"/>
	<path class="st0" d="M62,30H48.9c0.1,0.7,0.1,1.3,0.1,2s0,1.3-0.1,2H62c1.1,0,2-0.9,2-2C64,30.9,63.1,30,62,30z"/>
	<path class="st0" d="M30,48.9V62c0,1.1,0.9,2,2,2c1.1,0,2-0.9,2-2V48.9C33.3,49,32.7,49,32,49S30.7,49,30,48.9z"/>
	<path class="st0" d="M45.4,42.5c-0.8,1-1.8,2-2.8,2.8l9.3,9.3c0.8,0.8,2,0.8,2.8,0c0.8-0.8,0.8-2,0-2.8L45.4,42.5z"/>
	<circle class="st0" cx="32" cy="32" r="14"/>
</g>
</svg>
