<svg xmlns="http://www.w3.org/2000/svg" viewBox="0 0 64 57"><path d="M61.3 2.6C59 .3 55.1.2 52.6 2.4L24.5 28.1l-2.1 2.1L17 40.9c-2.7-.2-5.6 1.1-7.4 3.4-1.5 3.6-11.9 9.2-8.5 11.3 3.2 1.7 19.1-.8 21.2-4.2.8-1.4 1-3 .7-4.6l10.6-5.3 2.1-2.1 25.6-28.1c2.4-2.4 2.3-6.3 0-8.7zM19.6 50c-.6.4-1.2.7-2.1.7-1.5.8-3.5 1.3-5.7 1.4-2.3.6-4.7.7-6.4.7.5-.4 1.2-1 2.1-2.1 3.2-2.2 4.3-3.3 4.9-4.9 1.3-1.7 3.8-2.3 5.7-1.4 1.9 1.2 2.6 3.6 1.5 5.6zm3.6-7.7l-1.6-1.6 1.9-3.8 3.5 3.5-3.8 1.9zm7.7-3.6L25.2 33l2.1-2.1 5.7 5.7-2.1 2.1zM58.5 8.6l-22.8 25-5.4-5.4 25-22.8c.9-.8 2.3-.8 3.2.1.8.8.8 2.2 0 3.1z" fill="#343434"/></svg>