<svg xmlns="http://www.w3.org/2000/svg" viewBox="0 0 52 64" enable-background="new 0 0 52 64"><style type="text/css">.st0{fill:#333333;}</style><title>bus</title><desc>Created with Sketch.</desc><path class="st0" d="M41 0h-30c-6.1 0-11 4.9-11 11v34c0 3.9 2 7.3 5 9.2v6.8c0 1.7 1.3 3 3 3h5c1.7 0 3-1.3 3-3v-5h20v5c0 1.7 1.3 3 3 3h5c1.7 0 3-1.3 3-3v-6.8c3-2 5-5.4 5-9.2v-34c0-6.1-4.9-11-11-11zm-30 3h30c4.1 0 7.4 3.1 7.9 7h-45.8c.5-3.9 3.8-7 7.9-7zm38 10v26h-46v-26h46zm-36 48h-5v-5h5v5zm31-5v5h-5v-5h5zm-3-3h-30c-4.4 0-8-3.6-8-8v-3h46v3c0 4.4-3.6 8-8 8zM11 43c-2.2 0-4 1.8-4 4s1.8 4 4 4 4-1.8 4-4-1.8-4-4-4zm0 6c-1.1 0-2-.9-2-2s.9-2 2-2 2 .9 2 2-.9 2-2 2zM41 43c-2.2 0-4 1.8-4 4s1.8 4 4 4 4-1.8 4-4-1.8-4-4-4zm0 6c-1.1 0-2-.9-2-2s.9-2 2-2 2 .9 2 2-.9 2-2 2zM8 34c.6 0 1-.4 1-1v-15c0-.6-.4-1-1-1s-1 .4-1 1v15c0 .6.4 1 1 1z"/></svg>