<?xml version="1.0" encoding="utf-8"?>
<!-- Generator: Adobe Illustrator 21.0.0, SVG Export Plug-In . SVG Version: 6.00 Build 0)  -->
<svg version="1.1" id="Layer_1" xmlns="http://www.w3.org/2000/svg" xmlns:xlink="http://www.w3.org/1999/xlink" x="0px" y="0px"
	 viewBox="0 0 51 64" style="enable-background:new 0 0 51 64;" xml:space="preserve">
<style type="text/css">
	.st0{fill:#343434;}
</style>
<title>cactus</title>
<desc>Created with Sketch.</desc>
<g>
	<path class="st0" d="M44.5,21c-3.6,0-6.5,2.9-6.5,6.5V32h-2V10c0-5.5-4.5-10-10-10c-5.5,0-10,4.5-10,10v10h-3v-7.5
		C13,8.9,10.1,6,6.5,6C2.9,6,0,8.9,0,12.5V27c0,3.9,3.1,7,7,7h9v26H7c-1.1,0-2,0.9-2,2v2h11h20h11v-2c0-1.1-0.9-2-2-2h-9V46h8
		c3.9,0,7-3.1,7-7V27.5C51,23.9,48.1,21,44.5,21z M47,39.5c0,1.4-1.1,2.5-2.5,2.5H32v18H20V30H9H6.5C5.1,30,4,28.9,4,27.5v-15
		C4,11.1,5.1,10,6.5,10C7.9,10,9,11.1,9,12.5V24h11V10c0-3.3,2.7-6,6-6c3.3,0,6,2.7,6,6v26h10v-8.5c0-1.4,1.1-2.5,2.5-2.5
		c1.4,0,2.5,1.1,2.5,2.5V39.5z"/>
	<path class="st0" d="M25.5,31c-0.8,0-1.5,0.7-1.5,1.5v22c0,0.8,0.7,1.5,1.5,1.5s1.5-0.7,1.5-1.5v-22C27,31.7,26.3,31,25.5,31z"/>
	<path class="st0" d="M25.5,22c-0.8,0-1.5,0.7-1.5,1.5v4c0,0.8,0.7,1.5,1.5,1.5s1.5-0.7,1.5-1.5v-4C27,22.7,26.3,22,25.5,22z"/>
</g>
</svg>
