<svg xmlns="http://www.w3.org/2000/svg" viewBox="0 0 51 64" enable-background="new 0 0 51 64"><style type="text/css">.st0{fill:#343434;}</style><title>cactus</title><desc>Created with Sketch.</desc><path class="st0" d="M44.5 21c-3.6 0-6.5 2.9-6.5 6.5v4.5h-2v-22c0-5.5-4.5-10-10-10s-10 4.5-10 10v10h-3v-7.5c0-3.6-2.9-6.5-6.5-6.5s-6.5 2.9-6.5 6.5v14.5c0 3.9 3.1 7 7 7h9v26h-9c-1.1 0-2 .9-2 2v2h42v-2c0-1.1-.9-2-2-2h-9v-14h8c3.9 0 7-3.1 7-7v-11.5c0-3.6-2.9-6.5-6.5-6.5zm2.5 18.5c0 1.4-1.1 2.5-2.5 2.5h-12.5v18h-12v-30h-13.5c-1.4 0-2.5-1.1-2.5-2.5v-15c0-1.4 1.1-2.5 2.5-2.5s2.5 1.1 2.5 2.5v11.5h11v-14c0-3.3 2.7-6 6-6s6 2.7 6 6v26h10v-8.5c0-1.4 1.1-2.5 2.5-2.5s2.5 1.1 2.5 2.5v12zM25.5 31c-.8 0-1.5.7-1.5 1.5v22c0 .8.7 1.5 1.5 1.5s1.5-.7 1.5-1.5v-22c0-.8-.7-1.5-1.5-1.5zM25.5 22c-.8 0-1.5.7-1.5 1.5v4c0 .8.7 1.5 1.5 1.5s1.5-.7 1.5-1.5v-4c0-.8-.7-1.5-1.5-1.5z"/></svg>