<svg xmlns="http://www.w3.org/2000/svg" viewBox="0 0 48 64" enable-background="new 0 0 48 64"><style type="text/css">.st0{fill:#343434;}</style><title>calculator</title><desc>Created with Sketch.</desc><path class="st0" d="M42 0h-36c-3.3 0-6 2.7-6 6v52c0 3.3 2.7 6 6 6h36c3.3 0 6-2.7 6-6v-52c0-3.3-2.7-6-6-6zm2 58c0 1.1-.9 2-2 2h-36c-1.1 0-2-.9-2-2v-52c0-1.1.9-2 2-2h36c1.1 0 2 .9 2 2v52zM37 8h-26c-1.1 0-2 .9-2 2v8c0 1.1.9 2 2 2h26c1.1 0 2-.9 2-2v-8c0-1.1-.9-2-2-2zM13 24h-2c-1.1 0-2 .9-2 2v2c0 1.1.9 2 2 2h2c1.1 0 2-.9 2-2v-2c0-1.1-.9-2-2-2zM21 51h-2c-1.1 0-2 .9-2 2v2c0 1.1.9 2 2 2h2c1.1 0 2-.9 2-2v-2c0-1.1-.9-2-2-2zM21 42h-2c-1.1 0-2 .9-2 2v2c0 1.1.9 2 2 2h2c1.1 0 2-.9 2-2v-2c0-1.1-.9-2-2-2zM13 33h-2c-1.1 0-2 .9-2 2v2c0 1.1.9 2 2 2h2c1.1 0 2-.9 2-2v-2c0-1.1-.9-2-2-2zM21 33h-2c-1.1 0-2 .9-2 2v2c0 1.1.9 2 2 2h2c1.1 0 2-.9 2-2v-2c0-1.1-.9-2-2-2zM13 51h-2c-1.1 0-2 .9-2 2v2c0 1.1.9 2 2 2h2c1.1 0 2-.9 2-2v-2c0-1.1-.9-2-2-2zM13 42h-2c-1.1 0-2 .9-2 2v2c0 1.1.9 2 2 2h2c1.1 0 2-.9 2-2v-2c0-1.1-.9-2-2-2zM37 42h-2c-1.1 0-2 .9-2 2v11c0 1.1.9 2 2 2h2c1.1 0 2-.9 2-2v-11c0-1.1-.9-2-2-2zM37 33h-2c-1.1 0-2 .9-2 2v2c0 1.1.9 2 2 2h2c1.1 0 2-.9 2-2v-2c0-1.1-.9-2-2-2zM21 24h-2c-1.1 0-2 .9-2 2v2c0 1.1.9 2 2 2h2c1.1 0 2-.9 2-2v-2c0-1.1-.9-2-2-2zM37 24h-2c-1.1 0-2 .9-2 2v2c0 1.1.9 2 2 2h2c1.1 0 2-.9 2-2v-2c0-1.1-.9-2-2-2zM29 24h-2c-1.1 0-2 .9-2 2v2c0 1.1.9 2 2 2h2c1.1 0 2-.9 2-2v-2c0-1.1-.9-2-2-2zM29 51h-2c-1.1 0-2 .9-2 2v2c0 1.1.9 2 2 2h2c1.1 0 2-.9 2-2v-2c0-1.1-.9-2-2-2zM29 42h-2c-1.1 0-2 .9-2 2v2c0 1.1.9 2 2 2h2c1.1 0 2-.9 2-2v-2c0-1.1-.9-2-2-2zM29 33h-2c-1.1 0-2 .9-2 2v2c0 1.1.9 2 2 2h2c1.1 0 2-.9 2-2v-2c0-1.1-.9-2-2-2z"/></svg>