<?xml version="1.0" encoding="utf-8"?>
<!-- Generator: Adobe Illustrator 21.0.0, SVG Export Plug-In . SVG Version: 6.00 Build 0)  -->
<svg version="1.1" id="Layer_1" xmlns="http://www.w3.org/2000/svg" xmlns:xlink="http://www.w3.org/1999/xlink" x="0px" y="0px"
	 viewBox="0 0 48 64" style="enable-background:new 0 0 48 64;" xml:space="preserve">
<style type="text/css">
	.st0{fill:#343434;}
</style>
<title>calculator</title>
<desc>Created with Sketch.</desc>
<g>
	<path class="st0" d="M42,0H6C2.7,0,0,2.7,0,6v52c0,3.3,2.7,6,6,6h36c3.3,0,6-2.7,6-6V6C48,2.7,45.3,0,42,0z M44,58c0,1.1-0.9,2-2,2
		H6c-1.1,0-2-0.9-2-2V6c0-1.1,0.9-2,2-2h36c1.1,0,2,0.9,2,2V58z"/>
	<path class="st0" d="M37,8H11c-1.1,0-2,0.9-2,2v8c0,1.1,0.9,2,2,2h26c1.1,0,2-0.9,2-2v-8C39,8.9,38.1,8,37,8z"/>
	<path class="st0" d="M13,24h-2c-1.1,0-2,0.9-2,2v2c0,1.1,0.9,2,2,2h2c1.1,0,2-0.9,2-2v-2C15,24.9,14.1,24,13,24z"/>
	<path class="st0" d="M21,51h-2c-1.1,0-2,0.9-2,2v2c0,1.1,0.9,2,2,2h2c1.1,0,2-0.9,2-2v-2C23,51.9,22.1,51,21,51z"/>
	<path class="st0" d="M21,42h-2c-1.1,0-2,0.9-2,2v2c0,1.1,0.9,2,2,2h2c1.1,0,2-0.9,2-2v-2C23,42.9,22.1,42,21,42z"/>
	<path class="st0" d="M13,33h-2c-1.1,0-2,0.9-2,2v2c0,1.1,0.9,2,2,2h2c1.1,0,2-0.9,2-2v-2C15,33.9,14.1,33,13,33z"/>
	<path class="st0" d="M21,33h-2c-1.1,0-2,0.9-2,2v2c0,1.1,0.9,2,2,2h2c1.1,0,2-0.9,2-2v-2C23,33.9,22.1,33,21,33z"/>
	<path class="st0" d="M13,51h-2c-1.1,0-2,0.9-2,2v2c0,1.1,0.9,2,2,2h2c1.1,0,2-0.9,2-2v-2C15,51.9,14.1,51,13,51z"/>
	<path class="st0" d="M13,42h-2c-1.1,0-2,0.9-2,2v2c0,1.1,0.9,2,2,2h2c1.1,0,2-0.9,2-2v-2C15,42.9,14.1,42,13,42z"/>
	<path class="st0" d="M37,42h-2c-1.1,0-2,0.9-2,2v11c0,1.1,0.9,2,2,2h2c1.1,0,2-0.9,2-2V44C39,42.9,38.1,42,37,42z"/>
	<path class="st0" d="M37,33h-2c-1.1,0-2,0.9-2,2v2c0,1.1,0.9,2,2,2h2c1.1,0,2-0.9,2-2v-2C39,33.9,38.1,33,37,33z"/>
	<path class="st0" d="M21,24h-2c-1.1,0-2,0.9-2,2v2c0,1.1,0.9,2,2,2h2c1.1,0,2-0.9,2-2v-2C23,24.9,22.1,24,21,24z"/>
	<path class="st0" d="M37,24h-2c-1.1,0-2,0.9-2,2v2c0,1.1,0.9,2,2,2h2c1.1,0,2-0.9,2-2v-2C39,24.9,38.1,24,37,24z"/>
	<path class="st0" d="M29,24h-2c-1.1,0-2,0.9-2,2v2c0,1.1,0.9,2,2,2h2c1.1,0,2-0.9,2-2v-2C31,24.9,30.1,24,29,24z"/>
	<path class="st0" d="M29,51h-2c-1.1,0-2,0.9-2,2v2c0,1.1,0.9,2,2,2h2c1.1,0,2-0.9,2-2v-2C31,51.9,30.1,51,29,51z"/>
	<path class="st0" d="M29,42h-2c-1.1,0-2,0.9-2,2v2c0,1.1,0.9,2,2,2h2c1.1,0,2-0.9,2-2v-2C31,42.9,30.1,42,29,42z"/>
	<path class="st0" d="M29,33h-2c-1.1,0-2,0.9-2,2v2c0,1.1,0.9,2,2,2h2c1.1,0,2-0.9,2-2v-2C31,33.9,30.1,33,29,33z"/>
</g>
</svg>
