<?xml version="1.0" encoding="utf-8"?>
<!-- Generator: Adobe Illustrator 21.0.0, SVG Export Plug-In . SVG Version: 6.00 Build 0)  -->
<svg version="1.1" id="Layer_1" xmlns="http://www.w3.org/2000/svg" xmlns:xlink="http://www.w3.org/1999/xlink" x="0px" y="0px"
	 viewBox="0 0 64 52" style="enable-background:new 0 0 64 52;" xml:space="preserve">
<style type="text/css">
	.st0{fill:#333333;}
</style>
<title>calendar</title>
<desc>Created with Sketch.</desc>
<g>
	<path class="st0" d="M60,8h-7V2c0-1.1-0.9-2-2-2c-1.1,0-2,0.9-2,2v6h-9V2c0-1.1-0.9-2-2-2c-1.1,0-2,0.9-2,2v6h-9V2c0-1.1-0.9-2-2-2
		c-1.1,0-2,0.9-2,2v6h-9V2c0-1.1-0.9-2-2-2c-1.1,0-2,0.9-2,2v6H4c-2.2,0-4,1.8-4,4v36c0,2.2,1.8,4,4,4h56c2.2,0,4-1.8,4-4V12
		C64,9.8,62.2,8,60,8z M60,48c0,0-56,0-56,0c0,0,0-36,0-36c0,0,2.3,0,6,0c0,1.1,0.9,2,2,2c1.1,0,2-0.9,2-2c2.7,0,5.8,0,9,0
		c0,1.1,0.9,2,2,2c1.1,0,2-0.9,2-2c3,0,6,0,9,0c0,1.1,0.9,2,2,2c1.1,0,2-0.9,2-2c3.2,0,6.3,0,9,0c0,1.1,0.9,2,2,2c1.1,0,2-0.9,2-2
		c4.3,0,7,0,7,0S60,48,60,48z"/>
	<circle class="st0" cx="26" cy="21" r="2"/>
	<circle class="st0" cx="14" cy="21" r="2"/>
	<circle class="st0" cx="26" cy="31" r="2"/>
	<circle class="st0" cx="26" cy="41" r="2"/>
	<circle class="st0" cx="14" cy="31" r="2"/>
	<circle class="st0" cx="14" cy="41" r="2"/>
	<circle class="st0" cx="50" cy="31" r="2"/>
	<circle class="st0" cx="50" cy="41" r="2"/>
	<circle class="st0" cx="38" cy="41" r="2"/>
	<circle class="st0" cx="50" cy="21" r="2"/>
	<circle class="st0" cx="38" cy="31" r="2"/>
	<circle class="st0" cx="38" cy="21" r="2"/>
</g>
</svg>
