<svg xmlns="http://www.w3.org/2000/svg" viewBox="0 0 64 52" enable-background="new 0 0 64 52"><style type="text/css">.st0{fill:#333333;}</style><title>calendar</title><desc>Created with Sketch.</desc><path class="st0" d="M60 8h-7v-6c0-1.1-.9-2-2-2s-2 .9-2 2v6h-9v-6c0-1.1-.9-2-2-2s-2 .9-2 2v6h-9v-6c0-1.1-.9-2-2-2s-2 .9-2 2v6h-9v-6c0-1.1-.9-2-2-2s-2 .9-2 2v6h-6c-2.2 0-4 1.8-4 4v36c0 2.2 1.8 4 4 4h56c2.2 0 4-1.8 4-4v-36c0-2.2-1.8-4-4-4zm0 40h-56v-36h6c0 1.1.9 2 2 2s2-.9 2-2h9c0 1.1.9 2 2 2s2-.9 2-2h9c0 1.1.9 2 2 2s2-.9 2-2h9c0 1.1.9 2 2 2s2-.9 2-2h7v36z"/><circle class="st0" cx="26" cy="21" r="2"/><circle class="st0" cx="14" cy="21" r="2"/><circle class="st0" cx="26" cy="31" r="2"/><circle class="st0" cx="26" cy="41" r="2"/><circle class="st0" cx="14" cy="31" r="2"/><circle class="st0" cx="14" cy="41" r="2"/><circle class="st0" cx="50" cy="31" r="2"/><circle class="st0" cx="50" cy="41" r="2"/><circle class="st0" cx="38" cy="41" r="2"/><circle class="st0" cx="50" cy="21" r="2"/><circle class="st0" cx="38" cy="31" r="2"/><circle class="st0" cx="38" cy="21" r="2"/></svg>