<svg xmlns="http://www.w3.org/2000/svg" viewBox="0 0 64 50"><path d="M61 0H3C1.3 0 0 1.3 0 3v45c0 1.1.9 2 2 2h60c1.1 0 2-.9 2-2V3c0-1.7-1.3-3-3-3zm-1 46H4V16h56v30zm0-34H4V4h56v8zM39.3 38.3c-2.2 0-3.8-1.1-4.9-2.3l-1.3 1.6c1.3 1.4 3.2 2.7 6.3 2.7 3.5 0 6.3-2.1 6.3-5.5 0-2.6-1.8-4.3-4.1-4.9v-.1c2.1-.8 3.5-2.2 3.5-4.6 0-3.1-2.4-4.9-5.7-4.9-2.2 0-4 1-5.5 2.4l1.3 1.6c1.1-1.1 2.5-2 4.1-2 2 0 3.3 1.2 3.3 3 0 2-1.3 3.6-5.4 3.6V31c4.6 0 6.1 1.5 6.1 3.8-.1 2.1-1.7 3.5-4 3.5zM24 22.5c2.4 0 3.6 1.6 3.6 3.8 0 3.1-3.2 6.5-9 12.3V40H31v-2.1h-5.5c-1 0-2.2.1-3.2.2 4.5-4.7 7.8-8.3 7.8-11.9 0-3.4-2.2-5.6-5.7-5.6-2.5 0-4.2 1.2-5.8 2.9l1.4 1.4c1-1.4 2.4-2.4 4-2.4z" fill="#343434"/></svg>