<svg xmlns="http://www.w3.org/2000/svg" viewBox="0 0 64 64" enable-background="new 0 0 64 64"><style type="text/css">.st0{fill:#343434;}</style><title>camera-alt</title><desc>Created with Sketch.</desc><path class="st0" d="M51 0h-38c-7.2 0-13 5.8-13 13v38c0 7.2 5.8 13 13 13h38c7.2 0 13-5.8 13-13v-38c0-7.2-5.8-13-13-13zm-47 13c0-5 4-9 9-9h38c5 0 9 4 9 9v31h-56v-31zm47 47h-38c-5 0-9-4-9-9v-3h56v3c0 5-4 9-9 9zM54 8h-4c-1.1 0-2 .9-2 2v4c0 1.1.9 2 2 2h4c1.1 0 2-.9 2-2v-4c0-1.1-.9-2-2-2zM14 32h-4c-1.1 0-2 .9-2 2v4c0 1.1.9 2 2 2h4c1.1 0 2-.9 2-2v-4c0-1.1-.9-2-2-2zM51 52h-38c-1.1 0-2 .9-2 2s.9 2 2 2h38c1.1 0 2-.9 2-2s-.9-2-2-2zM32 11c-7.2 0-13 5.8-13 13s5.8 13 13 13 13-5.8 13-13-5.8-13-13-13zm0 22c-5 0-9-4-9-9s4-9 9-9 9 4 9 9-4 9-9 9z"/></svg>