<svg xmlns="http://www.w3.org/2000/svg" viewBox="0 0 48 64"><path d="M48 49c0-5-4-9-9-9s-9 4-9 9c0 1.9.6 3.6 1.5 5H24V26c0-1.1-.9-2-2-2h-4v-2.3c3.4-.9 6-3.8 6-7.4C24 10.1 16 0 16 0S8 10.1 8 14.3c0 3.6 2.6 6.6 6 7.4V24h-4c-1.1 0-2 .9-2 2v28H4c-2.2 0-4 1.8-4 4v6h40v-6.1c4.5-.5 8-4.3 8-8.9zM12 14.3c0-.5.7-2.1 1.9-4.2.4-.7.9-1.5 1.4-2.3.2-.3.4-.7.7-1 .2.3.4.7.7 1 .5.8 1 1.6 1.4 2.3 1.2 2.1 1.9 3.8 1.9 4.2 0 1.3-.8 2.5-2 3.2V17c0-1.1-.9-2-2-2s-2 .9-2 2v.5c-1.2-.7-2-1.8-2-3.2zM12 28h8v26h-8V28zm24 30v2H4v-2h32zm3-4c-2.8 0-5-2.2-5-5s2.2-5 5-5 5 2.2 5 5-2.2 5-5 5z" fill="#333"/></svg>