<?xml version="1.0" encoding="utf-8"?>
<!-- Generator: Adobe Illustrator 21.0.0, SVG Export Plug-In . SVG Version: 6.00 Build 0)  -->
<svg version="1.1" id="Layer_1" xmlns="http://www.w3.org/2000/svg" xmlns:xlink="http://www.w3.org/1999/xlink" x="0px" y="0px"
	 viewBox="0 0 48 64" style="enable-background:new 0 0 48 64;" xml:space="preserve">
<style type="text/css">
	.st0{fill:#333333;}
</style>
<title>candle</title>
<desc>Created with Sketch.</desc>
<path class="st0" d="M48,49c0-5-4-9-9-9s-9,4-9,9c0,1.9,0.6,3.6,1.5,5H24V26c0-1.1-0.9-2-2-2h-4v-2.3c3.4-0.9,6-3.8,6-7.4
	C24,10.1,16,0,16,0S8,10.1,8,14.3c0,3.6,2.6,6.6,6,7.4V24h-4c-1.1,0-2,0.9-2,2v28H4c-2.2,0-4,1.8-4,4v6h40v-6c0,0,0,0,0-0.1
	C44.5,57.4,48,53.6,48,49z M12,14.3c0-0.5,0.7-2.1,1.9-4.2c0.4-0.7,0.9-1.5,1.4-2.3c0.2-0.3,0.4-0.7,0.7-1c0.2,0.3,0.4,0.7,0.7,1
	c0.5,0.8,1,1.6,1.4,2.3c1.2,2.1,1.9,3.8,1.9,4.2c0,1.3-0.8,2.5-2,3.2V17c0-1.1-0.9-2-2-2s-2,0.9-2,2v0.5C12.8,16.8,12,15.7,12,14.3z
	 M12,28h8v26h-8V28z M36,58v2H4v-2c0,0,0,0,0,0h6h12L36,58C36,58,36,58,36,58z M39,54c-2.8,0-5-2.2-5-5s2.2-5,5-5s5,2.2,5,5
	S41.8,54,39,54z"/>
</svg>
