<?xml version="1.0" encoding="utf-8"?>
<!-- Generator: Adobe Illustrator 21.0.0, SVG Export Plug-In . SVG Version: 6.00 Build 0)  -->
<svg version="1.1" id="Layer_1" xmlns="http://www.w3.org/2000/svg" xmlns:xlink="http://www.w3.org/1999/xlink" x="0px" y="0px"
	 viewBox="0 0 52 51" style="enable-background:new 0 0 52 51;" xml:space="preserve">
<style type="text/css">
	.st0{fill:#333333;}
</style>
<title>car</title>
<desc>Created with Sketch.</desc>
<g>
	<path class="st0" d="M48.7,19L43.3,3.8C42.6,1.7,40.2,0,38,0H14c-2.2,0-4.6,1.7-5.3,3.8L3.3,19c-2,1.7-3.3,4.2-3.3,7v8
		c0,3.5,2,6.6,5,8.1V48c0,1.7,1.3,3,3,3h5c1.7,0,3-1.3,3-3v-5c0,0,0,0,0,0h20c0,0,0,0,0,0v5c0,1.7,1.3,3,3,3h5c1.7,0,3-1.3,3-3v-5.9
		c3-1.5,5-4.5,5-8.1v-8C52,23.2,50.7,20.7,48.7,19z M7.2,17l4.3-12.2C11.8,3.9,13.1,3,14,3h24c0.9,0,2.2,0.9,2.5,1.8L44.8,17H43H9
		H7.2z M13,48c0,0-5,0-5,0v-5c0,0,5,0,5,0C13,43,13,48,13,48z M44,43c0,0,0,5,0,5c0,0-5,0-5,0c0,0,0-5,0-5h4H44z M49,34
		c0,3.3-2.7,6-6,6h-4H13H9c-3.3,0-6-2.7-6-6v-8c0-3.3,2.7-6,6-6h34c3.3,0,6,2.7,6,6V34z"/>
	<path class="st0" d="M11,27c-2.2,0-4,1.8-4,4s1.8,4,4,4s4-1.8,4-4S13.2,27,11,27z M11,33c-1.1,0-2-0.9-2-2s0.9-2,2-2s2,0.9,2,2
		S12.1,33,11,33z"/>
	<path class="st0" d="M41,27c-2.2,0-4,1.8-4,4s1.8,4,4,4s4-1.8,4-4S43.2,27,41,27z M41,33c-1.1,0-2-0.9-2-2s0.9-2,2-2s2,0.9,2,2
		S42.1,33,41,33z"/>
	<path class="st0" d="M34,27c-0.6,0-1,0.4-1,1v6c0,0.5,0.4,1,1,1c0.6,0,1-0.4,1-1v-6C35,27.5,34.6,27,34,27z"/>
	<path class="st0" d="M26,27c-0.6,0-1,0.4-1,1v6c0,0.5,0.4,1,1,1c0.6,0,1-0.4,1-1v-6C27,27.5,26.6,27,26,27z"/>
	<path class="st0" d="M30,27c-0.6,0-1,0.4-1,1v6c0,0.5,0.4,1,1,1c0.6,0,1-0.4,1-1v-6C31,27.5,30.6,27,30,27z"/>
	<path class="st0" d="M18,27c-0.6,0-1,0.4-1,1v6c0,0.5,0.4,1,1,1c0.6,0,1-0.4,1-1v-6C19,27.5,18.6,27,18,27z"/>
	<path class="st0" d="M22,27c-0.6,0-1,0.4-1,1v6c0,0.5,0.4,1,1,1c0.6,0,1-0.4,1-1v-6C23,27.5,22.6,27,22,27z"/>
	<path class="st0" d="M15,5.3C14.5,5.1,14,5.4,13.8,6l-2.5,7.6c-0.2,0.5,0.1,1.1,0.6,1.3s1.1-0.1,1.3-0.6l2.5-7.6
		C15.9,6,15.6,5.5,15,5.3z"/>
</g>
</svg>
