<?xml version="1.0" encoding="utf-8"?>
<!-- Generator: Adobe Illustrator 21.0.0, SVG Export Plug-In . SVG Version: 6.00 Build 0)  -->
<svg version="1.1" id="Layer_1" xmlns="http://www.w3.org/2000/svg" xmlns:xlink="http://www.w3.org/1999/xlink" x="0px" y="0px"
	 viewBox="0 0 64 64" style="enable-background:new 0 0 64 64;" xml:space="preserve">
<style type="text/css">
	.st0{fill:#343434;}
</style>
<title>castle</title>
<desc>Created with Sketch.</desc>
<g>
	<path class="st0" d="M62,32h-8c-1.1,0-2,0.9-2,2v6h-4V21.7c2.9-0.9,5-3.5,5-6.7V2c0-1.1-0.9-2-2-2h-8c-1.1,0-2,0.9-2,2v6h-3V2
		c0-1.1-0.9-2-2-2h-8c-1.1,0-2,0.9-2,2v6h-3V2c0-1.1-0.9-2-2-2h-8c-1.1,0-2,0.9-2,2v13c0,3.2,2.1,5.8,5,6.7V40h-4v-6
		c0-1.1-0.9-2-2-2H2c-1.1,0-2,0.9-2,2v30h16h4h3h18h3h4h16V34C64,32.9,63.1,32,62,32z M16,60H4V36h4v8h8V60z M37,60H27V49
		c0-2.8,2.2-5,5-5s5,2.2,5,5V60z M44,40v20h-3V49c0-5-4-9-9-9s-9,4-9,9v11h-3V40V22h24V40z M46,18H18c-1.7,0-3-1.3-3-3v-3V4h4v8h4h7
		V4h4v8h11V4h4v8v3C49,16.7,47.7,18,46,18z M60,60H48V44h8v-8h4V60z"/>
	<path class="st0" d="M37,29c0-2.8-2.2-5-5-5s-5,2.2-5,5v8h10V29z M34,34h-4v-5c0-1.1,0.9-2,2-2s2,0.9,2,2V34z"/>
</g>
</svg>
