<svg xmlns="http://www.w3.org/2000/svg" viewBox="0 0 64 64"><path d="M62 32h-8c-1.1 0-2 .9-2 2v6h-4V21.7c2.9-.9 5-3.5 5-6.7V2c0-1.1-.9-2-2-2h-8c-1.1 0-2 .9-2 2v6h-3V2c0-1.1-.9-2-2-2h-8c-1.1 0-2 .9-2 2v6h-3V2c0-1.1-.9-2-2-2h-8c-1.1 0-2 .9-2 2v13c0 3.2 2.1 5.8 5 6.7V40h-4v-6c0-1.1-.9-2-2-2H2c-1.1 0-2 .9-2 2v30h64V34c0-1.1-.9-2-2-2zM16 60H4V36h4v8h8v16zm21 0H27V49c0-2.8 2.2-5 5-5s5 2.2 5 5v11zm7-20v20h-3V49c0-5-4-9-9-9s-9 4-9 9v11h-3V22h24v18zm2-22H18c-1.7 0-3-1.3-3-3V4h4v8h11V4h4v8h11V4h4v11c0 1.7-1.3 3-3 3zm14 42H48V44h8v-8h4v24zM37 29c0-2.8-2.2-5-5-5s-5 2.2-5 5v8h10v-8zm-3 5h-4v-5c0-1.1.9-2 2-2s2 .9 2 2v5z" fill="#343434"/></svg>