<svg xmlns="http://www.w3.org/2000/svg" viewBox="0 0 36 64" enable-background="new 0 0 36 64"><style type="text/css">.st0{fill:#343434;}</style><title>chess</title><desc>Created with Sketch.</desc><path class="st0" d="M31.5 55h-1.9l-3.1-22h.5c2.2 0 4-1.8 4-4s-1.8-4-4-4h-.4l1.6-8.1c.4-2.2-1-3.9-3.2-3.9h-3v-1h2c1.1 0 2-.9 2-2v-4c0-1.1-.9-2-2-2h-2v-2c0-1.1-.9-2-2-2h-4c-1.1 0-2 .9-2 2v2h-2c-1.1 0-2 .9-2 2v4c0 1.1.9 2 2 2h2v1h-3c-2.2 0-3.7 1.8-3.2 3.9l1.6 8.1h-.4c-2.2 0-4 1.8-4 4s1.8 4 4 4h.6l-3.2 22h-1.9c-2.5 0-4.5 2-4.5 4.5v2.5c0 1.1.9 2 2 2h32c1.1 0 2-.9 2-2v-2.5c0-2.5-2-4.5-4.5-4.5zm-18.5-46v-2h4v-4h2v4h4v2h-4v4h-2v-4h-4zm-2.3 7.3c0-.3 0-.3.3-.3h14c.3 0 .3 0 .3.3l-1.8 8.7h-11l-1.8-8.7zm-1.7 13.7c-.6 0-1-.5-1-1 0-.6.4-1 1-1h18c.6 0 1 .5 1 1 0 .6-.4 1-1 1h-18zm3.6 3h10.8l3.1 22h-17l3.1-22zm20.4 28h-30v-1.5c0-.8.7-1.5 1.5-1.5h27c.8 0 1.5.7 1.5 1.5v1.5z"/></svg>