<?xml version="1.0" encoding="utf-8"?>
<!-- Generator: Adobe Illustrator 21.0.0, SVG Export Plug-In . SVG Version: 6.00 Build 0)  -->
<svg version="1.1" id="Layer_1" xmlns="http://www.w3.org/2000/svg" xmlns:xlink="http://www.w3.org/1999/xlink" x="0px" y="0px"
	 viewBox="0 0 36 64" style="enable-background:new 0 0 36 64;" xml:space="preserve">
<style type="text/css">
	.st0{fill:#343434;}
</style>
<title>chess</title>
<desc>Created with Sketch.</desc>
<path class="st0" d="M31.5,55h-1.9l-3.1-22H27c2.2,0,4-1.8,4-4c0-2.2-1.8-4-4-4h-0.4l1.6-8.1c0.4-2.2-1-3.9-3.2-3.9h-3v-1h2
	c1.1,0,2-0.9,2-2V6c0-1.1-0.9-2-2-2h-2V2c0-1.1-0.9-2-2-2h-4c-1.1,0-2,0.9-2,2v2h-2c-1.1,0-2,0.9-2,2v4c0,1.1,0.9,2,2,2h2v1h-3
	c-2.2,0-3.7,1.8-3.2,3.9L9.4,25H9c-2.2,0-4,1.8-4,4c0,2.2,1.8,4,4,4h0.6L6.4,55H4.5C2,55,0,57,0,59.5V62c0,1.1,0.9,2,2,2h32
	c1.1,0,2-0.9,2-2v-2.5C36,57,34,55,31.5,55z M13,9V7h4V3h2v4h4v2h-4v4h-2V9H13z M10.7,16.3C10.7,16,10.7,16,11,16h5h4h5
	c0.3,0,0.3,0,0.3,0.3L23.5,25H12.5L10.7,16.3z M9,30c-0.6,0-1-0.5-1-1c0-0.6,0.4-1,1-1h1h16h1c0.6,0,1,0.5,1,1c0,0.6-0.4,1-1,1h-1
	H10H9z M12.6,33h10.8l3.1,22H9.5L12.6,33z M33,61H3v-1.5C3,58.7,3.7,58,4.5,58H6h24h1.5c0.8,0,1.5,0.7,1.5,1.5V61z"/>
</svg>
