<?xml version="1.0" encoding="utf-8"?>
<!-- Generator: Adobe Illustrator 21.0.0, SVG Export Plug-In . SVG Version: 6.00 Build 0)  -->
<svg version="1.1" id="Layer_1" xmlns="http://www.w3.org/2000/svg" xmlns:xlink="http://www.w3.org/1999/xlink" x="0px" y="0px"
	 viewBox="0 0 62 62" style="enable-background:new 0 0 62 62;" xml:space="preserve">
<style type="text/css">
	.st0{fill:#333333;}
</style>
<title>close</title>
<desc>Created with Sketch.</desc>
<path class="st0" d="M61.1,56.9L35.3,31.1L60.8,5.6c1.2-1.2,1.2-3.1,0-4.2c-1.2-1.2-3.1-1.2-4.2,0L31.1,26.8L5.9,1.7
	c-1.2-1.2-3.1-1.2-4.2,0c-1.2,1.2-1.2,3.1,0,4.2l25.1,25.1L1.4,56.5c-1.2,1.2-1.2,3.1,0,4.2c1.2,1.2,3.1,1.2,4.2,0l25.5-25.5
	l25.8,25.8c1.2,1.2,3.1,1.2,4.2,0C62.3,59.9,62.3,58,61.1,56.9z"/>
</svg>
