<svg xmlns="http://www.w3.org/2000/svg" viewBox="0 0 64 48" enable-background="new 0 0 64 48"><style type="text/css">.st0{fill:#333333;}</style><title>code</title><desc>Created with Sketch.</desc><path class="st0" d="M20.5 10.5l-2.8-2.8c-.4-.4-1-.4-1.4 0l-15.6 15.6c-.2.2-.3.5-.3.7s.1.5.3.7l15.6 15.6c.4.4 1 .4 1.4 0l2.8-2.8c.4-.4.4-1 0-1.4l-12-12 12-12c.4-.5.4-1.2 0-1.6zM63.2 23.3l-15.5-15.6c-.4-.4-1-.4-1.4 0l-2.8 2.8c-.4.4-.4 1 0 1.4l12 12-12 12c-.4.4-.4 1 0 1.4l2.8 2.8c.4.4 1 .4 1.4 0l15.6-15.6c.2-.2.3-.5.3-.7-.1-.1-.2-.3-.4-.5zM39.5 1.3c-1.6-.5-3.3.4-3.8 1.9l-13 39.9c-.5 1.6.4 3.3 1.9 3.8s3.3-.4 3.8-1.9l13-40c.5-1.5-.3-3.2-1.9-3.7z"/></svg>