<?xml version="1.0" encoding="utf-8"?>
<!-- Generator: Adobe Illustrator 21.0.0, SVG Export Plug-In . SVG Version: 6.00 Build 0)  -->
<svg version="1.1" id="Layer_1" xmlns="http://www.w3.org/2000/svg" xmlns:xlink="http://www.w3.org/1999/xlink" x="0px" y="0px"
	 viewBox="0 0 64 48" style="enable-background:new 0 0 64 48;" xml:space="preserve">
<style type="text/css">
	.st0{fill:#333333;}
</style>
<title>code</title>
<desc>Created with Sketch.</desc>
<g>
	<path class="st0" d="M20.5,10.5l-2.8-2.8c-0.4-0.4-1-0.4-1.4,0L0.7,23.3c-0.2,0.2-0.3,0.5-0.3,0.7s0.1,0.5,0.3,0.7l15.6,15.6
		c0.4,0.4,1,0.4,1.4,0l2.8-2.8c0.4-0.4,0.4-1,0-1.4l-12-12l12-12C20.9,11.6,20.9,10.9,20.5,10.5z"/>
	<path class="st0" d="M63.2,23.3L47.7,7.7c-0.4-0.4-1-0.4-1.4,0l-2.8,2.8c-0.4,0.4-0.4,1,0,1.4l12,12l-12,12c-0.4,0.4-0.4,1,0,1.4
		l2.8,2.8c0.4,0.4,1,0.4,1.4,0l15.6-15.6c0.2-0.2,0.3-0.5,0.3-0.7C63.5,23.7,63.4,23.5,63.2,23.3z"/>
	<path class="st0" d="M39.5,1.3c-1.6-0.5-3.3,0.4-3.8,1.9l-13,39.9c-0.5,1.6,0.4,3.3,1.9,3.8s3.3-0.4,3.8-1.9l13-40
		C41.9,3.5,41.1,1.8,39.5,1.3z"/>
</g>
</svg>
