<svg xmlns="http://www.w3.org/2000/svg" viewBox="0 0 64 61" enable-background="new 0 0 64 61"><style type="text/css">.st0{fill:#333333;}</style><title>coffee-cup</title><desc>Created with Sketch.</desc><path class="st0" d="M53.5 29h-53.5c0 14.3 6.3 26.5 15.4 32h21.2c4.3-2.6 8-6.8 10.7-12l-.5 1h6.7c5.8 0 10.5-4.7 10.5-10.5s-4.7-10.5-10.5-10.5zm-18 28h-19c-6.6-4.5-11.3-13.5-12.3-24h43.6c-1 10.5-5.7 19.5-12.3 24zm18-11h-4.8v.1c1.7-4.2 2.9-8.9 3.2-14 0 .3 0 .6-.1.9h1.7c3.6 0 6.5 2.9 6.5 6.5s-2.9 6.5-6.5 6.5zM20.8 25.4s4.1-1.5 3.4-6.2c-.3-1.9-1.4-4.5-1.5-7.1-.1-1.5-.2-3.4 0-5 .4-3.8 1.5-7.1 1.5-7.1s-6.4 3.1-6.2 9.8c.1 3.3 1.4 6.6 2.8 9.4 2 3.9 0 6.2 0 6.2zM27.8 23.2s2.6-.9 2.1-3.9c-.2-1.2-.9-2.8-1-4.5-.1-3.3 1-7.7 1-7.7s-4.1 2-3.9 6.3c.1 2.1.9 4.2 1.8 6 1.3 2.3 0 3.8 0 3.8z"/></svg>