<svg xmlns="http://www.w3.org/2000/svg" viewBox="0 0 38 64" enable-background="new 0 0 38 64"><style type="text/css">.st0{fill:#343434;}</style><title>coffee-alt</title><desc>Created with Sketch.</desc><path class="st0" d="M36 7v-1.5c0-3-2.5-5.5-5.5-5.5h-23c-3 0-5.5 2.5-5.5 5.5v1.5c-1.1 0-2 .9-2 2v7c0 1.1.9 2 2 2h.2l.3 8h-.5l1 25h.5l.6 13h29.8l.6-13h.5l1-25h-.5l.3-8h.2c1.1 0 2-.9 2-2v-7c0-1.1-.9-2-2-2zm-5.4 40h-23.2l-.7-17h24.6l-.7 17zm-.6 12.9h-22l-.4-8.9h22.8l-.4 8.9zm-23.5-33.9l-.3-7.9h25.6l-.3 7.9h-25zm27.5-12h-30v-3h30v3zm-28-8.5c0-.8.7-1.5 1.5-1.5h23c.8 0 1.5.7 1.5 1.5v1.5h-26v-1.5z"/></svg>