<?xml version="1.0" encoding="utf-8"?>
<!-- Generator: Adobe Illustrator 21.0.0, SVG Export Plug-In . SVG Version: 6.00 Build 0)  -->
<svg version="1.1" id="Layer_1" xmlns="http://www.w3.org/2000/svg" xmlns:xlink="http://www.w3.org/1999/xlink" x="0px" y="0px"
	 viewBox="0 0 64 61" style="enable-background:new 0 0 64 61;" xml:space="preserve">
<style type="text/css">
	.st0{fill:#333333;}
</style>
<title>coffee-cup-f</title>
<desc>Created with Sketch.</desc>
<g>
	<path class="st0" d="M53.5,29H52c0,0.8,0,1.6-0.1,2.4c0-0.8,0.1-1.6,0.1-2.4h-3.3H0c0,14.3,6.3,26.5,15.4,32h21.2
		c4.3-2.6,8-6.8,10.7-12c-0.2,0.3-0.3,0.7-0.5,1h6.7C59.3,50,64,45.3,64,39.5C64,33.7,59.3,29,53.5,29z M53.5,46h-4.8
		c0,0,0,0.1,0,0.1c1.7-4.2,2.9-8.9,3.2-14c0,0.3,0,0.6-0.1,0.9h1.7c3.6,0,6.5,2.9,6.5,6.5C60,43.1,57.1,46,53.5,46z M47.8,48.2
		c0.2-0.4,0.4-0.8,0.6-1.3C48.1,47.3,48,47.8,47.8,48.2z"/>
	<path class="st0" d="M20.8,25.4c0,0,4.1-1.5,3.4-6.2c-0.3-1.9-1.4-4.5-1.5-7.1c-0.1-1.5-0.2-3.4,0-5C23.1,3.3,24.2,0,24.2,0
		S17.8,3.1,18,9.8c0.1,3.3,1.4,6.6,2.8,9.4C22.8,23.1,20.8,25.4,20.8,25.4z"/>
	<path class="st0" d="M27.8,23.2c0,0,2.6-0.9,2.1-3.9c-0.2-1.2-0.9-2.8-1-4.5c-0.1-3.3,1-7.7,1-7.7s-4.1,2-3.9,6.3
		c0.1,2.1,0.9,4.2,1.8,6C29.1,21.7,27.8,23.2,27.8,23.2z"/>
</g>
</svg>
