<?xml version="1.0" encoding="utf-8"?>
<!-- Generator: Adobe Illustrator 21.0.0, SVG Export Plug-In . SVG Version: 6.00 Build 0)  -->
<svg version="1.1" id="Layer_1" xmlns="http://www.w3.org/2000/svg" xmlns:xlink="http://www.w3.org/1999/xlink" x="0px" y="0px"
	 viewBox="0 0 64 64" style="enable-background:new 0 0 64 64;" xml:space="preserve">
<style type="text/css">
	.st0{fill:#333333;}
</style>
<title>cog</title>
<desc>Created with Sketch.</desc>
<g>
	<path class="st0" d="M57,32c0-3.7,2.6-6.9,6.1-7.8c-0.8-3.1-2-6-3.6-8.7c-3.1,1.8-7.1,1.4-9.8-1.2s-3.1-6.7-1.2-9.8
		c-2.7-1.6-5.6-2.8-8.7-3.6C38.9,4.4,35.7,7,32,7s-6.9-2.6-7.8-6.1c-3.1,0.8-6,2-8.7,3.6c1.8,3.1,1.4,7.1-1.2,9.8s-6.7,3.1-9.8,1.2
		c-1.6,2.7-2.8,5.6-3.6,8.7C4.4,25.1,7,28.3,7,32s-2.6,6.9-6.1,7.8c0.8,3.1,2,6,3.6,8.7c3.1-1.8,7.1-1.4,9.8,1.2s3.1,6.7,1.2,9.8
		c2.7,1.6,5.6,2.8,8.7,3.6c0.9-3.5,4-6.1,7.8-6.1s6.9,2.6,7.8,6.1c3.1-0.8,6-2,8.7-3.6c-1.8-3.1-1.4-7.1,1.2-9.8s6.7-3.1,9.8-1.2
		c1.6-2.7,2.8-5.6,3.6-8.7C59.6,38.9,57,35.7,57,32z M57.5,43.5c-3.8-0.7-7.8,0.4-10.7,3.3s-4,6.9-3.3,10.7
		c-0.5,0.2-1.1,0.5-1.6,0.7C39.7,55,36.1,53,32,53s-7.7,2-9.9,5.2c-0.6-0.2-1.1-0.4-1.6-0.7c0.7-3.8-0.4-7.8-3.3-10.7
		s-6.9-4-10.7-3.3C6.2,43,6,42.4,5.8,41.9C9,39.7,11,36.1,11,32s-2-7.7-5.2-9.9C6,21.6,6.2,21,6.5,20.5c3.8,0.7,7.8-0.4,10.7-3.3
		s4-6.9,3.3-10.7C21,6.2,21.6,6,22.1,5.8C24.3,9,27.9,11,32,11s7.7-2,9.9-5.2C42.4,6,43,6.2,43.5,6.5c-0.7,3.8,0.4,7.8,3.3,10.7
		s6.9,4,10.7,3.3c0.2,0.5,0.5,1.1,0.7,1.6C55,24.3,53,27.9,53,32s2,7.7,5.2,9.9C58,42.4,57.8,43,57.5,43.5z"/>
	<path class="st0" d="M32,18c-7.7,0-14,6.3-14,14s6.3,14,14,14s14-6.3,14-14S39.7,18,32,18z M32,42c-5.5,0-10-4.5-10-10
		s4.5-10,10-10s10,4.5,10,10S37.5,42,32,42z"/>
</g>
</svg>
