<?xml version="1.0" encoding="utf-8"?>
<!-- Generator: Adobe Illustrator 21.0.0, SVG Export Plug-In . SVG Version: 6.00 Build 0)  -->
<svg version="1.1" id="Layer_1" xmlns="http://www.w3.org/2000/svg" xmlns:xlink="http://www.w3.org/1999/xlink" x="0px" y="0px"
	 viewBox="0 0 65 64" style="enable-background:new 0 0 65 64;" xml:space="preserve">
<style type="text/css">
	.st0{fill:none;}
	.st1{fill:#333333;}
	.st2{fill:#343434;}
</style>
<title>cogs</title>
<desc>Created with Sketch.</desc>
<g>
	<circle class="st0" cx="48" cy="17" r="4"/>
	<path class="st0" d="M56.8,13c-0.7-1.7-0.7-3.6-0.1-5.2c-1.6,0.6-3.4,0.6-5.1-0.1c-1.7-0.7-3-2-3.7-3.6C47.2,5.8,45.9,7.2,44,8
		c-1.7,0.7-3.5,0.7-5,0.1c0.5,1.6,0.5,3.3-0.2,4.9c-0.8,1.8-2.2,3.1-3.8,3.8c1.8,0.7,3.2,2.1,4,4c0.7,1.6,0.7,3.4,0.2,4.9
		c1.6-0.5,3.3-0.5,4.9,0.2c1.7,0.7,3.1,2.1,3.7,3.8c0.7-1.7,2.1-3.1,3.9-3.8c1.7-0.7,3.5-0.7,5.1-0.1c-0.6-1.6-0.6-3.5,0.1-5.2
		c0.7-1.7,2-2.9,3.6-3.6C58.8,16.1,57.5,14.8,56.8,13z M48,24c-3.9,0-7-3.1-7-7s3.1-7,7-7s7,3.1,7,7S51.9,24,48,24z"/>
	<g>
		<path class="st1" d="M64,14.4c-1.8,0.3-3.7-0.7-4.4-2.5C58.8,10.1,59.5,8.1,61,7c-0.9-1.3-2.1-2.5-3.4-3.5
			c-1.1,1.5-3.1,2.2-4.9,1.4C51,4.2,50,2.2,50.4,0.4c-1.7-0.3-3.4-0.3-5.1-0.1c0.5,2-0.5,4.1-2.4,4.9c-1.9,0.8-4.1,0-5.1-1.8
			c-1.3,0.9-2.4,2.1-3.4,3.4c1.7,1,2.4,3.1,1.6,5c-0.8,1.9-2.8,2.8-4.7,2.3c-0.3,1.8-0.3,3.5,0,5.3c2-0.5,4.1,0.5,4.8,2.5
			c0.7,1.9,0.1,3.9-1.6,5c1,1.2,2.1,2.3,3.4,3.2c1-1.6,3.1-2.2,4.9-1.5c1.8,0.7,2.7,2.6,2.4,4.4c1.7,0.2,3.4,0.2,5,0
			c-0.3-1.8,0.8-3.7,2.5-4.4c1.7-0.7,3.7-0.1,4.8,1.2c1.2-0.9,2.4-2.1,3.3-3.4c-1.4-1.1-2-3-1.3-4.7c0.7-1.7,2.5-2.7,4.3-2.4
			C64.2,17.7,64.2,16,64,14.4z M56.9,20.5c-0.7,1.7-0.7,3.5-0.1,5.2c-1.6-0.6-3.4-0.6-5.1,0.1c-1.8,0.7-3.2,2.1-3.9,3.8
			c-0.7-1.7-2-3-3.7-3.8c-1.6-0.7-3.4-0.7-4.9-0.2c0.5-1.6,0.5-3.3-0.2-4.9c-0.8-1.9-2.2-3.3-4-4c1.7-0.7,3.1-2,3.8-3.8
			c0.7-1.6,0.7-3.3,0.2-4.9c1.6,0.6,3.4,0.6,5-0.1c1.8-0.7,3.2-2.2,3.9-3.9c0.7,1.6,2,2.9,3.7,3.6c1.7,0.7,3.5,0.7,5.1,0.1
			c-0.6,1.6-0.6,3.5,0.1,5.2c0.7,1.8,2.1,3.1,3.7,3.8C58.9,17.6,57.6,18.8,56.9,20.5z"/>
		<path class="st1" d="M48,10c-3.9,0-7,3.1-7,7s3.1,7,7,7s7-3.1,7-7S51.9,10,48,10z M48,21c-2.2,0-4-1.8-4-4c0-2.2,1.8-4,4-4
			s4,1.8,4,4C52,19.2,50.2,21,48,21z"/>
	</g>
	<g>
		<circle class="st0" cx="21" cy="44" r="6"/>
		<path class="st0" d="M36.9,37.4c-2.3,0.2-4.7-0.6-6.4-2.4c-1.9-1.9-3-4.8-2.5-7.4c-1.4,2.1-4.3,3.3-7,3.3c-2.9,0-5.4-1.5-6.8-3.8
			c0.7,2.7,0,5.7-2.1,7.9c-2.1,2.1-5.1,2.8-7.9,2.1C6.5,38.6,8,41.1,8,44c0,2.7-1.2,5.6-3.3,7c2.6-0.5,5.4,0.6,7.4,2.5
			c1.7,1.7,2.6,4.1,2.5,6.4c0.2-0.3,0.4-0.5,0.7-0.7c1.5-1.4,3.7-2.2,5.8-2.2c2.4,0,5.1,0.8,6.6,2.5c0-2.1,1.4-4.4,2.9-6
			c1.6-1.6,3.9-2.9,6-2.9C34.8,49.1,34,46.4,34,44C34,41.5,35.1,38.9,36.9,37.4z M21,53c-5,0-9-4-9-9s4-9,9-9s9,4,9,9S26,53,21,53z"
			/>
		<path class="st2" d="M37,44c0-2.3,1.5-4.2,3.6-4.8c-0.4-1.9-1.1-3.7-1.9-5.3c-1.9,1-4.4,0.7-6-1c-1.7-1.7-2-4.4-0.7-6.4
			c-1.8-1.2-3.8-2.2-6-2.8C25.6,26.1,23.5,28,21,28c-2.6,0-4.7-2-5-4.5c-2.1,0.5-4.1,1.3-5.9,2.3c1.8,2,1.8,5.2-0.2,7.1
			s-5.1,2-7.1,0.2C1.8,34.9,1,36.9,0.5,39C3,39.3,5,41.4,5,44c0,2.5-1.9,4.6-4.3,4.9c0.6,2.2,1.5,4.2,2.8,6c2-1.3,4.7-1.1,6.4,0.7
			c1.6,1.6,1.9,4,1,6c1.7,0.9,3.4,1.5,5.3,1.9c0.6-2.1,2.5-3.6,4.8-3.6c2.2,0,4,1.4,4.7,3.3c2-0.5,3.9-1.4,5.7-2.5
			c-0.6-1.8-0.2-3.8,1.3-5.2s3.4-1.8,5.2-1.3c1.1-1.7,1.9-3.6,2.5-5.7C38.4,48,37,46.2,37,44z M36.5,50.6c-2.1,0-4.4,1.4-6,2.9
			c-1.6,1.6-2.9,3.9-2.9,6C26.1,57.8,23.4,57,21,57c-2.2,0-4.3,0.8-5.8,2.2c-0.2,0.2-0.5,0.5-0.7,0.7c0.2-2.3-0.7-4.7-2.5-6.4
			c-1.9-1.9-4.8-3-7.4-2.5C6.8,49.6,8,46.7,8,44c0-2.9-1.5-5.4-3.8-6.8c2.7,0.7,5.7,0,7.9-2.1c2.1-2.1,2.8-5.1,2.1-7.9
			c1.4,2.3,4,3.8,6.8,3.8c2.7,0,5.6-1.2,7-3.3c-0.5,2.6,0.5,5.4,2.5,7.4c1.7,1.7,4.1,2.5,6.4,2.4C35.1,38.9,34,41.5,34,44
			C34,46.4,34.8,49.1,36.5,50.6z"/>
		<path class="st1" d="M21,35c-5,0-9,4-9,9s4,9,9,9s9-4,9-9S26,35,21,35z M21,50c-3.3,0-6-2.7-6-6s2.7-6,6-6s6,2.7,6,6
			S24.3,50,21,50z"/>
	</g>
</g>
</svg>
