<?xml version="1.0" encoding="utf-8"?>
<!-- Generator: Adobe Illustrator 21.0.0, SVG Export Plug-In . SVG Version: 6.00 Build 0)  -->
<svg version="1.1" id="Layer_1" xmlns="http://www.w3.org/2000/svg" xmlns:xlink="http://www.w3.org/1999/xlink" x="0px" y="0px"
	 viewBox="0 0 64 64" style="enable-background:new 0 0 64 64;" xml:space="preserve">
<style type="text/css">
	.st0{fill:#333333;}
</style>
<title>cogs-f</title>
<desc>Created with Sketch.</desc>
<g>
	<path class="st0" d="M63.3,14.7c-1.8,0.3-3.7-0.8-4.4-2.5c-0.7-1.8-0.1-3.8,1.4-4.9c-0.9-1.3-2.1-2.5-3.4-3.5
		c-1.1,1.5-3.1,2.1-4.9,1.3s-2.8-2.6-2.5-4.4c-1.6-0.3-3.3-0.3-4.9,0C45,2.5,44,4.3,42.2,5.1c-1.8,0.7-3.8,0.1-4.9-1.4
		c-1.3,0.9-2.5,2.1-3.5,3.4c1.5,1.1,2.1,3.1,1.3,4.9s-2.6,2.8-4.4,2.5c-0.3,1.6-0.3,3.3,0,4.9c1.8-0.3,3.7,0.8,4.4,2.5
		c0.7,1.8,0.1,3.8-1.4,4.9c0.9,1.3,2.1,2.5,3.4,3.5c1.1-1.5,3.1-2.1,4.9-1.3s2.8,2.6,2.5,4.4c1.6,0.3,3.3,0.3,4.9,0
		c-0.3-1.8,0.8-3.7,2.5-4.4c1.8-0.7,3.8-0.1,4.9,1.4c1.3-0.9,2.5-2.1,3.5-3.4c-1.5-1.1-2.1-3.1-1.3-4.9s2.6-2.8,4.4-2.5
		C63.5,17.9,63.6,16.3,63.3,14.7z M52.7,19.4c-1.3,3.1-5,4.6-8.1,3.3s-4.6-5-3.3-8.1s5-4.6,8.1-3.3S54,16.3,52.7,19.4z"/>
	<path class="st0" d="M40,39c-0.5-2-1.3-3.9-2.3-5.6c-2,1.2-4.6,0.9-6.3-0.8c-1.7-1.7-2-4.3-0.8-6.3c-1.7-1-3.6-1.8-5.6-2.3
		c-0.6,2.2-2.6,3.9-5,3.9s-4.4-1.7-5-3.9c-2,0.5-3.9,1.3-5.6,2.3c1.2,2,0.9,4.6-0.8,6.3c-1.7,1.7-4.3,2-6.3,0.8
		C1.3,35.1,0.5,37,0,39c2.2,0.6,3.9,2.6,3.9,5S2.2,48.4,0,49c0.5,2,1.3,3.9,2.3,5.6c2-1.2,4.6-0.9,6.3,0.8c1.7,1.7,2,4.3,0.8,6.3
		c1.7,1,3.6,1.8,5.6,2.3c0.6-2.2,2.6-3.9,5-3.9s4.4,1.7,5,3.9c2-0.5,3.9-1.3,5.6-2.3c-1.2-2-0.9-4.6,0.8-6.3c1.7-1.7,4.3-2,6.3-0.8
		c1-1.7,1.8-3.6,2.3-5.6c-2.2-0.6-3.9-2.6-3.9-5S37.8,39.6,40,39z M20,51.7c-4.3,0-7.7-3.5-7.7-7.7s3.5-7.7,7.7-7.7s7.7,3.5,7.7,7.7
		S24.3,51.7,20,51.7z"/>
</g>
</svg>
