<?xml version="1.0" encoding="utf-8"?>
<!-- Generator: Adobe Illustrator 21.0.0, SVG Export Plug-In . SVG Version: 6.00 Build 0)  -->
<svg version="1.1" id="Layer_1" xmlns="http://www.w3.org/2000/svg" xmlns:xlink="http://www.w3.org/1999/xlink" x="0px" y="0px"
	 viewBox="0 0 64 48" style="enable-background:new 0 0 64 48;" xml:space="preserve">
<style type="text/css">
	.st0{fill:#333333;}
</style>
<title>computer</title>
<desc>Created with Sketch.</desc>
<g>
	<path class="st0" d="M5,40h54c1.7,0,3-1.3,3-3V3c0-1.7-1.3-3-3-3H5C3.3,0,2,1.3,2,3v34C2,38.7,3.3,40,5,40z M6,4h52v32H6V4z"/>
	<path class="st0" d="M62,44H2c-1.1,0-2,0.9-2,2s0.9,2,2,2h60c1.1,0,2-0.9,2-2S63.1,44,62,44z"/>
</g>
</svg>
