<?xml version="1.0" encoding="utf-8"?>
<!-- Generator: Adobe Illustrator 21.0.0, SVG Export Plug-In . SVG Version: 6.00 Build 0)  -->
<svg version="1.1" id="Layer_1" xmlns="http://www.w3.org/2000/svg" xmlns:xlink="http://www.w3.org/1999/xlink" x="0px" y="0px"
	 viewBox="0 0 64 42" style="enable-background:new 0 0 64 42;" xml:space="preserve">
<style type="text/css">
	.st0{fill:#333333;}
</style>
<title>credit-card-f</title>
<desc>Created with Sketch.</desc>
<g>
	<path class="st0" d="M60,0H4C1.8,0,0,1.8,0,4v4h64V4C64,1.8,62.2,0,60,0z"/>
	<path class="st0" d="M0,38c0,2.2,1.8,4,4,4h56c2.2,0,4-1.8,4-4V18H0V38z M23.5,26h11c0.8,0,1.5,0.7,1.5,1.5c0,0.8-0.7,1.5-1.5,1.5
		h-11c-0.8,0-1.5-0.7-1.5-1.5C22,26.7,22.7,26,23.5,26z M23.5,31h11c0.8,0,1.5,0.7,1.5,1.5c0,0.8-0.7,1.5-1.5,1.5h-11
		c-0.8,0-1.5-0.7-1.5-1.5C22,31.7,22.7,31,23.5,31z M6,28c0-1.1,0.9-2,2-2h8c1.1,0,2,0.9,2,2v6c0,1.1-0.9,2-2,2H8c-1.1,0-2-0.9-2-2
		V28z"/>
</g>
</svg>
