<svg xmlns="http://www.w3.org/2000/svg" viewBox="0 0 64 42" enable-background="new 0 0 64 42"><style type="text/css">.st0{fill:#333333;}</style><title>credit-card</title><desc>Created with Sketch.</desc><path class="st0" d="M60 0h-56c-2.2 0-4 1.8-4 4v34c0 2.2 1.8 4 4 4h56c2.2 0 4-1.8 4-4v-34c0-2.2-1.8-4-4-4zm0 37c0 .5-.4 1-1 1h-54c-.5 0-1-.4-1-1v-19h56v19zm-56-29v-3c0-.5.4-1 1-1h54c.5 0 1 .4 1 1v3h-56zM23.5 34h11c.8 0 1.5-.7 1.5-1.5s-.7-1.5-1.5-1.5h-11c-.8 0-1.5.7-1.5 1.5s.7 1.5 1.5 1.5zM23.5 29h11c.8 0 1.5-.7 1.5-1.5s-.7-1.5-1.5-1.5h-11c-.8 0-1.5.7-1.5 1.5s.7 1.5 1.5 1.5zM8 36h8c1.1 0 2-.9 2-2v-6c0-1.1-.9-2-2-2h-8c-1.1 0-2 .9-2 2v6c0 1.1.9 2 2 2z"/></svg>