<svg xmlns="http://www.w3.org/2000/svg" viewBox="0 0 36 64" enable-background="new 0 0 36 64"><style type="text/css">.st0{fill:#333333;}</style><title>cutlery</title><desc>Created with Sketch.</desc><path class="st0" d="M14 0c-1.1 0-2 .9-2 2v14c0 .5-.4 1-1 1s-1-.5-1-1v-14c0-1.1-.9-2-2-2s-2 .9-2 2v14c0 .6-.4 1-1 1s-1-.4-1-1v-14c0-1.1-.9-2-2-2s-2 .9-2 2v15c0 3.2 2.1 5.8 5 6.7v37.3c0 1.7 1.3 3 3 3s3-1.3 3-3v-37.3c2.9-.9 5-3.5 5-6.7v-15c0-1.1-.9-2-2-2zM33 0c-.7 0-1.4.3-1.9.7-2.8 1.6-4.8 11.3-4.8 14.3 0 3.3.5 16.7 3.7 17.1v28.9c0 1.7 1.3 3 3 3s3-1.3 3-3v-58c0-1.7-1.3-3-3-3z"/></svg>