<svg xmlns="http://www.w3.org/2000/svg" viewBox="0 0 63 56" enable-background="new 0 0 63 56"><style type="text/css">.st0{fill:#333333;}</style><title>cutter</title><desc>Created with Sketch.</desc><path class="st0" d="M61 1.8c-2.3-2.3-6.1-2.3-8.5 0l-31.1 31.2c-1.5-.2-3.1.2-4.2 1.4-1.4 1.4-1.8 3.6-1.1 5.4l-15.2 15.1 13.4.7 8.8-8.8c1.8.7 3.9.3 5.4-1.1 1.2-1.2 1.6-2.7 1.4-4.2l31.1-31.2c2.4-2.3 2.4-6.1 0-8.5zm-48.2 49.7l-2.7-.1 7.8-7.8 1.4 1.4-6.5 6.5zm12.9-8.7c-.4.4-1 .4-1.4 0l-4.3-4.2c-.4-.4-.4-1 0-1.4.4-.4 1-.4 1.4 0l4.2 4.2c.5.4.5 1 .1 1.4zm32.5-35.3l-29.7 29.7-2.8-2.8 29.7-29.8c.8-.8 2-.8 2.8 0 .8.8.8 2.1 0 2.9zM52.5 8.9l-21.2 21.2c-.4.4-.4 1 0 1.4s1 .4 1.4 0l21.2-21.2c.4-.4.4-1 0-1.4-.3-.4-1-.4-1.4 0z"/></svg>