<svg xmlns="http://www.w3.org/2000/svg" viewBox="0 0 64 48"><path d="M32 0C14.3 0 0 14.3 0 32c0 5.8 1.6 11.3 4.3 16h55.4c2.7-4.7 4.3-10.2 4.3-16C64 14.3 49.7 0 32 0zm0 7c1.7 0 3 1.3 3 3s-1.3 3-3 3-3-1.3-3-3 1.3-3 3-3zM10 35c-1.7 0-3-1.3-3-3s1.3-3 3-3 3 1.3 3 3-1.3 3-3 3zm6-17c-1.1 0-2-.9-2-2s.9-2 2-2 2 .9 2 2-.9 2-2 2zm20.8 19.1c-2.7 2.7-7.2 2.7-9.9 0s-2.7-7.2 0-9.9S43 21 43 21s-3.4 13.4-6.2 16.1zM48 18c-1.1 0-2-.9-2-2s.9-2 2-2 2 .9 2 2-.9 2-2 2zm6 17c-1.7 0-3-1.3-3-3s1.3-3 3-3 3 1.3 3 3-1.3 3-3 3z" fill="#333"/></svg>