<svg xmlns="http://www.w3.org/2000/svg" viewBox="0 0 64 48" enable-background="new 0 0 64 48"><style type="text/css">.st0{fill:#333333;}</style><path class="st0" d="M32 0c-17.7 0-32 14.3-32 32 0 5.8 1.6 11.3 4.3 16h55.4c2.7-4.7 4.3-10.2 4.3-16 0-17.7-14.3-32-32-32zm0 7c1.7 0 3 1.3 3 3s-1.3 3-3 3-3-1.3-3-3 1.3-3 3-3zm-22 28c-1.7 0-3-1.3-3-3s1.3-3 3-3 3 1.3 3 3-1.3 3-3 3zm6-17c-1.1 0-2-.9-2-2s.9-2 2-2 2 .9 2 2-.9 2-2 2zm20.8 19.1c-2.7 2.7-7.2 2.7-9.9 0s-2.7-7.2 0-9.9 16.1-6.2 16.1-6.2-3.4 13.4-6.2 16.1zm11.2-19.1c-1.1 0-2-.9-2-2s.9-2 2-2 2 .9 2 2-.9 2-2 2zm6 17c-1.7 0-3-1.3-3-3s1.3-3 3-3 3 1.3 3 3-1.3 3-3 3z"/></svg>