<?xml version="1.0" encoding="utf-8"?>
<!-- Generator: Adobe Illustrator 21.0.0, SVG Export Plug-In . SVG Version: 6.00 Build 0)  -->
<svg version="1.1" id="Layer_1" xmlns="http://www.w3.org/2000/svg" xmlns:xlink="http://www.w3.org/1999/xlink" x="0px" y="0px"
	 viewBox="0 0 64 48" style="enable-background:new 0 0 64 48;" xml:space="preserve">
<style type="text/css">
	.st0{fill:#333333;}
</style>
<path class="st0" d="M32,0C14.3,0,0,14.3,0,32c0,5.8,1.6,11.3,4.3,16h55.4c2.7-4.7,4.3-10.2,4.3-16C64,14.3,49.7,0,32,0z M32,7
	c1.7,0,3,1.3,3,3s-1.3,3-3,3s-3-1.3-3-3S30.3,7,32,7z M10,35c-1.7,0-3-1.3-3-3s1.3-3,3-3s3,1.3,3,3S11.7,35,10,35z M16,18
	c-1.1,0-2-0.9-2-2c0-1.1,0.9-2,2-2s2,0.9,2,2C18,17.1,17.1,18,16,18z M36.8,37.1c-2.7,2.7-7.2,2.7-9.9,0c-2.7-2.7-2.7-7.2,0-9.9
	c2.7-2.7,16.1-6.2,16.1-6.2S39.6,34.4,36.8,37.1z M48,18c-1.1,0-2-0.9-2-2c0-1.1,0.9-2,2-2s2,0.9,2,2C50,17.1,49.1,18,48,18z M54,35
	c-1.7,0-3-1.3-3-3s1.3-3,3-3s3,1.3,3,3S55.7,35,54,35z"/>
</svg>
