<svg xmlns="http://www.w3.org/2000/svg" viewBox="0 0 61 64" enable-background="new 0 0 61 64"><style type="text/css">.st0{fill:#333333;}</style><title>deejay</title><desc>Created with Sketch.</desc><path class="st0" d="M52 0h-43c-5 0-9 4-9 9v46c0 5 4 9 9 9h43c5 0 9-4 9-9v-46c0-5-4-9-9-9zm5 55c0 2.8-2.2 5-5 5h-43c-2.8 0-5-2.2-5-5v-46c0-2.8 2.2-5 5-5h43c2.8 0 5 2.2 5 5v46zM11 31.9v12.1h2v-12.1c1.7-.4 3-2 3-3.9s-1.3-3.4-3-3.9v-12.1h-2v12.1c-1.7.4-3 2-3 3.9s1.3 3.4 3 3.9zM19 48h-10c-.5 0-1 .4-1 1v7c0 .6.4 1 1 1h10c.5 0 1-.4 1-1v-7c0-.6-.4-1-1-1zm-1 7h-8v-5h8v5zM18 16h34v-8h-34v8zm2-6h30v4h-30v-4zM35 19c-9.4 0-17 7.6-17 17s7.6 17 17 17 17-7.6 17-17-7.6-17-17-17zm0 31c-7.7 0-14-6.3-14-14s6.3-14 14-14 14 6.3 14 14-6.3 14-14 14zM26 36c0-5 4-9 9-9v-1c-5.5 0-10 4.5-10 10s4.5 10 10 10v-1c-5 0-9-4-9-9z"/><circle class="st0" cx="35" cy="36" r="2"/></svg>