<?xml version="1.0" encoding="utf-8"?>
<!-- Generator: Adobe Illustrator 21.0.0, SVG Export Plug-In . SVG Version: 6.00 Build 0)  -->
<svg version="1.1" id="Layer_1" xmlns="http://www.w3.org/2000/svg" xmlns:xlink="http://www.w3.org/1999/xlink" x="0px" y="0px"
	 viewBox="0 0 61 64" style="enable-background:new 0 0 61 64;" xml:space="preserve">
<style type="text/css">
	.st0{fill:#333333;}
</style>
<title>deejay</title>
<desc>Created with Sketch.</desc>
<g>
	<path class="st0" d="M52,0H9C4,0,0,4,0,9v46c0,5,4,9,9,9h43c5,0,9-4,9-9V9C61,4,57,0,52,0z M57,55c0,2.8-2.2,5-5,5H9
		c-2.8,0-5-2.2-5-5V9c0-2.8,2.2-5,5-5h43c2.8,0,5,2.2,5,5V55z"/>
	<path class="st0" d="M11,31.9V44h2V31.9c1.7-0.4,3-2,3-3.9s-1.3-3.4-3-3.9V12h-2v12.1c-1.7,0.4-3,2-3,3.9S9.3,31.4,11,31.9z"/>
	<path class="st0" d="M19,48H9c-0.5,0-1,0.4-1,1v7c0,0.6,0.4,1,1,1h10c0.5,0,1-0.4,1-1v-7C20,48.4,19.6,48,19,48z M18,55h-8v-5h8V55
		z"/>
	<path class="st0" d="M18,16h34V8H18V16z M20,10h30v4H20V10z"/>
	<path class="st0" d="M35,19c-9.4,0-17,7.6-17,17s7.6,17,17,17s17-7.6,17-17S44.4,19,35,19z M35,50c-7.7,0-14-6.3-14-14
		s6.3-14,14-14s14,6.3,14,14S42.7,50,35,50z"/>
	<path class="st0" d="M26,36c0-5,4-9,9-9v-1c-5.5,0-10,4.5-10,10c0,5.5,4.5,10,10,10v-1C30,45,26,41,26,36z"/>
	<circle class="st0" cx="35" cy="36" r="2"/>
</g>
</svg>
