<?xml version="1.0" encoding="utf-8"?>
<!-- Generator: Adobe Illustrator 21.0.0, SVG Export Plug-In . SVG Version: 6.00 Build 0)  -->
<svg version="1.1" id="Layer_1" xmlns="http://www.w3.org/2000/svg" xmlns:xlink="http://www.w3.org/1999/xlink" x="0px" y="0px"
	 viewBox="0 0 64 64" style="enable-background:new 0 0 64 64;" xml:space="preserve">
<style type="text/css">
	.st0{fill:#343434;}
</style>
<g>
	<path class="st0" d="M32,0C14.3,0,0,14.3,0,32s14.3,32,32,32s32-14.3,32-32S49.7,0,32,0z M32,60C16.5,60,4,47.5,4,32S16.5,4,32,4
		s28,12.5,28,28S47.5,60,32,60z"/>
	<circle class="st0" cx="32" cy="32" r="4"/>
	<path class="st0" d="M32,21c-6.1,0-11,4.9-11,11c0,6.1,4.9,11,11,11s11-4.9,11-11C43,25.9,38.1,21,32,21z M32,39c-3.9,0-7-3.1-7-7
		c0-3.9,3.1-7,7-7s7,3.1,7,7C39,35.9,35.9,39,32,39z"/>
</g>
</svg>
