<?xml version="1.0" encoding="utf-8"?>
<!-- Generator: Adobe Illustrator 21.0.0, SVG Export Plug-In . SVG Version: 6.00 Build 0)  -->
<svg version="1.1" id="Layer_1" xmlns="http://www.w3.org/2000/svg" xmlns:xlink="http://www.w3.org/1999/xlink" x="0px" y="0px"
	 viewBox="0 0 41 64" style="enable-background:new 0 0 41 64;" xml:space="preserve">
<style type="text/css">
	.st0{fill:#333333;}
</style>
<title>dna</title>
<desc>Created with Sketch.</desc>
<path class="st0" d="M23.8,32C29.6,26.5,41,14.4,41,4.5c0-1.5-0.1-3-0.4-4.5h-5.3c0.2,1.2,0.3,2.5,0.3,3.8c0,0.4,0,0.8-0.1,1.2h-30
	c0-0.4-0.1-0.8-0.1-1.2c0-1.3,0.1-2.5,0.3-3.8H0.4C0.1,1.5,0,3,0,4.5c0,9.9,11.4,22,17.2,27.5C11.4,37.5,0,49.6,0,59.5
	c0,1.5,0.1,3,0.4,4.5h5.4c-0.2-1.2-0.3-2.5-0.3-3.8c0-0.4,0-0.8,0.1-1.2h30.1c0,0.4,0.1,0.8,0.1,1.2c0,1.3-0.1,2.5-0.3,3.8h5.3
	c0.2-1.5,0.4-3,0.4-4.5C41,49.6,29.6,37.5,23.8,32z M6.5,9h28.1c-0.8,2.3-2.1,4.7-3.6,7H10.1C8.7,13.7,7.4,11.3,6.5,9z M12.9,20
	h15.3c-3.8,5-7.7,8.8-7.7,8.8S16.7,25,12.9,20z M20.6,35.2c0,0,3.8,3.7,7.7,8.8H12.9C16.7,39,20.6,35.2,20.6,35.2z M6.5,55
	c0.8-2.3,2.1-4.7,3.6-7H31c1.5,2.3,2.8,4.7,3.6,7H6.5z"/>
</svg>
