<?xml version="1.0" encoding="utf-8"?>
<!-- Generator: Adobe Illustrator 21.0.0, SVG Export Plug-In . SVG Version: 6.00 Build 0)  -->
<svg version="1.1" id="Layer_1" xmlns="http://www.w3.org/2000/svg" xmlns:xlink="http://www.w3.org/1999/xlink" x="0px" y="0px"
	 viewBox="0 0 48 64" style="enable-background:new 0 0 48 64;" xml:space="preserve">
<style type="text/css">
	.st0{fill:#333333;}
</style>
<path class="st0" d="M45,0H3C1.3,0,0,1.3,0,3v58c0,1.7,1.3,3,3,3h42c1.7,0,3-1.3,3-3V3C48,1.3,46.7,0,45,0z M38,52H10
	c-1.1,0-2-0.9-2-2c0-1.1,0.9-2,2-2h28c1.1,0,2,0.9,2,2C40,51.1,39.1,52,38,52z M38,40H10c-1.1,0-2-0.9-2-2c0-1.1,0.9-2,2-2h28
	c1.1,0,2,0.9,2,2C40,39.1,39.1,40,38,40z M38,28H10c-1.1,0-2-0.9-2-2c0-1.1,0.9-2,2-2h28c1.1,0,2,0.9,2,2C40,27.1,39.1,28,38,28z
	 M38,16H10c-1.1,0-2-0.9-2-2c0-1.1,0.9-2,2-2h28c1.1,0,2,0.9,2,2C40,15.1,39.1,16,38,16z"/>
</svg>
