<?xml version="1.0" encoding="utf-8"?>
<!-- Generator: Adobe Illustrator 21.0.0, SVG Export Plug-In . SVG Version: 6.00 Build 0)  -->
<svg version="1.1" id="Layer_1" xmlns="http://www.w3.org/2000/svg" xmlns:xlink="http://www.w3.org/1999/xlink" x="0px" y="0px"
	 viewBox="0 0 48 64" style="enable-background:new 0 0 48 64;" xml:space="preserve">
<style type="text/css">
	.st0{fill:#333333;}
</style>
<title>download</title>
<g>
	<path class="st0" d="M45,0H3C1.3,0,0,1.3,0,3v58c0,1.7,1.3,3,3,3h42c1.7,0,3-1.3,3-3V3C48,1.3,46.7,0,45,0z M44,60H4V4h40V60z"/>
	<path class="st0" d="M10,16h28c1.1,0,2-0.9,2-2c0-1.1-0.9-2-2-2H10c-1.1,0-2,0.9-2,2C8,15.1,8.9,16,10,16z"/>
	<path class="st0" d="M10,28h28c1.1,0,2-0.9,2-2c0-1.1-0.9-2-2-2H10c-1.1,0-2,0.9-2,2C8,27.1,8.9,28,10,28z"/>
	<path class="st0" d="M10,40h28c1.1,0,2-0.9,2-2c0-1.1-0.9-2-2-2H10c-1.1,0-2,0.9-2,2C8,39.1,8.9,40,10,40z"/>
	<path class="st0" d="M10,52h28c1.1,0,2-0.9,2-2c0-1.1-0.9-2-2-2H10c-1.1,0-2,0.9-2,2C8,51.1,8.9,52,10,52z"/>
</g>
</svg>
