<svg xmlns="http://www.w3.org/2000/svg" viewBox="0 0 64 64" enable-background="new 0 0 64 64"><style type="text/css">.st0{fill:#333333;}</style><title>download</title><path class="st0" d="M64 53c0-1.1-.9-2-2-2s-2 .9-2 2v3.1c0 2.2-1.8 4-4 4h-48c-2.2 0-4-1.8-4-4v-3.1c0-1.1-.9-2-2-2s-2 .9-2 2v3c0 4.4 3.6 8 8 8h48c4.4 0 8-3.6 8-8v-3zM30.6 49.6c.4.4.9.6 1.4.6.5 0 1-.2 1.4-.6l14.1-14.1c.8-.8.8-2.1 0-2.8-.8-.8-2-.8-2.8 0l-10.7 10.6v-41.3c0-1.1-.9-2-2-2s-2 .9-2 2v41.3l-10.7-10.7c-.8-.8-2.1-.8-2.8 0-.8.8-.8 2 0 2.8l14.1 14.2z"/></svg>