<?xml version="1.0" encoding="utf-8"?>
<!-- Generator: Adobe Illustrator 21.0.0, SVG Export Plug-In . SVG Version: 6.00 Build 0)  -->
<svg version="1.1" id="Layer_1" xmlns="http://www.w3.org/2000/svg" xmlns:xlink="http://www.w3.org/1999/xlink" x="0px" y="0px"
	 viewBox="0 0 64 64" style="enable-background:new 0 0 64 64;" xml:space="preserve">
<style type="text/css">
	.st0{fill:#333333;}
</style>
<title>download</title>
<g>
	<path class="st0" d="M64,53c0-1.1-0.9-2-2-2s-2,0.9-2,2c0,0.1,0,0.1,0,0.2h0v2.9c0,2.2-1.8,4-4,4H8c-2.2,0-4-1.8-4-4v-2.9h0
		C4,53.1,4,53,4,53c0-1.1-0.9-2-2-2s-2,0.9-2,2c0,0.1,0,0.1,0,0.2h0V56c0,4.4,3.6,8,8,8h48c4.4,0,8-3.6,8-8v-2.8h0
		C64,53.1,64,53.1,64,53z"/>
	<path class="st0" d="M30.6,49.6L30.6,49.6L30.6,49.6c0.4,0.4,0.9,0.6,1.4,0.6c0.5,0,1-0.2,1.4-0.6l0,0l0,0l14.1-14.1
		c0.8-0.8,0.8-2.1,0-2.8c-0.8-0.8-2-0.8-2.8,0L34,43.3V2c0-1.1-0.9-2-2-2c-1.1,0-2,0.9-2,2v41.3L19.3,32.6c-0.8-0.8-2.1-0.8-2.8,0
		c-0.8,0.8-0.8,2,0,2.8L30.6,49.6z"/>
</g>
</svg>
