<?xml version="1.0" encoding="utf-8"?>
<!-- Generator: Adobe Illustrator 21.0.0, SVG Export Plug-In . SVG Version: 6.00 Build 0)  -->
<svg version="1.1" id="Layer_1" xmlns="http://www.w3.org/2000/svg" xmlns:xlink="http://www.w3.org/1999/xlink" x="0px" y="0px"
	 viewBox="0 0 64 64" style="enable-background:new 0 0 64 64;" xml:space="preserve">
<style type="text/css">
	.st0{fill:#343434;}
	.st1{fill:#FFFFFF;}
</style>
<g id="Page-1">
	<g id="Social-icons-_x28_65_x29_" transform="translate(-832.000000, -960.000000)">
		<g id="dribbble" transform="translate(832.000000, 960.000000)">
			<path id="Fill-1" class="st0" d="M32,0C14.3,0,0,14.3,0,32s14.3,32,32,32s32-14.3,32-32S49.7,0,32,0"/>
			<path id="Fill-4" class="st1" d="M59,31.7c-3.6-1.1-7.5-1.7-11.5-1.7c-2.4,0-4.7,0.2-7.1,0.6c-0.8-1.8-1.5-3.5-2.3-5.1
				C49.1,20.9,53.1,15,53.1,15C56.7,19.5,58.9,25.4,59,31.7"/>
			<path id="Fill-5" class="st1" d="M32,5c6.8,0,13.1,2.5,17.9,6.8c-3.6,4.2-8.7,7.2-14,9.3C30.7,11.5,25.7,5.7,25.7,5.7
				C27.7,5.3,29.8,5,32,5"/>
			<path id="Fill-6" class="st1" d="M20.3,7.6c0,0,4.7,6.1,9.8,15.3c-12.4,3.5-24.6,3.3-24.6,3.3C7.4,18.1,12.9,11.3,20.3,7.6"/>
			<path id="Fill-7" class="st1" d="M5,32v-0.7c11.6,0,20.6-1.5,27.6-3.8c0.7,1.4,1.4,3,2.1,4.4C25,35.1,17,41.6,11.9,50.1
				C7.6,45.2,5,39,5,32"/>
			<path id="Fill-8" class="st1" d="M32,58.9c-6.2,0-11.8-2.1-16.3-5.5c4.5-8.1,12-14.1,21-16.9c2.5,6.3,4.7,13.2,5.7,20.4
				C39.2,58.3,35.6,58.9,32,58.9"/>
			<path id="Fill-9" class="st1" d="M47,54.4c-0.9-7-2.6-13.4-4.7-19.2c1.8-0.2,3.4-0.3,5.3-0.3c3.9,0,7.6,0.6,11.1,1.8
				C57.3,44,53,50.4,47,54.4"/>
		</g>
	</g>
</g>
</svg>
