<svg xmlns="http://www.w3.org/2000/svg" viewBox="0 0 64 64"><style>.st0{fill:#343434}</style><g id="dribbble-square"><path id="Combined-Shape" class="st0" d="M0 4c0-2.2 1.8-4 4-4h56c2.2 0 4 1.8 4 4v56c0 2.2-1.8 4-4 4H4c-2.2 0-4-1.8-4-4V4zm32 9c-10.5 0-19 8.5-19 19s8.5 19 19 19 19-8.5 19-19-8.5-19-19-19z"/><path id="Fill-4" class="st0" d="M48.1 31.8c-2.2-.7-4.5-1-6.8-1-1.4 0-2.8.1-4.2.3-.5-1-.9-2.1-1.4-3 6.5-2.8 8.8-6.2 8.8-6.2 2.2 2.7 3.5 6.2 3.6 9.9"/><path id="Fill-5" class="st0" d="M32 15.9c4.1 0 7.8 1.5 10.6 4.1-2.2 2.5-5.2 4.3-8.3 5.5-3.1-5.7-6-9.1-6-9.1 1.1-.3 2.4-.5 3.7-.5"/><path id="Fill-6" class="st0" d="M25.1 17.5s2.8 3.6 5.8 9.1c-7.3 2.1-14.6 2-14.6 2 1.1-4.9 4.4-8.9 8.8-11.1"/><path id="Fill-7" class="st0" d="M15.9 32v-.4c6.9 0 12.3-.9 16.4-2.2.4.9.9 1.8 1.2 2.6C27.8 33.8 23 37.7 20 42.7c-2.5-2.8-4.1-6.6-4.1-10.7"/><path id="Fill-8" class="st0" d="M32 48c-3.7 0-7-1.2-9.7-3.3 2.7-4.8 7.1-8.4 12.4-10 1.5 3.7 2.8 7.9 3.4 12.1-1.8.8-3.9 1.2-6.1 1.2"/><path id="Fill-9" class="st0" d="M40.9 45.3c-.5-4.1-1.6-7.9-2.8-11.4 1-.1 2-.2 3.1-.2 2.3 0 4.5.3 6.6 1-.8 4.4-3.4 8.2-6.9 10.6"/></g></svg>