<svg xmlns="http://www.w3.org/2000/svg" viewBox="0 0 64 64" enable-background="new 0 0 64 64"><style type="text/css">.st0{fill:#343434;}</style><title>eggs</title><desc>Created with Sketch.</desc><path class="st0" d="M21 8c-11.6 0-21 23.3-21 34.9 0 11.7 9.4 21.1 21 21.1s21-9.4 21-21.1c0-11.6-9.4-34.9-21-34.9zm0 50c-8.3 0-15-6.7-15-15.1 0-11.4 9.1-28.9 15-28.9s15 17.5 15 28.9c0 8.4-6.7 15.1-15 15.1zM43 0c-4.9 0-9.4 4.2-13 9.9l3.9 4.3c2.5-4.7 5.7-8.2 9.1-8.2 8.3 0 15 20.7 15 29s-6.7 15-15 15h-.8l-2.7 5.7c1.1.2 2.3.3 3.5.3 11.6 0 21-9.4 21-21.1 0-11.6-9.4-34.9-21-34.9z"/></svg>