<?xml version="1.0" encoding="utf-8"?>
<!-- Generator: Adobe Illustrator 21.0.0, SVG Export Plug-In . SVG Version: 6.00 Build 0)  -->
<svg version="1.1" id="Layer_1" xmlns="http://www.w3.org/2000/svg" xmlns:xlink="http://www.w3.org/1999/xlink" x="0px" y="0px"
	 viewBox="0 0 64 64" style="enable-background:new 0 0 64 64;" xml:space="preserve">
<style type="text/css">
	.st0{fill:#343434;}
</style>
<title>eggs</title>
<desc>Created with Sketch.</desc>
<g>
	<path class="st0" d="M21,8C9.4,8,0,31.3,0,42.9C0,54.6,9.4,64,21,64s21-9.4,21-21.1C42,31.3,32.6,8,21,8z M21,58
		c-8.3,0-15-6.7-15-15.1C6,31.5,15.1,14,21,14s15,17.5,15,28.9C36,51.3,29.3,58,21,58z"/>
	<path class="st0" d="M43,0c-4.9,0-9.4,4.2-13,9.9l3.9,4.3c2.5-4.7,5.7-8.2,9.1-8.2c8.3,0,15,20.7,15,29C58,43.3,51.3,50,43,50
		c-0.3,0-0.5,0-0.8,0l-2.7,5.7c1.1,0.2,2.3,0.3,3.5,0.3c11.6,0,21-9.4,21-21.1C64,23.3,54.6,0,43,0z"/>
</g>
</svg>
