<?xml version="1.0" encoding="utf-8"?>
<!-- Generator: Adobe Illustrator 21.0.0, SVG Export Plug-In . SVG Version: 6.00 Build 0)  -->
<svg version="1.1" id="Layer_1" xmlns="http://www.w3.org/2000/svg" xmlns:xlink="http://www.w3.org/1999/xlink" x="0px" y="0px"
	 viewBox="0 0 64 65" style="enable-background:new 0 0 64 65;" xml:space="preserve">
<style type="text/css">
	.st0{fill:none;}
	.st1{fill:#333333;}
	.st2{fill:#343434;}
</style>
<title>envelope-open</title>
<desc>Created with Sketch.</desc>
<g>
	<path class="st0" d="M9.3,23l-3.5,2.6c0,0,0,0,0,0L32,47l26.2-21.4c0,0,0,0,0,0L54.8,23H9.3z"/>
	<polygon class="st0" points="32,5.9 9.3,23 54.8,23 	"/>
	<path class="st1" d="M1.2,23.6l0.1-0.1C1.3,23.5,1.3,23.6,1.2,23.6z"/>
	<path class="st2" d="M59.7,25.7L60,26v-3h-5.2l3.5,2.6C58.7,25.3,59.3,25.3,59.7,25.7z"/>
	<path class="st2" d="M4,23h5.3L32,5.9L54.8,23H60h1c0.9,0,1.7,0.4,2.2,1c-0.1-0.1-0.2-0.3-0.4-0.4L34.4,1.7c-1.3-1-3.4-1-4.7,0
		L1.3,23.5C1.8,23.2,2.4,23,3,23H4z"/>
	<path class="st2" d="M4,23v3l0.3-0.3c0.4-0.4,1.1-0.4,1.5-0.1L9.3,23H4z"/>
	<path class="st2" d="M1.1,23.7C1.1,23.7,1.1,23.7,1.1,23.7C1.1,23.7,1.2,23.6,1.1,23.7L1.1,23.7z"/>
	<path class="st2" d="M61,23h-1v3l-0.3-0.3c-0.4-0.4-1-0.4-1.5-0.1l2.2,1.6c0.4,0.3,1.1,0.3,1.5-0.1l1-1c0.7-0.6,0.7-1.5,0.2-2.2
		C62.7,23.4,61.9,23,61,23z"/>
	<path class="st2" d="M1,26.2l1,1c0.4,0.4,1.1,0.4,1.5,0.1l2.2-1.6c-0.4-0.4-1.1-0.3-1.5,0.1L4,26v-3H3c-0.6,0-1.2,0.2-1.7,0.5
		l-0.1,0.1c0,0-0.1,0.1-0.1,0.1C0.3,24.4,0.2,25.5,1,26.2z"/>
	<polygon class="st2" points="25,47 23,44 22.1,44.7 24.9,47.1 	"/>
	<polygon class="st2" points="22.1,44.7 4,58.5 4,61 6.6,61 24.9,47.1 	"/>
	<polygon class="st2" points="4,58.5 2,60 4,63 6.6,61 4,61 	"/>
	<polygon class="st2" points="60,61 57.4,61 60,63 62,60 60,58.5 	"/>
	<polygon class="st2" points="41,44 39,47 39.1,47.1 41.9,44.7 	"/>
	<g>
		<path class="st2" d="M63.2,24c0.5,0.7,0.4,1.6-0.2,2.2l-1,1c-0.4,0.4-1.1,0.4-1.5,0.1l-2.2-1.6c0,0,0,0,0,0L32,47L5.8,25.6
			c0,0,0,0,0,0l-2.2,1.6c-0.4,0.3-1.1,0.3-1.5-0.1l-1-1c-0.7-0.6-0.8-1.6-0.2-2.3C0.3,24.5,0,25.2,0,26v35c0,2.2,1.8,4,4,4h56
			c2.2,0,4-1.8,4-4V26C64,25.2,63.7,24.6,63.2,24z M60,63l-2.6-2H6.6L4,63l-2-3l2-1.5V29.7l18.1,15L23,44l2,3l-0.1,0.1l6.3,5.3
			c0.4,0.4,1.1,0.4,1.5,0l6.3-5.3L39,47l2-3l0.9,0.7l18.1-15v28.8l2,1.5L60,63z"/>
		<polygon class="st2" points="60,58.5 41.9,44.7 39.1,47.1 57.4,61 60,61 		"/>
	</g>
</g>
</svg>
