<?xml version="1.0" encoding="utf-8"?>
<!-- Generator: Adobe Illustrator 21.0.0, SVG Export Plug-In . SVG Version: 6.00 Build 0)  -->
<svg version="1.1" id="Layer_1" xmlns="http://www.w3.org/2000/svg" xmlns:xlink="http://www.w3.org/1999/xlink" x="0px" y="0px"
	 viewBox="0 0 64 42" style="enable-background:new 0 0 64 42;" xml:space="preserve">
<style type="text/css">
	.st0{fill:#343434;}
</style>
<title>envelope</title>
<desc>Created with Sketch.</desc>
<g id="Page-1">
	<path class="st0" d="M60,0H4C1.8,0,0,1.8,0,4v34c0,2.2,1.8,4,4,4h56c2.2,0,4-1.8,4-4V4C64,1.8,62.2,0,60,0z M56.5,4L32,24L7.5,4
		C17.5,4,46.5,4,56.5,4z M4,35.5c0-6.2,0-22.4,0-28.8l18.1,15L4,35.5z M6.6,38l18.3-13.9l6.3,5.3c0.4,0.4,1.1,0.4,1.5,0l6.3-5.3
		L57.4,38C48,38,16,38,6.6,38z M60,35.5L41.9,21.7L60,6.7C60,13.1,60,29.2,60,35.5z"/>
</g>
</svg>
