<?xml version="1.0" encoding="utf-8"?>
<!-- Generator: Adobe Illustrator 21.0.0, SVG Export Plug-In . SVG Version: 6.00 Build 0)  -->
<svg version="1.1" id="Layer_1" xmlns="http://www.w3.org/2000/svg" xmlns:xlink="http://www.w3.org/1999/xlink" x="0px" y="0px"
	 viewBox="0 0 64 42" style="enable-background:new 0 0 64 42;" xml:space="preserve">
<style type="text/css">
	.st0{fill:#333333;}
</style>
<title>envelope-f</title>
<desc>Created with Sketch.</desc>
<g>
	<polygon class="st0" points="0,4.5 0,37.9 20.7,22 	"/>
	<path class="st0" d="M61.5,0.3C61,0.1,60.5,0,60,0H4C3.5,0,3,0.1,2.5,0.3L32,24.6L61.5,0.3z"/>
	<path class="st0" d="M32.8,30.8c-0.4,0.4-1.1,0.4-1.5,0l-7.3-6.1L2.1,41.5C2.7,41.8,3.3,42,4,42h56c0.7,0,1.3-0.2,1.9-0.5
		L40.1,24.7L32.8,30.8z"/>
	<polygon class="st0" points="43.3,22 64,37.9 64,4.5 	"/>
</g>
</svg>
