<svg xmlns="http://www.w3.org/2000/svg" viewBox="0 0 64 65"><path d="M9.3 23l-3.5 2.6L32 47l26.2-21.4-3.4-2.6H9.3zM32 5.9L9.3 23h45.5z" fill="none"/><path d="M1.2 23.6l.1-.1s0 .1-.1.1z" fill="#333"/><path d="M59.7 25.7l.3.3v-3h-5.2l3.5 2.6c.4-.3 1-.3 1.4.1zM4 23h5.3L32 5.9 54.8 23H61c.9 0 1.7.4 2.2 1-.1-.1-.2-.3-.4-.4L34.4 1.7c-1.3-1-3.4-1-4.7 0L1.3 23.5c.5-.3 1.1-.5 1.7-.5h1zm0 0v3l.3-.3c.4-.4 1.1-.4 1.5-.1L9.3 23H4zm-2.9.7zM61 23h-1v3l-.3-.3c-.4-.4-1-.4-1.5-.1l2.2 1.6c.4.3 1.1.3 1.5-.1l1-1c.7-.6.7-1.5.2-2.2-.4-.5-1.2-.9-2.1-.9zM1 26.2l1 1c.4.4 1.1.4 1.5.1l2.2-1.6c-.4-.4-1.1-.3-1.5.1L4 26v-3H3c-.6 0-1.2.2-1.7.5l-.1.1-.1.1c-.8.7-.9 1.8-.1 2.5zM25 47l-2-3-.9.7 2.8 2.4zm-2.9-2.3L4 58.5V61h2.6l18.3-13.9zM4 58.5L2 60l2 3 2.6-2H4zM60 61h-2.6l2.6 2 2-3-2-1.5zM41 44l-2 3 .1.1 2.8-2.4zm22.2-20c.5.7.4 1.6-.2 2.2l-1 1c-.4.4-1.1.4-1.5.1l-2.2-1.6L32 47 5.8 25.6l-2.2 1.6c-.4.3-1.1.3-1.5-.1l-1-1c-.7-.6-.8-1.6-.2-2.3-.6.7-.9 1.4-.9 2.2v35c0 2.2 1.8 4 4 4h56c2.2 0 4-1.8 4-4V26c0-.8-.3-1.4-.8-2zM60 63l-2.6-2H6.6L4 63l-2-3 2-1.5V29.7l18.1 15 .9-.7 2 3-.1.1 6.3 5.3c.4.4 1.1.4 1.5 0l6.3-5.3V47l2-3 .9.7 18.1-15v28.8l2 1.5-2 3zm0-4.5L41.9 44.7l-2.8 2.4L57.4 61H60z" fill="#343434"/></svg>