<?xml version="1.0" encoding="utf-8"?>
<!-- Generator: Adobe Illustrator 21.0.0, SVG Export Plug-In . SVG Version: 6.00 Build 0)  -->
<svg version="1.1" id="Layer_1" xmlns="http://www.w3.org/2000/svg" xmlns:xlink="http://www.w3.org/1999/xlink" x="0px" y="0px"
	 viewBox="0 0 64 60" style="enable-background:new 0 0 64 60;" xml:space="preserve">
<style type="text/css">
	.st0{fill:#333333;}
</style>
<title>eye-cross</title>
<desc>Created with Sketch.</desc>
<path class="st0" d="M47.8,17.8L61.4,4.2c0.8-0.8,0.8-2,0-2.8c-0.8-0.8-2-0.8-2.8,0L43.5,16.5C39.8,15.5,35.9,15,32,15
	C16,15,0,24.1,0,31.7c0,4.9,6.6,9.8,15.6,12.7L3.4,56.6c-0.8,0.8-0.8,2,0,2.8c0.8,0.8,2,0.8,2.8,0L20,45.6c3.8,0.9,7.9,1.4,12,1.4
	c16,0,32-7.7,32-15.3C64,26.7,57.1,21.1,47.8,17.8z M42,30.8c0,5.3-4.5,9.6-10,9.6c-2,0-3.8-0.6-5.3-1.5l3.8-3.8
	c0.5,0.1,1,0.2,1.5,0.2c2.8,0,5-2.2,5-4.9c0-0.6-0.1-1.1-0.3-1.6l3.5-3.5C41.4,26.9,42,28.8,42,30.8z M22,30.8c0-5.3,4.5-9.6,10-9.6
	c0.4,0,0.9,0,1.3,0.1c-0.8,0.5-1.3,1.4-1.3,2.4c0,0.8,0.3,1.5,0.8,2c-0.3,0-0.6-0.1-0.8-0.1c-2.8,0-5,2.2-5,4.9c0,0.7,0.2,1.4,0.5,2
	l-3.7,3.7C22.6,34.7,22,32.8,22,30.8z M35,21.8c0.9,0,1.6,0.5,1.9,1.3l-2.4,2.4c-0.8-0.2-1.4-1-1.4-1.8C33,22.7,33.9,21.8,35,21.8z
	 M39.5,20.5c-0.6-0.4-1.3-0.8-2-1.1c0.9,0.1,1.8,0.3,2.7,0.5L39.5,20.5z M11.7,38.6c-5-2.4-7.7-5.2-7.7-6.9c0-1.8,2.9-5,7.9-7.7
	c4.3-2.3,9.5-4,14.7-4.7c-4.5,2-7.6,6.4-7.6,11.5c0,2.8,1,5.4,2.6,7.5l-2.8,2.8C16.3,40.5,13.9,39.6,11.7,38.6z M24.5,41.1
	c1,0.7,2.1,1.3,3.3,1.7c-1.5-0.1-3-0.3-4.4-0.6L24.5,41.1z M52.3,38.6c-4.6,2.2-10.3,3.7-16.1,4.2c5.1-1.7,8.8-6.4,8.8-12
	c0-2.8-1-5.5-2.6-7.6l2.3-2.3c2.6,0.8,5.2,1.8,7.4,3.1c5,2.7,7.9,5.9,7.9,7.7C60,33.4,57.3,36.2,52.3,38.6z"/>
</svg>
