<svg xmlns="http://www.w3.org/2000/svg" viewBox="0 0 54 63"><path d="M51.9.3c-3.5-.8-19.9-2-33.8 27.8-.5 1.1-1 2.1-1.3 2.9H9c-.6 0-1 .4-1 1v4c0 .5.4 1 1 1h3v2H5c-2.8 0-5 2.2-5 5v14c0 2.8 2.2 5 5 5h22c2.8 0 5-2.2 5-5V44c0-2.8-2.2-5-5-5h-7v-2h3c.6 0 1-.4 1-1v-4c0-.5-.4-1-1-1h-4.6c.7-1.2 1.3-2.2 1.3-2.2l5.8-4.8s3.3 1 4 .3c.8-.7-1.4-2.7-1.4-2.7l3.9 1.9s4.5.6 5.6-.7c1.1-1.3-1.6-3.9-1.6-3.9s3.7 1.4 6.3 0c2.6-1.4 8-5.2 9.7-8.5 1.6-3.2 3.4-9.3-.1-10.1zM27 43c.6 0 1 .4 1 1v14c0 .6-.4 1-1 1H5c-.6 0-1-.4-1-1V44c0-.6.4-1 1-1h22z" fill="#333"/></svg>