<?xml version="1.0" encoding="utf-8"?>
<!-- Generator: Adobe Illustrator 21.0.0, SVG Export Plug-In . SVG Version: 6.00 Build 0)  -->
<svg version="1.1" id="Layer_1" xmlns="http://www.w3.org/2000/svg" xmlns:xlink="http://www.w3.org/1999/xlink" x="0px" y="0px"
	 viewBox="0 0 54 63" style="enable-background:new 0 0 54 63;" xml:space="preserve">
<style type="text/css">
	.st0{fill:#333333;}
</style>
<title>feather-pen</title>
<desc>Created with Sketch.</desc>
<path class="st0" d="M51.9,0.3c-3.5-0.8-19.9-2-33.8,27.8c-0.5,1.1-1,2.1-1.3,2.9H9c-0.6,0-1,0.4-1,1v4c0,0.5,0.4,1,1,1h3v2H5
	c-2.8,0-5,2.2-5,5v14c0,2.8,2.2,5,5,5h22c2.8,0,5-2.2,5-5V44c0-2.8-2.2-5-5-5h-7v-2h3c0.6,0,1-0.4,1-1v-4c0-0.5-0.4-1-1-1h-4.6
	c0.7-1.2,1.3-2.2,1.3-2.2l5.8-4.8c0,0,3.3,1,4,0.3c0.8-0.7-1.4-2.7-1.4-2.7l3.9,1.9c0,0,4.5,0.6,5.6-0.7c1.1-1.3-1.6-3.9-1.6-3.9
	s3.7,1.4,6.3,0c2.6-1.4,8-5.2,9.7-8.5C53.6,7.2,55.4,1.1,51.9,0.3z M27,43c0.6,0,1,0.4,1,1v14c0,0.6-0.4,1-1,1H5c-0.6,0-1-0.4-1-1
	V44c0-0.6,0.4-1,1-1H27z"/>
</svg>
