<?xml version="1.0" encoding="utf-8"?>
<!-- Generator: Adobe Illustrator 21.0.0, SVG Export Plug-In . SVG Version: 6.00 Build 0)  -->
<svg version="1.1" id="Layer_1" xmlns="http://www.w3.org/2000/svg" xmlns:xlink="http://www.w3.org/1999/xlink" x="0px" y="0px"
	 viewBox="0 0 48 64" style="enable-background:new 0 0 48 64;" xml:space="preserve">
<style type="text/css">
	.st0{fill:#343434;}
</style>
<title>female</title>
<desc>Created with Sketch.</desc>
<path class="st0" d="M48,24C48,10.7,37.3,0,24,0S0,10.7,0,24c0,12.2,9.2,22.3,21,23.8V52h-4c-1.7,0-3,1.3-3,3c0,1.7,1.3,3,3,3h4v3
	c0,1.7,1.3,3,3,3c1.7,0,3-1.3,3-3v-3h4c1.7,0,3-1.3,3-3c0-1.7-1.3-3-3-3h-4v-4.2C38.8,46.3,48,36.2,48,24z M6,24c0-9.9,8.1-18,18-18
	s18,8.1,18,18c0,9.9-8.1,18-18,18S6,33.9,6,24z"/>
</svg>
