<?xml version="1.0" encoding="utf-8"?>
<!-- Generator: Adobe Illustrator 21.0.0, SVG Export Plug-In . SVG Version: 6.00 Build 0)  -->
<svg version="1.1" id="Layer_1" xmlns="http://www.w3.org/2000/svg" xmlns:xlink="http://www.w3.org/1999/xlink" x="0px" y="0px"
	 viewBox="0 0 58 64" style="enable-background:new 0 0 58 64;" xml:space="preserve">
<style type="text/css">
	.st0{fill:#343434;}
</style>
<title>files</title>
<desc>Created with Sketch.</desc>
<path class="st0" d="M44.6,10h-6.7l-10-10H1C0.4,0,0,0.5,0,1v52c0,0.6,0.5,1,1,1h17v9c0,0.6,0.5,1,1,1h38c0.6,0,1-0.5,1-1V23.4
	L44.6,10z M4,50V4h22.3l5.8,6H19h-1v1v39H4z M54,60H22v-6V14h14h4h3l11,11V60z"/>
</svg>
