<svg xmlns="http://www.w3.org/2000/svg" viewBox="0 0 42 64" enable-background="new 0 0 42 64"><style type="text/css">.st0{fill:#333333;}</style><title>fingerprint</title><desc>Created with Sketch.</desc><path class="st0" d="M16 30c-1.1 0-2 .9-2 2v11c0 3.9 3.1 7 7 7s7-3.1 7-7v-3c0-1.1-.9-2-2-2s-2 .9-2 2v3c0 1.7-1.3 3-3 3s-3-1.4-3-3v-11c0-1.1-.9-2-2-2zM28 21c0-3.9-3.1-7-7-7s-7 3.1-7 7v3c0 1.1.9 2 2 2s2-.9 2-2v-3c0-1.7 1.3-3 3-3s3 1.4 3 3v11c0 1.1.9 2 2 2s2-.9 2-2v-11zM18 60c-8-1.5-14-8.4-14-16.8v-15.2c0-1.1-.9-2-2-2s-2 .9-2 2v15.2c0 10.4 7.5 19 17.4 20.7.2.1.4.1.6.1 1.1 0 2-.9 2-2s-.9-2-2-2zM40 36c-1.1 0-2 .9-2 2v5.199999999999999c0 8.4-6 15.3-14 16.7v.1c-1.1 0-2 .9-2 2s.9 2 2 2c.2 0 .4 0 .6-.1 9.9-1.7 17.4-10.3 17.4-20.7v-5.199999999999999c0-1.1-.9-2-2-2zM21 0c-11.1 0-20.2 8.6-21 19.6v.4c0 1.1.9 2 2 2s2-.9 2-1.9c.5-9 7.9-16.1 17-16.1 9.4 0 17 7.6 17 17v10.1c.1 1.1.9 1.9 2 1.9s1.9-.8 2-1.9v-10.1c0-11.6-9.4-21-21-21zM35 43v-12c0-1.1-.9-2-2-2s-2 .9-2 2v12c0 5.5-4.5 10-10 10-5.2 0-9.4-3.9-10-9 0-1.1-.9-2-2-2s-2 .9-2 2c0 .2 0 .4.1.6.8 7 6.7 12.4 13.9 12.4 7.7 0 14-6.3 14-14zM33 25c1.1 0 2-.9 2-2v-2c0-7.7-6.3-14-14-14s-14 6.3-14 14v15c0 1.1.9 2 2 2s2-.9 2-2v-15c0-5.5 4.5-10 10-10s10 4.5 10 10v2c0 1.1.9 2 2 2z"/></svg>