<?xml version="1.0" encoding="utf-8"?>
<!-- Generator: Adobe Illustrator 21.0.0, SVG Export Plug-In . SVG Version: 6.00 Build 0)  -->
<svg version="1.1" id="Layer_1" xmlns="http://www.w3.org/2000/svg" xmlns:xlink="http://www.w3.org/1999/xlink" x="0px" y="0px"
	 viewBox="0 0 42 64" style="enable-background:new 0 0 42 64;" xml:space="preserve">
<style type="text/css">
	.st0{fill:#333333;}
</style>
<title>fingerprint</title>
<desc>Created with Sketch.</desc>
<g>
	<path class="st0" d="M16,30c-1.1,0-2,0.9-2,2v11c0,3.9,3.1,7,7,7c3.9,0,7-3.1,7-7v-3c0-1.1-0.9-2-2-2s-2,0.9-2,2v3c0,1.7-1.3,3-3,3
		c-1.7,0-3-1.4-3-3V32C18,30.9,17.1,30,16,30z"/>
	<path class="st0" d="M28,21c0-3.9-3.1-7-7-7c-3.9,0-7,3.1-7,7v3c0,1.1,0.9,2,2,2s2-0.9,2-2v-3c0-1.7,1.3-3,3-3c1.7,0,3,1.4,3,3v11
		c0,1.1,0.9,2,2,2s2-0.9,2-2V21z"/>
	<path class="st0" d="M18,60L18,60c-8-1.5-14-8.4-14-16.8V28.1h0c0,0,0-0.1,0-0.1c0-1.1-0.9-2-2-2s-2,0.9-2,2c0,0,0,0.1,0,0.1h0
		v15.1c0,10.4,7.5,19,17.4,20.7C17.6,64,17.8,64,18,64l0,0v0c1.1,0,2-0.9,2-2S19.1,60,18,60z"/>
	<path class="st0" d="M40,36c-1.1,0-2,0.9-2,2c0,0,0,0.1,0,0.1h0v5.1c0,8.4-6,15.3-14,16.7V60c-1.1,0-2,0.9-2,2s0.9,2,2,2v0l0,0
		c0.2,0,0.4,0,0.6-0.1C34.5,62.2,42,53.6,42,43.2v-5.1h0c0,0,0-0.1,0-0.1C42,36.9,41.1,36,40,36z"/>
	<path class="st0" d="M21,0C9.9,0,0.8,8.6,0,19.6c0,0.1,0,0.3,0,0.4c0,1.1,0.9,2,2,2c1.1,0,2-0.9,2-1.9h0C4.5,11.1,11.9,4,21,4
		c9.4,0,17,7.6,17,17v10.1h0c0.1,1.1,0.9,1.9,2,1.9s1.9-0.8,2-1.9h0V21C42,9.4,32.6,0,21,0z"/>
	<path class="st0" d="M35,43V31c0-1.1-0.9-2-2-2s-2,0.9-2,2v12c0,5.5-4.5,10-10,10c-5.2,0-9.4-3.9-10-9h0c0-1.1-0.9-2-2-2
		s-2,0.9-2,2c0,0.2,0,0.4,0.1,0.6C7.9,51.6,13.8,57,21,57C28.7,57,35,50.7,35,43z"/>
	<path class="st0" d="M33,25c1.1,0,2-0.9,2-2v-2c0-7.7-6.3-14-14-14C13.3,7,7,13.3,7,21v15c0,1.1,0.9,2,2,2s2-0.9,2-2V21
		c0-5.5,4.5-10,10-10c5.5,0,10,4.5,10,10v2C31,24.1,31.9,25,33,25z"/>
</g>
</svg>
