<svg xmlns="http://www.w3.org/2000/svg" viewBox="0 0 64 40"><style>.st0{fill:#343434}</style><path class="st0" d="M60.1 20c-.1-4.5 1.4-8.6 3.9-12-8.2 1.8-14.4 5.9-15.7 10.2-2.7-2.7-8.5-7.7-15.7-10 .7-3.1 2.2-5.9 4.2-8.2H35C23.8 0 14.3 4.3 11.1 9.4l-1.6.6-.2.1-.6.3c-.1.1-.2.1-.4.2s-.4.2-.7.3l-.3.1-.9.5-.1.1c-.2.1-.5.3-.7.5l-.3.2c-.2.1-.4.2-.5.4l-.3.2-.5.3c-.1.1-.2.2-.3.2-.1.1-.3.2-.4.4-.1.1-.2.2-.3.2l-.4.4-.2.2c-.2.2-.3.3-.4.5l-.1.1-.5.6-.1.2-.3.5c0 .1-.1.2-.1.2-.1.1-.2.3-.2.4l-.1.3-.2.4-.1.3-.1.4c0 .1 0 .2-.1.3l-.1.4V21c0 .1 0 .3.1.4 0 .1 0 .2.1.3l.1.4.1.3.2.4.1.3.2.4c0 .1.1.2.1.2l.3.5.1.2.5.6.1.1.4.5.2.2c.3-.1.4.1.5.2.1.1.2.2.3.2.1.1.3.2.4.4.1.1.2.2.3.2.1.1.3.2.5.3l.3.2c.2.1.3.2.5.4l.3.2.7.5.1.1.9.5.3.1c.2.1.4.2.7.3.1.1.2.1.4.2l.6.3.2.1c.6.3 1.2.5 1.9.7 3.1 4.5 10.9 8.2 20.5 8.9-1.5-2-2.6-4.4-3.3-6.9 9-1.4 16.4-7.8 19.6-10.9 1.3 4.4 7.5 8.5 15.8 10.3-2.5-3.4-4-7.5-4-12.1zM32.9 2.1c-1 1.8-1.8 3.7-2.3 5.7-1.8-.5-3.7-.8-5.6-.8-3.7 0-7.2.5-10.4 1.3 3.6-3.2 10.5-5.8 18.3-6.2zM12 27.7c-5.4-2-9-5-9-7.7s3.6-5.7 9-7.7c3.5.9 6 4 6 7.7s-2.6 6.9-6 7.7zm3.1 4.2c3 .7 6.4 1.2 9.9 1.2.5 0 1.1 0 1.6-.1.4 1.4.9 2.8 1.5 4.2-5.5-.9-10.1-2.9-13-5.3zm25.8-7.8C35.7 27.8 30.3 30 25 30c-3.6 0-7-.5-10.1-1.3 2.8-1.6 4.7-4.4 5-7.7h19c.6 0 1-.4 1-1s-.4-1-1-1H20c-.3-3.3-2.3-6.1-5-7.7 3-.8 6.4-1.3 10-1.3 5.3 0 10.7 2.2 15.9 5.9 1.8 1.3 3.4 2.7 4.9 4.1-1.4 1.4-3.1 2.8-4.9 4.1zM58.1 27c-4.4-2-7.1-4.7-7.1-7 0-2.2 2.7-4.9 7.1-7-.7 2.2-1.1 4.6-1.1 7 0 2.5.4 4.8 1.1 7z"/><circle class="st0" cx="10" cy="18" r="2"/></svg>