<?xml version="1.0" encoding="utf-8"?>
<!-- Generator: Adobe Illustrator 21.0.0, SVG Export Plug-In . SVG Version: 6.00 Build 0)  -->
<svg version="1.1" id="Layer_1" xmlns="http://www.w3.org/2000/svg" xmlns:xlink="http://www.w3.org/1999/xlink" x="0px" y="0px"
	 viewBox="0 0 64 40" style="enable-background:new 0 0 64 40;" xml:space="preserve">
<style type="text/css">
	.st0{fill:#343434;}
</style>
<title>fish</title>
<desc>Created with Sketch.</desc>
<g>
	<path class="st0" d="M60.1,20C60,15.5,61.5,11.4,64,8c-8.2,1.8-14.4,5.9-15.7,10.2c-2.7-2.7-8.5-7.7-15.7-10
		c0.7-3.1,2.2-5.9,4.2-8.2c-0.6,0-1.2,0-1.8,0C23.8,0,14.3,4.3,11.1,9.4C10.6,9.6,10,9.8,9.5,10c-0.1,0-0.1,0.1-0.2,0.1
		c-0.2,0.1-0.4,0.2-0.6,0.3c-0.1,0.1-0.2,0.1-0.4,0.2c-0.2,0.1-0.4,0.2-0.7,0.3c-0.1,0-0.2,0.1-0.3,0.1c-0.3,0.2-0.6,0.3-0.9,0.5
		l-0.1,0.1c-0.2,0.1-0.5,0.3-0.7,0.5c-0.1,0.1-0.2,0.1-0.3,0.2c-0.2,0.1-0.4,0.2-0.5,0.4c-0.1,0.1-0.2,0.1-0.3,0.2
		C4.3,13,4.2,13.1,4,13.2c-0.1,0.1-0.2,0.2-0.3,0.2c-0.1,0.1-0.3,0.2-0.4,0.4C3.2,13.9,3.1,14,3,14c-0.1,0.1-0.3,0.3-0.4,0.4
		c-0.1,0.1-0.1,0.1-0.2,0.2c-0.2,0.2-0.3,0.3-0.4,0.5l-0.1,0.1c-0.2,0.2-0.3,0.4-0.5,0.6c0,0.1-0.1,0.1-0.1,0.2
		c-0.1,0.2-0.2,0.3-0.3,0.5c0,0.1-0.1,0.2-0.1,0.2c-0.1,0.1-0.2,0.3-0.2,0.4c0,0.1-0.1,0.2-0.1,0.3c-0.1,0.1-0.1,0.3-0.2,0.4
		c0,0.1-0.1,0.2-0.1,0.3c0,0.1-0.1,0.3-0.1,0.4c0,0.1,0,0.2-0.1,0.3c0,0.1-0.1,0.3-0.1,0.4c0,0.1,0,0.1,0,0.2c0,0.2,0,0.4,0,0.7
		s0,0.4,0,0.7c0,0.1,0,0.1,0,0.2c0,0.1,0,0.3,0.1,0.4c0,0.1,0,0.2,0.1,0.3c0,0.1,0.1,0.3,0.1,0.4c0,0.1,0.1,0.2,0.1,0.3
		c0.1,0.1,0.1,0.3,0.2,0.4c0,0.1,0.1,0.2,0.1,0.3c0.1,0.1,0.1,0.3,0.2,0.4c0,0.1,0.1,0.2,0.1,0.2c0.1,0.2,0.2,0.3,0.3,0.5
		c0,0.1,0.1,0.1,0.1,0.2c0.2,0.2,0.3,0.4,0.5,0.6L2,25.1c0.1,0.2,0.3,0.3,0.4,0.5c0.1,0.1,0.1,0.1,0.2,0.2C2.9,25.7,3,25.9,3.1,26
		c0.1,0.1,0.2,0.2,0.3,0.2c0.1,0.1,0.3,0.2,0.4,0.4c0.1,0.1,0.2,0.2,0.3,0.2c0.1,0.1,0.3,0.2,0.5,0.3c0.1,0.1,0.2,0.1,0.3,0.2
		c0.2,0.1,0.3,0.2,0.5,0.4c0.1,0.1,0.2,0.1,0.3,0.2c0.2,0.2,0.5,0.3,0.7,0.5l0.1,0.1c0.3,0.2,0.6,0.3,0.9,0.5c0.1,0,0.2,0.1,0.3,0.1
		c0.2,0.1,0.4,0.2,0.7,0.3c0.1,0.1,0.2,0.1,0.4,0.2c0.2,0.1,0.4,0.2,0.6,0.3c0.1,0,0.1,0.1,0.2,0.1c0.6,0.3,1.2,0.5,1.9,0.7
		c3.1,4.5,10.9,8.2,20.5,8.9c-1.5-2-2.6-4.4-3.3-6.9c9-1.4,16.4-7.8,19.6-10.9c1.3,4.4,7.5,8.5,15.8,10.3
		C61.6,28.7,60.1,24.6,60.1,20z M32.9,2.1c-1,1.8-1.8,3.7-2.3,5.7C28.8,7.3,26.9,7,25,7c-3.7,0-7.2,0.5-10.4,1.3
		C18.2,5.1,25.1,2.5,32.9,2.1z M12,27.7c-5.4-2-9-5-9-7.7s3.6-5.7,9-7.7c3.5,0.9,6,4,6,7.7S15.4,26.9,12,27.7z M15.1,31.9
		c3,0.7,6.4,1.2,9.9,1.2c0.5,0,1.1,0,1.6-0.1c0.4,1.4,0.9,2.8,1.5,4.2C22.6,36.3,18,34.3,15.1,31.9z M40.9,24.1
		C35.7,27.8,30.3,30,25,30c-3.6,0-7-0.5-10.1-1.3c2.8-1.6,4.7-4.4,5-7.7h19c0.6,0,1-0.4,1-1c0-0.6-0.4-1-1-1H20
		c-0.3-3.3-2.3-6.1-5-7.7c3-0.8,6.4-1.3,10-1.3c5.3,0,10.7,2.2,15.9,5.9c1.8,1.3,3.4,2.7,4.9,4.1C44.4,21.4,42.7,22.8,40.9,24.1z
		 M58.1,27c-4.4-2-7.1-4.7-7.1-7c0-2.2,2.7-4.9,7.1-7c-0.7,2.2-1.1,4.6-1.1,7C57,22.5,57.4,24.8,58.1,27z"/>
	<circle class="st0" cx="10" cy="18" r="2"/>
</g>
</svg>
