<?xml version="1.0" encoding="utf-8"?>
<!-- Generator: Adobe Illustrator 21.0.0, SVG Export Plug-In . SVG Version: 6.00 Build 0)  -->
<svg version="1.1" id="Layer_1" xmlns="http://www.w3.org/2000/svg" xmlns:xlink="http://www.w3.org/1999/xlink" x="0px" y="0px"
	 viewBox="0 0 47 64" style="enable-background:new 0 0 47 64;" xml:space="preserve">
<style type="text/css">
	.st0{fill:#343434;}
</style>
<title>flag</title>
<desc>Created with Sketch.</desc>
<path class="st0" d="M36.8,20l8.9-12.7C47,5.5,46.2,4,44,4H4c0,0,0,0,0,0V2c0-1.1-0.9-2-2-2S0,0.9,0,2v6v24v30c0,1.1,0.9,2,2,2
	s2-0.9,2-2V36c0,0,0,0,0,0h40c2.2,0,3-1.5,1.7-3.3L36.8,20z M4,32L4,32C4,30.5,4,8,4,8h36.3l-8.4,12l8.4,12C40.3,32,4,32,4,32z"/>
</svg>
