<svg xmlns="http://www.w3.org/2000/svg" viewBox="0 0 48 63"><path d="M27.4 20C16.3 29.3 15.2 3.1 15.2 3.1c-.2-2.7-1.5-3-2.8-.6C12.4 2.5 0 24.2 0 37.7c0 13.5 10.7 24.5 24 24.5s24-11 24-24.5c0-6.4-9.5-27-20.6-17.7zM24 58.1C13 58.1 4 49 4 37.7c0-3 .7-6.7 2.1-11.1 1-3.1 2.3-6.5 3.8-10 .7-1.7 1.5-3.4 2.3-5 .1.6.2 1.2.4 1.8 1 4.4 2.4 7.8 4.7 10.1 3.5 3.5 8.2 3.3 12.7-.5 2.9-2.5 5.6-1.7 8.8 2.4 2.9 3.7 5.3 9.7 5.3 12.2C44 49 35 58.1 24 58.1zm.5-20.1c-6.6 2.3-10.9-12.4-10.9-12.4S12.4 36.7 12.4 42c0 5.3 6.9 11.9 12.1 11.9s9.5-4.3 9.5-9.5c0-2.2-3.5-8.5-9.5-6.4zm0 11.9c-3.1 0-8.1-4.9-8.1-7.9 0-.8 0-1.7.1-2.8l.6.6c2.5 2.2 5.6 3.1 8.7 2 1.2-.4 2.1-.2 2.9.7.4.4.8.9 1 1.5.1.2.2.4.2.6 0 2.9-2.4 5.3-5.4 5.3z" fill="#343434"/></svg>