<svg xmlns="http://www.w3.org/2000/svg" viewBox="0 0 48 63" enable-background="new 0 0 48 63"><style type="text/css">.st0{fill:#343434;}</style><title>flame</title><desc>Created with Sketch.</desc><path class="st0" d="M27.4 20c-11.1 9.3-12.2-16.9-12.2-16.9-.2-2.7-1.5-3-2.8-.6 0 0-12.4 21.7-12.4 35.2 0 13.5 10.7 24.5 24 24.5s24-11 24-24.5c0-6.4-9.5-27-20.6-17.7zm-3.4 38.1c-11 0-20-9.1-20-20.4 0-3 .7-6.7 2.1-11.1 1-3.1 2.3-6.5 3.8-10 .7-1.7 1.5-3.4 2.3-5 .1.6.2 1.2.4 1.8 1 4.4 2.4 7.8 4.7 10.1 3.5 3.5 8.2 3.3 12.7-.5 2.9-2.5 5.6-1.7 8.8 2.4 2.9 3.7 5.3 9.7 5.3 12.2-.1 11.4-9.1 20.5-20.1 20.5zM24.5 38c-6.6 2.3-10.9-12.4-10.9-12.4s-1.2 11.1-1.2 16.4c0 5.3 6.9 11.9 12.1 11.9s9.5-4.3 9.5-9.5c0-2.2-3.5-8.5-9.5-6.4zm0 11.9c-3.1 0-8.1-4.9-8.1-7.9 0-.8 0-1.7.1-2.8l.6.6c2.5 2.2 5.6 3.1 8.7 2 1.2-.4 2.1-.2 2.9.7.4.4.8.9 1 1.5.1.2.2.4.2.6 0 2.9-2.4 5.3-5.4 5.3z"/></svg>