<svg xmlns="http://www.w3.org/2000/svg" viewBox="0 0 48 48" enable-background="new 0 0 48 48"><style type="text/css">.st0{fill:#343434;}</style><title>flashlight-off</title><desc>Created with Sketch.</desc><path class="st0" d="M47 12.3l-11.3-11.3c-1.2-1.2-3.1-1.2-4.2 0l-5.1 5-3.4 3.4c-1.6 1.6-2.1 3.8-1.5 5.8l-19.7 19.7c-1.6 1.6-1.6 4.1 0 5.7l5.7 5.7c1.6 1.6 4.1 1.6 5.7 0l19.7-19.7c2 .5 4.2 0 5.8-1.5l3.4-3.4 5.1-5.1c1-1.3 1-3.2-.2-4.3zm-36 31.8c-.4.4-1 .4-1.4 0l-5.7-5.7c-.4-.4-.4-1 0-1.4l19.1-19.1 7.1 7.1-19.1 19.1zm21.2-21.2l-7.1-7.1c-1.2-1.2-1.2-3.1 0-4.2l2.1-2.1 11.3 11.3-2.1 2.1c-1.1 1.1-3 1.2-4.2 0zm8.5-4.3l-11.3-11.3 4.2-4.2 11.3 11.3-4.2 4.2zM20.2 23.6l-2.8 2.8c-1.2 1.2-1.2 3.1 0 4.2 1.2 1.2 3.1 1.2 4.2 0l2.8-2.8c1.2-1.2 1.2-3.1 0-4.2-1.2-1.2-3.1-1.2-4.2 0zm2.8 2.8l-1.6 1.6c-.1-.3-.3-.6-.5-.9s-.6-.4-.9-.5l1.6-1.6c.4-.4 1-.4 1.4 0 .4.4.4 1 0 1.4z"/></svg>