<svg xmlns="http://www.w3.org/2000/svg" viewBox="0 0 57 56"><path d="M35.9 9.3c-1.2-1.2-3.1-1.2-4.2 0l-4.2 4.2-4.2 4.2c-1.6 1.6-2.1 3.8-1.5 5.8L1.9 43.3C.3 44.9.3 47.4 1.9 49l5.7 5.7c1.6 1.6 4.1 1.6 5.7 0L33 35c2 .5 4.2 0 5.8-1.5l4.2-4.2 4.2-4.2c1.2-1.2 1.2-3.1 0-4.2L35.9 9.3zM11.1 52.4c-.4.4-1 .4-1.4 0L4 46.7c-.4-.4-.4-1 0-1.4l19.1-19.1 7.1 7.1-19.1 19.1zm21.3-21.2l-7.1-7.1c-1.2-1.2-1.2-3.1 0-4.2l2.1-2.1 11.3 11.3-2.1 2.1c-1.2 1.2-3.1 1.2-4.2 0zm8.4-4.2L29.5 15.7l4.2-4.2L45 22.8 40.8 27zm-20.5 4.9l-2.8 2.8c-1.2 1.2-1.2 3.1 0 4.2 1.2 1.2 3.1 1.2 4.2 0l2.8-2.8c1.2-1.2 1.2-3.1 0-4.2-1.1-1.1-3-1.1-4.2 0zm0 5.7c-.4.4-1 .4-1.4 0-.4-.4-.4-1 0-1.4l1.6-1.6c.1.3.3.6.5.9s.6.4.9.5l-1.6 1.6zm35.8-24.1c-.5-1-1.7-1.4-2.7-1L48 15.1c-1 .5-1.4 1.7-1 2.7.5 1 1.7 1.4 2.7 1l5.4-2.5c1.1-.6 1.5-1.8 1-2.8zm-13.8.8c.8.8 2.1.8 2.8 0l5.6-5.6c.8-.8.8-2.1 0-2.8-.7-.9-2-.9-2.8-.1l-5.6 5.6c-.8.8-.8 2.1 0 2.9zm-3.4-4.7c1 .5 2.2 0 2.7-1l2.5-5.4c.5-1 0-2.2-1-2.7s-2.2 0-2.7 1l-2.5 5.4c-.5 1 0 2.2 1 2.7z" fill="#343434"/></svg>