<svg xmlns="http://www.w3.org/2000/svg" viewBox="0 0 57 56" enable-background="new 0 0 57 56"><style type="text/css">.st0{fill:#343434;}</style><title>flashlight-on</title><desc>Created with Sketch.</desc><path class="st0" d="M35.9 9.3c-1.2-1.2-3.1-1.2-4.2 0l-4.2 4.2-4.2 4.2c-1.6 1.6-2.1 3.8-1.5 5.8l-19.9 19.8c-1.6 1.6-1.6 4.1 0 5.7l5.7 5.7c1.6 1.6 4.1 1.6 5.7 0l19.7-19.7c2 .5 4.2 0 5.8-1.5l4.2-4.2 4.2-4.2c1.2-1.2 1.2-3.1 0-4.2l-11.3-11.6zm-24.8 43.1c-.4.4-1 .4-1.4 0l-5.7-5.7c-.4-.4-.4-1 0-1.4l19.1-19.1 7.1 7.1-19.1 19.1zm21.3-21.2l-7.1-7.1c-1.2-1.2-1.2-3.1 0-4.2l2.1-2.1 11.3 11.3-2.1 2.1c-1.2 1.2-3.1 1.2-4.2 0zm8.4-4.2l-11.3-11.3 4.2-4.2 11.3 11.3-4.2 4.2zM20.3 31.9l-2.8 2.8c-1.2 1.2-1.2 3.1 0 4.2 1.2 1.2 3.1 1.2 4.2 0l2.8-2.8c1.2-1.2 1.2-3.1 0-4.2-1.1-1.1-3-1.1-4.2 0zm0 5.7c-.4.4-1 .4-1.4 0-.4-.4-.4-1 0-1.4l1.6-1.6c.1.3.3.6.5.9s.6.4.9.5l-1.6 1.6zM56.1 13.5c-.5-1-1.7-1.4-2.7-1l-5.4 2.6c-1 .5-1.4 1.7-1 2.7.5 1 1.7 1.4 2.7 1l5.4-2.5c1.1-.6 1.5-1.8 1-2.8zM42.3 14.3c.8.8 2.1.8 2.8 0l5.6-5.6c.8-.8.8-2.1 0-2.8-.7-.9-2-.9-2.8-.1l-5.6 5.6c-.8.8-.8 2.1 0 2.9zM38.9 9.6c1 .5 2.2 0 2.7-1l2.5-5.4c.5-1 0-2.2-1-2.7s-2.2 0-2.7 1l-2.5 5.4c-.5 1 0 2.2 1 2.7z"/></svg>