<svg xmlns="http://www.w3.org/2000/svg" viewBox="0 0 48 48"><path d="M47 12.3L35.7 1c-1.2-1.2-3.1-1.2-4.2 0l-5.1 5L23 9.4c-1.6 1.6-2.1 3.8-1.5 5.8L1.8 34.9C.2 36.5.2 39 1.8 40.6l5.7 5.7c1.6 1.6 4.1 1.6 5.7 0l19.7-19.7c2 .5 4.2 0 5.8-1.5l3.4-3.4 5.1-5.1c1-1.3 1-3.2-.2-4.3zM11 44.1c-.4.4-1 .4-1.4 0l-5.7-5.7c-.4-.4-.4-1 0-1.4L23 17.9l7.1 7.1L11 44.1zm21.2-21.2l-7.1-7.1c-1.2-1.2-1.2-3.1 0-4.2l2.1-2.1 11.3 11.3-2.1 2.1c-1.1 1.1-3 1.2-4.2 0zm8.5-4.3L29.4 7.3l4.2-4.2 11.3 11.3-4.2 4.2zm-20.5 5l-2.8 2.8c-1.2 1.2-1.2 3.1 0 4.2 1.2 1.2 3.1 1.2 4.2 0l2.8-2.8c1.2-1.2 1.2-3.1 0-4.2-1.2-1.2-3.1-1.2-4.2 0zm2.8 2.8L21.4 28c-.1-.3-.3-.6-.5-.9s-.6-.4-.9-.5l1.6-1.6c.4-.4 1-.4 1.4 0 .4.4.4 1 0 1.4z" fill="#343434"/></svg>