<?xml version="1.0" encoding="utf-8"?>
<!-- Generator: Adobe Illustrator 21.0.0, SVG Export Plug-In . SVG Version: 6.00 Build 0)  -->
<svg version="1.1" id="Layer_1" xmlns="http://www.w3.org/2000/svg" xmlns:xlink="http://www.w3.org/1999/xlink" x="0px" y="0px"
	 viewBox="0 0 42 63" style="enable-background:new 0 0 42 63;" xml:space="preserve">
<style type="text/css">
	.st0{fill:#343434;}
</style>
<title>flask-alt</title>
<desc>Created with Sketch.</desc>
<g>
	<path class="st0" d="M29,22.6V8h0c1.1,0,2-0.9,2-2V2c0-1.1-0.9-2-2-2H13c-1.1,0-2,0.9-2,2v4c0,1.1,0.9,2,2,2h0v14.6
		C5.4,25.7,0,33.2,0,42c0,11.6,9.4,21,21,21s21-9.4,21-21C42,33.2,36.6,25.7,29,22.6z M14,3h14v2H14V3z M21,59c-9.4,0-17-7.6-17-17
		c0-8,5.5-14.7,13-16.5V8h8v17.5C32.5,27.3,38,34,38,42C38,51.4,30.4,59,21,59z"/>
	<path class="st0" d="M33.2,36c0,0-24.4,0-24.4,0C7.7,38,7,40.4,7,43c0,7,6.3,13,14,13s14-6,14-13C35,40.4,34.3,38,33.2,36z"/>
</g>
</svg>
