<svg xmlns="http://www.w3.org/2000/svg" viewBox="0 0 48 55" enable-background="new 0 0 48 55"><style type="text/css">.st0{fill:#343434;}</style><title>flask</title><desc>Created with Sketch.</desc><path class="st0" d="M47 52l-13-25c-.6-1.2-1.2-1.9-2-3v-16c1.1 0 2-.9 2-2v-4c0-1.1-.9-2-2-2h-16c-1.1 0-2 .9-2 2v4c0 1.1.9 2 2 2v16c-.8 1.1-1.4 1.8-2 3l-13 25c-.5 1.8.3 3 2 3h42c1.7 0 2.5-1.2 2-3zm-30-49h14v2h-14v-2zm-11 48l11-23c.5-.3 2-2 2-2v-18h10v18s1.5 1.7 2 2l11 23h-36zM20 30l-9 18h26l-9-18z"/></svg>