<?xml version="1.0" encoding="utf-8"?>
<!-- Generator: Adobe Illustrator 21.0.0, SVG Export Plug-In . SVG Version: 6.00 Build 0)  -->
<svg version="1.1" id="Layer_1" xmlns="http://www.w3.org/2000/svg" xmlns:xlink="http://www.w3.org/1999/xlink" x="0px" y="0px"
	 viewBox="0 0 48 48" style="enable-background:new 0 0 48 48;" xml:space="preserve">
<style type="text/css">
	.st0{fill:#343434;}
</style>
<title>flashlight-off</title>
<desc>Created with Sketch.</desc>
<g>
	<path class="st0" d="M47,12.3L35.7,1c-1.2-1.2-3.1-1.2-4.2,0L26.4,6L23,9.4c-1.6,1.6-2.1,3.8-1.5,5.8L1.8,34.9
		c-1.6,1.6-1.6,4.1,0,5.7l5.7,5.7c1.6,1.6,4.1,1.6,5.7,0l19.7-19.7c2,0.5,4.2,0,5.8-1.5l3.4-3.4l5.1-5.1
		C48.2,15.3,48.2,13.4,47,12.3z M11,44.1c-0.4,0.4-1,0.4-1.4,0l-5.7-5.7c-0.4-0.4-0.4-1,0-1.4L23,17.9l7.1,7.1L11,44.1z M32.2,22.9
		l-7.1-7.1c-1.2-1.2-1.2-3.1,0-4.2l2.1-2.1l11.3,11.3l-2.1,2.1C35.3,24,33.4,24.1,32.2,22.9z M40.7,18.6L29.4,7.3
		c0,0,4.2-4.2,4.2-4.2c0,0,11.3,11.3,11.3,11.3L40.7,18.6z"/>
	<path class="st0" d="M20.2,23.6l-2.8,2.8c-1.2,1.2-1.2,3.1,0,4.2c1.2,1.2,3.1,1.2,4.2,0l2.8-2.8c1.2-1.2,1.2-3.1,0-4.2
		C23.2,22.4,21.3,22.4,20.2,23.6z M23,26.4L21.4,28c-0.1-0.3-0.3-0.6-0.5-0.9s-0.6-0.4-0.9-0.5l1.6-1.6c0.4-0.4,1-0.4,1.4,0
		C23.4,25.4,23.4,26,23,26.4z"/>
</g>
</svg>
