<?xml version="1.0" encoding="utf-8"?>
<!-- Generator: Adobe Illustrator 21.0.0, SVG Export Plug-In . SVG Version: 6.00 Build 0)  -->
<svg version="1.1" id="Layer_1" xmlns="http://www.w3.org/2000/svg" xmlns:xlink="http://www.w3.org/1999/xlink" x="0px" y="0px"
	 viewBox="0 0 64 64" style="enable-background:new 0 0 64 64;" xml:space="preserve">
<style type="text/css">
	.st0{fill:#343434;}
</style>
<title>flower</title>
<desc>Created with Sketch.</desc>
<g>
	<path class="st0" d="M52,24c-6.6,0-12,5.4-12,12v7.6c-4-4.3-9.2-7.4-15.1-8.8c0.1-0.2,0.3-0.4,0.4-0.7c2.4,0.8,5.2,0.2,7.2-1.7
		c1.9-1.9,2.5-4.7,1.7-7.2c2.3-1.1,3.9-3.5,3.9-6.3c0-2.7-1.6-5.1-3.9-6.3c0.8-2.4,0.2-5.2-1.7-7.2c-1.9-1.9-4.7-2.5-7.2-1.7
		C24.1,1.6,21.7,0,19,0c-2.7,0-5.1,1.6-6.3,3.9c-2.4-0.8-5.2-0.2-7.2,1.7c-1.9,1.9-2.5,4.7-1.7,7.2C1.6,13.9,0,16.3,0,19
		c0,2.7,1.6,5.1,3.9,6.3c-0.8,2.4-0.2,5.2,1.7,7.2c1.9,1.9,4.7,2.5,7.2,1.7c1.1,2.3,3.5,3.9,6.3,3.9v0c13.9,0.5,25,12,25,26h4
		c0-5.9-1.7-11.4-4.6-16H52c6.6,0,12-5.4,12-12C64,29.4,58.6,24,52,24z M16.3,32.3l-1.6-3.1l-3.3,1.1c-1.1,0.4-2.3,0.1-3.1-0.7
		c-0.8-0.8-1.1-2-0.7-3.1l1.1-3.3l-3.1-1.6C4.7,21.2,4,20.1,4,19c0-1.1,0.7-2.2,1.7-2.7l3.1-1.6l-1.1-3.3c-0.4-1.1-0.1-2.3,0.7-3.1
		c0.8-0.8,2-1.1,3.1-0.7l3.3,1.1l1.6-3.1C16.8,4.7,17.9,4,19,4c1.1,0,2.2,0.7,2.7,1.7l1.6,3.1l3.3-1.1c1.1-0.4,2.3-0.1,3.1,0.7
		c0.8,0.8,1.1,2,0.7,3.1l-1.1,3.3l3.1,1.6c1,0.5,1.7,1.5,1.7,2.7c0,1.1-0.7,2.2-1.7,2.7l-3.1,1.6l1.1,3.3c0.4,1.1,0.1,2.3-0.7,3.1
		c-0.8,0.8-2,1.1-3.1,0.7l-3.3-1.1l-1.6,3.1c-0.5,1-1.5,1.7-2.7,1.7C17.9,34,16.8,33.3,16.3,32.3z M52,44h-8v-8c0-4.4,3.6-8,8-8
		c4.4,0,8,3.6,8,8C60,40.4,56.4,44,52,44z"/>
	<circle class="st0" cx="19" cy="19" r="6"/>
</g>
</svg>
