<?xml version="1.0" encoding="utf-8"?>
<!-- Generator: Adobe Illustrator 21.0.0, SVG Export Plug-In . SVG Version: 6.00 Build 0)  -->
<svg version="1.1" id="Layer_1" xmlns="http://www.w3.org/2000/svg" xmlns:xlink="http://www.w3.org/1999/xlink" x="0px" y="0px"
	 viewBox="0 0 38 64" style="enable-background:new 0 0 38 64;" xml:space="preserve">
<style type="text/css">
	.st0{fill:#333333;}
</style>
<title>football</title>
<desc>Created with Sketch.</desc>
<g>
	<path class="st0" d="M19,0C13.6,0,0,14.3,0,32c0,17.7,14.1,32,19,32s19-14.3,19-32C38,14.3,24.4,0,19,0z M19,4c1.2,0,5,3.1,8.3,7.7
		c0.1,0.1,0.1,0.2,0.2,0.3h-17c0.1-0.1,0.1-0.2,0.2-0.3C14,7.1,17.8,4,19,4z M8.1,16h21.8c2.6,5,4.1,10.5,4.1,16
		c0,5.5-1.6,11-4.3,16H8.3C5.6,43,4,37.5,4,32C4,26.5,5.5,21,8.1,16z M21.5,58.4c-0.8,0.6-1.5,1.1-2.1,1.4c-0.2,0.1-0.3,0.1-0.4,0.2
		c-0.1,0-0.3-0.1-0.4-0.2c-0.6-0.3-1.3-0.8-2.1-1.4c-1.8-1.5-3.8-3.6-5.6-6.1c-0.1-0.1-0.1-0.2-0.2-0.3h16.6
		c-0.1,0.1-0.1,0.2-0.2,0.3C25.3,54.8,23.3,56.9,21.5,58.4z"/>
	<path class="st0" d="M15,30c-1.1,0-2,0.9-2,2c0,1.1,0.9,2,2,2h2v3h-2c-1.1,0-2,0.9-2,2s0.9,2,2,2h2v1c0,1.1,0.9,2,2,2s2-0.9,2-2v-1
		h2c1.1,0,2-0.9,2-2s-0.9-2-2-2h-2v-3h2c1.1,0,2-0.9,2-2c0-1.1-0.9-2-2-2h-2v-3h2c1.1,0,2-0.9,2-2c0-1.1-0.9-2-2-2h-2v-1
		c0-1.1-0.9-2-2-2s-2,0.9-2,2v1h-2c-1.1,0-2,0.9-2,2c0,1.1,0.9,2,2,2h2v3H15z"/>
</g>
</svg>
