<svg xmlns="http://www.w3.org/2000/svg" viewBox="0 0 38 64" enable-background="new 0 0 38 64"><style type="text/css">.st0{fill:#333333;}</style><title>football</title><desc>Created with Sketch.</desc><path class="st0" d="M19 0c-5.4 0-19 14.3-19 32s14.1 32 19 32 19-14.3 19-32-13.6-32-19-32zm0 4c1.2 0 5 3.1 8.3 7.7l.2.3h-17l.2-.3c3.3-4.6 7.1-7.7 8.3-7.7zm-10.9 12h21.8c2.6 5 4.1 10.5 4.1 16s-1.6 11-4.3 16h-21.4c-2.7-5-4.3-10.5-4.3-16s1.5-11 4.1-16zm13.4 42.4c-.8.6-1.5 1.1-2.1 1.4-.2.1-.3.1-.4.2-.1 0-.3-.1-.4-.2-.6-.3-1.3-.8-2.1-1.4-1.8-1.5-3.8-3.6-5.6-6.1l-.2-.3h16.6l-.2.3c-1.8 2.5-3.8 4.6-5.6 6.1zM15 30c-1.1 0-2 .9-2 2s.9 2 2 2h2v3h-2c-1.1 0-2 .9-2 2s.9 2 2 2h2v1c0 1.1.9 2 2 2s2-.9 2-2v-1h2c1.1 0 2-.9 2-2s-.9-2-2-2h-2v-3h2c1.1 0 2-.9 2-2s-.9-2-2-2h-2v-3h2c1.1 0 2-.9 2-2s-.9-2-2-2h-2v-1c0-1.1-.9-2-2-2s-2 .9-2 2v1h-2c-1.1 0-2 .9-2 2s.9 2 2 2h2v3h-2z"/></svg>