<svg xmlns="http://www.w3.org/2000/svg" viewBox="0 0 64 52" enable-background="new 0 0 64 52"><style type="text/css">.st0{fill:#343434;}</style><title>forward</title><desc>Created with Sketch.</desc><path class="st0" d="M62.8 24.4l-36.3-23.8c-1.4-.9-2.5-.3-2.5 1.4v12.600000000000001l-2.7-1.8-3.3-2-15.5-10.2c-1.4-.9-2.5-.3-2.5 1.4v48.1c0 1.7 1.1 2.3 2.5 1.4l15.5-10.2 3.3-2.2 2.7-1.8v12.6c0 1.7 1.1 2.3 2.5 1.4l36.3-23.8c1.4-.7 1.4-2.2 0-3.1zm-32.8 17.6v-15.7l-24 15.7v-31.9l24 15.7v-15.7l24.4 16-24.4 15.9z"/></svg>