<?xml version="1.0" encoding="utf-8"?>
<!-- Generator: Adobe Illustrator 21.0.0, SVG Export Plug-In . SVG Version: 6.00 Build 0)  -->
<svg version="1.1" id="Layer_1" xmlns="http://www.w3.org/2000/svg" xmlns:xlink="http://www.w3.org/1999/xlink" x="0px" y="0px"
	 viewBox="0 0 64 36" style="enable-background:new 0 0 64 36;" xml:space="preserve">
<style type="text/css">
	.st0{fill:#333333;}
</style>
<title>gamepad-retro</title>
<desc>Created with Sketch.</desc>
<g>
	<path class="st0" d="M46,0H18C8.1,0,0,8.1,0,18c0,9.9,8.1,18,18,18c3,0,5.8-0.7,8.3-2h11.5c2.5,1.3,5.3,2,8.3,2c9.9,0,18-8.1,18-18
		C64,8.1,55.9,0,46,0z M46,32c-2.3,0-4.5-0.5-6.4-1.6L38.7,30H25.3l-0.9,0.4c-2,1-4.1,1.6-6.4,1.6c-7.7,0-14-6.3-14-14S10.3,4,18,4
		h28c7.7,0,14,6.3,14,14S53.7,32,46,32z"/>
	<circle class="st0" cx="47" cy="13" r="2"/>
	<circle class="st0" cx="47" cy="23" r="2"/>
	<circle class="st0" cx="42" cy="18" r="2"/>
	<circle class="st0" cx="52" cy="18" r="2"/>
	<path class="st0" d="M23,16h-4v-4c0-1.1-0.9-2-2-2s-2,0.9-2,2v4h-4c-1.1,0-2,0.9-2,2c0,1.1,0.9,2,2,2h4v4c0,1.1,0.9,2,2,2
		s2-0.9,2-2v-4h4c1.1,0,2-0.9,2-2C25,16.9,24.1,16,23,16z"/>
</g>
</svg>
