<svg xmlns="http://www.w3.org/2000/svg" viewBox="0 0 64 57" enable-background="new 0 0 64 57"><style type="text/css">.st0{fill:#343434;}</style><title>gift</title><desc>Created with Sketch.</desc><path class="st0" d="M61 13h-5.5c.5-2.9-.3-6-2.3-8.4-3.7-4.4-10.4-5-14.8-1.3l-6.4 5.4-6.4-5.4c-4.4-3.7-11.1-3.2-14.8 1.3-2.1 2.4-2.8 5.5-2.4 8.4h-5.4c-1.7 0-3 1.3-3 3v10c0 1.7 1.3 3 3 3h1v25c0 1.7 1.3 3 3 3h50c1.6 0 3-1.3 3-3v-25h1c1.7 0 3-1.3 3-3v-10c0-1.7-1.3-3-3-3zm-20-6.6c2.8-2.3 6.9-2 9.2.8 1.3 1.6 1.8 3.8 1.2 5.8h-18.3l7.9-6.6zm-27.2.8c2.3-2.7 6.4-3.1 9.2-.8l7.9 6.6h-18.4c-.5-2-.1-4.2 1.3-5.8zm-9.8 9.8h25v8h-25v-8zm4 12h21v24h-21v-24zm48 24h-21v-24h21v24zm4-28h-25v-8h25v8z"/></svg>