<?xml version="1.0" encoding="utf-8"?>
<!-- Generator: Adobe Illustrator 21.0.0, SVG Export Plug-In . SVG Version: 6.00 Build 0)  -->
<svg version="1.1" id="Layer_1" xmlns="http://www.w3.org/2000/svg" xmlns:xlink="http://www.w3.org/1999/xlink" x="0px" y="0px"
	 viewBox="0 0 64 57" style="enable-background:new 0 0 64 57;" xml:space="preserve">
<style type="text/css">
	.st0{fill:#343434;}
</style>
<title>gift</title>
<desc>Created with Sketch.</desc>
<path class="st0" d="M61,13h-5.5c0.5-2.9-0.3-6-2.3-8.4c-3.7-4.4-10.4-5-14.8-1.3L32,8.7l-6.4-5.4c-4.4-3.7-11.1-3.2-14.8,1.3
	C8.7,7,8,10.1,8.4,13H3c-1.7,0-3,1.3-3,3v10c0,1.7,1.3,3,3,3h1v25c0,1.7,1.3,3,3,3h50c1.6,0,3-1.3,3-3V29h1c1.7,0,3-1.3,3-3V16
	C64,14.3,62.7,13,61,13z M41,6.4c2.8-2.3,6.9-2,9.2,0.8C51.5,8.8,52,11,51.4,13H33.1L41,6.4z M13.8,7.2c2.3-2.7,6.4-3.1,9.2-0.8
	l7.9,6.6H12.5C12,11,12.4,8.8,13.8,7.2z M4,17h5.9H29v8H4V17z M8,29h21v24H8V29z M56,53H35V29h21V53z M60,25H35v-8h19h6V25z"/>
</svg>
