<svg xmlns="http://www.w3.org/2000/svg" viewBox="0 0 64 63"><path d="M59.7 16.1c-2.9-5-6.7-8.9-11.6-11.8C43.2 1.4 37.8 0 32 0c-5.8 0-11.2 1.4-16.1 4.3C11 7.2 7.2 11.1 4.3 16.1 1.4 21 0 26.4 0 32.3c0 7 2 13.4 6.1 19s9.3 9.5 15.8 11.7c.7.1 1.3 0 1.7-.3.4-.3.5-.8.5-1.3v-6l-1 .2c-.6.1-1.4.2-2.3.1-.9 0-1.9-.1-2.9-.3-1-.2-1.9-.6-2.8-1.3-.9-.7-1.5-1.5-1.8-2.6l-.4-1c-.3-.6-.7-1.4-1.3-2.1-.6-.8-1.2-1.3-1.8-1.6l-.3-.2c-.2-.1-.4-.3-.5-.5-.2-.2-.3-.4-.4-.6-.1-.2 0-.4.2-.5.2-.1.6-.2 1.2-.2l.8.1c.6.1 1.2.4 2.1 1 .8.6 1.5 1.3 2 2.2.6 1.1 1.4 2 2.3 2.6.9.6 1.8.9 2.7.9.9 0 1.7-.1 2.4-.2s1.3-.4 1.9-.6c.2-1.9.9-3.3 2-4.3-1.6-.2-3-.4-4.3-.8-1.3-.3-2.6-.9-3.9-1.6-1.3-.8-2.5-1.7-3.4-2.8-.9-1.1-1.6-2.6-2.2-4.4-.6-1.8-.9-3.9-.9-6.3 0-3.4 1.1-6.3 3.3-8.7-1-2.5-.9-5.4.3-8.6.8-.3 2-.1 3.6.6 1.6.6 2.7 1.2 3.5 1.6.7.4 1.3.8 1.8 1.1 2.6-.7 5.3-1.1 8-1.1s5.4.4 8 1.1l1.6-1c1.1-.7 2.4-1.3 3.8-1.8 1.5-.6 2.6-.7 3.4-.5 1.2 3.2 1.4 6 .3 8.6 2.2 2.4 3.3 5.3 3.3 8.7 0 2.4-.3 4.5-.9 6.3-.6 1.8-1.3 3.3-2.2 4.4-.9 1.1-2 2-3.4 2.8-1.3.8-2.7 1.3-3.9 1.6-1.3.3-2.7.6-4.3.8 1.4 1.3 2.2 3.2 2.2 6v8.9c0 .5.2.9.5 1.3.3.3.9.4 1.6.3 6.4-2.2 11.7-6 15.8-11.7 4.1-5.6 6.1-11.9 6.1-19 .1-5.9-1.3-11.3-4.2-16.2z" fill="#343434"/></svg>