<?xml version="1.0" encoding="utf-8"?>
<!-- Generator: Adobe Illustrator 21.0.0, SVG Export Plug-In . SVG Version: 6.00 Build 0)  -->
<svg version="1.1" id="Layer_1" xmlns="http://www.w3.org/2000/svg" xmlns:xlink="http://www.w3.org/1999/xlink" x="0px" y="0px"
	 viewBox="0 0 64 53" style="enable-background:new 0 0 64 53;" xml:space="preserve">
<style type="text/css">
	.st0{fill:#343434;}
</style>
<g id="Page-1">
	<g id="Social-icons-_x28_65_x29_" transform="translate(-576.000000, -198.000000)">
		<g id="github-alt" transform="translate(576.000000, 198.000000)">
			<path id="Fill-1" class="st0" d="M43.1,30.9c-2.5,0-4.5,2.7-4.5,6.1c0,3.4,2,6.1,4.5,6.1s4.5-2.7,4.5-6.1
				C47.6,33.7,45.6,30.9,43.1,30.9z M58.8,15c0.5-1.2,0.5-8.3-2.2-15c0,0-6.3,0.7-15.8,7.1c-2-0.5-5.4-0.8-8.8-0.8
				c-3.4,0-6.8,0.3-8.8,0.8C13.7,0.7,7.4,0,7.4,0C4.7,6.7,4.7,13.8,5.2,15C2,18.5,0,22.6,0,28.2C0,52.6,20.7,53,26,53
				c1.2,0,3.5,0,6,0c2.5,0,4.8,0,6,0c5.2,0,26-0.4,26-24.8C64,22.6,62,18.5,58.8,15z M32.1,50h-0.2C18.8,50,8.6,48.5,8.6,36
				c0-3,1.1-5.8,3.6-8c4.3-3.8,11.5-1.8,19.7-1.8c0,0,0.1,0,0.1,0c0,0,0.1,0,0.1,0c8.2,0,15.4-2,19.7,1.8c2.6,2.3,3.6,5.1,3.6,8
				C55.4,48.5,45.2,50,32.1,50z M20.9,30.9c-2.5,0-4.5,2.7-4.5,6.1c0,3.4,2,6.1,4.5,6.1c2.5,0,4.5-2.7,4.5-6.1
				C25.5,33.7,23.4,30.9,20.9,30.9z"/>
		</g>
	</g>
</g>
</svg>
