<?xml version="1.0" encoding="utf-8"?>
<!-- Generator: Adobe Illustrator 21.0.0, SVG Export Plug-In . SVG Version: 6.00 Build 0)  -->
<svg version="1.1" id="Layer_1" xmlns="http://www.w3.org/2000/svg" xmlns:xlink="http://www.w3.org/1999/xlink" x="0px" y="0px"
	 viewBox="0 0 64 63" style="enable-background:new 0 0 64 63;" xml:space="preserve">
<style type="text/css">
	.st0{fill:#343434;}
</style>
<path class="st0" d="M59.7,16.1C56.8,11.1,53,7.2,48.1,4.3C43.2,1.4,37.8,0,32,0c-5.8,0-11.2,1.4-16.1,4.3C11,7.2,7.2,11.1,4.3,16.1
	C1.4,21,0,26.4,0,32.3c0,7,2,13.4,6.1,19c4.1,5.6,9.3,9.5,15.8,11.7c0.7,0.1,1.3,0,1.7-0.3c0.4-0.3,0.5-0.8,0.5-1.3
	c0-0.1,0-0.8,0-2.3c0-1.4,0-2.7,0-3.7l-1,0.2c-0.6,0.1-1.4,0.2-2.3,0.1c-0.9,0-1.9-0.1-2.9-0.3c-1-0.2-1.9-0.6-2.8-1.3
	c-0.9-0.7-1.5-1.5-1.8-2.6l-0.4-1c-0.3-0.6-0.7-1.4-1.3-2.1c-0.6-0.8-1.2-1.3-1.8-1.6l-0.3-0.2c-0.2-0.1-0.4-0.3-0.5-0.5
	c-0.2-0.2-0.3-0.4-0.4-0.6c-0.1-0.2,0-0.4,0.2-0.5c0.2-0.1,0.6-0.2,1.2-0.2l0.8,0.1c0.6,0.1,1.2,0.4,2.1,1c0.8,0.6,1.5,1.3,2,2.2
	c0.6,1.1,1.4,2,2.3,2.6c0.9,0.6,1.8,0.9,2.7,0.9c0.9,0,1.7-0.1,2.4-0.2c0.7-0.1,1.3-0.4,1.9-0.6c0.2-1.9,0.9-3.3,2-4.3
	c-1.6-0.2-3-0.4-4.3-0.8c-1.3-0.3-2.6-0.9-3.9-1.6c-1.3-0.8-2.5-1.7-3.4-2.8c-0.9-1.1-1.6-2.6-2.2-4.4c-0.6-1.8-0.9-3.9-0.9-6.3
	c0-3.4,1.1-6.3,3.3-8.7c-1-2.5-0.9-5.4,0.3-8.6c0.8-0.3,2-0.1,3.6,0.6c1.6,0.6,2.7,1.2,3.5,1.6c0.7,0.4,1.3,0.8,1.8,1.1
	c2.6-0.7,5.3-1.1,8-1.1c2.7,0,5.4,0.4,8,1.1l1.6-1c1.1-0.7,2.4-1.3,3.8-1.8c1.5-0.6,2.6-0.7,3.4-0.5c1.2,3.2,1.4,6,0.3,8.6
	c2.2,2.4,3.3,5.3,3.3,8.7c0,2.4-0.3,4.5-0.9,6.3c-0.6,1.8-1.3,3.3-2.2,4.4c-0.9,1.1-2,2-3.4,2.8c-1.3,0.8-2.7,1.3-3.9,1.6
	c-1.3,0.3-2.7,0.6-4.3,0.8c1.4,1.3,2.2,3.2,2.2,6v8.9c0,0.5,0.2,0.9,0.5,1.3c0.3,0.3,0.9,0.4,1.6,0.3c6.4-2.2,11.7-6,15.8-11.7
	c4.1-5.6,6.1-11.9,6.1-19C64,26.4,62.6,21,59.7,16.1z"/>
</svg>
