<?xml version="1.0" encoding="utf-8"?>
<!-- Generator: Adobe Illustrator 21.0.0, SVG Export Plug-In . SVG Version: 6.00 Build 0)  -->
<svg version="1.1" id="Layer_1" xmlns="http://www.w3.org/2000/svg" xmlns:xlink="http://www.w3.org/1999/xlink" x="0px" y="0px"
	 viewBox="0 0 30 64" style="enable-background:new 0 0 30 64;" xml:space="preserve">
<style type="text/css">
	.st0{fill:none;}
	.st1{fill:#343434;}
</style>
<title>glue</title>
<desc>Created with Sketch.</desc>
<g>
	<path class="st0" d="M19,23h-8c-1.1,0-2,0.9-2,2v2h12v-2C21,23.9,20.1,23,19,23z"/>
	<rect x="5" y="42" class="st0" width="20" height="8"/>
	<path class="st0" d="M4,34v4h22v-4c0-1.7-1.3-3-3-3H7C5.3,31,4,32.3,4,34z"/>
	<path class="st0" d="M4,57c0,1.7,1.3,3,3,3h16c1.7,0,3-1.3,3-3v-3H4V57z"/>
	<path class="st1" d="M25,27.3V25c0-2.5-1.6-4.7-3.8-5.6L16.8,0h-3.6L8.8,19.4C6.6,20.3,5,22.5,5,25v2.3c-2.9,0.9-5,3.5-5,6.7v23
		c0,3.9,3.1,7,7,7h16c3.9,0,7-3.1,7-7V34C30,30.8,27.9,28.2,25,27.3z M21,25v2H9v-2c0-1.1,0.9-2,2-2h8C20.1,23,21,23.9,21,25z
		 M15,10l2,9h-4L15,10z M26,57c0,1.7-1.3,3-3,3H7c-1.7,0-3-1.3-3-3v-3h22V57z M5,50v-8h20v8H5z M26,38H4v-4c0-1.7,1.3-3,3-3h16
		c1.7,0,3,1.3,3,3V38z"/>
</g>
</svg>
