<svg xmlns="http://www.w3.org/2000/svg" viewBox="0 0 30 64" enable-background="new 0 0 30 64"><style type="text/css">.st0{fill:none;} .st1{fill:#343434;}</style><title>glue</title><desc>Created with Sketch.</desc><path class="st0" d="M19 23h-8c-1.1 0-2 .9-2 2v2h12v-2c0-1.1-.9-2-2-2zM5 42h20v8h-20zM4 34v4h22v-4c0-1.7-1.3-3-3-3h-16c-1.7 0-3 1.3-3 3zM4 57c0 1.7 1.3 3 3 3h16c1.7 0 3-1.3 3-3v-3h-22v3z"/><path class="st1" d="M25 27.3v-2.3c0-2.5-1.6-4.7-3.8-5.6l-4.4-19.4h-3.6l-4.4 19.4c-2.2.9-3.8 3.1-3.8 5.6v2.3c-2.9.9-5 3.5-5 6.7v23c0 3.9 3.1 7 7 7h16c3.9 0 7-3.1 7-7v-23c0-3.2-2.1-5.8-5-6.7zm-4-2.3v2h-12v-2c0-1.1.9-2 2-2h8c1.1 0 2 .9 2 2zm-6-15l2 9h-4l2-9zm11 47c0 1.7-1.3 3-3 3h-16c-1.7 0-3-1.3-3-3v-3h22v3zm-21-7v-8h20v8h-20zm21-12h-22v-4c0-1.7 1.3-3 3-3h16c1.7 0 3 1.3 3 3v4z"/></svg>