<?xml version="1.0" encoding="utf-8"?>
<!-- Generator: Adobe Illustrator 21.0.0, SVG Export Plug-In . SVG Version: 6.00 Build 0)  -->
<svg version="1.1" id="Layer_1" xmlns="http://www.w3.org/2000/svg" xmlns:xlink="http://www.w3.org/1999/xlink" x="0px" y="0px"
	 viewBox="0 0 64 50" style="enable-background:new 0 0 64 50;" xml:space="preserve">
<style type="text/css">
	.st0{fill:#343434;}
</style>
<title>google-plus</title>
<desc>Created with Sketch.</desc>
<g>
	<path class="st0" d="M26.7,30h14.2c-2.1,6.8-8.4,11.7-15.9,11.7c-9.2,0-16.7-7.5-16.7-16.7c0-9.2,7.5-16.7,16.7-16.7
		c4.6,0,8.8,1.9,11.8,4.9l5.6-6.1C38,2.7,31.8,0,25,0C11.2,0,0,11.2,0,25c0,13.8,11.2,25,25,25c12.1,0,22.7-8.6,25-20v-7.8H26.7V30z
		"/>
	<polygon class="st0" points="59.4,22.5 59.4,18 55.5,18 55.5,22.5 51,22.5 51,26.4 55.5,26.4 55.5,31 59.4,31 59.4,26.4 64,26.4 
		64,22.5 	"/>
</g>
</svg>
