<?xml version="1.0" encoding="utf-8"?>
<!-- Generator: Adobe Illustrator 21.0.0, SVG Export Plug-In . SVG Version: 6.00 Build 0)  -->
<svg version="1.1" id="Layer_1" xmlns="http://www.w3.org/2000/svg" xmlns:xlink="http://www.w3.org/1999/xlink" x="0px" y="0px"
	 viewBox="0 0 60 64" style="enable-background:new 0 0 60 64;" xml:space="preserve">
<style type="text/css">
	.st0{fill:#333333;}
</style>
<title>hair-dryer</title>
<desc>Created with Sketch.</desc>
<g>
	<path class="st0" d="M60,17c0-9.4-7.6-17-17-17c-5.2,0-19,2.1-30.3,5.5C11.4,4.6,9.8,4,8,4H0v26h8c2.1,0,4.1-0.9,5.5-2.2
		c6.7,2.3,14.2,4.1,20.2,5.1c-1.1,2.3-1.8,5.2-1.8,8.3c0,0.1,0,0.3,0,0.4c0,0.1,0,0.2,0,0.3c0,0.3,0,0.6,0.1,0.8
		c0.3,4.2,1.8,7.9,3.9,9.9v3.5c0,4.2,3.4,7.5,7.5,7.5c4.1,0,7.5-3.4,7.5-7.5V33.2c0-0.4,0-0.8-0.1-1.1C56.3,29.2,60,23.5,60,17z
		 M8,26H4V8h4c2.2,0,4,1.8,4,4v10C12,24.2,10.2,26,8,26z M36,42.4c0-0.2,0-0.4,0-0.6c0.1-1,0.9-1.8,2-1.8c1.1,0,2,0.9,2,2
		s-0.9,2-2,2C37,44,36.2,43.3,36,42.4z M47,56.3c0,1.9-1.6,3.5-3.5,3.5c-1.9,0-3.5-1.6-3.5-3.5v-5.2l-1.2-1.2
		c-0.5-0.5-0.9-1.1-1.3-1.9c0.2,0,0.4,0,0.6,0c3.3,0,6-2.7,6-6s-2.7-6-6-6c-0.4,0-0.8,0-1.2,0.1c0.3-0.9,0.7-1.8,1.1-2.4
		c2,0.3,3.8,0.4,5.1,0.4c1.4,0,2.7-0.1,4-0.4V56.3z M43,30c-5,0-17.3-2.5-27-5.6V22V12V8.7C25.6,6,37.7,4,43,4c7.2,0,13,5.8,13,13
		S50.2,30,43,30z"/>
	<path class="st0" d="M47.3,10.4c-0.3-0.8-1.1-1.2-1.9-0.9c-0.8,0.3-1.2,1.1-0.9,1.9l4.1,11.3c0.3,0.8,1.1,1.2,1.9,0.9
		c0.8-0.3,1.2-1.1,0.9-1.9L47.3,10.4z"/>
	<path class="st0" d="M42.3,10.4c-0.3-0.8-1.1-1.2-1.9-0.9c-0.8,0.3-1.2,1.1-0.9,1.9l4.1,11.3c0.3,0.8,1.1,1.2,1.9,0.9
		c0.8-0.3,1.2-1.1,0.9-1.9L42.3,10.4z"/>
	<path class="st0" d="M37.3,10.4c-0.3-0.8-1.1-1.2-1.9-0.9c-0.8,0.3-1.2,1.1-0.9,1.9l4.1,11.3c0.3,0.8,1.1,1.2,1.9,0.9
		c0.8-0.3,1.2-1.1,0.9-1.9L37.3,10.4z"/>
</g>
</svg>
