<?xml version="1.0" encoding="utf-8"?>
<!-- Generator: Adobe Illustrator 21.0.0, SVG Export Plug-In . SVG Version: 6.00 Build 0)  -->
<svg version="1.1" id="Layer_1" xmlns="http://www.w3.org/2000/svg" xmlns:xlink="http://www.w3.org/1999/xlink" x="0px" y="0px"
	 viewBox="0 0 64 64" style="enable-background:new 0 0 64 64;" xml:space="preserve">
<style type="text/css">
	.st0{fill:#343434;}
</style>
<title>hammer</title>
<desc>Created with Sketch.</desc>
<path class="st0" d="M62.9,22.3l-6.5-6.5c0.9-1.5,0.7-3.5-0.6-4.8L53,8.1c-1.3-1.3-3.3-1.5-4.8-0.6l-6.5-6.5c-1.2-1.2-3.1-1.2-4.2,0
	L29,9.5c-1.2,1.2-1.2,3.1,0,4.2l6.4,6.4L2.1,53.4c-1.6,1.6-1.6,4.1,0,5.7L5,61.9c1.6,1.6,4.1,1.6,5.7,0l33.2-33.2l6.4,6.4
	c1.2,1.2,3.1,1.2,4.2,0l8.5-8.5C64.1,25.3,64.1,23.4,62.9,22.3z M7.8,59c0,0-2.8-2.8-2.8-2.8c0,0,6.6-6.6,14.8-14.8l2.8,2.8
	C14.4,52.4,7.8,59,7.8,59z M25.5,41.4l-2.8-2.8c5.2-5.2,10.8-10.8,15.6-15.6l2.8,2.8C36.3,30.6,30.7,36.2,25.5,41.4z"/>
</svg>
