<?xml version="1.0" encoding="utf-8"?>
<!-- Generator: Adobe Illustrator 21.0.0, SVG Export Plug-In . SVG Version: 6.00 Build 0)  -->
<svg version="1.1" id="Layer_1" xmlns="http://www.w3.org/2000/svg" xmlns:xlink="http://www.w3.org/1999/xlink" x="0px" y="0px"
	 viewBox="0 0 64 64" style="enable-background:new 0 0 64 64;" xml:space="preserve">
<style type="text/css">
	.st0{fill:#333333;}
</style>
<title>hashtag</title>
<desc>Created with Sketch.</desc>
<g>
	<path class="st0" d="M61,41H46V23h15c1.7,0,3-1.3,3-3c0-1.7-1.3-3-3-3H46V3c0-1.7-1.3-3-3-3c-1.7,0-3,1.3-3,3v14H22V3
		c0-1.7-1.3-3-3-3c-1.7,0-3,1.3-3,3v14H3c-1.7,0-3,1.3-3,3c0,1.7,1.3,3,3,3h13v18H3c-1.7,0-3,1.3-3,3c0,1.7,1.3,3,3,3h13v14
		c0,1.7,1.3,3,3,3c1.7,0,3-1.3,3-3V47h18v14c0,1.7,1.3,3,3,3c1.7,0,3-1.3,3-3V47h15c1.7,0,3-1.3,3-3C64,42.3,62.7,41,61,41z M40,41
		H22V23h18V41z"/>
</g>
</svg>
