<svg xmlns="http://www.w3.org/2000/svg" viewBox="0 0 64 64" enable-background="new 0 0 64 64"><style type="text/css">.st0{fill:#333333;}</style><title>hashtag</title><desc>Created with Sketch.</desc><path class="st0" d="M61 41h-15v-18h15c1.7 0 3-1.3 3-3s-1.3-3-3-3h-15v-14c0-1.7-1.3-3-3-3s-3 1.3-3 3v14h-18v-14c0-1.7-1.3-3-3-3s-3 1.3-3 3v14h-13c-1.7 0-3 1.3-3 3s1.3 3 3 3h13v18h-13c-1.7 0-3 1.3-3 3s1.3 3 3 3h13v14c0 1.7 1.3 3 3 3s3-1.3 3-3v-14h18v14c0 1.7 1.3 3 3 3s3-1.3 3-3v-14h15c1.7 0 3-1.3 3-3s-1.3-3-3-3zm-21 0h-18v-18h18v18z"/></svg>