<svg xmlns="http://www.w3.org/2000/svg" viewBox="0 0 64 50" enable-background="new 0 0 64 50"><style type="text/css">.st0{fill:#343434;}</style><title>headphone</title><desc>Created with Sketch.</desc><path class="st0" d="M61 29c0-1.1-.9-2-2-2 0-14.9-12.1-27-27-27s-27 12.1-27 27c-1.1 0-2 .9-2 2-1.7.2-3 1.7-3 3.5v11c0 1.8 1.3 3.2 3 3.5v1c0 1.1.9 2 2 2h7c1.1 0 2-.9 2-2v-19c0-1.1-.9-2-2-2h-1c0-11.6 9.4-21 21-21s21 9.4 21 21h-1c-1.1 0-2 .9-2 2v19c0 1.1.9 2 2 2h7c1.1 0 2-.9 2-2v-1c1.7-.2 3-1.7 3-3.5v-11c0-1.8-1.3-3.2-3-3.5z"/></svg>