<?xml version="1.0" encoding="utf-8"?>
<!-- Generator: Adobe Illustrator 21.0.0, SVG Export Plug-In . SVG Version: 6.00 Build 0)  -->
<svg version="1.1" id="Layer_1" xmlns="http://www.w3.org/2000/svg" xmlns:xlink="http://www.w3.org/1999/xlink" x="0px" y="0px"
	 viewBox="0 0 62 63" style="enable-background:new 0 0 62 63;" xml:space="preserve">
<style type="text/css">
	.st0{fill:#343434;}
</style>
<title>heading</title>
<desc>Created with Sketch.</desc>
<path class="st0" d="M57.6,4c1.3-0.3,2.5-0.8,3.6-1.4V0H38.3v2.6c1,0.5,2.1,0.9,3.2,1.3c1.1,0.4,2.3,0.7,3.6,1v23.5H16.8V4.9
	C18,4.6,19.2,4.3,20.3,4c1.1-0.4,2.2-0.8,3.2-1.4V0H0.8v2.6c2.1,1.1,4.6,1.8,7.4,2.2v53.4c-2.5,0.5-5,1.2-7.4,2.2V63h22.8v-2.6
	c-1-0.5-2.1-0.9-3.2-1.3c-1.1-0.4-2.3-0.7-3.5-0.9V33h28.3v25.2c-2.3,0.5-4.6,1.2-6.8,2.2V63h22.8v-2.6c-1-0.5-2.2-0.9-3.4-1.3
	c-1.2-0.4-2.6-0.7-4-0.9V4.9C55,4.6,56.3,4.3,57.6,4z"/>
</svg>
