<?xml version="1.0" encoding="utf-8"?>
<!-- Generator: Adobe Illustrator 21.0.0, SVG Export Plug-In . SVG Version: 6.00 Build 0)  -->
<svg version="1.1" id="Layer_1" xmlns="http://www.w3.org/2000/svg" xmlns:xlink="http://www.w3.org/1999/xlink" x="0px" y="0px"
	 viewBox="0 0 64 50" style="enable-background:new 0 0 64 50;" xml:space="preserve">
<style type="text/css">
	.st0{fill:#343434;}
</style>
<title>headphone</title>
<desc>Created with Sketch.</desc>
<path class="st0" d="M61,29L61,29c0-1.1-0.9-2-2-2h0C59,12.1,46.9,0,32,0S5,12.1,5,27h0c-1.1,0-2,0.9-2,2v0c-1.7,0.2-3,1.7-3,3.5v11
	c0,1.8,1.3,3.2,3,3.5v1c0,1.1,0.9,2,2,2h7c1.1,0,2-0.9,2-2V29c0-1.1-0.9-2-2-2h-1c0-11.6,9.4-21,21-21s21,9.4,21,21h-1
	c-1.1,0-2,0.9-2,2v19c0,1.1,0.9,2,2,2h7c1.1,0,2-0.9,2-2v-1c1.7-0.2,3-1.7,3-3.5v-11C64,30.7,62.7,29.3,61,29z"/>
</svg>
