<?xml version="1.0" encoding="utf-8"?>
<!-- Generator: Adobe Illustrator 21.0.0, SVG Export Plug-In . SVG Version: 6.00 Build 0)  -->
<svg version="1.1" id="Layer_1" xmlns="http://www.w3.org/2000/svg" xmlns:xlink="http://www.w3.org/1999/xlink" x="0px" y="0px"
	 viewBox="0 0 62 57" style="enable-background:new 0 0 62 57;" xml:space="preserve">
<style type="text/css">
	.st0{fill:#343434;}
</style>
<title>heart</title>
<desc>Created with Sketch.</desc>
<path class="st0" d="M56.2,5.3c-7-7-18.3-7.1-25.3-0.2l-0.2,0.2l-0.2-0.2C23.7-1.8,12.4-1.7,5.3,5.3c-7,7-7.1,18.3-0.2,25.3
	l25.7,25.7l25.7-25.7C63.4,23.7,63.3,12.4,56.2,5.3z M52.6,28.7L30.8,50.6L8.9,28.7C3,22.8,2.7,13.6,8.2,8.2
	C13.6,2.7,22.8,3,28.7,8.9l2.1,2.1l2.1-2.1C38.7,3,47.9,2.7,53.4,8.2C58.9,13.6,58.5,22.8,52.6,28.7z"/>
</svg>
