<svg xmlns="http://www.w3.org/2000/svg" viewBox="0 0 62 57" enable-background="new 0 0 62 57"><style type="text/css">.st0{fill:#343434;}</style><title>heart</title><desc>Created with Sketch.</desc><path class="st0" d="M56.2 5.3c-7-7-18.3-7.1-25.3-.2l-.2.2-.2-.2c-6.8-6.9-18.1-6.8-25.2.2-7 7-7.1 18.3-.2 25.3l25.7 25.7 25.7-25.7c6.9-6.9 6.8-18.2-.3-25.3zm-3.6 23.4l-21.8 21.9-21.9-21.9c-5.9-5.9-6.2-15.1-.7-20.5 5.4-5.5 14.6-5.2 20.5.7l2.1 2.1 2.1-2.1c5.8-5.9 15-6.2 20.5-.7 5.5 5.4 5.1 14.6-.8 20.5z"/></svg>