<?xml version="1.0" encoding="utf-8"?>
<!-- Generator: Adobe Illustrator 21.0.0, SVG Export Plug-In . SVG Version: 6.00 Build 0)  -->
<svg version="1.1" id="Layer_1" xmlns="http://www.w3.org/2000/svg" xmlns:xlink="http://www.w3.org/1999/xlink" x="0px" y="0px"
	 viewBox="0 0 64 61" style="enable-background:new 0 0 64 61;" xml:space="preserve">
<style type="text/css">
	.st0{fill:#343434;}
</style>
<title>helmet</title>
<desc>Created with Sketch.</desc>
<path class="st0" d="M64,30c0-1.3-0.2-2.6-0.5-3.8C60.8,11.3,47.7,0,32,0C14.3,0,0,14.3,0,32v7c0,0.4,0,0.9,0,1.3l55.6,20.2
	C60.8,54.9,64,47.3,64,39v-7c0-0.4,0-0.9,0-1.3C64,30.4,64,30.2,64,30z M50,40c-2.3,0-4.4-0.7-6.1-2.1l-0.2-0.2L27.2,28
	c0,0-1.2,0-1.2,0c-2.2,0-4-1.8-4-4c0-2.2,1.8-4,4-4l4,0L49.1,20l0.2,0c0.3,0,0.5,0,0.8,0c3.1,0,5.8,1.4,7.7,3.6
	c0.9,2.7,1.3,5.5,1.3,8.4v2.3C57.4,37.7,54,40,50,40z M54,54.7L5,36.8V32C5,17.1,17.1,5,32,5c9.2,0,17.3,4.6,22.2,11.6
	C52.9,16.2,51.5,16,50,16c-0.4,0-0.7,0-1.1,0c0,0-22.9,0-22.9,0c-4.4,0-8,3.6-8,8s3.6,8,8.1,8l15.3,9.1c2.4,1.8,5.3,2.9,8.6,2.9
	c3.4,0,6.5-1.2,8.9-3.2C58.6,45.8,56.9,50.6,54,54.7z"/>
</svg>
