<svg xmlns="http://www.w3.org/2000/svg" viewBox="0 0 64 61" enable-background="new 0 0 64 61"><style type="text/css">.st0{fill:#343434;}</style><title>helmet</title><desc>Created with Sketch.</desc><path class="st0" d="M64 30c0-1.3-.2-2.6-.5-3.8-2.7-14.9-15.8-26.2-31.5-26.2-17.7 0-32 14.3-32 32v8.3l55.6 20.2c5.2-5.6 8.4-13.2 8.4-21.5v-9zm-14 10c-2.3 0-4.4-.7-6.1-2.1l-.2-.2-16.5-9.7h-1.2c-2.2 0-4-1.8-4-4s1.8-4 4-4h24.1c3.1 0 5.8 1.4 7.7 3.6.9 2.7 1.3 5.5 1.3 8.4v2.3c-1.7 3.4-5.1 5.7-9.1 5.7zm4 14.7l-49-17.9v-4.8c0-14.9 12.1-27 27-27 9.2 0 17.3 4.6 22.2 11.6-1.3-.4-2.7-.6-4.2-.6h-24c-4.4 0-8 3.6-8 8s3.6 8 8.1 8l15.3 9.1c2.4 1.8 5.3 2.9 8.6 2.9 3.4 0 6.5-1.2 8.9-3.2-.3 5-2 9.8-4.9 13.9z"/></svg>