<?xml version="1.0" encoding="utf-8"?>
<!-- Generator: Adobe Illustrator 21.0.0, SVG Export Plug-In . SVG Version: 6.00 Build 0)  -->
<svg version="1.1" id="Layer_1" xmlns="http://www.w3.org/2000/svg" xmlns:xlink="http://www.w3.org/1999/xlink" x="0px" y="0px"
	 viewBox="0 0 63 60" style="enable-background:new 0 0 63 60;" xml:space="preserve">
<style type="text/css">
	.st0{fill:#343434;}
</style>
<title>highlighter</title>
<desc>Created with Sketch.</desc>
<g>
	<path class="st0" d="M60,10.9l-8.5-8.5c-3.1-3.1-8.2-3.1-11.3,0L15.5,27.2l2.5,2.5l17-17l14.8,14.8l-17,17l2.5,2.5l24.7-24.7
		C63.2,19.1,63.2,14.1,60,10.9z M57.6,19.8l-4.9,4.9L37.8,9.9l4.9-4.9c1.6-1.6,4.1-1.6,5.7,0l9.2,9.2C59.1,15.7,59.1,18.2,57.6,19.8
		z"/>
	<path class="st0" d="M8.3,46.8L8.4,47l-7.8,7.8l9.2,4.9l5.7-5.7l0.2,0.2L35.3,47L15.5,27.2L8.3,46.8z M9.3,56l-3.7-2l4.9-4.9
		l2.8,2.8L9.3,56z M28.1,45.4l-11.4,4.2l-1.9-1.9l-1.9-1.9l4.2-11.4L28.1,45.4z"/>
</g>
</svg>
