<svg xmlns="http://www.w3.org/2000/svg" viewBox="0 0 63 60" enable-background="new 0 0 63 60"><style type="text/css">.st0{fill:#343434;}</style><title>highlighter</title><desc>Created with Sketch.</desc><path class="st0" d="M60 10.9l-8.5-8.5c-3.1-3.1-8.2-3.1-11.3 0l-24.7 24.8 2.5 2.5 17-17 14.8 14.8-17 17 2.5 2.5 24.7-24.7c3.2-3.2 3.2-8.2 0-11.4zm-2.4 8.9l-4.9 4.9-14.9-14.8 4.9-4.9c1.6-1.6 4.1-1.6 5.7 0l9.2 9.2c1.5 1.5 1.5 4 0 5.6zM8.3 46.8l.1.2-7.8 7.8 9.2 4.9 5.7-5.7.2.2 19.6-7.2-19.8-19.8-7.2 19.6zm1 9.2l-3.7-2 4.9-4.9 2.8 2.8-4 4.1zm18.8-10.6l-11.4 4.2-1.9-1.9-1.9-1.9 4.2-11.4 11 11z"/></svg>