<?xml version="1.0" encoding="utf-8"?>
<!-- Generator: Adobe Illustrator 21.0.0, SVG Export Plug-In . SVG Version: 6.00 Build 0)  -->
<svg version="1.1" id="Layer_1" xmlns="http://www.w3.org/2000/svg" xmlns:xlink="http://www.w3.org/1999/xlink" x="0px" y="0px"
	 viewBox="0 0 38 64" style="enable-background:new 0 0 38 64;" xml:space="preserve">
<style type="text/css">
	.st0{fill:#343434;}
</style>
<title>hourglass</title>
<desc>Created with Sketch.</desc>
<g>
	<path class="st0" d="M9.3,33.3C9.3,33.3,9.3,33.3,9.3,33.3C9.7,33,9.3,33.3,9.3,33.3z"/>
	<path class="st0" d="M30.2,29.4c3-2.9,4.8-7,4.8-11.4l0-12c1.6,0,3-1.3,3-3V0H0v3c0,1.7,1.3,3,3,3v12c0,4.5,1.8,8.5,4.8,11.4
		c1.8,1.7,1.5,1.3,1.5,1.3c0.6,0.5,1.3,0.9,1.9,1.3c-0.7,0.4-1.3,0.8-1.9,1.2c-0.2,0.2-0.6,0.6-1.5,1.3C4.8,37.5,3,41.5,3,46v12h0
		c-1.6,0-3,1.3-3,3v3h38v-3c0-1.7-1.3-3-3-3V46c0-4.5-1.8-8.5-4.8-11.4c-2.1-1.9-1.5-1.3-1.5-1.3c-0.6-0.5-1.3-0.9-1.9-1.3
		c0.7-0.4,1.3-0.8,1.9-1.3C28.7,30.7,28.2,31.2,30.2,29.4z M31,46v12H7V46c0-4.4,2.4-8.4,6.2-10.5l5.8-3.2l5.8,3.2
		C28.6,37.6,31,41.6,31,46z M24.8,28.5L19,31.7l-5.8-3.2C9.4,26.4,7,22.4,7,18V6h24v12C31,22.4,28.6,26.4,24.8,28.5z"/>
</g>
</svg>
