<?xml version="1.0" encoding="utf-8"?>
<!-- Generator: Adobe Illustrator 21.0.0, SVG Export Plug-In . SVG Version: 6.00 Build 0)  -->
<svg version="1.1" id="Layer_1" xmlns="http://www.w3.org/2000/svg" xmlns:xlink="http://www.w3.org/1999/xlink" x="0px" y="0px"
	 viewBox="0 0 56 64" style="enable-background:new 0 0 56 64;" xml:space="preserve">
<style type="text/css">
	.st0{fill:#343434;}
</style>
<path class="st0" d="M55,0H1C0.4,0,0,0.5,0,1.1l4.9,55.6C5,57.3,5.5,57.9,6,58l20.9,5.8c0.6,0.2,1.5,0.2,2,0l21-5.9
	c0.6-0.2,1.1-0.8,1.1-1.4L56,1.1C56,0.5,55.6,0,55,0z M45.3,14.8l-0.1,1.5c-0.1,0.6-0.1,1.4-0.2,1.9c0,0.4-0.1,0.8-0.1,0.8h-1.1
	H29.1H28h-1.1h-7.8c-0.6,0-1,0.5-1,1.1l0.5,5.1c0.1,0.6,0.6,1.1,1.2,1.1h7.2H28h1.1h12.3h2c0.5,0,0.9,0.4,0.9,1c0,0.5-0.1,1.4-0.2,2
	l-1.5,16.5c-0.1,0.6-0.1,1.3-0.1,1.7c0,0.3-0.5,0.7-1.1,0.9L29,51.6c-0.6,0.2-1,0.3-1,0.3c0,0-0.5-0.1-1-0.3l-12.4-3.5
	c-0.6-0.2-1.1-0.8-1.1-1.4l-0.8-9c-0.1-0.6,0.4-1.1,1-1.1h1.1h2.1h1.7c0.6,0,1.1,0.5,1.2,1.1l0.3,3.5c0.1,0.6,0.6,1.2,1.1,1.3
	l5.8,1.6c0.6,0.2,1,0.3,1,0.3c0,0,0.5-0.1,1-0.3l5.8-1.6c0.6-0.2,1.1-0.8,1.1-1.3l0.6-7.1c0.1-0.6-0.4-1.1-1-1.1h-6.5H28h-1.1H13.3
	c-0.6,0-1.1-0.5-1.2-1.1l-1.5-17.4c-0.1-0.6-0.1-1.5-0.2-2c0-0.5,0.4-1,1-1h15.5H28h1.1h15.5c0.6,0,1,0.4,1,1
	C45.5,13.3,45.4,14.2,45.3,14.8z"/>
</svg>
