<svg xmlns="http://www.w3.org/2000/svg" viewBox="0 0 56 64" enable-background="new 0 0 56 64"><style type="text/css">.st0{fill:#343434;}</style><path class="st0" d="M55 0h-54c-.6 0-1 .5-1 1.1l4.9 55.6c.1.6.6 1.2 1.1 1.3l20.9 5.8c.6.2 1.5.2 2 0l21-5.9c.6-.2 1.1-.8 1.1-1.4l5-55.4c0-.6-.4-1.1-1-1.1zm-9.7 14.8l-.1 1.5c-.1.6-.1 1.4-.2 1.9 0 .4-.1.8-.1.8h-25.8c-.6 0-1 .5-1 1.1l.5 5.1c.1.6.6 1.1 1.2 1.1h23.6c.5 0 .9.4.9 1 0 .5-.1 1.4-.2 2l-1.5 16.5c-.1.6-.1 1.3-.1 1.7 0 .3-.5.7-1.1.9l-12.4 3.2c-.6.2-1 .3-1 .3s-.5-.1-1-.3l-12.4-3.5c-.6-.2-1.1-.8-1.1-1.4l-.8-9c-.1-.6.4-1.1 1-1.1h4.9c.6 0 1.1.5 1.2 1.1l.3 3.5c.1.6.6 1.2 1.1 1.3l5.8 1.6c.6.2 1 .3 1 .3s.5-.1 1-.3l5.8-1.6c.6-.2 1.1-.8 1.1-1.3l.6-7.1c.1-.6-.4-1.1-1-1.1h-22.2c-.6 0-1.1-.5-1.2-1.1l-1.5-17.4c-.1-.6-.1-1.5-.2-2 0-.5.4-1 1-1h33.2c.6 0 1 .4 1 1-.1.8-.2 1.7-.3 2.3z"/></svg>