<svg xmlns="http://www.w3.org/2000/svg" viewBox="0 0 38 58" enable-background="new 0 0 38 58"><style type="text/css">.st0{fill:#343434;}</style><title>ice-cream-alt</title><desc>Created with Sketch.</desc><path class="st0" d="M34.8 29.1c.1-.3.2-.7.2-1.1 0-1.9-1.4-3.5-3.2-3.9.1-.3.2-.7.2-1.1 0-1.9-1.3-3.4-3-3.9v-.1c0-6.6-3.8-17.8-3.8-17.8-.3-1.1-.9-1.1-1.2 0 0 0-2.8 10-8.6 8.6-4.2-1-6.4 6.5-6.4 9.2v.1c-1.7.4-3 2-3 3.9 0 .4.1.7.2 1.1-1.8.4-3.2 2-3.2 3.9 0 .4.1.7.2 1.1-1.8.4-3.2 2-3.2 3.9s1.4 3.6 3.3 3.9v.1l1.5 18c.1 1.6 1.6 3 3.2 3h22c1.6 0 3.1-1.3 3.2-3l1.5-18v-.1c1.9-.3 3.3-1.9 3.3-3.9 0-1.9-1.4-3.5-3.2-3.9zm-27.8-2.1h8.5c.8 0 1.5-.7 1.5-1.5s-.7-1.5-1.5-1.5h-5.5c-.5 0-1-.4-1-1s.5-1 1-1h2.5c.8 0 1.5-.7 1.5-1.5s-.7-1.5-1.5-1.5h-1c0-2.7 2-6.6 3.4-6.3 3.8.9 6.9-1.6 9.3-5.9l.2.8c.4 1.5.7 2.9 1 4.2.7 3 1 5.5 1 7.2h-6c-.8 0-1.5.7-1.5 1.5s.7 1.5 1.5 1.5h7.6c.5 0 1 .4 1 1s-.5 1-1 1h-3.5c-.8 0-1.5.7-1.5 1.5s.7 1.5 1.5 1.5h6.5c.6 0 1 .4 1 1s-.5 1-1 1h-24c-.6 0-1-.4-1-1s.5-1 1-1zm23.3 27.8c0 .1-.2.2-.3.2h-22c-.1 0-.2-.1-.3-.2l-1.4-17.8h25.5l-1.5 17.8zm3.7-20.8h-30c-.5 0-1-.4-1-1s.5-1 1-1h30c.5 0 1 .4 1 1s-.5 1-1 1zM12 53c.8-.1 1.4-.8 1.4-1.6l-.7-10c-.1-.8-.8-1.4-1.7-1.4-.8.1-1.4.8-1.4 1.6l.7 10c.1.8.8 1.4 1.7 1.4z"/></svg>