<?xml version="1.0" encoding="utf-8"?>
<!-- Generator: Adobe Illustrator 21.0.0, SVG Export Plug-In . SVG Version: 6.00 Build 0)  -->
<svg version="1.1" id="Layer_1" xmlns="http://www.w3.org/2000/svg" xmlns:xlink="http://www.w3.org/1999/xlink" x="0px" y="0px"
	 viewBox="0 0 38 58" style="enable-background:new 0 0 38 58;" xml:space="preserve">
<style type="text/css">
	.st0{fill:#343434;}
</style>
<title>ice-cream-alt</title>
<desc>Created with Sketch.</desc>
<g>
	<path class="st0" d="M34.8,29.1c0.1-0.3,0.2-0.7,0.2-1.1c0-1.9-1.4-3.5-3.2-3.9c0.1-0.3,0.2-0.7,0.2-1.1c0-1.9-1.3-3.4-3-3.9V19
		c0-6.6-3.8-17.8-3.8-17.8c-0.3-1.1-0.9-1.1-1.2,0c0,0-2.8,10-8.6,8.6C11.2,8.8,9,16.3,9,19v0.1c-1.7,0.4-3,2-3,3.9
		c0,0.4,0.1,0.7,0.2,1.1C4.4,24.5,3,26.1,3,28c0,0.4,0.1,0.7,0.2,1.1C1.4,29.5,0,31.1,0,33c0,1.9,1.4,3.6,3.3,3.9c0,0,0,0,0,0.1
		l1.5,18c0.1,1.6,1.6,3,3.2,3h22c1.6,0,3.1-1.3,3.2-3l1.5-18c0,0,0,0,0-0.1C36.6,36.6,38,35,38,33C38,31.1,36.6,29.5,34.8,29.1z
		 M7,27h3h5h0.5c0.8,0,1.5-0.7,1.5-1.5S16.3,24,15.5,24H15h-5c-0.5,0-1-0.4-1-1c0-0.6,0.5-1,1-1h2.5c0.8,0,1.5-0.7,1.5-1.5
		S13.3,19,12.5,19h-1c0-2.7,2-6.6,3.4-6.3c3.8,0.9,6.9-1.6,9.3-5.9c0.1,0.3,0.1,0.5,0.2,0.8c0.4,1.5,0.7,2.9,1,4.2
		c0.7,3,1,5.5,1,7.2h-6c-0.8,0-1.5,0.7-1.5,1.5s0.7,1.5,1.5,1.5H28c0.5,0,1,0.4,1,1c0,0.6-0.5,1-1,1h-3h-0.5c-0.8,0-1.5,0.7-1.5,1.5
		s0.7,1.5,1.5,1.5H25h3h3c0.6,0,1,0.4,1,1c0,0.6-0.5,1-1,1H7c-0.6,0-1-0.4-1-1C6,27.4,6.5,27,7,27z M30.3,54.8
		c0,0.1-0.2,0.2-0.3,0.2H8c-0.1,0-0.2-0.1-0.3-0.2L6.3,37h25.5L30.3,54.8z M34,34h-2H6H4c-0.5,0-1-0.4-1-1c0-0.6,0.5-1,1-1h3h24h3
		c0.5,0,1,0.4,1,1C35,33.6,34.5,34,34,34z"/>
	<path class="st0" d="M12,53c0.8-0.1,1.4-0.8,1.4-1.6l-0.7-10C12.6,40.6,11.9,40,11,40c-0.8,0.1-1.4,0.8-1.4,1.6l0.7,10
		C10.4,52.4,11.1,53,12,53z"/>
</g>
</svg>
