<svg xmlns="http://www.w3.org/2000/svg" viewBox="0 0 38 58"><path d="M34.8 29.1c.1-.3.2-.7.2-1.1 0-1.9-1.4-3.5-3.2-3.9.1-.3.2-.7.2-1.1 0-1.9-1.3-3.4-3-3.9V19c0-6.6-3.8-17.8-3.8-17.8-.3-1.1-.9-1.1-1.2 0 0 0-2.8 10-8.6 8.6C11.2 8.8 9 16.3 9 19v.1c-1.7.4-3 2-3 3.9 0 .4.1.7.2 1.1-1.8.4-3.2 2-3.2 3.9 0 .4.1.7.2 1.1-1.8.4-3.2 2-3.2 3.9s1.4 3.6 3.3 3.9v.1l1.5 18c.1 1.6 1.6 3 3.2 3h22c1.6 0 3.1-1.3 3.2-3l1.5-18v-.1C36.6 36.6 38 35 38 33c0-1.9-1.4-3.5-3.2-3.9zM7 27h8.5c.8 0 1.5-.7 1.5-1.5s-.7-1.5-1.5-1.5H10c-.5 0-1-.4-1-1s.5-1 1-1h2.5c.8 0 1.5-.7 1.5-1.5s-.7-1.5-1.5-1.5h-1c0-2.7 2-6.6 3.4-6.3 3.8.9 6.9-1.6 9.3-5.9l.2.8c.4 1.5.7 2.9 1 4.2.7 3 1 5.5 1 7.2h-6c-.8 0-1.5.7-1.5 1.5s.7 1.5 1.5 1.5H28c.5 0 1 .4 1 1s-.5 1-1 1h-3.5c-.8 0-1.5.7-1.5 1.5s.7 1.5 1.5 1.5H31c.6 0 1 .4 1 1s-.5 1-1 1H7c-.6 0-1-.4-1-1s.5-1 1-1zm23.3 27.8c0 .1-.2.2-.3.2H8c-.1 0-.2-.1-.3-.2L6.3 37h25.5l-1.5 17.8zM34 34H4c-.5 0-1-.4-1-1s.5-1 1-1h30c.5 0 1 .4 1 1s-.5 1-1 1zM12 53c.8-.1 1.4-.8 1.4-1.6l-.7-10c-.1-.8-.8-1.4-1.7-1.4-.8.1-1.4.8-1.4 1.6l.7 10c.1.8.8 1.4 1.7 1.4z" fill="#343434"/></svg>