<svg xmlns="http://www.w3.org/2000/svg" viewBox="0 0 64 42" enable-background="new 0 0 64 42"><style type="text/css">.st0{fill:#333333;}</style><title>id-card</title><desc>Created with Sketch.</desc><path class="st0" d="M59 0h-54c-2.8 0-5 2.2-5 5v32c0 2.8 2.2 5 5 5h54c2.8 0 5-2.2 5-5v-32c0-2.8-2.2-5-5-5zm1 37c0 .6-.4 1-1 1h-54c-.5 0-1-.4-1-1v-32c0-.6.4-1 1-1h54c.5 0 1 .4 1 1v32zM21 10h-11c-1.1 0-2 .9-2 2v14c0 1.1.9 2 2 2h11c1.1 0 2-.9 2-2v-14c0-1.1-.9-2-2-2zM54 10h-25c-1.1 0-2 .9-2 2s.9 2 2 2h25c1.1 0 2-.9 2-2s-.9-2-2-2zM54 16h-25c-1.1 0-2 .9-2 2s.9 2 2 2h25c1.1 0 2-.9 2-2s-.9-2-2-2zM33 22h-4c-1.1 0-2 .9-2 2s.9 2 2 2h4c1.1 0 2-.9 2-2s-.9-2-2-2zM43 22h-4c-1.1 0-2 .9-2 2s.9 2 2 2h4c1.1 0 2-.9 2-2s-.9-2-2-2z"/></svg>