<svg xmlns="http://www.w3.org/2000/svg" viewBox="0 0 64 48" enable-background="new 0 0 64 48"><style type="text/css">.st0{fill:#333333;}</style><title>indent</title><desc>Created with Sketch.</desc><path class="st0" d="M3 6h58c1.7 0 3-1.3 3-3s-1.3-3-3-3h-58c-1.7 0-3 1.3-3 3s1.3 3 3 3zM61 28h-34c-1.7 0-3 1.3-3 3s1.3 3 3 3h34c1.7 0 3-1.3 3-3s-1.3-3-3-3zM61 14h-34c-1.7 0-3 1.3-3 3s1.3 3 3 3h34c1.7 0 3-1.3 3-3s-1.3-3-3-3zM61 42h-58c-1.7 0-3 1.3-3 3s1.3 3 3 3h58c1.7 0 3-1.3 3-3s-1.3-3-3-3zM1.5 37.5l13.8-13c.4-.4.4-1 0-1.4l-13.8-13c-.8-.7-1.5-.4-1.5.7v26.1c0 1.1.6 1.4 1.5.6z"/></svg>