<?xml version="1.0" encoding="utf-8"?>
<!-- Generator: Adobe Illustrator 21.0.0, SVG Export Plug-In . SVG Version: 6.00 Build 0)  -->
<svg version="1.1" id="Layer_1" xmlns="http://www.w3.org/2000/svg" xmlns:xlink="http://www.w3.org/1999/xlink" x="0px" y="0px"
	 viewBox="0 0 64 48" style="enable-background:new 0 0 64 48;" xml:space="preserve">
<style type="text/css">
	.st0{fill:#333333;}
</style>
<title>indent</title>
<desc>Created with Sketch.</desc>
<g>
	<path class="st0" d="M3,6h58c1.7,0,3-1.3,3-3s-1.3-3-3-3H3C1.3,0,0,1.3,0,3S1.3,6,3,6z"/>
	<path class="st0" d="M61,28H27c-1.7,0-3,1.3-3,3s1.3,3,3,3h34c1.7,0,3-1.3,3-3S62.7,28,61,28z"/>
	<path class="st0" d="M61,14H27c-1.7,0-3,1.3-3,3s1.3,3,3,3h34c1.7,0,3-1.3,3-3S62.7,14,61,14z"/>
	<path class="st0" d="M61,42H3c-1.7,0-3,1.3-3,3s1.3,3,3,3h58c1.7,0,3-1.3,3-3S62.7,42,61,42z"/>
	<path class="st0" d="M1.5,37.5l13.8-13c0.4-0.4,0.4-1,0-1.4l-13.8-13C0.7,9.4,0,9.7,0,10.8v26.1C0,38,0.6,38.3,1.5,37.5z"/>
</g>
</svg>
