<?xml version="1.0" encoding="utf-8"?>
<!-- Generator: Adobe Illustrator 21.0.0, SVG Export Plug-In . SVG Version: 6.00 Build 0)  -->
<svg version="1.1" id="Layer_1" xmlns="http://www.w3.org/2000/svg" xmlns:xlink="http://www.w3.org/1999/xlink" x="0px" y="0px"
	 viewBox="0 0 64 64" style="enable-background:new 0 0 64 64;" xml:space="preserve">
<style type="text/css">
	.st0{fill:#343434;}
</style>
<title>info</title>
<desc>Created with Sketch.</desc>
<g>
	<path class="st0" d="M32,0C14.3,0,0,14.3,0,32c0,17.7,14.3,32,32,32s32-14.3,32-32C64,14.3,49.7,0,32,0z M32,60
		C16.5,60,4,47.5,4,32S16.5,4,32,4s28,12.5,28,28S47.5,60,32,60z"/>
	<path class="st0" d="M34.1,43.5c-0.7,0.8-1.3,1.2-1.7,1.2c-0.2,0-0.3,0-0.5-0.1c-0.2-0.1-0.2-0.3-0.2-0.6c0-0.3,0.1-1.1,0.4-2.2
		c0.1-0.4,0.3-1.2,0.6-2.3l3.6-13.1l-2,0.4c-0.7,0.1-1.9,0.3-3.5,0.5c-1.7,0.2-2.9,0.3-3.8,0.4v1.2c1,0,1.7,0.1,2.1,0.3
		s0.6,0.5,0.6,1.1c0,0.1,0,0.2,0,0.3c0,0.1,0,0.2-0.1,0.4l-2.8,10.4c-0.2,0.8-0.4,1.4-0.5,1.8c-0.2,0.8-0.3,1.4-0.3,1.8
		c0,1.1,0.3,1.9,1,2.4s1.4,0.8,2.3,0.8c1.5,0,2.9-0.6,4.2-1.9c0.8-0.8,1.9-2.3,3.4-4.5l-1-0.7C35.4,41.9,34.7,42.7,34.1,43.5z"/>
	<path class="st0" d="M34.9,16c-0.9,0-1.6,0.3-2.2,0.9s-0.9,1.3-0.9,2.2c0,0.9,0.3,1.6,0.9,2.2s1.3,0.9,2.2,0.9
		c0.9,0,1.6-0.3,2.2-0.9s0.9-1.3,0.9-2.2c0-0.9-0.3-1.6-0.9-2.2S35.8,16,34.9,16z"/>
</g>
</svg>
