<svg xmlns="http://www.w3.org/2000/svg" viewBox="0 0 64 64" enable-background="new 0 0 64 64"><style type="text/css">.st0{fill:#343434;}</style><title>instagram</title><desc>Created with Sketch.</desc><path class="st0" d="M44.9 0h-25.8c-10.4 0-18.8 8.2-19.1 18.5v27c.3 10.3 8.7 18.5 19.1 18.5h25.9c10.4 0 19-8.6 19-19.1v-25.8c0-10.5-8.6-19.1-19.1-19.1zm12.7 44.9c0 7-5.7 12.6-12.6 12.6h-25.9c-7 0-12.6-5.7-12.6-12.6v-25.8c0-7 5.7-12.6 12.6-12.6h25.9c7 0 12.6 5.7 12.6 12.6v25.8zM32.5 16c-9.1 0-16.5 7.4-16.5 16.5s7.4 16.5 16.5 16.5 16.5-7.4 16.5-16.5-7.4-16.5-16.5-16.5zm0 26.6c-5.6 0-10.1-4.5-10.1-10.1s4.5-10.1 10.1-10.1 10.1 4.5 10.1 10.1-4.5 10.1-10.1 10.1z"/><circle class="st0" cx="47.5" cy="14.5" r="3.5"/></svg>