<svg xmlns="http://www.w3.org/2000/svg" viewBox="0 0 64 64" enable-background="new 0 0 64 64"><style type="text/css">.st0{fill:#343434;}</style><path class="st0" d="M61 0h-58c-1.7 0-3 1.3-3 3v58c0 1.7 1.3 3 3 3h58c1.7 0 3-1.3 3-3v-58c0-1.7-1.3-3-3-3zm-9 40.1c0 6.6-5.3 11.9-11.9 11.9h-16.2c-6.5 0-11.7-5.2-11.9-11.6v-16.8c.2-6.5 5.5-11.6 11.9-11.6h16.2c6.6 0 11.9 5.3 11.9 11.9v16.2zM40.1 16h-16.2c-4.4 0-7.9 3.5-7.9 7.9v16.2c0 4.4 3.5 7.9 7.9 7.9h16.2c4.4 0 7.9-3.5 7.9-7.9v-16.2c0-4.3-3.6-7.9-7.9-7.9zm-7.6 27c-5.8 0-10.5-4.7-10.5-10.5s4.7-10.5 10.5-10.5 10.5 4.7 10.5 10.5-4.7 10.5-10.5 10.5zm10-19c-1.4 0-2.5-1.1-2.5-2.5s1.1-2.5 2.5-2.5 2.5 1.1 2.5 2.5-1.1 2.5-2.5 2.5z"/><circle class="st0" cx="32.5" cy="32.5" r="6.4"/></svg>