<svg xmlns="http://www.w3.org/2000/svg" viewBox="0 0 64 64"><style>.st0{fill:#343434}</style><path class="st0" d="M32 0C14.3 0 0 14.3 0 32s14.3 32 32 32 32-14.3 32-32S49.7 0 32 0zm20 40.1C52 46.7 46.7 52 40.1 52H23.9c-6.5 0-11.7-5.2-11.9-11.6V23.6c.2-6.5 5.5-11.6 11.9-11.6h16.2C46.7 12 52 17.3 52 23.9v16.2zM40.1 16H23.9c-4.4 0-7.9 3.5-7.9 7.9v16.2c0 4.4 3.5 7.9 7.9 7.9h16.2c4.4 0 7.9-3.5 7.9-7.9V23.9c0-4.3-3.6-7.9-7.9-7.9zm-7.6 27C26.7 43 22 38.3 22 32.5S26.7 22 32.5 22 43 26.7 43 32.5 38.3 43 32.5 43zm10-19c-1.4 0-2.5-1.1-2.5-2.5s1.1-2.5 2.5-2.5 2.5 1.1 2.5 2.5-1.1 2.5-2.5 2.5z"/><circle class="st0" cx="32.5" cy="32.5" r="6.4"/></svg>