<?xml version="1.0" encoding="utf-8"?>
<!-- Generator: Adobe Illustrator 21.0.0, SVG Export Plug-In . SVG Version: 6.00 Build 0)  -->
<svg version="1.1" id="Layer_1" xmlns="http://www.w3.org/2000/svg" xmlns:xlink="http://www.w3.org/1999/xlink" x="0px" y="0px"
	 viewBox="0 0 64 64" style="enable-background:new 0 0 64 64;" xml:space="preserve">
<style type="text/css">
	.st0{fill:#343434;}
</style>
<title>instagram</title>
<desc>Created with Sketch.</desc>
<g>
	<path class="st0" d="M44.9,0H19.1C8.7,0,0.3,8.2,0,18.5v27C0.3,55.8,8.7,64,19.1,64h25.9C55.4,64,64,55.4,64,44.9V19.1
		C64,8.6,55.4,0,44.9,0z M57.6,44.9c0,7-5.7,12.6-12.6,12.6H19.1c-7,0-12.6-5.7-12.6-12.6V19.1c0-7,5.7-12.6,12.6-12.6h25.9
		c7,0,12.6,5.7,12.6,12.6V44.9z"/>
	<path class="st0" d="M32.5,16C23.4,16,16,23.4,16,32.5C16,41.6,23.4,49,32.5,49C41.6,49,49,41.6,49,32.5C49,23.4,41.6,16,32.5,16z
		 M32.5,42.6c-5.6,0-10.1-4.5-10.1-10.1c0-5.6,4.5-10.1,10.1-10.1c5.6,0,10.1,4.5,10.1,10.1C42.6,38.1,38.1,42.6,32.5,42.6z"/>
	<circle class="st0" cx="47.5" cy="14.5" r="3.5"/>
</g>
</svg>
