<?xml version="1.0" encoding="utf-8"?>
<!-- Generator: Adobe Illustrator 21.0.0, SVG Export Plug-In . SVG Version: 6.00 Build 0)  -->
<svg version="1.1" id="Layer_1" xmlns="http://www.w3.org/2000/svg" xmlns:xlink="http://www.w3.org/1999/xlink" x="0px" y="0px"
	 viewBox="0 0 37 64" style="enable-background:new 0 0 37 64;" xml:space="preserve">
<style type="text/css">
	.st0{fill:#343434;}
</style>
<title>italic</title>
<desc>Created with Sketch.</desc>
<path class="st0" d="M13.3,0l-0.6,2.7C13.8,3.1,14.9,3.6,16,4c1.1,0.4,2.2,0.7,3.4,1L8.2,59.2c-2.5,0.4-5.1,1.1-7.7,2.2L0,64h23
	l0.4-2.7c-0.9-0.5-1.9-0.9-3.1-1.3c-1.2-0.4-2.4-0.7-3.6-0.9L28.1,4.9c1.2-0.2,2.5-0.6,3.9-1c1.4-0.4,2.7-0.8,3.9-1.3L36.3,0H13.3z"
	/>
</svg>
