<svg xmlns="http://www.w3.org/2000/svg" viewBox="0 0 65 44" enable-background="new 0 0 65 44"><style type="text/css">.st0{fill:#343434;}</style><path class="st0" d="M56.6 19.9l.1-1.4c-.1-10.2-8.4-18.5-18.6-18.5-7.5 0-13.9 4.4-16.9 10.8-1.6-1.1-3.5-1.8-5.5-1.8-5.2 0-9.5 4.2-9.5 9.5 0 .8.1 1.5.3 2.3-3.9 2.1-6.5 6.1-6.5 10.8 0 6.9 5.6 12.4 12.4 12.4h40.1c6.9 0 12.5-5.5 12.5-12.4 0-5.4-3.5-10-8.4-11.7zm-.8 10.6c-.4 4.5-3.5 9.3-11 9.3-5.7 0-11.1-6-13.4-9.3 0 0-4.4-6.8-9.3-6.6-4.7.2-6 2.7-6.2 4.9-.2 2.2 1.1 4.4 3.1 5.5 2.6 1.3 5.8.5 9-2.3l3.2 3.7c-3.1 2.7-6.5 4.1-9.6 4.1-1.7 0-3.3-.4-4.8-1.2-3.8-2-6.1-6.1-5.7-10.3.4-4.5 3.5-9.3 11-9.3 6.7 0 11.4 6.1 12.9 8.2 2.5 3.5 7 7.7 9.7 7.7 4.7 0 6-2.7 6.2-4.9.2-2.2-1.1-4.5-3.1-5.6-2.6-1.3-5.8-.5-9 2.3l-3.2-3.7c4.8-4.1 10-5.2 14.4-2.9 3.9 2 6.2 6.2 5.8 10.4z"/></svg>