<?xml version="1.0" encoding="utf-8"?>
<!-- Generator: Adobe Illustrator 21.0.0, SVG Export Plug-In . SVG Version: 6.00 Build 0)  -->
<svg version="1.1" id="Layer_1" xmlns="http://www.w3.org/2000/svg" xmlns:xlink="http://www.w3.org/1999/xlink" x="0px" y="0px"
	 viewBox="0 0 65 44" style="enable-background:new 0 0 65 44;" xml:space="preserve">
<style type="text/css">
	.st0{fill:#343434;}
</style>
<path class="st0" d="M56.6,19.9c0-0.5,0.1-0.9,0.1-1.4C56.6,8.3,48.3,0,38.1,0c-7.5,0-13.9,4.4-16.9,10.8C19.6,9.7,17.7,9,15.7,9
	c-5.2,0-9.5,4.2-9.5,9.5c0,0.8,0.1,1.5,0.3,2.3C2.6,22.9,0,26.9,0,31.6C0,38.5,5.6,44,12.4,44h40.1C59.4,44,65,38.5,65,31.6
	C65,26.2,61.5,21.6,56.6,19.9z M55.8,30.5c-0.4,4.5-3.5,9.3-11,9.3c-5.7,0-11.1-6-13.4-9.3c0,0-4.4-6.8-9.3-6.6
	c-4.7,0.2-6,2.7-6.2,4.9C15.7,31,17,33.2,19,34.3c2.6,1.3,5.8,0.5,9-2.3l3.2,3.7c-3.1,2.7-6.5,4.1-9.6,4.1c-1.7,0-3.3-0.4-4.8-1.2
	c-3.8-2-6.1-6.1-5.7-10.3c0.4-4.5,3.5-9.3,11-9.3c6.7,0,11.4,6.1,12.9,8.2c2.5,3.5,7,7.7,9.7,7.7c4.7,0,6-2.7,6.2-4.9
	c0.2-2.2-1.1-4.5-3.1-5.6c-2.6-1.3-5.8-0.5-9,2.3l-3.2-3.7c4.8-4.1,10-5.2,14.4-2.9C53.9,22.1,56.2,26.3,55.8,30.5z"/>
</svg>
