<?xml version="1.0" encoding="utf-8"?>
<!-- Generator: Adobe Illustrator 21.0.0, SVG Export Plug-In . SVG Version: 6.00 Build 0)  -->
<svg version="1.1" id="Layer_1" xmlns="http://www.w3.org/2000/svg" xmlns:xlink="http://www.w3.org/1999/xlink" x="0px" y="0px"
	 viewBox="0 0 58 62" style="enable-background:new 0 0 58 62;" xml:space="preserve">
<style type="text/css">
	.st0{fill:#343434;}
</style>
<title>key</title>
<desc>Created with Sketch.</desc>
<path class="st0" d="M52.7,5.9c-7-7-18.4-7-25.5,0c-6.3,6.3-6.9,16.1-1.9,23.2c-0.1,0.1-0.1,0.1-0.2,0.2l-24,24
	c-1.2,1.2-1.2,3.1,0,4.2c1.2,1.2,3.1,1.2,4.2,0l2.8,2.8c1.2,1.2,3.1,1.2,4.2,0c1.2-1.2,1.2-3.1,0-4.2l-2.8-2.8l2.8-2.8l4.2,4.2
	c1.2,1.2,3.1,1.2,4.2,0c1.2-1.2,1.2-3.1,0-4.2l-4.2-4.2l12.7-12.7c0.1-0.1,0.1-0.1,0.2-0.2c7,5,16.9,4.4,23.2-1.9
	C59.7,24.3,59.7,12.9,52.7,5.9z M49.1,27.8c-5.1,5.1-13.3,5.1-18.4,0c-5.1-5.1-5.1-13.3,0-18.4c5.1-5.1,13.3-5.1,18.4,0
	C54.2,14.5,54.2,22.7,49.1,27.8z"/>
</svg>
