<svg xmlns="http://www.w3.org/2000/svg" viewBox="0 0 58 62"><path d="M52.7 5.9c-7-7-18.4-7-25.5 0-6.3 6.3-6.9 16.1-1.9 23.2l-.2.2-24 24c-1.2 1.2-1.2 3.1 0 4.2 1.2 1.2 3.1 1.2 4.2 0l2.8 2.8c1.2 1.2 3.1 1.2 4.2 0 1.2-1.2 1.2-3.1 0-4.2l-2.8-2.8 2.8-2.8 4.2 4.2c1.2 1.2 3.1 1.2 4.2 0 1.2-1.2 1.2-3.1 0-4.2l-4.2-4.2 12.7-12.7.2-.2c7 5 16.9 4.4 23.2-1.9 7.1-7.2 7.1-18.6.1-25.6zm-3.6 21.9c-5.1 5.1-13.3 5.1-18.4 0-5.1-5.1-5.1-13.3 0-18.4 5.1-5.1 13.3-5.1 18.4 0 5.1 5.1 5.1 13.3 0 18.4z" fill="#343434"/></svg>