<?xml version="1.0" encoding="utf-8"?>
<!-- Generator: Adobe Illustrator 21.0.0, SVG Export Plug-In . SVG Version: 6.00 Build 0)  -->
<svg version="1.1" id="Layer_1" xmlns="http://www.w3.org/2000/svg" xmlns:xlink="http://www.w3.org/1999/xlink" x="0px" y="0px"
	 viewBox="0 0 64 32" style="enable-background:new 0 0 64 32;" xml:space="preserve">
<style type="text/css">
	.st0{fill:#333333;}
</style>
<title>keyboard</title>
<desc>Created with Sketch.</desc>
<g>
	<path class="st0" d="M59,0H5C2.2,0,0,2.2,0,5v22c0,2.8,2.2,5,5,5h54c2.8,0,5-2.2,5-5V5C64,2.2,61.8,0,59,0z M60,27c0,0.6-0.4,1-1,1
		H5c-0.5,0-1-0.4-1-1V5c0-0.6,0.4-1,1-1h54c0.5,0,1,0.4,1,1V27z"/>
	<path class="st0" d="M17,11h2c0.6,0,1-0.5,1-1V8c0-0.6-0.5-1-1-1h-2c-0.6,0-1,0.5-1,1v2C16,10.6,16.5,11,17,11z"/>
	<path class="st0" d="M24,11h2c0.6,0,1-0.5,1-1V8c0-0.6-0.5-1-1-1h-2c-0.6,0-1,0.5-1,1v2C23,10.6,23.5,11,24,11z"/>
	<path class="st0" d="M10,11h2c0.6,0,1-0.5,1-1V8c0-0.6-0.5-1-1-1h-2C9.4,7,9,7.5,9,8v2C9,10.6,9.5,11,10,11z"/>
	<path class="st0" d="M27,17c0,0.6,0.5,1,1,1h2c0.6,0,1-0.5,1-1v-2c0-0.6-0.5-1-1-1h-2c-0.6,0-1,0.5-1,1V17z"/>
	<path class="st0" d="M31,11h2c0.6,0,1-0.5,1-1V8c0-0.6-0.5-1-1-1h-2c-0.6,0-1,0.5-1,1v2C30,10.6,30.5,11,31,11z"/>
	<path class="st0" d="M54,7h-2c-0.6,0-1,0.5-1,1v2c0,0.6,0.5,1,1,1h2c0.6,0,1-0.5,1-1V8C55,7.4,54.5,7,54,7z"/>
	<path class="st0" d="M38,11h2c0.6,0,1-0.5,1-1V8c0-0.6-0.5-1-1-1h-2c-0.6,0-1,0.5-1,1v2C37,10.6,37.5,11,38,11z"/>
	<path class="st0" d="M12,21h-2c-0.6,0-1,0.5-1,1v2c0,0.6,0.5,1,1,1h2c0.6,0,1-0.5,1-1v-2C13,21.4,12.5,21,12,21z"/>
	<path class="st0" d="M34,17c0,0.6,0.5,1,1,1h2c0.6,0,1-0.5,1-1v-2c0-0.6-0.5-1-1-1h-2c-0.6,0-1,0.5-1,1V17z"/>
	<path class="st0" d="M45,11h2c0.6,0,1-0.5,1-1V8c0-0.6-0.5-1-1-1h-2c-0.6,0-1,0.5-1,1v2C44,10.6,44.5,11,45,11z"/>
	<path class="st0" d="M17,17v-2c0-0.6-0.5-1-1-1h-2c-0.6,0-1,0.5-1,1v2c0,0.6,0.5,1,1,1h2C16.6,18,17,17.5,17,17z"/>
	<path class="st0" d="M47,21h-2c-0.6,0-1,0.5-1,1v2c0,0.6,0.5,1,1,1h2c0.6,0,1-0.5,1-1v-2C48,21.4,47.5,21,47,21z"/>
	<path class="st0" d="M52,17v-2c0-0.6-0.5-1-1-1h-2c-0.6,0-1,0.5-1,1v2c0,0.6,0.5,1,1,1h2C51.6,18,52,17.5,52,17z"/>
	<path class="st0" d="M54,21h-2c-0.6,0-1,0.5-1,1v2c0,0.6,0.5,1,1,1h2c0.6,0,1-0.5,1-1v-2C55,21.4,54.5,21,54,21z"/>
	<path class="st0" d="M45,17v-2c0-0.6-0.5-1-1-1h-2c-0.6,0-1,0.5-1,1v2c0,0.6,0.5,1,1,1h2C44.6,18,45,17.5,45,17z"/>
	<path class="st0" d="M19,21h-2c-0.6,0-1,0.5-1,1v2c0,0.6,0.5,1,1,1h2c0.6,0,1-0.5,1-1v-2C20,21.4,19.5,21,19,21z"/>
	<path class="st0" d="M24,17v-2c0-0.6-0.5-1-1-1h-2c-0.6,0-1,0.5-1,1v2c0,0.6,0.5,1,1,1h2C23.6,18,24,17.5,24,17z"/>
	<path class="st0" d="M40,21H24c-0.5,0-1,0.5-1,1v2c0,0.6,0.4,1,1,1h16c0.5,0,1-0.5,1-1v-2C41,21.4,40.6,21,40,21z"/>
</g>
</svg>
