<svg xmlns="http://www.w3.org/2000/svg" viewBox="0 0 64 32" enable-background="new 0 0 64 32"><style type="text/css">.st0{fill:#333333;}</style><title>keyboard</title><desc>Created with Sketch.</desc><path class="st0" d="M59 0h-54c-2.8 0-5 2.2-5 5v22c0 2.8 2.2 5 5 5h54c2.8 0 5-2.2 5-5v-22c0-2.8-2.2-5-5-5zm1 27c0 .6-.4 1-1 1h-54c-.5 0-1-.4-1-1v-22c0-.6.4-1 1-1h54c.5 0 1 .4 1 1v22zM17 11h2c.6 0 1-.5 1-1v-2c0-.6-.5-1-1-1h-2c-.6 0-1 .5-1 1v2c0 .6.5 1 1 1zM24 11h2c.6 0 1-.5 1-1v-2c0-.6-.5-1-1-1h-2c-.6 0-1 .5-1 1v2c0 .6.5 1 1 1zM10 11h2c.6 0 1-.5 1-1v-2c0-.6-.5-1-1-1h-2c-.6 0-1 .5-1 1v2c0 .6.5 1 1 1zM27 17c0 .6.5 1 1 1h2c.6 0 1-.5 1-1v-2c0-.6-.5-1-1-1h-2c-.6 0-1 .5-1 1v2zM31 11h2c.6 0 1-.5 1-1v-2c0-.6-.5-1-1-1h-2c-.6 0-1 .5-1 1v2c0 .6.5 1 1 1zM54 7h-2c-.6 0-1 .5-1 1v2c0 .6.5 1 1 1h2c.6 0 1-.5 1-1v-2c0-.6-.5-1-1-1zM38 11h2c.6 0 1-.5 1-1v-2c0-.6-.5-1-1-1h-2c-.6 0-1 .5-1 1v2c0 .6.5 1 1 1zM12 21h-2c-.6 0-1 .5-1 1v2c0 .6.5 1 1 1h2c.6 0 1-.5 1-1v-2c0-.6-.5-1-1-1zM34 17c0 .6.5 1 1 1h2c.6 0 1-.5 1-1v-2c0-.6-.5-1-1-1h-2c-.6 0-1 .5-1 1v2zM45 11h2c.6 0 1-.5 1-1v-2c0-.6-.5-1-1-1h-2c-.6 0-1 .5-1 1v2c0 .6.5 1 1 1zM17 17v-2c0-.6-.5-1-1-1h-2c-.6 0-1 .5-1 1v2c0 .6.5 1 1 1h2c.6 0 1-.5 1-1zM47 21h-2c-.6 0-1 .5-1 1v2c0 .6.5 1 1 1h2c.6 0 1-.5 1-1v-2c0-.6-.5-1-1-1zM52 17v-2c0-.6-.5-1-1-1h-2c-.6 0-1 .5-1 1v2c0 .6.5 1 1 1h2c.6 0 1-.5 1-1zM54 21h-2c-.6 0-1 .5-1 1v2c0 .6.5 1 1 1h2c.6 0 1-.5 1-1v-2c0-.6-.5-1-1-1zM45 17v-2c0-.6-.5-1-1-1h-2c-.6 0-1 .5-1 1v2c0 .6.5 1 1 1h2c.6 0 1-.5 1-1zM19 21h-2c-.6 0-1 .5-1 1v2c0 .6.5 1 1 1h2c.6 0 1-.5 1-1v-2c0-.6-.5-1-1-1zM24 17v-2c0-.6-.5-1-1-1h-2c-.6 0-1 .5-1 1v2c0 .6.5 1 1 1h2c.6 0 1-.5 1-1zM40 21h-16c-.5 0-1 .5-1 1v2c0 .6.4 1 1 1h16c.5 0 1-.5 1-1v-2c0-.6-.4-1-1-1z"/></svg>