<?xml version="1.0" encoding="utf-8"?>
<!-- Generator: Adobe Illustrator 21.0.0, SVG Export Plug-In . SVG Version: 6.00 Build 0)  -->
<svg version="1.1" id="Layer_1" xmlns="http://www.w3.org/2000/svg" xmlns:xlink="http://www.w3.org/1999/xlink" x="0px" y="0px"
	 viewBox="0 0 61 56" style="enable-background:new 0 0 61 56;" xml:space="preserve">
<style type="text/css">
	.st0{fill:#343434;}
</style>
<title>language</title>
<desc>Created with Sketch.</desc>
<g>
	<path class="st0" d="M30.4,9.2H0v4.5h27c-1.7,4.2-4.1,7.7-7.2,10.2c-3.3,2.7-7.8,4.8-13.6,6.2l2.5,4.3c7-1.8,12.4-4.6,16.3-8.5
		c3.3-3.4,6-8.4,8-14.7L30.4,9.2z"/>
	<rect x="3.7" y="0" class="st0" width="24.8" height="4.5"/>
	<path class="st0" d="M46.9,21h-6.5L27,56h6.1l3.2-8.8H51l3.2,8.8h6.1L46.9,21z M38,42.5l5.5-15.3h0.2l5.5,15.3H38z"/>
</g>
</svg>
