<?xml version="1.0" encoding="utf-8"?>
<!-- Generator: Adobe Illustrator 21.0.0, SVG Export Plug-In . SVG Version: 6.00 Build 0)  -->
<svg version="1.1" id="Layer_1" xmlns="http://www.w3.org/2000/svg" xmlns:xlink="http://www.w3.org/1999/xlink" x="0px" y="0px"
	 viewBox="0 0 58 64" style="enable-background:new 0 0 58 64;" xml:space="preserve">
<style type="text/css">
	.st0{fill:#343434;}
</style>
<title>levels</title>
<desc>Created with Sketch.</desc>
<g>
	<path class="st0" d="M8,6V3c0-1.7-1.3-3-3-3S2,1.3,2,3v3C0.9,6,0,6.9,0,8v8c0,1.1,0.9,2,2,2v43c0,1.7,1.3,3,3,3s3-1.3,3-3V18
		c1.1,0,2-0.9,2-2V8C10,6.9,9.1,6,8,6z"/>
	<path class="st0" d="M24,48V3c0-1.7-1.3-3-3-3s-3,1.3-3,3v45c-1.1,0-2,0.9-2,2v8c0,1.1,0.9,2,2,2v1c0,1.7,1.3,3,3,3s3-1.3,3-3v-1
		c1.1,0,2-0.9,2-2v-8C26,48.9,25.1,48,24,48z"/>
	<path class="st0" d="M40,22V3c0-1.7-1.3-3-3-3s-3,1.3-3,3v19c-1.1,0-2,0.9-2,2v8c0,1.1,0.9,2,2,2v27c0,1.7,1.3,3,3,3s3-1.3,3-3V34
		c1.1,0,2-0.9,2-2v-8C42,22.9,41.1,22,40,22z"/>
	<path class="st0" d="M56,36V3c0-1.7-1.3-3-3-3s-3,1.3-3,3v33c-1.1,0-2,0.9-2,2v8c0,1.1,0.9,2,2,2v13c0,1.7,1.3,3,3,3s3-1.3,3-3V48
		c1.1,0,2-0.9,2-2v-8C58,36.9,57.1,36,56,36z"/>
</g>
</svg>
