<svg xmlns="http://www.w3.org/2000/svg" viewBox="0 0 58 64" enable-background="new 0 0 58 64"><style type="text/css">.st0{fill:#343434;}</style><title>levels</title><desc>Created with Sketch.</desc><path class="st0" d="M8 6v-3c0-1.7-1.3-3-3-3s-3 1.3-3 3v3c-1.1 0-2 .9-2 2v8c0 1.1.9 2 2 2v43c0 1.7 1.3 3 3 3s3-1.3 3-3v-43c1.1 0 2-.9 2-2v-8c0-1.1-.9-2-2-2zM24 48v-45c0-1.7-1.3-3-3-3s-3 1.3-3 3v45c-1.1 0-2 .9-2 2v8c0 1.1.9 2 2 2v1c0 1.7 1.3 3 3 3s3-1.3 3-3v-1c1.1 0 2-.9 2-2v-8c0-1.1-.9-2-2-2zM40 22v-19c0-1.7-1.3-3-3-3s-3 1.3-3 3v19c-1.1 0-2 .9-2 2v8c0 1.1.9 2 2 2v27c0 1.7 1.3 3 3 3s3-1.3 3-3v-27c1.1 0 2-.9 2-2v-8c0-1.1-.9-2-2-2zM56 36v-33c0-1.7-1.3-3-3-3s-3 1.3-3 3v33c-1.1 0-2 .9-2 2v8c0 1.1.9 2 2 2v13c0 1.7 1.3 3 3 3s3-1.3 3-3v-13c1.1 0 2-.9 2-2v-8c0-1.1-.9-2-2-2z"/></svg>