<?xml version="1.0" encoding="utf-8"?>
<!-- Generator: Adobe Illustrator 21.0.0, SVG Export Plug-In . SVG Version: 6.00 Build 0)  -->
<svg version="1.1" id="Layer_1" xmlns="http://www.w3.org/2000/svg" xmlns:xlink="http://www.w3.org/1999/xlink" x="0px" y="0px"
	 viewBox="0 0 64 64" style="enable-background:new 0 0 64 64;" xml:space="preserve">
<style type="text/css">
	.st0{fill:#343434;}
</style>
<title>life-bouy</title>
<desc>Created with Sketch.</desc>
<path class="st0" d="M32,0C14.3,0,0,14.3,0,32s14.3,32,32,32s32-14.3,32-32S49.7,0,32,0z M44.6,7C50,9.7,54.3,14,57,19.4L48.6,25
	c-1.8-4.3-5.3-7.7-9.5-9.5L44.6,7z M19.4,7l5.6,8.4c-4.3,1.8-7.7,5.2-9.5,9.5L7,19.3C9.7,14,14.1,9.7,19.4,7z M19.3,57
	C14,54.3,9.7,50,7,44.7l8.4-5.6c1.8,4.3,5.2,7.7,9.5,9.5L19.3,57z M18,32c0-7.7,6.3-14,14-14s14,6.3,14,14s-6.3,14-14,14
	S18,39.7,18,32z M44.7,57L39,48.6c4.3-1.8,7.7-5.3,9.5-9.5l8.4,5.6C54.3,49.9,50,54.3,44.7,57z"/>
</svg>
