<?xml version="1.0" encoding="utf-8"?>
<!-- Generator: Adobe Illustrator 21.0.0, SVG Export Plug-In . SVG Version: 6.00 Build 0)  -->
<svg version="1.1" id="Layer_1" xmlns="http://www.w3.org/2000/svg" xmlns:xlink="http://www.w3.org/1999/xlink" x="0px" y="0px"
	 viewBox="0 0 64 61" style="enable-background:new 0 0 64 61;" xml:space="preserve">
<style type="text/css">
	.st0{fill:#343434;}
</style>
<g>
	<rect y="20" class="st0" width="14" height="41"/>
	<path class="st0" d="M59.7,23.7c-2.9-3.1-6.7-4.7-11.5-4.7c-1.8,0-3.3,0.2-4.8,0.6c-1.4,0.4-2.6,1-3.6,1.8c-1,0.8-1.8,1.5-2.4,2.2
		c-0.6,0.6-1.1,1.4-1.6,2.2V20H22l0,2c0,1.3,0,5.4,0,12.3c0,6.8,0,15.8-0.1,26.8h13.8V38.1c0-1.4,0.2-2.5,0.5-3.4
		c0.6-1.4,1.5-2.6,2.7-3.5c1.2-1,2.7-1.4,4.4-1.4c2.4,0,4.2,0.8,5.3,2.5c1.1,1.6,1.7,3.9,1.7,6.8v22H64V37.5
		C64,31.4,62.6,26.8,59.7,23.7z"/>
	<path class="st0" d="M6.9,14L6.9,14c2.2,0,3.9-0.7,5.2-2c1.3-1.3,1.9-3,1.9-5c0-2-0.7-3.7-1.9-5c-1.3-1.3-2.9-2-5-2
		C4.9,0,3.2,0.7,1.9,2C0.6,3.3,0,5,0,7c0,2,0.6,3.7,1.9,5C3.2,13.3,4.8,14,6.9,14z"/>
</g>
</svg>
