<?xml version="1.0" encoding="utf-8"?>
<!-- Generator: Adobe Illustrator 21.0.0, SVG Export Plug-In . SVG Version: 6.00 Build 0)  -->
<svg version="1.1" id="Layer_1" xmlns="http://www.w3.org/2000/svg" xmlns:xlink="http://www.w3.org/1999/xlink" x="0px" y="0px"
	 viewBox="0 0 64 64" style="enable-background:new 0 0 64 64;" xml:space="preserve">
<style type="text/css">
	.st0{fill:#343434;}
</style>
<g id="Page-1">
	<g id="Social-icons-_x28_65_x29_" transform="translate(-704.000000, -320.000000)">
		<g id="linkedin-square" transform="translate(704.000000, 320.000000)">
			<path id="Combined-Shape" class="st0" d="M0,4c0-2.2,1.8-4,4-4h56c2.2,0,4,1.8,4,4v56c0,2.2-1.8,4-4,4H4c-2.2,0-4-1.8-4-4V4z
				 M16,47h7V26h-7V47z M46.7,28.4c-1.5-1.6-3.5-2.4-6-2.4c-0.9,0-1.8,0.1-2.5,0.3c-0.8,0.2-1.4,0.5-1.9,0.9
				c-0.5,0.4-0.9,0.7-1.2,1.1c-0.3,0.3-0.6,0.7-0.9,1.1v-2.9H27l0,1c0,0.7,0,2.7,0,6.1s0,7.9,0,13.4h7.2V35.5c0-0.7,0.1-1.3,0.2-1.7
				c0.3-0.7,0.8-1.3,1.4-1.8c0.6-0.5,1.4-0.7,2.3-0.7c1.3,0,2.2,0.4,2.8,1.2c0.6,0.8,0.9,2,0.9,3.4v11H49V35.2
				C49,32.2,48.2,29.9,46.7,28.4z M19.5,16c-1,0-1.9,0.3-2.5,1c-0.6,0.7-1,1.5-1,2.5c0,1,0.3,1.8,0.9,2.5c0.6,0.7,1.5,1,2.5,1h0
				c1.1,0,1.9-0.3,2.6-1c0.6-0.7,1-1.5,1-2.5c0-1-0.3-1.8-1-2.5C21.4,16.3,20.6,16,19.5,16z"/>
		</g>
	</g>
</g>
</svg>
