<?xml version="1.0" encoding="utf-8"?>
<!-- Generator: Adobe Illustrator 21.0.0, SVG Export Plug-In . SVG Version: 6.00 Build 0)  -->
<svg version="1.1" id="Layer_1" xmlns="http://www.w3.org/2000/svg" xmlns:xlink="http://www.w3.org/1999/xlink" x="0px" y="0px"
	 viewBox="0 0 64 64" style="enable-background:new 0 0 64 64;" xml:space="preserve">
<style type="text/css">
	.st0{fill:#343434;}
</style>
<title>linkedin-circle</title>
<desc>Created with Sketch.</desc>
<path class="st0" d="M32,0C14.3,0,0,14.3,0,32c0,17.7,14.3,32,32,32s32-14.3,32-32C64,14.3,49.7,0,32,0z M17,17c0.6-0.7,1.5-1,2.5-1
	c1,0,1.9,0.3,2.5,1c0.6,0.7,1,1.5,1,2.5c0,1-0.3,1.8-1,2.5c-0.6,0.7-1.5,1-2.6,1h0c-1,0-1.9-0.3-2.5-1c-0.6-0.7-0.9-1.5-0.9-2.5
	C16,18.5,16.3,17.7,17,17z M23,47h-7V26h7V47z M49,47h-7.2V36c0-1.4-0.3-2.6-0.9-3.4c-0.6-0.8-1.5-1.2-2.8-1.2
	c-0.9,0-1.7,0.2-2.3,0.7c-0.6,0.5-1.1,1.1-1.4,1.8c-0.2,0.4-0.2,1-0.2,1.7V47H27c0-5.5,0-10,0-13.4c0-3.4,0-5.5,0-6.1l0-1h7.2v2.9
	c0.3-0.4,0.6-0.8,0.9-1.1c0.3-0.3,0.7-0.7,1.2-1.1c0.5-0.4,1.2-0.7,1.9-0.9c0.8-0.2,1.6-0.3,2.5-0.3c2.5,0,4.5,0.8,6,2.4
	c1.5,1.6,2.3,3.9,2.3,6.9V47z"/>
</svg>
