<svg xmlns="http://www.w3.org/2000/svg" viewBox="0 0 65 65"><path d="M60.8 4.2c-5.1-5.1-13.3-5.1-18.4 0L28.9 17.6l4.2 4.2L46.6 8.4c2.7-2.7 7.2-2.7 9.9 0s2.7 7.2 0 9.9L41 33.9c-2.7 2.7-7.2 2.7-9.9 0-.5-.5-.9-1-1.2-1.6l-4.3 4.3c.4.5.8 1 1.3 1.5 5.1 5.1 13.3 5.1 18.4 0l15.5-15.5c5-5.1 5-13.3 0-18.4zM33.1 44.6l-.1-.4-1.2-1.2-13.5 13.5c-2.7 2.7-7.2 2.7-9.9 0s-2.7-7.2 0-9.9L24 31.1c2.7-2.7 7.2-2.7 9.9 0 .8.8 1.3 1.6 1.6 2.6l4.5-4.5c-.5-.8-1.1-1.6-1.9-2.4-5.1-5.1-13.3-5.1-18.4 0L4.2 42.4c-5.1 5.1-5.1 13.3 0 18.4s13.3 5.1 18.4 0L36 47.3l-2.8-2.8-.1.1z" fill="#343434"/></svg>