<svg xmlns="http://www.w3.org/2000/svg" viewBox="0 0 64 64" enable-background="new 0 0 64 64"><style type="text/css">.st0{fill:#343434;}</style><title>linkedin-circle</title><desc>Created with Sketch.</desc><path class="st0" d="M32 0c-17.7 0-32 14.3-32 32s14.3 32 32 32 32-14.3 32-32-14.3-32-32-32zm-15 17c.6-.7 1.5-1 2.5-1s1.9.3 2.5 1c.6.7 1 1.5 1 2.5s-.3 1.8-1 2.5c-.6.7-1.5 1-2.6 1-1 0-1.9-.3-2.5-1-.6-.7-.9-1.5-.9-2.5s.3-1.8 1-2.5zm6 30h-7v-21h7v21zm26 0h-7.2v-11c0-1.4-.3-2.6-.9-3.4-.6-.8-1.5-1.2-2.8-1.2-.9 0-1.7.2-2.3.7-.6.5-1.1 1.1-1.4 1.8-.2.4-.2 1-.2 1.7v11.4h-7.2v-20.5h7.2v2.9c.3-.4.6-.8.9-1.1.3-.3.7-.7 1.2-1.1.5-.4 1.2-.7 1.9-.9.8-.2 1.6-.3 2.5-.3 2.5 0 4.5.8 6 2.4 1.5 1.6 2.3 3.9 2.3 6.9v11.7z"/></svg>