<svg xmlns="http://www.w3.org/2000/svg" viewBox="0 0 64 64"><path d="M0 4c0-2.2 1.8-4 4-4h56c2.2 0 4 1.8 4 4v56c0 2.2-1.8 4-4 4H4c-2.2 0-4-1.8-4-4V4zm16 43h7V26h-7v21zm30.7-18.6c-1.5-1.6-3.5-2.4-6-2.4-.9 0-1.8.1-2.5.3-.8.2-1.4.5-1.9.9s-.9.7-1.2 1.1c-.3.3-.6.7-.9 1.1v-2.9H27V47h7.2V35.5c0-.7.1-1.3.2-1.7.3-.7.8-1.3 1.4-1.8.6-.5 1.4-.7 2.3-.7 1.3 0 2.2.4 2.8 1.2.6.8.9 2 .9 3.4v11H49V35.2c0-3-.8-5.3-2.3-6.8zM19.5 16c-1 0-1.9.3-2.5 1-.6.7-1 1.5-1 2.5s.3 1.8.9 2.5c.6.7 1.5 1 2.5 1 1.1 0 1.9-.3 2.6-1 .6-.7 1-1.5 1-2.5s-.3-1.8-1-2.5c-.6-.7-1.4-1-2.5-1z" fill="#343434"/></svg>