<?xml version="1.0" encoding="utf-8"?>
<!-- Generator: Adobe Illustrator 21.0.0, SVG Export Plug-In . SVG Version: 6.00 Build 0)  -->
<svg version="1.1" id="Layer_1" xmlns="http://www.w3.org/2000/svg" xmlns:xlink="http://www.w3.org/1999/xlink" x="0px" y="0px"
	 viewBox="0 0 64 58" style="enable-background:new 0 0 64 58;" xml:space="preserve">
<style type="text/css">
	.st0{fill:#343434;}
</style>
<title>luggage</title>
<desc>Created with Sketch.</desc>
<path class="st0" d="M50,10h-8V7c0-3.9-3.1-7-7-7h-6c-3.9,0-7,3.1-7,7v3h-8C6.3,10,0,16.3,0,24v20c0,7.7,6.3,14,14,14h36
	c7.7,0,14-6.3,14-14V24C64,16.3,57.7,10,50,10z M26,7c0-1.7,1.3-3,3-3h6c1.7,0,3,1.3,3,3v3H26V7z M42,14h4v40H18V14h4H42z M4,44V24
	c0-5.5,4.5-10,10-10v40C8.5,54,4,49.5,4,44z M60,44c0,5.5-4.5,10-10,10V14c5.5,0,10,4.5,10,10V44z"/>
</svg>
