<svg xmlns="http://www.w3.org/2000/svg" viewBox="0 0 63 63" enable-background="new 0 0 63 63"><style type="text/css">.st0{fill:#333333;}</style><title>magic</title><desc>Created with Sketch.</desc><path class="st0" d="M43.2 16c-.8-.8-2-.8-2.8 0l-39.7 39.6c-.8.8-.8 2 0 2.8l3.6 3.6c.8.8 2 .8 2.8 0l39.6-39.6c.8-.8.8-2 0-2.8l-3.5-3.6zm-37.5 43.2l-2.1-2.1 29-29 2.1 2.1-29 29zm31.1-31.1l-2.1-2.1 7.1-7.1 2.1 2.1-7.1 7.1zM46.672 13.958l8.485-8.485 1.414 1.414-8.485 8.485zM26.873 6.889l1.414-1.414 8.485 8.485-1.414 1.414zM41.1 29.1h2v12h-2zM41.1.1h2v12h-2zM50.6 19.6h12v2h-12zM21.6 19.6h12v2h-12zM47.37 27.395l1.414-1.414 8.485 8.485-1.414 1.414z"/></svg>