<?xml version="1.0" encoding="utf-8"?>
<!-- Generator: Adobe Illustrator 21.0.0, SVG Export Plug-In . SVG Version: 6.00 Build 0)  -->
<svg version="1.1" id="Layer_1" xmlns="http://www.w3.org/2000/svg" xmlns:xlink="http://www.w3.org/1999/xlink" x="0px" y="0px"
	 viewBox="0 0 63 63" style="enable-background:new 0 0 63 63;" xml:space="preserve">
<style type="text/css">
	.st0{fill:#333333;}
</style>
<title>magic</title>
<desc>Created with Sketch.</desc>
<g>
	<path class="st0" d="M43.2,16c-0.8-0.8-2-0.8-2.8,0L0.7,55.6c-0.8,0.8-0.8,2,0,2.8L4.3,62c0.8,0.8,2,0.8,2.8,0l39.6-39.6
		c0.8-0.8,0.8-2,0-2.8L43.2,16z M5.7,59.2l-2.1-2.1l29-29l2.1,2.1L5.7,59.2z M36.8,28.1l-2.1-2.1l7.1-7.1l2.1,2.1L36.8,28.1z"/>
	<rect x="45.6" y="9.4" transform="matrix(0.7071 -0.7071 0.7071 0.7071 7.7812 39.5555)" class="st0" width="12" height="2"/>
	<rect x="30.8" y="4.4" transform="matrix(0.7071 -0.7071 0.7071 0.7071 1.9828 25.5564)" class="st0" width="2" height="12"/>
	<rect x="41.1" y="29.1" class="st0" width="2" height="12"/>
	<rect x="41.1" y="0.1" class="st0" width="2" height="12"/>
	<rect x="50.6" y="19.6" class="st0" width="12" height="2"/>
	<rect x="21.6" y="19.6" class="st0" width="12" height="2"/>
	<rect x="51.3" y="24.9" transform="matrix(0.7071 -0.7071 0.7071 0.7071 -6.511 46.0627)" class="st0" width="2" height="12"/>
</g>
</svg>
