<?xml version="1.0" encoding="utf-8"?>
<!-- Generator: Adobe Illustrator 21.0.0, SVG Export Plug-In . SVG Version: 6.00 Build 0)  -->
<svg version="1.1" id="Layer_1" xmlns="http://www.w3.org/2000/svg" xmlns:xlink="http://www.w3.org/1999/xlink" x="0px" y="0px"
	 viewBox="0 0 56 64" style="enable-background:new 0 0 56 64;" xml:space="preserve">
<style type="text/css">
	.st0{fill:#343434;}
</style>
<title>magnet</title>
<desc>Created with Sketch.</desc>
<path class="st0" d="M28,0C12.5,0,0,12.5,0,28v32c0,2.2,1.8,4,4,4h11c2.2,0,4-1.8,4-4V29c0-5,4-9,9-9c5,0,9,4,9,9v31
	c0,2.2,1.8,4,4,4h11c2.2,0,4-1.8,4-4V28C56,12.5,43.5,0,28,0z M15,60c0,0-11,0-11,0V48h11C15,54.4,15,60,15,60z M28,16
	c-7.2,0-13,5.8-13,13c0,0,0,7.4,0,15H4V28C4,14.7,14.7,4,28,4c13.3,0,24,10.7,24,24c0,0,0,8,0,16H41V29C41,21.8,35.2,16,28,16z
	 M52,60c0,0-11,0-11,0V48h11C52,54.5,52,60,52,60z"/>
</svg>
