<?xml version="1.0" encoding="utf-8"?>
<!-- Generator: Adobe Illustrator 21.0.0, SVG Export Plug-In . SVG Version: 6.00 Build 0)  -->
<svg version="1.1" id="Layer_1" xmlns="http://www.w3.org/2000/svg" xmlns:xlink="http://www.w3.org/1999/xlink" x="0px" y="0px"
	 viewBox="0 0 62 62" style="enable-background:new 0 0 62 62;" xml:space="preserve">
<style type="text/css">
	.st0{fill:#343434;}
</style>
<title>male</title>
<desc>Created with Sketch.</desc>
<path class="st0" d="M61.1,1c-0.5-0.5-1.3-0.9-2.1-0.9H37c-1.6,0-3,1.3-3,3c0,1.7,1.3,3,3,3h14.8l-13,13C34.7,15.9,29.6,14,24,14
	C10.7,14,0,24.7,0,38s10.7,24,24,24s24-10.7,24-24c0-5.5-1.9-10.6-5-14.7l13-13v14.8c0,1.6,1.3,3,3,3c1.7,0,3-1.3,3-3v-22
	C62,2.3,61.6,1.5,61.1,1z M24,56c-9.9,0-18-8.1-18-18c0-9.9,8.1-18,18-18s18,8.1,18,18C42,47.9,33.9,56,24,56z"/>
</svg>
