<svg xmlns="http://www.w3.org/2000/svg" viewBox="0 0 62 62" enable-background="new 0 0 62 62"><style type="text/css">.st0{fill:#343434;}</style><title>male</title><desc>Created with Sketch.</desc><path class="st0" d="M61.1 1c-.5-.5-1.3-.9-2.1-.9h-22c-1.6 0-3 1.3-3 3s1.3 3 3 3h14.8l-13 13c-4.1-3.2-9.2-5.1-14.8-5.1-13.3 0-24 10.7-24 24s10.7 24 24 24 24-10.7 24-24c0-5.5-1.9-10.6-5-14.7l13-13v14.8c0 1.6 1.3 3 3 3s3-1.3 3-3v-22c0-.8-.4-1.6-.9-2.1zm-37.1 55c-9.9 0-18-8.1-18-18s8.1-18 18-18 18 8.1 18 18-8.1 18-18 18z"/></svg>