<?xml version="1.0" encoding="utf-8"?>
<!-- Generator: Adobe Illustrator 21.0.0, SVG Export Plug-In . SVG Version: 6.00 Build 0)  -->
<svg version="1.1" id="Layer_1" xmlns="http://www.w3.org/2000/svg" xmlns:xlink="http://www.w3.org/1999/xlink" x="0px" y="0px"
	 viewBox="0 0 44 65" style="enable-background:new 0 0 44 65;" xml:space="preserve">
<style type="text/css">
	.st0{fill:#343434;}
</style>
<title>map-marker</title>
<desc>Created with Sketch.</desc>
<g>
	<path class="st0" d="M22,0C8.4,0,0,9.1,0,22c0,13.8,20.8,41.4,20.8,41.4c0.7,0.9,1.7,0.9,2.4,0c0,0,20.8-27.6,20.8-41.4
		C44,9.1,35.1,0,22,0z M30.2,45.8c-2.2,3.7-4.6,7.3-7,10.8c-0.4,0.6-0.8,1.1-1.2,1.6c-0.4-0.5-0.8-1.1-1.2-1.6
		c-2.4-3.4-4.8-7.1-7-10.8c-1.8-3-3.5-6-4.9-8.7C5.8,30.7,4,25.4,4,22C4,11,10.9,4,22,4c10.8,0,18,7.3,18,18c0,3.4-1.8,8.7-5,15.1
		C33.6,39.8,32,42.8,30.2,45.8z"/>
	<path class="st0" d="M22,9c-6.6,0-12,5.4-12,12c0,6.6,5.4,12,12,12s12-5.4,12-12C34,14.4,28.6,9,22,9z M22,29c-4.4,0-8-3.6-8-8
		s3.6-8,8-8s8,3.6,8,8S26.4,29,22,29z"/>
</g>
</svg>
