<?xml version="1.0" encoding="utf-8"?>
<!-- Generator: Adobe Illustrator 21.0.0, SVG Export Plug-In . SVG Version: 6.00 Build 0)  -->
<svg version="1.1" id="Layer_1" xmlns="http://www.w3.org/2000/svg" xmlns:xlink="http://www.w3.org/1999/xlink" x="0px" y="0px"
	 viewBox="0 0 61 56" style="enable-background:new 0 0 61 56;" xml:space="preserve">
<style type="text/css">
	.st0{fill:#333333;}
</style>
<title>map</title>
<desc>Created with Sketch.</desc>
<path class="st0" d="M60.1,0.4L40.5,7.8L20.9,0.4c-0.2-0.1-0.3-0.1-0.4-0.1c-0.1,0-0.3,0-0.4,0.1L0.9,7.6C0.4,7.8,0,8.4,0,9v46
	c0,0.6,0.4,0.8,0.9,0.6l19.6-7.4l19.6,7.4c0.2,0.1,0.3,0.1,0.4,0.1c0.1,0,0.3,0,0.4-0.1l19.1-7.3c0.5-0.2,0.9-0.8,0.9-1.4V1
	C61,0.4,60.6,0.2,60.1,0.4z M23,5.4l15,5.7v39.4l-15-5.7V5.4z M4,10.7L19,5v39.4L4,50.2V10.7z M57,45.3L42,51V11.5l15-5.7V45.3z"/>
</svg>
