<?xml version="1.0" encoding="utf-8"?>
<!-- Generator: Adobe Illustrator 21.0.0, SVG Export Plug-In . SVG Version: 6.00 Build 0)  -->
<svg version="1.1" id="Layer_1" xmlns="http://www.w3.org/2000/svg" xmlns:xlink="http://www.w3.org/1999/xlink" x="0px" y="0px"
	 viewBox="0 0 64 64" style="enable-background:new 0 0 64 64;" xml:space="preserve">
<style type="text/css">
	.st0{fill:#343434;}
</style>
<title>medal</title>
<desc>Created with Sketch.</desc>
<g>
	<path class="st0" d="M32,32c-8.8,0-16,7.2-16,16s7.2,16,16,16s16-7.2,16-16S40.8,32,32,32z M32,60c-6.6,0-12-5.4-12-12
		c0-6.6,5.4-12,12-12s12,5.4,12,12C44,54.6,38.6,60,32,60z"/>
	<path class="st0" d="M64,0H52L32,28c4,0,7.7,1.2,10.8,3.2L64,0z"/>
	<path class="st0" d="M32,28L12,0H0l21.2,31.2C24.3,29.2,28,28,32,28z"/>
	<circle class="st0" cx="32" cy="48" r="8"/>
</g>
</svg>
