<svg xmlns="http://www.w3.org/2000/svg" viewBox="0 0 64 64" enable-background="new 0 0 64 64"><style type="text/css">.st0{fill:#343434;}</style><title>medal</title><desc>Created with Sketch.</desc><path class="st0" d="M32 32c-8.8 0-16 7.2-16 16s7.2 16 16 16 16-7.2 16-16-7.2-16-16-16zm0 28c-6.6 0-12-5.4-12-12s5.4-12 12-12 12 5.4 12 12-5.4 12-12 12zM64 0h-12l-20 28c4 0 7.7 1.2 10.8 3.2l21.2-31.2zM32 28l-20-28h-12l21.2 31.2c3.1-2 6.8-3.2 10.8-3.2z"/><circle class="st0" cx="32" cy="48" r="8"/></svg>