<?xml version="1.0" encoding="utf-8"?>
<!-- Generator: Adobe Illustrator 21.0.0, SVG Export Plug-In . SVG Version: 6.00 Build 0)  -->
<svg version="1.1" id="Layer_1" xmlns="http://www.w3.org/2000/svg" xmlns:xlink="http://www.w3.org/1999/xlink" x="0px" y="0px"
	 viewBox="0 0 64 63" style="enable-background:new 0 0 64 63;" xml:space="preserve">
<style type="text/css">
	.st0{fill:#343434;}
</style>
<title>messages-alt</title>
<desc>Created with Sketch.</desc>
<path class="st0" d="M53,0H27c-6.1,0-11,4.9-11,11v5h-5C4.9,16,0,20.9,0,27v14C0,47,4.9,52,9,52L7.9,61c-0.2,1.6,0.7,2.2,2.1,1.2
	L23.8,52H37c5.8,0,10.6-4.5,11-10.3l6.1,4.5c1.3,1,2.3,0.5,2.1-1.2L55,36c4.1,0,9-4.9,9-11V11C64,4.9,59.1,0,53,0z M44,41
	c0,3.9-3.1,7-7,7H22.5l-9.9,7.3l0.9-7.3H9c-2.1,0-5-3.4-5-7V27c0-3.9,3.1-7,7-7h5h21c0.9,0,1.7,0.2,2.5,0.5c2.6,1,4.5,3.5,4.5,6.4
	c0,0,0,0.1,0,0.1v11.8V41z M60,25c0,3.6-3,7-5,7h-4.5l0.9,7.3L48,36.8V27v0c0,0,0-0.1,0-0.1c0-4.7-3-8.7-7.2-10.2
	C39.6,16.2,38.3,16,37,16h0H20v-5c0-3.9,3.1-7,7-7h26c3.9,0,7,3.1,7,7V25z"/>
</svg>
