<?xml version="1.0" encoding="utf-8"?>
<!-- Generator: Adobe Illustrator 21.0.0, SVG Export Plug-In . SVG Version: 6.00 Build 0)  -->
<svg version="1.1" id="Layer_1" xmlns="http://www.w3.org/2000/svg" xmlns:xlink="http://www.w3.org/1999/xlink" x="0px" y="0px"
	 viewBox="0 0 64 64" style="enable-background:new 0 0 64 64;" xml:space="preserve">
<style type="text/css">
	.st0{fill:#333333;}
</style>
<title>message-writing-f</title>
<desc>Created with Sketch.</desc>
<g>
	<path class="st0" d="M64,25.5C64,11.4,49.7,0,32,0S0,11.4,0,25.5S14.3,51,32,51c3.2,0,18.3,13.4,21.2,12.7c2.5-0.6-3.3-17-2.4-17.6
		C58.8,41.5,64,34,64,25.5z M20,31c-2.2,0-4-1.8-4-4c0-2.2,1.8-4,4-4s4,1.8,4,4C24,29.2,22.2,31,20,31z M32,31c-2.2,0-4-1.8-4-4
		c0-2.2,1.8-4,4-4s4,1.8,4,4C36,29.2,34.2,31,32,31z M44,31c-2.2,0-4-1.8-4-4c0-2.2,1.8-4,4-4s4,1.8,4,4C48,29.2,46.2,31,44,31z"/>
</g>
</svg>
