<svg xmlns="http://www.w3.org/2000/svg" viewBox="0 0 64 64"><path d="M64 19.2C64 8.6 53.3 0 40 0 27.7 0 17.5 7.5 16.2 17.1 6.8 19.7 0 26.8 0 35.2c0 6.4 3.9 12 9.9 15.5.7.4-3.6 12.8-1.8 13.2 2.2.5 13.5-9.6 15.9-9.6 10.2 0 18.9-5.1 22.4-12.2 3.9 2.8 8.3 6.1 9.6 5.8 1.8-.4-2.5-12.8-1.8-13.2 5.9-3.4 9.8-9.1 9.8-15.5zM24 50.4c-2.3 0-3.1.5-10.1 5.5-.1 0-.1 0-.1.1-.3.2-.7.5-.9.7.1-.6.3-1.4.4-1.5.2-.8.3-1.3.4-1.8.1-.7.2-1.2.3-1.7 0-.4.1-.8 0-1.1 0-.4-.1-.8-.3-1.2-.3-.8-.9-1.6-1.8-2.1-5-2.9-7.9-7.4-7.9-12.1 0-8.1 8.7-15.1 19.7-15.2 10.9.1 19.8 7.1 20.2 15.8-.3 7.9-9 14.6-19.9 14.6zm28.1-19.1c-.9.5-1.5 1.3-1.8 2.1-.2.4-.2.8-.3 1.2v1.1c.1.5.1 1 .3 1.7.1.5.2 1.1.4 1.8 0 .1.2.9.4 1.5-.3-.2-.6-.4-.9-.7-.1 0-.1 0-.1-.1-.9-.7-1.7-1.2-2.2-1.6.1-.6.1-1.3.1-2v-1.2C48 24.6 37.3 16 24 16h-.5c-1 0-2.1.1-3.1.2C22.3 9.4 30.2 4 40 4c11.2 0 20 7 20 15.2 0 4.7-2.9 9.2-7.9 12.1z" fill="#343434"/></svg>