<svg xmlns="http://www.w3.org/2000/svg" viewBox="0 0 64 63" enable-background="new 0 0 64 63"><style type="text/css">.st0{fill:#343434;}</style><title>messages-alt</title><desc>Created with Sketch.</desc><path class="st0" d="M53 0h-26c-6.1 0-11 4.9-11 11v5h-5c-6.1 0-11 4.9-11 11v14c0 6 4.9 11 9 11l-1.1 9c-.2 1.6.7 2.2 2.1 1.2l13.8-10.2h13.2c5.8 0 10.6-4.5 11-10.3l6.1 4.5c1.3 1 2.3.5 2.1-1.2l-1.2-9c4.1 0 9-4.9 9-11v-14c0-6.1-4.9-11-11-11zm-9 41c0 3.9-3.1 7-7 7h-14.5l-9.9 7.3.9-7.3h-4.5c-2.1 0-5-3.4-5-7v-14c0-3.9 3.1-7 7-7h26c.9 0 1.7.2 2.5.5 2.6 1 4.5 3.5 4.5 6.4v14.100000000000001zm16-16c0 3.6-3 7-5 7h-4.5l.9 7.3-3.4-2.5v-9.9c0-4.7-3-8.7-7.2-10.2-1.2-.5-2.5-.7-3.8-.7h-17v-5c0-3.9 3.1-7 7-7h26c3.9 0 7 3.1 7 7v14z"/></svg>