<?xml version="1.0" encoding="utf-8"?>
<!-- Generator: Adobe Illustrator 21.0.0, SVG Export Plug-In . SVG Version: 6.00 Build 0)  -->
<svg version="1.1" id="Layer_1" xmlns="http://www.w3.org/2000/svg" xmlns:xlink="http://www.w3.org/1999/xlink" x="0px" y="0px"
	 viewBox="0 0 64 64" style="enable-background:new 0 0 64 64;" xml:space="preserve">
<style type="text/css">
	.st0{fill:#333333;}
</style>
<title>messages-f</title>
<desc>Created with Sketch.</desc>
<g>
	<path class="st0" d="M64,19.2C64,8.6,53.3,0,40,0C29.2,0,20,5.7,17,13.6c2.1-0.4,4.2-0.6,6.4-0.6c15.1,0,27.4,10,27.4,22.4
		c0,3-0.7,5.9-2,8.5c3.1,2.3,6.1,4.3,7.1,4c1.8-0.4-2.5-12.8-1.8-13.2C60.1,31.3,64,25.6,64,19.2z"/>
	<path class="st0" d="M24,16C10.7,16,0,24.6,0,35.2c0,6.4,3.9,12,9.9,15.5c0.7,0.4-3.6,12.8-1.8,13.2c2.2,0.5,13.5-9.6,15.9-9.6
		c13.3,0,24-8.6,24-19.2C48,24.6,37.3,16,24,16z"/>
</g>
</svg>
