<?xml version="1.0" encoding="utf-8"?>
<!-- Generator: Adobe Illustrator 21.0.0, SVG Export Plug-In . SVG Version: 6.00 Build 0)  -->
<svg version="1.1" id="Layer_1" xmlns="http://www.w3.org/2000/svg" xmlns:xlink="http://www.w3.org/1999/xlink" x="0px" y="0px"
	 viewBox="0 0 64 63" style="enable-background:new 0 0 64 63;" xml:space="preserve">
<style type="text/css">
	.st0{fill:#333333;}
</style>
<title>message-writing-alt-f</title>
<desc>Created with Sketch.</desc>
<path class="st0" d="M53,0H11C4.9,0,0,4.9,0,11v26c0,6.1,4.9,11,11,11h21.3l19.3,14.3c1.3,1,2.2,0.4,2-1.2L52,48h1
	c6.1,0,11-4.9,11-11V11C64,4.9,59.1,0,53,0z M20,29c-2.2,0-4-1.8-4-4c0-2.2,1.8-4,4-4s4,1.8,4,4C24,27.2,22.2,29,20,29z M32,29
	c-2.2,0-4-1.8-4-4c0-2.2,1.8-4,4-4s4,1.8,4,4C36,27.2,34.2,29,32,29z M44,29c-2.2,0-4-1.8-4-4c0-2.2,1.8-4,4-4s4,1.8,4,4
	C48,27.2,46.2,29,44,29z"/>
</svg>
