<?xml version="1.0" encoding="utf-8"?>
<!-- Generator: Adobe Illustrator 21.0.0, SVG Export Plug-In . SVG Version: 6.00 Build 0)  -->
<svg version="1.1" id="Layer_1" xmlns="http://www.w3.org/2000/svg" xmlns:xlink="http://www.w3.org/1999/xlink" x="0px" y="0px"
	 viewBox="0 0 64 64" style="enable-background:new 0 0 64 64;" xml:space="preserve">
<style type="text/css">
	.st0{fill:#333333;}
</style>
<title>message-writing</title>
<desc>Created with Sketch.</desc>
<g>
	<path class="st0" d="M64,25.5C64,11.4,49.7,0,32,0S0,11.4,0,25.5S14.3,51,32,51c3.2,0,18.3,13.4,21.2,12.7c2.5-0.6-3.3-17-2.4-17.6
		C58.8,41.5,64,34,64,25.5z M46.8,47.3c0.1,0.6,0.2,1.2,0.4,2.1c0.1,0.6,0.3,1.4,0.6,2.4c0.1,0.2,0.5,2.1,0.7,2.7
		c0.1,0.5,0.2,0.9,0.3,1.4c0.1,0.5,0.2,0.9,0.3,1.3c-1.1-0.7-2.4-1.6-4.2-2.9c-0.1-0.1-0.1-0.1-0.2-0.1C36,47.9,34.7,47,32,47
		C16.4,47,4,37.1,4,25.5C4,13.9,16.4,4,32,4s28,9.9,28,21.5c0,6.7-4.1,13.1-11.2,17.2c-0.9,0.5-1.5,1.3-1.8,2.1
		c-0.2,0.4-0.2,0.8-0.3,1.2C46.7,46.5,46.7,46.9,46.8,47.3z"/>
	<circle class="st0" cx="20" cy="27" r="4"/>
	<circle class="st0" cx="32" cy="27" r="4"/>
	<circle class="st0" cx="44" cy="27" r="4"/>
</g>
</svg>
