<svg xmlns="http://www.w3.org/2000/svg" viewBox="0 0 64 63" enable-background="new 0 0 64 63"><style type="text/css">.st0{fill:#333333;}</style><title>message-writing-alt</title><desc>Created with Sketch.</desc><path class="st0" d="M53 0h-42c-6.1 0-11 4.9-11 11v26c0 6.1 4.9 11 11 11h21.3l19.3 14.3c1.3 1 2.2.4 2-1.2l-1.6-13.1 4-.4c4.6-1.3 8-5.5 8-10.6v-26c0-6.1-4.9-11-11-11zm7 37c0 3.9-3.1 7-7 7h-5.5l1.4 11.3-15.3-11.3h-22.6c-3.9 0-7-3.1-7-7v-26c0-3.9 3.1-7 7-7h42c3.9 0 7 3.1 7 7v26z"/><circle class="st0" cx="20" cy="25" r="4"/><circle class="st0" cx="32" cy="25" r="4"/><circle class="st0" cx="44" cy="25" r="4"/></svg>