<svg xmlns="http://www.w3.org/2000/svg" viewBox="0 0 64 63" enable-background="new 0 0 64 63"><style type="text/css">.st0{fill:#333333;}</style><title>messages-alt-f</title><desc>Created with Sketch.</desc><path class="st0" d="M37 16h-26c-6.1 0-11 4.9-11 11v14c0 6 4.9 11 9 11l-1.1 9c-.2 1.6.7 2.2 2.1 1.2l13.8-10.2h13.2c6.1 0 11-4.9 11-11v-14c0-6.1-4.9-11-11-11zM53 0h-26c-6.1 0-11 4.9-11 11v3h23c6.1 0 11 4.9 11 11v18.2l4.1 3c1.3 1 2.3.5 2.1-1.2l-1.2-9c4.1 0 9-4.9 9-11v-14c0-6.1-4.9-11-11-11z"/></svg>