<svg xmlns="http://www.w3.org/2000/svg" viewBox="0 0 64 64" enable-background="new 0 0 64 64"><style type="text/css">.st0{fill:#333333;}</style><title>message-writing</title><desc>Created with Sketch.</desc><path class="st0" d="M64 25.5c0-14.1-14.3-25.5-32-25.5s-32 11.4-32 25.5 14.3 25.5 32 25.5c3.2 0 18.3 13.4 21.2 12.7 2.5-.6-3.3-17-2.4-17.6 8-4.6 13.2-12.1 13.2-20.6zm-17.2 21.8c.1.6.2 1.2.4 2.1.1.6.3 1.4.6 2.4.1.2.5 2.1.7 2.7l.3 1.4c.1.5.2.9.3 1.3-1.1-.7-2.4-1.6-4.2-2.9-.1-.1-.1-.1-.2-.1-8.7-6.3-10-7.2-12.7-7.2-15.6 0-28-9.9-28-21.5s12.4-21.5 28-21.5 28 9.9 28 21.5c0 6.7-4.1 13.1-11.2 17.2-.9.5-1.5 1.3-1.8 2.1-.2.4-.2.8-.3 1.2 0 .5 0 .9.1 1.3z"/><circle class="st0" cx="20" cy="27" r="4"/><circle class="st0" cx="32" cy="27" r="4"/><circle class="st0" cx="44" cy="27" r="4"/></svg>