<svg xmlns="http://www.w3.org/2000/svg" viewBox="0 0 64 63" enable-background="new 0 0 64 63"><style type="text/css">.st0{fill:#333333;}</style><title>message-writing-alt-f</title><desc>Created with Sketch.</desc><path class="st0" d="M53 0h-42c-6.1 0-11 4.9-11 11v26c0 6.1 4.9 11 11 11h21.3l19.3 14.3c1.3 1 2.2.4 2-1.2l-1.6-13.1h1c6.1 0 11-4.9 11-11v-26c0-6.1-4.9-11-11-11zm-33 29c-2.2 0-4-1.8-4-4s1.8-4 4-4 4 1.8 4 4-1.8 4-4 4zm12 0c-2.2 0-4-1.8-4-4s1.8-4 4-4 4 1.8 4 4-1.8 4-4 4zm12 0c-2.2 0-4-1.8-4-4s1.8-4 4-4 4 1.8 4 4-1.8 4-4 4z"/></svg>