<?xml version="1.0" encoding="utf-8"?>
<!-- Generator: Adobe Illustrator 21.0.0, SVG Export Plug-In . SVG Version: 6.00 Build 0)  -->
<svg version="1.1" id="Layer_1" xmlns="http://www.w3.org/2000/svg" xmlns:xlink="http://www.w3.org/1999/xlink" x="0px" y="0px"
	 viewBox="0 0 39 64" style="enable-background:new 0 0 39 64;" xml:space="preserve">
<style type="text/css">
	.st0{fill:#343434;}
</style>
<title>mic</title>
<desc>Created with Sketch.</desc>
<path class="st0" d="M28.5,14h6h4v-3c0-0.3,0-0.7-0.1-1C37.9,4.4,33.2,0,27.5,0h-16C5.8,0,1.1,4.4,0.6,10c0,0.3,0,0.6,0,0.9V14h4h6
	c0.5,0,1,0.4,1,1c0,0.6-0.4,1-1,1h-6h-4h0v10h0h4h6c0.5,0,1,0.4,1,1c0,0.6-0.4,1-1,1h-6h-4h0v10h0h4h6c0.5,0,1,0.4,1,1
	c0,0.6-0.4,1-1,1h-6h-4h0v2c0,6.1,4.9,11,11,11h2v11h12V53h2c6.1,0,11-4.9,11-11v-0.7V40h-4h-6c-0.5,0-1-0.4-1-1c0-0.6,0.4-1,1-1h6
	h4v-4v-2v-4h-4h-6c-0.5,0-1-0.4-1-1c0-0.6,0.4-1,1-1h6h4v-4v-2v-4h-4h-6c-0.5,0-1-0.4-1-1C27.5,14.4,27.9,14,28.5,14z M28.5,20h6v2
	h-6c-2.8,0-5,2.2-5,5c0,2.8,2.2,5,5,5h6v2h-6c-2.8,0-5,2.2-5,5c0,2.8,2.2,5,5,5h5.4c-1.2,2.9-4.1,5-7.4,5h-5v11h-4V49h-5
	c-3.4,0-6.2-2.1-7.4-5h5.4c2.8,0,5-2.2,5-5c0-2.8-2.2-5-5-5h-6v-2h6c2.8,0,5-2.2,5-5c0-2.8-2.2-5-5-5h-6v-2h6c2.8,0,5-2.2,5-5
	c0-2.8-2.2-5-5-5H4.8c0.9-3.4,4-6,7.7-6h14c3.7,0,6.8,2.6,7.7,6h-5.7c-2.8,0-5,2.2-5,5C23.5,17.8,25.7,20,28.5,20z"/>
</svg>
