<svg xmlns="http://www.w3.org/2000/svg" viewBox="0 0 39 64"><path d="M28.5 14h10v-3c0-.3 0-.7-.1-1-.5-5.6-5.2-10-10.9-10h-16C5.8 0 1.1 4.4.6 10v4h10c.5 0 1 .4 1 1s-.4 1-1 1H.6v10h10c.5 0 1 .4 1 1s-.4 1-1 1H.6v10h10c.5 0 1 .4 1 1s-.4 1-1 1H.6v2c0 6.1 4.9 11 11 11h2v11h12V53h2c6.1 0 11-4.9 11-11v-2h-10c-.5 0-1-.4-1-1s.4-1 1-1h10V28h-10c-.5 0-1-.4-1-1s.4-1 1-1h10V16h-10c-.5 0-1-.4-1-1-.1-.6.3-1 .9-1zm0 6h6v2h-6c-2.8 0-5 2.2-5 5s2.2 5 5 5h6v2h-6c-2.8 0-5 2.2-5 5s2.2 5 5 5h5.4c-1.2 2.9-4.1 5-7.4 5h-5v11h-4V49h-5c-3.4 0-6.2-2.1-7.4-5h5.4c2.8 0 5-2.2 5-5s-2.2-5-5-5h-6v-2h6c2.8 0 5-2.2 5-5s-2.2-5-5-5h-6v-2h6c2.8 0 5-2.2 5-5s-2.2-5-5-5H4.8c.9-3.4 4-6 7.7-6h14c3.7 0 6.8 2.6 7.7 6h-5.7c-2.8 0-5 2.2-5 5s2.2 5 5 5z" fill="#343434"/></svg>