<?xml version="1.0" encoding="utf-8"?>
<!-- Generator: Adobe Illustrator 21.0.0, SVG Export Plug-In . SVG Version: 6.00 Build 0)  -->
<svg version="1.1" id="Layer_1" xmlns="http://www.w3.org/2000/svg" xmlns:xlink="http://www.w3.org/1999/xlink" x="0px" y="0px"
	 viewBox="0 0 65 61" style="enable-background:new 0 0 65 61;" xml:space="preserve">
<style type="text/css">
	.st0{fill:#343434;}
</style>
<title>moon</title>
<desc>Created with Sketch.</desc>
<path class="st0" d="M48,40C29.6,40,15,25.4,15,8c0-2.5,0.3-4.9,0.8-7.3C6.3,6.5,0,16.9,0,29c0,17.4,14.6,32,33,32
	c15.3,0,28.3-11.1,31.3-25.6C59.5,38.3,53.9,40,48,40z M33,57C16.9,57,4,44.4,4,29c0-7.3,2.6-14,7-19.1C12,28.8,28.2,44,48,44
	c3.2,0,6.3-0.4,9.3-1.2C52.4,51.3,43.2,57,33,57z"/>
</svg>
