<?xml version="1.0" encoding="utf-8"?>
<!-- Generator: Adobe Illustrator 21.0.0, SVG Export Plug-In . SVG Version: 6.00 Build 0)  -->
<svg version="1.1" id="Layer_1" xmlns="http://www.w3.org/2000/svg" xmlns:xlink="http://www.w3.org/1999/xlink" x="0px" y="0px"
	 viewBox="0 0 64 16" style="enable-background:new 0 0 64 16;" xml:space="preserve">
<style type="text/css">
	.st0{fill:#343434;}
</style>
<title>more</title>
<desc>Created with Sketch.</desc>
<g>
	<path class="st0" d="M32,0c-4.4,0-8,3.6-8,8s3.6,8,8,8s8-3.6,8-8S36.4,0,32,0z M32,12c-2.2,0-4-1.8-4-4c0-2.2,1.8-4,4-4s4,1.8,4,4
		C36,10.2,34.2,12,32,12z"/>
	<path class="st0" d="M56,0c-4.4,0-8,3.6-8,8s3.6,8,8,8s8-3.6,8-8S60.4,0,56,0z M56,12c-2.2,0-4-1.8-4-4c0-2.2,1.8-4,4-4s4,1.8,4,4
		C60,10.2,58.2,12,56,12z"/>
	<path class="st0" d="M8,0C3.6,0,0,3.6,0,8s3.6,8,8,8s8-3.6,8-8S12.4,0,8,0z M8,12c-2.2,0-4-1.8-4-4c0-2.2,1.8-4,4-4s4,1.8,4,4
		C12,10.2,10.2,12,8,12z"/>
</g>
</svg>
