<svg xmlns="http://www.w3.org/2000/svg" viewBox="0 0 56 64" enable-background="new 0 0 56 64"><style type="text/css">.st0{fill:#343434;}</style><title>motor-cycle</title><desc>Created with Sketch.</desc><path class="st0" d="M33.4 13.9c1.6-1.5 2.6-3.6 2.6-5.9 0-4.4-3.6-8-8-8s-8 3.6-8 8c0 2.3 1 4.4 2.6 5.9-3.9 1.7-6.6 5.6-6.6 10.1v18c0 3.9 2 7.3 5 9.2v-6.2c0-3.9 3.1-7 7-7s7 3.1 7 7v6.2c3-2 5-5.4 5-9.2v-18c0-4.5-2.7-8.4-6.6-10.1zm-5.4-10.9c2.8 0 5 2.2 5 5s-2.2 5-5 5-5-2.2-5-5 2.2-5 5-5zm9 37.6c-1.6-3.3-5-5.6-9-5.6s-7.4 2.3-9 5.6v-16.6c0-4.4 3.6-8 8-8h2c4.4 0 8 3.6 8 8v16.6zM28 40c-2.8 0-5 2.2-5 5v14c0 2.8 2.2 5 5 5s5-2.2 5-5v-14c0-2.8-2.2-5-5-5zm2 19c0 1.1-.9 2-2 2s-2-.9-2-2v-14c0-1.1.9-2 2-2s2 .9 2 2v14zM18.2 10c-.1-.6-.2-1.3-.2-2v-1h-6.5c-.5-.6-1.2-1-2-1h-7c-1.4 0-2.5 1.1-2.5 2.5s1.1 2.5 2.5 2.5h7c.8 0 1.5-.4 2-1h6.7zm-8.7-1h-7c-.3 0-.5-.2-.5-.5s.2-.5.5-.5h7c.3 0 .5.2.5.5s-.2.5-.5.5zM53.5 6h-7c-.8 0-1.5.4-2 1h-6.5v1c0 .7-.1 1.4-.2 2h6.7c.5.6 1.2 1 2 1h7c1.4 0 2.5-1.1 2.5-2.5s-1.1-2.5-2.5-2.5zm0 3h-7c-.3 0-.5-.2-.5-.5s.2-.5.5-.5h7c.3 0 .5.2.5.5s-.2.5-.5.5z"/></svg>