<?xml version="1.0" encoding="utf-8"?>
<!-- Generator: Adobe Illustrator 21.0.0, SVG Export Plug-In . SVG Version: 6.00 Build 0)  -->
<svg version="1.1" id="Layer_1" xmlns="http://www.w3.org/2000/svg" xmlns:xlink="http://www.w3.org/1999/xlink" x="0px" y="0px"
	 viewBox="0 0 64 64" style="enable-background:new 0 0 64 64;" xml:space="preserve">
<style type="text/css">
	.st0{fill:#343434;}
</style>
<title>mountain</title>
<desc>Created with Sketch.</desc>
<path class="st0" d="M63.3,58.6L34.7,3c-1.5-2.9-4-2.9-5.5,0L0.7,58.6c-1.5,2.9-0.1,5.3,3.3,5.3h56C63.3,63.9,64.8,61.5,63.3,58.6z
	 M32,6.5l12.3,24l-6.6-3.1c-1-0.5-2.6-0.5-3.6,0l-3.3,1.6c-0.5,0.2-1.2,0.1-1.5-0.3l-5.4-6.4L32,6.5z M4.5,59.9L22,26l5.6,6.8
	c0.7,0.8,2.1,1.1,3.1,0.7l4.4-2.1c0.5-0.2,1.3-0.2,1.8,0l10.4,5l0,0l12.2,23.7H4.5z"/>
</svg>
