<svg xmlns="http://www.w3.org/2000/svg" viewBox="0 0 63 63" enable-background="new 0 0 63 63"><style type="text/css">.st0{fill:#333333;}</style><title>move</title><desc>Created with Sketch.</desc><path class="st0" d="M61.3 28.6l-8.5-8.5c-1.2-1.2-3.1-1.2-4.2 0-1.2 1.2-1.2 3.1 0 4.2l3.6 3.6h-18.2v-17.1l3.1 3.1c1.2 1.2 3.1 1.2 4.2 0 1.2-1.2 1.2-3.1 0-4.2l-8.5-8.5c-.6-.6-1.3-.9-2.1-.9s-1.5.3-2.1.9l-8.5 8.5c-1.2 1.2-1.2 3.1 0 4.2 1.2 1.2 3.1 1.2 4.2 0l3.6-3.6v17.7h-17.7l3.6-3.6c1.2-1.2 1.2-3.1 0-4.2-1.2-1.2-3.1-1.2-4.2 0l-8.5 8.5c-.6.6-.9 1.3-.9 2.1s.3 1.5.9 2.1l8.5 8.5c1.2 1.2 3.1 1.2 4.2 0 1.2-1.2 1.2-3.1 0-4.2l-3-3.2h17.2v18.2l-3.6-3.6c-1.2-1.2-3.1-1.2-4.2 0-1.2 1.2-1.2 3.1 0 4.2l8.5 8.5c.6.6 1.3.9 2.1.9s1.5-.3 2.1-.9l8.5-8.5c1.2-1.2 1.2-3.1 0-4.2-1.2-1.2-3.1-1.2-4.2 0l-3.2 3.1v-17.7h17.7l-3.1 3.1c-1.2 1.2-1.2 3.1 0 4.2 1.2 1.2 3.1 1.2 4.2 0l8.5-8.5c.6-.6.9-1.3.9-2.1 0-.7-.3-1.5-.9-2.1z"/></svg>