<svg xmlns="http://www.w3.org/2000/svg" viewBox="0 0 54 64" enable-background="new 0 0 54 64"><style type="text/css">.st0{fill:#333333;}</style><title>movie</title><desc>Created with Sketch.</desc><path class="st0" d="M50 0h-46c-2.2 0-4 1.8-4 4v56c0 2.2 1.8 4 4 4h46c2.2 0 4-1.8 4-4v-56c0-2.2-1.8-4-4-4zm-42 59c0 .6-.4 1-1 1h-3c-.6 0-1-.4-1-1v-3c0-.6.4-1 1-1h3c.6 0 1 .4 1 1v3zm0-7c0 .6-.4 1-1 1h-3c-.6 0-1-.4-1-1v-3c0-.6.4-1 1-1h3c.6 0 1 .4 1 1v3zm0-7c0 .6-.4 1-1 1h-3c-.6 0-1-.4-1-1v-3c0-.6.4-1 1-1h3c.6 0 1 .4 1 1v3zm0-7c0 .6-.4 1-1 1h-3c-.6 0-1-.4-1-1v-3c0-.6.4-1 1-1h3c.6 0 1 .4 1 1v3zm0-9c0 .6-.4 1-1 1h-3c-.6 0-1-.4-1-1v-3c0-.6.4-1 1-1h3c.6 0 1 .4 1 1v3zm0-7c0 .6-.4 1-1 1h-3c-.6 0-1-.4-1-1v-3c0-.6.4-1 1-1h3c.6 0 1 .4 1 1v3zm0-7c0 .6-.4 1-1 1h-3c-.6 0-1-.4-1-1v-3c0-.6.4-1 1-1h3c.6 0 1 .4 1 1v3zm0-7c0 .6-.4 1-1 1h-3c-.6 0-1-.4-1-1v-3c0-.6.4-1 1-1h3c.6 0 1 .4 1 1v3zm34 50h-30v-23h30v23zm0-29h-30v-23h30v23zm9 30c0 .6-.4 1-1 1h-3c-.6 0-1-.4-1-1v-3c0-.6.4-1 1-1h3c.6 0 1 .4 1 1v3zm0-7c0 .6-.4 1-1 1h-3c-.6 0-1-.4-1-1v-3c0-.6.4-1 1-1h3c.6 0 1 .4 1 1v3zm0-7c0 .6-.4 1-1 1h-3c-.6 0-1-.4-1-1v-3c0-.6.4-1 1-1h3c.6 0 1 .4 1 1v3zm0-7c0 .6-.4 1-1 1h-3c-.6 0-1-.4-1-1v-3c0-.6.4-1 1-1h3c.6 0 1 .4 1 1v3zm0-9c0 .6-.4 1-1 1h-3c-.6 0-1-.4-1-1v-3c0-.6.4-1 1-1h3c.6 0 1 .4 1 1v3zm0-7c0 .6-.4 1-1 1h-3c-.6 0-1-.4-1-1v-3c0-.6.4-1 1-1h3c.6 0 1 .4 1 1v3zm0-7c0 .6-.4 1-1 1h-3c-.6 0-1-.4-1-1v-3c0-.6.4-1 1-1h3c.6 0 1 .4 1 1v3zm0-7c0 .6-.4 1-1 1h-3c-.6 0-1-.4-1-1v-3c0-.6.4-1 1-1h3c.6 0 1 .4 1 1v3z"/></svg>