<svg xmlns="http://www.w3.org/2000/svg" viewBox="0 0 54 64"><path d="M50 0H4C1.8 0 0 1.8 0 4v56c0 2.2 1.8 4 4 4h46c2.2 0 4-1.8 4-4V4c0-2.2-1.8-4-4-4zM8 59c0 .6-.4 1-1 1H4c-.6 0-1-.4-1-1v-3c0-.6.4-1 1-1h3c.6 0 1 .4 1 1v3zm0-7c0 .6-.4 1-1 1H4c-.6 0-1-.4-1-1v-3c0-.6.4-1 1-1h3c.6 0 1 .4 1 1v3zm0-7c0 .6-.4 1-1 1H4c-.6 0-1-.4-1-1v-3c0-.6.4-1 1-1h3c.6 0 1 .4 1 1v3zm0-7c0 .6-.4 1-1 1H4c-.6 0-1-.4-1-1v-3c0-.6.4-1 1-1h3c.6 0 1 .4 1 1v3zm0-9c0 .6-.4 1-1 1H4c-.6 0-1-.4-1-1v-3c0-.6.4-1 1-1h3c.6 0 1 .4 1 1v3zm0-7c0 .6-.4 1-1 1H4c-.6 0-1-.4-1-1v-3c0-.6.4-1 1-1h3c.6 0 1 .4 1 1v3zm0-7c0 .6-.4 1-1 1H4c-.6 0-1-.4-1-1v-3c0-.6.4-1 1-1h3c.6 0 1 .4 1 1v3zm0-7c0 .6-.4 1-1 1H4c-.6 0-1-.4-1-1V5c0-.6.4-1 1-1h3c.6 0 1 .4 1 1v3zm34 50H12V35h30v23zm0-29H12V6h30v23zm9 30c0 .6-.4 1-1 1h-3c-.6 0-1-.4-1-1v-3c0-.6.4-1 1-1h3c.6 0 1 .4 1 1v3zm0-7c0 .6-.4 1-1 1h-3c-.6 0-1-.4-1-1v-3c0-.6.4-1 1-1h3c.6 0 1 .4 1 1v3zm0-7c0 .6-.4 1-1 1h-3c-.6 0-1-.4-1-1v-3c0-.6.4-1 1-1h3c.6 0 1 .4 1 1v3zm0-7c0 .6-.4 1-1 1h-3c-.6 0-1-.4-1-1v-3c0-.6.4-1 1-1h3c.6 0 1 .4 1 1v3zm0-9c0 .6-.4 1-1 1h-3c-.6 0-1-.4-1-1v-3c0-.6.4-1 1-1h3c.6 0 1 .4 1 1v3zm0-7c0 .6-.4 1-1 1h-3c-.6 0-1-.4-1-1v-3c0-.6.4-1 1-1h3c.6 0 1 .4 1 1v3zm0-7c0 .6-.4 1-1 1h-3c-.6 0-1-.4-1-1v-3c0-.6.4-1 1-1h3c.6 0 1 .4 1 1v3zm0-7c0 .6-.4 1-1 1h-3c-.6 0-1-.4-1-1V5c0-.6.4-1 1-1h3c.6 0 1 .4 1 1v3z" fill="#333"/></svg>