<svg xmlns="http://www.w3.org/2000/svg" viewBox="0 0 50 64" enable-background="new 0 0 50 64"><style type="text/css">.st0{fill:#333333;}</style><title>news</title><desc>Created with Sketch.</desc><path class="st0" d="M47 0h-44c-1.7 0-3 1.3-3 3v58c0 1.7 1.3 3 3 3h44c1.7 0 3-1.3 3-3v-58c0-1.7-1.3-3-3-3zm-1 60h-42v-56h42v56zM11 23h10c1.1 0 2-.9 2-2v-11c0-1.1-.9-2-2-2h-10c-1.1 0-2 .9-2 2v11c0 1.1.9 2 2 2zM29 13h10c1.1 0 2-.9 2-2v-1c0-1.1-.9-2-2-2h-10c-1.1 0-2 .9-2 2v1c0 1.1.9 2 2 2zM28.5 18h11c.8 0 1.5-.7 1.5-1.5s-.7-1.5-1.5-1.5h-11c-.8 0-1.5.7-1.5 1.5s.7 1.5 1.5 1.5zM28.5 23h11c.8 0 1.5-.7 1.5-1.5s-.7-1.5-1.5-1.5h-11c-.8 0-1.5.7-1.5 1.5s.7 1.5 1.5 1.5zM11 32h28c1.1 0 2-.9 2-2s-.9-2-2-2h-28c-1.1 0-2 .9-2 2s.9 2 2 2zM11 40h28c1.1 0 2-.9 2-2s-.9-2-2-2h-28c-1.1 0-2 .9-2 2s.9 2 2 2zM11 48h28c1.1 0 2-.9 2-2s-.9-2-2-2h-28c-1.1 0-2 .9-2 2s.9 2 2 2zM11 56h28c1.1 0 2-.9 2-2s-.9-2-2-2h-28c-1.1 0-2 .9-2 2s.9 2 2 2z"/></svg>