<?xml version="1.0" encoding="utf-8"?>
<!-- Generator: Adobe Illustrator 21.0.0, SVG Export Plug-In . SVG Version: 6.00 Build 0)  -->
<svg version="1.1" id="Layer_1" xmlns="http://www.w3.org/2000/svg" xmlns:xlink="http://www.w3.org/1999/xlink" x="0px" y="0px"
	 viewBox="0 0 50 64" style="enable-background:new 0 0 50 64;" xml:space="preserve">
<style type="text/css">
	.st0{fill:#333333;}
</style>
<title>news</title>
<desc>Created with Sketch.</desc>
<g>
	<path class="st0" d="M47,0H3C1.3,0,0,1.3,0,3v58c0,1.7,1.3,3,3,3h44c1.7,0,3-1.3,3-3V3C50,1.3,48.7,0,47,0z M46,60H4V4h42V60z"/>
	<path class="st0" d="M11,23h10c1.1,0,2-0.9,2-2V10c0-1.1-0.9-2-2-2H11c-1.1,0-2,0.9-2,2v11C9,22.1,9.9,23,11,23z"/>
	<path class="st0" d="M29,13h10c1.1,0,2-0.9,2-2v-1c0-1.1-0.9-2-2-2H29c-1.1,0-2,0.9-2,2v1C27,12.1,27.9,13,29,13z"/>
	<path class="st0" d="M28.5,18h11c0.8,0,1.5-0.7,1.5-1.5S40.3,15,39.5,15h-11c-0.8,0-1.5,0.7-1.5,1.5S27.7,18,28.5,18z"/>
	<path class="st0" d="M28.5,23h11c0.8,0,1.5-0.7,1.5-1.5S40.3,20,39.5,20h-11c-0.8,0-1.5,0.7-1.5,1.5S27.7,23,28.5,23z"/>
	<path class="st0" d="M11,32h28c1.1,0,2-0.9,2-2c0-1.1-0.9-2-2-2H11c-1.1,0-2,0.9-2,2C9,31.1,9.9,32,11,32z"/>
	<path class="st0" d="M11,40h28c1.1,0,2-0.9,2-2s-0.9-2-2-2H11c-1.1,0-2,0.9-2,2S9.9,40,11,40z"/>
	<path class="st0" d="M11,48h28c1.1,0,2-0.9,2-2s-0.9-2-2-2H11c-1.1,0-2,0.9-2,2S9.9,48,11,48z"/>
	<path class="st0" d="M11,56h28c1.1,0,2-0.9,2-2s-0.9-2-2-2H11c-1.1,0-2,0.9-2,2S9.9,56,11,56z"/>
</g>
</svg>
