<svg xmlns="http://www.w3.org/2000/svg" viewBox="0 0 50 64"><path d="M47 0H3C1.3 0 0 1.3 0 3v58c0 1.7 1.3 3 3 3h44c1.7 0 3-1.3 3-3V3c0-1.7-1.3-3-3-3zm-1 60H4V4h42v56zM11 23h10c1.1 0 2-.9 2-2V10c0-1.1-.9-2-2-2H11c-1.1 0-2 .9-2 2v11c0 1.1.9 2 2 2zm18-10h10c1.1 0 2-.9 2-2v-1c0-1.1-.9-2-2-2H29c-1.1 0-2 .9-2 2v1c0 1.1.9 2 2 2zm-.5 5h11c.8 0 1.5-.7 1.5-1.5s-.7-1.5-1.5-1.5h-11c-.8 0-1.5.7-1.5 1.5s.7 1.5 1.5 1.5zm0 5h11c.8 0 1.5-.7 1.5-1.5s-.7-1.5-1.5-1.5h-11c-.8 0-1.5.7-1.5 1.5s.7 1.5 1.5 1.5zM11 32h28c1.1 0 2-.9 2-2s-.9-2-2-2H11c-1.1 0-2 .9-2 2s.9 2 2 2zm0 8h28c1.1 0 2-.9 2-2s-.9-2-2-2H11c-1.1 0-2 .9-2 2s.9 2 2 2zm0 8h28c1.1 0 2-.9 2-2s-.9-2-2-2H11c-1.1 0-2 .9-2 2s.9 2 2 2zm0 8h28c1.1 0 2-.9 2-2s-.9-2-2-2H11c-1.1 0-2 .9-2 2s.9 2 2 2z" fill="#333"/></svg>