<?xml version="1.0" encoding="utf-8"?>
<!-- Generator: Adobe Illustrator 21.0.0, SVG Export Plug-In . SVG Version: 6.00 Build 0)  -->
<svg version="1.1" id="Layer_1" xmlns="http://www.w3.org/2000/svg" xmlns:xlink="http://www.w3.org/1999/xlink" x="0px" y="0px"
	 viewBox="0 0 48 64" style="enable-background:new 0 0 48 64;" xml:space="preserve">
<style type="text/css">
	.st0{fill:#343434;}
</style>
<title>padlock</title>
<desc>Created with Sketch.</desc>
<g>
	<path class="st0" d="M44,32h-2V18c0-9.9-8.1-18-18-18C14.1,0,6,8.1,6,18v14H4c-2.2,0-4,1.8-4,4v24c0,2.2,1.8,4,4,4h40
		c2.2,0,4-1.8,4-4V36C48,33.8,46.2,32,44,32z M11,18c0-7.2,5.8-13,13-13c7.2,0,13,5.8,13,13v14H11V18z M43,59H5V37h1h36h1V59z"/>
	<circle class="st0" cx="24" cy="48" r="5"/>
</g>
</svg>
