<svg xmlns="http://www.w3.org/2000/svg" viewBox="0 0 40 64" enable-background="new 0 0 40 64"><style type="text/css">.st0{fill:#333333;}</style><title>padlock-alt</title><desc>Created with Sketch.</desc><path class="st0" d="M34 29.7v-15.7c0-7.7-6.3-14-14-14s-14 6.3-14 14v15.7c-3.7 3.7-6 8.7-6 14.3 0 11 9 20 20 20s20-9 20-20c0-5.6-2.3-10.6-6-14.3zm-24-15.7c0-5.5 4.5-10 10-10s10 4.5 10 10v12.7c-2.9-1.7-6.4-2.7-10-2.7s-7.1 1-10 2.7v-12.7zm10 46c-8.8 0-16-7.2-16-16s7.2-16 16-16 16 7.2 16 16-7.2 16-16 16zM28 42h-2.4c-.6-1.7-2-3.1-3.7-3.7v-2.3c0-1.1-.9-2-2-2s-2 .9-2 2v2.4c-1.7.6-3.1 2-3.7 3.7h-2.2c-1.1 0-2 .9-2 2s.9 2 2 2h2.4c.6 1.7 2 3.1 3.7 3.7v2.2c0 1.1.9 2 2 2s2-.9 2-2v-2.4c1.7-.6 3.1-2 3.7-3.7h2.2c1.1 0 2-.9 2-2 0-1-.9-1.9-2-1.9z"/></svg>