<?xml version="1.0" encoding="utf-8"?>
<!-- Generator: Adobe Illustrator 21.0.0, SVG Export Plug-In . SVG Version: 6.00 Build 0)  -->
<svg version="1.1" id="Layer_1" xmlns="http://www.w3.org/2000/svg" xmlns:xlink="http://www.w3.org/1999/xlink" x="0px" y="0px"
	 viewBox="0 0 47 64" style="enable-background:new 0 0 47 64;" xml:space="preserve">
<style type="text/css">
	.st0{fill:#333333;}
</style>
<title>paragraph</title>
<desc>Created with Sketch.</desc>
<path class="st0" d="M46,0H27.5H24h-1h-5C8.1,0,0,8.1,0,18c0,9.9,8.1,18,18,18h5v27c0,0.6,0.4,1,1,1h4c0.5,0,1-0.5,1-1V6h7v57
	c0,0.6,0.4,1,1,1h4c0.5,0,1-0.5,1-1V6h4c0.6,0,1-0.4,1-1V1C47,0.5,46.6,0,46,0z"/>
</svg>
