<svg xmlns="http://www.w3.org/2000/svg" viewBox="0 0 53 64" enable-background="new 0 0 53 64"><style type="text/css">.st0{fill:#343434;}</style><g id="paypal"><path id="Fill-4" class="st0" d="M48 18c-1.3 10.4-10.2 18.5-21 18.5h-6.3c-1.4 0-2.6.9-3 2.3l-3.7 22.2c-.3 1.6.9 3 2.5 3h7.2c1.2 0 2.3-.9 2.5-2.1l2-12.1c.4-2.1 2.2-3.6 4.3-3.6h1.9c10.2 0 18.6-8.3 18.6-18.5 0-4.1-2-7.6-5-9.7z"/><path id="Combined-Shape" class="st0" d="M45.9 14.9c-1.2 10.3-10.1 18.3-21 18.3h-6.3c-.8 0-1.5.3-2 .7l-.4 2.4c0 .1 0 .2-.1.3l-2.5 15.1c-.2 1.3-1.4 2.3-2.7 2.3h-8c-1.7 0-3.1-1.6-2.8-3.3l8-48.3c.3-1.4 1.4-2.4 2.8-2.4h21.9c7.3 0 13.2 5.9 13.2 13.2 0 .6 0 1.1-.1 1.7z"/></g></svg>