<?xml version="1.0" encoding="utf-8"?>
<!-- Generator: Adobe Illustrator 21.0.0, SVG Export Plug-In . SVG Version: 6.00 Build 0)  -->
<svg version="1.1" id="Layer_1" xmlns="http://www.w3.org/2000/svg" xmlns:xlink="http://www.w3.org/1999/xlink" x="0px" y="0px"
	 viewBox="0 0 53 64" style="enable-background:new 0 0 53 64;" xml:space="preserve">
<style type="text/css">
	.st0{fill:#343434;}
</style>
<g id="Page-1">
	<g id="Social-icons-_x28_65_x29_" transform="translate(-70.000000, -448.000000)">
		<g id="paypal" transform="translate(70.000000, 448.000000)">
			<path id="Fill-4" class="st0" d="M48,18c-1.3,10.4-10.2,18.5-21,18.5h-6.3c-1.4,0-2.6,0.9-3,2.3L14,61c-0.3,1.6,0.9,3,2.5,3h7.2
				c1.2,0,2.3-0.9,2.5-2.1l2-12.1c0.4-2.1,2.2-3.6,4.3-3.6h1.9c10.2,0,18.6-8.3,18.6-18.5C53,23.6,51,20.1,48,18z"/>
			<path id="Combined-Shape" class="st0" d="M45.9,14.9C46,14.9,46,14.9,45.9,14.9c-1.2,10.3-10.1,18.3-21,18.3h-6.3
				c-0.8,0-1.5,0.3-2,0.7l-0.4,2.4c0,0.1,0,0.2-0.1,0.3l-2.5,15.1C13.4,53,12.2,54,10.9,54h-8c-1.7,0-3.1-1.6-2.8-3.3L8.1,2.4
				C8.4,1,9.5,0,10.9,0h21.9C40.1,0,46,5.9,46,13.2C46,13.8,46,14.3,45.9,14.9z"/>
		</g>
	</g>
</g>
</svg>
