<svg xmlns="http://www.w3.org/2000/svg" viewBox="0 0 64 64" enable-background="new 0 0 64 64"><style type="text/css">.st0{fill:#333333;}</style><title>pen</title><desc>Created with Sketch.</desc><path class="st0" d="M62.9 7.2l-5.7-5.7c-.9-.9-2.2-1-2.8 0l-31.1 28.3-2.8 2.8-4.8 9.7-8.6 5.2-6.4 16.3 16.3-6.4 5.2-8.6 9.7-4.8 2.8-2.8 28.2-31.2c1-.6 1-1.9 0-2.8zm-48 48.1l-8 3.8 5.9-5.9.7-.7c.4-.4.4-1 0-1.4-.4-.4-1-.4-1.4 0l-.7.7-5.9 5.9 3.8-8 7.3-4 2.4 2.4-4.1 7.2zm6.4-10.6l-1.6-1.6 1.9-3.8 3.5 3.5-3.8 1.9zm7.7-3.6l-5.7-5.7 2.8-2.8 5.7 5.7-2.8 2.8zm5.7-5.6l-5.7-5.7 26.9-24 2.8 2.8-24 26.9z"/></svg>