<?xml version="1.0" encoding="utf-8"?>
<!-- Generator: Adobe Illustrator 21.0.0, SVG Export Plug-In . SVG Version: 6.00 Build 0)  -->
<svg version="1.1" id="Layer_1" xmlns="http://www.w3.org/2000/svg" xmlns:xlink="http://www.w3.org/1999/xlink" x="0px" y="0px"
	 viewBox="0 0 63 63" style="enable-background:new 0 0 63 63;" xml:space="preserve">
<style type="text/css">
	.st0{fill:#333333;}
</style>
<title>pencil</title>
<desc>Created with Sketch.</desc>
<path class="st0" d="M59.5,3.1c-3.9-3.9-10.2-3.9-14.1,0L45,3.4l-6.2,6.2L4.1,44.3L0.1,62.5l18.2-4.1l34.6-34.6l6.2-6.2l0.4-0.4
	C63.4,13.3,63.4,7,59.5,3.1z M45.7,8.4l8.5,8.5l-1.9,1.9l-8.5-8.5L45.7,8.4z M15.5,55.6L5,57.5L7,47.1l34.6-34.6l4.2,4.2L45.1,16
	L14,47.1l1.4,1.4l31.1-31.1l3.5,3.5L15.5,55.6z M47.8,6.3l0.7-0.7c2.3-2.3,6.2-2.3,8.5,0c2.3,2.3,2.3,6.1,0,8.5l-0.7,0.7L47.8,6.3z"
	/>
</svg>
