<?xml version="1.0" encoding="utf-8"?>
<!-- Generator: Adobe Illustrator 21.0.0, SVG Export Plug-In . SVG Version: 6.00 Build 0)  -->
<svg version="1.1" id="Layer_1" xmlns="http://www.w3.org/2000/svg" xmlns:xlink="http://www.w3.org/1999/xlink" x="0px" y="0px"
	 viewBox="0 0 38 64" style="enable-background:new 0 0 38 64;" xml:space="preserve">
<style type="text/css">
	.st0{fill:#333333;}
</style>
<title>phone</title>
<desc>Created with Sketch.</desc>
<g>
	<path class="st0" d="M34,0H4C1.8,0,0,1.8,0,4v56c0,2.2,1.8,4,4,4h30c2.2,0,4-1.8,4-4V4C38,1.8,36.2,0,34,0z M34,4c0,0,0,1.5,0,4H4
		c0-2.5,0-4,0-4C4,4,34,4,34,4z M34,12c0,9.4,0,25.1,0,36H4c0-10.9,0-26.6,0-36H34z M4,60c0,0,0-3.2,0-8h30c0,4.8,0,8,0,8
		C34,60,4,60,4,60z"/>
	<circle class="st0" cx="19" cy="56" r="3"/>
</g>
</svg>
