<svg xmlns="http://www.w3.org/2000/svg" viewBox="0 0 64 64" enable-background="new 0 0 64 64"><style type="text/css">.st0{fill:#343434;}</style><title>pictures</title><desc>Created with Sketch.</desc><path class="st0" d="M60 0h-40c-2.2 0-4 1.8-4 4v12h-12c-2.2 0-4 1.8-4 4v40c0 2.2 1.8 4 4 4h40c2.2 0 4-1.8 4-4v-12h12c2.2 0 4-1.8 4-4v-40c0-2.2-1.8-4-4-4zm-16 60h-34.4l8.4-11.6 8.5 10.2 2.3-1.9-5.2-6.2 8-10.4 12.4 10.4v9.5zm0-13.4l-12.8-10.8-9.5 12.4-3.9-4.6-11.9 16.4h-1.9v-40h40v26.6zm16-2.5h-12v-14.6l2.4-2.3 9.6 9.8v7.1zm0-11.5l-9.6-9.7-2.4 2.4v-5.3c0-2.2-1.8-4-4-4h-24v-12h40v28.6zM14 40c4.4 0 8-3.6 8-8s-3.6-8-8-8-8 3.6-8 8 3.6 8 8 8zm0-13c2.8 0 5 2.2 5 5s-2.2 5-5 5-5-2.2-5-5 2.2-5 5-5z"/></svg>