<svg xmlns="http://www.w3.org/2000/svg" viewBox="0 0 64 48" enable-background="new 0 0 64 48"><style type="text/css">.st0{fill:#343434;}</style><title>picture</title><desc>Created with Sketch.</desc><path class="st0" d="M59 0h-54c-2.8 0-5 2.2-5 5v38c0 2.8 2.2 5 5 5h54c2.8 0 5-2.2 5-5v-38c0-2.8-2.2-5-5-5zm-55 5c0-.6.4-1 1-1h54c.6 0 1 .4 1 1v26.5l-17.5-11.6-7.9 12-5.4-6.3-24.6 18.3c-.4-.2-.6-.5-.6-.9v-38zm55 39h-49.6l19.2-14.3 8.1 9.4 2.3-2-2.4-2.8 6.7-10.2 16.7 11v7.9c0 .6-.4 1-1 1zM16 24c4.4 0 8-3.6 8-8s-3.6-8-8-8-8 3.6-8 8 3.6 8 8 8zm0-13c2.8 0 5 2.2 5 5s-2.2 5-5 5-5-2.2-5-5 2.2-5 5-5z"/></svg>