<?xml version="1.0" encoding="utf-8"?>
<!-- Generator: Adobe Illustrator 21.0.0, SVG Export Plug-In . SVG Version: 6.00 Build 0)  -->
<svg version="1.1" id="Layer_1" xmlns="http://www.w3.org/2000/svg" xmlns:xlink="http://www.w3.org/1999/xlink" x="0px" y="0px"
	 viewBox="0 0 64 64" style="enable-background:new 0 0 64 64;" xml:space="preserve">
<style type="text/css">
	.st0{fill:#343434;}
</style>
<title>pictures</title>
<desc>Created with Sketch.</desc>
<g>
	<path class="st0" d="M60,0H20c-2.2,0-4,1.8-4,4v12H4c-2.2,0-4,1.8-4,4v40c0,2.2,1.8,4,4,4h40c2.2,0,4-1.8,4-4V48h12
		c2.2,0,4-1.8,4-4V4C64,1.8,62.2,0,60,0z M44,60c0,0-23.3,0-34.4,0L18,48.4l8.5,10.2l2.3-1.9l-5.2-6.2l8-10.4L44,50.5
		C44,56,44,60,44,60z M44,46.6L31.2,35.8l-9.5,12.4l-3.9-4.6L5.9,60C4.7,60,4,60,4,60V20c0,0,0.1,0,0.3,0C7.7,20,44,20,44,20
		S44,35,44,46.6z M60,44.1H48V44V29.5l2.4-2.3L60,37C60,41.2,60,44.1,60,44.1z M60,32.6l-9.6-9.7L48,25.3V20c0-2.2-1.8-4-4-4H20
		c0-4.7,0-12,0-12h40C60,4,60,20.8,60,32.6z"/>
	<path class="st0" d="M14,40c4.4,0,8-3.6,8-8c0-4.4-3.6-8-8-8s-8,3.6-8,8C6,36.4,9.6,40,14,40z M14,27c2.8,0,5,2.2,5,5s-2.2,5-5,5
		s-5-2.2-5-5S11.2,27,14,27z"/>
</g>
</svg>
