<?xml version="1.0" encoding="utf-8"?>
<!-- Generator: Adobe Illustrator 21.0.0, SVG Export Plug-In . SVG Version: 6.00 Build 0)  -->
<svg version="1.1" id="Layer_1" xmlns="http://www.w3.org/2000/svg" xmlns:xlink="http://www.w3.org/1999/xlink" x="0px" y="0px"
	 viewBox="0 0 64 64" style="enable-background:new 0 0 64 64;" xml:space="preserve">
<style type="text/css">
	.st0{fill:#333333;}
</style>
<title>pie-chart-alt</title>
<desc>Created with Sketch.</desc>
<g>
	<path class="st0" d="M0.1,30h9C10,18.9,18.9,10,30,9.1v-9C13.9,1.1,1.1,13.9,0.1,30z"/>
	<path class="st0" d="M34,0.1v9C45.8,10.1,55,20,55,32c0,5.9-2.2,11.3-5.8,15.3l6.4,6.4C60.8,48,64,40.4,64,32
		C64,15,50.7,1.1,34,0.1z"/>
	<path class="st0" d="M9.1,34h-9c1,16.1,13.9,28.9,29.9,29.9v-9C18.9,54,10,45.1,9.1,34z"/>
	<path class="st0" d="M34,54.9v9c7.1-0.4,13.5-3.2,18.6-7.5l-6.4-6.4C42.8,52.8,38.6,54.5,34,54.9z"/>
</g>
</svg>
