<?xml version="1.0" encoding="utf-8"?>
<!-- Generator: Adobe Illustrator 21.0.0, SVG Export Plug-In . SVG Version: 6.00 Build 0)  -->
<svg version="1.1" id="Layer_1" xmlns="http://www.w3.org/2000/svg" xmlns:xlink="http://www.w3.org/1999/xlink" x="0px" y="0px"
	 viewBox="0 0 30 64" style="enable-background:new 0 0 30 64;" xml:space="preserve">
<style type="text/css">
	.st0{fill:#343434;}
</style>
<title>pin-alt</title>
<desc>Created with Sketch.</desc>
<path class="st0" d="M15,0C6.7,0,0,6.7,0,15c0,7.6,5.7,13.9,13,14.9V30v32c0,1.1,0.9,2,2,2s2-0.9,2-2V30v-0.1c7.3-1,13-7.3,13-14.9
	C30,6.7,23.3,0,15,0z M14.9,26c-6.1,0-11-4.9-11-11s4.9-11,11-11c6.1,0,11,4.9,11,11S21,26,14.9,26z"/>
</svg>
