<?xml version="1.0" encoding="utf-8"?>
<!-- Generator: Adobe Illustrator 21.0.0, SVG Export Plug-In . SVG Version: 6.00 Build 0)  -->
<svg version="1.1" id="Layer_1" xmlns="http://www.w3.org/2000/svg" xmlns:xlink="http://www.w3.org/1999/xlink" x="0px" y="0px"
	 viewBox="0 0 61 61" style="enable-background:new 0 0 61 61;" xml:space="preserve">
<style type="text/css">
	.st0{fill:#343434;}
</style>
<title>pin-f</title>
<desc>Created with Sketch.</desc>
<path class="st0" d="M39,0.2c-0.1,0.1-0.2,0.2-0.3,0.3c-2.6,2.6-4,6.1-4.1,9.7L24,20.8c-6.3-1.5-13-0.2-18.2,4.2l13.4,13.4L0.8,56.8
	c-0.8,0.8-0.8,2,0,2.8c0.8,0.8,2,0.8,2.8,0l18.4-18.4l13.3,13.3c4.4-5.3,5.8-12.2,4.3-18.3l10.4-10.4c3.6-0.1,7.1-1.5,9.8-4.1
	c0.1-0.1,0.2-0.2,0.3-0.3L39,0.2z"/>
</svg>
