<?xml version="1.0" encoding="utf-8"?>
<!-- Generator: Adobe Illustrator 21.0.0, SVG Export Plug-In . SVG Version: 6.00 Build 0)  -->
<svg version="1.1" id="Layer_1" xmlns="http://www.w3.org/2000/svg" xmlns:xlink="http://www.w3.org/1999/xlink" x="0px" y="0px"
	 viewBox="0 0 61 61" style="enable-background:new 0 0 61 61;" xml:space="preserve">
<style type="text/css">
	.st0{fill:#343434;}
</style>
<title>pin</title>
<desc>Created with Sketch.</desc>
<path class="st0" d="M39,0.2c-0.1,0.1-0.2,0.2-0.3,0.3c-2.6,2.6-4,6.1-4.1,9.7L24,20.8c-6.3-1.5-13-0.2-18.2,4.2l13.4,13.4L0.8,56.8
	c-0.8,0.8-0.8,2,0,2.8c0.8,0.8,2,0.8,2.8,0l18.4-18.4l13.3,13.3c4.4-5.3,5.8-12.2,4.3-18.3l10.4-10.4c3.6-0.1,7.1-1.5,9.8-4.1
	c0.1-0.1,0.2-0.2,0.3-0.3L39,0.2z M49.9,21.9l-1.6,0L35.3,35l0.5,2.2c0.9,3.7,0.5,7.6-1.1,11.1l-9.8-9.8l-2.8-2.8l-9.9-9.9
	c3.4-1.6,7.2-1.9,10.9-1l2.2,0.5l13.3-13.3l0-1.6c0-1.4,0.3-2.8,0.9-4l14.6,14.6C52.8,21.5,51.4,21.8,49.9,21.9z"/>
</svg>
