<?xml version="1.0" encoding="utf-8"?>
<!-- Generator: Adobe Illustrator 21.0.0, SVG Export Plug-In . SVG Version: 6.00 Build 0)  -->
<svg version="1.1" id="Layer_1" xmlns="http://www.w3.org/2000/svg" xmlns:xlink="http://www.w3.org/1999/xlink" x="0px" y="0px"
	 viewBox="0 0 49 64" style="enable-background:new 0 0 49 64;" xml:space="preserve">
<style type="text/css">
	.st0{fill:#343434;}
</style>
<path class="st0" d="M48.7,17.8C47,5.2,34.6-1.3,21.4,0.2C10.9,1.4,0.5,10,0,22.3C-0.2,29.8,1.8,35.4,8.9,37c3-5.5-1-6.7-1.6-10.6
	c-2.6-16.2,18.4-27.3,29.4-16c7.6,7.8,2.6,32-9.6,29.4c-11.7-2.4,5.7-21.6-3.6-25.3c-7.6-3.1-11.7,9.4-8.1,15.5
	C13.2,40.7,8.7,50.7,10.5,64c6-4.4,8-12.9,9.6-21.7c3,1.9,4.6,3.8,8.5,4.1C42.8,47.5,50.7,32.1,48.7,17.8z"/>
</svg>
