<?xml version="1.0" encoding="utf-8"?>
<!-- Generator: Adobe Illustrator 21.0.0, SVG Export Plug-In . SVG Version: 6.00 Build 0)  -->
<svg version="1.1" id="Layer_1" xmlns="http://www.w3.org/2000/svg" xmlns:xlink="http://www.w3.org/1999/xlink" x="0px" y="0px"
	 viewBox="0 0 64 64" style="enable-background:new 0 0 64 64;" xml:space="preserve">
<style type="text/css">
	.st0{fill:#343434;}
</style>
<title>pinterest-circle</title>
<desc>Created with Sketch.</desc>
<path class="st0" d="M32,0C14.3,0,0,14.3,0,32c0,17.7,14.3,32,32,32s32-14.3,32-32C64,14.3,49.7,0,32,0z M35.6,42.8
	c-2.9-0.2-4.1-1.7-6.4-3.1C28,46.3,26.4,52.7,21.9,56c-1.4-10,2-17.5,3.6-25.5c-2.7-4.6,0.3-13.9,6.1-11.6c7.1,2.8-6.1,17.2,2.7,19
	c9.2,1.9,13-16.2,7.3-22.1c-8.3-8.5-24.1-0.2-22.2,12c0.5,3,3.5,3.9,1.2,8c-5.3-1.2-6.9-5.4-6.7-11c0.3-9.2,8.2-15.7,16.1-16.6
	c10-1.1,19.4,3.7,20.7,13.2C52.2,32.1,46.3,43.6,35.6,42.8z"/>
</svg>
