<?xml version="1.0" encoding="utf-8"?>
<!-- Generator: Adobe Illustrator 21.0.0, SVG Export Plug-In . SVG Version: 6.00 Build 0)  -->
<svg version="1.1" id="Layer_1" xmlns="http://www.w3.org/2000/svg" xmlns:xlink="http://www.w3.org/1999/xlink" x="0px" y="0px"
	 viewBox="0 0 64 64" style="enable-background:new 0 0 64 64;" xml:space="preserve">
<style type="text/css">
	.st0{fill:#343434;}
</style>
<g id="Page-1">
	<g id="Social-icons-_x28_65_x29_" transform="translate(-320.000000, -448.000000)">
		<g id="pinterest-square" transform="translate(320.000000, 448.000000)">
			<path id="Combined-Shape" class="st0" d="M0,4c0-2.2,1.8-4,4-4h56c2.2,0,4,1.8,4,4v56c0,2.2-1.8,4-4,4H4c-2.2,0-4-1.8-4-4V4z
				 M50.8,21.3C49.5,11.9,40.1,7,30.1,8.2C22.2,9.1,14.4,15.5,14,24.7c-0.2,5.6,1.4,9.8,6.7,11c2.3-4.1-0.7-5-1.2-8
				c-1.9-12.2,13.9-20.4,22.2-12c5.7,5.9,2,24-7.3,22.1c-8.9-1.8,4.3-16.2-2.7-19c-5.7-2.3-8.8,7-6.1,11.6c-1.6,8-5,15.5-3.6,25.5
				c4.5-3.3,6-9.7,7.3-16.3c2.3,1.4,3.5,2.8,6.4,3.1C46.3,43.6,52.2,32.1,50.8,21.3z"/>
		</g>
	</g>
</g>
</svg>
