<svg xmlns="http://www.w3.org/2000/svg" viewBox="0 0 58 63" enable-background="new 0 0 58 63"><style type="text/css">.st0{fill:#333333;}</style><title>pizza-slice-f</title><desc>Created with Sketch.</desc><path class="st0" d="M3.4 12.9l24.2 48.5c.7 1.5 1.9 1.5 2.7 0l24-48.1c-7.7-4-16.5-6.3-25.8-6.3-9 0-17.5 2.1-25.1 5.9zm14.6 15.1c-3.3 0-6-2.7-6-6s2.7-6 6-6 6 2.7 6 6-2.7 6-6 6zm15 2c2.8 0 5 2.2 5 5s-2.2 5-5 5-5-2.2-5-5 2.2-5 5-5zM28.5 0c-10.1 0-19.7 2.4-28.2 6.6l1.8 3.6c7.9-4 16.9-6.2 26.4-6.2 9.8 0 19.1 2.4 27.2 6.6l1.8-3.6c-8.7-4.5-18.6-7-29-7z"/></svg>