<?xml version="1.0" encoding="utf-8"?>
<!-- Generator: Adobe Illustrator 21.0.0, SVG Export Plug-In . SVG Version: 6.00 Build 0)  -->
<svg version="1.1" id="Layer_1" xmlns="http://www.w3.org/2000/svg" xmlns:xlink="http://www.w3.org/1999/xlink" x="0px" y="0px"
	 viewBox="0 0 58 63" style="enable-background:new 0 0 58 63;" xml:space="preserve">
<style type="text/css">
	.st0{fill:#333333;}
</style>
<title>pizza-slice-f</title>
<desc>Created with Sketch.</desc>
<g>
	<path class="st0" d="M3.4,12.9l24.2,48.5c0.7,1.5,1.9,1.5,2.7,0l24-48.1C46.6,9.3,37.8,7,28.5,7C19.5,7,11,9.1,3.4,12.9z M18,28
		c-3.3,0-6-2.7-6-6s2.7-6,6-6s6,2.7,6,6S21.3,28,18,28z M33,30c2.8,0,5,2.2,5,5s-2.2,5-5,5s-5-2.2-5-5S30.2,30,33,30z"/>
	<path class="st0" d="M28.5,0C18.4,0,8.8,2.4,0.3,6.6l1.8,3.6C10,6.2,19,4,28.5,4c9.8,0,19.1,2.4,27.2,6.6L57.5,7
		C48.8,2.5,38.9,0,28.5,0z"/>
</g>
</svg>
