<?xml version="1.0" encoding="utf-8"?>
<!-- Generator: Adobe Illustrator 21.0.0, SVG Export Plug-In . SVG Version: 6.00 Build 0)  -->
<svg version="1.1" id="Layer_1" xmlns="http://www.w3.org/2000/svg" xmlns:xlink="http://www.w3.org/1999/xlink" x="0px" y="0px"
	 viewBox="0 0 58 63" style="enable-background:new 0 0 58 63;" xml:space="preserve">
<style type="text/css">
	.st0{fill:#333333;}
</style>
<title>pizza-slice</title>
<desc>Created with Sketch.</desc>
<g>
	<path class="st0" d="M3.4,12.9l24.2,48.5c0.7,1.5,1.9,1.5,2.7,0l24-48.1C46.6,9.3,37.8,7,28.5,7C19.5,7,11,9.1,3.4,12.9z M14,21
		c0-2.8,2.2-5,5-5s5,2.2,5,5s-2.2,5-5,5S14,23.8,14,21z M38.9,35.3C39,34.9,39,34.4,39,34c0-3.9-3.1-7-7-7s-7,3.1-7,7
		c0,3.9,3.1,7,7,7c2.1,0,3.9-0.9,5.2-2.3L29,55.1L15.6,28.2c1,0.5,2.2,0.8,3.4,0.8c4.4,0,8-3.6,8-8s-3.6-8-8-8
		c-3.9,0-7.1,2.7-7.8,6.4l-2.3-4.6C15,12.3,21.7,11,28.5,11c7.1,0,14.1,1.4,20.5,4.1L38.9,35.3z M36,34c0,2.2-1.8,4-4,4s-4-1.8-4-4
		c0-2.2,1.8-4,4-4S36,31.8,36,34z"/>
	<path class="st0" d="M28.5,0C18.4,0,8.8,2.4,0.3,6.6l1.8,3.6C10,6.2,19,4,28.5,4c9.8,0,19.1,2.4,27.2,6.6L57.5,7
		C48.8,2.5,38.9,0,28.5,0z"/>
</g>
</svg>
