<svg xmlns="http://www.w3.org/2000/svg" viewBox="0 0 64 65"><path d="M64 40V28l-24.6-6.2.4-11c.1-3-1.4-6.3-3.7-8.5-2-1.9-3-2.1-3.2-2.1h-1.8c-.1 0-1.2.2-3.2 2.1-2.3 2.2-3.8 5.5-3.7 8.5l.4 11L0 28v12l25.2-2 .6 16.7L18 57v7.2l12.4-1c.4.5 1 .9 1.6.9s1.3-.3 1.6-.9l12.4 1V57l-7.8-2.3.6-16.7L64 40zm-3-9.7v6.4L38.9 35l.4-10.1L61 30.3zM31.7 3.1h.5c2.6 1.3 4.7 4.7 4.6 7.6L35 58.9c0 .6-.5 1-1 1.1v-7c0-1.1-.9-2-2-2s-2 .9-2 2v7c-.3 0-.6-.2-.8-.5-.1-.3-.2-.6-.2-.9v-.3l-1.7-47.5c-.2-3.3 2-6.9 4.4-7.7zM3 36.8v-6.4l21.7-5.5.4 10.1L3 36.8zm18 24.1v-1.7l4.9-1.4.1.6v.6c0 .5.1 1 .3 1.5l-5.3.4zm17.2-3.1l4.8 1.4v1.7l-5.3-.4c.2-.5.3-1.1.4-1.7l.1-1zM35 10V8l-3-1-3 1v2l3-1z" fill="#333"/></svg>