<svg xmlns="http://www.w3.org/2000/svg" viewBox="0 0 48 64" enable-background="new 0 0 48 64"><style type="text/css">.st0{fill:#333333;}</style><title>pocket-watch</title><desc>Created with Sketch.</desc><path class="st0" d="M31.1 17.1c1.8-1.8 2.9-4.3 2.9-7.1 0-5.5-4.5-10-10-10s-10 4.5-10 10c0 2.8 1.1 5.3 2.9 7.1-9.8 3-16.9 12.1-16.9 22.9 0 13.3 10.7 24 24 24s24-10.7 24-24c0-10.8-7.1-19.9-16.9-22.9zm-14.1-7.1c0-3.9 3.1-7 7-7s7 3.1 7 7c0 2.7-1.5 5.1-3.8 6.2l-1.5-.2c.2-.3.3-.7.3-1.1 0-1.1-.9-2-2-2s-2 .9-2 2c0 .4.1.8.3 1.1-.5 0-1 .1-1.5.2-2.3-1.1-3.8-3.5-3.8-6.2zm7 50c-11 0-20-9-20-20s9-20 20-20 20 9 20 20-9 20-20 20zM35 40h-10v-17c0-.6-.4-1-1-1h-1c-.6 0-1 .4-1 1v19c0 .6.4 1 1 1h12c.6 0 1-.4 1-1v-1c0-.6-.4-1-1-1z"/></svg>