<svg xmlns="http://www.w3.org/2000/svg" viewBox="0 0 50 62" enable-background="new 0 0 50 62"><style type="text/css">.st0{fill:#333333;}</style><title>popcorn</title><desc>Created with Sketch.</desc><path class="st0" d="M43 7c-.9 0-1.8.2-2.6.5-1-2.1-3-3.5-5.4-3.5-1.1 0-2.1.3-3 .8l-.1.1-.1-.1c-1.4-2.3-3.9-3.8-6.8-3.8-1.4 0-2.7.4-3.9 1l-1.4 1-1-1.1c-1.2-1.2-2.9-1.9-4.7-1.9-3.9 0-7 3.1-7 7v.6l.1.5h-.6c-3.7.7-6.5 4-6.5 7.9 0 .7 0 1.4.1 2h-.1l4.7 43c.1.6.6 1 1.1 1h36.4c.6 0 1.1-.4 1.1-1l4.5-41.4c1.4-1.5 2.2-3.6 2.2-5.6 0-3.9-3.1-7-7-7zm-39 9c0-1 .4-2 1-2.7.6-.7 1.5-1.2 2.5-1.3 0 0 2.9 1.1 4.1-.5 1.3-1.5-.6-4-.6-4v-.5c0-.8.3-1.6.9-2.1.5-.6 1.3-.9 2.1-.9 1 0 1.9.5 2.5 1.3l.5 1.1v2.1c0 1.4 1.1 2.5 2.5 2.5s2.5-1.1 2.5-2.5v-2.2l.4-.3c.7-.6 1.6-1 2.6-1 .7 0 1.4.2 2 .5.6.3 1.1.8 1.5 1.4 0 0-.6 4.4 2.1 4.6 2.7.2 3.4-3.3 3.4-3.3.3-.1.6-.2 1-.2s.8.1 1.1.3c.3.2.6.5.7.8 0 0-.2 4.2 2.5 4.2l2.6-2.1c.3-.1.7-.2 1.1-.2 1.7 0 3 1.3 3 3 0 1.6-1.3 3.8-2.8 4h-39.1c-.1-.5-.1-1.1-.1-2zm20 30c-3.3 0-6-2.7-6-6s2.7-6 6-6 6 2.7 6 6-2.7 6-6 6zm-19.5-24h17.5v8.2c-4.6.9-8 5-8 9.8s3.4 8.9 8 9.8v8.2h-13.6l-3.9-36zm35.1 36h-13.6v-8.2c4.6-.9 8-5 8-9.8s-3.4-8.9-8-9.8v-8.2h17.5l-3.9 36z"/></svg>