<?xml version="1.0" encoding="utf-8"?>
<!-- Generator: Adobe Illustrator 21.0.0, SVG Export Plug-In . SVG Version: 6.00 Build 0)  -->
<svg version="1.1" id="Layer_1" xmlns="http://www.w3.org/2000/svg" xmlns:xlink="http://www.w3.org/1999/xlink" x="0px" y="0px"
	 viewBox="0 0 56 64" style="enable-background:new 0 0 56 64;" xml:space="preserve">
<style type="text/css">
	.st0{fill:#333333;}
</style>
<title>power</title>
<desc>Created with Sketch.</desc>
<g>
	<path class="st0" d="M28,35c1.7,0,3-1.3,3-3V3c0-1.6-1.3-3-3-3s-3,1.3-3,3v29C25,33.6,26.3,35,28,35z"/>
	<path class="st0" d="M34,8.6V14c9.7,2.6,16.8,11.5,16.8,22c0,12.6-10.2,22.8-22.8,22.8S5.2,48.6,5.2,36c0-10.5,7.1-19.3,16.8-22
		V8.6C9.4,11.4,0,22.6,0,36c0,15.5,12.5,28,28,28s28-12.5,28-28C56,22.6,46.6,11.4,34,8.6z"/>
</g>
</svg>
