<?xml version="1.0" encoding="utf-8"?>
<!-- Generator: Adobe Illustrator 21.0.0, SVG Export Plug-In . SVG Version: 6.00 Build 0)  -->
<svg version="1.1" id="Layer_1" xmlns="http://www.w3.org/2000/svg" xmlns:xlink="http://www.w3.org/1999/xlink" x="0px" y="0px"
	 viewBox="0 0 64 64" style="enable-background:new 0 0 64 64;" xml:space="preserve">
<style type="text/css">
	.st0{fill:#343434;}
</style>
<title>printer</title>
<desc>Created with Sketch.</desc>
<g>
	<path class="st0" d="M56,10h-4V3c0-1.7-1.3-3-3-3H15c-1.7,0-3,1.3-3,3v7H8c-4.4,0-8,3.6-8,8v16c0,4.4,3.6,8,8,8h4v19
		c0,1.7,1.3,3,3,3h34c1.7,0,3-1.3,3-3V42h4c4.4,0,8-3.6,8-8V18C64,13.6,60.4,10,56,10z M16,4h32v6H16V4z M48,60H16V42v-7h32v7V60z
		 M60,34c0,2.2-1.8,4-4,4h-4v-7H12v7H8c-2.2,0-4-1.8-4-4V18c0-2.2,1.8-4,4-4h4h40h4c2.2,0,4,1.8,4,4V34z"/>
	<circle class="st0" cx="12" cy="19" r="2"/>
	<path class="st0" d="M44.5,53h-25c-0.8,0-1.5,0.7-1.5,1.5s0.7,1.5,1.5,1.5h25c0.8,0,1.5-0.7,1.5-1.5S45.3,53,44.5,53z"/>
	<path class="st0" d="M44.5,46h-25c-0.8,0-1.5,0.7-1.5,1.5s0.7,1.5,1.5,1.5h25c0.8,0,1.5-0.7,1.5-1.5S45.3,46,44.5,46z"/>
	<path class="st0" d="M44.5,39h-25c-0.8,0-1.5,0.7-1.5,1.5s0.7,1.5,1.5,1.5h25c0.8,0,1.5-0.7,1.5-1.5S45.3,39,44.5,39z"/>
</g>
</svg>
