<svg xmlns="http://www.w3.org/2000/svg" viewBox="0 0 64 64" enable-background="new 0 0 64 64"><style type="text/css">.st0{fill:#343434;}</style><title>printer</title><desc>Created with Sketch.</desc><path class="st0" d="M56 10h-4v-7c0-1.7-1.3-3-3-3h-34c-1.7 0-3 1.3-3 3v7h-4c-4.4 0-8 3.6-8 8v16c0 4.4 3.6 8 8 8h4v19c0 1.7 1.3 3 3 3h34c1.7 0 3-1.3 3-3v-19h4c4.4 0 8-3.6 8-8v-16c0-4.4-3.6-8-8-8zm-40-6h32v6h-32v-6zm32 56h-32v-25h32v25zm12-26c0 2.2-1.8 4-4 4h-4v-7h-40v7h-4c-2.2 0-4-1.8-4-4v-16c0-2.2 1.8-4 4-4h48c2.2 0 4 1.8 4 4v16z"/><circle class="st0" cx="12" cy="19" r="2"/><path class="st0" d="M44.5 53h-25c-.8 0-1.5.7-1.5 1.5s.7 1.5 1.5 1.5h25c.8 0 1.5-.7 1.5-1.5s-.7-1.5-1.5-1.5zM44.5 46h-25c-.8 0-1.5.7-1.5 1.5s.7 1.5 1.5 1.5h25c.8 0 1.5-.7 1.5-1.5s-.7-1.5-1.5-1.5zM44.5 39h-25c-.8 0-1.5.7-1.5 1.5s.7 1.5 1.5 1.5h25c.8 0 1.5-.7 1.5-1.5s-.7-1.5-1.5-1.5z"/></svg>