<?xml version="1.0" encoding="utf-8"?>
<!-- Generator: Adobe Illustrator 21.0.0, SVG Export Plug-In . SVG Version: 6.00 Build 0)  -->
<svg version="1.1" id="Layer_1" xmlns="http://www.w3.org/2000/svg" xmlns:xlink="http://www.w3.org/1999/xlink" x="0px" y="0px"
	 viewBox="0 0 65 59" style="enable-background:new 0 0 65 59;" xml:space="preserve">
<style type="text/css">
	.st0{fill:#333333;}
</style>
<title>random</title>
<desc>Created with Sketch.</desc>
<path class="st0" d="M54.3,35.4c-1.2-1.2-3.1-1.2-4.2,0c-1.2,1.2-1.2,3.1,0,4.2l3.6,3.6h-3.2h-8c-5.5,0-10-4.5-10-10v-8
	c0-5.5,4.5-10,10-10h8h3.7l-4.1,4.1c-1.2,1.2-1.2,3.1,0,4.2c1.2,1.2,3.1,1.2,4.2,0l9.9-9.9c0.2-0.2,0.3-0.4,0.3-0.7
	c0-0.3-0.1-0.5-0.3-0.7l-9.9-9.9c-1.2-1.2-3.1-1.2-4.2,0c-1.2,1.2-1.2,3.1,0,4.2l2.6,2.6H42.5c-5.4,0-10.1,2.6-13,6.7
	c-2.9-4-7.6-6.7-13-6.7h-15c-0.5,0-1,0.4-1,1v5h8h8c5.5,0,10,4.5,10,10v8c0,5.5-4.5,10-10,10h-8h-8v5c0,0.6,0.5,1,1,1h15
	c5.4,0,10.1-2.6,13-6.7c2.9,4,7.6,6.7,13,6.7h10.7l-3.1,3.1c-1.2,1.2-1.2,3.1,0,4.2c1.2,1.2,3.1,1.2,4.2,0l9.9-9.9
	c0.2-0.2,0.3-0.4,0.3-0.7c0-0.1-0.1-0.3-0.3-0.5L54.3,35.4z"/>
</svg>
