<?xml version="1.0" encoding="utf-8"?>
<!-- Generator: Adobe Illustrator 21.0.0, SVG Export Plug-In . SVG Version: 6.00 Build 0)  -->
<svg version="1.1" id="Layer_1" xmlns="http://www.w3.org/2000/svg" xmlns:xlink="http://www.w3.org/1999/xlink" x="0px" y="0px"
	 viewBox="0 0 64 53" style="enable-background:new 0 0 64 53;" xml:space="preserve">
<style type="text/css">
	.st0{fill:#343434;}
</style>
<g>
	<path class="st0" d="M64,24L64,24L64,24L64,24c-0.1-1.8-0.9-3.4-2-4.7c-1.1-1.3-2.6-2.2-4.3-2.7c0,0,0,0,0,0l0,0h0
		c-0.7-0.2-1.4-0.3-2.2-0.3c-1.6,0-3.3,0.5-4.6,1.4c-0.4,0.2-0.7,0.5-1,0.7c-0.1-0.1-0.3-0.2-0.4-0.2l-0.1,0h0
		c-4.5-2.6-9.7-3.8-14.9-4.2c0-2.1,0.2-4.1,1.1-5.9v0c0.6-1.2,1.9-2.1,3.2-2.2h0c0.3,0,0.5,0,0.8,0c1.8,0,3.6,0.6,5.3,1.4
		c0,0.1,0,0.2,0,0.3c0,1.9,0.8,3.6,2,4.9c1.2,1.3,2.9,2.2,4.7,2.3c0.3,0,0.6,0.1,0.9,0.1c1.8,0,3.6-0.7,5-1.9
		c1.4-1.2,2.3-2.8,2.5-4.7v0l0,0c0-0.3,0-0.5,0-0.8c0-1.5-0.5-2.9-1.3-4.1c-0.8-1.2-1.9-2.1-3.3-2.7c0,0,0,0,0,0l0,0v0
		C54.5,0.2,53.5,0,52.5,0c-0.9,0-1.9,0.2-2.8,0.4l0,0l0,0c-1.5,0.6-2.8,1.7-3.7,3c-2-0.8-4.2-1.3-6.4-1.3c-0.8,0-1.7,0.1-2.5,0.2h0
		l0,0c-2.2,0.5-4,2.1-5.1,4c-1.3,2.4-1.6,5.1-1.6,7.6c-5.2,0.3-10.6,1.3-15.2,4.1c-0.3,0.1-0.6,0.3-0.8,0.4c-0.8-0.6-1.6-1-2.5-1.4
		h0l0,0c-1-0.4-2.1-0.6-3.1-0.6c-0.2,0-0.4,0-0.7,0H7.9c-2.1,0-4.1,1-5.5,2.4C0.9,20.5,0,22.5,0,24.6v0c0.1,1.5,0.6,2.9,1.4,4.2
		c0.8,1.1,1.8,2.1,3,2.8c-0.1,0.6-0.1,1.2-0.1,1.9c0,2.7,0.8,5.5,2.2,7.8c2.7,4.4,7,7.3,11.6,9.2h0v0c4.4,1.8,9.1,2.6,13.8,2.6
		c3.2,0,6.3-0.4,9.4-1.1l0,0c5.8-1.5,11.5-4.4,15.2-9.3h0v0c2-2.6,3.2-5.9,3.2-9.2c0-0.6,0-1.2-0.1-1.9c1.2-0.7,2.3-1.7,3.1-2.8
		c0.8-1.3,1.3-2.7,1.3-4.3C64,24.3,64,24.1,64,24z M49.6,5.1c0.5-0.6,1.2-1.1,1.9-1.2l0,0h0c0.3-0.1,0.6-0.1,0.9-0.1
		c0.9,0,1.8,0.4,2.5,1.1C55.6,5.4,56,6.3,56,7.2c0,0.1,0,0.1,0,0.2v0c0,0.9-0.5,1.7-1.1,2.3c-0.7,0.6-1.5,1-2.4,1
		c-0.1,0-0.1,0-0.2,0h0c-0.9,0-1.7-0.4-2.4-1c-0.6-0.6-1.1-1.4-1.1-2.3v0c0-0.1,0-0.1,0-0.2C48.8,6.5,49.1,5.7,49.6,5.1z M5.6,27.5
		c-0.4-0.3-0.7-0.7-0.9-1.1c-0.3-0.6-0.5-1.2-0.5-1.8c0-0.1,0-0.2,0-0.2l0,0v0c0-1,0.5-2,1.3-2.7c0.8-0.7,1.8-1.1,2.8-1.2l0,0h0
		c0.1,0,0.2,0,0.4,0c0.7,0,1.4,0.2,2.1,0.5C8.7,22.8,6.8,25,5.6,27.5z M55.5,35.5L55.5,35.5c-0.3,1.7-1.1,3.3-2.1,4.6
		c-1,1.4-2.3,2.6-3.7,3.6v0c-4.3,3.2-9.7,4.8-15,5.2C33.8,49,32.9,49,32,49c-5.3,0-10.6-1.1-15.2-3.7c-0.4-0.2-0.7-0.4-1.1-0.6
		c-1.6-1-3.1-2.2-4.3-3.7c-1.2-1.4-2.2-3.1-2.7-4.9l0,0c-0.2-0.8-0.3-1.7-0.3-2.5c0-2.3,0.8-4.6,2.2-6.5v0c2.7-3.7,6.9-6.1,11.2-7.5
		c3.3-1,6.8-1.5,10.3-1.5c2.6,0,5.2,0.3,7.7,0.9c0.8,0.2,1.7,0.4,2.5,0.7l0,0c4.3,1.3,8.5,3.8,11.2,7.5c1.3,1.9,2.2,4.2,2.2,6.4
		C55.7,34.2,55.6,34.8,55.5,35.5z M59.4,26.3c-0.2,0.5-0.6,0.9-1,1.2c-1.2-2.6-3.1-4.8-5.2-6.6c0.7-0.3,1.4-0.5,2.2-0.5
		c0.8,0,1.7,0.2,2.4,0.6c0.7,0.4,1.3,1,1.7,1.7l0,0l0,0c0.3,0.5,0.4,1.1,0.4,1.6C59.9,25.1,59.7,25.7,59.4,26.3z"/>
	<path class="st0" d="M43.2,39.1c-0.3-0.2-0.7-0.3-1.1-0.3c-0.3,0-0.7,0.1-1,0.3c-2.8,1.7-6.2,2.6-9.5,2.6c-2.5,0-4.9-0.5-7.2-1.6
		l0,0l0,0c-0.3-0.1-0.7-0.4-1.1-0.7c-0.2-0.1-0.4-0.3-0.7-0.4c-0.2-0.1-0.5-0.2-0.8-0.2c-0.2,0-0.5,0.1-0.7,0.2c0,0,0,0,0,0
		c-0.4,0.1-0.7,0.4-0.9,0.7c-0.2,0.3-0.3,0.7-0.3,1.1c0,0.3,0.1,0.7,0.3,1c0.2,0.3,0.4,0.6,0.7,0.7c3.2,2.1,6.9,3.1,10.7,3.1
		c3.4,0,6.8-0.8,9.9-2.2l0,0l0,0c0.4-0.2,0.9-0.4,1.4-0.8c0.2-0.2,0.5-0.3,0.7-0.6c0.2-0.2,0.4-0.5,0.5-0.9c0-0.2,0.1-0.3,0.1-0.4
		c0-0.3-0.1-0.5-0.2-0.8C43.8,39.6,43.5,39.3,43.2,39.1z"/>
	<path class="st0" d="M45.8,28.9C45.8,28.9,45.8,28.9,45.8,28.9C45.8,28.9,45.8,28.8,45.8,28.9c-0.3-0.9-0.8-1.5-1.5-2
		c-0.7-0.5-1.5-0.7-2.4-0.7c-0.5,0-0.9,0.1-1.4,0.2c0,0,0,0,0,0h0c-0.8,0.3-1.4,0.8-1.9,1.4c-0.5,0.7-0.8,1.5-0.8,2.3
		c0,0.2,0,0.5,0.1,0.7h0c0,0,0,0,0,0v0c0.2,1,0.7,1.8,1.4,2.3c0.7,0.6,1.6,0.9,2.6,0.9c0.4,0,0.8-0.1,1.2-0.2h0c0,0,0,0,0,0h0
		c0.8-0.2,1.5-0.8,2-1.4c0.5-0.7,0.8-1.5,0.8-2.4C46,29.7,45.9,29.3,45.8,28.9L45.8,28.9z"/>
	<path class="st0" d="M20.8,34C20.8,34,20.8,34,20.8,34c0.4,0.2,0.8,0.2,1.3,0.2c1,0,2-0.4,2.8-1.1c0.8-0.7,1.3-1.7,1.3-2.8v-0.1
		c0,0,0-0.1,0-0.2c0-1.1-0.5-2.1-1.3-2.8c-0.8-0.7-1.8-1.1-2.8-1.1c-0.3,0-0.6,0-0.8,0.1c0,0,0,0,0,0h0c-1.4,0.3-2.6,1.3-3,2.7
		c0,0,0,0,0,0c-0.1,0.4-0.2,0.8-0.2,1.2c0,0.9,0.3,1.7,0.8,2.4C19.3,33.2,20,33.7,20.8,34C20.8,34,20.8,34,20.8,34z"/>
</g>
</svg>
