<svg xmlns="http://www.w3.org/2000/svg" viewBox="0 0 54 64" enable-background="new 0 0 54 64"><style type="text/css">.st0{fill:#343434;}</style><title>rocket</title><desc>Created with Sketch.</desc><path class="st0" d="M27 20c-4.4 0-8 3.6-8 8s3.6 8 8 8 8-3.6 8-8-3.6-8-8-8zm0 13c-2.8 0-5-2.2-5-5s2.2-5 5-5 5 2.2 5 5-2.2 5-5 5zM42.5 36c.1-7.2-.3-15-1.7-21.2-3-12.6-13.8-14.8-13.8-14.8s-10.9 2.2-13.8 14.8c-1.5 6.3-1.8 14-1.7 21.3-4.7 2.5-8.6 6.2-11.5 10.7v9.2h12.799999999999999c.2 1.9.4 3 .4 3h1.8v5h24v-5h1.7s.2-1.1.4-3h12.899999999999999v-9.2c-2.9-4.5-6.8-8.2-11.5-10.8zm-39.5 17v-5.3c2.2-3.2 5-6 8.3-8.1.1 3.3.3 6.7.6 10 .1 1.2.2 2.3.3 3.4h-9.2zm18.8-47c1.3-1.1 2.7-1.9 4.1-2.5.4-.2.8-.3 1.1-.4.3.1.7.2 1.1.4 1.4.6 2.8 1.4 4.1 2.5 1.5 1.4 2.8 3 3.8 4.9-2.6 1.4-5.7 2.1-9 2.1s-6.5-.8-9-2.2c1-1.9 2.3-3.5 3.8-4.8zm14.2 55h-18v-2h18v2zm2.6-9.9c-.2 1.8-.3 3.4-.5 5h-.4v-.1h-8.7v-14c0-1.1-.9-2-2-2s-2 .9-2 2v14h-9.2c-.2-1.5-.4-3.2-.5-5-.7-7-1-14-.8-20.6.1-5.8.7-10.9 1.6-15 .2-.7.3-1.3.5-1.9 3 1.6 6.6 2.5 10.4 2.5s7.4-.9 10.3-2.4c.2.6.4 1.2.5 1.9 1 4.1 1.5 9.2 1.6 15 .2 6.6-.2 13.6-.8 20.6zm12.4 1.9h-9.3c.1-1.1.2-2.2.3-3.4.3-3.3.5-6.7.6-10 3.3 2.1 6.1 4.9 8.4 8.1v5.3z"/></svg>