<?xml version="1.0" encoding="utf-8"?>
<!-- Generator: Adobe Illustrator 21.0.0, SVG Export Plug-In . SVG Version: 6.00 Build 0)  -->
<svg version="1.1" id="Layer_1" xmlns="http://www.w3.org/2000/svg" xmlns:xlink="http://www.w3.org/1999/xlink" x="0px" y="0px"
	 viewBox="0 0 63 63" style="enable-background:new 0 0 63 63;" xml:space="preserve">
<style type="text/css">
	.st0{fill:#333333;}
</style>
<title>ruler</title>
<desc>Created with Sketch.</desc>
<g>
	<path class="st0" d="M62.2,14.1L49.5,1.4c-0.8-0.8-2-0.8-2.8,0L1.4,46.7c-0.8,0.8-0.8,2,0,2.8l12.7,12.7c0.8,0.8,2,0.8,2.8,0
		L62.2,17C63,16.2,63,14.9,62.2,14.1z M55.9,17.7l-3.5-3.5c-0.4-0.4-1-0.4-1.4,0c-0.4,0.4-0.4,1,0,1.4l3.5,3.5l-2.1,2.1l-5-5
		c-0.4-0.4-1-0.4-1.4,0c-0.4,0.4-0.4,1,0,1.4l5,5l-2.1,2.1l-3.5-3.5c-0.4-0.4-1-0.4-1.4,0c-0.4,0.4-0.4,1,0,1.4l3.5,3.5l-2.1,2.1
		l-5-5c-0.4-0.4-1-0.4-1.4,0c-0.4,0.4-0.4,1,0,1.4l5,5l-2.1,2.1l-3.5-3.5c-0.4-0.4-1-0.4-1.4,0c-0.4,0.4-0.4,1,0,1.4l3.5,3.5
		l-2.1,2.1l-5-5c-0.4-0.4-1-0.4-1.4,0c-0.4,0.4-0.4,1,0,1.4l5,5l-2.1,2.1l-3.5-3.5c-0.4-0.4-1-0.4-1.4,0c-0.4,0.4-0.4,1,0,1.4
		l3.5,3.5l-2.1,2.1l-5-5c-0.4-0.4-1-0.4-1.4,0c-0.4,0.4-0.4,1,0,1.4l5,5L27.6,46L24,42.4c-0.4-0.4-1-0.4-1.4,0c-0.4,0.4-0.4,1,0,1.4
		l3.5,3.5L15.6,58l-9.9-9.9L48.1,5.7l9.9,9.9L55.9,17.7z"/>
	<ellipse transform="matrix(0.7071 -0.7071 0.7071 0.7071 -30.1507 24.7904)" class="st0" cx="14.8" cy="48.8" rx="3" ry="3"/>
</g>
</svg>
