<svg xmlns="http://www.w3.org/2000/svg" viewBox="0 0 63 63" enable-background="new 0 0 63 63"><style type="text/css">.st0{fill:#333333;}</style><title>ruler</title><desc>Created with Sketch.</desc><path class="st0" d="M62.2 14.1l-12.7-12.7c-.8-.8-2-.8-2.8 0l-45.3 45.3c-.8.8-.8 2 0 2.8l12.7 12.7c.8.8 2 .8 2.8 0l45.3-45.2c.8-.8.8-2.1 0-2.9zm-6.3 3.6l-3.5-3.5c-.4-.4-1-.4-1.4 0-.4.4-.4 1 0 1.4l3.5 3.5-2.1 2.1-5-5c-.4-.4-1-.4-1.4 0-.4.4-.4 1 0 1.4l5 5-2.1 2.1-3.5-3.5c-.4-.4-1-.4-1.4 0-.4.4-.4 1 0 1.4l3.5 3.5-2.1 2.1-5-5c-.4-.4-1-.4-1.4 0-.4.4-.4 1 0 1.4l5 5-2.1 2.1-3.5-3.5c-.4-.4-1-.4-1.4 0-.4.4-.4 1 0 1.4l3.5 3.5-2.1 2.1-5-5c-.4-.4-1-.4-1.4 0-.4.4-.4 1 0 1.4l5 5-2.1 2.1-3.5-3.5c-.4-.4-1-.4-1.4 0-.4.4-.4 1 0 1.4l3.5 3.5-2.1 2.1-5-5c-.4-.4-1-.4-1.4 0-.4.4-.4 1 0 1.4l5 5-2.4 2.4-3.6-3.6c-.4-.4-1-.4-1.4 0-.4.4-.4 1 0 1.4l3.5 3.5-10.5 10.7-9.9-9.9 42.4-42.4 9.9 9.9-2.1 2.1z"/><ellipse transform="matrix(.707 -.707 .707 .707 -30.151 24.79)" class="st0" cx="14.8" cy="48.8" rx="3" ry="3"/></svg>