<svg xmlns="http://www.w3.org/2000/svg" viewBox="0 0 62 64" enable-background="new 0 0 62 64"><style type="text/css">.st0{fill:#343434;}</style><title>scissors</title><desc>Created with Sketch.</desc><path class="st0" d="M61 20.8l-.1-.2-30.9 10.7v-31.3h-.2c-4.5 0-8 3.7-7.8 8.2l1.1 25.5-5.7 2c-1.9-4.1-6.7-6.2-11.1-4.7-4.7 1.6-7.2 6.7-5.6 11.4s6.7 7.2 11.4 5.6c2.8-1 4.9-3.2 5.7-5.9l5.6-1.6.3 7.3c-2.2 1.5-3.7 4.2-3.7 7.2 0 5 4 9 9 9s9-4 9-9c0-4.6-3.5-8.4-8-8.9v-7.6l25.8-7.7c4.3-1.2 6.7-5.7 5.2-10zm-50.1 23.4c-2.6.9-5.5-.5-6.4-3.1-.9-2.6.5-5.5 3.1-6.4 2.6-.9 5.5.5 6.4 3.1.9 2.7-.5 5.5-3.1 6.4zm23.1 10.8c0 2.8-2.2 5-5 5s-5-2.2-5-5 2.2-5 5-5 5 2.2 5 5z"/></svg>