<svg xmlns="http://www.w3.org/2000/svg" viewBox="0 0 62 64"><path d="M61 20.8l-.1-.2L30 31.3V0h-.2c-4.5 0-8 3.7-7.8 8.2l1.1 25.5-5.7 2c-1.9-4.1-6.7-6.2-11.1-4.7C1.6 32.6-.9 37.7.7 42.4s6.7 7.2 11.4 5.6c2.8-1 4.9-3.2 5.7-5.9l5.6-1.6.3 7.3C21.5 49.3 20 52 20 55c0 5 4 9 9 9s9-4 9-9c0-4.6-3.5-8.4-8-8.9v-7.6l25.8-7.7c4.3-1.2 6.7-5.7 5.2-10zM10.9 44.2c-2.6.9-5.5-.5-6.4-3.1-.9-2.6.5-5.5 3.1-6.4 2.6-.9 5.5.5 6.4 3.1.9 2.7-.5 5.5-3.1 6.4zM34 55c0 2.8-2.2 5-5 5s-5-2.2-5-5 2.2-5 5-5 5 2.2 5 5z" fill="#343434"/></svg>