<svg xmlns="http://www.w3.org/2000/svg" viewBox="0 0 60 60" enable-background="new 0 0 60 60"><style type="text/css">.st0{fill:#343434;}</style><title>screwdriver</title><desc>Created with Sketch.</desc><path class="st0" d="M57.5 3.7l-1.5-1.4c-2.3-2.3-6.1-2.3-8.5 0l-21.2 21.2 2.8 2.8-27.5 27.6c-1.2 1.2-1.2 3.1 0 4.2 1.2 1.2 3.1 1.2 4.2 0l27.6-27.6 2.8 2.8 21.2-21.2c2.4-2.2 2.4-6 .1-8.4zm-53.1 53.1c-.4.4-1 .4-1.4 0-.4-.4-.4-1 0-1.4l27.6-27.6 1.4 1.4-27.6 27.6zm50.9-46.7l-19.1 19.1-5.7-5.7 19.2-19.1c1.2-1.2 3.1-1.2 4.2 0l1.4 1.4c1.2 1.2 1.2 3.1 0 4.3zM51.1 7.3l-15.6 15.5c-.4.4-.4 1 0 1.4.4.4 1 .4 1.4 0l15.6-15.5c.4-.4.4-1 0-1.4-.4-.4-1-.4-1.4 0z"/></svg>