<?xml version="1.0" encoding="utf-8"?>
<!-- Generator: Adobe Illustrator 21.0.0, SVG Export Plug-In . SVG Version: 6.00 Build 0)  -->
<svg version="1.1" id="Layer_1" xmlns="http://www.w3.org/2000/svg" xmlns:xlink="http://www.w3.org/1999/xlink" x="0px" y="0px"
	 viewBox="0 0 60 60" style="enable-background:new 0 0 60 60;" xml:space="preserve">
<style type="text/css">
	.st0{fill:#343434;}
</style>
<title>screwdriver</title>
<desc>Created with Sketch.</desc>
<g>
	<path class="st0" d="M57.5,3.7L56,2.3c-2.3-2.3-6.1-2.3-8.5,0L26.3,23.5l2.8,2.8L1.6,53.9c-1.2,1.2-1.2,3.1,0,4.2
		c1.2,1.2,3.1,1.2,4.2,0l27.6-27.6l2.8,2.8l21.2-21.2C59.8,9.9,59.8,6.1,57.5,3.7z M4.4,56.8c-0.4,0.4-1,0.4-1.4,0
		c-0.4-0.4-0.4-1,0-1.4l27.6-27.6l1.4,1.4L4.4,56.8z M55.3,10.1L36.2,29.2l-5.7-5.7L49.7,4.4c1.2-1.2,3.1-1.2,4.2,0l1.4,1.4
		C56.5,7,56.5,8.9,55.3,10.1z"/>
	<path class="st0" d="M51.1,7.3L35.5,22.8c-0.4,0.4-0.4,1,0,1.4c0.4,0.4,1,0.4,1.4,0L52.5,8.7c0.4-0.4,0.4-1,0-1.4
		C52.1,6.9,51.5,6.9,51.1,7.3z"/>
</g>
</svg>
