<svg xmlns="http://www.w3.org/2000/svg" viewBox="0 0 64 64" enable-background="new 0 0 64 64"><style type="text/css">.st0{fill:#333333;}</style><title>set-square</title><desc>Created with Sketch.</desc><path class="st0" d="M0 0v64h64l-64-64zm44 54c-.6 0-1 .4-1 1v5h-3v-2c0-.6-.4-1-1-1s-1 .4-1 1v2h-3v-5c0-.6-.4-1-1-1s-1 .4-1 1v5h-3v-2c0-.6-.4-1-1-1s-1 .4-1 1v2h-3v-5c0-.6-.4-1-1-1s-1 .4-1 1v5h-3v-2c0-.6-.4-1-1-1s-1 .4-1 1v2h-3v-5c0-.6-.4-1-1-1s-1 .4-1 1v5h-3v-2c0-.6-.4-1-1-1s-1 .4-1 1v2h-4v-50.3l50.3 50.3h-9.3v-5c0-.6-.4-1-1-1zM13 51h20l-20-20v20zm3-12.8l9.8 9.8h-9.8v-9.8z"/></svg>