<?xml version="1.0" encoding="utf-8"?>
<!-- Generator: Adobe Illustrator 21.0.0, SVG Export Plug-In . SVG Version: 6.00 Build 0)  -->
<svg version="1.1" id="Layer_1" xmlns="http://www.w3.org/2000/svg" xmlns:xlink="http://www.w3.org/1999/xlink" x="0px" y="0px"
	 viewBox="0 0 64 64" style="enable-background:new 0 0 64 64;" xml:space="preserve">
<style type="text/css">
	.st0{fill:#333333;}
</style>
<title>set-square</title>
<desc>Created with Sketch.</desc>
<g>
	<path class="st0" d="M0,0v64h64L0,0z M44,54c-0.6,0-1,0.4-1,1v5h-3v-2c0-0.6-0.4-1-1-1s-1,0.4-1,1v2h-3v-5c0-0.6-0.4-1-1-1
		s-1,0.4-1,1v5h-3v-2c0-0.6-0.4-1-1-1s-1,0.4-1,1v2h-3v-5c0-0.6-0.4-1-1-1s-1,0.4-1,1v5h-3v-2c0-0.6-0.4-1-1-1s-1,0.4-1,1v2h-3v-5
		c0-0.6-0.4-1-1-1s-1,0.4-1,1v5h-3v-2c0-0.6-0.4-1-1-1s-1,0.4-1,1v2H4V9.7L54.3,60H45v-5C45,54.4,44.6,54,44,54z"/>
	<path class="st0" d="M13,51h20L13,31V51z M16,38.2l9.8,9.8H16V38.2z"/>
</g>
</svg>
