<?xml version="1.0" encoding="utf-8"?>
<!-- Generator: Adobe Illustrator 21.0.0, SVG Export Plug-In . SVG Version: 6.00 Build 0)  -->
<svg version="1.1" id="Layer_1" xmlns="http://www.w3.org/2000/svg" xmlns:xlink="http://www.w3.org/1999/xlink" x="0px" y="0px"
	 viewBox="0 0 64 64" style="enable-background:new 0 0 64 64;" xml:space="preserve">
<style type="text/css">
	.st0{fill:#333333;}
</style>
<title>share-alt</title>
<desc>Created with Sketch.</desc>
<path class="st0" d="M54,44c-3.3,0-6.2,1.6-8,4L19.7,34.6c0.2-0.8,0.3-1.7,0.3-2.6c0-0.6,0-1.1-0.1-1.7l26.7-13.6
	c1.8,2,4.5,3.3,7.4,3.3c5.5,0,10-4.5,10-10c0-5.5-4.5-10-10-10S44,4.5,44,10c0,0.4,0,0.8,0.1,1.2L17.1,25c-1.8-1.8-4.3-3-7.1-3
	C4.5,22,0,26.5,0,32c0,5.5,4.5,10,10,10c2.5,0,4.7-0.9,6.4-2.4l27.6,14c0,0.1,0,0.2,0,0.3c0,5.5,4.5,10,10,10s10-4.5,10-10
	C64,48.5,59.5,44,54,44z"/>
</svg>
