<?xml version="1.0" encoding="utf-8"?>
<!-- Generator: Adobe Illustrator 21.0.0, SVG Export Plug-In . SVG Version: 6.00 Build 0)  -->
<svg version="1.1" id="Layer_1" xmlns="http://www.w3.org/2000/svg" xmlns:xlink="http://www.w3.org/1999/xlink" x="0px" y="0px"
	 viewBox="0 0 54 64" style="enable-background:new 0 0 54 64;" xml:space="preserve">
<style type="text/css">
	.st0{fill:#333333;}
</style>
<title>shield-check</title>
<desc>Created with Sketch.</desc>
<g>
	<path class="st0" d="M27,0L0,8l0,20c0.3,16.5,27,36,27,36s26.7-19.5,27-36h0V8L27,0z M50,28c-0.2,14.3-23,31-23,31S4.2,42.3,4,28
		V11l23-7l23,7V28z"/>
	<path class="st0" d="M15.5,29.7c-0.4-0.4-1-0.4-1.4,0l-1.4,1.4c-0.4,0.4-0.4,1,0,1.4l9.9,9.9c0.4,0.4,1,0.4,1.4,0l1.3-1.3
		l17.6-17.6c0.4-0.4,0.4-1,0-1.4l-1.4-1.4c-0.4-0.4-1-0.4-1.4,0L23.3,37.5L15.5,29.7z"/>
</g>
</svg>
