<?xml version="1.0" encoding="utf-8"?>
<!-- Generator: Adobe Illustrator 21.0.0, SVG Export Plug-In . SVG Version: 6.00 Build 0)  -->
<svg version="1.1" id="Layer_1" xmlns="http://www.w3.org/2000/svg" xmlns:xlink="http://www.w3.org/1999/xlink" x="0px" y="0px"
	 viewBox="0 0 54 64" style="enable-background:new 0 0 54 64;" xml:space="preserve">
<style type="text/css">
	.st0{fill:#333333;}
</style>
<title>shield-error-f</title>
<desc>Created with Sketch.</desc>
<path class="st0" d="M27,0L0,8l0,20c0.3,16.5,27,36,27,36s26.7-19.5,27-36h0V8L27,0z M37.5,40.1l-1.4,1.4c-0.4,0.4-1,0.4-1.4,0
	l-7.8-7.8l-7.8,7.8c-0.4,0.4-1,0.4-1.4,0l-1.4-1.4c-0.4-0.4-0.4-1,0-1.4l7.8-7.8l-7.8-7.8c-0.4-0.4-0.4-1,0-1.4l1.4-1.4
	c0.4-0.4,1-0.4,1.4,0l7.8,7.8l7.8-7.8c0.4-0.4,1-0.4,1.4,0l1.4,1.4c0.4,0.4,0.4,1,0,1.4l-7.8,7.8l7.8,7.8
	C37.9,39.1,37.9,39.7,37.5,40.1z"/>
</svg>
