<?xml version="1.0" encoding="utf-8"?>
<!-- Generator: Adobe Illustrator 21.0.0, SVG Export Plug-In . SVG Version: 6.00 Build 0)  -->
<svg version="1.1" id="Layer_1" xmlns="http://www.w3.org/2000/svg" xmlns:xlink="http://www.w3.org/1999/xlink" x="0px" y="0px"
	 viewBox="0 0 54 64" style="enable-background:new 0 0 54 64;" xml:space="preserve">
<style type="text/css">
	.st0{fill:#333333;}
</style>
<title>shield-check-f</title>
<desc>Created with Sketch.</desc>
<path class="st0" d="M27,0L0,8l0,20c0.3,16.5,27,36,27,36s26.7-19.5,27-36h0V8L27,0z M42.9,23.5L25.3,41.1L24,42.4
	c-0.4,0.4-1,0.4-1.4,0l-9.9-9.9c-0.4-0.4-0.4-1,0-1.4l1.4-1.4c0.4-0.4,1-0.4,1.4,0l7.8,7.8l16.8-16.8c0.4-0.4,1-0.4,1.4,0l1.4,1.4
	C43.3,22.5,43.3,23.1,42.9,23.5z"/>
</svg>
