<svg xmlns="http://www.w3.org/2000/svg" viewBox="0 0 54 64" enable-background="new 0 0 54 64"><style type="text/css">.st0{fill:#333333;}</style><title>shield-error-f</title><desc>Created with Sketch.</desc><path class="st0" d="M27 0l-27 8v20c.3 16.5 27 36 27 36s26.7-19.5 27-36v-20l-27-8zm10.5 40.1l-1.4 1.4c-.4.4-1 .4-1.4 0l-7.8-7.8-7.8 7.8c-.4.4-1 .4-1.4 0l-1.4-1.4c-.4-.4-.4-1 0-1.4l7.8-7.8-7.8-7.8c-.4-.4-.4-1 0-1.4l1.4-1.4c.4-.4 1-.4 1.4 0l7.8 7.8 7.8-7.8c.4-.4 1-.4 1.4 0l1.4 1.4c.4.4.4 1 0 1.4l-7.8 7.8 7.8 7.8c.4.4.4 1 0 1.4z"/></svg>