<svg xmlns="http://www.w3.org/2000/svg" viewBox="0 0 60 60" enable-background="new 0 0 60 60"><style type="text/css">.st0{fill:#343434;}</style><title>shopping-cart-f</title><desc>Created with Sketch.</desc><path class="st0" d="M56 8h-48v-6c0-1.1-.9-2-2-2h-4c-1.1 0-2 .9-2 2s.9 2 2 2h2v42c0 1.1.9 2 2 2h44c1.1 0 2-.9 2-2s-.9-2-2-2h-42v-4h43.6c2.2 0 4.2-1.8 4.6-4l3.3-24c.3-2.2-1.3-4-3.5-4zM8 54c0 3.3 2.7 6 6 6s6-2.7 6-6-2.7-6-6-6-6 2.7-6 6zm6-2c1.1 0 2 .9 2 2s-.9 2-2 2-2-.9-2-2 .9-2 2-2zM40 54c0 3.3 2.7 6 6 6s6-2.7 6-6-2.7-6-6-6-6 2.7-6 6zm6-2c1.1 0 2 .9 2 2s-.9 2-2 2-2-.9-2-2 .9-2 2-2z"/></svg>