<svg xmlns="http://www.w3.org/2000/svg" viewBox="0 0 64 60" enable-background="new 0 0 64 60"><style type="text/css">.st0{fill:#333333;}</style><title>shop</title><desc>Created with Sketch.</desc><path class="st0" d="M60 0h-56c-2.2 0-4 1.8-4 4v52c0 2.2 1.8 4 4 4h56c2.2 0 4-1.8 4-4v-52c0-2.2-1.8-4-4-4zm0 3c.6 0 1 .5 1 1v7c0 3.3-2.7 6-6 6s-6-2.7-6-6v-8h11zm-14 0v8c0 3.3-2.7 6-6 6s-6-2.7-6-6v-8h12zm-15 0v7.5c0 3.6-2.9 6.5-6.5 6.5s-6.5-2.9-6.5-6.5v-7.5h13zm-16 0v8c0 3.3-2.7 6-6 6s-6-2.7-6-6v-7c0-.6.5-1 1-1h11zm24 54v-11h14v11h-14zm14-14h-14v-14h14v14zm7 14h-4v-29c0-1.1-.9-2-2-2h-16c-1.1 0-2 .9-2 2v29h-32c-.6 0-1-.5-1-1v-38.3c1.6 1.4 3.7 2.3 6 2.3 3.2 0 6-1.7 7.6-4.2 1.7 2.5 4.6 4.2 7.9 4.2 3.3 0 6.2-1.7 7.9-4.2 1.6 2.5 4.4 4.2 7.6 4.2 3.1 0 5.9-1.6 7.5-4 1.6 2.4 4.4 4 7.5 4 2.3 0 4.4-.9 6-2.3v38.3c0 .5-.5 1-1 1zM28 26h-18c-1.1 0-2 .9-2 2v16c0 1.1.9 2 2 2h18c1.1 0 2-.9 2-2v-16c0-1.1-.9-2-2-2zm-1 17h-16v-14h16v14z"/></svg>