<?xml version="1.0" encoding="utf-8"?>
<!-- Generator: Adobe Illustrator 21.0.0, SVG Export Plug-In . SVG Version: 6.00 Build 0)  -->
<svg version="1.1" id="Layer_1" xmlns="http://www.w3.org/2000/svg" xmlns:xlink="http://www.w3.org/1999/xlink" x="0px" y="0px"
	 viewBox="0 0 64 60" style="enable-background:new 0 0 64 60;" xml:space="preserve">
<style type="text/css">
	.st0{fill:#333333;}
</style>
<title>shop</title>
<desc>Created with Sketch.</desc>
<g>
	<path class="st0" d="M60,0L60,0H49h-3H34h-3H18h-3H4h0C1.8,0,0,1.8,0,4v0v7v45c0,2.2,1.8,4,4,4h34h16h6c2.2,0,4-1.8,4-4V11V4v0
		C64,1.8,62.2,0,60,0z M60,3c0.6,0,1,0.5,1,1v7c0,3.3-2.7,6-6,6c-3.3,0-6-2.7-6-6V3H60z M46,3v8c0,3.3-2.7,6-6,6c-3.3,0-6-2.7-6-6
		v-0.5V3H46z M31,3v7.5c0,3.6-2.9,6.5-6.5,6.5c-3.6,0-6.5-2.9-6.5-6.5V3H31z M15,3v7.5V11c0,3.3-2.7,6-6,6c-3.3,0-6-2.7-6-6V4
		c0-0.6,0.5-1,1-1H15z M39,57V46h14v11H39z M53,43H39V29h14V43z M60,57h-4V28c0-1.1-0.9-2-2-2H38c-1.1,0-2,0.9-2,2v29H4
		c-0.6,0-1-0.5-1-1V17.7C4.6,19.1,6.7,20,9,20c3.2,0,6-1.7,7.6-4.2c1.7,2.5,4.6,4.2,7.9,4.2c3.3,0,6.2-1.7,7.9-4.2
		C34,18.3,36.8,20,40,20c3.1,0,5.9-1.6,7.5-4c1.6,2.4,4.4,4,7.5,4c2.3,0,4.4-0.9,6-2.3V56C61,56.5,60.5,57,60,57z"/>
	<path class="st0" d="M28,26H10c-1.1,0-2,0.9-2,2v16c0,1.1,0.9,2,2,2h18c1.1,0,2-0.9,2-2V28C30,26.9,29.1,26,28,26z M27,43H11V29h16
		V43z"/>
</g>
</svg>
