<?xml version="1.0" encoding="utf-8"?>
<!-- Generator: Adobe Illustrator 21.0.0, SVG Export Plug-In . SVG Version: 6.00 Build 0)  -->
<svg version="1.1" id="Layer_1" xmlns="http://www.w3.org/2000/svg" xmlns:xlink="http://www.w3.org/1999/xlink" x="0px" y="0px"
	 viewBox="0 0 48 64" style="enable-background:new 0 0 48 64;" xml:space="preserve">
<style type="text/css">
	.st0{fill:#343434;}
</style>
<title>shopping-bag</title>
<desc>Created with Sketch.</desc>
<path class="st0" d="M38,16v-6c0-5.5-4.5-10-10-10h-8c-5.5,0-10,4.5-10,10v6H0v34c0,7.7,6.3,14,14,14h20c7.7,0,14-6.3,14-14V16H38z
	 M14,10c0-3.3,2.7-6,6-6h8c3.3,0,6,2.7,6,6v6H14V10z M44,50c0,5.5-4.5,10-10,10H14C8.5,60,4,55.5,4,50V20h6h28h6V50z"/>
</svg>
