<svg xmlns="http://www.w3.org/2000/svg" viewBox="0 0 60 54" enable-background="new 0 0 60 54"><style type="text/css">.st0{fill:#333333;}</style><title>signal</title><desc>Created with Sketch.</desc><path class="st0" d="M17 38c-2.2 0-4 1.8-4 4v8c0 2.2 1.8 4 4 4s4-1.8 4-4v-8c0-2.2-1.8-4-4-4z"/><circle class="st0" cx="4" cy="50" r="4"/><path class="st0" d="M30 30c-2.2 0-4 1.8-4 4v16c0 2.2 1.8 4 4 4s4-1.8 4-4v-16c0-2.2-1.8-4-4-4zM43 18c-2.2 0-4 1.8-4 4v28c0 2.2 1.8 4 4 4s4-1.8 4-4v-28c0-2.2-1.8-4-4-4zM56 0c-2.2 0-4 1.8-4 4v46c0 2.2 1.8 4 4 4s4-1.8 4-4v-46c0-2.2-1.8-4-4-4z"/></svg>