<?xml version="1.0" encoding="utf-8"?>
<!-- Generator: Adobe Illustrator 21.0.0, SVG Export Plug-In . SVG Version: 6.00 Build 0)  -->
<svg version="1.1" id="Layer_1" xmlns="http://www.w3.org/2000/svg" xmlns:xlink="http://www.w3.org/1999/xlink" x="0px" y="0px"
	 viewBox="0 0 64 64" style="enable-background:new 0 0 64 64;" xml:space="preserve">
<style type="text/css">
	.st0{fill:#343434;}
</style>
<path class="st0" d="M63.5,33.3c-1.3-2.8-4.6-4.1-7.4-2.8l-2.7,1.2l-6.9-15.5l2.7-1.2c2.8-1.3,4.1-4.6,2.8-7.4
	c-1.3-2.8-4.6-4.1-7.4-2.8L41.9,6l-1.2-2.7c-1.3-2.8-4.6-4.1-7.4-2.8c-2.8,1.3-4.1,4.6-2.8,7.4l1.2,2.7l-15.5,6.9L15,14.8
	c-1.3-2.8-4.6-4.1-7.4-2.8c-2.8,1.3-4.1,4.6-2.8,7.4L6,22.1l-2.7,1.2c-2.8,1.3-4.1,4.6-2.8,7.4c1.3,2.8,4.6,4.1,7.4,2.8l2.7-1.2
	l6.9,15.5L14.8,49c-2.8,1.3-4.1,4.6-2.8,7.4c1.3,2.8,4.6,4.1,7.4,2.8l2.7-1.2l1.2,2.7c1.3,2.8,4.6,4.1,7.4,2.8
	c2.8-1.3,4.1-4.6,2.8-7.4l-1.2-2.7l15.5-6.9l1.2,2.7c1.3,2.8,4.6,4.1,7.4,2.8c2.8-1.3,4.1-4.6,2.8-7.4L58,41.9l2.7-1.2
	C63.5,39.5,64.8,36.1,63.5,33.3z M27.7,43.2l-6.9-15.5l15.4-6.9l6.9,15.4L27.7,43.2z"/>
</svg>
