<svg xmlns="http://www.w3.org/2000/svg" viewBox="0 0 64 64" enable-background="new 0 0 64 64"><style type="text/css">.st0{fill:#343434;}</style><path class="st0" d="M63.5 33.3c-1.3-2.8-4.6-4.1-7.4-2.8l-2.7 1.2-6.9-15.5 2.7-1.2c2.8-1.3 4.1-4.6 2.8-7.4-1.3-2.8-4.6-4.1-7.4-2.8l-2.7 1.2-1.2-2.7c-1.3-2.8-4.6-4.1-7.4-2.8-2.8 1.3-4.1 4.6-2.8 7.4l1.2 2.7-15.5 6.9-1.2-2.7c-1.3-2.8-4.6-4.1-7.4-2.8-2.8 1.3-4.1 4.6-2.8 7.4l1.2 2.7-2.7 1.2c-2.8 1.3-4.1 4.6-2.8 7.4 1.3 2.8 4.6 4.1 7.4 2.8l2.7-1.2 6.9 15.5-2.7 1.2c-2.8 1.3-4.1 4.6-2.8 7.4 1.3 2.8 4.6 4.1 7.4 2.8l2.7-1.2 1.2 2.7c1.3 2.8 4.6 4.1 7.4 2.8 2.8-1.3 4.1-4.6 2.8-7.4l-1.2-2.7 15.5-6.9 1.2 2.7c1.3 2.8 4.6 4.1 7.4 2.8 2.8-1.3 4.1-4.6 2.8-7.4l-1.2-2.7 2.7-1.2c2.8-1.2 4.1-4.6 2.8-7.4zm-35.8 9.9l-6.9-15.5 15.4-6.9 6.9 15.4-15.4 7z"/></svg>