<svg xmlns="http://www.w3.org/2000/svg" viewBox="0 0 64 64" enable-background="new 0 0 64 64"><style type="text/css">.st0{fill:#343434;}</style><title>smiley</title><desc>Created with Sketch.</desc><path class="st0" d="M32 0c-17.7 0-32 14.3-32 32s14.3 32 32 32 32-14.3 32-32-14.3-32-32-32zm0 60c-15.5 0-28-12.5-28-28s12.5-28 28-28 28 12.5 28 28-12.5 28-28 28z"/><circle class="st0" cx="43" cy="26" r="5"/><circle class="st0" cx="21" cy="26" r="5"/><path class="st0" d="M43.1 44c-.6 0-1.1.2-1.4.6-2.1 2-5.6 3.4-9.7 3.4s-7.5-1.4-9.7-3.3c-.3-.4-.9-.7-1.4-.7-1.1 0-2 .9-2 2 0 .5.2.9.4 1.2l.1.1c.1.1.2.2.4.3 2.9 2.7 7.3 4.4 12.2 4.4 5.1 0 9.6-1.8 12.5-4.5.4-.4.6-.9.6-1.4 0-1.2-.9-2.1-2-2.1z"/></svg>