<?xml version="1.0" encoding="utf-8"?>
<!-- Generator: Adobe Illustrator 21.0.0, SVG Export Plug-In . SVG Version: 6.00 Build 0)  -->
<svg version="1.1" id="Layer_1" xmlns="http://www.w3.org/2000/svg" xmlns:xlink="http://www.w3.org/1999/xlink" x="0px" y="0px"
	 viewBox="0 0 64 64" style="enable-background:new 0 0 64 64;" xml:space="preserve">
<style type="text/css">
	.st0{fill:#343434;}
</style>
<title>smiley</title>
<desc>Created with Sketch.</desc>
<g>
	<path class="st0" d="M32,0C14.3,0,0,14.3,0,32c0,17.7,14.3,32,32,32s32-14.3,32-32C64,14.3,49.7,0,32,0z M32,60
		C16.5,60,4,47.5,4,32S16.5,4,32,4s28,12.5,28,28S47.5,60,32,60z"/>
	<circle class="st0" cx="43" cy="26" r="5"/>
	<circle class="st0" cx="21" cy="26" r="5"/>
	<path class="st0" d="M43.1,44c-0.6,0-1.1,0.2-1.4,0.6c-2.1,2-5.6,3.4-9.7,3.4c-4.1,0-7.5-1.4-9.7-3.3l0,0C22,44.3,21.4,44,20.9,44
		c-1.1,0-2,0.9-2,2c0,0.5,0.2,0.9,0.4,1.2l0,0c0,0,0.1,0.1,0.1,0.1c0.1,0.1,0.2,0.2,0.4,0.3C22.7,50.3,27.1,52,32,52
		c5.1,0,9.6-1.8,12.5-4.5l0,0c0.4-0.4,0.6-0.9,0.6-1.4C45.1,44.9,44.2,44,43.1,44z"/>
</g>
</svg>
