<?xml version="1.0" encoding="utf-8"?>
<!-- Generator: Adobe Illustrator 21.0.0, SVG Export Plug-In . SVG Version: 6.00 Build 0)  -->
<svg version="1.1" id="Layer_1" xmlns="http://www.w3.org/2000/svg" xmlns:xlink="http://www.w3.org/1999/xlink" x="0px" y="0px"
	 viewBox="0 0 64 60" style="enable-background:new 0 0 64 60;" xml:space="preserve">
<style type="text/css">
	.st0{fill:#343434;}
</style>
<g id="Page-1">
	<g id="Social-icons-_x28_65_x29_" transform="translate(-832.000000, -450.000000)">
		<g id="snapchat" transform="translate(832.000000, 450.000000)">
			<path id="snp" class="st0" d="M32,60c-0.2,0-0.3,0-0.5,0c-0.1,0-0.2,0-0.3,0c-4.1,0-6.2-1.2-8.4-2.8c-1.5-1.1-2.9-2-4.4-2.3
				c-0.8-0.1-1.6-0.2-2.4-0.2c-1.4,0-2.5,0.2-3.3,0.4c-0.6,0.1-1.1,0.2-1.5,0.2c-1.3,0-1.8-0.9-1.9-1.4c-0.2-0.5-0.3-1-0.4-1.5
				c-0.1-0.3-0.2-0.9-0.3-1.2c-5.1-0.8-7.7-2-8.4-3.6C0.1,47.2,0,47,0,46.8c0-0.9,0.6-1.7,1.4-1.8c8.4-1.4,12.2-10.1,12.3-10.4
				c0.4-0.9,0.5-1.6,0.3-2.1c-0.4-1-2.2-1.6-3.3-1.9c-0.4-0.1-0.7-0.2-0.9-0.3c-3.2-1.3-3.6-2.8-3.4-3.9c0.4-2,3.1-2.9,4.7-2.2
				c1,0.5,2,0.7,2.7,0.7c0.4,0,0.6-0.1,0.8-0.1c0-0.4-0.1-0.8-0.1-1.3c-0.3-4.4-0.6-9.8,0.8-13.1C19.7,0.8,28.8,0,31.5,0l1.3,0
				c2.7,0,11.8,0.7,16.1,10.4c1.4,3.3,1.1,8.7,0.8,13.1l0,0.2c0,0.4,0,0.7-0.1,1.1c0.2,0.1,0.4,0.1,0.7,0.1c0.7,0,1.5-0.3,2.5-0.7
				c0.5-0.2,1-0.3,1.4-0.3c0.5,0,1,0.1,1.5,0.3c1.3,0.5,2.2,1.5,2.2,2.6c0,1.4-1.1,2.6-3.5,3.5c-0.2,0.1-0.5,0.2-0.9,0.3
				c-1.1,0.4-2.9,0.9-3.4,1.9c-0.2,0.5-0.1,1.2,0.3,2c0,0,0,0.1,0,0.1c0.4,0.9,4.1,9.1,12.1,10.5c0.9,0.1,1.5,0.9,1.4,1.8
				c0,0.3-0.1,0.5-0.2,0.8c-0.7,1.7-3.2,2.8-8.2,3.6c-0.1,0.3-0.3,0.9-0.3,1.2c-0.1,0.5-0.2,1-0.4,1.5c-0.3,0.9-0.9,1.4-1.9,1.4
				c-0.5,0-1-0.1-1.6-0.2c-0.9-0.2-2-0.4-3.3-0.4c-0.8,0-1.6,0.1-2.4,0.2c-1.5,0.3-2.9,1.2-4.4,2.3C38.8,59,35.6,60,32,60"/>
		</g>
	</g>
</g>
</svg>
