<svg xmlns="http://www.w3.org/2000/svg" viewBox="0 0 64 64"><path d="M32 64c17.7 0 32-14.3 32-32S49.7 0 32 0 0 14.3 0 32s14.3 32 32 32zm0-10h-.5c-3 0-4.5-.9-6.2-2.1-1.1-.8-2.1-1.5-3.2-1.7-.6-.1-1.2-.1-1.7-.1-1 0-1.8.2-2.4.3-.4.1-.8.2-1.1.2-1 0-1.3-.7-1.4-1-.1-.4-.2-.8-.3-1.1-.1-.3-.1-.7-.2-.9-3.7-.6-5.7-1.4-6.2-2.6-.1-.2-.1-.4-.1-.5 0-.6.4-1.2 1.1-1.3 6.2-1 8.9-7.4 9.1-7.7.3-.7.4-1.2.2-1.5-.3-.7-1.6-1.2-2.4-1.4-.3-.1-.5-.2-.7-.2-2.3-.9-2.7-2.1-2.5-2.8.3-1.4 2.3-2.1 3.4-1.6.8.4 1.4.5 2 .5.3 0 .5 0 .6-.1 0-.3 0-.6-.1-.9-.4-3.5-.6-7.5.4-9.9 3.2-7 9.8-7.6 11.8-7.6h.9c2 0 8.6.5 11.8 7.6 1.1 2.4.8 6.4.6 9.6v.9c.1 0 .3.1.5.1.5 0 1.1-.2 1.8-.5.4-.2.8-.2 1-.2.4 0 .8.1 1.1.2.9.3 1.6 1.1 1.6 1.9 0 1-.8 1.9-2.5 2.6l-.6.2c-.8.3-2.2.7-2.5 1.4-.2.4-.1.9.2 1.5v.1c.3.7 3 6.7 8.9 7.7.6.1 1.1.7 1.1 1.3l-.1.6c-.5 1.2-2.4 2-6 2.6-.1.2-.2.7-.2.9l-.3 1.1c-.2.7-.7 1-1.4 1-.3 0-.7 0-1.2-.1-.7-.1-1.5-.3-2.4-.3l-1.7.1c-1.1.2-2.1.9-3.2 1.7-2 1.3-4.4 2-7 2z" fill="#343434"/></svg>