<?xml version="1.0" encoding="utf-8"?>
<!-- Generator: Adobe Illustrator 21.0.0, SVG Export Plug-In . SVG Version: 6.00 Build 0)  -->
<svg version="1.1" id="Layer_1" xmlns="http://www.w3.org/2000/svg" xmlns:xlink="http://www.w3.org/1999/xlink" x="0px" y="0px"
	 viewBox="0 0 64 64" style="enable-background:new 0 0 64 64;" xml:space="preserve">
<style type="text/css">
	.st0{fill:#343434;}
</style>
<title>snapchat-square</title>
<desc>Created with Sketch.</desc>
<path class="st0" d="M60,0H4C1.8,0,0,1.8,0,4v56c0,2.2,1.8,4,4,4h56c2.2,0,4-1.8,4-4V4C64,1.8,62.2,0,60,0z M55.3,44.9
	c-0.5,1.2-2.4,2-6,2.6c-0.1,0.2-0.2,0.7-0.2,0.9c-0.1,0.4-0.2,0.7-0.3,1.1c-0.2,0.7-0.7,1-1.4,1c-0.3,0-0.7,0-1.2-0.1
	c-0.7-0.1-1.5-0.3-2.4-0.3c-0.6,0-1.1,0.1-1.7,0.1c-1.1,0.2-2.1,0.9-3.2,1.7C37,53.3,34.6,54,32,54c-0.1,0-0.2,0-0.3,0
	c-0.1,0-0.2,0-0.2,0c-3,0-4.5-0.9-6.2-2.1c-1.1-0.8-2.1-1.5-3.2-1.7c-0.6-0.1-1.2-0.1-1.7-0.1c-1,0-1.8,0.2-2.4,0.3
	c-0.4,0.1-0.8,0.2-1.1,0.2c-1,0-1.3-0.7-1.4-1c-0.1-0.4-0.2-0.8-0.3-1.1c-0.1-0.3-0.1-0.7-0.2-0.9c-3.7-0.6-5.7-1.4-6.2-2.6
	c-0.1-0.2-0.1-0.4-0.1-0.5c0-0.6,0.4-1.2,1.1-1.3c6.2-1,8.9-7.4,9.1-7.7c0.3-0.7,0.4-1.2,0.2-1.5c-0.3-0.7-1.6-1.2-2.4-1.4
	c-0.3-0.1-0.5-0.2-0.7-0.2c-2.3-0.9-2.7-2.1-2.5-2.8c0.3-1.4,2.3-2.1,3.4-1.6c0.8,0.4,1.4,0.5,2,0.5c0.3,0,0.5,0,0.6-0.1
	c0-0.3,0-0.6-0.1-0.9C19,24,18.8,20,19.8,17.6C23,10.6,29.6,10,31.6,10l0.9,0c2,0,8.6,0.5,11.8,7.6c1.1,2.4,0.8,6.4,0.6,9.6l0,0.1
	c0,0.3,0,0.5,0,0.8c0.1,0,0.3,0.1,0.5,0.1c0.5,0,1.1-0.2,1.8-0.5c0.4-0.2,0.8-0.2,1-0.2c0.4,0,0.8,0.1,1.1,0.2
	c0.9,0.3,1.6,1.1,1.6,1.9c0,1-0.8,1.9-2.5,2.6c-0.2,0.1-0.4,0.1-0.6,0.2c-0.8,0.3-2.2,0.7-2.5,1.4c-0.2,0.4-0.1,0.9,0.2,1.5
	c0,0,0,0.1,0,0.1c0.3,0.7,3,6.7,8.9,7.7c0.6,0.1,1.1,0.7,1.1,1.3C55.5,44.5,55.4,44.7,55.3,44.9z"/>
</svg>
