<svg xmlns="http://www.w3.org/2000/svg" viewBox="0 0 64 60"><path d="M32 60h-.8c-4.1 0-6.2-1.2-8.4-2.8-1.5-1.1-2.9-2-4.4-2.3-.8-.1-1.6-.2-2.4-.2-1.4 0-2.5.2-3.3.4-.6.1-1.1.2-1.5.2-1.3 0-1.8-.9-1.9-1.4-.2-.5-.3-1-.4-1.5l-.3-1.2c-5.1-.8-7.7-2-8.4-3.6-.1-.4-.2-.6-.2-.8 0-.9.6-1.7 1.4-1.8 8.4-1.4 12.2-10.1 12.3-10.4.4-.9.5-1.6.3-2.1-.4-1-2.2-1.6-3.3-1.9-.4-.1-.7-.2-.9-.3-3.2-1.3-3.6-2.8-3.4-3.9.4-2 3.1-2.9 4.7-2.2 1 .5 2 .7 2.7.7.4 0 .6-.1.8-.1 0-.4-.1-.8-.1-1.3-.3-4.4-.6-9.8.8-13.1C19.7.8 28.8 0 31.5 0h1.3c2.7 0 11.8.7 16.1 10.4 1.4 3.3 1.1 8.7.8 13.1v.2c0 .4 0 .7-.1 1.1.2.1.4.1.7.1.7 0 1.5-.3 2.5-.7.5-.2 1-.3 1.4-.3.5 0 1 .1 1.5.3 1.3.5 2.2 1.5 2.2 2.6 0 1.4-1.1 2.6-3.5 3.5-.2.1-.5.2-.9.3-1.1.4-2.9.9-3.4 1.9-.2.5-.1 1.2.3 2v.1c.4.9 4.1 9.1 12.1 10.5.9.1 1.5.9 1.4 1.8 0 .3-.1.5-.2.8-.7 1.7-3.2 2.8-8.2 3.6-.1.3-.3.9-.3 1.2-.1.5-.2 1-.4 1.5-.3.9-.9 1.4-1.9 1.4-.5 0-1-.1-1.6-.2-.9-.2-2-.4-3.3-.4-.8 0-1.6.1-2.4.2-1.5.3-2.9 1.2-4.4 2.3C38.8 59 35.6 60 32 60" fill="#343434"/></svg>