<?xml version="1.0" encoding="utf-8"?>
<!-- Generator: Adobe Illustrator 21.0.0, SVG Export Plug-In . SVG Version: 6.00 Build 0)  -->
<svg version="1.1" id="Layer_1" xmlns="http://www.w3.org/2000/svg" xmlns:xlink="http://www.w3.org/1999/xlink" x="0px" y="0px"
	 viewBox="0 0 64 64" style="enable-background:new 0 0 64 64;" xml:space="preserve">
<style type="text/css">
	.st0{fill:#343434;}
</style>
<g id="Page-1">
	<g id="Social-icons-_x28_65_x29_" transform="translate(-64.000000, -576.000000)">
		<g id="snapchat-circle" transform="translate(64.000000, 576.000000)">
			<path id="Combined-Shape" class="st0" d="M32,64c17.7,0,32-14.3,32-32S49.7,0,32,0S0,14.3,0,32S14.3,64,32,64z M32,54
				c-0.1,0-0.2,0-0.3,0c-0.1,0-0.2,0-0.2,0c-3,0-4.5-0.9-6.2-2.1c-1.1-0.8-2.1-1.5-3.2-1.7c-0.6-0.1-1.2-0.1-1.7-0.1
				c-1,0-1.8,0.2-2.4,0.3c-0.4,0.1-0.8,0.2-1.1,0.2c-1,0-1.3-0.7-1.4-1c-0.1-0.4-0.2-0.8-0.3-1.1c-0.1-0.3-0.1-0.7-0.2-0.9
				c-3.7-0.6-5.7-1.4-6.2-2.6c-0.1-0.2-0.1-0.4-0.1-0.5c0-0.6,0.4-1.2,1.1-1.3c6.2-1,8.9-7.4,9.1-7.7c0.3-0.7,0.4-1.2,0.2-1.5
				c-0.3-0.7-1.6-1.2-2.4-1.4c-0.3-0.1-0.5-0.2-0.7-0.2c-2.3-0.9-2.7-2.1-2.5-2.8c0.3-1.4,2.3-2.1,3.4-1.6c0.8,0.4,1.4,0.5,2,0.5
				c0.3,0,0.5,0,0.6-0.1c0-0.3,0-0.6-0.1-0.9C19,24,18.8,20,19.8,17.6C23,10.6,29.6,10,31.6,10l0.9,0c2,0,8.6,0.5,11.8,7.6
				c1.1,2.4,0.8,6.4,0.6,9.6l0,0.1c0,0.3,0,0.5,0,0.8c0.1,0,0.3,0.1,0.5,0.1c0.5,0,1.1-0.2,1.8-0.5c0.4-0.2,0.8-0.2,1-0.2
				c0.4,0,0.8,0.1,1.1,0.2c0.9,0.3,1.6,1.1,1.6,1.9c0,1-0.8,1.9-2.5,2.6c-0.2,0.1-0.4,0.1-0.6,0.2c-0.8,0.3-2.2,0.7-2.5,1.4
				c-0.2,0.4-0.1,0.9,0.2,1.5c0,0,0,0.1,0,0.1c0.3,0.7,3,6.7,8.9,7.7c0.6,0.1,1.1,0.7,1.1,1.3c0,0.2-0.1,0.4-0.1,0.6
				c-0.5,1.2-2.4,2-6,2.6c-0.1,0.2-0.2,0.7-0.2,0.9c-0.1,0.4-0.2,0.7-0.3,1.1c-0.2,0.7-0.7,1-1.4,1c-0.3,0-0.7,0-1.2-0.1
				c-0.7-0.1-1.5-0.3-2.4-0.3c-0.6,0-1.1,0.1-1.7,0.1c-1.1,0.2-2.1,0.9-3.2,1.7C37,53.3,34.6,54,32,54z"/>
		</g>
	</g>
</g>
</svg>
