<?xml version="1.0" encoding="utf-8"?>
<!-- Generator: Adobe Illustrator 21.0.0, SVG Export Plug-In . SVG Version: 6.00 Build 0)  -->
<svg version="1.1" id="Layer_1" xmlns="http://www.w3.org/2000/svg" xmlns:xlink="http://www.w3.org/1999/xlink" x="0px" y="0px"
	 viewBox="0 0 64 64" style="enable-background:new 0 0 64 64;" xml:space="preserve">
<style type="text/css">
	.st0{fill:#343434;}
</style>
<title>snowflake</title>
<desc>Created with Sketch.</desc>
<g id="Page-1">
	<path class="st0" d="M62,30h-6.8l2.2-2.2c0.8-0.8,0.8-2.1,0-2.8c-0.8-0.8-2.1-0.8-2.8,0L49.5,30h-9.8c-0.2-0.8-0.5-1.5-0.9-2.1
		l10.1-10.1c0.8-0.8,0.8-2,0-2.8c-0.8-0.8-2-0.8-2.8,0L36,25.1c-0.6-0.4-1.3-0.6-2-0.8v-9.8l5.1-5.1c0.8-0.8,0.8-2,0-2.8
		c-0.8-0.8-2.1-0.8-2.8,0L34,8.8V2c0-1.1-0.9-2-2-2c-1.1,0-2,0.9-2,2v6.8l-2.2-2.2c-0.8-0.8-2-0.8-2.8,0c-0.8,0.8-0.8,2.1,0,2.8
		l5.1,5.1v9.8c-0.7,0.2-1.4,0.5-2.1,0.9L17.8,15c-0.8-0.8-2-0.8-2.8,0c-0.8,0.8-0.8,2,0,2.8l10.1,10.1c-0.4,0.6-0.7,1.3-0.9,2.1
		h-9.8l-5.1-5.1c-0.8-0.8-2-0.8-2.8,0c-0.8,0.8-0.8,2.1,0,2.8L8.8,30H2c-1.1,0-2,0.9-2,2c0,1.1,0.9,2,2,2h6.8l-2.2,2.2
		c-0.8,0.8-0.8,2,0,2.8c0.8,0.8,2.1,0.8,2.8,0l5.1-5.1h9.8c0.2,0.7,0.5,1.4,0.8,2L15,46.1c-0.8,0.8-0.8,2,0,2.8c0.8,0.8,2,0.8,2.8,0
		l10.1-10.1c0.7,0.4,1.4,0.7,2.1,0.9v9.8l-5.1,5.1c-0.8,0.8-0.8,2.1,0,2.8c0.8,0.8,2.1,0.8,2.8,0l2.2-2.2V62c0,1.1,0.9,2,2,2
		c1.1,0,2-0.9,2-2v-6.8l2.2,2.2c0.8,0.8,2.1,0.8,2.8,0c0.8-0.8,0.8-2.1,0-2.8L34,49.5v-9.8c0.7-0.2,1.4-0.5,2.1-0.9l10,10
		c0.8,0.8,2,0.8,2.8,0c0.8-0.8,0.8-2,0-2.8l-10-10c0.4-0.6,0.7-1.3,0.9-2.1h9.8l5.1,5.1c0.8,0.8,2.1,0.8,2.8,0
		c0.8-0.8,0.8-2.1,0-2.8L55.2,34H62c1.1,0,2-0.9,2-2C64,30.9,63.1,30,62,30z M32,37c-2.8,0-5-2.2-5-5s2.2-5,5-5s5,2.2,5,5
		S34.8,37,32,37z"/>
</g>
</svg>
