<svg xmlns="http://www.w3.org/2000/svg" viewBox="0 0 66 66" enable-background="new 0 0 66 66"><style type="text/css">.st0{fill:#343434;}</style><title>snowboard</title><desc>Created with Sketch.</desc><path class="st0" d="M61.2 4.7c-5.1-5.1-13.3-5.1-18.4 0-.5.5-.9 1-1.3 1.5l-16.4 19.1-18.9 16.3c-.5.4-1 .8-1.5 1.3-5.1 5.1-5.1 13.3 0 18.4 5.1 5.1 13.3 5.1 18.4 0 .5-.5.9-.9 1.3-1.5l16.4-18.9 19.1-16.6c.5-.4 1-.8 1.4-1.2 5-5.1 5-13.3-.1-18.4zm-2.1 16.2l-20.5 17.8-17.7 20.4c-3.9 3.9-10.2 3.9-14.1 0-3.9-3.9-3.9-10.2 0-14.1l20.5-17.6 17.7-20.6c3.9-3.9 10.2-3.9 14.1 0 3.9 3.9 3.9 10.2 0 14.1zM30.4 32.5h-2c-1.1 0-2 .9-2 2v5c0 1.1.9 2 2 2h2c1.1 0 2-.9 2-2v-5c0-1.1-.9-2-2-2zm-2 7v-1.8h2v1.8h-2zm2-3.9h-2v-1.2h2v1.2zM38.2 24.7h-2c-1.1 0-2 .9-2 2v5c0 1.1.9 2 2 2h2c1.1 0 2-.9 2-2v-5c0-1.1-.9-2-2-2zm0 2v1.2h-2v-1.2h2zm-2 5v-1.8h2v1.8h-2z"/></svg>