<?xml version="1.0" encoding="utf-8"?>
<!-- Generator: Adobe Illustrator 21.0.0, SVG Export Plug-In . SVG Version: 6.00 Build 0)  -->
<svg version="1.1" id="Layer_1" xmlns="http://www.w3.org/2000/svg" xmlns:xlink="http://www.w3.org/1999/xlink" x="0px" y="0px"
	 viewBox="0 0 64 64" style="enable-background:new 0 0 64 64;" xml:space="preserve">
<style type="text/css">
	.st0{fill:#333333;}
</style>
<title>soccer</title>
<desc>Created with Sketch.</desc>
<path class="st0" d="M32,0C14.3,0,0,14.3,0,32c0,14,9,25.9,21.5,30.2l0,0.2l0.4-0.1c3.2,1,6.5,1.6,10,1.6c17.7,0,32-14.3,32-32
	C64,14.3,49.7,0,32,0z M43.4,46.1l-2.7-3.3l3.5-10.9l6.4-1.7l8.2,5.1c-0.5,4.5-2.2,8.6-4.6,12.1L43.4,46.1z M20.2,46.5l-10,1.4
	c-2.6-3.6-4.4-7.9-5-12.6l8.2-5.1l6.4,1.7l3.4,10.7L20.2,46.5z M5,30.7c0.1-3.2,0.8-6.2,2-9l3.5,5.6L5,30.7z M26.8,41l-3.3-10.2
	l8.5-6.8l8.5,6.8L37.2,41H26.8z M53.5,27.3l3.5-5.5c1.1,2.8,1.8,5.8,2,9L53.5,27.3z M54.8,17.6l-5.5,8.7L43.2,28L34,20.6v-6.7
	l7.2-7.2C46.9,8.7,51.7,12.6,54.8,17.6z M36.8,5.4L32,10.2l-4.8-4.8C28.7,5.2,30.3,5,32,5C33.6,5,35.2,5.2,36.8,5.4z M22.7,6.6
	l7.3,7.3v6.7l-9.3,7.5l-6-1.6l-5.5-8.9C12.3,12.6,17.1,8.7,22.7,6.6z M13.3,51.5l6.5-0.9l0.8,5.9C18,55.3,15.5,53.5,13.3,51.5z
	 M25,58.1l-1.3-9.5l2.9-3.6h10.8l3,3.7L39.2,58c-2.3,0.6-4.7,1-7.2,1C29.6,59,27.2,58.7,25,58.1z M43.5,56.5l0.8-6.3l6.9,0.8
	C48.9,53.3,46.3,55.1,43.5,56.5z"/>
</svg>
