<?xml version="1.0" encoding="utf-8"?>
<!-- Generator: Adobe Illustrator 21.0.0, SVG Export Plug-In . SVG Version: 6.00 Build 0)  -->
<svg version="1.1" id="Layer_1" xmlns="http://www.w3.org/2000/svg" xmlns:xlink="http://www.w3.org/1999/xlink" x="0px" y="0px"
	 viewBox="0 0 64 34" style="enable-background:new 0 0 64 34;" xml:space="preserve">
<style type="text/css">
	.st0{fill:#343434;}
</style>
<g>
	<path class="st0" d="M55,14.4c-0.2,0-0.3,0-0.4,0C53.7,6.2,47,0,38.9,0c-2.9,0-7.3,1.4-9.3,2.6L29,3l0.9,30.9L56.2,34
		c4.9,0,7.8-5.1,7.8-10C64,18.9,60.3,14.9,55,14.4z"/>
	<rect x="23" y="7" class="st0" width="2" height="27"/>
	<rect x="17" y="9" class="st0" width="2" height="24"/>
	<rect x="12" y="10" class="st0" width="2" height="23"/>
	<rect x="6" y="15" class="st0" width="2.4" height="18.5"/>
	<rect x="0.1" y="18.7" class="st0" width="2.3" height="11.1"/>
</g>
</svg>
