<svg xmlns="http://www.w3.org/2000/svg" viewBox="0 0 48 64" enable-background="new 0 0 48 64"><style type="text/css">.st0{fill:#333333;}</style><title>speaker</title><desc>Created with Sketch.</desc><path class="st0" d="M44 0h-40c-2.2 0-4 1.8-4 4v56c0 2.2 1.8 4 4 4h40c2.2 0 4-1.8 4-4v-56c0-2.2-1.8-4-4-4zm0 60h-40v-56h40v56zM24 24c-8.8 0-16 7.2-16 16s7.2 16 16 16 16-7.2 16-16-7.2-16-16-16zm0 28c-6.6 0-12-5.4-12-12s5.4-12 12-12 12 5.4 12 12-5.4 12-12 12z"/><circle class="st0" cx="24" cy="14" r="4"/></svg>