<?xml version="1.0" encoding="utf-8"?>
<!-- Generator: Adobe Illustrator 21.0.0, SVG Export Plug-In . SVG Version: 6.00 Build 0)  -->
<svg version="1.1" id="Layer_1" xmlns="http://www.w3.org/2000/svg" xmlns:xlink="http://www.w3.org/1999/xlink" x="0px" y="0px"
	 viewBox="0 0 64 58" style="enable-background:new 0 0 64 58;" xml:space="preserve">
<style type="text/css">
	.st0{fill:#333333;}
</style>
<title>split-h</title>
<desc>Created with Sketch.</desc>
<g>
	<path class="st0" d="M61,26H3c-1.7,0-3,1.3-3,3s1.3,3,3,3h58c1.7,0,3-1.3,3-3S62.7,26,61,26z"/>
	<path class="st0" d="M38.6,43.6L32.3,50l-6.4-6.4c-1.2-1.2-3.1-1.2-4.2,0c-1.2,1.2-1.2,3.1,0,4.2l8.5,8.5c0.6,0.6,1.3,0.9,2.1,0.9
		s1.5-0.3,2.1-0.9l8.5-8.5c1.2-1.2,1.2-3.1,0-4.2C41.7,42.4,39.8,42.4,38.6,43.6z"/>
	<path class="st0" d="M25.9,14.4L32.3,8l6.4,6.4c1.2,1.2,3.1,1.2,4.2,0c1.2-1.2,1.2-3.1,0-4.2l-8.5-8.5c-0.6-0.6-1.3-0.9-2.1-0.9
		s-1.5,0.3-2.1,0.9l-8.5,8.5c-1.2,1.2-1.2,3.1,0,4.2C22.8,15.6,24.7,15.6,25.9,14.4z"/>
</g>
</svg>
