<?xml version="1.0" encoding="utf-8"?>
<!-- Generator: Adobe Illustrator 21.0.0, SVG Export Plug-In . SVG Version: 6.00 Build 0)  -->
<svg version="1.1" id="Layer_1" xmlns="http://www.w3.org/2000/svg" xmlns:xlink="http://www.w3.org/1999/xlink" x="0px" y="0px"
	 viewBox="0 0 58 64" style="enable-background:new 0 0 58 64;" xml:space="preserve">
<style type="text/css">
	.st0{fill:#333333;}
</style>
<title>split-v</title>
<desc>Created with Sketch.</desc>
<g>
	<path class="st0" d="M29,0c-1.7,0-3,1.3-3,3v58c0,1.7,1.3,3,3,3s3-1.3,3-3V3C32,1.3,30.7,0,29,0z"/>
	<path class="st0" d="M56.3,29.6l-8.5-8.5c-1.2-1.2-3.1-1.2-4.2,0c-1.2,1.2-1.2,3.1,0,4.2l6.4,6.4l-6.4,6.4c-1.2,1.2-1.2,3.1,0,4.2
		c1.2,1.2,3.1,1.2,4.2,0l8.5-8.5c0.6-0.6,0.9-1.3,0.9-2.1C57.2,31,56.9,30.2,56.3,29.6z"/>
	<path class="st0" d="M14.4,21.1c-1.2-1.2-3.1-1.2-4.2,0l-8.5,8.5c-0.6,0.6-0.9,1.3-0.9,2.1c0,0.8,0.3,1.5,0.9,2.1l8.5,8.5
		c1.2,1.2,3.1,1.2,4.2,0c1.2-1.2,1.2-3.1,0-4.2L8,31.7l6.4-6.4C15.6,24.2,15.6,22.3,14.4,21.1z"/>
</g>
</svg>
