<svg xmlns="http://www.w3.org/2000/svg" viewBox="0 0 64 58" enable-background="new 0 0 64 58"><style type="text/css">.st0{fill:#333333;}</style><title>split-h</title><desc>Created with Sketch.</desc><path class="st0" d="M61 26h-58c-1.7 0-3 1.3-3 3s1.3 3 3 3h58c1.7 0 3-1.3 3-3s-1.3-3-3-3zM38.6 43.6l-6.3 6.4-6.4-6.4c-1.2-1.2-3.1-1.2-4.2 0-1.2 1.2-1.2 3.1 0 4.2l8.5 8.5c.6.6 1.3.9 2.1.9s1.5-.3 2.1-.9l8.5-8.5c1.2-1.2 1.2-3.1 0-4.2-1.2-1.2-3.1-1.2-4.3 0zM25.9 14.4l6.4-6.4 6.4 6.4c1.2 1.2 3.1 1.2 4.2 0 1.2-1.2 1.2-3.1 0-4.2l-8.5-8.5c-.6-.6-1.3-.9-2.1-.9s-1.5.3-2.1.9l-8.5 8.5c-1.2 1.2-1.2 3.1 0 4.2 1.1 1.2 3 1.2 4.2 0z"/></svg>