<svg xmlns="http://www.w3.org/2000/svg" viewBox="0 0 58 64" enable-background="new 0 0 58 64"><style type="text/css">.st0{fill:#333333;}</style><title>split-v</title><desc>Created with Sketch.</desc><path class="st0" d="M29 0c-1.7 0-3 1.3-3 3v58c0 1.7 1.3 3 3 3s3-1.3 3-3v-58c0-1.7-1.3-3-3-3zM56.3 29.6l-8.5-8.5c-1.2-1.2-3.1-1.2-4.2 0-1.2 1.2-1.2 3.1 0 4.2l6.4 6.4-6.4 6.4c-1.2 1.2-1.2 3.1 0 4.2 1.2 1.2 3.1 1.2 4.2 0l8.5-8.5c.6-.6.9-1.3.9-2.1 0-.7-.3-1.5-.9-2.1zM14.4 21.1c-1.2-1.2-3.1-1.2-4.2 0l-8.5 8.5c-.6.6-.9 1.3-.9 2.1s.3 1.5.9 2.1l8.5 8.5c1.2 1.2 3.1 1.2 4.2 0 1.2-1.2 1.2-3.1 0-4.2l-6.4-6.4 6.4-6.4c1.2-1.1 1.2-3 0-4.2z"/></svg>