<?xml version="1.0" encoding="utf-8"?>
<!-- Generator: Adobe Illustrator 21.0.0, SVG Export Plug-In . SVG Version: 6.00 Build 0)  -->
<svg version="1.1" id="Layer_1" xmlns="http://www.w3.org/2000/svg" xmlns:xlink="http://www.w3.org/1999/xlink" x="0px" y="0px"
	 viewBox="0 0 64 45" style="enable-background:new 0 0 64 45;" xml:space="preserve">
<style type="text/css">
	.st0{fill:#343434;}
</style>
<g>
	<path class="st0" d="M61.5,7.3c-12.1-5.5-25-7.9-38.3-7.2C16.3,0.5,9.5,1.7,2.9,3.8C0.7,4.5-0.5,7.3,0.2,9.6c0.7,2.2,3,3.5,5.2,2.8
		c6-1.9,12.1-3,18.4-3.3c12-0.6,23.6,1.6,34.6,6.5c0.6,0.3,1.2,0.4,1.8,0.3c1.5-0.1,2.9-1.5,3.6-3C64.6,10.8,63.6,8.3,61.5,7.3z"/>
	<path class="st0" d="M57,23.4C47.2,18.5,36.1,16,25,16c-6.2,0-12.4,0.8-18.3,2.3c-1.9,0.5-3,3.6-2.5,5.4c0.5,1.8,2.5,2.9,4.4,2.4
		C13.9,24.7,19.5,24,25,24c10.1,0,19.7,2.2,28.6,6.6c0.5,0.3,1.1,0.4,1.7,0.4c1.3,0,2.5-1.9,3.2-3.1C59.4,26.3,58.7,24.2,57,23.4z"
		/>
	<path class="st0" d="M52.2,37.7C43.9,33.3,34.5,31,25,31c-5.7,0-11.3,0.8-16.7,2.4c-1.7,0.5-2.6,3.9-2.1,5.5c0.5,1.6,2.3,2.5,4,2
		C15,39.4,20,38.7,25,38.7c8.4,0,16.8,2.1,24.1,5.9c0.5,0.3,1,0.4,1.5,0.4c1.1,0,2.2-0.6,2.7-1.6C54.3,42,53.7,38.5,52.2,37.7z"/>
</g>
</svg>
