<svg xmlns="http://www.w3.org/2000/svg" viewBox="0 0 64 64"><path d="M60 0H4C1.8 0 0 1.8 0 4v56c0 2.2 1.8 4 4 4h56c2.2 0 4-1.8 4-4V4c0-2.2-1.8-4-4-4zM47.7 49.9c-.4.7-1.2 1.1-2 1.1-.4 0-.7-.1-1.1-.3-5.2-2.8-11.2-4.2-17.2-4.2-3.6 0-7.2.5-10.6 1.5-1.2.3-2.5-.3-2.8-1.4-.4-1.1.3-3.5 1.5-3.9 3.9-1.1 7.8-1.7 11.9-1.7 6.8 0 13.5 1.6 19.4 4.8 1.1.5 1.5 3 .9 4.1zm4-11.1c-.4.9-1.3 2.2-2.3 2.2-.4 0-.8-.1-1.2-.3-6.3-3.2-13.2-4.8-20.4-4.8-4 0-7.9.5-11.7 1.5-1.4.4-2.8-.4-3.1-1.8-.4-1.3.4-3.6 1.8-4 4.2-1.1 8.6-1.7 13-1.7 7.9 0 15.8 1.9 22.7 5.4 1.4.7 1.9 2.2 1.2 3.5zm3.2-12c-.4 1.1-1.4 2.1-2.5 2.2-.4 0-.9-.1-1.3-.2-7.7-3.6-15.9-5.3-24.4-4.8-4.4.2-8.7 1-13 2.4-1.6.5-3.2-.4-3.6-2.1-.5-1.7.4-3.7 1.9-4.2 4.7-1.5 9.5-2.4 14.4-2.7 9.4-.5 18.5 1.3 27 5.3 1.4.6 2.1 2.5 1.5 4.1z" fill="#343434"/></svg>