<?xml version="1.0" encoding="utf-8"?>
<!-- Generator: Adobe Illustrator 21.0.0, SVG Export Plug-In . SVG Version: 6.00 Build 0)  -->
<svg version="1.1" id="Layer_1" xmlns="http://www.w3.org/2000/svg" xmlns:xlink="http://www.w3.org/1999/xlink" x="0px" y="0px"
	 viewBox="0 0 64 64" style="enable-background:new 0 0 64 64;" xml:space="preserve">
<style type="text/css">
	.st0{fill:#343434;}
</style>
<path class="st0" d="M32,0C14.3,0,0,14.3,0,32c0,17.7,14.3,32,32,32c17.7,0,32-14.3,32-32C64,14.3,49.7,0,32,0z M47.7,49.9
	c-0.4,0.7-1.2,1.1-2,1.1c-0.4,0-0.7-0.1-1.1-0.3c-5.2-2.8-11.2-4.2-17.2-4.2c-3.6,0-7.2,0.5-10.6,1.5c-1.2,0.3-2.5-0.3-2.8-1.4
	c-0.4-1.1,0.3-3.5,1.5-3.9c3.9-1.1,7.8-1.7,11.9-1.7c6.8,0,13.5,1.6,19.4,4.8C47.9,46.3,48.3,48.8,47.7,49.9z M51.7,38.8
	c-0.4,0.9-1.3,2.2-2.3,2.2c-0.4,0-0.8-0.1-1.2-0.3c-6.3-3.2-13.2-4.8-20.4-4.8c-4,0-7.9,0.5-11.7,1.5c-1.4,0.4-2.8-0.4-3.1-1.8
	c-0.4-1.3,0.4-3.6,1.8-4c4.2-1.1,8.6-1.7,13-1.7c7.9,0,15.8,1.9,22.7,5.4C51.9,36,52.4,37.5,51.7,38.8z M52.4,29
	c-0.4,0-0.9-0.1-1.3-0.2c-7.7-3.6-15.9-5.3-24.4-4.8c-4.4,0.2-8.7,1-13,2.4c-1.6,0.5-3.2-0.4-3.6-2.1c-0.5-1.7,0.4-3.7,1.9-4.2
	c4.7-1.5,9.5-2.4,14.4-2.7c9.4-0.5,18.5,1.3,27,5.3c1.5,0.7,2.2,2.5,1.5,4.1C54.5,27.9,53.5,28.9,52.4,29z"/>
</svg>
