<svg xmlns="http://www.w3.org/2000/svg" viewBox="0 0 51 65" enable-background="new 0 0 51 65"><style type="text/css">.st0{fill:#343434;}</style><path class="st0" d="M9.6 55.7h22.2c1 0 1.8-.8 1.8-1.8v-2.5c0-1-.8-1.8-1.8-1.8h-22.2c-1 0-1.8.8-1.8 1.8v2.5c0 1 .8 1.8 1.8 1.8zM40.4 37.4h-1.4c-1 0-1.8.8-1.8 1.8v19c0 .6-.5 1.1-1.1 1.1h-30c-.6 0-1.1-.5-1.1-1.1v-19c0-1-.8-1.8-1.8-1.8h-1.4c-1 0-1.8.8-1.8 1.8v21.5c0 3.4 0 3.4.4 3.4h39.6c2.1 0 2.1 0 2.1-.4v-24.5c.1-1-.7-1.8-1.7-1.8zM9.8 46.6l22.2 2h.2c.9 0 1.7-.7 1.8-1.6l.2-2.5c.1-1-.6-1.8-1.6-1.9l-22.1-2c-1-.1-1.9.6-1.9 1.6l-.2 2.5c0 .5.1.9.4 1.3.1.4.5.6 1 .6zM50.3 23.6l-3.8-21.8c-.2-1-1.1-1.6-2.1-1.4l-2.4.4c-1 .2-1.6 1.1-1.5 2.1l3.8 21.8c.1.9.9 1.5 1.8 1.5h.3l2.5-.4c.9-.3 1.6-1.2 1.4-2.2zM15.9 23.5l19.1 11.3c.3.2.6.2.9.2.6 0 1.2-.3 1.5-.9l1.3-2.1c.2-.4.3-.9.2-1.4-.1-.5-.4-.9-.8-1.1l-19.1-11.3c-.8-.5-2-.2-2.5.6l-1.3 2.2c-.2.4-.3.9-.2 1.4.2.4.5.8.9 1.1zM31.3 6.8c-.5-.8-1.7-1-2.5-.5l-2.1 1.4c-.8.6-1 1.6-.5 2.5l12.4 18.1c.3.5.9.8 1.5.8.4 0 .7-.1 1-.3l2-1.4c.8-.6 1-1.6.5-2.5l-12.3-18.1zM11.3 36.1l21.7 5.9.5.1c.8 0 1.5-.6 1.7-1.4l.7-2.5c.3-1-.3-2-1.3-2.2l-21.7-5.9c-.9-.3-2 .3-2.2 1.3l-.7 2.5c-.2.9.4 1.9 1.3 2.2z"/></svg>