<?xml version="1.0" encoding="utf-8"?>
<!-- Generator: Adobe Illustrator 21.0.0, SVG Export Plug-In . SVG Version: 6.00 Build 0)  -->
<svg version="1.1" id="Layer_1" xmlns="http://www.w3.org/2000/svg" xmlns:xlink="http://www.w3.org/1999/xlink" x="0px" y="0px"
	 viewBox="0 0 51 65" style="enable-background:new 0 0 51 65;" xml:space="preserve">
<style type="text/css">
	.st0{fill:#343434;}
</style>
<g>
	<path class="st0" d="M9.6,55.7L9.6,55.7l22.2,0c1,0,1.8-0.8,1.8-1.8v-2.5c0-1-0.8-1.8-1.8-1.8l-22.2,0c-1,0-1.8,0.8-1.8,1.8v2.5
		C7.8,54.9,8.6,55.7,9.6,55.7z"/>
	<path class="st0" d="M40.4,37.4H39c-1,0-1.8,0.8-1.8,1.8v19c0,0.6-0.5,1.1-1.1,1.1h-30c-0.6,0-1.1-0.5-1.1-1.1v-19
		c0-1-0.8-1.8-1.8-1.8H1.8c-1,0-1.8,0.8-1.8,1.8c0,2.7,0,8.9,0,14.3c0,2.7,0,5.3,0,7.2c0,3.4,0,3.4,0.4,3.4h0l1.2,0h0
		c0,0,10,0,20.1,0c5,0,10,0,13.8,0c1.9,0,3.4,0,4.5,0c2.1,0,2.1,0,2.1-0.4l0-1.2V39.2C42.2,38.2,41.4,37.4,40.4,37.4z"/>
	<path class="st0" d="M9.8,46.6l22.2,2c0.1,0,0.1,0,0.2,0c0.9,0,1.7-0.7,1.8-1.6l0.2-2.5c0.1-1-0.6-1.8-1.6-1.9l-22.1-2
		c-1-0.1-1.9,0.6-1.9,1.6l-0.2,2.5c0,0.5,0.1,0.9,0.4,1.3C8.9,46.4,9.3,46.6,9.8,46.6z"/>
	<path class="st0" d="M50.3,23.6L46.5,1.8c-0.2-1-1.1-1.6-2.1-1.4L42,0.8c-1,0.2-1.6,1.1-1.5,2.1l3.8,21.8c0.1,0.9,0.9,1.5,1.8,1.5
		c0.1,0,0.2,0,0.3,0l2.5-0.4C49.8,25.5,50.5,24.6,50.3,23.6z"/>
	<path class="st0" d="M15.9,23.5L35,34.8c0.3,0.2,0.6,0.2,0.9,0.2c0.6,0,1.2-0.3,1.5-0.9l1.3-2.1c0.2-0.4,0.3-0.9,0.2-1.4
		c-0.1-0.5-0.4-0.9-0.8-1.1L19,18.2c-0.8-0.5-2-0.2-2.5,0.6L15.2,21c-0.2,0.4-0.3,0.9-0.2,1.4C15.2,22.8,15.5,23.2,15.9,23.5z"/>
	<path class="st0" d="M31.3,6.8c-0.5-0.8-1.7-1-2.5-0.5l-2.1,1.4c-0.8,0.6-1,1.6-0.5,2.5l12.4,18.1c0.3,0.5,0.9,0.8,1.5,0.8
		c0.4,0,0.7-0.1,1-0.3l2-1.4c0.8-0.6,1-1.6,0.5-2.5L31.3,6.8z"/>
	<path class="st0" d="M11.3,36.1l21.7,5.9c0.2,0,0.3,0.1,0.5,0.1c0.8,0,1.5-0.6,1.7-1.4l0.7-2.5c0.3-1-0.3-2-1.3-2.2l-21.7-5.9
		c-0.9-0.3-2,0.3-2.2,1.3l-0.7,2.5C9.8,34.8,10.4,35.8,11.3,36.1z"/>
</g>
</svg>
