<svg xmlns="http://www.w3.org/2000/svg" viewBox="0 0 64 64" enable-background="new 0 0 64 64"><style type="text/css">.st0{fill:#343434;}</style><title>stamp</title><desc>Created with Sketch.</desc><path class="st0" d="M62 45h-15v-2.5c0-3-2.5-5.5-5.5-5.5h-3.5v-13c1.5-6 4-11.7 4-14 0-5.6-4.5-10-10-10s-10 4.4-10 10c0 2.3 2.6 8 4 14v13h-3.5c-3 0-5.5 2.5-5.5 5.5v2.5h-15c-1.1 0-2 .9-2 2v10c0 1.1.9 2 2 2h3v5h54v-5h3c1.1 0 2-.9 2-2v-10c0-1.1-.9-2-2-2zm-30-41c3.3 0 6 2.7 6 6 0 .2-.2 1-.6 2.3-.3.8-1.5 4.5-1.7 5.2-.7 2-1.2 3.8-1.6 5.4h-4.3c-.4-1.6-.9-3.4-1.6-5.5-.2-.7-1.4-4.3-1.7-5.2-.3-1.2-.5-2-.5-2.2 0-3.3 2.7-6 6-6zm-2 23h4v10h-4v-10zm-9 15.5c0-.8.7-1.5 1.5-1.5h19c.8 0 1.5.7 1.5 1.5v1.5h-22v-1.5zm35 18.5h-48v-2h48v2zm4-6h-56v-6h56v6z"/></svg>