<?xml version="1.0" encoding="utf-8"?>
<!-- Generator: Adobe Illustrator 21.0.0, SVG Export Plug-In . SVG Version: 6.00 Build 0)  -->
<svg version="1.1" id="Layer_1" xmlns="http://www.w3.org/2000/svg" xmlns:xlink="http://www.w3.org/1999/xlink" x="0px" y="0px"
	 viewBox="0 0 64 64" style="enable-background:new 0 0 64 64;" xml:space="preserve">
<style type="text/css">
	.st0{fill:#333333;}
</style>
<title>stop</title>
<desc>Created with Sketch.</desc>
<path class="st0" d="M32,0C14.3,0,0,14.3,0,32c0,17.7,14.3,32,32,32s32-14.3,32-32C64,14.3,49.7,0,32,0z M32,6
	c6.1,0,11.7,2.1,16.1,5.6L11.6,48.1C8.1,43.7,6,38.1,6,32C6,17.6,17.6,6,32,6z M32,58c-6.1,0-11.7-2.1-16.1-5.6l36.5-36.5
	c3.5,4.4,5.6,10,5.6,16.1C58,46.4,46.4,58,32,58z"/>
</svg>
