<?xml version="1.0" encoding="utf-8"?>
<!-- Generator: Adobe Illustrator 21.0.0, SVG Export Plug-In . SVG Version: 6.00 Build 0)  -->
<svg version="1.1" id="Layer_1" xmlns="http://www.w3.org/2000/svg" xmlns:xlink="http://www.w3.org/1999/xlink" x="0px" y="0px"
	 viewBox="0 0 64 64" style="enable-background:new 0 0 64 64;" xml:space="preserve">
<style type="text/css">
	.st0{fill:#333333;}
</style>
<title>strikethrough</title>
<desc>Created with Sketch.</desc>
<g>
	<path class="st0" d="M46.6,37H32.8c0.3,0.2,0.6,0.3,0.8,0.5c2.1,1.2,3.9,2.6,5.3,4.2c1.4,1.6,2.1,3.5,2.1,5.8c0,1.7-0.3,3.3-1,4.7
		c-0.7,1.4-1.6,2.5-2.8,3.5s-2.6,1.7-4.2,2.2s-3.4,0.7-5.2,0.7c-2.2,0-3.9-0.2-5-0.7c-1.1-0.5-2-1.1-2.7-1.8l-3.6-12.8h-2.3
		c-0.2,1-0.5,2.2-0.7,3.6c-0.2,1.4-0.4,2.8-0.7,4.3s-0.4,2.9-0.5,4.3c-0.1,1.4-0.1,2.5-0.2,3.5c1.2,1,3.3,1.9,6.2,2.8
		c2.9,0.9,6.2,1.3,9.8,1.3c3.3,0,6.3-0.4,8.9-1.2c2.6-0.8,4.8-2,6.6-3.5c1.8-1.5,3.2-3.3,4.1-5.5c1-2.1,1.4-4.5,1.4-7.1
		c0-3.2-0.7-5.9-2.1-8C46.9,37.5,46.7,37.2,46.6,37z"/>
	<path class="st0" d="M16.8,27h15.9c-1.7-0.9-3.3-1.8-4.8-2.7C25.8,23,24,21.6,22.5,20c-1.5-1.6-2.1-3.6-2.1-6c0-3,0.9-5.3,2.7-6.9
		c1.8-1.7,4.2-2.5,7.1-2.5c1.8,0,3.5,0.1,5.1,0.3c1.6,0.2,2.9,0.6,4,1l3.5,11.9H45c0.2-1,0.5-2.1,0.7-3.4c0.2-1.3,0.4-2.7,0.7-4
		c0.3-1.3,0.4-2.7,0.5-4C47,5.1,47.1,3.9,47.1,3c-1.7-0.8-4-1.5-6.9-2c-2.9-0.6-6.2-0.8-9.7-0.8c-2.7,0-5.2,0.4-7.4,1.1
		C20.9,2,19,3.1,17.4,4.4c-1.6,1.3-2.8,3-3.7,4.9c-0.9,1.9-1.3,4.1-1.3,6.5c0,3.4,0.7,6.2,2.1,8.4C15.2,25.1,16,26.1,16.8,27z"/>
	<path class="st0" d="M61,29H3c-1.7,0-3,1.3-3,3s1.3,3,3,3h58c1.7,0,3-1.3,3-3S62.7,29,61,29z"/>
</g>
</svg>
