<svg xmlns="http://www.w3.org/2000/svg" viewBox="0 0 61 61" enable-background="new 0 0 61 61"><style type="text/css">.st0{fill:#333333;}</style><title>sword</title><desc>Created with Sketch.</desc><path class="st0" d="M60.9.6l-11.8.5-30.6 30.6-1.4-1.4c-.8-.8-2.1-.8-2.8 0l-2.8 2.8c-.8.8-.8 2 0 2.8l3.5 3.5-8.5 8.5c-.8-.8-2.1-.8-2.8 0l-2.1 2.1c-.8.8-.8 2.1 0 2.8l7 7.2c.8.8 2.1.8 2.8 0l2.1-2.1c.8-.8.8-2 0-2.8l8.5-8.5 3.5 3.5c.8.8 2.1.8 2.8 0l2.8-2.8c.8-.8.8-2 0-2.8l-1.3-1.5 30.6-30.6.5-11.8zm-47.3 44.5l2.8 2.8-1.5 1.5-2.9-2.8 1.6-1.5zm-3 2.9l2.8 2.8-2 2-2.8-2.8 2-2zm-.6 9.1l-5.7-5.7.7-.7 5.7 5.7-.7.7zm7.8-10.6l-2.8-2.8 2.1-2.1 2.8 2.8-2.1 2.1zm10.6-.7l-1.4 1.4-2.8-2.8-7.1-7.1-2.8-2.8 1.4-1.4.7.7 11.3 11.3.7.7zm29.1-34.7l-29.8 29.8-3.5-3.5-3.5-3.5 29.7-29.9 7.4-.3-.3 7.4zM40.4 19.7l-15.5 15.5c-.4.4-.4 1 0 1.4.4.4 1 .4 1.4 0l15.6-15.6c.4-.4.4-1 0-1.4-.5-.3-1.1-.3-1.5.1z"/></svg>