<?xml version="1.0" encoding="utf-8"?>
<!-- Generator: Adobe Illustrator 21.0.0, SVG Export Plug-In . SVG Version: 6.00 Build 0)  -->
<svg version="1.1" id="Layer_1" xmlns="http://www.w3.org/2000/svg" xmlns:xlink="http://www.w3.org/1999/xlink" x="0px" y="0px"
	 viewBox="0 0 64 64" style="enable-background:new 0 0 64 64;" xml:space="preserve">
<style type="text/css">
	.st0{fill:#333333;}
</style>
<title>table</title>
<desc>Created with Sketch.</desc>
<path class="st0" d="M57.2,0H6.8C3,0,0,3,0,6.8V11v1v48v1c0,1.6,1.3,3,3,3h58c1.6,0,3-1.3,3-3v-1V12v-1V6.8C64,3,61,0,57.2,0z
	 M15,60H4v-9h11V60z M15,47H4v-9h11V47z M15,34H4v-9h11V34z M15,21H4v-9h11V21z M30,60H19v-9h11V60z M30,47H19v-9h11V47z M30,34H19
	v-9h11V34z M30,21H19v-9h11V21z M45,60H34v-9h11V60z M45,47H34v-9h11V47z M45,34H34v-9h11V34z M45,21H34v-9h11V21z M60,60H49v-9h11
	V60z M60,47H49v-9h11V47z M60,34H49v-9h11V34z M60,21H49v-9h11V21z"/>
</svg>
