<svg xmlns="http://www.w3.org/2000/svg" viewBox="0 0 64 64" enable-background="new 0 0 64 64"><style type="text/css">.st0{fill:#333333;}</style><title>table</title><desc>Created with Sketch.</desc><path class="st0" d="M57.2 0h-50.4c-3.8 0-6.8 3-6.8 6.8v54.2c0 1.6 1.3 3 3 3h58c1.6 0 3-1.3 3-3v-54.2c0-3.8-3-6.8-6.8-6.8zm-42.2 60h-11v-9h11v9zm0-13h-11v-9h11v9zm0-13h-11v-9h11v9zm0-13h-11v-9h11v9zm15 39h-11v-9h11v9zm0-13h-11v-9h11v9zm0-13h-11v-9h11v9zm0-13h-11v-9h11v9zm15 39h-11v-9h11v9zm0-13h-11v-9h11v9zm0-13h-11v-9h11v9zm0-13h-11v-9h11v9zm15 39h-11v-9h11v9zm0-13h-11v-9h11v9zm0-13h-11v-9h11v9zm0-13h-11v-9h11v9z"/></svg>