<?xml version="1.0" encoding="utf-8"?>
<!-- Generator: Adobe Illustrator 21.0.0, SVG Export Plug-In . SVG Version: 6.00 Build 0)  -->
<svg version="1.1" id="Layer_1" xmlns="http://www.w3.org/2000/svg" xmlns:xlink="http://www.w3.org/1999/xlink" x="0px" y="0px"
	 viewBox="0 0 64 64" style="enable-background:new 0 0 64 64;" xml:space="preserve">
<style type="text/css">
	.st0{fill:#333333;}
</style>
<title>tag-f</title>
<desc>Created with Sketch.</desc>
<path class="st0" d="M54.2,0.9L38.2,1c-1.1,0-2.6,0.7-3.4,1.4L1.4,35.8c-0.8,0.8-0.8,2.1,0,2.8l24,24c0.8,0.8,2.1,0.8,2.8,0
	l33.4-33.4c0.8-0.8,1.4-2.3,1.4-3.4l0.1-16L54.2,0.9z M53.6,20.4c-2.8,2.8-7.2,2.8-10,0.1c-2.7-2.7-2.7-7.2,0.1-10
	c2.8-2.8,7.2-2.8,10-0.1C56.4,13.2,56.4,17.7,53.6,20.4z"/>
</svg>
