<?xml version="1.0" encoding="utf-8"?>
<!-- Generator: Adobe Illustrator 21.0.0, SVG Export Plug-In . SVG Version: 6.00 Build 0)  -->
<svg version="1.1" id="Layer_1" xmlns="http://www.w3.org/2000/svg" xmlns:xlink="http://www.w3.org/1999/xlink" x="0px" y="0px"
	 viewBox="0 0 62 63" style="enable-background:new 0 0 62 63;" xml:space="preserve">
<style type="text/css">
	.st0{fill:#333333;}
</style>
<title>tags</title>
<desc>Created with Sketch.</desc>
<g>
	<path class="st0" d="M54.9,2.3L42.3,0.5c-1.1-0.2-2.7,0.2-3.6,0.9L7.6,24c-0.9,0.6-1.1,1.9-0.4,2.8l2.9,3.9l-8.9,6.5
		c-0.8,0.6-0.9,1.6-0.4,2.3l16.5,22.7c0.5,0.7,1.6,0.9,2.3,0.3l32.1-23.3c0.8-0.6,1.5-1.7,1.7-2.6l1.5-8.5l0,0l2.2-1.6
		c0.9-0.6,1.8-2,1.9-3.1l2.2-12.6L54.9,2.3z M50.2,36.2L18.9,58.9l-14.5-20l7.6-5.5l11.1,15.3c0.6,0.9,1.9,1.1,2.8,0.4l25.5-18.5
		L50.2,36.2z M55.6,22.9c0,0.2-0.4,0.8-0.6,0.9L25.1,45.5L11,26L40.9,4.3c0.2-0.1,0.8-0.3,1-0.3l11.2,1.6l4.4,6.1L55.6,22.9z"/>
	<path class="st0" d="M45.7,8.6c-2.7,1.9-3.3,5.7-1.3,8.4s5.7,3.3,8.4,1.3s3.3-5.7,1.3-8.4S48.4,6.6,45.7,8.6z M51.6,11.7
		c1,1.3,0.7,3.2-0.7,4.2c-1.4,1-3.2,0.7-4.2-0.7c-1-1.3-0.7-3.2,0.7-4.2C48.8,10,50.7,10.4,51.6,11.7z"/>
</g>
</svg>
