<?xml version="1.0" encoding="utf-8"?>
<!-- Generator: Adobe Illustrator 21.0.0, SVG Export Plug-In . SVG Version: 6.00 Build 0)  -->
<svg version="1.1" id="Layer_1" xmlns="http://www.w3.org/2000/svg" xmlns:xlink="http://www.w3.org/1999/xlink" x="0px" y="0px"
	 viewBox="0 0 58 62" style="enable-background:new 0 0 58 62;" xml:space="preserve">
<style type="text/css">
	.st0{fill:#333333;}
</style>
<title>tags-f</title>
<desc>Created with Sketch.</desc>
<g id="Page-1">
	<g id="t1" transform="translate(-0.000000, 0.000000)">
	</g>
	<g>
		<path class="st0" d="M52.4,31.8L21.1,54.6c-0.9,0.7-2.2,0.4-2.8-0.4L3.6,33.9l-2.3,1.7c-0.9,0.7-1.1,1.9-0.4,2.8l16.1,22.1
			c0.6,0.9,1.9,1.1,2.8,0.4L51,38.2c0.9-0.7,1.8-2.1,2-3.1l0.8-4.9C53.4,30.8,52.9,31.4,52.4,31.8z"/>
		<path class="st0" d="M51.3,2.4L38.5,0.6c-1.1-0.2-2.7,0.2-3.6,0.9L3.6,24.2c-0.9,0.7-1.1,1.9-0.4,2.8l16.1,22.1
			c0.6,0.9,1.9,1.1,2.8,0.4l31.3-22.8c0.9-0.7,1.8-2.1,2-3.1L57.5,11L51.3,2.4z M48.2,18.3c-2.7,1.9-6.3,1.4-8.2-1.2
			c-1.9-2.6-1.2-6.2,1.4-8.2c2.7-1.9,6.3-1.4,8.2,1.2C51.5,12.7,50.9,16.4,48.2,18.3z"/>
	</g>
</g>
</svg>
