<svg xmlns="http://www.w3.org/2000/svg" viewBox="0 0 58 62" enable-background="new 0 0 58 62"><style type="text/css">.st0{fill:#333333;}</style><title>tags-f</title><desc>Created with Sketch.</desc><g id="Page-1"><path class="st0" d="M52.4 31.8l-31.3 22.8c-.9.7-2.2.4-2.8-.4l-14.7-20.3-2.3 1.7c-.9.7-1.1 1.9-.4 2.8l16.1 22.1c.6.9 1.9 1.1 2.8.4l31.2-22.7c.9-.7 1.8-2.1 2-3.1l.8-4.9c-.4.6-.9 1.2-1.4 1.6zM51.3 2.4l-12.8-1.8c-1.1-.2-2.7.2-3.6.9l-31.3 22.7c-.9.7-1.1 1.9-.4 2.8l16.1 22.1c.6.9 1.9 1.1 2.8.4l31.3-22.8c.9-.7 1.8-2.1 2-3.1l2.1-12.6-6.2-8.6zm-3.1 15.9c-2.7 1.9-6.3 1.4-8.2-1.2-1.9-2.6-1.2-6.2 1.4-8.2 2.7-1.9 6.3-1.4 8.2 1.2 1.9 2.6 1.3 6.3-1.4 8.2z"/></g></svg>