<svg xmlns="http://www.w3.org/2000/svg" viewBox="0 0 64 64"><path d="M42 30h-8v-8c0-1.1-.9-2-2-2s-2 .9-2 2v8h-8c-1.1 0-2 .9-2 2s.9 2 2 2h8v8c0 1.1.9 2 2 2s2-.9 2-2v-8h8c1.1 0 2-.9 2-2s-.9-2-2-2zm20 0h-2.1c-1-13.9-12-24.9-25.9-25.9V2c0-1.1-.9-2-2-2s-2 .9-2 2v2.1C16.1 5.1 5.1 16.1 4.1 30H2c-1.1 0-2 .9-2 2s.9 2 2 2h2.1c1 13.9 12.1 24.9 25.9 25.9V62c0 1.1.9 2 2 2s2-.9 2-2v-2.1c13.9-1 24.9-12.1 25.9-25.9H62c1.1 0 2-.9 2-2s-.9-2-2-2zM34 55.9V54c0-1.1-.9-2-2-2s-2 .9-2 2v1.9C18.3 54.9 9.1 45.7 8.1 34H10c1.1 0 2-.9 2-2s-.9-2-2-2H8.1C9.1 18.3 18.3 9.1 30 8.1V10c0 1.1.9 2 2 2s2-.9 2-2V8.1c11.7 1 20.9 10.3 21.9 21.9H54c-1.1 0-2 .9-2 2s.9 2 2 2h1.9c-1 11.7-10.2 20.9-21.9 21.9z" fill="#333"/></svg>