<svg xmlns="http://www.w3.org/2000/svg" viewBox="0 0 64 64" enable-background="new 0 0 64 64"><style type="text/css">.st0{fill:#333333;}</style><title>target</title><desc>Created with Sketch.</desc><path class="st0" d="M42 30h-8v-8c0-1.1-.9-2-2-2s-2 .9-2 2v8h-8c-1.1 0-2 .9-2 2s.9 2 2 2h8v8c0 1.1.9 2 2 2s2-.9 2-2v-8h8c1.1 0 2-.9 2-2s-.9-2-2-2zM62 30h-2.1c-1-13.9-12-24.9-25.9-25.9v-2.1c0-1.1-.9-2-2-2s-2 .9-2 2v2.1c-13.9 1-24.9 12-25.9 25.9h-2.1c-1.1 0-2 .9-2 2s.9 2 2 2h2.1c1 13.9 12.1 24.9 25.9 25.9v2.1c0 1.1.9 2 2 2s2-.9 2-2v-2.1c13.9-1 24.9-12.1 25.9-25.9h2.1c1.1 0 2-.9 2-2s-.9-2-2-2zm-28 25.9v-1.9c0-1.1-.9-2-2-2s-2 .9-2 2v1.9c-11.7-1-20.9-10.2-21.9-21.9h1.9c1.1 0 2-.9 2-2s-.9-2-2-2h-1.9c1-11.7 10.2-20.9 21.9-21.9v1.9c0 1.1.9 2 2 2s2-.9 2-2v-1.9c11.7 1 20.9 10.3 21.9 21.9h-1.9c-1.1 0-2 .9-2 2s.9 2 2 2h1.9c-1 11.7-10.2 20.9-21.9 21.9z"/></svg>