<?xml version="1.0" encoding="utf-8"?>
<!-- Generator: Adobe Illustrator 21.0.0, SVG Export Plug-In . SVG Version: 6.00 Build 0)  -->
<svg version="1.1" id="Layer_1" xmlns="http://www.w3.org/2000/svg" xmlns:xlink="http://www.w3.org/1999/xlink" x="0px" y="0px"
	 viewBox="0 0 64 64" style="enable-background:new 0 0 64 64;" xml:space="preserve">
<style type="text/css">
	.st0{fill:#333333;}
</style>
<title>target</title>
<desc>Created with Sketch.</desc>
<g>
	<path class="st0" d="M42,30h-8v-8c0-1.1-0.9-2-2-2c-1.1,0-2,0.9-2,2v8h-8c-1.1,0-2,0.9-2,2c0,1.1,0.9,2,2,2h8v8c0,1.1,0.9,2,2,2
		c1.1,0,2-0.9,2-2v-8h8c1.1,0,2-0.9,2-2C44,30.9,43.1,30,42,30z"/>
	<path class="st0" d="M62,30h-2.1C58.9,16.1,47.9,5.1,34,4.1V2c0-1.1-0.9-2-2-2c-1.1,0-2,0.9-2,2v2.1C16.1,5.1,5.1,16.1,4.1,30H2
		c-1.1,0-2,0.9-2,2c0,1.1,0.9,2,2,2h2.1c1,13.9,12.1,24.9,25.9,25.9V62c0,1.1,0.9,2,2,2c1.1,0,2-0.9,2-2v-2.1
		c13.9-1,24.9-12.1,25.9-25.9H62c1.1,0,2-0.9,2-2C64,30.9,63.1,30,62,30z M34,55.9V54c0-1.1-0.9-2-2-2c-1.1,0-2,0.9-2,2v1.9
		C18.3,54.9,9.1,45.7,8.1,34H10c1.1,0,2-0.9,2-2c0-1.1-0.9-2-2-2H8.1C9.1,18.3,18.3,9.1,30,8.1V10c0,1.1,0.9,2,2,2c1.1,0,2-0.9,2-2
		V8.1c11.7,1,20.9,10.3,21.9,21.9H54c-1.1,0-2,0.9-2,2c0,1.1,0.9,2,2,2h1.9C54.9,45.7,45.7,54.9,34,55.9z"/>
</g>
</svg>
