<svg xmlns="http://www.w3.org/2000/svg" viewBox="0 0 63 32" enable-background="new 0 0 63 32"><style type="text/css">.st0{fill:#343434;}</style><title>task</title><desc>Created with Sketch.</desc><path class="st0" d="M62 28h-30c-.6 0-1 .4-1 1v2c0 .6.4 1 1 1h30c.6 0 1-.4 1-1v-2c0-.6-.4-1-1-1zM62 14h-30c-.6 0-1 .4-1 1v2c0 .6.4 1 1 1h30c.6 0 1-.4 1-1v-2c0-.6-.4-1-1-1zM62 0h-30c-.6 0-1 .4-1 1v2c0 .6.4 1 1 1h30c.6 0 1-.4 1-1v-2c0-.6-.4-1-1-1zM26.2 3.2c-.4-.4-1-.4-1.4 0l-2.9 2.8h-19.9v3l-1.3 1.3c-.4.4-.4 1 0 1.4l1.3 1.3v13h20v-14.4l5.6-5.6c.4-.4.4-1 0-1.4l-1.4-1.4zm-7.3 5.8l-7.6 7.6-6.3-6.3v-1.3h13.9zm.1 14h-14v-7l5.6 5.6c.2.2.5.3.7.3.3 0 .5-.1.7-.3l7-7v8.4z"/></svg>