<svg xmlns="http://www.w3.org/2000/svg" viewBox="0 0 26 64" enable-background="new 0 0 26 64"><style type="text/css">.st0{fill:#333333;}</style><title>thermometer-full</title><desc>Created with Sketch.</desc><path class="st0" d="M22 41.6v-32.6c0-5-4-9-9-9s-9 4-9 9v32.6c-2.5 2.4-4 5.7-4 9.4 0 7.2 5.8 13 13 13s13-5.8 13-13c0-3.7-1.5-7-4-9.4zm-9 18.4c-5 0-9-4-9-9 0-2.5 1-4.8 2.8-6.5l1.2-1.2v-34.3c0-2.8 2.2-5 5-5s5 2.2 5 5v34.3l1.2 1.2c1.8 1.7 2.8 4 2.8 6.5 0 5-4 9-9 9zM16 44.7v-33.7h-6v33.7c-2.4 1.1-4 3.5-4 6.3 0 3.9 3.1 7 7 7s7-3.1 7-7c0-2.8-1.6-5.2-4-6.3z"/></svg>