<?xml version="1.0" encoding="utf-8"?>
<!-- Generator: Adobe Illustrator 21.0.0, SVG Export Plug-In . SVG Version: 6.00 Build 0)  -->
<svg version="1.1" id="Layer_1" xmlns="http://www.w3.org/2000/svg" xmlns:xlink="http://www.w3.org/1999/xlink" x="0px" y="0px"
	 viewBox="0 0 38 64" style="enable-background:new 0 0 38 64;" xml:space="preserve">
<style type="text/css">
	.st0{fill:#333333;}
</style>
<title>ticket</title>
<desc>Created with Sketch.</desc>
<g>
	<path class="st0" d="M26.9,0c0,4.4-3.3,8-7.4,8C15.4,8,12,4.4,12,0H0v64h12c0-4.4,3.3-8,7.4-8c4.1,0,7.4,3.6,7.4,8H38V0H26.9z
		 M30.2,60c-1.6-4.6-5.7-8-10.8-8c-5,0-9.2,3.4-10.8,8H4V23h9v-3H4V4h4.7c1.6,4.6,5.7,8,10.8,8c5,0,9.2-3.4,10.8-8H34v16H21v3h13v37
		H30.2z"/>
	<rect x="15" y="20" class="st0" width="4" height="3"/>
</g>
</svg>
