<?xml version="1.0" encoding="utf-8"?>
<!-- Generator: Adobe Illustrator 21.0.0, SVG Export Plug-In . SVG Version: 6.00 Build 0)  -->
<svg version="1.1" id="Layer_1" xmlns="http://www.w3.org/2000/svg" xmlns:xlink="http://www.w3.org/1999/xlink" x="0px" y="0px"
	 viewBox="0 0 64 64" style="enable-background:new 0 0 64 64;" xml:space="preserve">
<style type="text/css">
	.st0{fill:#343434;}
</style>
<title>tools</title>
<desc>Created with Sketch.</desc>
<g>
	<path class="st0" d="M62.1,53.6L41.6,33.1l19.9-19.9c2.4-2.4,2.3-6.1,0-8.5L60,3.3c-2.3-2.3-6.1-2.3-8.5,0L31.7,23.2l-2.8-2.8
		l6.4-6.4c1.2-1.2,1.2-3.1,0-4.2l-8.5-8.5c-1.2-1.2-3.1-1.2-4.2,0L16,7.7c-1.5-0.9-3.5-0.7-4.8,0.6l-2.8,2.8
		c-1.3,1.3-1.5,3.3-0.6,4.8l-6.5,6.5c-1.2,1.2-1.2,3.1,0,4.2l8.5,8.5c1.2,1.2,3.1,1.2,4.2,0l6.4-6.4l5.7,5.7L5.6,54.9
		c-1.2,1.2-1.2,3.1,0,4.2c1.2,1.2,3.1,1.2,4.2,0l20.4-20.4l23.3,23.3c1.6,1.6,4.1,1.6,5.7,0l2.8-2.8C63.7,57.7,63.7,55.1,62.1,53.6z
		 M53.7,5.4c1.2-1.2,3.1-1.2,4.2,0l1.4,1.4c1.2,1.2,1.2,3.1,0,4.2L40.2,30.2l-5.7-5.7L53.7,5.4z M26,23.2
		c4.8,4.8,10.3,10.3,15.6,15.6l-2.8,2.8C33.6,36.3,28,30.8,23.2,26L26,23.2z M8.4,57.8c-0.4,0.4-1,0.4-1.4,0c-0.4-0.4-0.4-1,0-1.4
		l20.4-20.4l1.4,1.4L8.4,57.8z M56.5,59.2c0,0-6.6-6.6-14.8-14.8l2.8-2.8c8.2,8.2,14.9,14.8,14.9,14.8
		C59.3,56.4,56.5,59.2,56.5,59.2z"/>
	<path class="st0" d="M41,25.2L56.5,9.7c0.4-0.4,0.4-1,0-1.4c-0.4-0.4-1-0.4-1.4,0L39.5,23.8c-0.4,0.4-0.4,1,0,1.4
		C39.9,25.6,40.6,25.6,41,25.2z"/>
</g>
</svg>
