<svg xmlns="http://www.w3.org/2000/svg" viewBox="0 0 62 64"><path d="M26 57h10V47H26v10zm3-7h4v4h-4v-4zm2-13c2.8 0 5-2.2 5-5s-2.2-5-5-5-5 2.2-5 5 2.2 5 5 5zm0-7c1.1 0 2 .9 2 2s-.9 2-2 2-2-.9-2-2 .9-2 2-2zm29-10H42.7c.2-.6.3-1.3.3-2V6c0-3.3-2.7-6-6-6H25c-3.3 0-6 2.7-6 6v12c0 .7.1 1.4.3 2H2C.3 20-.4 21.2.3 22.7L7 36h12v2c0 1.5.6 2.9 1.5 4-1 1.1-1.5 2.5-1.5 4v12c0 .7.1 1.4.3 2H15c-1.1 0-2 .9-2 2s.9 2 2 2h32c1.1 0 2-.9 2-2s-.9-2-2-2h-4.3c.2-.6.3-1.3.3-2V46c0-1.5-.6-2.9-1.5-4 1-1.1 1.5-2.5 1.5-4v-2h12l6.7-13.3c.7-1.5 0-2.7-1.7-2.7zm-21 6v12c0 1.1-.9 2-2 2H25c-1.1 0-2-.9-2-2V26c0-1.1.9-2 2-2h12c1.1 0 2 .9 2 2zm-16-8v-7h6V7h-6V6c0-1.1.9-2 2-2h12c1.1 0 2 .9 2 2v1h-6v4h6v7c0 1.1-.9 2-2 2h-4v-6h-4v6h-4c-1.1 0-2-.9-2-2zm-4 15h-2v-6h-3v6h-2v-7H9v7L4 23h15.8c-.5.9-.8 1.9-.8 3v7zm6 27c-1.1 0-2-.9-2-2V46c0-1.1.9-2 2-2h12c1.1 0 2 .9 2 2v12c0 1.1-.9 2-2 2H25zm28-27v-7h-3v7h-2v-6h-3v6h-2v-7c0-1.1-.3-2.1-.8-3H58l-5 10z" fill="#333"/></svg>