<?xml version="1.0" encoding="utf-8"?>
<!-- Generator: Adobe Illustrator 21.0.0, SVG Export Plug-In . SVG Version: 6.00 Build 0)  -->
<svg version="1.1" id="Layer_1" xmlns="http://www.w3.org/2000/svg" xmlns:xlink="http://www.w3.org/1999/xlink" x="0px" y="0px"
	 viewBox="0 0 48 64" style="enable-background:new 0 0 48 64;" xml:space="preserve">
<style type="text/css">
	.st0{fill:#343434;}
</style>
<title>train</title>
<desc>Created with Sketch.</desc>
<g>
	<path class="st0" d="M12,46c2.2,0,4-1.8,4-4c0-2.2-1.8-4-4-4s-4,1.8-4,4C8,44.2,9.8,46,12,46z M12,40c1.1,0,2,0.9,2,2s-0.9,2-2,2
		s-2-0.9-2-2S10.9,40,12,40z"/>
	<path class="st0" d="M36,46c2.2,0,4-1.8,4-4c0-2.2-1.8-4-4-4s-4,1.8-4,4C32,44.2,33.8,46,36,46z M36,40c1.1,0,2,0.9,2,2s-0.9,2-2,2
		s-2-0.9-2-2S34.9,40,36,40z"/>
	<path class="st0" d="M47.9,10C47.4,4.4,42.7,0,37,0H11C5.3,0,0.6,4.4,0.1,10H0v1v2v19v3v6c0,6,4.8,10.8,10.7,11L1,61.7l2.1,2.1
		L5,62h37.9l1.8,1.8l2.1-2.1L37.1,52c6-0.1,10.9-5,10.9-11v-6v-3V13v-2L47.9,10L47.9,10z M11,3h26c4.1,0,7.4,3.1,7.9,7H3.1
		C3.6,6.1,6.9,3,11,3z M32.9,52l2,2H13l2-2H32.9z M8,59l2-2h27.9l2,2H8z M45,41c0,4.4-3.6,8-8,8H11c-4.4,0-8-3.6-8-8v-6h42V41z
		 M45,32H3V13h42V32z"/>
	<path class="st0" d="M6,28c0.6,0,1-0.4,1-1V17c0-0.6-0.4-1-1-1s-1,0.4-1,1v10C5,27.6,5.4,28,6,28z"/>
</g>
</svg>
