<svg xmlns="http://www.w3.org/2000/svg" viewBox="0 0 48 64"><path d="M12 46c2.2 0 4-1.8 4-4s-1.8-4-4-4-4 1.8-4 4 1.8 4 4 4zm0-6c1.1 0 2 .9 2 2s-.9 2-2 2-2-.9-2-2 .9-2 2-2zm24 6c2.2 0 4-1.8 4-4s-1.8-4-4-4-4 1.8-4 4 1.8 4 4 4zm0-6c1.1 0 2 .9 2 2s-.9 2-2 2-2-.9-2-2 .9-2 2-2zm11.9-30C47.4 4.4 42.7 0 37 0H11C5.3 0 .6 4.4.1 10H0v31c0 6 4.8 10.8 10.7 11L1 61.7l2.1 2.1L5 62h37.9l1.8 1.8 2.1-2.1-9.7-9.7c6-.1 10.9-5 10.9-11V11l-.1-1zM11 3h26c4.1 0 7.4 3.1 7.9 7H3.1c.5-3.9 3.8-7 7.9-7zm21.9 49l2 2H13l2-2h17.9zM8 59l2-2h27.9l2 2H8zm37-18c0 4.4-3.6 8-8 8H11c-4.4 0-8-3.6-8-8v-6h42v6zm0-9H3V13h42v19zM6 28c.6 0 1-.4 1-1V17c0-.6-.4-1-1-1s-1 .4-1 1v10c0 .6.4 1 1 1z" fill="#343434"/></svg>