<svg xmlns="http://www.w3.org/2000/svg" viewBox="0 0 48 64" enable-background="new 0 0 48 64"><style type="text/css">.st0{fill:#343434;}</style><title>train</title><desc>Created with Sketch.</desc><path class="st0" d="M12 46c2.2 0 4-1.8 4-4s-1.8-4-4-4-4 1.8-4 4 1.8 4 4 4zm0-6c1.1 0 2 .9 2 2s-.9 2-2 2-2-.9-2-2 .9-2 2-2zM36 46c2.2 0 4-1.8 4-4s-1.8-4-4-4-4 1.8-4 4 1.8 4 4 4zm0-6c1.1 0 2 .9 2 2s-.9 2-2 2-2-.9-2-2 .9-2 2-2zM47.9 10c-.5-5.6-5.2-10-10.9-10h-26c-5.7 0-10.4 4.4-10.9 10h-.1v31c0 6 4.8 10.8 10.7 11l-9.7 9.7 2.1 2.1 1.9-1.8h37.9l1.8 1.8 2.1-2.1-9.7-9.7c6-.1 10.9-5 10.9-11v-30l-.1-1zm-36.9-7h26c4.1 0 7.4 3.1 7.9 7h-41.8c.5-3.9 3.8-7 7.9-7zm21.9 49l2 2h-21.9l2-2h17.9zm-24.9 7l2-2h27.9l2 2h-31.9zm37-18c0 4.4-3.6 8-8 8h-26c-4.4 0-8-3.6-8-8v-6h42v6zm0-9h-42v-19h42v19zM6 28c.6 0 1-.4 1-1v-10c0-.6-.4-1-1-1s-1 .4-1 1v10c0 .6.4 1 1 1z"/></svg>