<?xml version="1.0" encoding="utf-8"?>
<!-- Generator: Adobe Illustrator 21.0.0, SVG Export Plug-In . SVG Version: 6.00 Build 0)  -->
<svg version="1.1" id="Layer_1" xmlns="http://www.w3.org/2000/svg" xmlns:xlink="http://www.w3.org/1999/xlink" x="0px" y="0px"
	 viewBox="0 0 46 64" style="enable-background:new 0 0 46 64;" xml:space="preserve">
<style type="text/css">
	.st0{fill:#333333;}
</style>
<title>transgender</title>
<desc>Created with Sketch.</desc>
<path class="st0" d="M45.4,0.6C45.1,0.2,44.6,0,44,0H30c-1.1,0-2,0.9-2,2c0,1.1,0.9,2,2,2h8.7l-7.5,7.5C28,9.3,24.2,8,20,8
	C9,8,0,17,0,28c0,10.4,7.9,18.9,18,19.9V53h-4c-1.1,0-2,0.9-2,2s0.9,2,2,2h4v5c0,1.1,0.9,2,2,2s2-0.9,2-2v-5h4c1.1,0,2-0.9,2-2
	s-0.9-2-2-2h-4v-5.1c10.1-1,18-9.5,18-19.9c0-5.4-2.2-10.3-5.7-13.9L42,6.4V16c0,1.1,0.9,2,2,2c1.1,0,2-0.9,2-2V2
	C46,1.4,45.8,0.9,45.4,0.6z M20,44c-8.8,0-16-7.2-16-16s7.2-16,16-16s16,7.2,16,16S28.8,44,20,44z"/>
</svg>
