<svg xmlns="http://www.w3.org/2000/svg" viewBox="0 0 44 61"><path d="M39 5h-9V3c0-1.6-1.3-3-3-3H17c-1.7 0-3 1.3-3 3v2H5c-2.8 0-5 2.2-5 5v4c0 .5.4 1 1 1h1.2L5 58c.1 1.7 1.5 3 3.2 3h27.7c1.7 0 3.1-1.3 3.2-3l2.7-43H43c.6 0 1-.4 1-1v-4c0-2.8-2.2-5-5-5zm-2.9 52.8c0 .1-.1.2-.2.2H8.3c-.1 0-.2-.1-.2-.2L5.2 15h33.6l-2.7 42.8zM41 12H3v-2c0-1.1.9-2 2-2h12V3h10v5h12c1.1 0 2 .9 2 2v2zm-8.8 43.1c1.1 0 2-.9 2-2v-31c0-1.1-.9-2-2-2s-2 .9-2 2v31c0 1.1.9 2 2 2zm-20 0c1.1 0 2-.9 2-2v-31c0-1.1-.9-2-2-2s-2 .9-2 2v31c0 1.1.9 2 2 2zm10-.1c1.1 0 2-.9 2-2V22c0-1.1-.9-2-2-2s-2 .9-2 2v31c0 1.1.9 2 2 2z" fill="#333"/></svg>