<svg xmlns="http://www.w3.org/2000/svg" viewBox="0 0 44 61" enable-background="new 0 0 44 61"><style type="text/css">.st0{fill:#333333;}</style><title>trash-f</title><desc>Created with Sketch.</desc><path class="st0" d="M40 5h-10v-2c0-1.6-1.3-3-3-3h-10c-1.7 0-3 1.3-3 3v2h-10c-2.2 0-4 1.8-4 4v3c0 .5.4 1 1 1h42c.6 0 1-.4 1-1v-3c0-2.2-1.8-4-4-4zM5.1 58c.1 1.7 1.5 3 3.2 3h27.7c1.7 0 3.1-1.3 3.2-3l2.7-42h-39.7l2.9 42zm26.1-35c0-1.1 1-2 2.1-1.9 1.1 0 2 1 1.9 2.1l-1.1 31c0 1.1-1 2-2.1 1.9-1.1 0-2-1-1.9-2.1l1.1-31zm-11 0c0-1.1.9-2 2-2s2 .9 2 2v31c0 1.1-.9 2-2 2s-2-.9-2-2v-31zm-9.2-1.9c1.1 0 2 .8 2.1 1.9l1.1 31c0 1.1-.8 2-1.9 2.1-1.1 0-2-.8-2.1-1.9l-1.1-31c-.1-1.2.8-2.1 1.9-2.1z"/></svg>