<?xml version="1.0" encoding="utf-8"?>
<!-- Generator: Adobe Illustrator 21.0.0, SVG Export Plug-In . SVG Version: 6.00 Build 0)  -->
<svg version="1.1" id="Layer_1" xmlns="http://www.w3.org/2000/svg" xmlns:xlink="http://www.w3.org/1999/xlink" x="0px" y="0px"
	 viewBox="0 0 44 57" style="enable-background:new 0 0 44 57;" xml:space="preserve">
<style type="text/css">
	.st0{fill:#333333;}
</style>
<title>trash-alt</title>
<desc>Created with Sketch.</desc>
<path class="st0" d="M41,0H3C1.3,0,0,1.3,0,3v6c0,1.4,1,2.6,2.3,2.9l0,0l0,0.1l0,0l2.8,42c0.1,1.7,1.5,3,3.2,3H36
	c1.7,0,3.1-1.3,3.2-3l2.7-42.1C43.1,11.5,44,10.4,44,9V3C44,1.3,42.7,0,41,0z M4,4h36v4H6H5.8H4V4z M37.1,22h-6l0.3-10h6.3L37.1,22z
	 M17.9,38l-0.4-12H27l-0.4,12H17.9z M26.5,42l-0.4,11h-7.6l-0.4-11H26.5z M13,12l0.3,10H7L6.3,12H13z M17,12h10.5l-0.3,10h-9.8
	L17,12z M7.2,26h6.3l0.4,12H8L7.2,26z M31,26h5.9l-0.8,12h-5.5L31,26z M8.3,42h5.8l0.4,11H9L8.3,42z M30.1,53l0.4-11h5.4l-0.7,11
	H30.1z"/>
</svg>
