<svg xmlns="http://www.w3.org/2000/svg" viewBox="0 0 44 61"><path d="M40 5H30V3c0-1.6-1.3-3-3-3H17c-1.7 0-3 1.3-3 3v2H4C1.8 5 0 6.8 0 9v3c0 .5.4 1 1 1h42c.6 0 1-.4 1-1V9c0-2.2-1.8-4-4-4zM5.1 58c.1 1.7 1.5 3 3.2 3H36c1.7 0 3.1-1.3 3.2-3l2.7-42H2.2l2.9 42zm26.1-35c0-1.1 1-2 2.1-1.9 1.1 0 2 1 1.9 2.1l-1.1 31c0 1.1-1 2-2.1 1.9-1.1 0-2-1-1.9-2.1l1.1-31zm-11 0c0-1.1.9-2 2-2s2 .9 2 2v31c0 1.1-.9 2-2 2s-2-.9-2-2V23zM11 21.1c1.1 0 2 .8 2.1 1.9l1.1 31c0 1.1-.8 2-1.9 2.1-1.1 0-2-.8-2.1-1.9l-1.1-31c-.1-1.2.8-2.1 1.9-2.1z" fill="#333"/></svg>