<svg xmlns="http://www.w3.org/2000/svg" viewBox="0 0 44 57"><path d="M41 0H3C1.3 0 0 1.3 0 3v6c0 1.4 1 2.6 2.3 2.9v.1l2.8 42c.1 1.7 1.5 3 3.2 3H36c1.7 0 3.1-1.3 3.2-3l2.7-42.1c1.2-.4 2.1-1.5 2.1-2.9V3c0-1.7-1.3-3-3-3zM4 4h36v4H4V4zm33.1 18h-6l.3-10h6.3l-.6 10zM17.9 38l-.4-12H27l-.4 12h-8.7zm8.6 4l-.4 11h-7.6l-.4-11h8.4zM13 12l.3 10H7l-.7-10H13zm4 0h10.5l-.3 10h-9.8L17 12zM7.2 26h6.3l.4 12H8l-.8-12zM31 26h5.9l-.8 12h-5.5l.4-12zM8.3 42h5.8l.4 11H9l-.7-11zm21.8 11l.4-11h5.4l-.7 11h-5.1z" fill="#333"/></svg>