<?xml version="1.0" encoding="utf-8"?>
<!-- Generator: Adobe Illustrator 21.0.0, SVG Export Plug-In . SVG Version: 6.00 Build 0)  -->
<svg version="1.1" id="Layer_1" xmlns="http://www.w3.org/2000/svg" xmlns:xlink="http://www.w3.org/1999/xlink" x="0px" y="0px"
	 viewBox="0 0 44 61" style="enable-background:new 0 0 44 61;" xml:space="preserve">
<style type="text/css">
	.st0{fill:#333333;}
</style>
<title>trash-f</title>
<desc>Created with Sketch.</desc>
<g>
	<path class="st0" d="M40,5H30V3c0-1.6-1.3-3-3-3H17c-1.7,0-3,1.3-3,3v2H4C1.8,5,0,6.8,0,9v3c0,0.5,0.4,1,1,1h42c0.6,0,1-0.4,1-1V9
		C44,6.8,42.2,5,40,5z"/>
	<path class="st0" d="M5.1,58c0.1,1.7,1.5,3,3.2,3h27.7c1.7,0,3.1-1.3,3.2-3l2.7-42H2.2L5.1,58z M31.2,23c0-1.1,1-2,2.1-1.9
		c1.1,0,2,1,1.9,2.1l-1.1,31c0,1.1-1,2-2.1,1.9c-1.1,0-2-1-1.9-2.1L31.2,23z M20.2,23c0-1.1,0.9-2,2-2c1.1,0,2,0.9,2,2v31
		c0,1.1-0.9,2-2,2c-1.1,0-2-0.9-2-2V23z M11,21.1c1.1,0,2,0.8,2.1,1.9l1.1,31c0,1.1-0.8,2-1.9,2.1c-1.1,0-2-0.8-2.1-1.9l-1.1-31
		C9,22,9.9,21.1,11,21.1z"/>
</g>
</svg>
