<svg xmlns="http://www.w3.org/2000/svg" viewBox="0 0 49 64" enable-background="new 0 0 49 64"><style type="text/css">.st0{fill:#343434;}</style><title>tree-alt</title><desc>Created with Sketch.</desc><path class="st0" d="M40.5 14.3c-.6-8-7.3-14.3-15.5-14.3-7.3 0-13.4 4.9-15.2 11.8-5.7 1.6-9.8 6.7-9.8 12.7 0 7.3 6.2 13.2 13.7 13.2 1.7 0 3.4-.3 5-.9v24.2c0 1.6 1.3 2.9 2.9 2.9h5.6c1.6 0 2.9-1.3 2.9-2.9v-24.4c1-.5 2-1.1 2.9-1.9 1.5.8 3.2 1.2 5 1.2 6.1 0 11-4.9 11-10.9 0-5.2-3.6-9.6-8.5-10.7zm-2.4 17.6c-1.5 0-2.9-.5-4.1-1.3l-1.5-1.1-1.2 1.3c-1 1.2-2.3 2-3.7 2.5l-1.4.5v26.2h-3.5v-26.4l-1.1-.6c-.3-.1-.6-.3-1-.5l-1-.6-1 .6c-1.5.8-3.1 1.3-4.9 1.3-5.4 0-9.7-4.2-9.7-9.2 0-4.4 3.3-8.3 7.9-9.1l1.4-.3.2-1.4c.9-5.6 5.7-9.8 11.5-9.8 6.4 0 11.6 5.2 11.6 11.6v.4l-.1 2 2 .1c3.7.2 6.5 3.2 6.5 6.9 0 3.8-3.1 6.9-6.9 6.9z"/></svg>