<?xml version="1.0" encoding="utf-8"?>
<!-- Generator: Adobe Illustrator 21.0.0, SVG Export Plug-In . SVG Version: 6.00 Build 0)  -->
<svg version="1.1" id="Layer_1" xmlns="http://www.w3.org/2000/svg" xmlns:xlink="http://www.w3.org/1999/xlink" x="0px" y="0px"
	 viewBox="0 0 48 64" style="enable-background:new 0 0 48 64;" xml:space="preserve">
<style type="text/css">
	.st0{fill:#333333;}
</style>
<title>tree-alt-f</title>
<desc>Created with Sketch.</desc>
<path class="st0" d="M39,15c0-0.2,0-0.3,0-0.5C39,6.5,32.5,0,24.5,0c-7.2,0-13.2,5.3-14.3,12.2C4.4,13.3,0,18.1,0,24
	c0,6.6,5.6,12,12.5,12c2.3,0,4.4-0.6,6.2-1.6c0.4,0.2,0.8,0.5,1.2,0.7v28c0,0.5,0.4,1,1,1h6c0.5,0,1-0.4,1-1V35.4
	c1.9-0.6,3.6-1.8,4.9-3.3c1.6,1.1,3.5,1.8,5.6,1.8c5.2,0,9.5-4.3,9.5-9.5C48,19.4,44,15.3,39,15z"/>
</svg>
