<?xml version="1.0" encoding="utf-8"?>
<!-- Generator: Adobe Illustrator 21.0.0, SVG Export Plug-In . SVG Version: 6.00 Build 0)  -->
<svg version="1.1" id="Layer_1" xmlns="http://www.w3.org/2000/svg" xmlns:xlink="http://www.w3.org/1999/xlink" x="0px" y="0px"
	 viewBox="0 0 48 64" style="enable-background:new 0 0 48 64;" xml:space="preserve">
<style type="text/css">
	.st0{fill:#333333;}
</style>
<title>tree-f</title>
<desc>Created with Sketch.</desc>
<path class="st0" d="M47.4,52.1L36,35.3h6.6c0.5,0,0.7-0.4,0.4-0.8L32,17.7h4.1c0.5,0,0.7-0.4,0.4-0.8l-11.9-16
	c-0.3-0.5-0.9-0.4-1.2,0l-11.9,16c-0.3,0.5-0.2,0.8,0.4,0.8H16L4.9,34.5c-0.3,0.5-0.1,0.8,0.4,0.8H12L0.6,52.1C0.3,52.6,0.4,53,1,53
	h19.7v10c0,0.5,0.4,1,1,1h4.6c0.5,0,1-0.4,1-1V53H47C47.6,53,47.8,52.6,47.4,52.1z"/>
</svg>
