<?xml version="1.0" encoding="utf-8"?>
<!-- Generator: Adobe Illustrator 21.0.0, SVG Export Plug-In . SVG Version: 6.00 Build 0)  -->
<svg version="1.1" id="Layer_1" xmlns="http://www.w3.org/2000/svg" xmlns:xlink="http://www.w3.org/1999/xlink" x="0px" y="0px"
	 viewBox="0 0 49 64" style="enable-background:new 0 0 49 64;" xml:space="preserve">
<style type="text/css">
	.st0{fill:#343434;}
</style>
<title>tree-alt</title>
<desc>Created with Sketch.</desc>
<path class="st0" d="M40.5,14.3C39.9,6.3,33.2,0,25,0C17.7,0,11.6,4.9,9.8,11.8C4.1,13.4,0,18.5,0,24.5c0,7.3,6.2,13.2,13.7,13.2
	c1.7,0,3.4-0.3,5-0.9v24.2c0,1.6,1.3,2.9,2.9,2.9h5.6c1.6,0,2.9-1.3,2.9-2.9V36.6c1-0.5,2-1.1,2.9-1.9c1.5,0.8,3.2,1.2,5,1.2
	C44.1,35.9,49,31,49,25C49,19.8,45.4,15.4,40.5,14.3z M38.1,31.9c-1.5,0-2.9-0.5-4.1-1.3l-1.5-1.1l-1.2,1.3c-1,1.2-2.3,2-3.7,2.5
	l-1.4,0.5V60h-3.5V33.6L21.6,33c-0.3-0.1-0.6-0.3-1-0.5l-1-0.6l-1,0.6c-1.5,0.8-3.1,1.3-4.9,1.3c-5.4,0-9.7-4.2-9.7-9.2
	c0-4.4,3.3-8.3,7.9-9.1l1.4-0.3l0.2-1.4C14.4,8.2,19.2,4,25,4c6.4,0,11.6,5.2,11.6,11.6c0,0.1,0,0.3,0,0.4l-0.1,2l2,0.1
	c3.7,0.2,6.5,3.2,6.5,6.9C45,28.8,41.9,31.9,38.1,31.9z"/>
</svg>
