<?xml version="1.0" encoding="utf-8"?>
<!-- Generator: Adobe Illustrator 21.0.0, SVG Export Plug-In . SVG Version: 6.00 Build 0)  -->
<svg version="1.1" id="Layer_1" xmlns="http://www.w3.org/2000/svg" xmlns:xlink="http://www.w3.org/1999/xlink" x="0px" y="0px"
	 viewBox="0 0 20 63" style="enable-background:new 0 0 20 63;" xml:space="preserve">
<style type="text/css">
	.st0{fill:#343434;}
</style>
<title>tube</title>
<desc>Created with Sketch.</desc>
<g>
	<path class="st0" d="M10,58c1.7,0,3-1.3,3-3V23H7v32C7,56.7,8.3,58,10,58z"/>
	<path class="st0" d="M18,0H2C0.9,0,0,0.9,0,2v4c0,1.1,0.9,2,2,2h0v47c0,4.4,3.6,8,8,8c4.4,0,8-3.6,8-8V8h0c1.1,0,2-0.9,2-2V2
		C20,0.9,19.1,0,18,0z M3,3h14v2H3V3z M15,55c0,2.8-2.2,5-5,5c-2.8,0-5-2.2-5-5V8h10V55z"/>
</g>
</svg>
