<?xml version="1.0" encoding="utf-8"?>
<!-- Generator: Adobe Illustrator 21.0.0, SVG Export Plug-In . SVG Version: 6.00 Build 0)  -->
<svg version="1.1" id="Layer_1" xmlns="http://www.w3.org/2000/svg" xmlns:xlink="http://www.w3.org/1999/xlink" x="0px" y="0px"
	 viewBox="0 0 64 64" style="enable-background:new 0 0 64 64;" xml:space="preserve">
<style type="text/css">
	.st0{fill:none;}
	.st1{fill:#343434;}
</style>
<g>
	<path class="st0" d="M43,46l0.1,0.1C43.1,46.1,43.1,46,43,46z"/>
	<path class="st1" d="M32,0C14.3,0,0,14.3,0,32c0,17.7,14.3,32,32,32s32-14.3,32-32C64,14.3,49.7,0,32,0z M37,56
		c-10.4,0-12.5-8-13-10V30h-6v-8c5.5-2.7,9.6-7.8,11-14h6v14h9v8h-9v14c0.3,2.2,1.5,3.8,4,4c2.6-0.2,4-1.4,4.1-1.9L43,46
		c0.1,0,0.1,0.1,0.1,0.1L46,52C46,52,43.4,56,37,56z"/>
</g>
</svg>
