<svg xmlns="http://www.w3.org/2000/svg" viewBox="0 0 63 64" enable-background="new 0 0 63 64"><style type="text/css">.st0{fill:#343434;}</style><title>twitch</title><desc>Created with Sketch.</desc><path class="st0" d="M61.8 0h-56.2c-.5 0-.9.2-1.1.6l-4.3 7.4c-.1.2-.2.4-.2.6v45.5c0 .7.6 1.2 1.2 1.2h13.6v7.4c0 .7.5 1.2 1.2 1.2h8.6c.3 0 .6-.1.8-.3l9.3-8.3h11.5c.3 0 .6-.1.8-.3l15.4-14.2c.3-.2.4-.6.4-.9v-38.7c.2-.6-.4-1.2-1-1.2zm-6.8 36.3c0 .3-.1.6-.4.9l-7.9 8c-.2.2-.5.4-.9.4h-13.4l-6.9 7.1c-.2.2-.5.4-.9.4-.2 0-.3 0-.5-.1-.5-.2-.8-.6-.8-1.1v-6.2h-12.1c-.7 0-1.2-.6-1.2-1.2v-37.3c0-.6.5-1.2 1.2-1.2h42.6c.7 0 1.2.6 1.2 1.2v29.1zM25 16h6v18h-6zM37 16h6v18h-6z"/></svg>