<?xml version="1.0" encoding="utf-8"?>
<!-- Generator: Adobe Illustrator 21.0.0, SVG Export Plug-In . SVG Version: 6.00 Build 0)  -->
<svg version="1.1" id="Layer_1" xmlns="http://www.w3.org/2000/svg" xmlns:xlink="http://www.w3.org/1999/xlink" x="0px" y="0px"
	 viewBox="0 0 64 64" style="enable-background:new 0 0 64 64;" xml:space="preserve">
<style type="text/css">
	.st0{fill:#343434;}
</style>
<path class="st0" d="M60,0H4C1.8,0,0,1.8,0,4v56c0,2.2,1.8,4,4,4h56c2.2,0,4-1.8,4-4V4C64,1.8,62.2,0,60,0z M48.7,23.5l0,1.1
	c0,11.3-8.7,24.4-24.5,24.4c-4.9,0-9.4-1.4-13.2-3.9c0.7,0.1,1.4,0.1,2.1,0.1c4,0,7.8-1.4,10.7-3.7c-3.8-0.1-6.9-2.6-8-6
	c0.5,0.1,1.1,0.2,1.6,0.2c0.8,0,1.5-0.1,2.3-0.3c-3.9-0.8-6.9-4.3-6.9-8.4V27c1.2,0.6,2.5,1,3.9,1.1c-2.3-1.5-3.8-4.2-3.8-7.1
	c0-1.6,0.4-3.1,1.2-4.3c4.3,5.2,10.6,8.6,17.8,9c-0.1-0.6-0.2-1.3-0.2-2c0-4.7,3.9-8.6,8.6-8.6c2.5,0,4.7,1,6.3,2.7
	c2-0.4,3.8-1.1,5.5-2.1c-0.7,2-2,3.7-3.8,4.8c1.7-0.2,3.4-0.7,4.9-1.4C51.8,20.7,50.4,22.3,48.7,23.5z"/>
</svg>
