<svg xmlns="http://www.w3.org/2000/svg" viewBox="0 0 64 64"><path d="M32 0C14.3 0 0 14.3 0 32s14.3 32 32 32 32-14.3 32-32S49.7 0 32 0zm16.7 24.5v1.1C48.7 36.9 40 50 24.2 50c-4.9 0-9.4-1.4-13.2-3.9.7.1 1.4.1 2.1.1 4 0 7.8-1.4 10.7-3.7-3.8-.1-6.9-2.6-8-6 .5.1 1.1.2 1.6.2.8 0 1.5-.1 2.3-.3-3.9-.8-6.9-4.3-6.9-8.4 1.2.6 2.5 1 3.9 1.1-2.3-1.5-3.8-4.2-3.8-7.1 0-1.6.4-3.1 1.2-4.3 4.3 5.2 10.6 8.6 17.8 9-.1-.6-.2-1.3-.2-2 0-4.7 3.9-8.6 8.6-8.6 2.5 0 4.7 1 6.3 2.7 2-.4 3.8-1.1 5.5-2.1-.7 2-2 3.7-3.8 4.8 1.7-.2 3.4-.7 4.9-1.4-1.4 1.6-2.8 3.2-4.5 4.4z" fill="#343434"/></svg>