<svg xmlns="http://www.w3.org/2000/svg" viewBox="0 0 63 64"><path d="M61.8 0H5.6c-.5 0-.9.2-1.1.6L.2 8c-.1.2-.2.4-.2.6v45.5c0 .7.6 1.2 1.2 1.2h13.6v7.4c0 .7.5 1.2 1.2 1.2h8.6c.3 0 .6-.1.8-.3l9.3-8.3h11.5c.3 0 .6-.1.8-.3l15.4-14.2c.3-.2.4-.6.4-.9V1.2c.2-.6-.4-1.2-1-1.2zM55 36.3c0 .3-.1.6-.4.9l-7.9 8c-.2.2-.5.4-.9.4H32.4l-6.9 7.1c-.2.2-.5.4-.9.4-.2 0-.3 0-.5-.1-.5-.2-.8-.6-.8-1.1v-6.2H11.2c-.7 0-1.2-.6-1.2-1.2V7.2c0-.6.5-1.2 1.2-1.2h42.6c.7 0 1.2.6 1.2 1.2v29.1zM25 16h6v18h-6zm12 0h6v18h-6z" fill="#343434"/></svg>