<svg xmlns="http://www.w3.org/2000/svg" viewBox="0 0 64 38" enable-background="new 0 0 64 38"><style type="text/css">.st0{fill:#333333;}</style><title>u-list</title><desc>Created with Sketch.</desc><path class="st0" d="M15 6h46c1.7 0 3-1.3 3-3s-1.3-3-3-3h-46c-1.7 0-3 1.3-3 3s1.3 3 3 3z"/><circle class="st0" cx="3" cy="3" r="3"/><circle class="st0" cx="3" cy="19" r="3"/><circle class="st0" cx="3" cy="35" r="3"/><path class="st0" d="M61 16h-46c-1.7 0-3 1.3-3 3s1.3 3 3 3h46c1.7 0 3-1.3 3-3s-1.3-3-3-3zM61 32h-46c-1.7 0-3 1.3-3 3s1.3 3 3 3h46c1.7 0 3-1.3 3-3s-1.3-3-3-3z"/></svg>