<?xml version="1.0" encoding="utf-8"?>
<!-- Generator: Adobe Illustrator 21.0.0, SVG Export Plug-In . SVG Version: 6.00 Build 0)  -->
<svg version="1.1" id="Layer_1" xmlns="http://www.w3.org/2000/svg" xmlns:xlink="http://www.w3.org/1999/xlink" x="0px" y="0px"
	 viewBox="0 0 64 38" style="enable-background:new 0 0 64 38;" xml:space="preserve">
<style type="text/css">
	.st0{fill:#333333;}
</style>
<title>u-list</title>
<desc>Created with Sketch.</desc>
<g>
	<path class="st0" d="M15,6h46c1.7,0,3-1.3,3-3s-1.3-3-3-3H15c-1.7,0-3,1.3-3,3S13.3,6,15,6z"/>
	<circle class="st0" cx="3" cy="3" r="3"/>
	<circle class="st0" cx="3" cy="19" r="3"/>
	<circle class="st0" cx="3" cy="35" r="3"/>
	<path class="st0" d="M61,16H15c-1.7,0-3,1.3-3,3s1.3,3,3,3h46c1.7,0,3-1.3,3-3S62.7,16,61,16z"/>
	<path class="st0" d="M61,32H15c-1.7,0-3,1.3-3,3s1.3,3,3,3h46c1.7,0,3-1.3,3-3S62.7,32,61,32z"/>
</g>
</svg>
