<?xml version="1.0" encoding="utf-8"?>
<!-- Generator: Adobe Illustrator 21.0.0, SVG Export Plug-In . SVG Version: 6.00 Build 0)  -->
<svg version="1.1" id="Layer_1" xmlns="http://www.w3.org/2000/svg" xmlns:xlink="http://www.w3.org/1999/xlink" x="0px" y="0px"
	 viewBox="0 0 64 64" style="enable-background:new 0 0 64 64;" xml:space="preserve">
<style type="text/css">
	.st0{fill:#343434;}
</style>
<title>umbrella</title>
<desc>Created with Sketch.</desc>
<path class="st0" d="M44,54c-1.1,0-2,0.9-2,2c0,2.2-1.8,4-4,4s-4-1.8-4-4V32h29.9C62.4,16.4,49.7,4,34,3.1V2c0-1.1-0.9-2-2-2
	c-1.1,0-2,0.9-2,2v1.1C15.6,4,3.8,14.3,0.8,28h0c0,0.2-0.1,0.4-0.1,0.6l0,0c-0.2,1.1-0.4,2.3-0.5,3.4h3.6h0.4H30v24c0,4.4,3.6,8,8,8
	s8-3.6,8-8C46,54.9,45.1,54,44,54z M32,7c13,0,24,8.9,27.1,21H4.9C8,15.9,19,7,32,7z"/>
</svg>
