<svg xmlns="http://www.w3.org/2000/svg" viewBox="0 0 47 64" enable-background="new 0 0 47 64"><style type="text/css">.st0{fill:#333333;}</style><title>underline</title><desc>Created with Sketch.</desc><path class="st0" d="M31.7.3v2.1c.8.4 1.6.8 2.6 1.2.9.4 2 .8 3.1 1.2v28.3c0 4.7-1 8.1-3.1 10.2-2.1 2.1-5 3.1-8.7 3.1-1.9 0-3.7-.2-5.2-.7-1.5-.4-2.8-1.2-3.9-2.2-1-1-1.8-2.4-2.4-4-.5-1.7-.8-3.8-.8-6.3v-29c.9-.2 1.8-.5 2.7-.8.9-.3 1.8-.6 2.7-1v-2.1h-18v2.1c1.9.9 3.9 1.5 5.8 1.8v30.2c0 5.5 1.6 9.6 4.7 12.3 3.1 2.7 7.6 4 13.6 4 2.5 0 4.8-.3 6.9-1 2.1-.7 3.8-1.7 5.3-3.2 1.4-1.4 2.6-3.2 3.4-5.4.8-2.2 1.2-4.8 1.2-7.8v-28.5c.9-.2 1.9-.6 2.8-1 .9-.4 1.8-.9 2.7-1.4v-2.1h-15.4zM38.3 58h-28.9c-1.7 0-3 1.3-3 3s1.3 3 3 3h28.9c1.7 0 3-1.3 3-3s-1.3-3-3-3z"/></svg>