<?xml version="1.0" encoding="utf-8"?>
<!-- Generator: Adobe Illustrator 21.0.0, SVG Export Plug-In . SVG Version: 6.00 Build 0)  -->
<svg version="1.1" id="Layer_1" xmlns="http://www.w3.org/2000/svg" xmlns:xlink="http://www.w3.org/1999/xlink" x="0px" y="0px"
	 viewBox="0 0 47 64" style="enable-background:new 0 0 47 64;" xml:space="preserve">
<style type="text/css">
	.st0{fill:#333333;}
</style>
<title>underline</title>
<desc>Created with Sketch.</desc>
<g>
	<path class="st0" d="M31.7,0.3v2.1c0.8,0.4,1.6,0.8,2.6,1.2c0.9,0.4,2,0.8,3.1,1.2v28.3c0,4.7-1,8.1-3.1,10.2
		c-2.1,2.1-5,3.1-8.7,3.1c-1.9,0-3.7-0.2-5.2-0.7c-1.5-0.4-2.8-1.2-3.9-2.2c-1-1-1.8-2.4-2.4-4c-0.5-1.7-0.8-3.8-0.8-6.3v-29
		C14.2,4,15.1,3.7,16,3.4c0.9-0.3,1.8-0.6,2.7-1V0.3h-18v2.1c1.9,0.9,3.9,1.5,5.8,1.8v30.2c0,5.5,1.6,9.6,4.7,12.3
		c3.1,2.7,7.6,4,13.6,4c2.5,0,4.8-0.3,6.9-1c2.1-0.7,3.8-1.7,5.3-3.2c1.4-1.4,2.6-3.2,3.4-5.4c0.8-2.2,1.2-4.8,1.2-7.8V4.8
		c0.9-0.2,1.9-0.6,2.8-1c0.9-0.4,1.8-0.9,2.7-1.4V0.3H31.7z"/>
	<path class="st0" d="M38.3,58H9.4c-1.7,0-3,1.3-3,3s1.3,3,3,3h28.9c1.7,0,3-1.3,3-3S40,58,38.3,58z"/>
</g>
</svg>
