<?xml version="1.0" encoding="utf-8"?>
<!-- Generator: Adobe Illustrator 21.0.0, SVG Export Plug-In . SVG Version: 6.00 Build 0)  -->
<svg version="1.1" id="Layer_1" xmlns="http://www.w3.org/2000/svg" xmlns:xlink="http://www.w3.org/1999/xlink" x="0px" y="0px"
	 viewBox="0 0 63 64" style="enable-background:new 0 0 63 64;" xml:space="preserve">
<style type="text/css">
	.st0{fill:#333333;}
</style>
<title>undo</title>
<desc>Created with Sketch.</desc>
<path class="st0" d="M31,0C22.9,0,15.6,3,9.9,7.9L2.6,0.6C1.8-0.2,1.2,0.1,1.1,1.2L0.5,20.1c0,0.6,0.4,1,1,1l18.9-0.6
	c1.1,0,1.4-0.7,0.6-1.5l-6.8-6.8C18.7,8.3,24.6,6,31,6c14.4,0,26,11.6,26,26c0,14.4-11.6,26-26,26c-8.3,0-15.8-3.9-20.5-10l-4.4,4.1
	C12,59.4,20.9,64,31,64c17.7,0,32-14.3,32-32S48.7,0,31,0z"/>
</svg>
