<svg xmlns="http://www.w3.org/2000/svg" viewBox="0 0 63 64" enable-background="new 0 0 63 64"><style type="text/css">.st0{fill:#333333;}</style><title>undo</title><desc>Created with Sketch.</desc><path class="st0" d="M31 0c-8.1 0-15.4 3-21.1 7.9l-7.3-7.3c-.8-.8-1.4-.5-1.5.6l-.6 18.9c0 .6.4 1 1 1l18.9-.6c1.1 0 1.4-.7.6-1.5l-6.8-6.8c4.5-3.9 10.4-6.2 16.8-6.2 14.4 0 26 11.6 26 26s-11.6 26-26 26c-8.3 0-15.8-3.9-20.5-10l-4.4 4.1c5.9 7.3 14.8 11.9 24.9 11.9 17.7 0 32-14.3 32-32s-14.3-32-32-32z"/></svg>