<svg xmlns="http://www.w3.org/2000/svg" viewBox="0 0 64 65" enable-background="new 0 0 64 65"><style type="text/css">.st0{fill:#333333;}</style><title>upload</title><desc>Created with Sketch.</desc><path class="st0" d="M64 54c0-1.1-.9-2-2-2s-2 .9-2 2v3.1c0 2.2-1.8 4-4 4h-48c-2.2 0-4-1.8-4-4v-3.1c0-1.1-.9-2-2-2s-2 .9-2 2v3c0 4.4 3.6 8 8 8h48c4.4 0 8-3.6 8-8v-3zM19.3 18.4l10.7-10.7v39.3c0 1.1.9 2 2 2s2-.9 2-2v-39.3l10.7 10.7c.8.8 2 .8 2.8 0 .8-.8.8-2 0-2.8l-14.1-14.2c-.4-.3-.9-.5-1.4-.5-.5 0-1 .2-1.4.6l-14.2 14.1c-.8.8-.8 2 0 2.8.8.8 2.1.8 2.9 0z"/></svg>