<svg xmlns="http://www.w3.org/2000/svg" viewBox="0 0 64 64" enable-background="new 0 0 64 64"><style type="text/css">.st0{fill:#343434;}</style><title>users</title><desc>Created with Sketch.</desc><path class="st0" d="M60.5 27.1s-3.1-2.1-8.3-3.3c3.5-2.3 5.8-6.3 5.8-10.8 0-7.2-5.8-13-13-13s-13 5.8-13 13c0 4.5 2.3 8.5 5.8 10.8-2.5.6-4.5 1.3-5.9 2-.6-6.6-6.1-11.8-12.9-11.8-7.2 0-13 5.8-13 13 0 4.5 2.3 8.5 5.8 10.8-5.2 1.2-8.3 3.3-8.3 3.3-1.9 1.1-3.5 3.7-3.5 5.9v13c0 2.2 1.8 4 4 4h30c2.2 0 4-1.8 4-4v-10h22c2.2 0 4-1.8 4-4v-13c0-2.2-1.5-4.9-3.5-5.9zm-24.5-14.1c0-5 4-9 9-9s9 4 9 9-4 9-9 9-9-4-9-9zm-26 14c0-5 4-9 9-9s9 4 9 9l-.1 1.6-.2.9v.2c-.1.3-.2.7-.4 1l-.1.3c-.1.2-.2.5-.4.7l-.2.3c-.1.2-.3.5-.5.7-1.6 1.9-4.2 3.3-7.1 3.3-5 0-9-4-9-9zm24 23v10h-30v-13c0-.7.8-2 1.4-2.4l.2-.1.2-.1.1-.1c.1-.1.4-.2.6-.3.7-.4 1.6-.8 2.6-1.2 2.9-1.1 6.2-1.8 9.8-1.8 3.6 0 6.9.7 9.8 1.8 1 .4 1.9.8 2.6 1.2.2.1.5.3.6.4l.1.1.2.1.2.1c.8.3 1.6 1.5 1.6 2.3v3zm22.8-4h-19c-.4-2-1.7-4-3.4-4.9 0 0-1.6-1.1-4.5-2.1v-5.1l.3-.5c.6-.8 1-1.6 1.2-2.6.4-.4.8-.7 1.3-.9 0 0 4.8-2.9 12.2-2.9 7.4 0 12.2 2.9 12.2 2.9 1.6.7 2.8 2.6 2.8 4.2v9.1h.1c0 1.6-1.4 2.8-3.2 2.8z"/></svg>