<?xml version="1.0" encoding="utf-8"?>
<!-- Generator: Adobe Illustrator 21.0.0, SVG Export Plug-In . SVG Version: 6.00 Build 0)  -->
<svg version="1.1" id="Layer_1" xmlns="http://www.w3.org/2000/svg" xmlns:xlink="http://www.w3.org/1999/xlink" x="0px" y="0px"
	 viewBox="0 0 64 64" style="enable-background:new 0 0 64 64;" xml:space="preserve">
<style type="text/css">
	.st0{fill:#343434;}
</style>
<title>users-f</title>
<desc>Created with Sketch.</desc>
<path class="st0" d="M60.5,27.1c0,0-3.1-2.1-8.3-3.3C55.7,21.5,58,17.5,58,13c0-7.2-5.8-13-13-13S32,5.8,32,13
	c0,4.5,2.3,8.5,5.8,10.8c-2.5,0.6-4.4,1.3-5.8,2C31.3,19.2,25.8,14,19,14c-7.2,0-13,5.8-13,13c0,4.5,2.3,8.5,5.8,10.8
	c-5.2,1.2-8.3,3.3-8.3,3.3C1.6,42.2,0,44.8,0,47v13c0,2.2,1.8,4,4,4h30c2.2,0,4-1.8,4-4V50h22c2.2,0,4-1.8,4-4V33
	C64,30.8,62.5,28.1,60.5,27.1z"/>
</svg>
