<?xml version="1.0" encoding="utf-8"?>
<!-- Generator: Adobe Illustrator 21.0.0, SVG Export Plug-In . SVG Version: 6.00 Build 0)  -->
<svg version="1.1" id="Layer_1" xmlns="http://www.w3.org/2000/svg" xmlns:xlink="http://www.w3.org/1999/xlink" x="0px" y="0px"
	 viewBox="0 0 50 64" style="enable-background:new 0 0 50 64;" xml:space="preserve">
<style type="text/css">
	.st0{fill:#343434;}
</style>
<title>user</title>
<desc>Created with Sketch.</desc>
<path class="st0" d="M46.5,35c0,0-5.2-3.4-12.8-5.1c4.5-2.8,7.4-7.8,7.4-13.5c0-8.8-7.1-16-15.9-16S9.4,7.5,9.4,16.4
	c0,5.7,3,10.7,7.4,13.5c-8.1,1.7-13.3,5.1-13.3,5.1C1.6,36.1,0,38.8,0,41v19c0,2.2,1.8,4,4,4h42c2.2,0,4-1.8,4-4V41
	C50,38.8,48.5,36.1,46.5,35z M13.4,16.4c0-6.6,5.3-12,11.9-12s11.9,5.4,11.9,12s-5.3,12-11.9,12S13.4,23,13.4,16.4z M46,60
	c0,0-42,0-42,0V41c0-0.8,0.8-2.1,1.4-2.4l0.1-0.1l0.1-0.1C5.9,38.3,6.3,38,7,37.6c1.2-0.6,2.6-1.3,4.1-1.9C15.5,34,20.4,33,25.5,33
	c4.6,0,9.2,1,13.5,2.7c1.5,0.6,2.8,1.2,4,1.9c0.7,0.4,1.1,0.6,1.3,0.8l0.1,0.1l0.2,0.1c0.6,0.3,1.4,1.7,1.4,2.4C46,41,46,60,46,60z"
	/>
</svg>
