<svg xmlns="http://www.w3.org/2000/svg" viewBox="0 0 64 64" enable-background="new 0 0 64 64"><style type="text/css">.st0{fill:#343434;}</style><title>users-f</title><desc>Created with Sketch.</desc><path class="st0" d="M60.5 27.1s-3.1-2.1-8.3-3.3c3.5-2.3 5.8-6.3 5.8-10.8 0-7.2-5.8-13-13-13s-13 5.8-13 13c0 4.5 2.3 8.5 5.8 10.8-2.5.6-4.4 1.3-5.8 2-.7-6.6-6.2-11.8-13-11.8-7.2 0-13 5.8-13 13 0 4.5 2.3 8.5 5.8 10.8-5.2 1.2-8.3 3.3-8.3 3.3-1.9 1.1-3.5 3.7-3.5 5.9v13c0 2.2 1.8 4 4 4h30c2.2 0 4-1.8 4-4v-10h22c2.2 0 4-1.8 4-4v-13c0-2.2-1.5-4.9-3.5-5.9z"/></svg>