<?xml version="1.0" encoding="utf-8"?>
<!-- Generator: Adobe Illustrator 21.0.0, SVG Export Plug-In . SVG Version: 6.00 Build 0)  -->
<svg version="1.1" id="Layer_1" xmlns="http://www.w3.org/2000/svg" xmlns:xlink="http://www.w3.org/1999/xlink" x="0px" y="0px"
	 viewBox="0 0 54 64" style="enable-background:new 0 0 54 64;" xml:space="preserve">
<style type="text/css">
	.st0{fill:#343434;}
</style>
<g>
	<path class="st0" d="M43.1,32.5c0-0.1-0.1-0.2-0.2-0.3c-0.6,0.3-1.1,0.6-1.7,0.9c-0.6,0.3-1.1,0.5-1.7,0.7
		c-0.6,0.2-1.2,0.4-1.8,0.5c0,0.1,0,0.1,0,0.1c0,0.1,0.1,0.2,0.1,0.2c0.8,2.1,1.2,4.3,1.2,6.5c0,1.9-0.2,3.7-0.8,5.5
		c-0.8,2.7-2.1,5.1-4.1,7.1c-2.9,3-6.4,4.5-10.4,4.9c-0.4,0-0.8,0-1.2,0c0-0.1,0-0.1,0-0.1c0.2-0.2,0.4-0.3,0.6-0.5
		c4.3-3.2,7.6-7.2,10-12c2-4,3-8.2,3.1-12.7c0-2.2-0.1-4.3-0.5-6.5c-0.4-2.4-1.1-4.8-2-7.1c0-0.1-0.1-0.2-0.2-0.3
		c-0.1-0.4-0.1-0.5-0.1-0.6c0-0.1,0-0.2,0-0.2c-0.2-2-0.6-4-1.1-5.9c-0.7-2.6-1.8-5.1-3.3-7.4c-1-1.6-2.2-3-3.6-4.3
		c-0.1-0.1-0.3-0.2-0.4-0.4c0,0.1,0,0.1,0,0.2c0.1,0.2,0.2,0.4,0.3,0.6c2.5,4.3,4.7,8.8,6.6,13.4c0.5,1.3,1,2.6,1.5,3.8l0.1,0.3
		c0,0.1,0,0.2,0.1,0.6c0,0.7,0.1,1.4,0.1,2c0.1,3.5,0,7-0.4,10.5c-0.2,1.6-0.4,3.2-0.6,4.8c-0.3,2-0.8,4-1.3,5.9
		c-0.7,2.4-1.6,4.7-2.8,6.9c-1.1,2-2.3,3.8-3.9,5.3c-1.5,1.4-3.1,2.6-5,3.3c-0.2,0.1-0.4,0.1-0.6,0.1c-2.6-0.5-4.9-1.6-7-3.2
		C10.2,53.7,8.8,52,7.8,50c-1.2-2.1-1.9-4.4-2.1-6.8c-0.1-1.4-0.1-2.8,0.1-4.3c0.2-1.7,0.6-3.4,1.4-5c1.1-2.4,2.6-4.4,4.5-6.1
		c1.5-1.3,3.2-2.4,5-3.1c1.2-0.5,2.5-0.7,3.7-0.9c1.1-0.1,2.3-0.1,3.4-0.1c1.5,0.1,2.9,0.4,4.2,1c0.1,0,0.2,0.1,0.4,0.1
		c0.1-1,0.3-1.9,0.6-2.7c0.3-0.9,0.7-1.7,1.1-2.6c-0.2-0.2-0.4-0.2-0.7-0.3c-1.8-0.6-3.7-0.9-5.7-1c-2.1-0.1-4.1,0-6.2,0.4
		c-2.4,0.5-4.7,1.4-6.8,2.7c-2,1.3-3.7,2.8-5.3,4.6C2.1,30,0.3,34.6,0,39.8c-0.1,1.5,0,3,0.2,4.5c0.3,2.1,0.8,4.2,1.6,6.1
		c1.4,3.2,3.4,5.9,5.9,8.2c1.9,1.7,4,3,6.4,3.9c2.2,0.8,4.5,1.3,6.9,1.4c2.2,0.1,4.4,0,6.5-0.5c2.9-0.6,5.5-1.8,7.9-3.5
		c1.9-1.4,3.4-3,4.8-4.9c2.7-3.7,4.2-7.8,4.5-12.4c0.1-1.9,0-3.7-0.3-5.6C44.1,35.5,43.7,34,43.1,32.5z"/>
	<path class="st0" d="M53.3,7.8c-0.5-1.8-1.1-3.5-2.1-5.1c-0.1-0.2-0.3-0.4-0.4-0.7c-0.1,0.2-0.2,0.4-0.3,0.6
		c-0.6,1.2-1.4,2.3-2.4,3.3c-1.5,1.4-3.2,2.5-5.2,3c-0.2,0-0.3,0.1-0.5,0.1c-1.5,0.4-2.9,1-4.3,1.8c-0.9,0.5-1.7,1.2-2.4,2.1
		c-1.2,1.6-1.8,3.4-1.7,5.4c0.1,1.6,0.5,3.2,1.3,4.6c0,0.1,0.1,0.1,0.2,0.2c6.4-1.6,11.1-5.3,14.4-11.1c0,0.2,0,0.3,0,0.4
		c-0.1,0.5-0.3,1-0.5,1.5c-0.5,1-1.2,1.9-1.9,2.8c-1.3,1.5-2.8,2.7-4.3,3.9c-1.9,1.4-3.8,2.7-5.9,3.9c-0.1,0.1-0.3,0.1-0.4,0.3
		c0.3,0.3,0.5,0.5,0.8,0.7c1,0.9,2.2,1.6,3.5,2c1.2,0.4,2.5,0.5,3.7,0.3c1.5-0.3,2.9-1,4.1-2c1.1-1,2-2.2,2.8-3.5
		c0.4-0.8,0.8-1.5,1.1-2.4c0.6-1.7,0.9-3.5,1-5.4C54.1,12.3,53.9,10.1,53.3,7.8z"/>
</g>
</svg>
