<?xml version="1.0" encoding="utf-8"?>
<!-- Generator: Adobe Illustrator 21.0.0, SVG Export Plug-In . SVG Version: 6.00 Build 0)  -->
<svg version="1.1" id="Layer_1" xmlns="http://www.w3.org/2000/svg" xmlns:xlink="http://www.w3.org/1999/xlink" x="0px" y="0px"
	 viewBox="0 0 60 58" style="enable-background:new 0 0 60 58;" xml:space="preserve">
<style type="text/css">
	.st0{fill:#333333;}
</style>
<title>video-camera-vintage</title>
<desc>Created with Sketch.</desc>
<g>
	<path class="st0" d="M8,50h19V34H8V50z M12,38h11v8H12V38z"/>
	<path class="st0" d="M20,18c2,4.7,6.6,8,12,8c7.2,0,13-5.8,13-13S39.2,0,32,0S19,5.8,19,13c0,0.4,0,0.8,0.1,1.2
		c-1.3-2.5-4-4.2-7.1-4.2c-4.4,0-8,3.6-8,8s3.6,8,8,8C16.4,26,20,22.4,20,18z M32,4c5,0,9,4,9,9c0,5-4,9-9,9s-9-4-9-9
		C23,8,27,4,32,4z M12,22c-2.2,0-4-1.8-4-4c0-2.2,1.8-4,4-4s4,1.8,4,4C16,20.2,14.2,22,12,22z"/>
	<path class="st0" d="M60,26l-12,6v-4c0-1.1-0.9-2-2-2H32H12H2c-1.1,0-2,0.9-2,2v28c0,1.1,0.9,2,2,2h44c1.1,0,2-0.9,2-2v-4l12,6V26z
		 M44,54H4V30h40v4v16V54z M56,51.5l-8-4V36.5l8-4V51.5z"/>
	<circle class="st0" cx="36" cy="42" r="4"/>
	<circle class="st0" cx="32" cy="13" r="4"/>
</g>
</svg>
