<?xml version="1.0" encoding="utf-8"?>
<!-- Generator: Adobe Illustrator 21.0.0, SVG Export Plug-In . SVG Version: 6.00 Build 0)  -->
<svg version="1.1" id="Layer_1" xmlns="http://www.w3.org/2000/svg" xmlns:xlink="http://www.w3.org/1999/xlink" x="0px" y="0px"
	 viewBox="0 0 64 64" style="enable-background:new 0 0 64 64;" xml:space="preserve">
<style type="text/css">
	.st0{fill:#343434;}
</style>
<title>vimeo-circle</title>
<desc>Created with Sketch.</desc>
<g>
	<path class="st0" d="M32,0C14.3,0,0,14.3,0,32c0,17.7,14.3,32,32,32s32-14.3,32-32C64,14.3,49.7,0,32,0z M53,23.3
		c-0.2,3.9-3,9.2-8.3,16c-5.8,7.4-10.3,10.6-14.1,10.6c-3.6,0-7.1-9.9-9.5-18.3c-1.2-4.3-2.2-6.1-3.4-6c-1.1,0.1-2.5,1.1-4,2.1l0,0
		c-0.5,0.3-1.2,0.2-1.5-0.2l-0.9-1.1c-0.4-0.5-0.3-1.1,0.2-1.5c0.2-0.2,0.4-0.4,0.7-0.6c4.7-4,10.4-8.6,13-8.6
		c3.4,0,3.9,1.8,4.9,5.4c0.1,0.3,3.7,16,4.7,16c0.3,0,1.3-1.3,3.2-4.2c1.6-2.4,2.8-4.7,3-5.5c0.3-1,0.2-1.8-0.2-2.3
		c-0.5-0.7-1.5-0.8-2.3-0.8c-0.6,0-1.2,0.1-1.8,0.2c-0.3,0.1-0.6,0-0.9-0.2c-0.2-0.2-0.3-0.6-0.2-0.9c2.1-5.7,5.9-8.4,11.2-8.3
		c1.9,0.1,3.4,0.6,4.4,1.7C52.5,18.2,53.1,20.3,53,23.3z"/>
</g>
</svg>
