<?xml version="1.0" encoding="utf-8"?>
<!-- Generator: Adobe Illustrator 21.0.0, SVG Export Plug-In . SVG Version: 6.00 Build 0)  -->
<svg version="1.1" id="Layer_1" xmlns="http://www.w3.org/2000/svg" xmlns:xlink="http://www.w3.org/1999/xlink" x="0px" y="0px"
	 viewBox="0 0 64 64" style="enable-background:new 0 0 64 64;" xml:space="preserve">
<style type="text/css">
	.st0{fill:#343434;}
</style>
<path class="st0" d="M60,0H4C1.8,0,0,1.8,0,4v56c0,2.2,1.8,4,4,4h56c2.2,0,4-1.8,4-4V4C64,1.8,62.2,0,60,0z M53,23.3
	c-0.2,3.9-3,9.2-8.3,16c-5.8,7.4-10.3,10.6-14.1,10.6c-3.6,0-7.1-9.9-9.5-18.3c-1.2-4.3-2.2-6.1-3.4-6c-1.1,0.1-2.5,1.1-4,2.1l0,0
	c-0.5,0.3-1.2,0.2-1.5-0.2l-0.9-1.1c-0.4-0.5-0.3-1.1,0.2-1.5c0.2-0.2,0.4-0.4,0.7-0.6c4.7-4,10.4-8.6,13-8.6c3.4,0,3.9,1.8,4.9,5.4
	c0.1,0.3,3.7,16,4.7,16c0.3,0,1.3-1.3,3.2-4.2c1.6-2.4,2.8-4.7,3-5.5c0.3-1,0.2-1.8-0.2-2.3c-0.5-0.7-1.5-0.8-2.3-0.8
	c-0.6,0-1.2,0.1-1.8,0.2c-0.3,0.1-0.6,0-0.9-0.2c-0.2-0.2-0.3-0.6-0.2-0.9c2.1-5.7,5.9-8.4,11.2-8.3c1.9,0.1,3.4,0.6,4.4,1.7
	C52.5,18.2,53.1,20.3,53,23.3z"/>
</svg>
