<?xml version="1.0" encoding="utf-8"?>
<!-- Generator: Adobe Illustrator 21.0.0, SVG Export Plug-In . SVG Version: 6.00 Build 0)  -->
<svg version="1.1" id="Layer_1" xmlns="http://www.w3.org/2000/svg" xmlns:xlink="http://www.w3.org/1999/xlink" x="0px" y="0px"
	 viewBox="0 0 64 53" style="enable-background:new 0 0 64 53;" xml:space="preserve">
<style type="text/css">
	.st0{fill:#343434;}
</style>
<path class="st0" d="M61.4,2.6C59.8,1,57.6,0.1,54.7,0c-8.1-0.3-13.9,4-17.1,12.6c-0.2,0.5-0.1,1,0.3,1.3c0.3,0.4,0.8,0.5,1.3,0.4
	c0.9-0.2,1.8-0.4,2.7-0.4c1.2,0,2.8,0.2,3.5,1.2c0.6,0.8,0.7,2,0.2,3.5c-0.4,1.3-2.3,4.7-4.6,8.4c-2.9,4.4-4.5,6.4-4.9,6.4
	c-1.5,0-7-23.9-7.2-24.4c-1.6-5.5-2.4-8.2-7.5-8.2c-3.9,0-12.6,7-19.8,13.1c-0.4,0.4-0.8,0.7-1.1,0.9c-0.7,0.6-0.8,1.6-0.2,2.3
	l1.3,1.7c0.6,0.7,1.6,0.9,2.3,0.3l0.1-0.1c2.3-1.6,4.5-3.1,6.1-3.2c1.8-0.1,3.3,2.7,5.2,9.2c3.5,12.7,8.9,27.9,14.4,27.9
	c5.8,0,12.6-4.8,21.5-16.1c8-10.3,12.3-18.4,12.6-24.3C64.2,8,63.3,4.7,61.4,2.6z"/>
</svg>
