<?xml version="1.0" encoding="utf-8"?>
<!-- Generator: Adobe Illustrator 21.0.0, SVG Export Plug-In . SVG Version: 6.00 Build 0)  -->
<svg version="1.1" id="Layer_1" xmlns="http://www.w3.org/2000/svg" xmlns:xlink="http://www.w3.org/1999/xlink" x="0px" y="0px"
	 viewBox="0 0 57 64" style="enable-background:new 0 0 57 64;" xml:space="preserve">
<style type="text/css">
	.st0{fill:#343434;}
</style>
<path class="st0" d="M53.5,32.3c-5.8,0.5-10.7-1.2-14-6.3c-1.9-3.1-2.5-6.6-2.3-10.2c0.1-1.4,0.4-2.9,1.1-4.1c0.7-1.2,1.7-1.9,3.1-2
	c2-0.1,3.5,1.2,4,3.7c0.7,3.2,0.2,6.3-0.6,9.3c-0.1,0.3-0.3,1-0.3,1s0.4,0.5,0.7,0.8c2.1,2.1,4.7,2.6,7.5,2.4c0.4,0,1.1-0.1,1.1-0.1
	s0.3-0.7,0.4-1c1.5-4.2,2.1-8.5,1.7-12.9C55.4,6.4,52,0.9,44,0.1c-7.2-0.7-13.2,2.6-15.7,9.5c-1.4,4-1.5,8-0.8,12.1
	c1.2,6.8,4.4,12.4,10.6,16c0.6,0.4,0.6,0.6,0.3,1.2c-2.5,4.8-5.5,9.2-9.1,13.2c-1.6,1.7-1.5,1.7-3-0.2C19,42.6,14.9,31.8,12.6,20.3
	c-0.6-3.2-1.1-6.3-1.5-9.5L11,9.6l-11,0l0.1,0.6c1.4,9.9,3.5,19.7,7.2,29c2.7,6.9,6.2,13.3,11.1,18.9c1.6,1.8,3.4,3.4,5.4,4.7
	c2.4,1.5,4.7,1.4,7-0.2c0.7-0.5,1.3-1,1.9-1.5c6.3-5.7,11.4-12.4,15.3-20.1c0.3-0.6,0.6-0.9,1.3-0.9c1.6,0,3.2-0.2,4.8-0.5
	c0.9-0.2,1.9-0.4,2.8-0.6v-7.6C55.9,31.9,54.7,32.1,53.5,32.3z"/>
</svg>
