<svg xmlns="http://www.w3.org/2000/svg" viewBox="0 0 64 64"><path d="M32 0C14.3 0 0 14.3 0 32s14.3 32 32 32 32-14.3 32-32S49.7 0 32 0zm19 37.1l-1.8.4c-1 .2-2.1.3-3.1.3-.5 0-.7.2-.9.6-2.5 4.9-5.8 9.2-9.9 12.9l-1.2 1c-1.5 1-3 1.1-4.6.1-1.3-.8-2.5-1.9-3.5-3-3.2-3.5-5.5-7.7-7.2-12.1-2.4-6-3.8-12.2-4.7-18.6l-.1-.5h7.1l.1.7c.3 2 .6 4.1 1 6.1 1.5 7.4 4.1 14.3 8.9 20.3.9 1.2.9 1.2 2 .1 2.3-2.6 4.3-5.4 5.9-8.4.2-.4.2-.5-.2-.8-4-2.3-6.1-5.8-6.9-10.2-.5-2.6-.4-5.2.5-7.8 1.6-4.4 5.5-6.6 10.2-6.1 5.2.5 7.4 4.1 7.8 8.1.3 2.8-.1 5.6-1.1 8.3-.1.2-.3.7-.3.7s-.4 0-.7.1c-1.8.1-3.5-.2-4.9-1.5l-.5-.5s.1-.4.2-.6c.6-2 .9-3.9.4-6-.4-1.6-1.3-2.4-2.6-2.3-.9 0-1.6.5-2 1.3-.5.8-.7 1.7-.7 2.6-.1 2.3.2 4.5 1.5 6.5 2.1 3.3 5.3 4.4 9.1 4.1.8-.1 1.6-.2 2.3-.4v4.6z" fill="#343434"/></svg>