<?xml version="1.0" encoding="utf-8"?>
<!-- Generator: Adobe Illustrator 21.0.0, SVG Export Plug-In . SVG Version: 6.00 Build 0)  -->
<svg version="1.1" id="Layer_1" xmlns="http://www.w3.org/2000/svg" xmlns:xlink="http://www.w3.org/1999/xlink" x="0px" y="0px"
	 viewBox="0 0 64 64" style="enable-background:new 0 0 64 64;" xml:space="preserve">
<style type="text/css">
	.st0{fill:#343434;}
</style>
<path class="st0" d="M60,0H4C1.8,0,0,1.8,0,4v56c0,2.2,1.8,4,4,4h56c2.2,0,4-1.8,4-4V4C64,1.8,62.2,0,60,0z M51,37.1
	c-0.6,0.1-1.2,0.3-1.8,0.4c-1,0.2-2.1,0.3-3.1,0.3c-0.5,0-0.7,0.2-0.9,0.6c-2.5,4.9-5.8,9.2-9.9,12.9c-0.4,0.3-0.8,0.7-1.2,1
	c-1.5,1-3,1.1-4.6,0.1c-1.3-0.8-2.5-1.9-3.5-3c-3.2-3.5-5.5-7.7-7.2-12.1c-2.4-6-3.8-12.2-4.7-18.6L14,18.2l7.1,0l0.1,0.7
	c0.3,2,0.6,4.1,1,6.1c1.5,7.4,4.1,14.3,8.9,20.3c0.9,1.2,0.9,1.2,2,0.1c2.3-2.6,4.3-5.4,5.9-8.4c0.2-0.4,0.2-0.5-0.2-0.8
	c-4-2.3-6.1-5.8-6.9-10.2c-0.5-2.6-0.4-5.2,0.5-7.8c1.6-4.4,5.5-6.6,10.2-6.1c5.2,0.5,7.4,4.1,7.8,8.1c0.3,2.8-0.1,5.6-1.1,8.3
	c-0.1,0.2-0.3,0.7-0.3,0.7s-0.4,0-0.7,0.1c-1.8,0.1-3.5-0.2-4.9-1.5c-0.2-0.2-0.5-0.5-0.5-0.5s0.1-0.4,0.2-0.6c0.6-2,0.9-3.9,0.4-6
	c-0.4-1.6-1.3-2.4-2.6-2.3c-0.9,0-1.6,0.5-2,1.3c-0.5,0.8-0.7,1.7-0.7,2.6c-0.1,2.3,0.2,4.5,1.5,6.5c2.1,3.3,5.3,4.4,9.1,4.1
	c0.8-0.1,1.6-0.2,2.3-0.4V37.1z"/>
</svg>
