<?xml version="1.0" encoding="utf-8"?>
<!-- Generator: Adobe Illustrator 21.0.0, SVG Export Plug-In . SVG Version: 6.00 Build 0)  -->
<svg version="1.1" id="Layer_1" xmlns="http://www.w3.org/2000/svg" xmlns:xlink="http://www.w3.org/1999/xlink" x="0px" y="0px"
	 viewBox="0 0 45 62" style="enable-background:new 0 0 45 62;" xml:space="preserve">
<style type="text/css">
	.st0{fill:#333333;}
</style>
<title>volume-down</title>
<desc>Created with Sketch.</desc>
<g>
	<path class="st0" d="M26.9,1.2L10.2,19H2c-1.1,0-2,0.9-2,2v20c0,1.1,0.9,2,2,2h8.4l16.5,17.6c1.1,1.2,2.1,0.8,2.1-0.8V2
		C29,0.3,28.1,0,26.9,1.2z M23,47.6L13,37H6V25h6.8L23,14.1V47.6z"/>
	<path class="st0" d="M34,20v6c2.8,0,5,2.2,5,5s-2.2,5-5,5v6c6.1,0,11-4.9,11-11C45,24.9,40.1,20,34,20z"/>
</g>
</svg>
