<?xml version="1.0" encoding="utf-8"?>
<!-- Generator: Adobe Illustrator 21.0.0, SVG Export Plug-In . SVG Version: 6.00 Build 0)  -->
<svg version="1.1" id="Layer_1" xmlns="http://www.w3.org/2000/svg" xmlns:xlink="http://www.w3.org/1999/xlink" x="0px" y="0px"
	 viewBox="0 0 58 64" style="enable-background:new 0 0 58 64;" xml:space="preserve">
<style type="text/css">
	.st0{fill:#333333;}
</style>
<title>volume-up-f</title>
<desc>Created with Sketch.</desc>
<g>
	<path class="st0" d="M27.7,1.6L10.4,20.3H2c-1.1,0-2,0.9-2,2v20.4c0,1.1,0.9,2,2,2h8.6l17.2,18.6c1.1,1.2,2,0.9,2-0.8V2.4
		C29.8,0.7,28.9,0.4,27.7,1.6z"/>
	<path class="st0" d="M34,8v6c9.9,0,18,8.1,18,18c0,9.9-8.1,18-18,18v6c13.3,0,24-10.7,24-24S47.3,8,34,8z"/>
	<path class="st0" d="M45,32c0-6.1-4.9-11-11-11v6c2.8,0,5,2.2,5,5s-2.2,5-5,5v6C40.1,43,45,38.1,45,32z"/>
</g>
</svg>
