<?xml version="1.0" encoding="utf-8"?>
<!-- Generator: Adobe Illustrator 21.0.0, SVG Export Plug-In . SVG Version: 6.00 Build 0)  -->
<svg version="1.1" id="Layer_1" xmlns="http://www.w3.org/2000/svg" xmlns:xlink="http://www.w3.org/1999/xlink" x="0px" y="0px"
	 viewBox="0 0 58 62" style="enable-background:new 0 0 58 62;" xml:space="preserve">
<style type="text/css">
	.st0{fill:#333333;}
</style>
<title>volume-up</title>
<desc>Created with Sketch.</desc>
<g>
	<path class="st0" d="M26.9,1.2L10.2,19H2c-1.1,0-2,0.9-2,2v20c0,1.1,0.9,2,2,2h8.4l16.5,17.6c1.1,1.2,2.1,0.8,2.1-0.8V2
		C29,0.3,28.1,0,26.9,1.2z M23,47.6L13,37H6V25h6.8L23,14.1V47.6z"/>
	<path class="st0" d="M34,7v6c9.9,0,18,8.1,18,18c0,9.9-8.1,18-18,18v6c13.3,0,24-10.7,24-24S47.3,7,34,7z"/>
	<path class="st0" d="M45,31c0-6.1-4.9-11-11-11v6c2.8,0,5,2.2,5,5s-2.2,5-5,5v6C40.1,42,45,37.1,45,31z"/>
</g>
</svg>
