<svg xmlns="http://www.w3.org/2000/svg" viewBox="0 0 58 64" enable-background="new 0 0 58 64"><style type="text/css">.st0{fill:#333333;}</style><title>volume-up-f</title><desc>Created with Sketch.</desc><path class="st0" d="M27.7 1.6l-17.3 18.7h-8.4c-1.1 0-2 .9-2 2v20.4c0 1.1.9 2 2 2h8.6l17.2 18.6c1.1 1.2 2 .9 2-.8v-60.1c0-1.7-.9-2-2.1-.8zM34 8v6c9.9 0 18 8.1 18 18s-8.1 18-18 18v6c13.3 0 24-10.7 24-24s-10.7-24-24-24zM45 32c0-6.1-4.9-11-11-11v6c2.8 0 5 2.2 5 5s-2.2 5-5 5v6c6.1 0 11-4.9 11-11z"/></svg>