<?xml version="1.0" encoding="utf-8"?>
<!-- Generator: Adobe Illustrator 21.0.0, SVG Export Plug-In . SVG Version: 6.00 Build 0)  -->
<svg version="1.1" id="Layer_1" xmlns="http://www.w3.org/2000/svg" xmlns:xlink="http://www.w3.org/1999/xlink" x="0px" y="0px"
	 viewBox="0 0 55 64" style="enable-background:new 0 0 55 64;" xml:space="preserve">
<style type="text/css">
	.st0{fill:#333333;}
</style>
<title>volume-mute-f</title>
<desc>Created with Sketch.</desc>
<g>
	<path class="st0" d="M27.4,1.2L10.1,20H2c-1.1,0-2,0.9-2,2v20c0,1.1,0.9,2,2,2h8.1l17.4,18.8c1.1,1.2,2,0.9,2-0.8V2
		C29.5,0.3,28.6,0,27.4,1.2z"/>
	<polygon class="st0" points="54.6,25.6 50.4,21.4 44,27.8 37.6,21.4 33.4,25.6 39.8,32 33.4,38.4 37.6,42.6 44,36.2 50.4,42.6 
		54.6,38.4 48.2,32 	"/>
</g>
</svg>
