<?xml version="1.0" encoding="utf-8"?>
<!-- Generator: Adobe Illustrator 21.0.0, SVG Export Plug-In . SVG Version: 6.00 Build 0)  -->
<svg version="1.1" id="Layer_1" xmlns="http://www.w3.org/2000/svg" xmlns:xlink="http://www.w3.org/1999/xlink" x="0px" y="0px"
	 viewBox="0 0 42 64" style="enable-background:new 0 0 42 64;" xml:space="preserve">
<style type="text/css">
	.st0{fill:#343434;}
</style>
<title>water-drop</title>
<desc>Created with Sketch.</desc>
<path class="st0" d="M21,0C21,0,0,31.4,0,43c0,11.6,9.4,21,21,21s21-9.4,21-21C42,31.4,21,0,21,0z M21,60c-9.4,0-17-7.6-17-17
	c0-3.2,2.4-9.5,6.5-17.5c1.1-2,2.2-4.2,3.4-6.3c2.2-3.9,4.6-7.9,7-11.7c2.4,3.8,4.8,7.8,7,11.7c1.2,2.2,2.4,4.3,3.4,6.3
	c4.2,8,6.5,14.3,6.5,17.5C38,52.4,30.4,60,21,60z"/>
</svg>
