<?xml version="1.0" encoding="utf-8"?>
<!-- Generator: Adobe Illustrator 21.0.0, SVG Export Plug-In . SVG Version: 6.00 Build 0)  -->
<svg version="1.1" id="Layer_1" xmlns="http://www.w3.org/2000/svg" xmlns:xlink="http://www.w3.org/1999/xlink" x="0px" y="0px"
	 viewBox="0 0 64 64" style="enable-background:new 0 0 64 64;" xml:space="preserve">
<style type="text/css">
	.st0{fill:#343434;}
</style>
<g>
	<path class="st0" d="M47,37.5c-0.8-0.4-4.6-2.2-5.3-2.5c-0.7-0.3-1.2-0.4-1.7,0.4c-0.5,0.8-2,2.5-2.4,3c-0.4,0.5-0.9,0.6-1.7,0.2
		c-0.8-0.4-3.3-1.2-6.2-3.8c-2.3-2-3.8-4.5-4.3-5.3c-0.4-0.8,0-1.2,0.3-1.6c0.3-0.3,0.8-0.9,1.2-1.3c0.4-0.4,0.5-0.8,0.8-1.3
		c0.3-0.5,0.1-1-0.1-1.3c-0.2-0.4-1.7-4.1-2.4-5.7c-0.6-1.5-1.3-1.3-1.7-1.3c-0.4,0-1-0.1-1.5-0.1c-0.5,0-1.3,0.2-2.1,1
		c-0.7,0.8-2.7,2.6-2.7,6.4c0,3.8,2.8,7.4,3.1,7.9c0.4,0.5,5.3,8.5,13.2,11.5c7.8,3.1,7.8,2,9.2,1.9c1.4-0.1,4.6-1.8,5.2-3.6
		c0.6-1.8,0.6-3.3,0.5-3.6C48.3,38,47.7,37.8,47,37.5z"/>
	<path class="st0" d="M32.6,0C15.2,0,1.2,14,1.2,31.2c0,5.9,1.6,11.4,4.5,16.1L0,64l17.4-5.5c4.5,2.5,9.7,3.9,15.2,3.9
		c17.4,0,31.4-14,31.4-31.2C64,14,49.9,0,32.6,0z M32.6,57.4c-5.4,0-10.4-1.6-14.5-4.3L7.9,56.3l3.3-9.7c-3.2-4.3-5-9.6-5-15.4
		C6.2,16.7,18,5,32.6,5C47.1,5,59,16.7,59,31.2C59,45.6,47.1,57.4,32.6,57.4z"/>
</g>
</svg>
