<?xml version="1.0" encoding="utf-8"?>
<!-- Generator: Adobe Illustrator 21.0.0, SVG Export Plug-In . SVG Version: 6.00 Build 0)  -->
<svg version="1.1" id="Layer_1" xmlns="http://www.w3.org/2000/svg" xmlns:xlink="http://www.w3.org/1999/xlink" x="0px" y="0px"
	 viewBox="0 0 64 64" style="enable-background:new 0 0 64 64;" xml:space="preserve">
<style type="text/css">
	.st0{fill:#343434;}
</style>
<title>wheel</title>
<desc>Created with Sketch.</desc>
<path class="st0" d="M32,0C14.3,0,0,14.3,0,32s14.3,32,32,32s32-14.3,32-32S49.7,0,32,0z M34.9,6.2c7.6,0.8,14,4.8,18.2,10.6
	l-12.3,7.1c-1.5-1.7-3.6-2.9-5.9-3.5V6.2z M29,6.2v14.2c-2.3,0.6-4.3,1.8-5.9,3.5l-12.3-7.1C15.1,11,21.5,7,29,6.2z M8.3,42.7
	C6.8,39.4,6,35.8,6,32c0-3.5,0.7-6.9,2-9.9l12.4,7.1C20.1,30.1,20,31,20,32c0,1.3,0.2,2.5,0.6,3.6L8.3,42.7z M29,57.9
	c-7.2-0.9-13.4-4.6-17.6-10l12.4-7.1c1.5,1.4,3.2,2.4,5.2,2.9V57.9z M26,32c0-3.3,2.7-6,6-6s6,2.7,6,6s-2.7,6-6,6S26,35.3,26,32z
	 M35,57.8V43.6c2-0.5,3.8-1.5,5.2-2.9l12.4,7.1C48.4,53.3,42.2,57,35,57.8z M43.4,35.6c0.4-1.1,0.6-2.4,0.6-3.6c0-1-0.1-1.9-0.3-2.8
	L56,22.1c1.3,3,2,6.4,2,9.9c0,3.8-0.8,7.4-2.3,10.7L43.4,35.6z"/>
</svg>
