<svg xmlns="http://www.w3.org/2000/svg" viewBox="0 0 64 43" enable-background="new 0 0 64 43"><style type="text/css">.st0{fill:#343434;}</style><title>wifi</title><desc>Created with Sketch.</desc><path class="st0" d="M32 20c-7.2 0-13.5 3.8-17 9.5l2.9 3.1c2.7-5.1 8-8.6 14.2-8.6 6.1 0 11.5 3.4 14.1 8.5l2.9-3.1c-3.6-5.6-9.9-9.4-17.1-9.4z"/><circle class="st0" cx="32" cy="38" r="5"/><path class="st0" d="M32 0c-12.5 0-23.8 5.2-31.9 13.7l2.7 2.9c7.4-7.8 17.7-12.6 29.2-12.6s21.8 4.8 29.1 12.5l2.7-2.9c-8-8.4-19.3-13.6-31.8-13.6zM32 10c-9.9 0-18.7 4.5-24.5 11.5l2.8 2.9c5-6.3 12.9-10.4 21.7-10.4 8.8 0 16.6 4 21.8 10.4l2.8-2.9c-6-7.1-14.8-11.5-24.6-11.5z"/></svg>