<?xml version="1.0" encoding="utf-8"?>
<!-- Generator: Adobe Illustrator 21.0.0, SVG Export Plug-In . SVG Version: 6.00 Build 0)  -->
<svg version="1.1" id="Layer_1" xmlns="http://www.w3.org/2000/svg" xmlns:xlink="http://www.w3.org/1999/xlink" x="0px" y="0px"
	 viewBox="0 0 64 43" style="enable-background:new 0 0 64 43;" xml:space="preserve">
<style type="text/css">
	.st0{fill:#343434;}
</style>
<title>wifi</title>
<desc>Created with Sketch.</desc>
<g>
	<path class="st0" d="M32,20c-7.2,0-13.5,3.8-17,9.5l2.9,3.1c2.7-5.1,8-8.6,14.2-8.6c6.1,0,11.5,3.4,14.1,8.5l2.9-3.1
		C45.5,23.8,39.2,20,32,20z"/>
	<circle class="st0" cx="32" cy="38" r="5"/>
	<path class="st0" d="M32,0C19.5,0,8.2,5.2,0.1,13.7l2.7,2.9C10.2,8.8,20.5,4,32,4c11.5,0,21.8,4.8,29.1,12.5l2.7-2.9
		C55.8,5.2,44.5,0,32,0z"/>
	<path class="st0" d="M32,10c-9.9,0-18.7,4.5-24.5,11.5l2.8,2.9C15.3,18.1,23.2,14,32,14c8.8,0,16.6,4,21.8,10.4l2.8-2.9
		C50.6,14.4,41.8,10,32,10z"/>
</g>
</svg>
