<?xml version="1.0" encoding="utf-8"?>
<!-- Generator: Adobe Illustrator 21.0.0, SVG Export Plug-In . SVG Version: 6.00 Build 0)  -->
<svg version="1.1" id="Layer_1" xmlns="http://www.w3.org/2000/svg" xmlns:xlink="http://www.w3.org/1999/xlink" x="0px" y="0px"
	 viewBox="0 0 64 64" style="enable-background:new 0 0 64 64;" xml:space="preserve">
<style type="text/css">
	.st0{fill:#343434;}
</style>
<path class="st0" d="M60,0H4C1.8,0,0,1.8,0,4v56c0,2.2,1.8,4,4,4h56c2.2,0,4-1.8,4-4V4C64,1.8,62.2,0,60,0z M53,18.5
	c0,0.2-0.1,0.3-0.3,0.3c-1.1,0-1.9,0.3-2.5,0.8c-0.5,0.5-1,1.2-1.3,2c0,0-7.1,17.7-9.5,23.6c-0.9,1.9-1.8,1.7-2.6-0.1
	c-1-2.2-3.1-7.2-4.6-10.9c-1.6,3.7-3.9,8.7-5,10.9c-1.1,2-2,1.8-2.7,0C22,38.9,17,27.8,14.6,21.6c-0.4-1.1-0.8-1.9-1.1-2.2
	c-0.3-0.3-1-0.5-2-0.5c-0.4,0-0.6-0.1-0.6-0.3v-0.9l0.3-0.1c1.6,0,9.6,0,9.6,0l0.4,0.1v0.8c0,0.2-0.4,0.3-0.7,0.3l-1.3,0
	c-0.8,0-1.3,0.3-1.3,0.8c0,0.2,0.1,0.6,0.3,1.1c1.9,5,8.4,20.1,8.4,20.1l0.2,0.1l4.2-9.2c-0.5-1.2-0.8-2-0.8-2l-2.9-6.2
	c0,0-0.6-1.2-0.8-1.7c-1.3-2.8-1.3-2.9-2.5-3.1c-0.4-0.1-0.6-0.1-0.6-0.3v-0.9l0-0.1H31l0,0.1v0.9c0,0.2,0,0.3-0.2,0.3l-0.4,0.1
	c-1.4,0.1-1.2,0.7-0.2,2.7l2.8,6.2l3.1-6.7c0.5-1.2,0.4-1.5,0.2-1.8c-0.1-0.2-0.5-0.4-1.4-0.5l-0.3,0c-0.1,0-0.1,0-0.2-0.1
	c-0.1-0.1,0-0.1,0-0.2v-0.8l0-0.1c2.2,0,6.9,0,6.9,0l0.1,0.1v0.8c0,0.2-0.1,0.3-0.3,0.3c-1.1,0.1-1.4,0.2-1.8,0.8
	c-0.2,0.4-0.7,1.1-1.1,2l-4,8.2c0,0,0,0.1-0.1,0.3L38.9,41l0.3,0.1l7.7-19.9c0.3-0.8,0.2-1.4-0.1-1.7c-0.4-0.3-0.6-0.5-1.5-0.6
	l-0.8,0c-0.1,0-0.3,0-0.4-0.1c-0.1-0.1-0.4-0.1-0.4-0.2v-0.8l0.6-0.1H53l0,0.1V18.5z"/>
</svg>
