<?xml version="1.0" encoding="utf-8"?>
<!-- Generator: Adobe Illustrator 21.0.0, SVG Export Plug-In . SVG Version: 6.00 Build 0)  -->
<svg version="1.1" id="Layer_1" xmlns="http://www.w3.org/2000/svg" xmlns:xlink="http://www.w3.org/1999/xlink" x="0px" y="0px"
	 viewBox="0 0 24 64" style="enable-background:new 0 0 24 64;" xml:space="preserve">
<style type="text/css">
	.st0{fill:#333333;}
</style>
<title>wine-bottle</title>
<desc>Created with Sketch.</desc>
<path class="st0" d="M18,17.6V2c0-1.1-0.9-2-2-2H8C6.9,0,6,0.9,6,2v15.6c-3.6,2.1-6,6-6,10.4v34c0,1.1,0.9,2,2,2h20c1.1,0,2-0.9,2-2
	V28C24,23.6,21.6,19.7,18,17.6z M14,4v6h-4V4H14z M11,50H4V33h7V50z M20,60H4v-7h7h1h3V29h-3h-1H4v-1c0-2.9,1.5-5.5,4-6.9l2-1.2V14
	h4v5.9l2,1.2c2.5,1.4,4,4,4,6.9V60z"/>
</svg>
