<svg xmlns="http://www.w3.org/2000/svg" viewBox="0 0 64 64" enable-background="new 0 0 64 64"><style type="text/css">.st0{fill:#343434;}</style><path class="st0" d="M32 0c-17.7 0-32 14.3-32 32s14.3 32 32 32 32-14.3 32-32-14.3-32-32-32zm0 60c-15.5 0-28-12.5-28-28s12.5-28 28-28 28 12.5 28 28-12.5 28-28 28zM8 32c0 9.3 5.5 17.2 13.5 21l-11.4-30.5c-1.4 2.9-2.1 6.1-2.1 9.5zM32.4 34l-7.2 20.4c2.2.6 4.4 1 6.8 1 2.8 0 5.5-.5 8-1.3l-.2-.3-7.4-19.8zM48.2 30.8c0-2.9-1.1-4.9-2-6.4-1.2-1.9-2.4-3.6-2.4-5.5 0-2.1 1.7-4.1 4-4.1h.3c-4.2-3.8-9.9-6.2-16.1-6.2-8.4 0-15.8 4.2-20.1 10.5h1.5c2.5 0 6.4-.3 6.4-.3 1.3-.1 1.4 1.8.2 1.9 0 0-1.3.1-2.7.2l8.7 25.5 5.3-15.4-3.7-10c-1.3 0-2.6-.2-2.6-.2-1.3-.1-1.1-2 .2-1.9 0 0 4 .3 6.3.3 2.5 0 6.4-.3 6.4-.3 1.3-.1 1.4 1.8.2 1.9 0 0-1.3.1-2.7.2l8.6 25.2 2.4-7.8c1-3.3 1.8-5.6 1.8-7.6zM53.1 20.8c.1.7.2 1.5.2 2.4 0 2.4-.5 5-1.8 8.4l-7.3 20.6c7-4 11.8-11.6 11.8-20.2 0-4.1-1.1-7.9-2.9-11.2z"/></svg>