<?xml version="1.0" encoding="utf-8"?>
<!-- Generator: Adobe Illustrator 21.0.0, SVG Export Plug-In . SVG Version: 6.00 Build 0)  -->
<svg version="1.1" id="Layer_1" xmlns="http://www.w3.org/2000/svg" xmlns:xlink="http://www.w3.org/1999/xlink" x="0px" y="0px"
	 viewBox="0 0 62 62" style="enable-background:new 0 0 62 62;" xml:space="preserve">
<style type="text/css">
	.st0{fill:#343434;}
</style>
<title>wrench</title>
<desc>Created with Sketch.</desc>
<path class="st0" d="M60.2,11.8L47.7,24.2l-7.4-2.5l-2.5-7.4L50.3,1.9c-5.5-2-11.7-1-15.9,3.2C29.9,9.6,29,16.3,31.6,22L2.1,51.5
	c-2.3,2.3-2.3,6.1,0,8.5c2.3,2.3,6.1,2.3,8.5,0l29.4-29.4c5.7,2.6,12.5,1.7,16.9-2.8C61.2,23.5,62.2,17.3,60.2,11.8z M8.5,57.8
	c-1.2,1.2-3.1,1.2-4.2,0s-1.2-3.1,0-4.2c1.2-1.2,3.1-1.2,4.2,0C9.7,54.8,9.7,56.7,8.5,57.8z"/>
</svg>
