<svg xmlns="http://www.w3.org/2000/svg" viewBox="0 0 62 62" enable-background="new 0 0 62 62"><style type="text/css">.st0{fill:#343434;}</style><title>wrench</title><desc>Created with Sketch.</desc><path class="st0" d="M60.2 11.8l-12.5 12.4-7.4-2.5-2.5-7.4 12.5-12.4c-5.5-2-11.7-1-15.9 3.2-4.5 4.5-5.4 11.2-2.8 16.9l-29.5 29.5c-2.3 2.3-2.3 6.1 0 8.5 2.3 2.3 6.1 2.3 8.5 0l29.4-29.4c5.7 2.6 12.5 1.7 16.9-2.8 4.3-4.3 5.3-10.5 3.3-16zm-51.7 46c-1.2 1.2-3.1 1.2-4.2 0s-1.2-3.1 0-4.2c1.2-1.2 3.1-1.2 4.2 0 1.2 1.2 1.2 3.1 0 4.2z"/></svg>