<svg xmlns="http://www.w3.org/2000/svg" viewBox="0 0 65 64" enable-background="new 0 0 65 64"><style type="text/css">.st0{fill:#333333;}</style><title>write</title><desc>Created with Sketch.</desc><path class="st0" d="M29.6 35.8l-1.1-1.1 23-23-4.7-4.7-25.6 25.6-3 13.5 13.5-3 25.5-25.6-4.7-4.7zM62.1 2.2c-2.9-2.9-7.6-2.9-10.4 0l-.3.3 10.4 10.4.3-.3c2.8-2.8 2.8-7.5 0-10.4zM46 57c0 .6-.4 1-1 1h-38c-.6 0-1-.4-1-1v-38c0-.6.4-1 1-1h25v-6h-30c-1.1 0-2 .9-2 2v48c0 1.1.9 2 2 2h48c1.1 0 2-.9 2-2v-30h-6v25z"/></svg>