<svg xmlns="http://www.w3.org/2000/svg" viewBox="0 0 64 38" enable-background="new 0 0 64 38"><style type="text/css">.st0{fill:#343434;}</style><path class="st0" d="M56.1 30.7l3.7.3 4.2-17.2c-.7 0-7.2-.7-8-.8l.1 17.7zM58.1 8l1.8-2.6h-.1l.2-.2h-24.9l1 3.9h6.8l-11.5 10.3c-2.3-3.2-7.8-9.9-11.6-15.5h8.6v-3l.1-.7h-.1v-.2h-28.4v3.9h8.4c3.3 2.6 15.8 18.1 16.3 19.7.2 1.5.4 10-.2 10.7-1.2 1.3-6.8 1-8.2 1.1l-.5 2.6c2.5.1 10.5-.2 13-.2 4.9 0 13.5 0 14.8.1l.1-2.8-9-.2c-.2-1.4-.4-10.4-.2-11.3.9-2.7 15.2-13.7 16.8-14.1.4-.1.9-.2 1.5-.3h4.6l.7-1.2zM55 33v4.6l2.1.2 2.2.2.7-4.5-2.4-.2z"/></svg>