<?xml version="1.0" encoding="utf-8"?>
<!-- Generator: Adobe Illustrator 21.0.0, SVG Export Plug-In . SVG Version: 6.00 Build 0)  -->
<svg version="1.1" id="Layer_1" xmlns="http://www.w3.org/2000/svg" xmlns:xlink="http://www.w3.org/1999/xlink" x="0px" y="0px"
	 viewBox="0 0 64 38" style="enable-background:new 0 0 64 38;" xml:space="preserve">
<style type="text/css">
	.st0{fill:#343434;}
</style>
<g>
	<path class="st0" d="M56.1,30.7l3.7,0.3L64,13.8c-0.7,0-7.2-0.7-8-0.8L56.1,30.7z"/>
	<path class="st0" d="M58.1,8C58.1,8,58.1,8,58.1,8l1.8-2.6c0,0-0.1,0-0.1,0L60,5.2H35.1l1,3.9h6.8L31.4,19.4
		c-2.3-3.2-7.8-9.9-11.6-15.5h8.6v-3l0.1-0.7c0,0-0.1,0-0.1,0V0H0v3.9h8.4C11.7,6.5,24.2,22,24.7,23.6c0.2,1.5,0.4,10-0.2,10.7
		c-1.2,1.3-6.8,1-8.2,1.1L15.8,38c2.5,0.1,10.5-0.2,13-0.2c4.9,0,13.5,0,14.8,0.1l0.1-2.8c-1.2-0.2-8,0-9-0.2
		c-0.2-1.4-0.4-10.4-0.2-11.3c0.9-2.7,15.2-13.7,16.8-14.1c0.4-0.1,0.9-0.2,1.5-0.3h4.6L58.1,8z"/>
	<polygon class="st0" points="55,33 55,37.6 57.1,37.8 59.3,38 60,33.5 57.6,33.3 	"/>
</g>
</svg>
