<svg xmlns="http://www.w3.org/2000/svg" viewBox="0 0 47 64"><path d="M18.1 27.3c.9 1.5 2.5 2.5 3.6 2.3 1.1-.2 2-1.8 2-3.6l-.1-22.2c0-1.7-1.3-3.2-3.9-3.7-2.5-.5-8.6.2-11.8 2.8-4 3.2-2.2 3.8-1.3 5.3l11.5 19.1zm.8 10.1c.2-1.4-1-3.1-2.6-3.7L4 28.8c-1.6-.6-3.4.9-3.9 3.3 0 0-.3 8.6 0 10.4.3 1.8 2.3 3.2 3.9 2.6L15.6 41c1.7-.6 3.1-2.2 3.3-3.6zm14.9-2.5l11.3-2.1c2-.5 2.1-3.1 1.6-4.6-.5-1.5-3.6-5.9-5.3-7.4-1.7-1.5-3.7-1.3-4.8 0l-6.5 7.9c-1.1 1.3-1.4 3.4-.7 4.7.8 1.2 2.8 1.9 4.4 1.5zm10.5 10L34.2 42c-1.6-.5-3.5-.4-4.1.1-.6.5-.5 2.2.4 3.8l6.4 11.8c.8 1.5 4.1 1.3 5-.2 0 0 3.8-5.8 4.6-7.9.6-2.2-.6-4.2-2.2-4.7zm-22.1-1.1c-1.2-.1-3 .9-4.1 2.2L10 55.9c-1.1 1.3-.6 4.5 1 5.1l8.4 3c1.6.6 4.4-1.2 4.5-2.9l.3-13.8c.1-1.9-.8-3.4-2-3.5z" fill="#343434"/></svg>