<?xml version="1.0" encoding="utf-8"?>
<!-- Generator: Adobe Illustrator 21.0.0, SVG Export Plug-In . SVG Version: 6.00 Build 0)  -->
<svg version="1.1" id="Layer_1" xmlns="http://www.w3.org/2000/svg" xmlns:xlink="http://www.w3.org/1999/xlink" x="0px" y="0px"
	 viewBox="0 0 47 64" style="enable-background:new 0 0 47 64;" xml:space="preserve">
<style type="text/css">
	.st0{fill:#343434;}
</style>
<g>
	<path class="st0" d="M18.1,27.3c0.9,1.5,2.5,2.5,3.6,2.3c1.1-0.2,2-1.8,2-3.6L23.6,3.8c0-1.7-1.3-3.2-3.9-3.7
		c-2.5-0.5-8.6,0.2-11.8,2.8c-4,3.2-2.2,3.8-1.3,5.3L18.1,27.3z"/>
	<path class="st0" d="M18.9,37.4c0.2-1.4-1-3.1-2.6-3.7L4,28.8c-1.6-0.6-3.4,0.9-3.9,3.3c0,0-0.3,8.6,0,10.4
		c0.3,1.8,2.3,3.2,3.9,2.6L15.6,41C17.3,40.4,18.7,38.8,18.9,37.4z"/>
	<path class="st0" d="M33.8,34.9l11.3-2.1c2-0.5,2.1-3.1,1.6-4.6c-0.5-1.5-3.6-5.9-5.3-7.4c-1.7-1.5-3.7-1.3-4.8,0l-6.5,7.9
		c-1.1,1.3-1.4,3.4-0.7,4.7C30.2,34.6,32.2,35.3,33.8,34.9z"/>
	<path class="st0" d="M44.3,44.9L34.2,42c-1.6-0.5-3.5-0.4-4.1,0.1c-0.6,0.5-0.5,2.2,0.4,3.8l6.4,11.8c0.8,1.5,4.1,1.3,5-0.2
		c0,0,3.8-5.8,4.6-7.9C47.1,47.4,45.9,45.4,44.3,44.9z"/>
	<path class="st0" d="M22.2,43.8c-1.2-0.1-3,0.9-4.1,2.2L10,55.9c-1.1,1.3-0.6,4.5,1,5.1l8.4,3c1.6,0.6,4.4-1.2,4.5-2.9l0.3-13.8
		C24.3,45.4,23.4,43.9,22.2,43.8z"/>
</g>
</svg>
