<svg xmlns="http://www.w3.org/2000/svg" viewBox="0 0 63 63" enable-background="new 0 0 63 63"><style type="text/css">.st0{fill:#333333;}</style><title>zoom-plus</title><desc>Created with Sketch.</desc><path class="st0" d="M61.9 57.6l-15-15c8.1-10.2 7.4-25.1-2-34.5-10.2-10.1-26.6-10.1-36.8 0s-10.1 26.6 0 36.8c9.4 9.4 24.3 10.1 34.5 2l15 15c1.2 1.2 3.1 1.2 4.2 0 1.2-1.2 1.2-3.1.1-4.3zm-20.5-16.2c-8.2 8.2-21.5 8.2-29.7 0s-8.2-21.5 0-29.7 21.5-8.2 29.7 0 8.2 21.5 0 29.7zM40 24h-10v-10c0-1.7-1.3-3-3-3s-3 1.3-3 3v10h-10c-1.7 0-3 1.3-3 3s1.3 3 3 3h10v10c0 1.7 1.3 3 3 3s3-1.3 3-3v-10h10c1.7 0 3-1.3 3-3s-1.3-3-3-3z"/></svg>