<?xml version="1.0" encoding="utf-8"?>
<!-- Generator: Adobe Illustrator 21.0.0, SVG Export Plug-In . SVG Version: 6.00 Build 0)  -->
<svg version="1.1" id="Layer_1" xmlns="http://www.w3.org/2000/svg" xmlns:xlink="http://www.w3.org/1999/xlink" x="0px" y="0px"
	 viewBox="0 0 63 63" style="enable-background:new 0 0 63 63;" xml:space="preserve">
<style type="text/css">
	.st0{fill:#333333;}
</style>
<title>zoom-minus</title>
<desc>Created with Sketch.</desc>
<g>
	<path class="st0" d="M61.9,57.6l-15-15c8.1-10.2,7.4-25.1-2-34.5C34.7-2,18.3-2,8.1,8.1S-2,34.7,8.1,44.9c9.4,9.4,24.3,10.1,34.5,2
		l15,15c1.2,1.2,3.1,1.2,4.2,0C63,60.7,63,58.8,61.9,57.6z M41.4,41.4c-8.2,8.2-21.5,8.2-29.7,0s-8.2-21.5,0-29.7s21.5-8.2,29.7,0
		S49.6,33.2,41.4,41.4z"/>
	<path class="st0" d="M40,24H14c-1.7,0-3,1.3-3,3s1.3,3,3,3h26c1.7,0,3-1.3,3-3S41.7,24,40,24z"/>
</g>
</svg>
