<svg xmlns="http://www.w3.org/2000/svg" viewBox="-4 -2 24 24" fill="currentColor"><path d="M8.991 17.692c3.68 0 6.673-2.972 6.673-6.625 0-3.654-2.994-6.626-6.673-6.626a6.693 6.693 0 0 0-4.798 2.02v-5.34h9.178a.563.563 0 0 0 .564-.56.562.562 0 0 0-.564-.561H3.628a.563.563 0 0 0-.564.56v7.453l-.007.136a.566.566 0 0 0 1.06.294 5.55 5.55 0 0 1 4.874-2.88c3.057 0 5.543 2.468 5.543 5.503s-2.486 5.504-5.543 5.504a5.555 5.555 0 0 1-2.844-.787v-4.716c0-1.558 1.276-2.825 2.844-2.825a2.837 2.837 0 0 1 2.844 2.825c0 1.557-1.275 2.824-2.844 2.824a2.84 2.84 0 0 1-1.095-.217.566.566 0 0 0-.738.302.56.56 0 0 0 .303.733c.486.201 1 .303 1.53.303 2.191 0 3.974-1.77 3.974-3.945 0-2.176-1.783-3.946-3.974-3.946-2.19 0-3.973 1.77-3.973 3.946v3.832a5.46 5.46 0 0 1-1.37-2.366.565.565 0 0 0-1.09.298c.795 2.862 3.44 4.861 6.433 4.861z"/><path d="M5.598 2.833a.56.56 0 0 0-.287.74c.127.283.46.41.745.285 1.77-.78 5.248-1.596 8.647 1.715a.565.565 0 0 0 .8-.008.558.558 0 0 0-.009-.793c-4.02-3.915-8.26-2.66-9.896-1.939zM15.695 16.13a.567.567 0 0 0-.797.056 7.849 7.849 0 0 1-5.907 2.674c-3.98 0-7.322-2.957-7.773-6.878a.564.564 0 0 0-.625-.493.562.562 0 0 0-.497.62c.516 4.488 4.34 7.873 8.895 7.873a8.981 8.981 0 0 0 6.76-3.06.558.558 0 0 0-.056-.791zm-8.141-3.704a.565.565 0 0 0 .799.006l.58-.568.572.575a.565.565 0 0 0 .798.006.558.558 0 0 0 .006-.793l-.572-.576.559-.547a.558.558 0 0 0 .005-.793.567.567 0 0 0-.798-.006l-.559.548-.551-.555a.567.567 0 0 0-.799-.006.558.558 0 0 0-.005.793l.55.555-.579.568a.558.558 0 0 0-.006.793z"/></svg>