<svg xmlns="http://www.w3.org/2000/svg" viewBox="-3 -2 24 24" fill="currentColor"><path d="M17.497 13.278c1.017 2.29.441 4.676-1.433 5.938-.774.522-1.592.783-2.431.783-.848 0-1.716-.266-2.583-.797-.512-.314-.966-.72-1.405-1.112-.14-.125-.28-.25-.422-.371a1.07 1.07 0 0 1-.171-.192c-.122.108-.239.214-.353.318-.432.392-.841.762-1.286 1.078-1.643 1.167-3.276 1.38-4.856.635a4.446 4.446 0 0 1-2.3-5.5c.493-1.414 1.135-2.79 1.757-4.12l.02-.043c.883-1.89 1.806-3.797 2.698-5.641l.793-1.641c.34-.706.795-1.498 1.595-2.026.823-.543 1.783-.717 2.703-.49.937.233 1.735.86 2.248 1.764.763 1.346 1.44 2.762 2.015 3.984a374.857 374.857 0 0 1 3.411 7.433zM11.62 3.97l-.555-1.165c-.412-.869-1.167-1.392-2.02-1.4-.873.004-1.65.512-2.09 1.394-.132.265-.268.528-.404.79-.226.439-.46.892-.674 1.35-1.5 3.224-2.883 6.218-4.227 9.152-.396.863-.41 1.772-.043 2.627.35.814.974 1.422 1.757 1.711.324.12.66.179.999.179.483 0 .971-.12 1.432-.36.585-.304 1.097-.738 1.593-1.157.216-.183.432-.366.653-.537.579-.448.26-.959.136-1.158-.572-.915-1.164-1.862-1.624-2.842-.444-.948-.538-1.903-.278-2.837.413-1.482 1.952-2.33 3.503-1.93 1.456.374 2.341 1.873 2.058 3.486-.194 1.107-.66 2.178-1.51 3.475-.055.082-.12.168-.186.255-.24.317-.511.677-.451 1.064.064.41.426.705.745.965.071.058.142.116.206.172.805.711 1.719 1.371 2.951 1.388h.026l.025-.003c.078-.01.156-.019.235-.027.19-.02.389-.04.589-.097a3.056 3.056 0 0 0 1.953-1.692c.37-.83.356-1.766-.038-2.634-1.547-3.41-3.18-6.846-4.761-10.169zm-1.162 7.32c.183-.907.054-1.46-.43-1.85-.311-.248-.642-.373-.988-.373-.256 0-.52.068-.793.204-.545.274-.78.748-.737 1.495.076 1.313.747 2.383 1.504 3.483.633-.89 1.221-1.854 1.444-2.96z"/></svg>