<svg xmlns="http://www.w3.org/2000/svg" viewBox="-3 -2 24 24" fill="currentColor"><path d="M1.247 6.51h-.051c-.656 0-1.19.537-1.19 1.19v5.183c0 .656.534 1.19 1.19 1.19h.052c.655 0 1.19-.535 1.19-1.19V7.7a1.195 1.195 0 0 0-1.191-1.19zm1.76 8.373c0 .602.492 1.092 1.094 1.092h1.17v2.8c0 .657.535 1.191 1.19 1.191h.05c.657 0 1.192-.535 1.192-1.192v-2.799h1.634v2.8c0 .657.538 1.191 1.192 1.191h.05c.657 0 1.191-.535 1.191-1.192v-2.799h1.17c.601 0 1.093-.49 1.093-1.092V6.701H3.007v8.182zm8.259-13.145.929-1.433a.197.197 0 1 0-.33-.215l-.963 1.483a6.276 6.276 0 0 0-2.38-.462 6.28 6.28 0 0 0-2.382.462L5.179.09a.197.197 0 0 0-.275-.058.197.197 0 0 0-.058.273l.93 1.433C4.1 2.56 2.97 4.107 2.97 5.882c0 .11.006.217.016.323h11.07a4.29 4.29 0 0 0 .014-.323c0-1.775-1.13-3.322-2.805-4.144zM5.955 4.305a.532.532 0 1 1-.002-1.064.532.532 0 0 1 .002 1.064zm5.132 0a.532.532 0 1 1-.003-1.064.532.532 0 0 1 .003 1.064zm4.758 2.205h-.05c-.655 0-1.191.537-1.191 1.19v5.183c0 .656.537 1.19 1.191 1.19h.05c.657 0 1.191-.535 1.191-1.19V7.7c0-.654-.535-1.19-1.191-1.19z"/></svg>