<svg xmlns="http://www.w3.org/2000/svg" viewBox="-5 -2 24 24" fill="currentColor"><path d="M3 13v5h8v-5H3zm10-.764V18a2 2 0 0 1-2 2H3a2 2 0 0 1-2-2v-5.764c-.614-.55-1-1.348-1-2.236V7a3 3 0 0 1 3-3h8a3 3 0 0 1 3 3v3c0 .888-.386 1.687-1 2.236zM3 6a1 1 0 0 0-1 1v3a1 1 0 0 0 1 1h8a1 1 0 0 0 1-1V7a1 1 0 0 0-1-1H3zm5 5H6v-1a1 1 0 1 1 2 0v1zm0 2v1a1 1 0 0 1-2 0v-1h2zM3.5 0A1.5 1.5 0 0 1 5 1.5v3a1.5 1.5 0 0 1-3 0v-3A1.5 1.5 0 0 1 3.5 0zm7 0A1.5 1.5 0 0 1 12 1.5v3a1.5 1.5 0 0 1-3 0v-3A1.5 1.5 0 0 1 10.5 0z"/></svg>