<svg xmlns="http://www.w3.org/2000/svg" viewBox="-2 -2 24 24" fill="currentColor"><path d="M7.731 8.74c.058.85-.39 1.575-1.003 1.619-.612.044-1.156-.61-1.214-1.46-.058-.85.391-1.575 1.004-1.619.612-.044 1.156.61 1.213 1.46zm4.217-3.524c-.595-.156-1.243.388-1.447 1.213-.206.826.11 1.622.705 1.777.595.156 1.244-.387 1.448-1.213.267-1.075-.563-1.74-.706-1.777zM13.343 8c-.626.01-1.122.62-1.108 1.566.013.945.53 1.376 1.157 1.367.625-.01 1.122-.456 1.109-1.402-.019-1.23-1.008-1.533-1.158-1.53zM8.81 5.008c-.596 0-1.078.684-1.078 1.528s.482 1.528 1.078 1.528c.595 0 1.078-.684 1.078-1.528S9.405 5.008 8.81 5.008zm-.138 4.746c-.344.507-.734 1.002-1.491 1.65-.757.648-1.078 1.095-1.078 1.755 0 .66.367 1.755 1.41 1.755 1.044 0 1.549-.236 2.375-.236.825 0 1.376.33 2.42.33 1.043 0 1.48-1.013 1.48-1.673 0-.66-.182-1.033-1.018-1.785-.536-.483-.99-.877-1.701-1.89-.352-.5-.757-.565-1.181-.565-.425 0-.872.153-1.216.66z"/><path d="M4 2a2 2 0 0 0-2 2v12a2 2 0 0 0 2 2h12a2 2 0 0 0 2-2V4a2 2 0 0 0-2-2H4zm0-2h12a4 4 0 0 1 4 4v12a4 4 0 0 1-4 4H4a4 4 0 0 1-4-4V4a4 4 0 0 1 4-4z"/></svg>