<svg xmlns="http://www.w3.org/2000/svg" viewBox="-3 -2 24 24" fill="currentColor"><path d="M4.503 7.382c.114 1.681-.774 3.115-1.986 3.202-1.21.087-2.285-1.205-2.4-2.887-.115-1.681.774-3.115 1.985-3.202 1.211-.087 2.286 1.205 2.4 2.887zm8.34-6.97c-1.176-.308-2.458.767-2.862 2.4-.406 1.633.219 3.207 1.395 3.515 1.177.308 2.46-.767 2.864-2.4C14.767 1.8 13.126.485 12.844.412zm2.76 5.506c-1.238.018-2.22 1.226-2.193 3.096.027 1.87 1.05 2.722 2.29 2.703 1.236-.019 2.22-.901 2.192-2.772-.036-2.434-1.993-3.032-2.29-3.027zM6.635 0C5.458 0 4.503 1.354 4.503 3.023c0 1.67.955 3.023 2.132 3.023 1.178 0 2.133-1.353 2.133-3.023C8.768 1.353 7.813 0 6.635 0zm-.272 9.389c-.68 1.002-1.452 1.98-2.95 3.262-1.497 1.282-2.132 2.167-2.132 3.472 0 1.304.726 3.471 2.79 3.471 2.065 0 3.063-.466 4.697-.466 1.633 0 2.723.652 4.787.652s2.926-2.003 2.926-3.308c0-1.305-.358-2.043-2.012-3.532-1.06-.955-1.958-1.733-3.365-3.737-.695-.99-1.497-1.118-2.336-1.118-.84 0-1.724.302-2.405 1.304z"/></svg>