<svg xmlns="http://www.w3.org/2000/svg" viewBox="-2 -2 24 24" fill="currentColor"><path d="M13.05 11H13a1 1 0 0 1 0-2h.05a9.95 9.95 0 0 1 2.065-5.151A7.968 7.968 0 0 0 10 2a7.968 7.968 0 0 0-5.115 1.849A9.95 9.95 0 0 1 6.95 9H7a1 1 0 1 1 0 2h-.05a9.95 9.95 0 0 1-2.065 5.151A7.968 7.968 0 0 0 10 18a7.968 7.968 0 0 0 5.115-1.849A9.95 9.95 0 0 1 13.05 11zm2.012-1.998a1 1 0 0 1 0 1.996 7.955 7.955 0 0 0 1.438 3.668A7.967 7.967 0 0 0 18 10c0-1.71-.538-3.329-1.5-4.666a7.955 7.955 0 0 0-1.438 3.668zM4.938 10.998a1 1 0 0 1 0-1.996A7.955 7.955 0 0 0 3.5 5.334 7.967 7.967 0 0 0 2 10c0 1.71.538 3.329 1.5 4.666a7.955 7.955 0 0 0 1.438-3.668zM10 20C4.477 20 0 15.523 0 10S4.477 0 10 0s10 4.477 10 10-4.477 10-10 10z"/></svg>