<svg xmlns="http://www.w3.org/2000/svg" viewBox="-2 -2 24 24" fill="currentColor"><path d="M11 17.938a7.965 7.965 0 0 0 4.115-1.787A9.95 9.95 0 0 1 13.05 11H11v6.938zm-2 0V11H6.95a9.95 9.95 0 0 1-2.065 5.151A7.965 7.965 0 0 0 9 17.938zM6.95 9H9V2.062a7.965 7.965 0 0 0-4.115 1.787A9.95 9.95 0 0 1 6.95 9zM11 2.062V9h2.05a9.95 9.95 0 0 1 2.065-5.151A7.965 7.965 0 0 0 11 2.062zM4.938 11H2.062A7.955 7.955 0 0 0 3.5 14.666 7.955 7.955 0 0 0 4.938 11zM2.062 9h2.876A7.955 7.955 0 0 0 3.5 5.334 7.955 7.955 0 0 0 2.062 9zm13 0h2.876A7.955 7.955 0 0 0 16.5 5.334 7.955 7.955 0 0 0 15.062 9zm2.876 2h-2.876a7.955 7.955 0 0 0 1.438 3.666A7.955 7.955 0 0 0 17.938 11zM10 20C4.477 20 0 15.523 0 10S4.477 0 10 0s10 4.477 10 10-4.477 10-10 10z"/></svg>