<svg xmlns="http://www.w3.org/2000/svg" viewBox="-2 -2 24 24" fill="currentColor"><path d="M13.462 10.58c0-2.103-1.588-3.814-3.541-3.814-1.953 0-3.542 1.711-3.542 3.815 0 .973.34 1.9.96 2.61.083.095.222.1.31.01l.382-.387a.25.25 0 0 0 .01-.333 2.887 2.887 0 0 1-.698-1.9c0-1.531 1.156-2.777 2.578-2.777 1.421 0 2.577 1.246 2.577 2.777 0 .708-.248 1.383-.698 1.9a.25.25 0 0 0 .011.333l.382.387c.088.09.227.085.31-.01.619-.71.96-1.637.96-2.61m1.666.009c0-.51-.079-1.012-.235-1.495v-.003a.242.242 0 0 0-.3-.15l-.546.165a.23.23 0 0 0-.158.29 3.884 3.884 0 0 1-.395 3.233v.001a.228.228 0 0 0 .084.317l.49.285c.114.065.26.03.33-.08.477-.773.73-1.66.73-2.563"/><path d="M6.763 12.632a3.879 3.879 0 0 1-.394-3.234.23.23 0 0 0-.157-.29l-.547-.165a.241.241 0 0 0-.3.15 4.862 4.862 0 0 0 .495 4.062.244.244 0 0 0 .329.078l.49-.285a.228.228 0 0 0 .084-.316z"/><path d="M4 2a2 2 0 0 0-2 2v12a2 2 0 0 0 2 2h12a2 2 0 0 0 2-2V4a2 2 0 0 0-2-2H4zm0-2h12a4 4 0 0 1 4 4v12a4 4 0 0 1-4 4H4a4 4 0 0 1-4-4V4a4 4 0 0 1 4-4z"/></svg>