<svg xmlns="http://www.w3.org/2000/svg" viewBox="-2 -5.5 24 24" fill="currentColor"><path d="M16.667 7.63c0-4.207-3.178-7.63-7.084-7.63C5.677 0 2.5 3.423 2.5 7.63c0 1.947.682 3.801 1.92 5.222.167.19.444.199.62.02l.764-.774a.5.5 0 0 0 .02-.667 5.773 5.773 0 0 1-1.396-3.8c0-3.063 2.312-5.554 5.155-5.554 2.843 0 5.156 2.491 5.156 5.554a5.77 5.77 0 0 1-1.397 3.8l.001.001a.499.499 0 0 0 .021.666l.764.773c.176.18.454.17.62-.02 1.237-1.42 1.919-3.274 1.919-5.22M20 7.65c0-1.02-.158-2.026-.47-2.99v-.003l-.002-.003a.483.483 0 0 0-.597-.3l-1.094.329a.46.46 0 0 0-.315.58h-.001a7.754 7.754 0 0 1-.789 6.467h.001a.455.455 0 0 0 .167.634l.981.57c.227.132.52.06.657-.159A9.743 9.743 0 0 0 20 7.649"/><path d="M3.268 11.732a7.758 7.758 0 0 1-.788-6.468.461.461 0 0 0-.315-.58l-1.093-.33a.482.482 0 0 0-.598.301H.472a9.724 9.724 0 0 0 .99 8.123h.002a.488.488 0 0 0 .655.156l.982-.57a.455.455 0 0 0 .167-.631z"/></svg>