<svg xmlns="http://www.w3.org/2000/svg" viewBox="-2 -2 24 24" fill="currentColor"><path d="M14.03 7.88h-2.505v-.622h2.506v.623zm-4.173 2.553c.162.25.242.554.242.911 0 .37-.09.7-.276.993a1.721 1.721 0 0 1-1.142.801 4.33 4.33 0 0 1-.879.084H5V7h3.005c.757.012 1.294.232 1.611.663.19.264.285.581.285.95 0 .38-.095.685-.288.916-.106.13-.264.248-.473.354.316.116.556.298.717.55zm-3.422-.98h1.317c.27 0 .489-.051.657-.154.169-.103.253-.285.253-.547 0-.29-.111-.482-.334-.574a2.35 2.35 0 0 0-.735-.098H6.435v1.373zm2.354 1.802c0-.323-.133-.546-.396-.666-.148-.068-.356-.103-.622-.106H6.435v1.658H7.75c.27 0 .48-.035.63-.109.272-.135.409-.393.409-.777zm6.171-1.012c.03.204.044.499.039.885h-3.245c.018.448.172.761.466.94.176.113.39.168.642.168.265 0 .48-.067.647-.205a.972.972 0 0 0 .239-.306h1.19c-.032.265-.175.533-.432.806-.4.433-.958.65-1.677.65a2.433 2.433 0 0 1-1.57-.548c-.452-.366-.68-.96-.68-1.785 0-.773.205-1.365.614-1.777.41-.413.941-.618 1.595-.618.387 0 .736.069 1.048.208.31.14.567.359.769.66.183.266.3.572.355.922zm-1.17.116c-.022-.31-.126-.544-.312-.704a1.016 1.016 0 0 0-.69-.242c-.3 0-.531.087-.696.256-.165.17-.268.4-.31.69h2.008z"/><path d="M4 2a2 2 0 0 0-2 2v12a2 2 0 0 0 2 2h12a2 2 0 0 0 2-2V4a2 2 0 0 0-2-2H4zm0-2h12a4 4 0 0 1 4 4v12a4 4 0 0 1-4 4H4a4 4 0 0 1-4-4V4a4 4 0 0 1 4-4z"/></svg>