<svg xmlns="http://www.w3.org/2000/svg" viewBox="-2 -5.5 24 24" fill="currentColor"><path d="M18.025 1.769h-5.001V.527h5.001v1.242zm-8.33 5.094c.322.5.483 1.107.483 1.819 0 .737-.182 1.398-.551 1.982a3.436 3.436 0 0 1-.879.975 3.395 3.395 0 0 1-1.402.624 8.665 8.665 0 0 1-1.753.167H0V.011h5.998C7.509.036 8.58.474 9.214 1.334c.38.528.568 1.16.568 1.897 0 .759-.19 1.366-.574 1.828-.213.259-.528.494-.945.707.631.231 1.11.595 1.431 1.097zm-6.83-1.955h2.627c.54 0 .977-.103 1.313-.308.336-.205.504-.57.504-1.092 0-.578-.222-.961-.667-1.146-.383-.128-.872-.194-1.466-.194H2.864v2.74zm4.697 3.597c0-.645-.264-1.091-.79-1.33-.295-.137-.71-.206-1.242-.211H2.864v3.31H5.49c.539 0 .956-.071 1.257-.218.543-.271.816-.786.816-1.551zm12.318-2.02c.06.406.088.995.077 1.766H13.48c.036.894.344 1.519.93 1.877.353.224.78.334 1.282.334.528 0 .959-.134 1.29-.409.181-.145.34-.35.478-.61h2.374c-.062.528-.348 1.064-.861 1.608-.796.865-1.912 1.299-3.346 1.299-1.184 0-2.228-.366-3.134-1.095-.903-.732-1.356-1.918-1.356-3.564 0-1.543.407-2.724 1.224-3.546.82-.824 1.878-1.234 3.182-1.234.774 0 1.47.138 2.092.416.62.278 1.132.716 1.536 1.317.365.53.6 1.142.71 1.84zm-2.337.231c-.043-.618-.25-1.086-.621-1.406-.369-.32-.83-.481-1.379-.481-.598 0-1.06.172-1.387.51-.33.337-.536.796-.62 1.377h4.007z"/></svg>