<svg xmlns="http://www.w3.org/2000/svg" viewBox="-2 -2 24 24" fill="currentColor"><path d="M10 18a8 8 0 1 0 0-16 8 8 0 0 0 0 16zm0 2C4.477 20 0 15.523 0 10S4.477 0 10 0s10 4.477 10 10-4.477 10-10 10z"/><path d="M13.99 9.297a.242.242 0 0 0-.159-.218L9.127 7.623c-.088-.027-.128.02-.09.103l.876 1.922a.522.522 0 0 0 .221.222l1.2.55c.084.037.086.104.005.147l-5.122 2.724c-.08.043-.091.028-.023-.034l1.968-1.772a.431.431 0 0 0 .124-.28l.001-5.37a.243.243 0 0 0-.159-.219L6.16 5.007c-.088-.027-.16.027-.16.12v8.148c0 .092.061.211.136.264l2.001 1.418c.075.053.2.058.28.01l5.43-3.27a.33.33 0 0 0 .144-.255V9.297z"/></svg>