<svg xmlns="http://www.w3.org/2000/svg" viewBox="-4 -3.5 24 24" fill="currentColor"><path d="M8 12.858a4 4 0 1 1 0-8 4 4 0 0 1 0 8zm6-5h1a1 1 0 0 1 0 2h-1a1 1 0 0 1 0-2zm-6 6a1 1 0 0 1 1 1v1a1 1 0 0 1-2 0v-1a1 1 0 0 1 1-1zm0-13a1 1 0 0 1 1 1v1a1 1 0 1 1-2 0v-1a1 1 0 0 1 1-1zm-7 7h1a1 1 0 1 1 0 2H1a1 1 0 1 1 0-2zm11.95 4.535.707.708a1 1 0 1 1-1.414 1.414l-.707-.707a1 1 0 0 1 1.414-1.415zm-8.486 0a1 1 0 0 1 0 1.415l-.707.707A1 1 0 0 1 2.343 13.1l.707-.708a1 1 0 0 1 1.414 0zm9.193-9.192a1 1 0 0 1 0 1.414l-.707.707a1 1 0 0 1-1.414-1.414l.707-.707a1 1 0 0 1 1.414 0zm-9.9 0 .707.707A1 1 0 1 1 3.05 5.322l-.707-.707a1 1 0 0 1 1.414-1.414z"/></svg>