<svg xmlns="http://www.w3.org/2000/svg" viewBox="-2 -3 24 24" fill="currentColor"><path d="M6.816 11.556c-1.008.464-1.69 1.003-2.084 1.598a51.574 51.574 0 0 0-1.115 1.756c1.124.244 1.969.127 2.578-.281.852-.57 1.408-1.221 1.717-1.977l-1.096-1.096zm1.395-1.433 1.02 1.02c.742-.382 1.489-.987 2.234-1.832 1.139-1.29 3.061-3.588 5.757-6.88a.211.211 0 0 0-.297-.296c-3.286 2.693-5.583 4.615-6.881 5.758-.849.746-1.454 1.491-1.833 2.23zm-.903 6.168c-1.615 1.081-3.826.982-6.63-.298a58.148 58.148 0 0 1 2.387-3.945c.655-.987 1.712-1.794 3.17-2.422C6.72 8.5 7.55 7.423 8.722 6.39c1.32-1.162 3.632-3.096 6.936-5.803a2.21 2.21 0 0 1 3.111 3.111c-2.71 3.31-4.645 5.621-5.804 6.935-.978 1.108-2 1.911-3.067 2.408-.43 1.298-1.293 2.38-2.59 3.249z"/></svg>