<svg xmlns="http://www.w3.org/2000/svg" viewBox="-2 -2 24 24" fill="currentColor"><path d="M15.236 8h1.647V5a1 1 0 1 1 2 0v3a2 2 0 0 1-2 2H16v1h3a1 1 0 0 1 0 2h-3v1h.883a2 2 0 0 1 2 2v3a1 1 0 0 1-2 0v-3h-1.224A6.009 6.009 0 0 1 11 19.917V13a1 1 0 0 0-2 0v6.917A6.009 6.009 0 0 1 4.341 16H3v3a1 1 0 0 1-2 0v-3a2 2 0 0 1 2-2h1v-1H1a1 1 0 0 1 0-2h3v-1H3a2 2 0 0 1-2-2V5a1 1 0 1 1 2 0v3h1.764A3 3 0 0 1 6 7.17V5a2 2 0 0 1 2-2h.737c-.343-.598-.988-1-1.726-1H5a1 1 0 1 1 0-2h2.01A3.98 3.98 0 0 1 10 1.348 3.98 3.98 0 0 1 12.99 0H15a1 1 0 0 1 0 2h-2.01c-.74 0-1.384.402-1.727 1H12a2 2 0 0 1 2 2v2.17a3 3 0 0 1 1.236.83z"/></svg>