<svg xmlns="http://www.w3.org/2000/svg" viewBox="-5.5 -2 24 24" fill="currentColor"><path d="M3 0h7a3 3 0 0 1 3 3v17H0V3a3 3 0 0 1 3-3zM2 18h9V3a1 1 0 0 0-1-1H3a1 1 0 0 0-1 1v15zM4 4h1a1 1 0 1 1 0 2H4a1 1 0 1 1 0-2zm0 3h1a1 1 0 1 1 0 2H4a1 1 0 1 1 0-2zm0 3h1a1 1 0 0 1 0 2H4a1 1 0 0 1 0-2zm0 3h1a1 1 0 0 1 0 2H4a1 1 0 0 1 0-2zm4-9h1a1 1 0 1 1 0 2H8a1 1 0 1 1 0-2zm0 3h1a1 1 0 1 1 0 2H8a1 1 0 1 1 0-2zm0 3h1a1 1 0 0 1 0 2H8a1 1 0 0 1 0-2zm0 3h1a1 1 0 0 1 0 2H8a1 1 0 0 1 0-2zm-3 3h3a1 1 0 0 1 1 1v1H4v-1a1 1 0 0 1 1-1z"/></svg>