<svg xmlns="http://www.w3.org/2000/svg" viewBox="-2 -2 24 24" fill="currentColor"><path d="M10 18a8 8 0 1 0 0-16 8 8 0 0 0 0 16zm0 2C4.477 20 0 15.523 0 10S4.477 0 10 0s10 4.477 10 10-4.477 10-10 10z"/><path d="M10.402 5.131a.79.79 0 0 0-.887.01L5.54 7.91a.79.79 0 0 0-.339.648v2.982a.79.79 0 0 0 .355.659l4.039 2.67a.79.79 0 0 0 .87 0l4.12-2.722a.79.79 0 0 0 .354-.658v-2.93a.79.79 0 0 0-.354-.66l-4.184-2.768zm3.077 3.23-1.523 1.023-1.428-1.038-.009-2.043 2.96 2.059zM9.486 6.306v1.999L8.023 9.327l-1.46-.979 2.923-2.043zM6.164 9.333l.944.633-.944.661V9.333zm3.347 4.261-2.947-1.976 1.472-1.029 1.475.99v2.015zm-.56-3.644.955-.667 1.11.73-.984.662-1.08-.725zm1.601 3.644v-2.016l1.41-.944 1.517.997-2.927 1.963zm3.347-2.933-1-.657 1-.671v1.328z"/></svg>