<svg width="20" height="16" xmlns="http://www.w3.org/2000/svg" fill="currentColor"><path d="M12.736.064c.52.2.787.805.598 1.353L8.546 15.305c-.19.548-.763.83-1.282.631-.52-.2-.787-.805-.598-1.353L11.454.695c.19-.548.763-.83 1.282-.631ZM2.414 8.256 5.95 11.99c.39.412.39 1.08 0 1.492a.963.963 0 0 1-1.414 0L.293 9.003a1.098 1.098 0 0 1 0-1.493l4.243-4.48a.963.963 0 0 1 1.414 0 1.1 1.1 0 0 1 0 1.494L2.414 8.256Zm15.172 0L14.05 4.524a1.098 1.098 0 0 1 0-1.493.963.963 0 0 1 1.414 0l4.243 4.479c.39.412.39 1.08 0 1.493l-4.243 4.478a.963.963 0 0 1-1.414 0 1.098 1.098 0 0 1 0-1.492l3.536-3.733Z"/></svg>