<svg xmlns="http://www.w3.org/2000/svg" viewBox="-1 -2 24 24" fill="currentColor"><path d="M9.815 3.094a3.467 3.467 0 0 1-2.78-1.09l-.084-.001a3.467 3.467 0 0 1-2.781 1.09 3.477 3.477 0 0 1-1.727 2.51 3.471 3.471 0 0 1 0 2.794 3.477 3.477 0 0 1 1.727 2.51 3.467 3.467 0 0 1 2.78 1.09h.084a3.467 3.467 0 0 1 2.78-1.09 3.477 3.477 0 0 1 1.727-2.51 3.471 3.471 0 0 1 0-2.794 3.477 3.477 0 0 1-1.726-2.51zM14 5.714a1.474 1.474 0 0 0 0 2.572l-.502 1.684a1.473 1.473 0 0 0-1.553 2.14l-1.443 1.122A1.473 1.473 0 0 0 8.143 14l-2.304-.006a1.473 1.473 0 0 0-2.352-.765l-1.442-1.131A1.473 1.473 0 0 0 .5 9.968L0 8.278a1.474 1.474 0 0 0 0-2.555l.5-1.69a1.473 1.473 0 0 0 1.545-2.13L3.487.77A1.473 1.473 0 0 0 5.84.005L8.143 0a1.473 1.473 0 0 0 2.358.768l1.444 1.122a1.473 1.473 0 0 0 1.553 2.14L14 5.714zm-5.812 9.198a7.943 7.943 0 0 0 2.342-.73 3.468 3.468 0 0 1-.087.215 3.477 3.477 0 0 1 1.727 2.51 3.467 3.467 0 0 1 2.78 1.09h.084a3.467 3.467 0 0 1 2.78-1.09 3.477 3.477 0 0 1 1.727-2.51 3.471 3.471 0 0 1 0-2.794 3.477 3.477 0 0 1-1.726-2.51 3.467 3.467 0 0 1-2.78-1.09h-.084l-.015.016a8.077 8.077 0 0 0 .002-2.016L16.144 6a1.473 1.473 0 0 0 2.358.768l1.444 1.122a1.473 1.473 0 0 0 1.553 2.14L22 11.714a1.474 1.474 0 0 0 0 2.572l-.502 1.684a1.473 1.473 0 0 0-1.553 2.14l-1.443 1.122a1.473 1.473 0 0 0-2.359.768l-2.304-.006a1.473 1.473 0 0 0-2.352-.765l-1.442-1.131a1.473 1.473 0 0 0-1.545-2.13l-.312-1.056zM7 10a3 3 0 1 1 0-6 3 3 0 0 1 0 6zm0-2a1 1 0 1 0 0-2 1 1 0 0 0 0 2zm8 8a3 3 0 1 1 0-6 3 3 0 0 1 0 6zm0-2a1 1 0 1 0 0-2 1 1 0 0 0 0 2z"/></svg>