<svg width="20" height="20" xmlns="http://www.w3.org/2000/svg" fill="currentColor"><path d="M11 0a3 3 0 0 1 3 3v3h3a3 3 0 0 1 3 3v8a3 3 0 0 1-3 3H9a3 3 0 0 1-3-3v-3H3a3 3 0 0 1-3-3V3a3 3 0 0 1 3-3h8Zm-1 15a1 1 0 1 0 0 2 1 1 0 0 0 0-2Zm6 0a1 1 0 1 0 0 2 1 1 0 0 0 0-2Zm-3-3a1 1 0 1 0 0 2 1 1 0 0 0 0-2Zm-3-3a1 1 0 1 0 0 2 1 1 0 0 0 0-2Zm6 0a1 1 0 1 0 0 2 1 1 0 0 0 0-2ZM4.513 8.993a1 1 0 1 0 0 2 1 1 0 0 0 0-2Zm0-3a1 1 0 1 0 0 2 1 1 0 0 0 0-2Zm0-3a1 1 0 1 0 0 2 1 1 0 0 0 0-2Zm5 0a1 1 0 1 0 0 2 1 1 0 0 0 0-2Z"/></svg>