<svg width="20" height="14" xmlns="http://www.w3.org/2000/svg"><path d="M10,0.673631164 C10.9092554,0.241691045 11.9264027,0 13,0 C16.8659932,0 20,3.13400675 20,7 C20,10.8659932 16.8659932,14 13,14 C11.9264027,14 10.9092554,13.758309 10,13.3263688 C9.09074462,13.758309 8.07359729,14 7,14 C3.13400675,14 0,10.8659932 0,7 C0,3.13400675 3.13400675,0 7,0 C8.07359729,0 9.09074462,0.241691046 10,0.673631164 L10,0.673631164 Z M10,2.99963381 C8.7855533,3.91184014 8,5.36418217 8,7 C8,8.63581783 8.7855533,10.0881599 10,11.0003662 C11.2144467,10.0881599 12,8.63581783 12,7 C12,5.36418217 11.2144467,3.91184014 10,2.99963381 L10,2.99963381 Z"/></svg>
