<svg width="18" height="20" xmlns="http://www.w3.org/2000/svg" fill="currentColor"><path d="M15.45 0c1.118 0 2.031.901 2.05 2.025V20l-2.15-1.9-1.21-1.12-1.28-1.19.53 1.85H2.05A2.055 2.055 0 0 1 0 15.615V2.06C0 .932.901.019 2.015 0H15.45ZM7.32 4.78l-.1-.12h-.057c-.273.009-1.486.1-2.753 1.05l-.048.092c-.251.49-1.392 2.872-1.392 5.738l.02.033c.142.217 1.019 1.423 3.03 1.487l.295-.361.375-.469c-1.166-.349-1.666-1.051-1.74-1.164l-.01-.016.041.027c.045.03.127.08.239.143.01.01.02.02.04.03.03.02.06.03.09.05.25.14.5.25.73.34.41.16.9.32 1.47.43.729.136 1.58.187 2.508.025l.082-.015c.47-.08.95-.22 1.45-.43.35-.13.74-.32 1.15-.59l-.016.025c-.096.14-.62.833-1.794 1.165l.165.207c.253.314.495.603.495.603 2.21-.07 3.06-1.52 3.06-1.52 0-3.22-1.44-5.83-1.44-5.83-1.238-.929-2.425-1.037-2.733-1.049L10.4 4.66l-.14.16c1.508.461 2.3 1.103 2.46 1.243l.03.027a8.152 8.152 0 0 0-5.03-.94c-.06 0-.11.01-.17.02l-.056.005c-.38.039-1.197.179-2.214.625l-.145.068c-.182.086-.314.153-.385.19l-.06.032s.813-.774 2.576-1.294l.054-.016Zm-.38 3.61c.57 0 1.03.5 1.02 1.11 0 .61-.45 1.11-1.02 1.11-.56 0-1.02-.5-1.02-1.11 0-.61.45-1.11 1.02-1.11Zm3.65 0c.57 0 1.02.5 1.02 1.11 0 .61-.45 1.11-1.02 1.11-.56 0-1.02-.5-1.02-1.11 0-.61.45-1.11 1.02-1.11Z"/></svg>