<svg width="20" height="20" xmlns="http://www.w3.org/2000/svg"><path d="M10,0 C4.4794,0 0,4.4794 0,10 C0,15.5206 4.4794,20 10,20 C15.50976,20 20,15.5206 20,10 C20,4.4794 15.50976,0 10,0 Z M16.6052,4.60954 C17.79826,6.0629 18.5141,7.91758 18.5358,9.92408 C18.2538,9.86984 15.43384,9.29502 12.5922,9.65292 C12.52712,9.51194 12.47288,9.36008 12.40782,9.20824 C12.23428,8.7961 12.03904,8.3731 11.84382,7.9718 C14.98916,6.69198 16.42082,4.84816 16.6052,4.60954 Z M10,1.475054 C12.1692,1.475054 14.15402,2.2885 15.6616,3.62256 C15.50976,3.83948 14.21908,5.564 11.18222,6.70282 C9.78308,4.13232 8.2321,2.0282 7.9935,1.70282 C8.6334,1.550976 9.30586,1.475054 10,1.475054 Z M6.3666,2.27766 C6.59436,2.58134 8.1128,4.69632 9.53362,7.21258 C5.5423,8.27548 2.01736,8.25383331 1.637744,8.25383331 C2.19088,5.60738 3.98048,3.40564 6.3666,2.27766 Z M1.453362,10.01084 C1.453362,9.92408 1.453362,9.83732 1.453362,9.75054 C1.822126,9.76138 5.9653,9.81562 10.22776,8.5358 C10.47722,9.01302 10.70498,9.50108 10.9219,9.98916 C10.81344,10.0217 10.69414,10.05424 10.58568,10.08676 C6.18222,11.5076 3.83948,15.39046 3.64426,15.71584 C2.2885,14.20824 1.453362,12.20174 1.453362,10.01084 Z M10,18.54664 C8.02604,18.54664 6.2039,17.87418 4.76138,16.7462 C4.91324,16.43168 6.6486,13.0911 11.4642,11.40998 C11.4859,11.39914 11.49674,11.39914 11.51844,11.38828 C12.72234,14.50108 13.21042,17.11496 13.34056,17.86334 C12.3102,18.30802 11.18222,18.54664 10,18.54664 Z M14.7614,17.08244 C14.67462,16.56182 14.2191,14.06724 13.10196,10.99784 C15.78092,10.57484 18.12364,11.26898 18.41648,11.3666 C18.04772,13.74186 16.68112,15.79176 14.7614,17.08244 Z"/></svg>
