<svg xmlns="http://www.w3.org/2000/svg" viewBox="-2 -2 24 24" fill="currentColor"><path d="M10 18a8 8 0 1 0 0-16 8 8 0 0 0 0 16zm0 2C4.477 20 0 15.523 0 10S4.477 0 10 0s10 4.477 10 10-4.477 10-10 10z"/><path d="M12.194 6.827c-.512-.318-.996-.443-1.48-.762-.299-.202-.714-.683-1.063-1.098-.067.665-.27.936-.503 1.128-.492.385-.801.5-1.227.732-.358.183-2.3 1.339-2.3 3.825 0 2.485 2.097 4.315 4.426 4.315 2.33 0 4.351-1.685 4.351-4.238 0-2.554-1.895-3.71-2.204-3.902zm.04 7.169a2.111 2.111 0 0 1-1.016.404c-.522.048-1.228.077-1.653-.308-.067-.068-.049-.163 0-.202.048-.04.087-.068.145-.068.059 0 .048 0 .078.02.193.154.483.278 1.101.278.619 0 1.054-.172 1.247-.317.087-.068.126-.01.136.029.01.038.029.096-.039.164zm-1.676-.811c.106-.097.28-.251.445-.318.164-.068.25-.058.406-.058.154 0 .32.01.435.087.116.077.184.25.221.346.04.097 0 .154-.076.193-.067.038-.077.02-.145-.106-.067-.125-.126-.25-.464-.25s-.445.115-.609.25c-.164.135-.222.183-.28.106-.059-.077-.04-.154.067-.25zm3.489-1.837c0 .299-.096.838-.329 1.175-.231.338-.376.463-.648.444-.348-.03-1.044-1.108-1.488-1.128-.56-.02-1.779 1.167-2.736 1.167-.58 0-.754-.087-.947-.213-.29-.202-.435-.51-.426-.934.01-.752.715-1.455 1.605-1.464 1.13-.01 1.915 1.116 2.484 1.107.484-.009 1.412-.954 1.867-.954.483 0 .618.5.618.8z"/></svg>