<svg xmlns="http://www.w3.org/2000/svg" viewBox="-2 -7.5 24 24" fill="currentColor"><path d="M18.853 2.229 17.16 5.81l-1.7-3.583h-1.183l.303.598c-.4-.63-1.191-.79-1.914-.79-2.115 0-2.25 1.22-2.25 1.414h1.052s.055-.712 1.125-.712c.695 0 1.233.335 1.233.979v.23h-1.233c-1.368 0-2.196.351-2.433 1.063.024-.158.037-.322.037-.491 0-1.369-.876-2.469-2.356-2.469-1.386 0-1.817.788-1.817.788V.202H5.007v4.011c-.015-.871-.552-2.177-2.43-2.177C1.17 2.037 0 2.664 0 4.559c0 1.5.788 2.445 2.613 2.445 2.148 0 2.286-1.49 2.286-1.49H3.86s-.224.802-1.31.802c-.884 0-1.52-.629-1.52-1.51h3.979v1.246c0 .332-.023.799-.023.799h.993s.036-.335.036-.641c0 0 .49.808 1.824.808 1.138 0 1.98-.673 2.259-1.71-.005.054-.009.11-.009.168 0 1.007.8 1.555 1.882 1.555 1.474 0 1.949-.857 1.949-.857 0 .341.025.677.025.677h.935s-.036-.417-.036-.683V3.866c0-.309-.048-.566-.135-.782l1.897 3.746-.892 1.779h1.125l3.088-6.38h-1.073zM1.053 4.1c0-.864.749-1.356 1.487-1.356.842 0 1.416.543 1.416 1.356H1.053zM7.59 6.295c-1.018 0-1.567-.837-1.567-1.764 0-.864.492-1.755 1.56-1.755.954 0 1.56.745 1.56 1.745 0 1.072-.7 1.774-1.553 1.774zm6.235-1.354c0 .4-.234 1.39-1.61 1.39-.752 0-1.076-.396-1.076-.855 0-.835 1.088-.84 2.686-.84v.305z"/></svg>