<svg xmlns="http://www.w3.org/2000/svg" viewBox="-2 -2 24 24" fill="currentColor"><path d="M4 0h12a4 4 0 0 1 4 4v12a4 4 0 0 1-4 4H4a4 4 0 0 1-4-4V4a4 4 0 0 1 4-4zm0 2a2 2 0 0 0-2 2v12a2 2 0 0 0 2 2h12a2 2 0 0 0 2-2V4a2 2 0 0 0-2-2H4zm7.746 3.413 2.898 4.055c.646.905.389 2.13-.576 2.737a2.201 2.201 0 0 1-1.17.334H7.102c-1.16 0-2.102-.883-2.102-1.972 0-.391.124-.774.356-1.099l2.898-4.055c.647-.905 1.952-1.146 2.917-.54.227.143.422.327.575.54zm-4.644 5.154h5.796L10 6.512l-2.898 4.055zM6 13.539h8a1 1 0 0 1 0 2H6a1 1 0 1 1 0-2z"/></svg>