<svg xmlns="http://www.w3.org/2000/svg" viewBox="-2 -2 24 24" fill="currentColor"><path d="M9.329 11.885 2.12 19.092a1 1 0 1 1-1.414-1.414l7.324-7.324a2 2 0 0 1 2.322-2.322L17.679.706a1 1 0 0 1 1.414 1.414l-7.208 7.21a2 2 0 0 1-2.556 2.556zm7.54-6.127C18.75 6.842 20 8.34 20 10c0 3.314-4.958 5.993-10 6a14.734 14.734 0 0 1-3.053-.32l1.861-1.86a4 4 0 0 0 5.011-5.011l3.05-3.051zm-4.16-1.496-1.834 1.834a4 4 0 0 0-4.779 4.779L2.869 14.1C1.134 13.028 0 11.585 0 10c0-3.314 4.984-6.017 10-6 .914.003 1.827.094 2.709.262z"/></svg>