<svg xmlns="http://www.w3.org/2000/svg" viewBox="-2 -2 24 24" fill="currentColor"><path d="m14.043 8.509-2.516-2.842A1.933 1.933 0 0 0 10.08 5c-.867 0-1.604.594-1.882 1.425l-.671-.758A1.933 1.933 0 0 0 6.08 5c-1.104 0-2 .965-2 2.156v5.688c0 .575.213 1.125.591 1.53a1.9 1.9 0 0 0 2.829-.011l.706-.767c.1.29.258.556.465.778a1.9 1.9 0 0 0 2.829-.011l2.543-2.762V14a1 1 0 0 0 2 0V6a1 1 0 1 0-2 0v2.509zM10 20C4.477 20 0 15.523 0 10S4.477 0 10 0s10 4.477 10 10-4.477 10-10 10zm-4.268-7.13V7.181l2.137 2.413.004.949-2.141 2.325zm4.426 0V7.181l2.567 2.899-2.567 2.788z"/></svg>