<svg xmlns="http://www.w3.org/2000/svg" viewBox="-2 -1.5 24 24" fill="currentColor"><path d="M7.094 11.59a5.91 5.91 0 0 1 .346-.466 3.484 3.484 0 0 1-.406-1.637A3.501 3.501 0 0 1 7.01 4.54a3.5 3.5 0 0 1 3.473-3.472A3.49 3.49 0 0 1 13 0c.943 0 1.799.373 2.428.98a3.504 3.504 0 0 1 3.521 3.5A3.572 3.572 0 0 1 20 7c0 .95-.379 1.813-.994 2.443V9.5A3.5 3.5 0 0 1 15.45 13c-.631.618-1.496 1-2.45 1-.96 0-1.83-.387-2.463-1.013a3.49 3.49 0 0 1-1.68-.428 3.775 3.775 0 0 0 .127 4.623l1.79 2.184a1 1 0 1 1-1.547 1.268l-1.79-2.184a5.765 5.765 0 0 1-.964-1.692 3.213 3.213 0 0 1-3.404-.177c-.968-.679-1.795-2.861-2.48-6.547 3.142.177 5.197.605 6.166 1.283.12.085.234.176.34.274zm4.265-.604.586.58c.28.277.653.434 1.055.434.4 0 .77-.154 1.05-.429l.596-.584.835.013c.854 0 1.525-.671 1.525-1.5l-.013-.857.581-.596C17.847 7.767 18 7.398 18 7c0-.41-.163-.79-.45-1.072l-.606-.593.005-.847c0-.837-.671-1.509-1.5-1.509l-.823.005-.585-.564A1.488 1.488 0 0 0 13 2a1.49 1.49 0 0 0-1.079.458l-.583.603-.84.007A1.5 1.5 0 0 0 9.01 4.556l-.006.812-.571.578C8.156 6.226 8 6.598 8 7c0 .407.16.783.443 1.065l.592.587v.834a1.5 1.5 0 0 0 1.5 1.5h.824zM13 9a2 2 0 1 1 0-4 2 2 0 0 1 0 4zm-8.783 5.942a1.213 1.213 0 0 0 1.39-1.986c-.358-.251-1.198-.491-2.47-.674.42 1.566.826 2.483 1.08 2.66z"/></svg>