<svg xmlns="http://www.w3.org/2000/svg" viewBox="-2 -2 24 24" fill="currentColor"><path d="M4 0h12a4 4 0 0 1 4 4v12a4 4 0 0 1-4 4H4a4 4 0 0 1-4-4V4a4 4 0 0 1 4-4zm0 2a2 2 0 0 0-2 2v12a2 2 0 0 0 2 2h12a2 2 0 0 0 2-2V4a2 2 0 0 0-2-2H4zm5.027 11.246-1.956 1.398c-.905.646-2.13.389-2.737-.576A2.201 2.201 0 0 1 4 12.898V7.102C4 5.942 4.883 5 5.972 5c.391 0 .774.124 1.099.356l1.956 1.398C9.182 5.76 9.994 5 10.972 5c.391 0 .774.124 1.099.356l4.055 2.898c.905.647 1.146 1.952.54 2.917a2.042 2.042 0 0 1-.54.575l-4.055 2.898c-.905.646-2.13.389-2.737-.576a2.183 2.183 0 0 1-.307-.822zm1.945-6.144v5.796L15.027 10l-4.055-2.898zm-5 0v5.796l3.02-2.159.004-1.476-3.024-2.161z"/></svg>