<svg xmlns="http://www.w3.org/2000/svg" viewBox="-2 -3 24 24" fill="currentColor"><path d="M13.49 17.31a1.966 1.966 0 0 1-2.814.182A2.052 2.052 0 0 1 10 15.966V2.034C10 .911 10.893 0 11.994 0c.573 0 1.118.251 1.496.69l6.012 6.966c.664.768.664 1.92 0 2.688L13.49 17.31zM11.994 2.034v13.932L18.006 9l-6.012-6.966zM3.49 17.31a1.966 1.966 0 0 1-2.814.182A2.052 2.052 0 0 1 0 15.966V2.034C0 .911.893 0 1.994 0c.573 0 1.118.251 1.496.69l6.012 6.966c.664.768.664 1.92 0 2.688L3.49 17.31zM1.994 2.034v13.932L8.006 9 1.994 2.034z"/></svg>