<svg xmlns="http://www.w3.org/2000/svg" viewBox="-2 -2 24 24" fill="currentColor"><path d="M13.75 9.5V8.25h-.625V9.5h-1.25v.625h1.25v1.25h.625v-1.25H15V9.5zm-5.625 0v1.25h1.768A1.879 1.879 0 0 1 8.125 12a1.877 1.877 0 0 1-1.875-1.875c0-1.034.841-1.875 1.875-1.875.448 0 .88.16 1.214.453l.822-.943A3.097 3.097 0 0 0 8.125 7 3.129 3.129 0 0 0 5 10.125a3.129 3.129 0 0 0 3.125 3.125 3.129 3.129 0 0 0 3.125-3.125V9.5H8.125z"/><path d="M4 2a2 2 0 0 0-2 2v12a2 2 0 0 0 2 2h12a2 2 0 0 0 2-2V4a2 2 0 0 0-2-2H4zm0-2h12a4 4 0 0 1 4 4v12a4 4 0 0 1-4 4H4a4 4 0 0 1-4-4V4a4 4 0 0 1 4-4z"/></svg>