<svg xmlns="http://www.w3.org/2000/svg" viewBox="-4.5 -7 24 24" fill="currentColor"><path d="M2 4h4V1a1 1 0 1 1 2 0v8a1 1 0 1 1-2 0V6H2v3a1 1 0 1 1-2 0V1a1 1 0 1 1 2 0v3zm11.949 2.057c.43.44.651.999.651 1.64 0 .629-.228 1.18-.67 1.62-.442.437-.99.663-1.613.663a2.212 2.212 0 0 1-1.649-.693c-.43-.45-.652-.985-.652-1.58 0-.224.034-.449.1-.672.063-.211.664-1.627.837-1.966.251-.491.65-1.204 1.197-2.137l1.78.652-.917 1.88c.249.113.733.386.936.593zm-1.63.765a.85.85 0 0 0-.858.863.85.85 0 0 0 .252.613.865.865 0 0 0 1.48-.614.844.844 0 0 0-.25-.611.866.866 0 0 0-.623-.251z"/></svg>