<svg xmlns="http://www.w3.org/2000/svg" viewBox="-4.5 -7 24 24" fill="currentColor"><path d="M2 4h4V1a1 1 0 1 1 2 0v8a1 1 0 1 1-2 0V6H2v3a1 1 0 1 1-2 0V1a1 1 0 1 1 2 0v3zm12.88 4.352V10H10V8.986l.1-.246 1.785-1.913c.43-.435.793-.77.923-1.011.124-.23.182-.427.182-.587 0-.14-.04-.242-.127-.327a.469.469 0 0 0-.351-.127.443.443 0 0 0-.355.158c-.105.117-.165.288-.173.525l-.012.338h-1.824l.016-.366c.034-.735.272-1.33.718-1.77.446-.44 1.02-.66 1.703-.66.424 0 .805.091 1.14.275a2.1 2.1 0 0 1 .806.8c.198.343.3.7.3 1.063 0 .416-.23.849-.456 1.307-.222.45-.534.876-1.064 1.555l-.116.123-.254.229h1.938z"/></svg>