<svg xmlns="http://www.w3.org/2000/svg" viewBox="-4.5 -6.5 24 24" fill="currentColor"><path d="M2 4h4V1a1 1 0 1 1 2 0v8a1 1 0 1 1-2 0V6H2v3a1 1 0 1 1-2 0V1a1 1 0 1 1 2 0v3zm12.453 2.513.043.055c.254.334.38.728.38 1.172 0 .637-.239 1.187-.707 1.628-.466.439-1.06.658-1.763.658-.671 0-1.235-.209-1.671-.627-.436-.418-.673-.983-.713-1.676L10 7.353h1.803l.047.295c.038.238.112.397.215.49.1.091.23.137.402.137a.566.566 0 0 0 .422-.159.5.5 0 0 0 .158-.38c0-.163-.067-.295-.224-.419-.17-.134-.438-.21-.815-.215l-.345-.004v-1.17l.345-.004c.377-.004.646-.08.815-.215.157-.124.224-.255.224-.418a.5.5 0 0 0-.158-.381.566.566 0 0 0-.422-.159.568.568 0 0 0-.402.138c-.103.092-.177.251-.215.489l-.047.295H10l.022-.37c.04-.693.277-1.258.713-1.675.436-.419 1-.628 1.67-.628.704 0 1.298.22 1.764.658.468.441.708.991.708 1.629a1.892 1.892 0 0 1-.424 1.226z"/></svg>