<svg xmlns="http://www.w3.org/2000/svg" viewBox="-3.5 -1 24 24" fill="currentColor"><path d="M3.237 15.747a8.564 8.564 0 0 0-1.17 4.324 1 1 0 1 1-2 0c0-2.123.637-4.163 1.785-5.879a7.002 7.002 0 0 1 .062-7.738C3.356 4.317 8.08 2.433 16.084.801c-.268 6.851-1.122 11.345-2.563 13.482a7 7 0 0 1-10.284 1.464zm1.206-1.6a5 5 0 0 0 7.42-.984c1.004-1.488 1.737-4.815 2.084-9.85C8.004 4.7 4.484 6.222 3.572 7.573a4.998 4.998 0 0 0-.357 4.972c.43-.423.897-.811 1.4-1.16l.508-.352a1 1 0 0 1 1.139 1.644l-.507.352a8.565 8.565 0 0 0-1.312 1.119z"/></svg>