<svg width="24" height="24" viewBox="0 0 24 24" fill="currentColor" xmlns="http://www.w3.org/2000/svg"><path d="M16 16H13V8C13 7.73478 12.8946 7.54543 12.7071 7.35789C12.5196 7.17036 12.2652 7.065 12 7.065C11.7348 7.065 11.4804 7.17036 11.2929 7.35789C11.1054 7.54543 11 7.73478 11 8V16H8V14.81C6.77702 13.9584 5.85772 12.7388 5.37592 11.3285C4.89412 9.9183 4.87496 8.39112 5.32123 6.96924C5.7675 5.54737 6.6559 4.30503 7.85714 3.42304C9.05837 2.54104 10.5097 2 12 2C13.4903 2 14.9416 2.54104 16.1429 3.42304C17.3441 4.30503 18.2325 5.54737 18.6788 6.96924C19.125 8.39112 19.1059 9.9183 18.6241 11.3285C18.1423 12.7388 17.223 13.9584 16 14.81V16ZM16 18V20.065C16 20.5954 15.7893 21.1041 15.4142 21.4792C15.0391 21.8543 14.5304 22 14 22H10C9.46957 22 8.96086 21.8543 8.58579 21.4792C8.21071 21.1041 8 20.5954 8 20.065V18H16Z"/></svg>
