<svg xmlns="http://www.w3.org/2000/svg" viewBox="-2 -2.5 24 24" fill="currentColor"><path d="M19.914 9.003a6.741 6.741 0 0 1-.764 2.2c-.179.324-1.056 1.558-1.325 1.884-1.478 1.788-3.953 3.851-8.092 5.857a.545.545 0 0 1-.78-.552l.21-1.885a.545.545 0 0 0-.483-.604C3.781 15.388 0 12.04 0 7.986 0 3.576 4.476 0 9.997 0c5.366 0 9.744 3.377 9.987 7.615.007.123.026.516.01.78-.011.16-.034.365-.08.608zm-15.414.6V6.24a.512.512 0 1 0-1.023 0v3.877c0 .284.23.514.512.514h2.045a.512.512 0 0 0 0-1.027H4.5zm3.154 1.028a.4.4 0 0 0 .4-.401V6.128a.4.4 0 0 0-.4-.402h-.223a.4.4 0 0 0-.4.402v4.102a.4.4 0 0 0 .4.4h.223zm4.133-4.391v2.369s-2.042-2.676-2.074-2.71a.508.508 0 0 0-.4-.172.527.527 0 0 0-.492.534v3.856a.512.512 0 1 0 1.023 0V7.763s2.073 2.698 2.104 2.727c.09.086.211.14.346.14.284.003.516-.249.516-.534V6.24a.512.512 0 1 0-1.023 0zm4.858 0a.512.512 0 0 0-.512-.514h-2.045a.512.512 0 0 0-.511.514v3.877c0 .284.229.514.511.514h2.045a.512.512 0 0 0 0-1.027H14.6v-.912h1.534a.512.512 0 0 0 0-1.027H14.6v-.912h1.534c.283 0 .512-.23.512-.513z"/></svg>