<svg xmlns="http://www.w3.org/2000/svg" viewBox="-4 -2 24 24" fill="currentColor"><path d="M8 4a1 1 0 1 0 0-2 1 1 0 0 0 0 2zM7 5.83a3.001 3.001 0 1 1 2.033-.013v2.028c0 .074-.003.148-.008.221a1 1 0 0 0 .462.637l3.086 1.846a3 3 0 0 1 1.46 2.575v1.059a3.001 3.001 0 1 1-2-.024v-1.035a1 1 0 0 0-.487-.858L8.46 10.42a3 3 0 0 1-.444-.324 3 3 0 0 1-.443.324l-3.086 1.846a1 1 0 0 0-.487.858v1.047a3.001 3.001 0 1 1-2 0v-1.047a3 3 0 0 1 1.46-2.575l3.086-1.846a1 1 0 0 0 .462-.637A3.006 3.006 0 0 1 7 7.845V5.829zM3 18a1 1 0 1 0 0-2 1 1 0 0 0 0 2zm10 0a1 1 0 1 0 0-2 1 1 0 0 0 0 2z"/></svg>