<svg xmlns="http://www.w3.org/2000/svg" viewBox="-2 -2.5 24 24" fill="currentColor"><path d="M3.656 17.979A1 1 0 0 1 2 17.243V15a2 2 0 0 1-2-2V6a2 2 0 0 1 2-2h11a2 2 0 0 1 2 2v7a2 2 0 0 1-2 2H8.003l-4.347 2.979zm.844-3.093a.536.536 0 0 0 .26-.069l2.355-1.638A1 1 0 0 1 7.686 13H12a1 1 0 0 0 1-1V7a1 1 0 0 0-1-1H3a1 1 0 0 0-1 1v5c0 .54.429.982 1 1 .41.016.707.083.844.226.128.134.135.36.156.79.003.063.003.177 0 .37a.5.5 0 0 0 .5.5zm11.5-4.87a7.136 7.136 0 0 0 0 .37v-.37c.02-.43.028-.656.156-.79.137-.143.434-.21.844-.226.571-.018 1-.46 1-1V3a1 1 0 0 0-1-1H8a1 1 0 0 0-1 1H5V2a2 2 0 0 1 2-2h11a2 2 0 0 1 2 2v7a2 2 0 0 1-2 2v2.243a1 1 0 0 1-1.656.736L16 13.743v-3.726z"/></svg>