<svg xmlns="http://www.w3.org/2000/svg" viewBox="-2 -2 24 24" fill="currentColor"><path d="M12.07 13.98a5.858 5.858 0 0 1-2.002 1.243 5.254 5.254 0 0 1-2.002-1.243h4.005"/><path d="M3.99 2.87C5.49 1.15 7.636.078 10.067.078c2.432 0 4.577 1.071 6.08 2.792a8.466 8.466 0 0 1 2.002-.306v2.811a3.921 3.921 0 0 1 1.716 3.232 3.887 3.887 0 0 1-1.716 3.213l-.072.076c-.429 4.13-3.861 7.304-8.01 7.304-4.22 0-7.652-3.232-8.081-7.38A3.913 3.913 0 0 1 .27 8.606c0-1.358.715-2.563 1.717-3.213v-2.83c.715.02 1.359.134 2.002.306zm2.36 2.983a6.657 6.657 0 0 0-2.79-1.472v6.578c0 3.671 2.933 6.616 6.508 6.616 3.576 0 6.437-2.945 6.437-6.636V4.381a7.08 7.08 0 0 0-2.717 1.472 6.396 6.396 0 0 0-3.72-1.204c-1.359 0-2.646.44-3.718 1.204zm0-1.912c1.144-.593 2.36-.937 3.718-.937 1.36 0 2.575.344 3.72.937.214-.172.5-.325.786-.478-1.144-1.128-2.79-1.817-4.506-1.817-1.716 0-3.361.689-4.506 1.836.215.115.573.287.788.46z"/><path d="M12.07 10.959c1.074-.134 2.933-.115 2.933-.115-.071.344 0 1.32-1.072 1.931-.143.096-.573.248-1.001.268-1.002.038-2.432.057-2.432.057.286-1.166.643-2.046 1.573-2.141m-4.005 0c.858.095 1.287.975 1.573 2.141 0 0-1.43-.02-2.431-.057-.43-.02-.858-.173-1.002-.268-1.073-.612-1-1.587-1.073-1.931 0 0 1.86-.02 2.933.115m3.862 5.258c-.5.344-1.144.536-1.86.536a3.686 3.686 0 0 1-1.93-.536s.07-.21.142-.383c.143-.21.286-.267.286-.267a5.44 5.44 0 0 0 1.502.21c.5 0 1.001-.077 1.502-.21 0 0 .143.076.286.306.072.191.072.344.072.344"/></svg>