<svg xmlns="http://www.w3.org/2000/svg" viewBox="-2 -2 24 24" fill="currentColor"><path d="M10 18a8 8 0 1 0 0-16 8 8 0 0 0 0 16zm0 2C4.477 20 0 15.523 0 10S4.477 0 10 0s10 4.477 10 10-4.477 10-10 10z"/><path d="M11.035 11.99a2.929 2.929 0 0 1-1 .621 2.627 2.627 0 0 1-1.002-.621h2.002"/><path d="M6.995 6.435a4.003 4.003 0 0 1 3.04-1.396c1.215 0 2.288.536 3.039 1.396a4.233 4.233 0 0 1 1.001-.153v1.406c.5.334.858.936.858 1.615 0 .68-.358 1.272-.858 1.607l-.036.038c-.214 2.065-1.93 3.652-4.005 3.652-2.11 0-3.826-1.616-4.04-3.69a1.93 1.93 0 0 1 0-3.213V6.282c.357.01.679.067 1 .153zm1.18 1.492A3.329 3.329 0 0 0 6.78 7.19v3.29c0 1.835 1.466 3.307 3.254 3.307s3.219-1.472 3.219-3.317V7.19a3.54 3.54 0 0 0-1.36.737 3.198 3.198 0 0 0-1.859-.603c-.68 0-1.323.22-1.86.603zm0-.956a3.966 3.966 0 0 1 1.86-.47c.679 0 1.286.173 1.859.47a2.62 2.62 0 0 1 .393-.24 3.238 3.238 0 0 0-2.253-.908c-.858 0-1.68.344-2.253.918.108.057.286.143.394.23z"/><path d="M11.035 10.48c.537-.068 1.467-.058 1.467-.058-.036.172 0 .66-.537.966a1.188 1.188 0 0 1-.5.133c-.5.02-1.216.03-1.216.03.143-.584.321-1.024.786-1.072m-2.002.001c.43.047.644.487.787 1.07 0 0-.716-.01-1.216-.029a1.187 1.187 0 0 1-.5-.134c-.537-.306-.501-.793-.537-.965 0 0 .93-.01 1.466.057m1.931 2.63c-.25.172-.572.267-.93.267a1.84 1.84 0 0 1-.965-.267s.035-.106.071-.192a.363.363 0 0 1 .143-.134 2.708 2.708 0 0 0 1.502 0s.072.039.143.153a.545.545 0 0 1 .036.173"/></svg>