<svg xmlns="http://www.w3.org/2000/svg" viewBox="-4 -2 24 24" fill="currentColor"><path d="M3 0h10a3 3 0 0 1 3 3v14a3 3 0 0 1-3 3H3a3 3 0 0 1-3-3V3a3 3 0 0 1 3-3zm0 2a1 1 0 0 0-1 1v14a1 1 0 0 0 1 1h10a1 1 0 0 0 1-1V3a1 1 0 0 0-1-1H3zm2 13h2a1 1 0 0 1 0 2H5a1 1 0 0 1 0-2zm6-12a1 1 0 1 1 0 2 1 1 0 0 1 0-2zm0 3a1 1 0 1 1 0 2 1 1 0 0 1 0-2zm-6 6h6a1 1 0 0 1 0 2H5a1 1 0 0 1 0-2zm0-3h6a1 1 0 0 1 0 2H5a1 1 0 0 1 0-2zm.5-6h2A1.5 1.5 0 0 1 9 4.5v2A1.5 1.5 0 0 1 7.5 8h-2A1.5 1.5 0 0 1 4 6.5v-2A1.5 1.5 0 0 1 5.5 3z"/></svg>