<svg xmlns="http://www.w3.org/2000/svg" viewBox="-6 -2 24 24" fill="currentColor"><path d="M4.974 14.011c-1.531-.16-2.912-.54-4.094-1.471-.147-.116-.299-.228-.432-.357-.518-.5-.57-1.074-.16-1.664.35-.506.938-.641 1.549-.35.118.055.23.126.339.201 2.203 1.524 5.23 1.566 7.441.069.22-.17.454-.308.725-.378.528-.136 1.02.059 1.303.524.324.53.32 1.05-.079 1.461-.611.633-1.347 1.09-2.164 1.409-.773.302-1.62.454-2.457.554.126.139.186.207.265.287 1.137 1.15 2.28 2.297 3.414 3.451.386.394.467.881.254 1.339-.233.5-.753.829-1.264.794-.323-.023-.575-.185-.8-.412-.858-.87-1.732-1.724-2.573-2.61-.245-.258-.363-.209-.579.015-.863.895-1.74 1.776-2.624 2.653-.396.393-.868.464-1.328.24-.488-.24-.8-.741-.775-1.246.016-.342.183-.602.416-.836 1.126-1.132 2.248-2.267 3.371-3.4.074-.076.144-.156.252-.273z"/><path d="M5.907 10.069C3.175 10.059.935 7.779.95 5.023.966 2.237 3.208-.007 5.967 0c2.764.007 4.983 2.285 4.97 5.1-.015 2.75-2.27 4.978-5.03 4.969zm2.483-5.04a2.444 2.444 0 0 0-2.443-2.458A2.447 2.447 0 0 0 3.498 5.06 2.443 2.443 0 0 0 5.96 7.5a2.439 2.439 0 0 0 2.43-2.47z"/></svg>