<svg xmlns="http://www.w3.org/2000/svg" viewBox="-2 -2 24 24" fill="currentColor"><path d="M10 18a8 8 0 1 0 0-16 8 8 0 0 0 0 16zm0 2C4.477 20 0 15.523 0 10S4.477 0 10 0s10 4.477 10 10-4.477 10-10 10z"/><path d="M12.713 5.787c-.749-.506-1.676-.786-2.721-.786-.956 0-1.813.233-2.526.66C6.093 6.476 5.248 8 5.248 9.953 5.248 12.594 7.145 15 9.991 15s4.742-2.406 4.742-5.048c0-1.857-.764-3.326-2.02-4.166zm-2.721.147c1.526 0 1.896 2.095 1.896 3.997 0 1.764-.232 4.123-1.878 4.123S8.092 11.672 8.092 9.91c0-1.903.373-3.975 1.9-3.975z"/></svg>