<svg xmlns="http://www.w3.org/2000/svg" viewBox="-4 -2 24 24" fill="currentColor"><path d="m4.328 16.127-.011.07a.899.899 0 0 1-.887.744H.9a.892.892 0 0 1-.88-1.04L2.57.745A.892.892 0 0 1 3.45 0h6.92a4.141 4.141 0 0 1 4.142 4.141c0 .273-.017.54-.05.804a3.629 3.629 0 0 1 1.53 2.962 5.722 5.722 0 0 1-5.72 5.722h-.583a1.34 1.34 0 0 0-1.32 1.117l-.314 1.87.314-1.87a1.339 1.339 0 0 1 1.32-1.117h.582a5.722 5.722 0 0 0 5.722-5.722 3.629 3.629 0 0 0-1.53-2.962 6.52 6.52 0 0 1-6.47 5.716H6.06a.969.969 0 0 0-.93.701l-1.155 6.862c-.08.48.289.916.775.916h2.214a.786.786 0 0 0 .775-.655l.315-1.87-.315 1.87a.786.786 0 0 1-.775.655H4.751a.782.782 0 0 1-.6-.278.782.782 0 0 1-.175-.638l.352-2.097z"/><path d="M15.45 5.995c.365.567.578 1.242.578 1.967a5.722 5.722 0 0 1-5.722 5.722h-.581c-.654 0-1.212.472-1.32 1.117l-.63 3.739a.786.786 0 0 1-.774.655H4.973l1.15-6.833c.118-.41.495-.7.93-.7h1.932a6.52 6.52 0 0 0 6.464-5.667zm-10.477 13.2h-.187a.786.786 0 0 1-.775-.916l.057-.338h.355a.899.899 0 0 0 .886-.743l.012-.07-.348 2.067z"/></svg>