<svg xmlns="http://www.w3.org/2000/svg" viewBox="-2 -2 24 24" fill="currentColor"><path d="m8.252 13.405-.006.036a.468.468 0 0 1-.462.388h-1.32a.465.465 0 0 1-.457-.542l1.329-7.9A.465.465 0 0 1 7.794 5H11.4c1.192 0 2.158.966 2.158 2.158 0 .142-.009.282-.026.42.483.342.798.906.798 1.543a2.982 2.982 0 0 1-2.982 2.982h-.303a.698.698 0 0 0-.688.582l-.164.974.164-.974a.698.698 0 0 1 .688-.582h.303a2.982 2.982 0 0 0 2.982-2.982c0-.637-.315-1.2-.798-1.544a3.398 3.398 0 0 1-3.372 2.98H9.155a.505.505 0 0 0-.485.364l-.602 3.576a.41.41 0 0 0 .404.478h1.154c.2 0 .37-.145.404-.342l.164-.974-.164.974a.41.41 0 0 1-.404.342H8.472a.408.408 0 0 1-.404-.478l.184-1.092z"/><path d="M13.967 8c.19.295.301.647.301 1.025a2.982 2.982 0 0 1-2.981 2.982h-.304a.698.698 0 0 0-.688.582l-.327 1.949a.41.41 0 0 1-.404.341H8.507l.6-3.56a.505.505 0 0 1 .484-.366h1.007A3.398 3.398 0 0 0 13.967 8zm-5.46 6.88H8.41a.41.41 0 0 1-.404-.478l.03-.176h.185a.468.468 0 0 0 .461-.388l.007-.036-.182 1.077z"/><path d="M10 18a8 8 0 1 0 0-16 8 8 0 0 0 0 16zm0 2C4.477 20 0 15.523 0 10S4.477 0 10 0s10 4.477 10 10-4.477 10-10 10z"/></svg>