<svg xmlns="http://www.w3.org/2000/svg" viewBox="-3 -2.5 24 24" fill="currentColor"><path d="M12 4.1a.973.973 0 0 1-.617-.898c0-.536.448-.972 1-.972.116 0 .228.02.332.055.001-.003.002-.004.004-.003C15.834 3.658 18 6.708 18 10.252 18 15.082 13.97 19 9 19s-9-3.917-9-8.749C0 6.732 2.137 3.7 5.218 2.31a1.022 1.022 0 0 1 .392-.076c.552 0 1 .435 1 .971a.972.972 0 0 1-.61.896c-2.365 1.092-4 3.436-4 6.15 0 3.758 3.134 6.805 7 6.805s7-3.047 7-6.805c0-2.714-1.635-5.058-4-6.15zM9 0a1 1 0 0 1 1 1v6a1 1 0 1 1-2 0V1a1 1 0 0 1 1-1z"/></svg>