<svg xmlns="http://www.w3.org/2000/svg" viewBox="-2 -2 24 24" fill="currentColor"><path d="M14.07 12.847s-.049.718-.696.718c-.5 0-.841-.385-1.16-.884a4.417 4.417 0 0 0 1.483-3.325C13.697 6.95 11.821 5 9.507 5c-2.314 0-4.19 1.95-4.19 4.356 0 2.405 1.876 4.356 4.19 4.356.42 0 .826-.065 1.208-.184.484.775 1.098 1.472 2.06 1.472 1.958 0 2.039-2.153 2.039-2.153h-.744zm-4.563.147c-1.35 0-2.443-1.629-2.443-3.638 0-2.01 1.094-3.638 2.443-3.638 1.35 0 2.443 1.629 2.443 3.638 0 .799-.173 1.537-.466 2.138-.331-.477-.729-.883-1.297-1.013-1.009-.229-1.877.229-2.152.457l.259.539s.261-.152.91 0c.41.095.727.667 1.09 1.323a1.73 1.73 0 0 1-.787.194z"/><path d="M4 2a2 2 0 0 0-2 2v12a2 2 0 0 0 2 2h12a2 2 0 0 0 2-2V4a2 2 0 0 0-2-2H4zm0-2h12a4 4 0 0 1 4 4v12a4 4 0 0 1-4 4H4a4 4 0 0 1-4-4V4a4 4 0 0 1 4-4z"/></svg>