<svg xmlns="http://www.w3.org/2000/svg" viewBox="-2 -3 24 24" fill="currentColor"><path d="M19.986 8.029a2.51 2.51 0 0 0-4.285-1.771c-1.404-.906-3.197-1.483-5.166-1.573a2.734 2.734 0 0 1 1.028-2.139 2.735 2.735 0 0 1 2.315-.539l.112.025c0 .028-.004.056-.004.084a2.095 2.095 0 1 0 .328-1.121L14.113.95a3.812 3.812 0 0 0-3.228.752 3.812 3.812 0 0 0-1.433 2.983c-1.97.09-3.762.667-5.165 1.572a2.51 2.51 0 1 0-2.94 3.994c-.061.31-.093.628-.093.952 0 3.606 3.912 6.53 8.74 6.53 4.826 0 8.739-2.924 8.739-6.53 0-.324-.032-.641-.093-.952a2.508 2.508 0 0 0 1.346-2.222zm-3.905-6.925a1.013 1.013 0 0 1 0 2.025 1.013 1.013 0 0 1 0-2.025zM1.083 8.03c0-.787.64-1.427 1.427-1.427.337 0 .646.118.89.314-.763.655-1.354 1.425-1.721 2.27a1.423 1.423 0 0 1-.596-1.157zm14.442 6.923c-1.465 1.095-3.43 1.698-5.532 1.698s-4.067-.603-5.531-1.698c-1.37-1.023-2.125-2.355-2.125-3.75 0-1.394.754-2.725 2.125-3.75C5.926 6.359 7.89 5.757 9.993 5.757c2.103 0 4.067.602 5.532 1.697 1.37 1.024 2.125 2.355 2.125 3.75 0 1.394-.755 2.726-2.125 3.75zm2.782-5.767c-.367-.845-.958-1.614-1.721-2.269.244-.196.554-.314.89-.314.787 0 1.427.64 1.427 1.427 0 .476-.235.898-.596 1.156z"/><circle cx="6.801" cy="9.678" r="1.143"/><circle cx="13.185" cy="9.678" r="1.143"/><path d="M12.701 12.455a4.357 4.357 0 0 1-2.94 1.138 4.325 4.325 0 0 1-3.195-1.39.541.541 0 1 0-.793.738 5.47 5.47 0 0 0 3.988 1.735 5.437 5.437 0 0 0 3.67-1.421.541.541 0 1 0-.73-.8z"/></svg>