<svg xmlns="http://www.w3.org/2000/svg" viewBox="-2.5 -2.5 24 24" fill="currentColor"><path d="M7.21 16.067a6.687 6.687 0 0 1-.664.772c-1.172 1.171-2.94 1.525-5.303 1.06-.465-2.363-.111-4.131 1.06-5.303.247-.247.506-.468.772-.663a8.975 8.975 0 0 0-2.599-.81A5.974 5.974 0 0 1 1.95 8.707a5.977 5.977 0 0 1 3.81-1.742 13.637 13.637 0 0 1 2.2-2.854c3.32-3.32 7.593-4.428 9.546-2.475 1.953 1.953.845 6.227-2.475 9.546a13.637 13.637 0 0 1-2.854 2.2 5.977 5.977 0 0 1-1.742 3.81 5.96 5.96 0 0 1-2.416 1.474 8.975 8.975 0 0 0-.81-2.599zM13.262 5.88a1 1 0 1 0 1.415-1.415 1 1 0 0 0-1.415 1.415zm-7.778 7.778c-.109-.11-.286-.277-.53-.503-.432.15-.944.574-1.414 1.033-.371.363-.497.973-.5 1.92.946-.004 1.62-.22 1.914-.506.471-.459.89-.917 1.04-1.35-.112-.194-.346-.43-.51-.594z"/></svg>