<svg xmlns="http://www.w3.org/2000/svg" viewBox="-2.5 -2.5 24 24" fill="currentColor"><path d="M9.107 10.554 7.363 12.63a3.993 3.993 0 0 1-.192 4.89 4.004 4.004 0 0 1-5.635.492 3.991 3.991 0 0 1-.493-5.628 4.005 4.005 0 0 1 4.788-1.038L7.801 9 2.413 2.587a.998.998 0 0 1 .123-1.407 1 1 0 0 1 1.409.123l5.162 6.144 5.161-6.144a1 1 0 0 1 1.41-.123.998.998 0 0 1 .123 1.407L10.412 9l1.97 2.345a4.005 4.005 0 0 1 4.788 1.038 3.991 3.991 0 0 1-.493 5.628 4.004 4.004 0 0 1-5.635-.492 3.993 3.993 0 0 1-.192-4.89l-1.743-2.075zm-6.285 5.927a2 2 0 0 0 2.571-3.06 2.002 2.002 0 0 0-2.818.246c-.71.845-.6 2.105.247 2.814zm12.57 0a1.996 1.996 0 0 0 .246-2.814 2.002 2.002 0 0 0-2.817-.246 1.996 1.996 0 0 0-.247 2.814c.71.845 1.972.955 2.818.246z"/></svg>