<svg xmlns="http://www.w3.org/2000/svg" viewBox="-3 -2 24 24" fill="currentColor"><path d="M12.338 2.395a.228.228 0 0 1 .032.027l1.18 1.171 1.6.12c.073.006.16.061.174.161l2.172 14.693-6.148 1.33L0 17.771S1.456 6.509 1.511 6.11c.073-.524.091-.541.648-.716l1.796-.557C4.339 3.208 5.565 0 8.13 0c.335 0 .723.18 1.037.594L9.26.591c1.101 0 1.727.939 2.082 1.96l.595-.184c.08-.024.278-.056.4.028zM9.261 7.11s-.513-.297-1.55-.297c-2.692 0-4.026 1.798-4.026 3.656 0 2.208 2.203 2.268 2.203 3.611 0 .325-.23.77-.795.77-.864 0-1.888-.88-1.888-.88l-.521 1.724s.996 1.212 2.944 1.212c1.623 0 2.827-1.222 2.827-3.12 0-2.413-2.685-2.807-2.685-3.837 0-.19.06-.938 1.254-.938a3.49 3.49 0 0 1 1.478.354l.759-2.255zm1.455-4.366c-.243-.743-.621-1.389-1.189-1.46.141.405.23.916.23 1.55l-.001.208.96-.298zM8.823 1.41c-.626.268-1.342.98-1.723 2.454l1.983-.614v-.111c0-.766-.102-1.334-.26-1.73zM8.061.688c-1.844 0-2.879 2.42-3.315 3.905l1.567-.486C6.686 2.161 7.567 1.187 8.39.8a.58.58 0 0 0-.33-.11z"/></svg>