<svg xmlns="http://www.w3.org/2000/svg" viewBox="-2 -2 24 24" fill="currentColor"><path d="M19.126 11.425A9.26 9.26 0 0 0 8.534.834 5.596 5.596 0 0 0 .833 8.535a9.259 9.259 0 0 0 10.591 10.592c.854.525 1.86.831 2.939.831a5.596 5.596 0 0 0 4.763-8.534zm-4.75 2.766c-.392.564-.967 1.004-1.72 1.321-.753.318-1.643.476-2.672.476-1.232 0-2.253-.216-3.058-.651a3.964 3.964 0 0 1-1.393-1.252c-.357-.522-.539-1.034-.539-1.532 0-.294.112-.55.33-.759.221-.21.505-.315.84-.315.275 0 .511.083.704.247.19.164.35.402.481.716.157.365.327.67.508.912.18.24.434.44.762.597.325.157.757.236 1.297.236.74 0 1.338-.16 1.796-.476.46-.318.68-.706.68-1.174 0-.374-.118-.67-.363-.902-.246-.234-.564-.413-.96-.537a16.93 16.93 0 0 0-1.596-.4c-.896-.196-1.645-.423-2.252-.685-.607-.262-1.091-.62-1.45-1.074-.36-.457-.539-1.026-.539-1.7 0-.642.19-1.216.568-1.716.379-.501.927-.885 1.64-1.152.712-.267 1.55-.4 2.51-.4.768 0 1.432.088 1.994.265.56.178 1.027.413 1.4.707.372.295.645.605.818.93.173.327.26.646.26.957 0 .29-.112.552-.33.782-.22.23-.499.347-.825.346-.294 0-.525-.068-.685-.211-.156-.14-.32-.36-.497-.67-.224-.43-.492-.765-.804-1.005-.304-.235-.805-.358-1.502-.356-.645 0-1.16.131-1.55.39-.392.261-.58.565-.58.92 0 .224.065.412.194.573.13.162.313.303.547.421.235.12.473.214.713.28.242.07.645.169 1.204.3.701.152 1.337.32 1.909.504.57.185 1.057.408 1.46.674.404.265.721.603.947 1.011.228.409.342.908.342 1.495 0 .708-.196 1.344-.59 1.907z"/></svg>