<svg xmlns="http://www.w3.org/2000/svg" viewBox="-2 -2 24 24" fill="currentColor"><path d="M19.874 10.725a1.777 1.777 0 0 0-2.24-1.143l-1.792.583-1.217-3.75 1.792-.583a1.782 1.782 0 0 0-1.1-3.39l-1.79.585-.583-1.795a1.776 1.776 0 0 0-2.24-1.144 1.782 1.782 0 0 0-1.141 2.245l.582 1.795-3.742 1.219C6.05 4.255 5.82 3.552 5.82 3.552a1.777 1.777 0 0 0-2.24-1.144 1.78 1.78 0 0 0-1.142 2.244l.583 1.796-1.85.602A1.781 1.781 0 0 0 .07 9.218c.272.945 1.274 1.521 2.2 1.22l1.85-.603 1.216 3.75-1.849.603a1.784 1.784 0 0 0-1.103 2.167c.272.945 1.274 1.523 2.2 1.22.008-.002.736-.238 1.851-.602l.601 1.852A1.779 1.779 0 0 0 9.2 19.93c.943-.272 1.52-1.276 1.217-2.205l-.6-1.852 3.743-1.219.601 1.853a1.779 1.779 0 0 0 2.163 1.105c.944-.273 1.52-1.277 1.218-2.205l-.601-1.853a8515.1 8515.1 0 0 1 1.791-.584 1.783 1.783 0 0 0 1.142-2.245zm-11.156 1.76-1.216-3.75 3.742-1.218 1.217 3.75-3.743 1.218z"/></svg>