<svg xmlns="http://www.w3.org/2000/svg" viewBox="-2 -2 24 24" fill="currentColor"><path d="M14.956 10.362a.89.89 0 0 0-1.122-.571l-.898.291c-.198-.612-.41-1.263-.61-1.875l.898-.291a.89.89 0 1 0-.55-1.695l-.898.292-.292-.897a.89.89 0 1 0-1.693.55l.292.898-1.875.61-.292-.898a.89.89 0 0 0-1.694.55l.292.898-.926.301a.89.89 0 0 0-.553 1.084c.136.472.638.76 1.103.61l.926-.302.61 1.875-.927.302a.891.891 0 0 0-.553 1.083c.137.473.639.762 1.103.61.004 0 .368-.119.927-.3l.301.925a.891.891 0 0 0 1.084.553c.472-.136.761-.638.61-1.103-.001-.003-.12-.367-.3-.926.612-.199 1.263-.41 1.874-.61l.301.927a.891.891 0 0 0 1.084.553c.473-.137.761-.639.61-1.103l-.301-.926.897-.292a.891.891 0 0 0 .572-1.123zm-5.588.88-.61-1.875c.613-.198 1.264-.41 1.875-.609l.61 1.875-1.875.61z"/><path d="M10 18a8 8 0 1 0 0-16 8 8 0 0 0 0 16zm0 2C4.477 20 0 15.523 0 10S4.477 0 10 0s10 4.477 10 10-4.477 10-10 10z"/></svg>