<svg xmlns="http://www.w3.org/2000/svg" viewBox="-2 -2 24 24" fill="currentColor"><path d="M10 18a8 8 0 1 0 0-16 8 8 0 0 0 0 16zm0 2C4.477 20 0 15.523 0 10S4.477 0 10 0s10 4.477 10 10-4.477 10-10 10z"/><path d="M14.804 12.292c-1.337-.22-1.94-1.59-1.964-1.647-.074-.15-.09-.265-.052-.352.073-.171.353-.26.538-.318a2.47 2.47 0 0 0 .146-.05 1.13 1.13 0 0 0 .399-.238.379.379 0 0 0 .121-.273c-.003-.16-.126-.302-.321-.371A.58.58 0 0 0 13.453 9a.484.484 0 0 0-.202.042 1.137 1.137 0 0 1-.417.118.383.383 0 0 1-.138-.03l.012-.193.002-.029c.043-.676.096-1.518-.128-2.018a2.716 2.716 0 0 0-.612-.876 2.559 2.559 0 0 0-.732-.483 2.892 2.892 0 0 0-1.142-.24l-.197.001a2.9 2.9 0 0 0-1.143.241 2.56 2.56 0 0 0-.73.482 2.725 2.725 0 0 0-.609.874c-.223.5-.17 1.341-.128 2.018l.014.223a.4.4 0 0 1-.164.03c-.126 0-.276-.04-.445-.119a.4.4 0 0 0-.17-.035.61.61 0 0 0-.3.084.414.414 0 0 0-.211.27c-.013.07-.013.21.142.351.086.077.211.15.373.213.042.017.093.033.146.05.185.058.466.147.539.318.037.087.02.202-.048.34-.022.052-.181.41-.508.79a2.82 2.82 0 0 1-.608.537 2.236 2.236 0 0 1-.853.331.233.233 0 0 0-.196.244c.002.035.01.069.025.102.048.113.159.207.339.29.22.102.548.188.978.255.022.04.044.144.06.215.016.075.033.152.057.234.026.089.094.195.268.195.067 0 .142-.015.23-.032.13-.025.305-.06.525-.06.122 0 .248.011.375.033.245.04.456.189.7.361.358.253.763.539 1.382.539l.05-.002.072.002c.619 0 1.024-.286 1.382-.538.245-.172.456-.321.7-.362a2.328 2.328 0 0 1 .9.024c.097.019.172.028.23.028.139 0 .233-.07.268-.192.024-.08.041-.155.058-.232.014-.067.038-.173.06-.214.429-.068.757-.153.977-.254.18-.084.29-.178.339-.29a.297.297 0 0 0 .025-.102.233.233 0 0 0-.196-.243z"/></svg>