<svg xmlns="http://www.w3.org/2000/svg" viewBox="-2 -2.5 24 24" fill="currentColor"><path d="M15.899 7.75c.332-.075.5-.129.501-.164a3.66 3.66 0 0 0 .1-.045.969.969 0 0 1 .406-.082c.152 0 .304.028.435.082.391.139.636.424.642.744.003.131-.037.334-.242.545-.173.176-.433.332-.798.476a4.94 4.94 0 0 1-.292.099c-.37.117-.93.295-1.076.637-.075.174-.043.403.105.703.048.116 1.253 2.855 3.927 3.295a.465.465 0 0 1 .391.485.594.594 0 0 1-.05.206c-.096.223-.317.411-.676.578-.44.203-1.097.373-1.956.508-.043.083-.09.295-.119.428a6.624 6.624 0 0 1-.115.465c-.071.244-.259.384-.536.384-.116 0-.266-.02-.46-.057a5.256 5.256 0 0 0-1.049-.11c-.244 0-.496.02-.75.063-.49.081-.912.379-1.402.724-.715.503-1.525 1.075-2.763 1.075a2.43 2.43 0 0 1-.144-.004 1.37 1.37 0 0 1-.101.004c-1.237 0-2.047-.572-2.762-1.077-.49-.345-.912-.642-1.402-.723a4.558 4.558 0 0 0-.75-.064c-.438 0-.791.069-1.048.119-.177.033-.328.063-.46.063-.35 0-.484-.212-.537-.39a6.207 6.207 0 0 1-.115-.468c-.031-.142-.076-.348-.12-.43-.858-.134-1.516-.305-1.956-.51-.36-.165-.581-.354-.677-.58a.592.592 0 0 1-.05-.203.467.467 0 0 1 .392-.487 4.471 4.471 0 0 0 1.706-.664 5.63 5.63 0 0 0 1.215-1.073 6.63 6.63 0 0 0 1.018-1.58c.136-.277.169-.506.095-.68-.146-.342-.708-.52-1.078-.637-.106-.034-.207-.065-.292-.099-.324-.127-.574-.271-.745-.426C2 8.597 2 8.319 2.026 8.179c.041-.214.191-.405.424-.542a1.2 1.2 0 0 1 .598-.167.8.8 0 0 1 .339.07c.072.034.143.064.212.09.002.032.14.072.414.123.093.017.182.026.265.026a.801.801 0 0 0 .328-.062l-.028-.446c-.085-1.352-.191-3.036.257-4.035A5.449 5.449 0 0 1 6.053 1.49c.423-.4.913-.724 1.459-.964A5.806 5.806 0 0 1 9.798.042l.394-.003c.445 0 1.333.062 2.284.482a5.13 5.13 0 0 1 1.464.965 5.431 5.431 0 0 1 1.223 1.751c.448 1 .342 2.684.255 4.038l-.003.057c-.01.133-.017.262-.024.387a.765.765 0 0 0 .276.06c.074-.004.151-.014.232-.03z"/></svg>