<svg xmlns="http://www.w3.org/2000/svg" viewBox="-2 -2 24 24" fill="currentColor"><path d="M18.51 1.527a4.416 4.416 0 0 1-.305 6.522A76.953 76.953 0 0 0 8.061 18.193a4.416 4.416 0 0 1-6.522.305 4.392 4.392 0 0 1 .317-6.499A73.833 73.833 0 0 0 12.01 1.844a4.392 4.392 0 0 1 6.499-.317zm-1.415 1.414a2.392 2.392 0 0 0-3.54.173 75.837 75.837 0 0 1-10.43 10.43 2.392 2.392 0 0 0-.005 3.691 2.416 2.416 0 0 0 3.401-.318A78.946 78.946 0 0 1 16.93 6.51a2.416 2.416 0 0 0 .166-3.568zM11.438 8.57a1 1 0 1 1 1.415-1.414 1 1 0 0 1-1.415 1.414zm-4.95 4.95a1 1 0 1 1 1.415-1.415 1 1 0 0 1-1.414 1.415z"/></svg>