<svg xmlns="http://www.w3.org/2000/svg" viewBox="-2 -7.5 24 24" fill="currentColor"><path d="M19.982 6.362c-.08-1.218-1.032-2.196-2.194-2.255a2.22 2.22 0 0 0-1.222.292C16.518 1.974 14.632.023 12.311.023c-.615 0-1.198.137-1.725.382a.332.332 0 0 0-.186.303v7.925c0 .183.142.332.316.332h6.957c1.333 0 2.402-1.183 2.31-2.603zM9.785.536a.326.326 0 0 0-.318.334v7.752c0 .184.142.334.318.334.175 0 .318-.15.318-.334V.87a.326.326 0 0 0-.318-.334zm-1.052.824a.326.326 0 0 0-.318.334v6.928c0 .184.143.334.318.334.176 0 .318-.15.318-.334V1.694a.326.326 0 0 0-.318-.334zm-1.052.376a.326.326 0 0 0-.318.334v6.552c0 .184.143.334.318.334.176 0 .318-.15.318-.334V2.07a.326.326 0 0 0-.318-.334zM6.63 1.235a.326.326 0 0 0-.319.334v7.053c0 .184.143.334.318.334.176 0 .318-.15.318-.334V1.57a.326.326 0 0 0-.318-.334zm-1.053.334a.326.326 0 0 0-.318.334v6.72c0 .183.143.333.318.333.176 0 .318-.15.318-.334v-6.72a.326.326 0 0 0-.318-.333zm-1.052.668a.326.326 0 0 0-.317.334v6.051c0 .184.142.334.317.334.176 0 .318-.15.318-.334V2.571a.326.326 0 0 0-.318-.334zM3.474 3.53a.326.326 0 0 0-.318.334v4.758c0 .184.142.334.318.334.175 0 .317-.15.317-.334V3.864a.326.326 0 0 0-.317-.333zm-1.052.543a.326.326 0 0 0-.318.334v4.215c0 .184.142.334.318.334.175 0 .318-.15.318-.334V4.407a.326.326 0 0 0-.318-.334zm-1.052.125a.326.326 0 0 0-.318.333v3.967c0 .184.142.333.318.333.175 0 .318-.15.318-.333V4.53a.326.326 0 0 0-.318-.333zM.318 5.07A.326.326 0 0 0 0 5.402v2.285c0 .185.142.334.318.334.175 0 .318-.15.318-.334V5.403a.326.326 0 0 0-.318-.334z"/></svg>