<svg xmlns="http://www.w3.org/2000/svg" viewBox="-2 -2 24 24" fill="currentColor"><path d="M5.987 9.513 9.591 5.89a2.307 2.307 0 0 1 3.275 0 .593.593 0 0 1-.017.82.577.577 0 0 1-.819 0l-.054-.063a1.153 1.153 0 0 0-1.567.066l-3.684 3.704a.599.599 0 0 1-.835-.002.584.584 0 0 1 .097-.902zm8.09.079a.577.577 0 0 0-.897.098l-3.59 3.608a1.154 1.154 0 0 1-1.637 0l-.016-.003a.577.577 0 0 0-.819 0 .584.584 0 0 0 .092.9c.91.834 2.32.81 3.2-.074l3.667-3.706a.585.585 0 0 0 0-.823zm-5.634 2.39a.583.583 0 0 0-.097.902.6.6 0 0 0 .835.003l3.685-3.705a1.154 1.154 0 0 1 1.637 0 1.168 1.168 0 0 1 0 1.647l-3.493 3.529a1.154 1.154 0 0 0 1.637 0l2.675-2.706a2.338 2.338 0 0 0 0-3.293 2.308 2.308 0 0 0-3.275 0l-3.604 3.623zm-.49-.33 3.668-3.706a.584.584 0 0 0 0-.823.576.576 0 0 0-.897.098l-3.59 3.608a1.153 1.153 0 0 1-1.637 0 1.168 1.168 0 0 1 0-1.647l3.494-3.528a1.153 1.153 0 0 0-1.638 0L4.678 8.359a2.337 2.337 0 0 0 0 3.293c.905.91 2.371.91 3.275 0z"/><path d="M4 2a2 2 0 0 0-2 2v12a2 2 0 0 0 2 2h12a2 2 0 0 0 2-2V4a2 2 0 0 0-2-2H4zm0-2h12a4 4 0 0 1 4 4v12a4 4 0 0 1-4 4H4a4 4 0 0 1-4-4V4a4 4 0 0 1 4-4z"/></svg>