<svg xmlns="http://www.w3.org/2000/svg" viewBox="-2 -2 24 24" fill="currentColor"><path d="M12.746 14.068v-2.636h.832v3.511H6.065v-3.511h.832v2.636z"/><path d="m7.816 11.182 4.087.898.173-.864-4.087-.898-.173.864zm.54-2.046 3.785 1.853.345-.796L8.703 8.33l-.346.806zm1.05-1.954 3.21 2.807.53-.67-3.21-2.808-.53.67zm2.075-2.08-.67.523 2.486 3.523.67-.523-2.486-3.523zm-3.751 8.08h4.173v-.875H7.73v.875z"/><path d="M4 2a2 2 0 0 0-2 2v12a2 2 0 0 0 2 2h12a2 2 0 0 0 2-2V4a2 2 0 0 0-2-2H4zm0-2h12a4 4 0 0 1 4 4v12a4 4 0 0 1-4 4H4a4 4 0 0 1-4-4V4a4 4 0 0 1 4-4z"/></svg>