<svg xmlns="http://www.w3.org/2000/svg" viewBox="-2 -2 24 24" fill="currentColor"><path d="M6 2H3a1 1 0 0 0-1 1v2a1 1 0 0 0 1 1h2a1 1 0 0 0 1-1V2zM3.01 8v9.965H5V13a2 2 0 0 1 2-2h2a2 2 0 0 1 2 2v4.965h6.013V8H15c-.768 0-1.47-.289-2-.764A2.989 2.989 0 0 1 11 8H9c-.768 0-1.47-.289-2-.764A2.989 2.989 0 0 1 5 8H3.01zm-2-.754A2.993 2.993 0 0 1 0 5V3a3 3 0 0 1 3-3h14a3 3 0 0 1 3 3v2c0 .882-.38 1.676-.987 2.225v10.74a2 2 0 0 1-2 2h-7.64A2.01 2.01 0 0 1 9 20H7a2.01 2.01 0 0 1-.373-.035H3.011a2 2 0 0 1-2-2V7.245zM9 17.966V13H7v4.965h2zM12 2H8v3a1 1 0 0 0 1 1h2a1 1 0 0 0 1-1V2zm2 0v3a1 1 0 0 0 1 1h2a1 1 0 0 0 1-1V3a1 1 0 0 0-1-1h-3zm0 9h1a1 1 0 0 1 1 1v3a1 1 0 0 1-1 1h-1a1 1 0 0 1-1-1v-3a1 1 0 0 1 1-1z"/></svg>