<svg xmlns="http://www.w3.org/2000/svg" viewBox="-2 -4.5 24 24" fill="currentColor"><path d="M16.817 8.219v2.208c0 .743-.6 1.376-1.335 1.363a1.322 1.322 0 0 1-1.29-1.328V8.333a.377.377 0 0 0-.507-.357l-1.158.433a.372.372 0 0 1-.269-.003l-.69-.275a.377.377 0 0 0-.514.354v1.908c0 2.473 1.94 4.536 4.381 4.573 2.486.039 4.52-1.997 4.52-4.504V8.218a.343.343 0 0 0-.34-.344h-2.458a.343.343 0 0 0-.34.345z"/><path d="M11.054 4.334V5.39c0 .157.094.297.238.355l.99.395a.372.372 0 0 0 .27.003l1.394-.522a.381.381 0 0 0 .246-.357v-.896c0-2.34-1.837-4.294-4.15-4.33C7.69.001 5.764 1.928 5.764 4.303v6.124c0 .743-.6 1.376-1.335 1.363a1.322 1.322 0 0 1-1.29-1.328V8.219a.343.343 0 0 0-.34-.345H.34a.343.343 0 0 0-.34.345v2.174c0 2.473 1.94 4.536 4.381 4.573 2.486.039 4.52-1.997 4.52-4.504v-6.16c0-.618.513-1.118 1.13-1.088.579.03 1.023.534 1.023 1.12z"/></svg>