<svg xmlns="http://www.w3.org/2000/svg" viewBox="-2 -2 24 24" fill="currentColor"><path d="M13.388 10.155v1.135c0 .382-.301.707-.669.7a.672.672 0 0 1-.646-.682v-1.094a.19.19 0 0 0-.255-.183l-.58.222a.182.182 0 0 1-.134-.001l-.346-.142a.19.19 0 0 0-.258.182v.98c0 1.271.972 2.331 2.196 2.35 1.245.02 2.265-1.026 2.265-2.314v-1.153a.174.174 0 0 0-.17-.177h-1.232a.174.174 0 0 0-.171.177z"/><path d="M10.54 8.208v.542c0 .08.047.153.119.183l.496.203a.182.182 0 0 0 .135.001l.699-.268a.196.196 0 0 0 .123-.184v-.46c0-1.203-.92-2.206-2.08-2.225-1.179-.018-2.144.972-2.144 2.192v3.147c0 .382-.301.707-.669.7a.672.672 0 0 1-.646-.682v-1.153a.174.174 0 0 0-.17-.177H5.17a.174.174 0 0 0-.171.177v1.118c0 1.27.972 2.33 2.196 2.35 1.245.02 2.265-1.027 2.265-2.315V8.192a.55.55 0 0 1 .566-.56c.29.016.512.275.512.576z"/><path d="M4 2a2 2 0 0 0-2 2v12a2 2 0 0 0 2 2h12a2 2 0 0 0 2-2V4a2 2 0 0 0-2-2H4zm0-2h12a4 4 0 0 1 4 4v12a4 4 0 0 1-4 4H4a4 4 0 0 1-4-4V4a4 4 0 0 1 4-4z"/></svg>