<svg width="20" height="14" xmlns="http://www.w3.org/2000/svg"><path d="M13,0 C16.8659932,0 20,3.13400675 20,7 C20,10.8659932 16.8659932,14 13,14 C11.9265078,14 10.9094545,13.7583563 10.000267,13.3264957 C9.09129359,13.7581785 8.07388701,14 7,14 C3.13400675,14 0,10.8659932 0,7 C0,3.13400675 3.13400675,0 7,0 C8.07388701,0 9.09129359,0.241821509 10.0007361,0.673980896 C10.9094545,0.241643731 11.9265078,0 13,0 Z M7,2 C4.23857625,2 2,4.23857625 2,7 C2,9.76142375 4.23857625,12 7,12 C7.34323778,12 7.67839764,11.9654144 8.00218475,11.8995379 C6.76295568,10.6367691 6,8.90748347 6,7 C6,5.09251653 6.76295568,3.36323091 8.00034717,2.10066301 C7.67839764,2.03458565 7.34323778,2 7,2 Z M13,2 C10.2385763,2 8,4.23857625 8,7 C8,9.76142375 10.2385763,12 13,12 C15.7614237,12 18,9.76142375 18,7 C18,4.23857625 15.7614237,2 13,2 Z"/></svg>
