<svg xmlns="http://www.w3.org/2000/svg" viewBox="-2 -1.5 24 24" fill="currentColor"><path d="M10 15.565a5 5 0 1 1 0-10 5 5 0 0 1 0 10zm0-15a1 1 0 0 1 1 1v2a1 1 0 0 1-2 0v-2a1 1 0 0 1 1-1zm0 16a1 1 0 0 1 1 1v2a1 1 0 0 1-2 0v-2a1 1 0 0 1 1-1zm-9-7h2a1 1 0 1 1 0 2H1a1 1 0 0 1 0-2zm16 0h2a1 1 0 0 1 0 2h-2a1 1 0 0 1 0-2zm.071-6.071a1 1 0 0 1 0 1.414l-1.414 1.414a1 1 0 1 1-1.414-1.414l1.414-1.414a1 1 0 0 1 1.414 0zM5.757 14.808a1 1 0 0 1 0 1.414l-1.414 1.414a1 1 0 1 1-1.414-1.414l1.414-1.414a1 1 0 0 1 1.414 0zM4.343 3.494l1.414 1.414a1 1 0 0 1-1.414 1.414L2.93 4.908a1 1 0 0 1 1.414-1.414zm11.314 11.314 1.414 1.414a1 1 0 0 1-1.414 1.414l-1.414-1.414a1 1 0 1 1 1.414-1.414z"/></svg>