<svg xmlns="http://www.w3.org/2000/svg" viewBox="-2 -2 24 24" fill="currentColor"><path d="M10 13a3 3 0 1 0 0-6 3 3 0 0 0 0 6zm0 2a5 5 0 1 1 0-10 5 5 0 0 1 0 10zm0-15a1 1 0 0 1 1 1v2a1 1 0 0 1-2 0V1a1 1 0 0 1 1-1zm0 16a1 1 0 0 1 1 1v2a1 1 0 0 1-2 0v-2a1 1 0 0 1 1-1zM1 9h2a1 1 0 1 1 0 2H1a1 1 0 0 1 0-2zm16 0h2a1 1 0 0 1 0 2h-2a1 1 0 0 1 0-2zm.071-6.071a1 1 0 0 1 0 1.414l-1.414 1.414a1 1 0 1 1-1.414-1.414l1.414-1.414a1 1 0 0 1 1.414 0zM5.757 14.243a1 1 0 0 1 0 1.414L4.343 17.07a1 1 0 1 1-1.414-1.414l1.414-1.414a1 1 0 0 1 1.414 0zM4.343 2.929l1.414 1.414a1 1 0 0 1-1.414 1.414L2.93 4.343A1 1 0 0 1 4.343 2.93zm11.314 11.314 1.414 1.414a1 1 0 0 1-1.414 1.414l-1.414-1.414a1 1 0 1 1 1.414-1.414z"/></svg>