<svg width="14" height="14" xmlns="http://www.w3.org/2000/svg" fill="currentColor"><path d="M1.708 5.29 4.54 8.098 7.37 5.29a1.007 1.007 0 0 1 1.416 0 .986.986 0 0 1 0 1.403L5.955 9.5l2.83 2.806a.986.986 0 0 1 0 1.403 1.007 1.007 0 0 1-1.415 0l-2.83-2.806-2.832 2.806a1.007 1.007 0 0 1-1.415 0 .986.986 0 0 1 0-1.403L3.123 9.5.294 6.694a.986.986 0 0 1 0-1.403 1.007 1.007 0 0 1 1.415 0ZM11.686 0c.427 0 .812.091 1.149.275.34.186.612.455.814.8.2.343.301.7.301 1.063 0 .416-.231.849-.46 1.307-.223.45-.538.876-1.072 1.555l-.118.123-.255.229H14V7H9.078V5.986l.101-.246 1.801-1.913c.433-.435.8-.77.93-1.011.125-.23.184-.427.184-.587a.424.424 0 0 0-.128-.327.475.475 0 0 0-.355-.127.448.448 0 0 0-.357.158c-.106.117-.167.288-.175.525l-.012.338h-1.84l.017-.366c.034-.735.274-1.33.723-1.77.45-.44 1.03-.66 1.719-.66Z"/></svg>