<svg xmlns="http://www.w3.org/2000/svg" viewBox="0 -2.5 24 24" fill="currentColor"><path d="m13.963 1.478 2.483 2.483a2 2 0 0 1 .498 2L15.71 9.99l-7.93 7.93L0 10.142l7.899-7.899 4.056-1.26a2 2 0 0 1 2.008.495zm-3.71 6.19a1.5 1.5 0 1 0 2.121-2.122 1.5 1.5 0 0 0-2.121 2.121zm7.222 1.047c.542.022.935-.07 1.178-.273a1.5 1.5 0 0 0 .185-2.113c-.11-.131-.285-.252-.527-.364a2 2 0 0 0-.538-1.848L16.05 2.395l2.269-.706a2 2 0 0 1 2.008.496l2.483 2.483a2 2 0 0 1 .498 2l-1.235 4.028-7.93 7.931-2.795-2.794 5.688-5.688.439-1.43z"/></svg>