<svg xmlns="http://www.w3.org/2000/svg" viewBox="0 -1 24 24" fill="currentColor"><path d="m2 8.654 2.813 2.822 6.332-6.35-2.814-2.823-6.332 6.35zm4.441 8.128 2.11-2.117a.993.993 0 0 1 1.408 0 1 1 0 0 1 0 1.411l-2.11 2.117a1 1 0 0 1 0 1.411L6.44 21.015a.993.993 0 0 1-1.407 0l-1.407-1.41a1 1 0 0 1 0-1.412l1.407-1.411a.993.993 0 0 1 1.407 0zm9.146-6.35 6.331-6.35-1.407-1.412-6.331 6.35c-.777-.78-.912-1.907-.302-2.52L19.406.956c.61-.612 1.735-.477 2.512.303l1.407 1.41c.778.78.913 1.909.302 2.52l-5.528 5.545c-.61.612-1.735.477-2.512-.303zm-.924 3.866L9.738 9.36l-.704.706 4.925 4.939.704-.706zm1.407 1.412-.704.705 1.759 1.764c.194.195.51.195.703 0a.5.5 0 0 0 0-.705L16.07 15.71zM2.06 5.77a1.5 1.5 0 0 1 .291-1.704l1.407-1.41a1.49 1.49 0 0 1 1.699-.293L6.924.892a1.986 1.986 0 0 1 2.814 0l2.814 2.823a2 2 0 0 1 0 2.822l-1.407 1.411 8.09 8.114a2.5 2.5 0 0 1 0 3.528 2.482 2.482 0 0 1-3.517 0l-8.09-8.114-1.408 1.411c-.777.78-2.037.78-2.814 0L.592 10.065a2 2 0 0 1 0-2.823l1.467-1.47z"/></svg>