<svg xmlns="http://www.w3.org/2000/svg" viewBox="-8 -1 24 24" fill="currentColor"><path d="M2 10v1l1.25.43.602 8.433a.148.148 0 0 0 .296 0l.602-8.433L6 11v-1H2zM.535 8A3.982 3.982 0 0 1 0 6c0-1.473 1.333-3.473 4-6 2.667 2.527 4 4.527 4 6 0 .729-.195 1.412-.535 2H8v3a2 2 0 0 1-1.35 1.892l-.508 7.113a2.148 2.148 0 0 1-4.284 0l-.509-7.113A2 2 0 0 1 0 11V8h.535zm2.13-3.495C2.196 5.205 2 5.719 2 6a2 2 0 1 0 4 0c0-.281-.197-.795-.664-1.495-.333-.5-.779-1.056-1.336-1.663a14.084 14.084 0 0 0-1.336 1.663z"/></svg>