<svg xmlns="http://www.w3.org/2000/svg" viewBox="-2 -2 24 24" fill="currentColor"><path d="M10 18a8 8 0 1 0 0-16 8 8 0 0 0 0 16zm0 2C4.477 20 0 15.523 0 10S4.477 0 10 0s10 4.477 10 10-4.477 10-10 10z"/><path d="M15 6.947c-.368.16-.763.27-1.178.318.424-.25.748-.646.902-1.117a4.16 4.16 0 0 1-1.304.49A2.06 2.06 0 0 0 11.923 6c-1.133 0-2.051.905-2.051 2.02 0 .158.018.312.053.46a5.854 5.854 0 0 1-4.228-2.11 1.982 1.982 0 0 0-.278 1.015c0 .7.363 1.32.913 1.681a2.076 2.076 0 0 1-.93-.253v.025a2.03 2.03 0 0 0 1.646 1.98 2.108 2.108 0 0 1-.927.034 2.049 2.049 0 0 0 1.916 1.403 4.156 4.156 0 0 1-2.548.864c-.165 0-.328-.01-.489-.028A5.863 5.863 0 0 0 8.144 14c3.774 0 5.837-3.078 5.837-5.748l-.007-.262A4.063 4.063 0 0 0 15 6.947z"/></svg>