<svg width="20" height="14" xmlns="http://www.w3.org/2000/svg"><path d="M10.8581846,2.48015244 L10,2.8878315 L9.14181535,2.48015244 C8.47923473,2.16539472 7.75335379,2 7,2 C4.23857625,2 2,4.23857625 2,7 C2,9.76142375 4.23857625,12 7,12 C7.75335379,12 8.47923473,11.8346053 9.14181535,11.5198476 L10,11.1121685 L10.8581846,11.5198476 C11.5207653,11.8346053 12.2466462,12 13,12 C15.7614237,12 18,9.76142375 18,7 C18,4.23857625 15.7614237,2 13,2 C12.2466462,2 11.5207653,2.16539472 10.8581846,2.48015244 Z M13,0 C16.8659932,0 20,3.13400675 20,7 C20,10.8659932 16.8659932,14 13,14 C11.9264027,14 10.9092554,13.758309 10,13.3263688 C9.09074462,13.758309 8.07359729,14 7,14 C3.13400675,14 0,10.8659932 0,7 C0,3.13400675 3.13400675,0 7,0 C8.07359729,0 9.09074462,0.241691046 10,0.673631164 C10.9092554,0.241691045 11.9264027,0 13,0 Z"/></svg>
