<svg xmlns="http://www.w3.org/2000/svg" viewBox="-3 -3 24 24" fill="currentColor"><path d="M.694 17.306c-1.91-1.912.258-7.18 4.845-11.767S15.394-1.217 17.306.694c1.91 1.912-.258 7.18-4.845 11.767S2.606 19.217.694 17.306zM2.08 15.92c.815.816 5.102-.95 8.997-4.845 3.895-3.895 5.66-8.182 4.845-8.997-.815-.816-5.102.95-8.997 4.845-3.895 3.895-5.66 8.182-4.845 8.997zm3.46-3.46C.952 7.874-1.217 2.606.694.694c1.912-1.91 7.18.258 11.767 4.845s6.756 9.855 4.845 11.767c-1.912 1.91-7.18-.258-11.767-4.845zm1.385-1.385c3.895 3.895 8.182 5.66 8.997 4.845.816-.815-.95-5.102-4.845-8.997-3.895-3.895-8.182-5.66-8.997-4.845-.816.815.95 5.102 4.845 8.997zM9 11a2 2 0 1 1 0-4 2 2 0 0 1 0 4z"/></svg>