<svg width="18" height="18" xmlns="http://www.w3.org/2000/svg" fill="currentColor"><path d="M6.456 10.218a1.934 1.934 0 0 0-1.902.492L2.5 12.762A1.935 1.935 0 0 0 5.238 15.5l2.052-2.053a1.934 1.934 0 0 0 .492-1.902.968.968 0 0 1-1.326-1.326Zm4.446-4.446a.968.968 0 0 1 1.326 1.326 1.934 1.934 0 0 0 1.902-.492l1.37-1.368A1.935 1.935 0 1 0 12.762 2.5l-1.368 1.37a1.934 1.934 0 0 0-.492 1.902Zm5.965-4.639a3.87 3.87 0 0 1 0 5.473l-1.368 1.368A3.87 3.87 0 0 1 10.026 2.5l1.368-1.368a3.87 3.87 0 0 1 5.473 0ZM8.658 9.342a3.87 3.87 0 0 1 0 5.472l-2.052 2.053a3.87 3.87 0 0 1-5.473-5.473l2.053-2.052a3.87 3.87 0 0 1 5.472 0Z"/></svg>