<svg xmlns="http://www.w3.org/2000/svg" viewBox="-2 -2 24 24" fill="currentColor"><path d="M10 18a8 8 0 1 0 0-16 8 8 0 0 0 0 16zm0 2C4.477 20 0 15.523 0 10S4.477 0 10 0s10 4.477 10 10-4.477 10-10 10z"/><path d="M11.596 10.72c0 .867-.687 1.542-1.5 1.542-.812 0-1.5-.675-1.5-1.543 0-.868.688-1.543 1.5-1.543.844.032 1.5.707 1.5 1.543zm3.5-2.38v4.79c0 .74-.593 1.382-1.343 1.382H6.44c-.75 0-1.344-.61-1.344-1.382V8.308c0-.739.594-1.382 1.344-1.382h1.156l.25-.739c.125-.354.532-.643.907-.643h2.687c.375 0 .781.29.906.643l.25.771h1.157c.75 0 1.343.611 1.343 1.383zm-2.687 2.411c0-1.318-1.031-2.41-2.344-2.41-1.281 0-2.344 1.092-2.344 2.41s1.032 2.411 2.344 2.411a2.395 2.395 0 0 0 2.344-2.41z"/></svg>