<svg xmlns="http://www.w3.org/2000/svg" viewBox="-3 -2 24 24" fill="currentColor"><path d="M13.71 10.006c-.012-.033-.03-.063-.046-.096-.183.095-.355.191-.533.273-.175.08-.353.152-.534.215-.185.064-.374.114-.56.168.001.017 0 .028.003.038.008.024.016.049.026.073a5.65 5.65 0 0 1 .382 2.04 5.616 5.616 0 0 1-.24 1.722c-.258.843-.675 1.598-1.29 2.233-.897.927-2 1.426-3.281 1.542-.118.011-.238.01-.366.014.005-.029.004-.035.007-.037.067-.05.134-.099.2-.15a10.58 10.58 0 0 0 3.138-3.777 9.344 9.344 0 0 0 .966-3.98c.015-.683-.045-1.36-.163-2.032a12.644 12.644 0 0 0-.615-2.234 1.125 1.125 0 0 0-.052-.11 7.9 7.9 0 0 0-.026-.179c0-.02 0-.058-.002-.066A11.068 11.068 0 0 0 10.37 3.8a8.625 8.625 0 0 0-1.038-2.34A6.107 6.107 0 0 0 8.183.113C8.14.077 8.095.043 8.042 0c-.002.028-.008.045-.003.056.032.06.067.117.101.176a33.587 33.587 0 0 1 2.072 4.216c.163.4.311.804.466 1.206l.046.084.025.178c.008.212.02.43.024.618a26.922 26.922 0 0 1-.12 3.3 22.54 22.54 0 0 1-.202 1.513 16.32 16.32 0 0 1-.425 1.867 11.1 11.1 0 0 1-.874 2.179 6.814 6.814 0 0 1-1.24 1.67c-.463.45-.99.804-1.588 1.052a.32.32 0 0 1-.195.02 5.098 5.098 0 0 1-2.202-1.007 5.148 5.148 0 0 1-1.344-1.62 5.614 5.614 0 0 1-.658-2.145 6.123 6.123 0 0 1 .02-1.338 5.43 5.43 0 0 1 .426-1.572 5.671 5.671 0 0 1 1.427-1.927 5.02 5.02 0 0 1 1.582-.975 4.975 4.975 0 0 1 1.178-.283 5.498 5.498 0 0 1 1.074-.015c.457.035.903.134 1.332.301.037.015.076.024.131.04.038-.298.097-.582.185-.858a6.8 6.8 0 0 1 .33-.805c-.067-.053-.14-.065-.208-.087a7.118 7.118 0 0 0-1.788-.323 7.663 7.663 0 0 0-1.938.134 6.341 6.341 0 0 0-2.145.85 7.186 7.186 0 0 0-1.657 1.454C.806 9.213.236 10.666.148 12.309a7.89 7.89 0 0 0 .051 1.416c.084.664.252 1.304.518 1.918a7.546 7.546 0 0 0 1.85 2.575c.588.54 1.257.953 2.003 1.238a6.96 6.96 0 0 0 2.158.44 7.993 7.993 0 0 0 2.046-.147 6.33 6.33 0 0 0 2.498-1.112 7.339 7.339 0 0 0 1.516-1.537 7.067 7.067 0 0 0 1.41-3.899 7.946 7.946 0 0 0-.091-1.755 6.954 6.954 0 0 0-.396-1.44z"/><path d="M17.07 2.23a6.592 6.592 0 0 0-.653-1.595c-.041-.072-.087-.14-.14-.225l-.104.188c-.2.38-.45.722-.76 1.021-.468.452-1.008.78-1.645.936-.055.013-.11.029-.166.045a6.06 6.06 0 0 0-1.348.559 2.544 2.544 0 0 0-.747.65 2.5 2.5 0 0 0-.541 1.684c.022.512.169.99.416 1.439.012.021.03.04.055.074 2.014-.494 3.528-1.647 4.574-3.47-.004.062-.002.092-.009.12-.034.158-.09.308-.161.453a3.89 3.89 0 0 1-.604.867c-.41.46-.875.859-1.363 1.23-.592.452-1.212.86-1.855 1.233-.047.027-.103.045-.139.105.087.078.17.156.257.23.33.275.689.5 1.1.635.387.127.78.162 1.183.092a2.633 2.633 0 0 0 1.287-.624c.362-.312.647-.688.887-1.098.14-.238.269-.481.358-.743a6.584 6.584 0 0 0 .118-3.807z"/></svg>