<svg xmlns="http://www.w3.org/2000/svg" viewBox="-2 -2 24 24" fill="currentColor"><path d="M14.613 9.925a.28.28 0 0 0-.306-.242 3.043 3.043 0 0 1-.338.021c-.728 0-1.767-.056-2.409-.494a1.72 1.72 0 0 1-.749-1.435c-.003-.48.108-.835.332-1.054a.824.824 0 0 1 .54-.234.605.605 0 0 1 .445.288c.136.204.304.67.093 1.624a.21.21 0 0 0 .128.241c.333.126.753.178 1.078.198.1.006.19-.063.21-.163.098-.46.139-.886.122-1.274-.026-.568-.174-1.06-.44-1.458-.366-.548-.949-.895-1.56-.929-.438-.024-1.092.132-1.613.641-.36.351-.786 1.006-.777 2.132a3.206 3.206 0 0 0 1.091 2.416c.213.187.486.378.831.543a11.883 11.883 0 0 1-1.946 2.594c-1.095-.89-1.744-2.556-2.104-3.869a18.657 18.657 0 0 1-.546-2.962.25.25 0 0 0-.265-.229l-.476.033.72-.049-1.187.081a.253.253 0 0 0-.231.28c.05.531.203 1.803.589 3.218.297 1.09.673 2.041 1.118 2.827.584 1.032 1.292 1.79 2.106 2.25a.708.708 0 0 0 .807-.076c.026-.022.644-.545 1.385-1.464a13.398 13.398 0 0 0 1.459-2.23 7.3 7.3 0 0 0 1.775-.006.283.283 0 0 0 .243-.322l-.125-.897z"/><path d="M4 2a2 2 0 0 0-2 2v12a2 2 0 0 0 2 2h12a2 2 0 0 0 2-2V4a2 2 0 0 0-2-2H4zm0-2h12a4 4 0 0 1 4 4v12a4 4 0 0 1-4 4H4a4 4 0 0 1-4-4V4a4 4 0 0 1 4-4z"/></svg>