<svg xmlns="http://www.w3.org/2000/svg" viewBox="-2.5 -2 24 24" fill="currentColor"><path d="M18.74 9.818a.558.558 0 0 0-.611-.484 6.082 6.082 0 0 1-.676.043c-1.454 0-3.53-.112-4.813-.988a3.873 3.873 0 0 1-.318-.25c-.963-.847-1.172-1.89-1.178-2.617-.008-.96.215-1.67.661-2.105a1.647 1.647 0 0 1 1.079-.469c.053.003.536.044.89.575.273.409.608 1.34.186 3.245a.418.418 0 0 0 .256.483c.666.252 1.504.355 2.153.395.2.012.38-.126.422-.326.195-.92.276-1.77.242-2.545-.05-1.136-.346-2.117-.879-2.914C15.424.765 14.258.07 13.038.005c-.876-.048-2.184.263-3.225 1.28-.718.702-1.57 2.011-1.551 4.261.015 1.89.79 3.604 2.18 4.827.425.374.97.757 1.66 1.085a23.746 23.746 0 0 1-3.888 5.184c-2.19-1.778-3.485-5.106-4.206-7.73a37.283 37.283 0 0 1-1.091-5.92.501.501 0 0 0-.53-.457l-.951.066 1.438-.098-2.37.162a.506.506 0 0 0-.462.557 39.923 39.923 0 0 0 1.176 6.433c.594 2.178 1.346 4.078 2.234 5.649 1.168 2.063 2.584 3.575 4.21 4.495a1.414 1.414 0 0 0 1.613-.151c.052-.044 1.285-1.089 2.767-2.926a26.774 26.774 0 0 0 2.316-3.36c.21-.362.41-.727.598-1.094 1.013.13 2.188.145 3.548-.013a.565.565 0 0 0 .486-.645l-.25-1.792z"/></svg>