<svg xmlns="http://www.w3.org/2000/svg" viewBox="-2 -2 24 24" fill="currentColor"><path d="M10 20C4.477 20 0 15.523 0 10S4.477 0 10 0s10 4.477 10 10-4.477 10-10 10zm0-2a8 8 0 1 0 0-16 8 8 0 0 0 0 16zm-3.962-4.77a2 2 0 0 1-2-2v-2.5a2 2 0 0 1 2-2h1.005l1.823-1.709a2 2 0 0 1 1.367-.54h.205a1.6 1.6 0 0 1 1.6 1.6v7.8a1.6 1.6 0 0 1-1.6 1.6h-.205a2 2 0 0 1-1.367-.542L7.043 13.23H6.038zm1.795-4.5H6.038v2.5h1.795l2.205 2.067V6.664L7.833 8.73zm5.87.26a1 1 0 1 1 0-2 3 3 0 0 1 0 6 1 1 0 1 1 0-2 1 1 0 0 0 0-2z"/></svg>