<svg xmlns="http://www.w3.org/2000/svg" viewBox="-2 -2 24 24" fill="currentColor"><path d="m15.658 10.057.707-.707a1 1 0 1 0-1.414-1.415l-.707.708-.707-.708a1 1 0 0 0-1.414 1.415l.707.707-.707.707a1 1 0 0 0 1.414 1.414l.707-.707.707.707a1 1 0 0 0 1.414-1.414l-.707-.707zM4 0h12a4 4 0 0 1 4 4v12a4 4 0 0 1-4 4H4a4 4 0 0 1-4-4V4a4 4 0 0 1 4-4zm1.282 13.287h1.005l1.823 1.71a2 2 0 0 0 1.368.54h.204a1.6 1.6 0 0 0 1.6-1.6v-7.8a1.6 1.6 0 0 0-1.6-1.6h-.204a2 2 0 0 0-1.368.541l-1.823 1.71H5.282a2 2 0 0 0-2 2v2.5a2 2 0 0 0 2 2zm1.796-4.5L9.282 6.72v6.634l-2.204-2.067H5.282v-2.5h1.796z"/></svg>