<svg xmlns="http://www.w3.org/2000/svg" viewBox="-4 -1 24 24" fill="currentColor"><path d="M9 10h2a1 1 0 0 1 0 2H8a1 1 0 0 1-1-1V7a1 1 0 1 1 2 0v3zM4 4.07V3a3 3 0 0 1 3-3h2a3 3 0 0 1 3 3v1.07A7.997 7.997 0 0 1 16 11a7.997 7.997 0 0 1-4 6.93V19a3 3 0 0 1-3 3H7a3 3 0 0 1-3-3v-1.07A7.997 7.997 0 0 1 0 11a7.997 7.997 0 0 1 4-6.93zm2-.818A8.014 8.014 0 0 1 8 3c.69 0 1.36.088 2 .252V3a1 1 0 0 0-1-1H7a1 1 0 0 0-1 1v.252zm0 15.496V19a1 1 0 0 0 1 1h2a1 1 0 0 0 1-1v-.252a8.047 8.047 0 0 1-4 0zM8 17A6 6 0 1 0 8 5a6 6 0 0 0 0 12z"/></svg>