<svg xmlns="http://www.w3.org/2000/svg" viewBox="-2 -2 24 24" fill="currentColor"><path d="M9.516.012C4.206.262.017 4.652.033 9.929a9.798 9.798 0 0 0 1.085 4.465L.06 19.495a.387.387 0 0 0 .47.453l5.034-1.184a9.981 9.981 0 0 0 4.284 1.032c5.427.083 9.951-4.195 10.12-9.58C20.15 4.441 15.351-.265 9.516.011zm6.007 15.367a7.784 7.784 0 0 1-5.52 2.27 7.77 7.77 0 0 1-3.474-.808l-.701-.347-3.087.726.65-3.131-.346-.672A7.62 7.62 0 0 1 2.197 9.9c0-2.07.812-4.017 2.286-5.48a7.85 7.85 0 0 1 5.52-2.271c2.086 0 4.046.806 5.52 2.27a7.672 7.672 0 0 1 2.287 5.48c0 2.052-.825 4.03-2.287 5.481z"/><path d="m14.842 12.045-1.931-.55a.723.723 0 0 0-.713.186l-.472.478a.707.707 0 0 1-.765.16c-.913-.367-2.835-2.063-3.326-2.912a.694.694 0 0 1 .056-.774l.412-.53a.71.71 0 0 0 .089-.726L7.38 5.553a.723.723 0 0 0-1.125-.256c-.539.453-1.179 1.14-1.256 1.903-.137 1.343.443 3.036 2.637 5.07 2.535 2.349 4.566 2.66 5.887 2.341.75-.18 1.35-.903 1.727-1.494a.713.713 0 0 0-.408-1.072z"/></svg>