<svg xmlns="http://www.w3.org/2000/svg" viewBox="-2 -6 24 24" fill="currentColor"><path d="M19.857.021h-3.982v.687h.398c.311 0 .592.161.751.431a.88.88 0 0 1 .016.872l-4.283 7.93-1.95-4.69 1.836-3.402A2.165 2.165 0 0 1 14.548.708h.217V.02h-4.112v.688h.398c.311 0 .592.161.75.431a.88.88 0 0 1 .017.872l-1.333 2.467-1.188-2.856a.654.654 0 0 1 .059-.62A.642.642 0 0 1 9.9.708h.435V.02H5.467v.688h.194c.909 0 1.723.546 2.074 1.391L9.49 6.32 7.535 9.942l-3.46-8.32a.654.654 0 0 1 .059-.62.642.642 0 0 1 .544-.294h.598V.02H0v.688h.439c.908 0 1.723.546 2.074 1.391l3.988 9.591a.446.446 0 0 0 .804.042l.52-.964 1.986-3.676 1.912 4.598a.446.446 0 0 0 .804.041l.52-.963 4.819-8.92A2.165 2.165 0 0 1 19.77.709h.217V.02h-.13z"/></svg>