<svg xmlns="http://www.w3.org/2000/svg" viewBox="-2 -2 24 24" fill="currentColor"><path d="M9.99 0C4.474 0 0 4.473 0 9.99c0 5.518 4.473 9.991 9.99 9.991 5.518 0 9.991-4.473 9.991-9.99C19.981 4.473 15.508 0 9.991 0zM1.428 9.99c0-1.208.268-2.357.742-3.394l4.085 10.9c-2.857-1.351-4.827-4.205-4.827-7.505zm8.564 8.343a8.87 8.87 0 0 1-2.42-.339l2.57-7.273 2.63 7.024.06.116a8.77 8.77 0 0 1-2.84.472zM11.168 6.08c.515-.027.98-.08.98-.08.461-.053.408-.712-.053-.687 0 0-1.388.106-2.284.106-.84 0-2.256-.106-2.256-.106-.462-.026-.515.66-.055.688 0 0 .438.052.898.079l1.335 3.56-1.874 5.475-3.117-9.034c.517-.026.98-.079.98-.079.46-.054.407-.713-.054-.688 0 0-1.387.106-2.281.106l-.551-.01c1.53-2.264 4.162-3.76 7.153-3.76 2.23 0 4.259.83 5.784 2.19l-.112-.008c-.841 0-1.437.713-1.437 1.48 0 .688.406 1.268.84 1.956.329.557.706 1.27.706 2.3 0 .714-.28 1.542-.65 2.698l-.856 2.779-3.096-8.965zm3.127 11.117 2.617-7.365c.49-1.19.65-2.14.65-2.987 0-.307-.02-.592-.056-.858a8.155 8.155 0 0 1 1.049 4.003c-.001 3.077-1.713 5.763-4.26 7.207z"/></svg>