<?xml version="1.0" standalone="no"?>
<!DOCTYPE svg PUBLIC "-//W3C//DTD SVG 1.1//EN" "http://www.w3.org/Graphics/SVG/1.1/DTD/svg11.dtd">
<svg xmlns="http://www.w3.org/2000/svg">
<metadata>Generated by Fontastic.me</metadata>
<defs>
<font id="jam-icons" horiz-adv-x="512">
<font-face font-family="jam-icons" units-per-em="512" ascent="480" descent="-32"/>
<missing-glyph horiz-adv-x="512" />

<glyph glyph-name="align-center" unicode="&#97;" d="M488 448l-464 0c-14 0-24-10-24-24 0-14 10-24 24-24l464 0c14 0 24 10 24 24 0 14-10 24-24 24z m-32-224l-400 0c-14 0-24-10-24-24 0-14 10-24 24-24l400 0c14 0 24 10 24 24 0 14-10 24-24 24z m-56 64c14 0 24 10 24 24 0 14-10 24-24 24l-288 0c-14 0-24-10-24-24 0-14 10-24 24-24z m-64-176l-160 0c-14 0-24-10-24-24 0-14 10-24 24-24l160 0c14 0 24 10 24 24 0 14-10 24-24 24z"/>
<glyph glyph-name="align-justify" unicode="&#98;" d="M24 400l464 0c14 0 24 10 24 24 0 14-10 24-24 24l-464 0c-14 0-24-10-24-24 0-14 10-24 24-24z m464-176l-464 0c-14 0-24-10-24-24 0-14 10-24 24-24l464 0c14 0 24 10 24 24 0 14-10 24-24 24z m0 112l-464 0c-14 0-24-10-24-24 0-14 10-24 24-24l464 0c14 0 24 10 24 24 0 14-10 24-24 24z m0-224l-464 0c-14 0-24-10-24-24 0-14 10-24 24-24l464 0c14 0 24 10 24 24 0 14-10 24-24 24z"/>
<glyph glyph-name="align-left" unicode="&#99;" d="M488 448l-464 0c-14 0-24-10-24-24 0-14 10-24 24-24l464 0c14 0 24 10 24 24 0 14-10 24-24 24z m-112-224l-352 0c-14 0-24-10-24-24 0-14 10-24 24-24l352 0c14 0 24 10 24 24 0 14-10 24-24 24z m-352 64l208 0c14 0 24 10 24 24 0 14-10 24-24 24l-208 0c-14 0-24-10-24-24 0-14 10-24 24-24z m160-176l-160 0c-14 0-24-10-24-24 0-14 10-24 24-24l160 0c14 0 24 10 24 24 0 14-10 24-24 24z"/>
<glyph glyph-name="align-right" unicode="&#100;" d="M512 424c0 14-10 24-24 24l-464 0c-14 0-24-10-24-24 0-14 10-24 24-24l464 0c14 0 24 10 24 24z m-24-200l-352 0c-14 0-24-10-24-24 0-14 10-24 24-24l352 0c14 0 24 10 24 24 0 14-10 24-24 24z m0 112l-208 0c-14 0-24-10-24-24 0-14 10-24 24-24l208 0c14 0 24 10 24 24 0 14-10 24-24 24z m0-224l-160 0c-14 0-24-10-24-24 0-14 10-24 24-24l160 0c14 0 24 10 24 24 0 14-10 24-24 24z"/>
<glyph glyph-name="amazon" unicode="&#101;" d="M442 88c-210-98-341-16-424 34-5 3-14-1-7-10 28-33 119-112 239-112 119 0 190 63 199 74 9 12 2 17-7 14z m60 31c-6 7-35 9-53 7-19-3-46-13-43-20 1-2 4-1 16 0 12 2 47 6 54-4 7-9-11-53-14-60-4-8 1-9 7-4 6 4 17 16 24 34 9 18 13 42 9 47z m-204 245c-56-2-194-18-194-133 0-124 159-129 211-49 3-3 4-6 7-9 20-20 45-43 45-43l65 62c0 0-37 29-37 60l0 166c0 29-28 94-129 94-101 0-155-62-155-118l84-8c0 0 19 56 63 56 44 0 40-35 40-42z m0-98c0-92-96-77-96-20 0 54 57 64 96 66z"/>
<glyph glyph-name="anchor" unicode="&#102;" d="M488 232c-14 0-24-10-24-24 0-6 2-12 6-17-26-87-104-152-198-159l0 272 56 0c9 0 16 7 16 16 0 9-7 16-16 16l-56 0 0 34c32 7 56 36 56 70 0 40-32 72-72 72-40 0-72-32-72-72 0-34 24-63 56-70l0-34-56 0c-9 0-16-7-16-16 0-9 7-16 16-16l56 0 0-271c-94 6-172 71-198 158 4 5 6 11 6 17 0 14-10 24-24 24-14 0-24-10-24-24 0-7 3-14 9-18 29-110 129-190 247-190 118 0 218 80 247 190 6 4 9 11 9 18 0 14-10 24-24 24z m-272 208c0 22 18 40 40 40 22 0 40-18 40-40 0-22-18-40-40-40-22 0-40 18-40 40z"/>
<glyph glyph-name="angle-down" unicode="&#103;" d="M501 387c-10 10-25 10-34 0l-211-209-211 209c-9 10-25 10-34 0-10-10-10-25 0-34l228-228c10-10 25-10 34 0l228 228c10 9 10 24 0 34z"/>
<glyph glyph-name="angle-left" unicode="&#104;" d="M178 256l209 211c10 9 10 25 0 34-10 9-25 10-34 0l-228-228c-10-10-10-25 0-34l228-228c10-10 25-10 34 0 9 10 10 25 0 34z"/>
<glyph glyph-name="angle-right" unicode="&#105;" d="M387 273l-228 228c-10 10-25 10-34 0-9-10-10-25 0-34l209-211-209-211c-10-9-10-25 0-34 10-9 25-10 34 0l228 228c10 10 10 24 0 34z"/>
<glyph glyph-name="angle-top" unicode="&#106;" d="M501 159l-228 228c-3 4-8 6-12 7-2 0-3 1-5 1-7 0-12-3-17-8l-228-228c-10-10-10-25 0-34 10-10 25-10 34 0l211 209 211-210c9-10 25-10 34 0 10 10 10 25 0 35z"/>
<glyph glyph-name="apple" unicode="&#107;" d="M466 142c-8 4-66 29-67 99 0 57 44 87 53 93l1 0c1 0 1 1 1 2 0 1 0 2 0 3-31 45-78 51-97 52-3 0-6 1-9 1-22 0-43-8-61-15-12-5-21-9-29-9-8 0-18 4-30 9-16 6-34 13-53 13-1 0-1 0-1 0-44 0-87-25-109-65-44-75-16-190 33-259 24-35 48-66 82-66 1 0 2 0 2 0 16 1 27 6 38 10 12 6 25 11 46 11 19 0 31-6 43-11 12-4 23-10 41-9 38 1 61 34 82 64 22 31 32 61 36 73l0 0c1 1-1 4-2 4z m-209 242c1 0 4 0 5 0 27 0 55 14 74 38 20 25 30 57 27 86 0 2-2 4-5 4-26-1-58-18-77-41-16-19-32-51-28-83 0-2 1-4 4-4z"/>
<glyph glyph-name="arrow-bottom" unicode="&#108;" d="M497 268c-9 10-25 10-34 0l-183-183 0 400c0 14-10 25-24 25-14 0-24-11-24-25l0-400-183 183c-10 10-25 10-34 0-10-10-10-25 0-34l224-224c5-5 11-8 17-8 7 0 12 3 17 8l224 224c10 9 10 24 0 34z"/>
<glyph glyph-name="arrow-bottom-circle" unicode="&#109;" d="M256 512c-142 0-256-114-256-256 0-142 114-256 256-256 142 0 256 114 256 256 0 142-114 256-256 256z m0-464c-115 0-208 93-208 208 0 115 93 208 208 208 115 0 208-93 208-208 0-115-93-208-208-208z m85 265l-85-85-85 85c-9 9-25 9-33 0-10-10-10-25 0-34l101-101c5-5 11-8 17-8 6 0 12 3 17 8l101 101c10 10 10 25 0 34-8 9-24 9-33 0z"/>
<glyph glyph-name="arrow-down-left" unicode="&#110;" d="M503 505c-10 9-25 9-34 0l-420-420 0 281c0 14-11 24-25 24-13 0-24-10-24-24l0-342c0-13 11-24 24-24l342 0c14 0 24 11 24 24 0 14-10 25-24 25l-285 0 422 422c10 8 10 24 0 34z"/>
<glyph glyph-name="arrow-down-right" unicode="&#111;" d="M488 390c-14 0-25-10-25-24l0-283-419 420c-10 10-25 10-34 0-9-10-10-25 0-34l419-420-283 0c-14 0-24-11-24-25 0-13 10-24 24-24l342 0c13 0 24 11 24 24l0 342c0 14-11 24-24 24z"/>
<glyph glyph-name="arrow-down-sm" unicode="&#112;" d="M376 148c-9 10-25 10-34 0l-60-60 0 398c0 14-11 24-24 24-14 0-25-10-25-24l0-401-63 64c-10 9-25 9-34 0-10-11-10-26-1-36l103-103c5-5 11-8 17-8 7 0 12 3 17 8l103 103c11 10 11 25 1 35z"/>
<glyph glyph-name="arrow-left" unicode="&#113;" d="M488 280l-401 0 184 184c9 10 9 25 0 34-10 10-26 10-35 0l-224-223c-5-5-7-12-7-17 0-7 2-13 7-17l224-225c10-10 26-10 35 0 9 10 9 25 0 34l-182 182 399 0c13 0 24 10 24 24 0 14-11 24-24 24z"/>
<glyph glyph-name="arrow-left-circle" unicode="&#114;" d="M256 512c-142 0-256-114-256-256 0-142 114-256 256-256 142 0 256 114 256 256 0 142-114 256-256 256z m0-464c-115 0-208 93-208 208 0 115 93 208 208 208 115 0 208-93 208-208 0-115-93-208-208-208z m57 327c-10 10-25 10-34 0l-102-102c-5-5-7-11-7-17 0-6 2-12 7-17l101-101c10-10 25-10 34 0 10 9 10 24 0 33l-84 85 85 85c9 9 9 25 0 34z"/>
<glyph glyph-name="arrow-left-sm" unicode="&#115;" d="M485 279l-400 0 63 63c10 10 10 25 0 34-10 10-25 10-35 1l-103-104c-5-5-8-11-8-17 0-7 3-12 8-17l103-103c10-10 25-10 34 0 10 9 10 25 0 34l-60 60 398 0c14 0 25 11 25 24 0 14-11 25-25 25z"/>
<glyph glyph-name="arrow-right" unicode="&#116;" d="M500 275l-224 224c-10 10-26 10-35 0-9-10-9-25 0-34l184-185-401 0c-13 0-24-10-24-24 0-14 11-24 24-24l399 0-182-182c-9-9-9-25 0-34 10-10 26-10 35 0l224 225c5 4 7 10 7 17 0 6-2 12-7 17z"/>
<glyph glyph-name="arrow-right-circle" unicode="&#117;" d="M256 512c-142 0-256-114-256-256 0-142 114-256 256-256 142 0 256 114 256 256 0 142-114 256-256 256z m0-464c-115 0-208 93-208 208 0 115 93 208 208 208 115 0 208-93 208-208 0-115-93-208-208-208z m-23 327c-10 10-25 10-34 0-9-9-9-25 0-33l85-86-85-85c-9-9-9-25 0-33 10-10 25-10 34 0l101 101c5 5 8 11 8 17 0 6-3 12-8 17z"/>
<glyph glyph-name="arrow-right-sm" unicode="&#118;" d="M500 275l-103 103c-10 10-26 10-35 0-9-10-9-25 0-34l64-64-402 0c-13 0-24-10-24-24 0-14 11-24 24-24l399 0-61-61c-9-9-9-25 0-34 10-9 26-9 35 0l103 104c5 4 7 10 7 17 0 6-2 12-7 17z"/>
<glyph glyph-name="arrow-top" unicode="&#119;" d="M496 276l-225 224c-4 5-11 7-17 7-6 0-12-2-17-7l-224-224c-10-10-10-26 0-35 10-9 25-9 34 0l185 184 0-401c0-13 10-24 24-24 14 0 24 11 24 24l0 399 182-182c9-9 25-9 34 0 10 10 10 26 0 35z"/>
<glyph glyph-name="arrow-top-circle" unicode="&#120;" d="M256 512c-142 0-256-114-256-256 0-142 114-256 256-256 142 0 256 114 256 256 0 142-114 256-256 256z m0-464c-115 0-208 93-208 208 0 115 93 208 208 208 115 0 208-93 208-208 0-115-93-208-208-208z m17 287c-5 5-11 7-17 7-6 0-12-2-17-7l-101-102c-10-10-10-25 0-34 9-9 24-9 33 0l85 85 85-85c9-9 25-9 33 0 10 10 10 25 0 34z"/>
<glyph glyph-name="arrow-top-left" unicode="&#121;" d="M505 41l-422 422 283 0c14 0 24 11 24 25 0 13-10 24-24 24l-342 0c-13 0-24-11-24-24l0-342c0-14 11-24 24-24 14 0 25 10 25 24l0 283 422-422c9-9 25-9 34 0 9 10 9 26 0 34z"/>
<glyph glyph-name="arrow-top-right" unicode="&#122;" d="M488 512l-342 0c-14 0-24-11-24-24 0-14 10-25 24-25l285 0-422-422c-10-9-10-25 0-34 10-9 25-9 34 0l420 420 0-281c0-14 11-24 25-24 13 0 24 10 24 24l0 342c0 13-11 24-24 24z"/>
<glyph glyph-name="arrow-top-sm" unicode="&#65;" d="M377 399l-104 103c-5 5-10 8-17 8-6 0-12-3-17-8l-104-103c-9-10-9-25 1-35 9-10 25-10 34 0l63 63 0-400c0-14 11-25 25-25 13 0 24 11 24 25l0 398 60-60c10-10 25-10 34 0 10 9 10 24 1 34z"/>
<glyph glyph-name="arrows-corners" unicode="&#66;" d="M488 192c-14 0-24-10-24-24l0-86-382 382 86 0c14 0 24 10 24 24 0 14-10 24-24 24l-144 0c-14 0-24-10-24-24l0-144c0-14 10-24 24-24 14 0 24 10 24 24l0 86 382-382-86 0c-14 0-24-10-24-24 0-14 10-24 24-24l144 0c14 0 24 10 24 24l0 144c0 14-10 24-24 24z"/>
<glyph glyph-name="arrows-fullscreen" unicode="&#67;" d="M488 320c14 0 24 10 24 24l0 144c0 14-10 24-24 24l-144 0c-14 0-24-10-24-24 0-14 10-24 24-24l86 0-174-174-174 174 86 0c14 0 24 10 24 24 0 14-10 24-24 24l-144 0c-14 0-24-10-24-24l0-144c0-14 10-24 24-24 14 0 24 10 24 24l0 86 174-174-174-174 0 86c0 14-10 24-24 24-14 0-24-10-24-24l0-144c0-14 10-24 24-24l144 0c14 0 24 10 24 24 0 14-10 24-24 24l-86 0 174 174 174-174-86 0c-14 0-24-10-24-24 0-14 10-24 24-24l144 0c14 0 24 10 24 24l0 144c0 14-10 24-24 24-14 0-24-10-24-24l0-86-174 174 174 174 0-86c0-14 10-24 24-24z"/>
<glyph glyph-name="arrows-h" unicode="&#68;" d="M498 276l-69 69c-10 9-25 9-34 0-10-10-10-26 0-35l29-30-341 0 29 30c10 9 10 25 0 34-10 10-25 10-34 0l-69-68c-5-5-7-11-7-18 0-6 2-12 7-17l69-69c10-9 25-9 34 0 10 10 10 25 0 34l-24 26 332 0-25-26c-10-9-10-25 0-34 10-9 25-9 34 0l69 69c5 5 8 11 8 17 0 6-3 13-8 18z"/>
<glyph glyph-name="arrows-v" unicode="&#69;" d="M341 117c-10 10-26 10-35 0l-26-25 0 332 26-25c9-10 25-10 34 0 9 10 9 25 0 34l-69 69c-5 5-11 8-17 8-7 0-13-3-18-8l-69-68c-9-10-9-25 0-34 10-10 26-10 35 0l30 29 0-341-30 29c-9 10-25 10-34 0-10-10-10-25 0-34l69-69c5-5 11-8 17-8 7 0 13 3 17 8l70 69c9 10 9 25 0 34z"/>
<glyph glyph-name="attachement" unicode="&#70;" d="M231 66c-39-39-103-39-142 0-40 39-40 103 0 142l126 126 116 117c26 26 70 26 97 0 26-27 26-71 0-97l-236-236c-15-15-37-15-52 0-15 15-15 37 0 52l188 187-25 25-189-187c-28-29-28-75 0-104 29-28 75-28 104 0l109 110 126 126c42 41 42 108 0 149-41 41-107 41-149 0l-115-116-126-126c-54-54-54-141 0-194 54-54 141-54 194 0l213 213-26 26z"/>
<glyph glyph-name="backpack" unicode="&#71;" d="M408 352l0 120c0 22-18 40-40 40-22 0-40-18-40-40l0-40c-22 10-46 16-72 16-26 0-50-6-72-16l0 40c0 22-18 40-40 40-22 0-40-18-40-40l0-120c-10-22-16-46-16-72l0-248c0-18 14-32 32-32l272 0c18 0 32 14 32 32l0 248c0 26-6 50-16 72z m-56 120c0 9 7 16 16 16 9 0 16-7 16-16l0-83c-10 11-20 21-32 29z m-224 0c0 9 7 16 16 16 9 0 16-7 16-16l0-54c-12-8-22-19-32-29z m272-440c0-5-3-8-8-8l-272 0c-5 0-8 4-8 8l0 16 288 0z m0 40l-288 0 0 208c0 43 19 82 50 109 2 1 4 4 7 5 1 1 3 3 5 4 2 1 4 3 7 4 21 14 48 22 75 22 28 0 54-8 76-22 2-1 5-3 7-4 2-2 3-3 5-4 2-2 4-4 6-5 31-27 50-65 50-109z m-144 328c-66 0-120-54-120-120l24 0c0 53 43 96 96 96 53 0 96-43 96-96l24 0c0 66-54 120-120 120z m96-156c0-6 6-12 12-12 6 0 12 6 12 12l0 20-24 0z m-8-28l-176 0c-18 0-32-14-32-32l0-56c0-18 14-32 32-32l176 0c18 0 32 14 32 32l0 56c0 18-14 32-32 32z m8-88c0-5-3-8-8-8l-176 0c-5 0-8 3-8 8l0 56c0 5 3 8 8 8l176 0c5 0 8-3 8-8z"/>
<glyph glyph-name="backward" unicode="&#72;" d="M491 458l-124-80-26-18-22-14 0 102c0 14-9 18-20 11l-290-190c-11-7-11-19 0-27l290-190c11-7 20-2 20 11l0 101 22-14 26-18 124-80c11-7 20-2 20 11l0 385c0 13-9 18-20 10z m-28-330l-192 126 0-126-195 128 195 128 0-126 192 126z"/>
<glyph glyph-name="backward-f" unicode="&#73;" d="M487 456l-170-111 0 100c0 13-8 18-19 11l-286-187c-11-7-11-19 0-26l286-188c11-7 19-2 19 11l0 100 170-111c11-7 19-2 19 11l0 379c0 13-8 18-19 11z"/>
<glyph glyph-name="balloon" unicode="&#74;" d="M448 206c-50-8-88-50-88-102 0-44-36-80-80-80-44 0-80 36-80 80l24 0c9 0 14 7 11 15l-5 17 5 17c0 1 1 1 1 3 58 30 100 118 100 186 0 82-65 170-144 170-79 0-144-88-144-170 0-68 42-156 101-187 0-1 0-1 1-3l5-17-5-17c-4-8 1-14 10-14l16 0c0-58 46-104 104-104 58 0 104 46 104 104 0 38 27 71 64 78 0 0 13 2 13 14 0 12-13 10-13 10z m-368 136c0 70 55 138 112 138 57 0 112-68 112-138 0-76-60-166-112-166-52 0-112 90-112 166z m128-198l0-16-32 0 0 16z"/>
<glyph glyph-name="bandage" unicode="&#75;" d="M480 480c-44 43-114 43-157 0l-291-291c-43-43-43-113 0-157 44-43 114-43 157 0l290 290c43 43 43 114 1 158z m-31-140l-277-277c-34-33-85-36-115-6-30 30-27 81 6 115l277 277c34 33 85 36 115 6 30-30 28-81-6-115z m-181-11c-7 6-18 6-24 0-7-7-7-18 0-25 6-6 17-6 24 0 7 7 7 18 0 25z m-60-61c-7 7-18 7-25 0-6-7-6-18 0-24 7-7 18-7 25 0 6 6 6 17 0 24z m90 30c-6 6-17 6-24 0-7-7-7-18 0-24 7-7 18-7 24 0 7 6 7 17 0 24z m-30-30c-7 7-17 7-24 0-7-7-7-17 0-24 7-7 17-7 24 0 7 7 7 17 0 24z m-30 30c-6 7-17 7-24 0-6-6-6-17 0-24 7-7 18-7 24 0 7 7 7 18 0 24z m60-60c-7 7-18 7-24 0-7-7-7-18 0-24 6-7 17-7 24 0 6 6 6 17 0 24z m-60 0c-7 7-18 7-24 0-7-6-7-17 0-24 6-6 17-6 24 0 7 7 7 18 0 24z m91 30c-7 7-18 7-25 0-6-6-6-17 0-24 7-7 18-7 25 0 6 7 6 18 0 24z m-61-60c-6 6-17 6-24 0-7-7-7-18 0-25 7-6 18-6 24 0 7 7 7 18 0 25z"/>
<glyph glyph-name="bar-chart" unicode="&#76;" d="M488 48l-440 0 0 440c0 14-10 24-24 24-14 0-24-10-24-24l0-464c0-14 10-24 24-24l464 0c14 0 24 10 24 24 0 14-10 24-24 24z m-368 32c18 0 32 14 32 32l0 256c0 18-14 32-32 32-18 0-32-14-32-32l0-256c0-18 14-32 32-32z m112 0c18 0 32 14 32 32l0 128c0 18-14 32-32 32-18 0-32-14-32-32l0-128c0-18 14-32 32-32z m112 0c18 0 32 14 32 32l0 192c0 18-14 32-32 32-18 0-32-14-32-32l0-192c0-18 14-32 32-32z m112 0c18 0 32 14 32 32l0 64c0 18-14 32-32 32-18 0-32-14-32-32l0-64c0-18 14-32 32-32z"/>
<glyph glyph-name="baseball" unicode="&#77;" d="M440 78c45 47 72 109 72 178 0 69-27 132-72 178 0 0-1 0-2 0-3 4-6 7-9 10 0 0-1 1-1 1-4 3-7 6-11 9 0 0-1 1-1 1-44 35-99 56-160 56-61 0-116-21-160-56-9-6-17-14-24-21-45-46-72-108-72-178 0-142 114-256 256-256 61 0 116 21 160 56 0 0 1 1 1 1 4 3 7 6 11 9 0 0 1 1 1 1 3 3 6 7 9 10 1 1 1 1 2 1z m-24 21c-13 13-24 28-34 44l15 7c8 4 11 13 8 21l-7 15c-4 8-13 11-21 8l-14-7c-5 15-8 30-9 45l14 0c9 0 16 7 16 16l0 16c0 9-7 16-16 16l-14 0c1 14 4 28 8 42l15-8c8-4 17 0 21 8l7 15c4 8 0 17-8 21l-16 8c9 17 21 32 35 47 39-40 64-96 64-157 0-61-25-116-64-157z m-320 314c14-15 26-31 36-48l-14-7c-8-4-11-13-8-21l7-15c4-8 13-11 21-8l12 6c4-13 7-26 8-40l-14 0c-9 0-16-7-16-16l0-16c0-9 7-16 16-16l14 0c-1-15-4-30-8-44l-11 5c-8 4-17 0-21-8l-7-15c-4-8 0-17 8-21l12-6c-9-17-21-31-34-45-39 40-64 96-64 157-1 62 24 117 63 158z m24-335c15 16 29 34 39 53l18-8c8-4 17 0 21 8l7 15c4 8 0 17-8 21l-19 9c7 18 11 38 12 58l18 0c9 0 16 7 16 16l0 16c0 8-7 16-16 16l-18 0c-1 18-5 36-11 53l17 8c8 4 11 14 8 22l-6 14c-4 8-14 11-22 8l-15-7c-11 21-25 39-41 56 38 27 85 44 136 44 51 0 98-18 136-46-16-16-30-35-41-55l-13 6c-8 4-17 0-21-8l-7-15c-4-8 0-17 8-21l15-7c-6-17-10-36-11-55l-18 0c-9 0-16-7-16-16l0-16c0-9 7-16 16-16l18 0c1-20 6-40 12-58l-15-7c-8-4-11-14-8-22l7-14c4-8 13-12 21-8l15 7c10-19 24-36 38-51-38-28-85-46-136-46-51 0-98 18-136 46z"/>
<glyph glyph-name="basketball" unicode="&#78;" d="M440 78c45 47 72 109 72 178 0 69-27 132-72 178 0 0-1 0-2 0-3 4-6 7-9 10 0 0-1 1-1 1-4 3-7 6-11 9 0 0-1 1-1 1-44 35-99 56-160 56-61 0-116-21-160-56-9-6-17-14-24-21-45-46-72-108-72-178 0-142 114-256 256-256 61 0 116 21 160 56 0 0 1 1 1 1 4 3 7 6 11 9 0 0 1 1 1 1 3 3 6 7 9 10 1 1 1 1 2 1z m-407 162l126 0c-4-54-27-104-63-141-36 37-59 87-63 141z m383 173c36-37 59-87 63-141l-126 0c4 54 27 104 63 141z m-95-141l-49 0 0 207c45-3 86-20 120-45-41-43-68-99-71-162z m-81 0l-49 0c-4 63-30 119-71 162 34 25 75 42 120 45z m-81 0l-126 0c4 54 27 104 63 141 36-37 59-87 63-141z m32-32l49 0 0-207c-45 3-86 20-120 45 41 43 67 100 71 162z m81 0l49 0c4-63 30-119 71-162-34-25-75-42-120-45z m81 0l126 0c-4-54-27-104-63-141-36 37-59 87-63 141z"/>
<glyph glyph-name="battery-charging" unicode="&#79;" d="M208 243l40 0 0-71c2 0 2 1 3 3l41 87c2 4 0 7-5 7l-40 0 0 71c-1 0-2-1-3-3l-41-87c-1-4 0-7 5-7z m296 61l-16 0 0 56c0 14-10 24-24 24l-440 0c-14 0-24-10-24-24l0-208c0-14 10-24 24-24l440 0c14 0 24 10 24 24l0 56 16 0c5 0 8 3 8 8l0 80c0 4-4 8-8 8z m-48-144l-424 0 0 192 424 0z"/>
<glyph glyph-name="battery-empty" unicode="&#80;" d="M504 304l-16 0 0 56c0 14-10 24-24 24l-440 0c-14 0-24-10-24-24l0-208c0-14 10-24 24-24l440 0c14 0 24 10 24 24l0 56 16 0c5 0 8 3 8 8l0 80c0 4-4 8-8 8z m-48-144l-424 0 0 192 424 0z"/>
<glyph glyph-name="battery-full" unicode="&#81;" d="M504 304l-16 0 0 56c0 14-10 24-24 24l-440 0c-14 0-24-10-24-24l0-208c0-14 10-24 24-24l440 0c14 0 24 10 24 24l0 56 16 0c5 0 8 3 8 8l0 80c0 4-4 8-8 8z"/>
<glyph glyph-name="battery-quarter" unicode="&#82;" d="M504 304l-16 0 0 56c0 14-10 24-24 24l-440 0c-14 0-24-10-24-24l0-208c0-14 10-24 24-24l440 0c14 0 24 10 24 24l0 56 16 0c5 0 8 3 8 8l0 80c0 4-4 8-8 8z m-48-144l-280 0 0 192 280 0z"/>
<glyph glyph-name="battery-two-quarter" unicode="&#83;" d="M504 304l-16 0 0 56c0 14-10 24-24 24l-440 0c-14 0-24-10-24-24l0-208c0-14 10-24 24-24l440 0c14 0 24 10 24 24l0 56 16 0c5 0 8 3 8 8l0 80c0 4-4 8-8 8z m-48-144l-136 0 0 192 136 0z"/>
<glyph glyph-name="beer" unicode="&#84;" d="M104 312l208 0 0-256-208 0z m338 0l-74 0 0 80c0 10-6 19-16 22 0 1 0 1 0 2 0 35-29 64-64 64-11 0-22-3-31-8-12 24-36 40-65 40-26 0-48-13-61-33-3 1-7 1-11 1-35 0-64-29-64-64 0-2 0-4 1-6-6-4-9-11-9-18l0-368c0-14 11-24 25-24l271 0c14 0 25 10 25 24l0 96 73 0c13 0 23 10 23 24l0 144c-1 14-11 24-23 24z m-310 144c5 0 10-1 14-2 6 20 24 34 46 34 26 0 48-22 48-48 0 0 0-1 0-1 5-1 9-2 13-4 7 13 20 21 35 21 22 0 40-18 40-40l-247 0c4 22 24 40 51 40z m204-410c0-8-6-14-14-14l-228 0c-8 0-14 6-14 14l0 324c0 8 6 14 14 14l228 0c8 0 14-6 14-14z m96 106l-64 0 0 128 64 0z"/>
<glyph glyph-name="behance" unicode="&#85;" d="M211 270c0 0 50 4 50 60 0 58-41 86-92 86l-169 0 0-320 169 0c0 0 103-3 103 94 0 0 5 80-61 80z m-137 89l95 0c0 0 23 0 23-33 0-34-14-39-29-39l-89 0z m91-206l-91 0 0 85 95 0c0 0 34 1 34-44 0-36-25-40-38-41z m171 247l128 0 0-40-128 0z m66-64c-122 0-122-120-122-120 0 0-8-120 122-120 0 0 108-6 108 83l-56 0c0 0 2-33-50-33 0 0-55-4-55 54l163 0c-1 0 17 136-110 136z m-55-94c0 0 7 48 55 48 49 0 48-48 48-48z"/>
<glyph glyph-name="behance-circle" unicode="&#86;" d="M256 512c-142 0-256-114-256-256 0-142 114-256 256-256 142 0 256 114 256 256 0 142-114 256-256 256z m64-144l96 0 0-32-96 0z m-56-161c0-73-76-71-76-71l-124 0 0 240 124 0c38 0 67-21 67-64 0-43-37-46-37-46 49 0 46-59 46-59z m102-33c40 0 38 26 38 26l42 0c0-69-81-64-81-64-99 0-93 92-93 92 0 0 0 92 92 92 97 0 83-104 83-104l-124 0c0-45 43-42 43-42z m-178 68l-70 0 0-64 67 0c9 0 28 4 28 32 1 33-25 32-25 32z m17 66c0 25-17 25-17 25l-70 0 0-53 66 0c11 0 21 3 21 28z m160-23c-37 0-43-37-43-37l79 0c1 0 1 37-36 37z"/>
<glyph glyph-name="behance-square" unicode="&#87;" d="M0 480c0 18 14 32 32 32l448 0c18 0 32-14 32-32l0-448c0-18-14-32-32-32l-448 0c-18 0-32 14-32 32z m219-214c0 0 37 3 37 46 0 43-30 64-67 64l-125 0 0-240 124 0c0 0 76-2 76 71 0 0 3 59-45 59z m101 70l96 0 0 32-96 0z m44-16c-92 0-92-92-92-92 0 0-6-92 92-92 0 0 82-5 82 64l-43 0c0 0 2-26-38-26 0 0-43-3-43 42l124 0c1 0 15 104-82 104z m-179-142l-67 0 0 64 70 0c0 0 25 0 25-32 1-28-18-31-28-32z m-67 156l70 0c0 0 17 0 17-25 0-25-10-29-21-29l-65 0 0 54z m284-86l-79 0c0 0 5 37 43 37 36 0 36-37 36-37z"/>
<glyph glyph-name="bell" unicode="&#88;" d="M254 7c36 0 67 16 88 41l-175 0c21-25 53-41 87-41z m146 177l0 144c0 74-56 135-128 143l0 25c0 9-7 16-16 16-9 0-16-7-16-16l0-25c-72-8-128-69-128-143l0-144c0-34-24-63-56-70l0-50 400 0 0 50c-32 7-56 36-56 70z m-305-88c30 18 49 51 49 88l0 144c0 58 43 105 99 111l13 2 13-2c56-6 99-53 99-111l0-144c0-37 19-70 49-88 2-2-324-2-322 0z"/>
<glyph glyph-name="bell-f" unicode="&#89;" d="M254 7c36 0 67 16 88 41l-175 0c21-25 53-41 87-41z m148 178l0 145c0 75-56 136-128 144l0 20c0 10-8 18-18 18-10 0-18-8-18-18l0-20c-72-8-128-70-128-144l0-145c0-34-23-63-54-71l0-48 400 0 0 48c-31 8-54 37-54 71z"/>
<glyph glyph-name="bell-off" unicode="&#90;" d="M248 16c34 0 65 15 84 39l-168 0c20-24 50-39 84-39z m229 446c-7 6-16 6-22 0l-76-76c-20 46-63 80-115 86l0 24c0 9-7 16-16 16-9 0-16-7-16-16l0-24c-71-8-126-68-126-141l0-142c0-34-23-62-55-69l0-49 13 0-33-33c-7-6-7-16 0-22 6-7 15-7 22 0l55 55 337 0 0 49c-31 7-55 35-55 69l0 142c0 7-1 13-2 20l89 89c6 5 6 15 0 22z m-387-360c29 19 48 51 48 87l0 142c0 57 42 103 98 109l12 2 13-2c45-4 82-37 93-78l-259-260c-4 0-5 0-5 0z m316 0c2 0-178-1-267 0l219 219 0-132c0-36 19-68 48-87z"/>
<glyph glyph-name="bell-off-f" unicode="&#48;" d="M266 475l0 19c0 10-8 18-18 18-10 0-18-8-18-18l0-19c-71-9-125-69-125-142l0-143c0-33-23-62-54-69l0-29 318 318c-22 35-59 59-103 65z m-19-460c34 0 65 16 85 40l-171 0c20-24 52-40 86-40z m144 175l0 131-247-248 301 0 0 48c-31 7-54 36-54 69z m86 272c-7 6-16 6-22 0l-424-424c-7-6-7-16 0-22 6-7 15-7 22 0l424 424c6 5 6 15 0 22z"/>
<glyph glyph-name="birthday-cake" unicode="&#49;" d="M256 146l-80-32-80 28c0-11 0-23 0-34l80-29 79 32 80-32 80 29c0 11 0 23 0 34l-80-28z m160 78l-104 0 0 120c0 9-7 16-16 16l-80 0c-9 0-16-7-16-16l0-120-104 0c-18 0-32-14-32-32l0-160c0-18 14-32 32-32l320 0c18 0 32 14 32 32l0 160c0 18-14 32-32 32z m-184 104l48 0 0-104-48 0z m184-186l0-34c0-38 0-75 0-75 0 0-320 0-320 0 0 0 0 37 0 75l0 34c0 28 0 50 0 50 0 0 320 0 320 0 0 0 0-22 0-50z m-160 234c26 0 48 22 48 48 0 26-22 88-48 88-26 0-48-62-48-88 0-26 22-48 48-48z m-5 88c2 3 3 6 5 10 2-3 3-6 5-10 6-14 11-32 11-40 0-9-7-16-16-16-9 0-16 7-16 16 0 8 5 26 11 40z"/>
<glyph glyph-name="bold" unicode="&#50;" d="M456 202c-8 16-18 28-30 38-12 9-26 18-42 22-15 5-30 9-46 11l0 3c16 4 29 8 42 15 13 6 25 15 34 25 10 10 18 22 23 35 6 13 8 28 8 42 0 25-5 44-14 60-10 16-24 28-40 37-16 9-36 15-57 18-22 2-45 4-67 4-22 0-40-1-57-2-16-2-33-3-51-3l-114 0 0-27c9-5 18-9 28-12 11-3 20-6 30-8l0-406c-10 0-19-3-29-7-10-4-20-8-29-14l0-27 85 0c7 0 17 0 28 0 12-1 23-1 35-2l36-2c12 0 23 0 33 0 27 0 52 2 77 8 24 5 47 14 66 26 19 12 35 27 46 45 11 19 17 41 17 67-1 21-5 39-12 54z m-250 260c7 1 13 2 21 3 7 1 16 1 27 1 24 0 44-8 61-21 15-14 23-37 23-67 0-20-6-39-17-55-11-16-26-27-45-35-7-1-14-2-22-3-9-1-17-1-25-1l-23 0z m125-386c-17-18-41-27-71-27-15 0-26 1-33 1-8 1-15 3-21 4l0 183 38 0c16 0 31-1 45-4 13-2 26-7 35-14 10-8 18-17 24-28 6-11 9-27 9-45 0-29-9-53-26-70z"/>
<glyph glyph-name="book" unicode="&#51;" d="M368 512l-280 0 0-448 32 0 0-64 40 16 40-16 0 64 168 0c31 0 56 25 56 56l0 336c0 31-25 56-56 56z m-248-32l32 0 0-384-32 0z m40-432l-16-8 0 24 32 0 0-24z m232 72c0-14-10-24-24-24l-184 0 0 384 184 0c14 0 24-10 24-24z m-56 280l-96 0c-9 0-16-7-16-16l0-32c0-9 7-16 16-16l96 0c9 0 16 7 16 16l0 32c0 9-7 16-16 16z m-8-40l-80 0 0 16 80 0z"/>
<glyph glyph-name="bookmark" unicode="&#52;" d="M463 480c0 18-14 32-32 32l-351 0c-18 0-32-14-32-32 1 0 0-79 0-81l0-343c0-61 34-74 76-31l105 109 27 28 28-28 102-106c43-45 78-30 78 32l0 339c0 2-1 81-1 81z m-40-433c-2 3-5 5-9 9l-158 164-161-166c-2-3-5-5-7-7 0 3 0 6 0 9l0 416 336 0 0-412c0-5 0-9-1-13z"/>
<glyph glyph-name="bookmark-f" unicode="&#53;" d="M464 403l0 77c0 18-14 32-32 32l-352 0c-18 0-32-14-32-32l0-77c0-1-1-2-1-4l0-342c0-61 35-75 76-31l133 137 130-134c43-45 78-31 78 32l0 338c1 2 0 3 0 4z"/>
<glyph glyph-name="box" unicode="&#54;" d="M512 416c0 18-14 32-32 32l-448 0c-18 0-32-14-32-32l0-320c0-18 14-32 32-32l448 0c18 0 32 14 32 32z m-480 0c0 0 448 0 448 0l0-96-448 0c0 0 0 96 0 96z m288-128c-14-19-38-32-64-32-26 0-50 13-64 32z m160 0c0 0 0-192 0-192 0 0-448 0-448 0 0 0 0 192 0 192l122 0c19-38 57-64 102-64 45 0 83 26 102 64 0 0 4 0 11 0 30 0 111 0 111 0z"/>
<glyph glyph-name="box-f" unicode="&#55;" d="M256 224c-42 0-78 26-90 64l-166 0 0-208c0-9 7-16 16-16l480 0c9 0 16 7 16 16l0 208-166 0c-12-38-48-64-90-64z m232 224l-464 0c-14 0-24-10-24-24l0-104 512 0 0 104c0 14-10 24-24 24z"/>
<glyph glyph-name="brightness" unicode="&#56;" d="M256 512c-142 0-256-114-256-256 0-142 114-256 256-256 142 0 256 114 256 256 0 142-114 256-256 256z m-208-256c0 115 93 208 208 208l0-416c-115 0-208 93-208 208z"/>
<glyph glyph-name="brightness-down" unicode="&#57;" d="M75 256c0 7 0 14 1 21l-55 0c-11 0-21-9-21-21 0-12 10-21 21-21l55 0c-1 7-1 14-1 21z m38 112c9 11 19 21 30 30l-37 39c-9 9-23 9-31 0-9-8-9-21 0-30z m164 68l0 55c0 11-9 21-21 21-12 0-21-10-21-21l0-55c7 1 14 1 21 1 7 0 14 0 21-1z m122-68l38 38c9 9 9 22 0 30-8 9-21 9-30 0l-38-38c11-9 20-18 30-30z m-164-292l0-55c0-11 9-21 21-21 12 0 21 10 21 21l0 55c-7-1-14-1-21-1-7 0-14 0-21 1z m164 68c-9-11-19-21-30-30l38-38c9-9 22-9 30 0 9 8 9 21 0 30z m-286 0l-38-38c-9-9-9-22 0-30 8-9 21-9 30 0l38 38c-11 9-20 18-30 30z m378 133l-55 0c1-7 1-14 1-21 0-7 0-14-1-21l55 0c11 0 21 9 21 21 0 12-10 21-21 21z m-86-21c0-82-67-149-149-149-82 0-149 67-149 149 0 82 67 149 149 149 82 0 149-67 149-149z"/>
<glyph glyph-name="brightness-up" unicode="&#33;" d="M149 340c6 8 14 16 22 22l-74 75c-7 6-16 6-23 0-6-7-6-16 0-23z m0-168l-75-74c-6-7-6-16 0-23 7-6 16-6 23 0l74 75c-8 6-15 13-22 22z m123 219l0 105c0 9-7 16-16 16-9 0-16-7-16-16l0-105c6 1 10 1 16 1 6 0 10 0 16-1z m91-51l75 74c6 7 6 16 0 23-7 6-16 6-23 0l-74-75c8-6 15-13 22-22z m-243-84c0 6 0 10 1 16l-105 0c-9 0-16-7-16-16 0-9 7-16 16-16l105 0c-1 6-1 10-1 16z m376 16l-105 0c1-6 1-10 1-16 0-6 0-10-1-16l105 0c9 0 16 7 16 16 0 9-7 16-16 16z m-256-151l0-105c0-9 7-16 16-16 9 0 16 7 16 16l0 105c-6-1-10-1-16-1-6 0-10 0-16 1z m123 51c-6-8-14-16-22-22l74-75c7-6 16-6 23 0 6 7 6 16 0 23z m5 84c0-62-50-112-112-112-62 0-112 50-112 112 0 62 50 112 112 112 62 0 112-50 112-112z"/>
<glyph glyph-name="brush" unicode="&#34;" d="M490 463c-18 19-49 19-69 2l-225-206-17-17-43-85c-22 1-45-9-59-27-12-29-95-74-68-91 25-13 153 7 169 34 7 11 8 24 6 37l85 42 17 17 204 225c20 19 19 50 0 69z m-333-379c-1 0-1 0 0 0-5-3-10-6-17-6-12-6-28-10-46-11-18-5-37-5-51-5 4 3 10 8 17 16 26 18 34 27 39 40 11 13 31 18 46 11 15-10 21-29 12-45z m29 62l-13 12 15 31 28-28z m61 28l-45 46 16 17 46-46z m221 241l-182-200-44 43 200 183c8 6 19 6 26-1 6-6 6-18 0-25z"/>
<glyph glyph-name="bus" unicode="&#35;" d="M376 512l-240 0c-49 0-88-39-88-88l0-272c0-31 16-58 40-74l0-54c0-14 10-24 24-24l40 0c14 0 24 10 24 24l0 40 160 0 0-40c0-14 10-24 24-24l40 0c14 0 24 10 24 24l0 54c24 16 40 44 40 74l0 272c0 49-39 88-88 88z m-240-24l240 0c33 0 59-25 63-56l-366 0c4 31 30 56 63 56z m304-80l0-208-368 0 0 208z m-288-384c0 0-40 0-40 0l0 40c0 0 40 0 40 0 0 0 0-40 0-40z m248 40c0 0 0-40 0-40 0 0-40 0-40 0 0 0 0 40 0 40z m-24 24l-240 0c-35 0-64 29-64 64l0 24 368 0 0-24c0-35-29-64-64-64z m-240 80c-18 0-32-14-32-32 0-18 14-32 32-32 18 0 32 14 32 32 0 18-14 32-32 32z m0-48c-9 0-16 7-16 16 0 9 7 16 16 16 9 0 16-7 16-16 0-9-7-16-16-16z m240 48c-18 0-32-14-32-32 0-18 14-32 32-32 18 0 32 14 32 32 0 18-14 32-32 32z m0-48c-9 0-16 7-16 16 0 9 7 16 16 16 9 0 16-7 16-16 0-9-7-16-16-16z m-264 120c5 0 8 3 8 8l0 120c0 5-3 8-8 8-5 0-8-3-8-8l0-120c0-5 3-8 8-8z"/>
<glyph glyph-name="cactus" unicode="&#36;" d="M408 344c-29 0-52-23-52-52l0-36-16 0 0 176c0 44-36 80-80 80-44 0-80-36-80-80l0-80-24 0 0 60c0 29-23 52-52 52-29 0-52-23-52-52l0-116c0-31 25-56 56-56l72 0 0-208-72 0c-9 0-16-7-16-16l0-16 336 0 0 16c0 9-7 16-16 16l-72 0 0 112 64 0c31 0 56 25 56 56l0 92c0 29-23 52-52 52z m20-148c0-11-9-20-20-20l-100 0 0-144-96 0 0 240-108 0c-11 0-20 9-20 20l0 120c0 11 9 20 20 20 11 0 20-9 20-20l0-92 88 0 0 112c0 26 22 48 48 48 26 0 48-22 48-48l0-208 80 0 0 68c0 11 9 20 20 20 11 0 20-9 20-20z m-172 68c-6 0-12-6-12-12l0-176c0-6 6-12 12-12 6 0 12 6 12 12l0 176c0 6-6 12-12 12z m0 72c-6 0-12-6-12-12l0-32c0-6 6-12 12-12 6 0 12 6 12 12l0 32c0 6-6 12-12 12z"/>
<glyph glyph-name="calculator" unicode="&#37;" d="M400 512l-288 0c-26 0-48-22-48-48l0-416c0-26 22-48 48-48l288 0c26 0 48 22 48 48l0 416c0 26-22 48-48 48z m16-464c0-9-7-16-16-16l-288 0c-9 0-16 7-16 16l0 416c0 9 7 16 16 16l288 0c9 0 16-7 16-16z m-56 400l-208 0c-9 0-16-7-16-16l0-64c0-9 7-16 16-16l208 0c9 0 16 7 16 16l0 64c0 9-7 16-16 16z m-192-128l-16 0c-9 0-16-7-16-16l0-16c0-9 7-16 16-16l16 0c9 0 16 7 16 16l0 16c0 9-7 16-16 16z m64-216l-16 0c-9 0-16-7-16-16l0-16c0-9 7-16 16-16l16 0c9 0 16 7 16 16l0 16c0 9-7 16-16 16z m0 72l-16 0c-9 0-16-7-16-16l0-16c0-9 7-16 16-16l16 0c9 0 16 7 16 16l0 16c0 9-7 16-16 16z m-64 72l-16 0c-9 0-16-7-16-16l0-16c0-9 7-16 16-16l16 0c9 0 16 7 16 16l0 16c0 9-7 16-16 16z m64 0l-16 0c-9 0-16-7-16-16l0-16c0-9 7-16 16-16l16 0c9 0 16 7 16 16l0 16c0 9-7 16-16 16z m-64-144l-16 0c-9 0-16-7-16-16l0-16c0-9 7-16 16-16l16 0c9 0 16 7 16 16l0 16c0 9-7 16-16 16z m0 72l-16 0c-9 0-16-7-16-16l0-16c0-9 7-16 16-16l16 0c9 0 16 7 16 16l0 16c0 9-7 16-16 16z m192 0l-16 0c-9 0-16-7-16-16l0-88c0-9 7-16 16-16l16 0c9 0 16 7 16 16l0 88c0 9-7 16-16 16z m0 72l-16 0c-9 0-16-7-16-16l0-16c0-9 7-16 16-16l16 0c9 0 16 7 16 16l0 16c0 9-7 16-16 16z m-128 72l-16 0c-9 0-16-7-16-16l0-16c0-9 7-16 16-16l16 0c9 0 16 7 16 16l0 16c0 9-7 16-16 16z m128 0l-16 0c-9 0-16-7-16-16l0-16c0-9 7-16 16-16l16 0c9 0 16 7 16 16l0 16c0 9-7 16-16 16z m-64 0l-16 0c-9 0-16-7-16-16l0-16c0-9 7-16 16-16l16 0c9 0 16 7 16 16l0 16c0 9-7 16-16 16z m0-216l-16 0c-9 0-16-7-16-16l0-16c0-9 7-16 16-16l16 0c9 0 16 7 16 16l0 16c0 9-7 16-16 16z m0 72l-16 0c-9 0-16-7-16-16l0-16c0-9 7-16 16-16l16 0c9 0 16 7 16 16l0 16c0 9-7 16-16 16z m0 72l-16 0c-9 0-16-7-16-16l0-16c0-9 7-16 16-16l16 0c9 0 16 7 16 16l0 16c0 9-7 16-16 16z"/>
<glyph glyph-name="calendar" unicode="&#38;" d="M480 400l-56 0 0 48c0 9-7 16-16 16-9 0-16-7-16-16l0-48-72 0 0 48c0 9-7 16-16 16-9 0-16-7-16-16l0-48-72 0 0 48c0 9-7 16-16 16-9 0-16-7-16-16l0-48-72 0 0 48c0 9-7 16-16 16-9 0-16-7-16-16l0-48-48 0c-18 0-32-14-32-32l0-288c0-18 14-32 32-32l448 0c18 0 32 14 32 32l0 288c0 18-14 32-32 32z m0-320c0 0-448 0-448 0 0 0 0 288 0 288 0 0 18 0 48 0 0-9 7-16 16-16 9 0 16 7 16 16 22 0 46 0 72 0 0-9 7-16 16-16 9 0 16 7 16 16 24 0 48 0 72 0 0-9 7-16 16-16 9 0 16 7 16 16 26 0 50 0 72 0 0-9 7-16 16-16 9 0 16 7 16 16 34 0 56 0 56 0 0 0 0-288 0-288z m-256 216c0-9-7-16-16-16-9 0-16 7-16 16 0 9 7 16 16 16 9 0 16-7 16-16z m-96 0c0-9-7-16-16-16-9 0-16 7-16 16 0 9 7 16 16 16 9 0 16-7 16-16z m96-80c0-9-7-16-16-16-9 0-16 7-16 16 0 9 7 16 16 16 9 0 16-7 16-16z m0-80c0-9-7-16-16-16-9 0-16 7-16 16 0 9 7 16 16 16 9 0 16-7 16-16z m-96 80c0-9-7-16-16-16-9 0-16 7-16 16 0 9 7 16 16 16 9 0 16-7 16-16z m0-80c0-9-7-16-16-16-9 0-16 7-16 16 0 9 7 16 16 16 9 0 16-7 16-16z m288 80c0-9-7-16-16-16-9 0-16 7-16 16 0 9 7 16 16 16 9 0 16-7 16-16z m0-80c0-9-7-16-16-16-9 0-16 7-16 16 0 9 7 16 16 16 9 0 16-7 16-16z m-96 0c0-9-7-16-16-16-9 0-16 7-16 16 0 9 7 16 16 16 9 0 16-7 16-16z m96 160c0-9-7-16-16-16-9 0-16 7-16 16 0 9 7 16 16 16 9 0 16-7 16-16z m-96-80c0-9-7-16-16-16-9 0-16 7-16 16 0 9 7 16 16 16 9 0 16-7 16-16z m0 80c0-9-7-16-16-16-9 0-16 7-16 16 0 9 7 16 16 16 9 0 16-7 16-16z"/>
<glyph glyph-name="calendar-alt" unicode="&#39;" d="M488 456l-464 0c-14 0-24-10-24-24l0-360c0-9 7-16 16-16l480 0c9 0 16 7 16 16l0 360c0 14-10 24-24 24z m-8-368l-448 0 0 240 448 0z m0 272l-448 0 0 64 448 0z m-166-210c-17 0-30 8-39 18l-10-13c10-11 25-21 50-21 28 0 51 16 51 44 0 20-15 34-33 39l0 1c17 6 28 17 28 36 0 25-19 40-46 40-17 0-32-8-44-20l11-12c8 8 20 16 32 16 16 0 27-10 27-24 0-16-11-29-43-29l0-17c36 0 48-12 48-30 0-17-13-28-32-28z m-122 126c19 0 29-13 29-30 0-25-26-52-72-99l0-11 99 0 0 17-44 0c-8 0-18-1-26-2 36 38 63 67 63 95 0 28-18 45-46 45-20 0-33-9-46-23l11-11c8 11 19 19 32 19z"/>
<glyph glyph-name="camera" unicode="&#40;" d="M382 370l0 20c0 19-16 34-35 34l-181 0c-20 0-36-15-36-34l0-20-56 0c-23 0-41-18-41-40l0-202c0-22 18-40 41-40l364 0c24 0 42 18 42 40l0 202c0 22-18 40-42 40l-56 0m59 31c39 0 71-31 71-69l0-207c0-39-32-69-71-69l-370 0c-39 0-71 31-71 69l0 207c0 38 32 69 71 69l29 0c3 31 30 55 63 55l185 0c33 0 60-24 64-55z m-185-257c53 0 96 43 96 96 0 53-43 96-96 96-53 0-96-43-96-96 0-53 43-96 96-96z m0-32c-70 0-128 58-128 128 0 70 58 128 128 128 70 0 128-58 128-128 0-70-58-128-128-128z m192 200c0-13-11-24-24-24-13 0-24 11-24 24 0 13 11 24 24 24 13 0 24-11 24-24z"/>
<glyph glyph-name="camera-alt" unicode="&#41;" d="M408 512l-304 0c-58 0-104-46-104-104l0-304c0-58 46-104 104-104l304 0c58 0 104 46 104 104l0 304c0 58-46 104-104 104z m-376-104c0 40 32 72 72 72l304 0c40 0 72-32 72-72l0-248-448 0z m376-376l-304 0c-40 0-72 32-72 72l0 24 448 0 0-24c0-40-32-72-72-72z m24 416l-32 0c-9 0-16-7-16-16l0-32c0-9 7-16 16-16l32 0c9 0 16 7 16 16l0 32c0 9-7 16-16 16z m-320-192l-32 0c-9 0-16-7-16-16l0-32c0-9 7-16 16-16l32 0c9 0 16 7 16 16l0 32c0 9-7 16-16 16z m296-160l-304 0c-9 0-16-7-16-16 0-9 7-16 16-16l304 0c9 0 16 7 16 16 0 9-7 16-16 16z m-152 328c-58 0-104-46-104-104 0-58 46-104 104-104 58 0 104 46 104 104 0 58-46 104-104 104z m0-176c-40 0-72 32-72 72 0 40 32 72 72 72 40 0 72-32 72-72 0-40-32-72-72-72z"/>
<glyph glyph-name="candle" unicode="&#42;" d="M448 120c0 40-32 72-72 72-40 0-72-32-72-72 0-15 5-29 12-40l-60 0 0 224c0 9-7 16-16 16l-32 0 0 18c27 8 48 31 48 60 0 33-64 114-64 114 0 0-64-81-64-114 0-29 21-53 48-60l0-18-32 0c-9 0-16-7-16-16l0-224-32 0c-18 0-32-14-32-32l0-48 320 0 0 48c0 0 0 0 0 1 36 4 64 34 64 71z m-288 278c0 4 6 16 15 33 3 6 7 12 11 19 2 2 4 5 6 8 2-3 3-6 6-8 4-7 8-13 11-19 9-17 15-30 15-33 0-11-6-20-16-26l0 4c0 9-7 16-16 16-9 0-16-7-16-16l0-4c-10 6-16 14-16 26z m0-110l64 0 0-208-64 0z m192-240l0-16-256 0 0 16z m24 32c-22 0-40 18-40 40 0 22 18 40 40 40 22 0 40-18 40-40 0-22-18-40-40-40z"/>
<glyph glyph-name="car" unicode="&#43;" d="M480 320l-54 150c-7 20-30 37-52 37l-236 0c-22 0-45-17-52-37l-54-150c-19-17-32-41-32-69l0-79c0-34 20-65 49-79l0-59c0-16 13-29 30-29l49 0c17 0 30 13 30 29l0 50 196 0 0-50c0-16 13-29 30-29l49 0c17 0 30 13 30 29l0 59c29 14 49 44 49 79l0 79c0 28-13 52-32 69z m-409 20l42 120c3 9 16 18 25 18l236 0c9 0 22-9 25-18l42-120z m57-306c0 0-49 0-49 0l0 50c0 0 49 0 49 0 0 0 0-50 0-50z m305 50c0 0 0-50 0-50 0 0-49 0-49 0 0 0 0 50 0 50z m49 88c0-32-26-59-59-59l-334 0c-33 0-59 27-59 59l0 79c0 33 26 59 59 59l334 0c33 0 59-26 59-59z m-374 69c-21 0-39-17-39-39 0-22 18-40 39-40 22 0 40 18 40 40 0 22-18 39-40 39z m0-59c-11 0-19 9-19 20 0 11 8 20 19 20 11 0 20-9 20-20 0-11-9-20-20-20z m296 59c-22 0-40-17-40-39 0-22 18-40 40-40 21 0 39 18 39 40 0 22-18 39-39 39z m0-59c-11 0-20 9-20 20 0 11 9 20 20 20 11 0 19-9 19-20 0-11-8-20-19-20z m-69 59c-6 0-10-4-10-10l0-59c0-5 4-10 10-10 6 0 10 4 10 10l0 59c0 5-4 10-10 10z m-79 0c-6 0-10-4-10-10l0-59c0-5 4-10 10-10 6 0 10 4 10 10l0 59c0 5-4 10-10 10z m39 0c-6 0-9-4-9-10l0-59c0-5 3-10 9-10 6 0 10 4 10 10l0 59c0 5-4 10-10 10z m-118 0c-6 0-10-4-10-10l0-59c0-5 4-10 10-10 6 0 10 4 10 10l0 59c0 5-4 10-10 10z m40 0c-6 0-10-4-10-10l0-59c0-5 4-10 10-10 6 0 9 4 9 10l0 59c0 5-3 10-9 10z m-69 214c-5 2-10-1-12-7l-25-75c-2-5 1-11 6-13 5-2 11 1 13 6l25 75c2 7-1 12-7 14z"/>
<glyph glyph-name="caret-down" unicode="&#44;" d="M496 416l-480 0c-9 0-11-6-6-13l241-301c3-4 7-4 10 0l241 301c5 7 3 13-6 13z"/>
<glyph glyph-name="caret-down-circle" unicode="&#45;" d="M256 512c-142 0-256-114-256-256 0-142 114-256 256-256 142 0 256 114 256 256 0 142-114 256-256 256z m0-464c-115 0-208 93-208 208 0 115 93 208 208 208 115 0 208-93 208-208 0-115-93-208-208-208z m103 247l-206 0c-9 0-11-5-6-12l103-113c4-4 8-4 11 0l103 113c6 7 4 12-5 12z"/>
<glyph glyph-name="caret-left" unicode="&#46;" d="M403 502l-301-241c-3-3-3-7 0-10l302-241c7-5 13-3 13 6l0 480c-1 9-7 11-14 6z"/>
<glyph glyph-name="caret-left-circle" unicode="&#47;" d="M256 512c-142 0-256-114-256-256 0-142 114-256 256-256 142 0 256 114 256 256 0 142-114 256-256 256z m0-464c-115 0-208 93-208 208 0 115 93 208 208 208 115 0 208-93 208-208 0-115-93-208-208-208z m27 317l-113-103c-4-4-4-8 0-11l113-103c7-6 12-4 12 6l0 205c0 9-5 11-12 6z"/>
<glyph glyph-name="caret-right" unicode="&#58;" d="M410 261l-301 241c-7 5-13 3-13-6l0-480c0-9 6-11 13-6l301 241c4 3 4 7 0 10z"/>
<glyph glyph-name="caret-right-circle" unicode="&#59;" d="M256 512c-142 0-256-114-256-256 0-142 114-256 256-256 142 0 256 114 256 256 0 142-114 256-256 256z m0-464c-115 0-208 93-208 208 0 115 93 208 208 208 115 0 208-93 208-208 0-115-93-208-208-208z m-27 317c-7 5-12 4-12-6l0-206c0-9 5-11 12-6l113 103c4 4 4 8 0 11z"/>
<glyph glyph-name="caret-top" unicode="&#60;" d="M502 109l-241 301c-3 3-7 3-10 0l-241-301c-5-7-3-13 6-13l480 0c9 0 11 6 6 13z"/>
<glyph glyph-name="caret-top-circle" unicode="&#61;" d="M256 512c-142 0-256-114-256-256 0-142 114-256 256-256 142 0 256 114 256 256 0 142-114 256-256 256z m0-464c-115 0-208 93-208 208 0 115 93 208 208 208 115 0 208-93 208-208 0-115-93-208-208-208z m6 286c-4 4-8 4-11 0l-104-113c-5-7-4-12 6-12l206 0c9 0 11 5 6 12z"/>
<glyph glyph-name="castle" unicode="&#62;" d="M496 256l-64 0c-9 0-16-7-16-16l0-48-32 0 0 146c23 8 40 28 40 54l0 104c0 9-7 16-16 16l-64 0c-9 0-16-7-16-16l0-48-24 0 0 48c0 9-7 16-16 16l-64 0c-9 0-16-7-16-16l0-48-24 0 0 48c0 9-7 16-16 16l-64 0c-9 0-16-7-16-16l0-104c0-26 17-46 40-54l0-146-32 0 0 48c0 9-7 16-16 16l-64 0c-9 0-16-7-16-16l0-240 512 0 0 240c0 9-7 16-16 16z m-368-224l-96 0 0 192 32 0 0-64 64 0z m168 0l-80 0 0 88c0 22 18 40 40 40 22 0 40-18 40-40z m56 160l0-160-24 0 0 88c0 40-32 72-72 72-40 0-72-32-72-72l0-88-24 0 0 304 192 0z m16 176l-224 0c-14 0-24 10-24 24l0 88 32 0 0-64 88 0 0 64 32 0 0-64 88 0 0 64 32 0 0-88c0-14-10-24-24-24z m112-336l-96 0 0 128 64 0 0 64 32 0z m-184 248c0 22-18 40-40 40-22 0-40-18-40-40l0-64 80 0z m-24-40l-32 0 0 40c0 9 7 16 16 16 9 0 16-7 16-16z"/>
<glyph glyph-name="check" unicode="&#63;" d="M504 422c-10 11-26 11-36 0l-284-283-138 138c-10 11-26 11-36 0-10-10-10-26 0-36l157-157c5-5 12-7 18-7 7 0 13 2 18 7l301 303c11 9 11 25 0 35z"/>
<glyph glyph-name="chess" unicode="&#64;" d="M364 72l-15 0-25 176 4 0c18 0 32 14 32 32 0 18-14 32-32 32l-3 0 13 65c3 17-8 31-26 31l-24 0 0 8 16 0c9 0 16 7 16 16l0 32c0 9-7 16-16 16l-16 0 0 16c0 9-7 16-16 16l-32 0c-9 0-16-7-16-16l0-16-16 0c-9 0-16-7-16-16l0-32c0-9 7-16 16-16l16 0 0-8-24 0c-18 0-30-14-26-31l13-65-3 0c-18 0-32-14-32-32 0-18 14-32 32-32l5 0-26-176-15 0c-20 0-36-16-36-36l0-20c0-9 7-16 16-16l256 0c9 0 16 7 16 16l0 20c0 20-16 36-36 36z m-148 368l0 16 32 0 0 32 16 0 0-32 32 0 0-16-32 0 0-32-16 0 0 32z m-18-58c0 2 0 2 2 2l112 0c2 0 2 0 2-2l-14-70-88 0z m-14-110c-5 0-8 4-8 8 0 5 3 8 8 8l144 0c5 0 8-4 8-8 0-5-3-8-8-8z m29-24l86 0 25-176-136 0z m163-224l-240 0 0 12c0 6 6 12 12 12l216 0c6 0 12-6 12-12z"/>
<glyph glyph-name="close" unicode="&#91;" d="M505 42l-213 213 210 211c10 10 10 25 0 34-10 10-26 10-35 0l-210-209-208 207c-10 10-26 10-35 0-10-10-10-26 0-35l207-207-209-211c-10-9-10-25 0-34 9-10 25-10 34 0l211 210 213-213c10-10 25-10 35 0 9 9 9 25 0 34z"/>
<glyph glyph-name="cloud" unicode="&#93;" d="M400 328c-8 0-17-1-24-2-18 48-66 82-120 82-56 0-104-36-121-86-4-14-6-24-6-29-5 1-15 3-33 3-53 0-96-43-96-96 0-53 43-96 96-96l304 0c62 0 112 50 112 112 0 62-50 112-112 112z m0-192l-304 0c-35 0-64 29-64 64 0 35 29 64 64 64 7 0 14-2 22-4l39-14 3 42c4 50 46 88 96 88 40 0 76-25 90-62l9-25 27 5c6 2 12 2 18 2 44 0 80-36 80-80 0-44-36-80-80-80z"/>
<glyph glyph-name="cloud-f" unicode="&#94;" d="M400 328c-8 0-17-1-24-2-18 48-66 82-120 82-67 0-122-52-127-118-11 4-22 6-33 6-53 0-96-43-96-96 0-53 43-96 96-96l304 0c62 0 112 50 112 112 0 62-50 112-112 112z"/>
<glyph glyph-name="code" unicode="&#95;" d="M164 364l-22 22c-4 4-8 4-12 0l-124-124c-2-2-3-4-3-6 0-2 1-4 3-6l124-124c4-4 8-4 12 0l22 22c3 3 3 8 0 11l-96 96 96 96c3 4 3 10 0 13z m342-102l-124 124c-4 4-8 4-12 0l-22-22c-3-3-3-8 0-11l96-96-96-96c-3-3-3-8 0-11l22-23c4-3 8-3 12 0l124 125c2 2 3 4 3 6-1 0-2 2-3 4z m-190 176c-13 4-26-4-30-16l-104-319c-4-13 3-26 15-30 12-4 26 3 30 15l104 320c4 12-2 26-15 30z"/>
<glyph glyph-name="coffee-alt" unicode="&#96;" d="M392 456l0 12c0 24-20 44-44 44l-184 0c-24 0-44-20-44-44l0-12c-9 0-16-7-16-16l0-56c0-9 7-16 16-16l2 0 2-64-4 0 8-200 4 0 5-104 238 0 5 104 4 0 8 200-4 0 2 64 2 0c9 0 16 7 16 16l0 56c0 9-7 16-16 16z m-43-320l-186 0-5 136 196 0z m-5-103l-176 0-3 71 182 0z m-188 271l-2 63 204 0-2-63z m220 96l-240 0 0 24 240 0z m-224 68c0 6 6 12 12 12l184 0c6 0 12-6 12-12l0-12-208 0z"/>
<glyph glyph-name="coffee-cup" unicode="&#123;" d="M428 268l-428 0c0-114 50-212 123-256l170 0c34 21 64 54 85 96-1-2-2-6-4-8l54 0c46 0 84 38 84 84 0 46-38 84-84 84z m-144-224l-152 0c-53 36-90 108-98 192l348 0c-8-84-45-156-98-192z m144 88l-38 0c0 0 0-1 0-1 13 34 23 71 25 112 0-2 0-5-1-7l14 0c29 0 52-23 52-52 0-29-23-52-52-52z m-262 165c0 0 33 12 28 49-3 16-12 36-12 57-1 12-2 27 0 40 3 31 12 57 12 57 0 0-52-25-50-78 1-27 11-53 22-76 16-31 0-49 0-49z m56 17c0 0 21 8 17 32-1 9-7 22-8 36-1 26 8 61 8 61 0 0-33-16-31-50 1-17 7-34 14-48 11-19 0-31 0-31z"/>
<glyph glyph-name="coffee-cup-f" unicode="&#124;" d="M428 268l-12 0c0-6 0-13-1-19 0 6 1 13 1 19l-416 0c0-114 50-212 123-256l170 0c34 21 64 54 85 96-1-2-2-6-4-8l54 0c46 0 84 38 84 84 0 46-38 84-84 84z m0-136l-38 0c0 0 0-1 0-1 13 34 23 71 25 112 0-2 0-5-1-7l14 0c29 0 52-23 52-52 0-29-23-52-52-52z m-46-18c2 4 4 7 5 11-2-3-3-7-5-11z m-216 183c0 0 33 12 28 49-3 16-12 36-12 57-1 12-2 27 0 40 3 31 12 57 12 57 0 0-52-25-50-78 1-27 11-53 22-76 16-31 0-49 0-49z m56 17c0 0 21 8 17 32-1 9-7 22-8 36-1 26 8 61 8 61 0 0-33-16-31-50 1-17 7-34 14-48 11-19 0-31 0-31z"/>
<glyph glyph-name="cog" unicode="&#125;" d="M456 256c0 30 21 55 49 62-7 25-16 48-29 70-25-14-57-11-78 10-22 20-25 53-10 78-22 13-45 22-70 29-7-28-32-49-62-49-30 0-55 21-62 49-25-7-48-16-70-29 14-25 11-57-10-78-20-22-53-25-78-10-13-22-22-45-29-70 28-7 49-32 49-62 0-30-21-55-49-62 7-25 16-48 29-70 25 14 57 11 78-10 22-20 25-53 10-78 22-13 45-22 70-29 7 28 32 49 62 49 30 0 55-21 62-49 25 7 48 16 70 29-14 25-11 57 10 78 20 22 53 25 78 10 13 22 22 45 29 70-28 7-49 32-49 62z m4-92c-30 6-62-3-86-26-23-24-32-56-26-86-4-2-9-4-13-6-17 26-46 42-79 42-33 0-62-16-79-42-5 2-9 4-13 6 6 30-3 62-26 86-24 23-56 32-86 26-2 4-4 9-6 13 26 17 42 46 42 79 0 33-16 62-42 79 2 4 4 9 6 13 30-6 62 3 86 26 23 24 32 56 26 86 4 2 9 4 13 6 17-26 46-42 79-42 33 0 62 16 79 42 4-2 9-4 13-6-6-30 3-62 26-86 24-23 56-32 86-26 2-4 4-9 6-13-26-17-42-46-42-79 0-33 16-62 42-79-2-4-4-9-6-13z m-204 204c-62 0-112-50-112-112 0-62 50-112 112-112 62 0 112 50 112 112 0 62-50 112-112 112z m0-192c-44 0-80 36-80 80 0 44 36 80 80 80 44 0 80-36 80-80 0-44-36-80-80-80z"/>
<glyph glyph-name="cog-f" unicode="&#126;" d="M456 256c0 30 21 55 49 62-7 25-16 48-29 70-25-14-57-11-78 10-22 20-25 53-10 78-22 13-45 22-70 29-7-28-32-49-62-49-30 0-55 21-62 49-25-7-48-16-70-29 14-25 11-57-10-78-20-22-53-25-78-10-13-22-22-45-29-70 28-7 49-32 49-62 0-30-21-55-49-62 7-25 16-48 29-70 25 14 57 11 78-10 22-20 25-53 10-78 22-13 45-22 70-29 7 28 32 49 62 49 30 0 55-21 62-49 25 7 48 16 70 29-14 25-11 57 10 78 20 22 53 25 78 10 13 22 22 45 29 70-28 7-49 32-49 62z m-200-96c-53 0-96 43-96 96 0 53 43 96 96 96 53 0 96-43 96-96 0-53-43-96-96-96z"/>
<glyph glyph-name="cogs" unicode="&#92;" d="M504 395c-14-3-29 5-35 19-6 15 0 30 11 39-7 10-16 20-26 27-9-11-25-17-39-11-13 6-21 22-18 36-13 2-27 2-40 1 4-16-4-33-19-39-15-6-32 0-40 14-10-7-19-16-27-27 13-7 19-24 13-39-7-15-22-22-37-18-3-14-3-28 0-42 15 4 32-4 37-19 6-15 1-31-12-40 8-9 16-18 27-25 7 13 24 17 38 12 14-6 21-21 19-35 13-1 27-1 39 0-2 14 7 29 20 35 14 5 29 1 38-10 9 7 19 17 26 27-11 9-16 24-10 37 5 14 19 21 34 19 3 13 3 26 1 39z m-56-48c-5-14-5-28-1-41-12 4-26 4-40-1-14-6-25-17-30-30-6 13-16 24-30 30-12 5-26 5-38 1 4 13 4 26-2 39-6 15-17 26-31 32 13 5 24 15 30 29 5 13 5 26 1 39 13-5 27-5 40 1 14 5 25 17 30 31 6-13 16-23 29-29 14-5 28-5 41-1-5-12-5-27 0-41 6-14 17-24 30-29-13-8-23-17-29-30z m-70 82c-31 0-55-24-55-55 0-31 24-55 55-55 31 0 55 24 55 55 0 31-24 55-55 55z m0-86c-17 0-31 14-31 31 0 17 14 32 31 32 17 0 32-15 32-32 0-17-15-31-32-31z m-87-182c0 19 12 34 29 38-3 15-9 29-15 42-15-8-35-5-47 8-14 13-16 35-6 50-14 10-30 18-47 22-3-19-20-33-40-33-20 0-37 15-39 35-17-4-32-10-46-18 14-16 14-41-2-56-16-15-40-16-56-2-8-14-14-30-18-46 20-3 35-19 35-40 0-19-15-36-33-38 4-17 11-33 22-47 15 10 37 8 50-6 13-13 15-31 8-47 13-7 27-12 42-15 4 16 19 28 37 28 18 0 32-11 37-26 16 4 31 11 45 20-4 14-1 30 11 41 11 11 26 14 41 10 8 14 15 28 19 45-16 4-27 18-27 35z m-3-52c-17 0-35-11-48-22-12-13-23-31-23-48-11 14-33 20-52 20-17 0-33-6-45-17-2-2-4-4-6-6 2 18-5 37-19 51-15 15-38 23-59 19 18 11 27 34 27 55 0 23-12 43-30 54 21-5 45 0 62 17 17 16 22 40 17 62 11-18 31-30 53-30 22 0 45 9 56 26-4-21 3-43 19-58 14-14 33-20 51-19-15-11-23-32-23-52 0-18 6-40 20-52z m-123 123c-39 0-70-31-70-71 0-39 31-70 70-70 40 0 71 31 71 70 0 40-31 71-71 71z m0-118c-26 0-47 21-47 47 0 26 21 48 47 48 26 0 48-22 48-48 0-26-22-47-48-47z"/>
<glyph glyph-name="cogs-f" unicode="&#57344;" d="M506 394c-14-2-29 7-35 20-5 15-1 31 11 40-7 10-16 20-27 28-9-12-25-17-39-11-14 7-22 21-20 35-13 3-26 3-39 0 3-14-5-28-19-35-15-5-31-1-40 11-10-7-20-16-28-27 12-9 17-25 11-39-7-14-21-22-35-20-3-13-3-26 0-39 14 2 29-7 35-20 5-15 1-31-11-39 7-11 16-20 27-28 9 12 25 16 39 10 14-6 22-21 20-35 13-3 26-3 39 0-2 14 7 29 20 35 15 6 31 1 39-11 11 7 20 17 28 27-12 9-16 25-10 39 6 15 21 23 35 20 1 14 2 27-1 39z m-84-37c-11-25-40-37-65-27-25 11-37 40-27 65 11 25 40 37 65 27 25-11 37-40 27-65z m-102-157c-4 16-10 31-18 45-16-10-37-7-51 6-13 14-16 35-6 51-14 8-29 14-45 18-5-18-21-31-40-31-19 0-35 13-40 31-16-4-31-10-45-18 10-16 7-37-6-51-14-13-35-16-51-6-8-14-14-29-18-45 18-5 31-21 31-40 0-19-13-35-31-40 4-16 10-31 18-45 16 10 37 7 51-6 13-14 16-35 6-51 14-8 29-14 45-18 5 18 21 31 40 31 19 0 35-13 40-31 16 4 31 10 45 18-10 16-7 37 6 51 14 13 35 16 51 6 8 14 14 29 18 45-18 5-31 21-31 40 0 19 13 35 31 40z m-160-102c-34 0-62 28-62 62 0 34 28 62 62 62 34 0 62-28 62-62 0-34-28-62-62-62z"/>
<glyph glyph-name="compass" unicode="&#57345;" d="M256 512c-142 0-256-114-256-256 0-142 114-256 256-256 142 0 256 114 256 256 0 142-114 256-256 256z m0-480c-124 0-224 100-224 224 0 124 100 224 224 224 124 0 224-100 224-224 0-124-100-224-224-224z m-113 111l141 85 85 141-141-85z"/>
<glyph glyph-name="computer" unicode="&#57346;" d="M40 128l432 0c14 0 24 10 24 24l0 272c0 14-10 24-24 24l-432 0c-14 0-24-10-24-24l0-272c0-14 10-24 24-24z m8 288l416 0 0-256-416 0z m448-320l-480 0c-9 0-16-7-16-16 0-9 7-16 16-16l480 0c9 0 16 7 16 16 0 9-7 16-16 16z"/>
<glyph glyph-name="computer-alt" unicode="&#57347;" d="M488 456l-464 0c-14 0-24-10-24-24l0-288c0-14 10-24 24-24l464 0c14 0 24 10 24 24l0 288c0 14-10 24-24 24z m-8-304l-448 0 0 272 448 0z m-128-64l-192 0c-9 0-16-7-16-16 0-9 7-16 16-16l192 0c9 0 16 7 16 16 0 9-7 16-16 16z"/>
<glyph glyph-name="credit-card" unicode="&#57348;" d="M480 424l-448 0c-18 0-32-14-32-32l0-272c0-18 14-32 32-32l448 0c18 0 32 14 32 32l0 272c0 18-14 32-32 32z m0-296c0-4-3-8-8-8l-432 0c-4 0-8 3-8 8l0 152 448 0z m-448 232l0 24c0 4 3 8 8 8l432 0c4 0 8-3 8-8l0-24z m156-208l88 0c6 0 12 6 12 12 0 6-6 12-12 12l-88 0c-6 0-12-6-12-12 0-6 6-12 12-12z m0 40l88 0c6 0 12 6 12 12 0 6-6 12-12 12l-88 0c-6 0-12-6-12-12 0-6 6-12 12-12z m-124-56l64 0c9 0 16 7 16 16l0 48c0 9-7 16-16 16l-64 0c-9 0-16-7-16-16l0-48c0-9 7-16 16-16z"/>
<glyph glyph-name="credit-card-f" unicode="&#57349;" d="M480 424l-448 0c-18 0-32-14-32-32l0-32 512 0 0 32c0 18-14 32-32 32z m-480-304c0-18 14-32 32-32l448 0c18 0 32 14 32 32l0 160-512 0z m188 96l88 0c6 0 12-6 12-12 0-6-6-12-12-12l-88 0c-6 0-12 6-12 12 0 6 6 12 12 12z m0-40l88 0c6 0 12-6 12-12 0-6-6-12-12-12l-88 0c-6 0-12 6-12 12 0 6 6 12 12 12z m-140 24c0 9 7 16 16 16l64 0c9 0 16-7 16-16l0-48c0-9-7-16-16-16l-64 0c-9 0-16 7-16 16z"/>
<glyph glyph-name="css3" unicode="&#57350;" d="M76 488l-17-86 350 0-11-56-350 0-17-86 350 0-20-98-141-47-122 47 8 43-85 0-21-103 202-78 233 78 77 386z"/>
<glyph glyph-name="cutlery" unicode="&#57351;" d="M224 512c-9 0-16-7-16-16l0-112c0-4-3-8-8-8-5 0-8 4-8 8l0 112c0 9-7 16-16 16-9 0-16-7-16-16l0-112c0-5-3-8-8-8-5 0-8 3-8 8l0 112c0 9-7 16-16 16-9 0-16-7-16-16l0-120c0-26 17-46 40-54l0-298c0-14 10-24 24-24 14 0 24 10 24 24l0 298c23 8 40 28 40 54l0 120c0 9-7 16-16 16z m152 0c-6 0-11-2-15-6-23-12-39-90-39-114 0-26 4-134 30-137l0-231c0-14 10-24 24-24 14 0 24 10 24 24l0 464c0 14-10 24-24 24z"/>
<glyph glyph-name="cutter" unicode="&#57352;" d="M496 469c-19 19-50 19-69 0l-253-254c-12 2-25-1-34-11-12-11-15-29-9-44l-124-123 109-5 72 71c14-5 31-2 44 9 9 10 13 22 11 34l253 254c19 19 19 49 0 69z m-392-404l-22 1 63 63 12-11z m105 71c-3-4-8-4-12 0l-34 34c-4 3-4 8 0 11 3 3 8 3 11 0l34-34c4-3 4-8 1-11z m264 287l-241-242-23 23 241 242c7 7 16 7 23 0 6-6 6-17 0-23z m-46-12l-173-172c-3-3-3-8 0-11 4-4 9-4 12 0l172 172c3 3 3 8 0 11-2 3-8 3-11 0z"/>
<glyph glyph-name="dashboard" unicode="&#57353;" d="M256 448c-142 0-256-114-256-256 0-46 13-90 34-128l444 0c21 38 34 82 34 128 0 142-114 256-256 256z m202-352l-404 0c-15 30-22 62-22 96 0 124 100 224 224 224 124 0 224-100 224-224 0-34-7-66-22-96z m-243 55c22-21 58-21 79 0 22 22 50 129 50 129 0 0-107-28-129-50-21-21-21-57 0-79z m18 63c1 1 6 4 13 8 10 4 24 10 40 16 8 2 16 4 24 8-3-8-5-16-8-24-6-16-12-30-16-40-4-7-7-12-8-13-13-13-33-13-46 0-12 12-12 32 1 45z m-89 106c0-9-7-16-16-16-9 0-16 7-16 16 0 9 7 16 16 16 9 0 16-7 16-16z m136 48c0-13-11-24-24-24-13 0-24 11-24 24 0 13 11 24 24 24 13 0 24-11 24-24z m-176-176c0-13-11-24-24-24-13 0-24 11-24 24 0 13 11 24 24 24 13 0 24-11 24-24z m352 0c0-13-11-24-24-24-13 0-24 11-24 24 0 13 11 24 24 24 13 0 24-11 24-24z m-56 128c0-9-7-16-16-16-9 0-16 7-16 16 0 9 7 16 16 16 9 0 16-7 16-16z"/>
<glyph glyph-name="dashboard-f" unicode="&#57354;" d="M256 448c-142 0-256-114-256-256 0-46 13-90 34-128l444 0c21 38 34 82 34 128 0 142-114 256-256 256z m0-56c14 0 24-10 24-24 0-14-10-24-24-24-14 0-24 10-24 24 0 14 10 24 24 24z m-176-224c-14 0-24 10-24 24 0 14 10 24 24 24 14 0 24-10 24-24 0-14-10-24-24-24z m48 136c-9 0-16 7-16 16 0 9 7 16 16 16 9 0 16-7 16-16 0-9-7-16-16-16z m166-153c-21-21-57-21-79 0-21 22-21 58 0 79 22 22 129 50 129 50 0 0-27-107-50-129z m90 153c-9 0-16 7-16 16 0 9 7 16 16 16 9 0 16-7 16-16 0-9-7-16-16-16z m48-136c-14 0-24 10-24 24 0 14 10 24 24 24 14 0 24-10 24-24 0-14-10-24-24-24z"/>
<glyph glyph-name="database" unicode="&#57355;" d="M512 384l0 64c0 35-29 64-64 64l-384 0c-35 0-64-29-64-64l0-64c0-19 9-36 22-48-13-12-22-29-22-48l0-64c0-19 9-36 22-48-13-12-22-29-22-48l0-64c0-35 29-64 64-64l384 0c35 0 64 29 64 64l0 64c0 19-9 36-22 48 14 12 22 29 22 48l0 64c0 19-9 36-22 48 13 12 22 29 22 48z m-32-256l0-64c0-18-14-32-32-32l-384 0c-18 0-32 14-32 32l0 64c0 18 14 32 32 32l384 0c18 0 32-14 32-32z m0 160l0-64c0-18-14-32-32-32l-384 0c-18 0-32 14-32 32l0 64c0 18 14 32 32 32l384 0c18 0 32-14 32-32z m-416 64c-18 0-32 14-32 32l0 64c0 18 14 32 32 32l384 0c18 0 32-14 32-32l0-64c0-18-14-32-32-32z m328-96c0-9-7-16-16-16-9 0-16 7-16 16 0 9 7 16 16 16 9 0 16-7 16-16z m56-160c0-9-7-16-16-16-9 0-16 7-16 16 0 9 7 16 16 16 9 0 16-7 16-16z m-56 0c0-9-7-16-16-16-9 0-16 7-16 16 0 9 7 16 16 16 9 0 16-7 16-16z m-264 0c0-18-14-32-32-32-18 0-32 14-32 32 0 18 14 32 32 32 18 0 32-14 32-32z m208 0c0-9-7-16-16-16-9 0-16 7-16 16 0 9 7 16 16 16 9 0 16-7 16-16z m112 160c0-9-7-16-16-16-9 0-16 7-16 16 0 9 7 16 16 16 9 0 16-7 16-16z m-56 160c0-9-7-16-16-16-9 0-16 7-16 16 0 9 7 16 16 16 9 0 16-7 16-16z m56 0c0-9-7-16-16-16-9 0-16 7-16 16 0 9 7 16 16 16 9 0 16-7 16-16z m-112 0c0-9-7-16-16-16-9 0-16 7-16 16 0 9 7 16 16 16 9 0 16-7 16-16z m-208 0c0-18-14-32-32-32-18 0-32 14-32 32 0 18 14 32 32 32 18 0 32-14 32-32z m208-160c0-9-7-16-16-16-9 0-16 7-16 16 0 9 7 16 16 16 9 0 16-7 16-16z m-208 0c0-18-14-32-32-32-18 0-32 14-32 32 0 18 14 32 32 32 18 0 32-14 32-32z"/>
<glyph glyph-name="deejay" unicode="&#57356;" d="M428 512l-344 0c-40 0-72-32-72-72l0-368c0-40 32-72 72-72l344 0c40 0 72 32 72 72l0 368c0 40-32 72-72 72z m40-440c0-22-18-40-40-40l-344 0c-22 0-40 18-40 40l0 368c0 22 18 40 40 40l344 0c22 0 40-18 40-40z m-368 185l0-97 16 0 0 97c14 3 24 16 24 31 0 15-10 27-24 31l0 97-16 0 0-97c-14-3-24-16-24-31 0-15 10-27 24-31z m64-129l-80 0c-4 0-8-3-8-8l0-56c0-5 3-8 8-8l80 0c4 0 8 3 8 8l0 56c0 5-3 8-8 8z m-8-56l-64 0 0 40 64 0z m0 312l272 0 0 64-272 0z m16 48l240 0 0-32-240 0z m120-72c-75 0-136-61-136-136 0-75 61-136 136-136 75 0 136 61 136 136 0 75-61 136-136 136z m0-248c-62 0-112 50-112 112 0 62 50 112 112 112 62 0 112-50 112-112 0-62-50-112-112-112z m-72 112c0 40 32 72 72 72l0 8c-44 0-80-36-80-80 0-44 36-80 80-80l0 8c-40 0-72 32-72 72z m88 0c0-9-7-16-16-16-9 0-16 7-16 16 0 9 7 16 16 16 9 0 16-7 16-16z"/>
<glyph glyph-name="digg" unicode="&#57357;" d="M154 333l52 0 0-155-52 0z m0 66l52 0 0-43-52 0z m-76-65l-78 0 0-154 130 0 0 220-52 0z m-1-107l-27 0 0 63 27 0z m153-49l76 0 0-20-76 0 0-46 128 0 0 221-128 0z m49 106l26 0 0-63-26 0z m105 49l0-155 76 0 0-20-76 0 0-46 128 0 0 221z m74-112l-26 0 0 63 26 0z"/>
<glyph glyph-name="direction" unicode="&#57358;" d="M416 448l-176 0 0 48c0 9-7 16-16 16-9 0-16-7-16-16l0-48-160 0c-9 0-16-7-16-16l0-120c0-9 7-16 16-16l160 0 0-280c0-9 7-16 16-16 9 0 16 7 16 16l0 280 176 0 64 72z m-14-120l-338 0 0 88 337 0 37-47z"/>
<glyph glyph-name="direction-f" unicode="&#57359;" d="M416 448l-176 0 0 48c0 9-7 16-16 16-9 0-16-7-16-16l0-48-160 0c-9 0-16-7-16-16l0-120c0-9 7-16 16-16l160 0 0-280c0-9 7-16 16-16 9 0 16 7 16 16l0 280 176 0 64 72z"/>
<glyph glyph-name="directions" unicode="&#57360;" d="M452 256l-200 0 0 40 176 0 64 72-64 80-176 0 0 48c0 9-7 16-16 16-9 0-16-7-16-16l0-48-160 0c-9 0-16-7-16-16l0-120c0-9 7-16 16-16l160 0 0-40-136 0-64-80 64-72 136 0 0-88c0-9 7-16 16-16 9 0 16 7 16 16l0 88 200 0c9 0 16 7 16 16l0 120c0 9-7 16-16 16z m-376 72l0 88 337 0 37-47-36-41z m360-192l-339 0-37 41 38 47 338 0z"/>
<glyph glyph-name="directions-f" unicode="&#57361;" d="M452 256l-200 0 0 40 176 0 64 72-64 80-176 0 0 48c0 9-7 16-16 16-9 0-16-7-16-16l0-48-160 0c-9 0-16-7-16-16l0-120c0-9 7-16 16-16l160 0 0-40-136 0-64-80 64-72 136 0 0-88c0-9 7-16 16-16 9 0 16 7 16 16l0 88 200 0c9 0 16 7 16 16l0 120c0 9-7 16-16 16z"/>
<glyph glyph-name="disc" unicode="&#57362;" d="M256 512c-142 0-256-114-256-256 0-142 114-256 256-256 142 0 256 114 256 256 0 142-114 256-256 256z m0-480c-124 0-224 100-224 224 0 124 100 224 224 224 124 0 224-100 224-224 0-124-100-224-224-224z m32 224c0-18-14-32-32-32-18 0-32 14-32 32 0 18 14 32 32 32 18 0 32-14 32-32z m-32 88c-49 0-88-39-88-88 0-49 39-88 88-88 49 0 88 39 88 88 0 49-39 88-88 88z m0-144c-31 0-56 25-56 56 0 31 25 56 56 56 31 0 56-25 56-56 0-31-25-56-56-56z"/>
<glyph glyph-name="dna" unicode="&#57363;" d="M282 256c47 44 138 141 138 220 0 12-1 24-3 36l-43 0c2-10 3-20 3-30 0-4 0-7-1-10l-240 0c0 3-1 6-1 10 0 10 1 20 3 30l-43 0c-2-12-3-24-3-36 0-79 91-176 138-220-47-44-138-141-138-220 0-12 1-24 3-36l43 0c-1 10-2 20-2 30 0 4 0 7 1 10l241 0c0-3 0-6 0-10 0-10 0-20-2-30l42 0c2 12 4 24 4 36-2 79-93 176-140 220z m-138 184l225 0c-7-18-17-38-29-56l-167 0c-11 18-22 38-29 56z m51-88l123 0c-31-40-62-70-62-70 0 0-30 30-61 70z m62-122c0 0 30-29 61-70l-123 0c31 40 62 70 62 70z m-113-158c6 18 17 38 29 56l167 0c12-18 22-38 29-56z"/>
<glyph glyph-name="document" unicode="&#57364;" d="M424 512l-336 0c-14 0-24-10-24-24l0-464c0-14 10-24 24-24l336 0c14 0 24 10 24 24l0 464c0 14-10 24-24 24z m-8-480l-320 0 0 448 320 0z m-272 352l224 0c9 0 16 7 16 16 0 9-7 16-16 16l-224 0c-9 0-16-7-16-16 0-9 7-16 16-16z m0-96l224 0c9 0 16 7 16 16 0 9-7 16-16 16l-224 0c-9 0-16-7-16-16 0-9 7-16 16-16z m0-96l224 0c9 0 16 7 16 16 0 9-7 16-16 16l-224 0c-9 0-16-7-16-16 0-9 7-16 16-16z m0-96l224 0c9 0 16 7 16 16 0 9-7 16-16 16l-224 0c-9 0-16-7-16-16 0-9 7-16 16-16z"/>
<glyph glyph-name="document-f" unicode="&#57365;" d="M424 512l-336 0c-14 0-24-10-24-24l0-464c0-14 10-24 24-24l336 0c14 0 24 10 24 24l0 464c0 14-10 24-24 24z m-56-416l-224 0c-9 0-16 7-16 16 0 9 7 16 16 16l224 0c9 0 16-7 16-16 0-9-7-16-16-16z m0 96l-224 0c-9 0-16 7-16 16 0 9 7 16 16 16l224 0c9 0 16-7 16-16 0-9-7-16-16-16z m0 96l-224 0c-9 0-16 7-16 16 0 9 7 16 16 16l224 0c9 0 16-7 16-16 0-9-7-16-16-16z m0 96l-224 0c-9 0-16 7-16 16 0 9 7 16 16 16l224 0c9 0 16-7 16-16 0-9-7-16-16-16z"/>
<glyph glyph-name="download" unicode="&#57366;" d="M512 88c0 9-7 16-16 16-9 0-16-7-16-16 0-1 0-1 0-2l0-23c0-17-14-32-32-32l-384 0c-18 0-32 15-32 32l0 23c0 1 0 2 0 2 0 9-7 16-16 16-9 0-16-7-16-16 0-1 0-1 0-2l0-22c0-35 29-64 64-64l384 0c35 0 64 29 64 64l0 22c0 1 0 1 0 2z m-267 27c3-3 7-5 11-5 4 0 8 2 11 5l113 113c6 6 6 17 0 22-6 7-16 7-22 0l-86-84 0 330c0 9-7 16-16 16-9 0-16-7-16-16l0-330-86 85c-6 7-16 7-22 0-6-6-6-16 0-22z"/>
<glyph glyph-name="dribbble" unicode="&#57367;" d="M256 512c-142 0-256-114-256-256 0-142 114-256 256-256 142 0 256 114 256 256 0 142-114 256-256 256m216-254c-29 9-60 14-92 14-19 0-38-2-57-5-6 15-12 28-18 41 88 37 120 84 120 84 29-36 46-83 47-134m-216 214c54 0 105-20 143-54-29-34-69-58-112-75-41 77-81 123-81 123 16 4 32 6 50 6m-94-21c0 0 38-49 79-122-99-28-197-27-197-27 15 65 59 120 118 149m-122-195l0 6c93 0 165 12 221 30 5-11 11-24 17-35-78-26-142-78-183-146-34 39-55 89-55 145m216-215c-50 0-94 17-130 44 36 65 96 113 168 135 20-50 37-106 45-163-25-11-54-16-83-16m120 36c-7 56-21 107-38 153 15 2 28 3 43 3 31 0 61-5 89-15-12-58-46-109-94-141"/>
<glyph glyph-name="dribbble-circle" unicode="&#57368;" d="M256 512c-142 0-256-114-256-256 0-142 114-256 256-256 142 0 256 114 256 256 0 142-114 256-256 256z m0-408c-84 0-152 68-152 152 0 84 68 152 152 152 84 0 152-68 152-152 0-84-68-152-152-152z m30 183c4-7 7-16 11-24 11 2 22 3 33 3 20 0 38-3 55-8-1 29-11 57-28 79-1 0-19-28-71-50z m55 65c-23 21-53 33-85 33-10 0-21-2-30-4 0 0 24-27 48-73 25 10 50 24 67 44z m-94-53c-24 44-46 73-46 73-35-18-62-50-71-89 0 0 58-1 117 16z m22-43c-3 7-7 14-10 21-33-11-76-18-131-18l0-3c0-33 13-63 33-86 24 40 62 72 108 86z m-91-102c22-16 48-26 78-26 18 0 34 3 50 10-5 34-16 67-28 96-43-12-78-41-100-80z m127 87c9-28 18-59 22-91 28 19 49 49 55 84-16 5-34 8-52 8-9 0-17 0-25-1z"/>
<glyph glyph-name="dribbble-square" unicode="&#57369;" d="M0 480c0 18 14 32 32 32l448 0c18 0 32-14 32-32l0-448c0-18-14-32-32-32l-448 0c-18 0-32 14-32 32z m256-72c-84 0-152-68-152-152 0-84 68-152 152-152 84 0 152 68 152 152 0 84-68 152-152 152z m129-150c-18 5-36 8-55 8-11 0-22-1-33-3-4 8-7 17-11 24 52 23 70 50 70 50 18-22 28-50 29-79m-129 127c33 0 62-12 85-33-18-20-42-34-67-44-24 46-48 73-48 73 9 2 20 4 30 4m-55-13c0 0 22-29 46-73-58-17-117-16-117-16 9 39 36 71 71 89m-74-116l0 3c55 0 99 7 131 18 4-7 8-15 10-21-46-14-84-46-108-86-20 23-33 53-33 86m129-128c-30 0-56 10-78 26 22 39 57 68 100 80 12-29 22-63 27-96-15-7-31-10-49-10m71 22c-4 32-13 63-22 91 8 1 16 1 25 1 18 0 36-2 52-8-6-35-27-65-55-84"/>
<glyph glyph-name="dropbox" unicode="&#57370;" d="M260 188l-98-74-58 33 0-35 156-100 156 99 0 35-55-32z m247 217l-149 95-104-86 155-91z m-353-256l100 77-148 94-106-81z m0 351l-154-100 106-80 148 94z m102-270l102-74 154 87-99 81z"/>
<glyph glyph-name="egg" unicode="&#57371;" d="M253 510c-104 0-189-209-189-314 0-105 85-190 189-190 104 0 189 85 189 190 0 105-85 314-189 314z m0-456c-78 0-141 64-141 142 0 106 84 266 141 266 57 0 141-161 141-267 0-77-64-141-141-141z"/>
<glyph glyph-name="egg-f" unicode="&#57372;" d="M253 510c-104 0-189-209-189-314 0-105 85-190 189-190 104 0 189 85 189 190 0 105-85 314-189 314z"/>
<glyph glyph-name="eggs" unicode="&#57373;" d="M168 448c-93 0-168-186-168-279 0-94 75-169 168-169 93 0 168 75 168 169 0 93-75 279-168 279z m0-400c-66 0-120 54-120 121 0 91 73 231 120 231 47 0 120-140 120-231 0-67-54-121-120-121z m176 464c-39 0-75-34-104-79l31-35c20 38 46 66 73 66 66 0 120-166 120-232 0-66-54-120-120-120-2 0-4 0-6 0l-22-46c9-1 18-2 28-2 93 0 168 75 168 169 0 93-75 279-168 279z"/>
<glyph glyph-name="eject" unicode="&#57374;" d="M480 100l-448 0c-18 0-32-14-32-32 0-18 14-32 32-32l448 0c18 0 32 14 32 32 0 18-14 32-32 32z m-472 64l496 0c5 0 6 2 3 6l-236 296c-8 10-21 10-29 0l-237-296c-3-4-1-6 3-6z m248 243l156-195-312 0z"/>
<glyph glyph-name="eject-f" unicode="&#57375;" d="M480 100l-448 0c-18 0-32-14-32-32 0-18 14-32 32-32l448 0c18 0 32 14 32 32 0 18-14 32-32 32z m-472 64l496 0c5 0 6 2 3 6l-236 296c-8 10-21 10-29 0l-237-296c-3-4-1-6 3-6z"/>
<glyph glyph-name="envelope" unicode="&#57376;" d="M480 424l-448 0c-18 0-32-14-32-32l0-272c0-18 14-32 32-32l448 0c18 0 32 14 32 32l0 272c0 18-14 32-32 32z m-28-32l-196-160-196 160c80 0 312 0 392 0z m-420-252c0 50 0 179 0 230l145-120z m21-20l146 111 51-42c3-3 8-3 12 0l50 42 147-111c-75 0-331 0-406 0z m427 20l-145 110 145 120c0-51 0-180 0-230z"/>
<glyph glyph-name="envelope-f" unicode="&#57377;" d="M0 388l0-267 166 127z m492 34c-4 1-8 2-12 2l-448 0c-4 0-8-1-12-2l236-195z m-230-244c-3-4-8-4-12 0l-58 48-175-134c5-2 9-4 15-4l448 0c6 0 10 2 15 4l-174 134z m84 70l166-127 0 267z"/>
<glyph glyph-name="envelope-open" unicode="&#57378;" d="M13 326l1 1c0 0 0-1-1-1z m461-16l3-3 0 24-41 0 27-21c3 3 8 3 11 0z m-439 21l42 0 179 135 180-135 48 0c8 0 14-3 18-8-1 1-2 2-3 3l-224 173c-10 7-27 7-37 0l-224-172c4 2 9 4 14 4z m0 0l0-24 3 3c3 3 8 3 12 0l27 21z m-22-6c0 0 0 1 0 0z m471 6l-7 0 0-24-3 3c-3 3-8 3-12 0l18-12c3-3 8-3 12 1l7 7c6 5 6 12 2 18-3 4-9 7-17 7z m-472-25l8-8c3-3 8-3 12-1l17 13c-3 3-9 2-12-1l-2-2 0 24-7 0c-5 0-10-2-14-4l-1-1c0 0 0-1 0-1-7-5-7-14-1-19z m189-164l-16 23-7-5 22-19z m-23 18l-143-109 0-19 21 0 144 109z m-143-109l-15-12 15-23 21 16-21 0z m442-19l-21 0 21-16 15 23-15 12z m-150 133l-16-23 1-1 22 19z m175 158c4-6 3-13-2-17l-8-8c-3-3-8-3-12-1l-17 13-207-168-206 168-18-12c-3-3-8-3-12 1l-7 7c-6 5-7 13-2 19-5-6-7-12-7-18l0-275c0-18 14-32 31-32l442 0c17 0 31 14 31 32l0 275c0 6-2 11-6 16z m-25-307l-21 16-400 0-21-16-15 23 15 12 0 227 143-118 7 5 16-23-1-1 50-42c3-3 8-3 12 0l49 42 0 1 16 23 7-5 143 118 0-227 15-12z m0 35l-143 109-22-19 144-109 21 0z"/>
<glyph glyph-name="envelope-open-f" unicode="&#57379;" d="M4 303l0-262 161 125z m487 36l-216 167c-10 8-27 8-37 0l-217-167 235-194z m-229-244c-3-3-8-4-12 0l-59 49-171-132c4-3 10-4 15-4l442 0c5 0 11 1 15 4l-171 132z m85 71l161-125 0 262z"/>
<glyph glyph-name="eye" unicode="&#57380;" d="M256 390c-128 0-256-76-256-139 0-62 128-126 256-126 128 0 256 64 256 126 0 63-128 139-256 139z m8-76c0 9 7 16 16 16 9 0 16-8 16-16 0-8-7-15-16-15-9 0-16 7-16 15z m-8 0c0-6 2-12 6-16-2 0-4 1-6 1-22 0-40-17-40-39 0-22 18-39 40-39 22 0 40 17 40 39 0 13-6 24-16 31 14 0 24 11 24 23 0 2 0 4-1 5 20-14 33-37 33-61 0-43-36-77-80-77-44 0-80 34-80 77 0 42 36 76 80 76 3 0 7 0 10 0-6-4-10-12-10-20z m-224-63c0 16 23 43 63 65 42 23 93 38 143 41-48-8-86-50-86-99 0-51 38-92 87-100-51 2-104 15-145 36-40 20-62 43-62 57z m386-57c-42-20-94-34-146-36 50 8 87 49 87 100 0 50-37 91-86 99 50-3 101-18 143-41 41-22 63-49 63-65 1-14-21-37-61-57z"/>
<glyph glyph-name="eye-cross" unicode="&#57381;" d="M382 354l109 108c7 7 7 16 0 23-6 6-16 6-22 0l-121-121c-30 8-61 12-92 12-128 0-256-73-256-134 0-39 53-78 125-101l-98-98c-6-6-6-16 0-22 7-7 16-7 23 0l110 110c30-7 63-11 96-11 128 0 256 62 256 122 0 40-55 85-130 112z m-46-104c0-43-36-77-80-77-16 0-30 5-42 12l30 30c4-1 8-1 12-1 22 0 40 17 40 39 0 5-1 9-2 13l28 28c9-13 14-28 14-44z m-160 0c0 42 36 76 80 76 3 0 7 0 10 0-6-4-10-12-10-20 0-6 2-12 6-16-2 0-4 1-6 1-22 0-40-17-40-39 0-6 2-11 4-16l-30-30c-9 12-14 28-14 44z m104 72c7 0 13-4 15-11l-19-19c-6 2-11 8-11 14-1 8 6 16 15 16z m36 10c-5 3-10 6-16 9 7-1 14-3 22-4z m-222-145c-40 19-62 42-62 55 0 15 23 40 63 62 35 18 76 32 118 38-36-16-61-52-61-92 0-23 8-44 21-60l-23-23c-20 5-39 12-56 20z m102-20c8-5 17-10 26-13-12 0-24 2-35 4z m222 20c-36-17-82-29-128-33 40 13 70 51 70 96 0 22-8 44-21 60l19 19c20-7 41-15 59-25 40-22 63-47 63-62 0-13-22-36-62-55z"/>
<glyph glyph-name="facebook" unicode="&#57382;" d="M318 422l58 0 0 90-79 0c-111 0-109-86-109-99l0-71-52 0 0-86 52 0 0-256 106 0 0 256 72 0c0 0 6 42 9 86l-80 0 0 60c0 8 11 20 23 20z"/>
<glyph glyph-name="facebook-circle" unicode="&#57383;" d="M256 512c-142 0-256-114-256-256 0-142 114-256 256-256 142 0 256 114 256 256 0 142-114 256-256 256z m88-131l-42 0c-9 0-17-9-17-15l0-44 59 0c-2-34-7-65-7-65l-53 0 0-192-78 0 0 191-38 0 0 65 38 0 0 53c0 9-1 74 80 74l58 0z"/>
<glyph glyph-name="facebook-square" unicode="&#57384;" d="M0 480c0 18 14 32 32 32l448 0c18 0 32-14 32-32l0-448c0-18-14-32-32-32l-448 0c-18 0-32 14-32 32z m206-106l0-53-38 0 0-65 38 0 0-192 79 0 0 192 53 0c0 0 4 31 7 65l-59 0 0 44c0 6 8 15 16 15l42 0 0 68-58 0c-82 0-80-65-80-74z"/>
<glyph glyph-name="feather-pen" unicode="&#57385;" d="M458 510c-28 6-161 16-274-226-4-9-8-17-11-24l-63 0c-5 0-8-3-8-8l0-33c0-4 3-8 8-8l24 0 0-16-57 0c-23 0-40-18-40-41l0-113c0-23 17-41 40-41l179 0c23 0 41 18 41 41l0 113c0 23-18 41-41 41l-57 0 0 16 24 0c5 0 9 4 9 8l0 33c0 4-4 8-9 8l-37 0c6 10 11 18 11 18l47 39c0 0 27-8 32-2 7 5-11 21-11 21l32-15c0 0 36-5 45 6 9 10-13 31-13 31 0 0 30-11 51 0 21 12 65 43 79 69 13 26 28 76-1 83z m-202-347c5 0 8-4 8-9l0-113c0-5-3-8-8-8l-179 0c-5 0-8 3-8 8l0 113c0 5 3 9 8 9z"/>
<glyph glyph-name="female" unicode="&#57386;" d="M448 320c0 106-86 192-192 192-106 0-192-86-192-192 0-98 74-178 168-190l0-34-32 0c-14 0-24-10-24-24 0-14 10-24 24-24l32 0 0-24c0-14 10-24 24-24 14 0 24 10 24 24l0 24 32 0c14 0 24 10 24 24 0 14-10 24-24 24l-32 0 0 34c94 12 168 92 168 190z m-336 0c0 79 65 144 144 144 79 0 144-65 144-144 0-79-65-144-144-144-79 0-144 65-144 144z"/>
<glyph glyph-name="file" unicode="&#57387;" d="M320 512l-248 0c-5 0-8-4-8-8l0-496c0-5 3-8 8-8l368 0c5 0 8 4 8 8l0 376z m96-480l-320 0 0 448 210 0 110-110z"/>
<glyph glyph-name="files" unicode="&#57388;" d="M381 432l-54 0-80 80-215 0c-5 0-8-4-8-8l0-416c0-5 4-8 8-8l136 0 0-72c0-5 4-8 8-8l304 0c5 0 8 4 8 8l0 317z m-325-320l0 368 178 0 47-48-113 0 0-320z m400-80l-256 0 0 368 168 0 88-88z"/>
<glyph glyph-name="fingerprint" unicode="&#57389;" d="M216 272c-9 0-16-7-16-16l0-88c0-31 25-56 56-56 31 0 56 25 56 56l0 24c0 9-7 16-16 16-9 0-16-7-16-16l0-24c0-14-10-24-24-24-14 0-24 11-24 24l0 88c0 9-7 16-16 16z m96 72c0 31-25 56-56 56-31 0-56-25-56-56l0-24c0-9 7-16 16-16 9 0 16 7 16 16l0 24c0 14 10 24 24 24 14 0 24-11 24-24l0-88c0-9 7-16 16-16 9 0 16 7 16 16z m-80-312c-64 12-112 67-112 134l0 121c0 0 0 1 0 1 0 9-7 16-16 16-9 0-16-7-16-16 0 0 0-1 0-1l0-121c0-83 60-152 139-165 2-1 3-1 5-1 9 0 16 7 16 16 0 9-7 16-16 16z m176 192c-9 0-16-7-16-16 0 0 0-1 0-1l0-41c0-67-48-122-112-133l0-1c-9 0-16-7-16-16 0-9 7-16 16-16 2 0 3 0 5 1 79 13 139 82 139 165l0 41c0 0 0 1 0 1 0 9-7 16-16 16z m-152 288c-89 0-162-69-168-157 0-1 0-2 0-3 0-9 7-16 16-16 9 0 16 7 16 15 4 72 63 129 136 129 75 0 136-61 136-136l0-81c1-9 7-15 16-15 9 0 15 6 16 15l0 81c0 93-75 168-168 168z m112-344l0 96c0 9-7 16-16 16-9 0-16-7-16-16l0-96c0-44-36-80-80-80-42 0-75 31-80 72 0 9-7 16-16 16-9 0-16-7-16-16 0-2 0-3 1-5 6-56 53-99 111-99 62 0 112 50 112 112z m-16 144c9 0 16 7 16 16l0 16c0 62-50 112-112 112-62 0-112-50-112-112l0-120c0-9 7-16 16-16 9 0 16 7 16 16l0 120c0 44 36 80 80 80 44 0 80-36 80-80l0-16c0-9 7-16 16-16z"/>
<glyph glyph-name="fish" unicode="&#57390;" d="M481 256c-1 36 11 69 31 96-66-14-115-47-126-82-21 22-68 62-125 80 5 25 17 48 33 66-4 0-9 0-14 0-90 0-166-34-191-75-4-2-9-3-13-5-1 0-1-1-2-1-1-1-3-1-4-2-1-1-2-1-4-2-1-1-3-1-5-2-1 0-2-1-3-1-2-2-4-2-7-4l-1-1c-1-1-4-2-5-4-1-1-2-1-3-1-1-1-3-2-4-4 0 0-1 0-2-1-2-1-2-2-4-3-1 0-2-1-2-1-1-1-3-2-4-3 0-1-1-2-2-2-1-1-2-2-3-3-1-1-1-1-2-2-1-1-2-2-3-4l-1-1c-1-1-2-3-4-4 0-1-1-1-1-2 0-2-1-2-2-4 0-1-1-2-1-2-1 0-1-2-1-3 0-1-1-1-1-2-1-1-1-3-2-3 0-1-1-2-1-3 0-1 0-2 0-3 0-1 0-2-1-2 0-1-1-3-1-4 0 0 0 0 0-1 0-2 0-3 0-6 0-2 0-3 0-5 0-1 0-1 0-2 0-1 0-2 1-3 0-1 0-2 1-3 0 0 0-2 0-3 0-1 1-1 1-2 1-1 1-3 2-3 0-1 1-2 1-3 0-1 0-2 1-3 0-1 1-2 1-2 1-1 2-2 2-4 0 0 1 0 1-1 2-2 3-3 4-5l1-1c1-1 2-2 3-4 1-1 1-1 2-1 2 0 3-1 4-2 1-1 1-2 2-2 1 0 3-1 3-3 1-1 2-1 3-1 1-1 2-2 4-3 1-1 1-1 2-1 2-1 3-2 4-4 1 0 2 0 3-1 1-2 4-3 5-4l1-1c2-2 5-2 7-4 1 0 2-1 3-1 1-1 3-1 5-2 1-1 2-1 3-2 2-1 4-1 5-2 1 0 1-1 2-1 5-2 9-4 15-6 25-36 87-65 164-71-12 16-21 35-26 55 72 12 131 63 156 88 11-36 60-68 127-83-20 27-32 60-32 97z m-218 143c-8-14-14-29-18-45-15 4-30 6-45 6-30 0-58-4-83-10 29 25 84 46 146 49z m-167-205c-43 16-72 40-72 62 0 22 29 46 72 62 28-8 48-32 48-62 0-30-21-55-48-62z m25-33c24-6 51-10 79-10 4 0 9 0 13 1 3-11 7-22 12-34-44 8-81 24-104 43z m206 62c-41-29-85-47-127-47-29 0-56 4-81 10 23 13 38 36 40 62l152 0c5 0 8 3 8 8 0 5-3 8-8 8l-151 0c-2 26-18 49-40 62 24 6 51 10 80 10 42 0 86-18 127-47 15-11 27-22 39-33-11-11-24-22-39-33z m138-23c-35 16-57 38-57 56 0 18 22 39 57 56-6-18-9-37-9-56 0-20 3-38 9-56z m-369 72c0-9-7-16-16-16-9 0-16 7-16 16 0 9 7 16 16 16 9 0 16-7 16-16z"/>
<glyph glyph-name="flag" unicode="&#57391;" d="M362 352l72 102c10 14 4 26-14 26l-320 0 0 16c0 9-7 16-16 16-9 0-16-7-16-16l0-480c0-9 7-16 16-16 9 0 16 7 16 16l0 208 320 0c18 0 24 12 14 26z m-262-96c0 12 0 192 0 192l290 0-67-96 67-96c0 0-290 0-290 0z"/>
<glyph glyph-name="flag-f" unicode="&#57392;" d="M362 352l72 102c10 14 4 26-14 26l-320 0 0 16c0 9-7 16-16 16-9 0-16-7-16-16l0-480c0-9 7-16 16-16 9 0 16 7 16 16l0 208 320 0c18 0 24 12 14 26z"/>
<glyph glyph-name="flame" unicode="&#57393;" d="M284 349c-91-75-100 138-100 138-1 22-12 24-22 5 0 0-101-177-101-286 0-110 87-200 195-200 108 0 195 90 195 200 0 52-77 219-167 143z m-28-309c-89 0-163 74-163 166 0 24 6 54 18 90 8 25 18 53 30 81 6 14 13 28 19 41 1-5 2-10 3-15 8-36 20-63 39-82 28-28 66-27 103 4 23 20 45 14 71-19 24-30 43-79 43-100 0-92-74-166-163-166z m4 163c-54-19-89 101-89 101 0 0-9-90-9-133 0-43 56-97 98-97 42 0 77 35 77 77 0 18-28 69-77 52z m0-97c-25 0-66 40-66 65 0 6 0 13 1 22 2-1 3-3 5-4 20-18 45-26 71-17 9 4 17 2 23-5 3-4 7-8 8-13 1-1 2-3 2-4 0-24-20-44-44-44z"/>
<glyph glyph-name="flashlight-off" unicode="&#57394;" d="M501 381l-120 120c-13 13-33 13-45 0l-54-53-37-36c-17-17-22-41-16-62l-210-210c-17-17-17-44 0-61l61-61c17-17 44-17 61 0l210 210c21-5 45 0 62 16l36 37 54 54c11 14 11 34-2 46z m-384-339c-4-5-10-5-15 0l-60 60c-5 5-5 11 0 15l203 204 76-76z m226 226l-75 75c-13 13-13 34 0 45l22 23 121-121-23-22c-11-12-32-13-45 0z m91 46l-120 120c0 0 44 45 44 45 0 0 121-121 121-121z m-219-54l-29-30c-13-12-13-33 0-44 12-13 33-13 44 0l30 29c13 13 13 34 0 45-13 13-33 13-45 0z m30-30l-17-17c-1 4-3 7-5 10-2 3-6 4-10 5l17 17c5 5 11 5 15 0 5-4 5-10 0-15z"/>
<glyph glyph-name="flashlight-on" unicode="&#57395;" d="M322 424c-10 11-27 11-37 0l-38-38-38-37c-14-15-19-35-13-53l-179-177c-14-15-14-37 0-52l51-51c15-14 37-14 51 0l177 177c18-4 38 0 53 14l75 75c11 11 11 28 0 38z m-222-387c-4-4-9-4-13 0l-51 51c-4 4-4 9 0 13l171 171 64-64z m191 190l-64 64c-11 11-11 28 0 38l19 19 102-102-19-19c-11-11-28-11-38 0z m75 38l-101 101c0 0 38 38 38 38 0 0 101-101 101-101z m-184-44l-25-25c-11-11-11-28 0-38 11-11 28-11 38 0l25 25c11 11 11 28 0 38-10 10-27 10-38 0z m0-51c-3-4-9-4-12 0-4 3-4 9 0 12l14 15c1-3 3-6 5-8 1-3 5-4 8-5z m322 216c-5 9-15 13-24 9l-49-23c-9-5-12-15-9-24 5-9 15-13 24-9l49 22c10 5 13 16 9 25z m-124-7c7-7 19-7 25 0l50 50c8 8 8 19 0 26-6 8-18 8-25 0l-50-50c-7-7-7-19 0-26z m-31 42c9-4 20 0 25 9l22 49c5 9 0 20-9 24-9 5-20 0-24-9l-23-48c-4-9 0-20 9-25z"/>
<glyph glyph-name="flask" unicode="&#57396;" d="M470 28l-121 233c-5 11-11 17-19 28l0 149c11 0 19 8 19 18l0 37c0 11-8 19-19 19l-148 0c-11 0-19-8-19-19l0-37c0-10 8-18 19-18l0-149c-8-11-14-17-19-28l-121-233c-5-17 3-28 19-28l390 0c16 0 24 11 19 28z m-279 456l130 0 0-19-130 0z m-103-447l103 214c4 3 18 19 18 19l0 168 94 0 0-168c0 0 14-16 18-19l103-214z m131 196l-84-168 242 0-84 168z"/>
<glyph glyph-name="flask-alt" unicode="&#57397;" d="M321 328l0 119c9 0 16 7 16 16l0 33c0 9-7 16-16 16l-130 0c-9 0-16-7-16-16l0-33c0-9 7-16 16-16l0-119c-62-25-106-86-106-157 0-95 77-171 171-171 94 0 171 76 171 171 0 71-44 132-106 157z m-122 160l114 0 0-17-114 0z m57-455c-76 0-138 61-138 138 0 65 45 119 105 134l0 142 66 0 0-142c60-15 105-69 105-134 0-77-62-138-138-138z m99 186c0 0-198 0-198 0-9-16-15-35-15-56 0-57 51-106 114-106 63 0 114 49 114 106 0 21-6 40-15 56z"/>
<glyph glyph-name="flickr" unicode="&#57398;" d="M512 256c0-64-52-116-116-116-64 0-116 52-116 116 0 64 52 116 116 116 64 0 116-52 116-116z m-396 116c-64 0-116-52-116-116 0-64 52-116 116-116 64 0 116 52 116 116 0 64-52 116-116 116z"/>
<glyph glyph-name="flickr-circle" unicode="&#57399;" d="M256 512c-142 0-256-114-256-256 0-142 114-256 256-256 142 0 256 114 256 256 0 142-114 256-256 256z m-88-328c-40 0-72 32-72 72 0 40 32 72 72 72 40 0 72-32 72-72 0-40-32-72-72-72z m176 0c-40 0-72 32-72 72 0 40 32 72 72 72 40 0 72-32 72-72 0-40-32-72-72-72z"/>
<glyph glyph-name="flickr-square" unicode="&#57400;" d="M480 512l-448 0c-18 0-32-14-32-32l0-448c0-18 14-32 32-32l448 0c18 0 32 14 32 32l0 448c0 18-14 32-32 32z m-312-328c-40 0-72 32-72 72 0 40 32 72 72 72 40 0 72-32 72-72 0-40-32-72-72-72z m176 0c-40 0-72 32-72 72 0 40 32 72 72 72 40 0 72-32 72-72 0-40-32-72-72-72z"/>
<glyph glyph-name="flower" unicode="&#57401;" d="M416 320c-53 0-96-43-96-96l0-61c-32 35-74 59-121 71 1 1 3 3 3 5 20-6 42-1 58 14 15 15 20 37 14 57 18 9 31 28 31 51 0 21-13 41-31 50 6 19 1 42-14 58-15 15-38 20-58 13-9 17-28 30-50 30-22 0-41-13-50-31-20 6-42 1-58-14-15-15-20-37-14-57-17-9-30-28-30-50 0-22 13-41 31-50-6-20-1-42 14-58 15-15 37-20 57-14 9-18 28-31 51-31 111-4 200-96 200-208l32 0c0 47-14 91-37 128l68 0c53 0 96 43 96 96 0 54-43 97-96 97z m-286-66l-12 24-27-8c-9-4-18-1-25 5-6 7-8 16-5 25l9 26-25 13c-7 3-13 12-13 21 0 9 6 18 14 22l24 12-8 27c-4 9-1 18 5 25 7 6 16 8 25 5l26-9 13 25c3 7 12 13 21 13 9 0 18-6 22-14l12-24 27 8c9 4 18 1 25-5 6-7 8-16 5-25l-9-26 25-13c8-4 14-12 14-22 0-9-6-17-14-21l-25-13 9-27c3-8 1-18-5-24-7-7-16-9-25-6l-27 9-12-25c-4-8-12-14-22-14-9 2-18 8-22 16z m286-94l-64 0 0 64c0 35 29 64 64 64 35 0 64-29 64-64 0-35-29-64-64-64z m-216 200c0-27-21-48-48-48-27 0-48 21-48 48 0 27 21 48 48 48 27 0 48-21 48-48z"/>
<glyph glyph-name="folder" unicode="&#57402;" d="M496 400l-304 0 0 40c0 9-7 16-16 16l-160 0c-9 0-16-7-16-16l0-368c0-9 7-16 16-16l480 0c9 0 16 7 16 16l0 312c0 9-7 16-16 16z m-336 24l0-56 320 0 0-40-448 0 0 96z m-128-336l0 208 448 0 0-208z"/>
<glyph glyph-name="folder-f" unicode="&#57403;" d="M0 72c0-9 7-16 16-16l480 0c9 0 16 7 16 16l0 224-512 0z m496 328l-304 0 0 40c0 9-7 16-16 16l-160 0c-9 0-16-7-16-16l0-112 512 0 0 56c0 9-7 16-16 16z"/>
<glyph glyph-name="font" unicode="&#57404;" d="M477 31c-10 3-19 5-29 7l-182 467-20 0-183-467c-17-4-34-10-52-17l0-21 160 0 0 21c-21 9-41 14-61 17l47 129 172 0 49-129c-10-2-20-4-30-8-10-3-20-6-30-9l0-21 184 0 0 21c-7 5-16 8-25 10z m-306 173l55 149 18 62 2 0 13-61 57-150z"/>
<glyph glyph-name="football" unicode="&#57405;" d="M256 512c-43 0-152-114-152-256 0-142 113-256 152-256 39 0 152 114 152 256 0 142-109 256-152 256z m0-32c10 0 40-25 66-62 1 0 1-1 2-2l-136 0c1 1 1 2 2 2 26 37 56 62 66 62z m-87-96l174 0c21-40 33-84 33-128 0-44-13-88-34-128l-172 0c-21 40-34 84-34 128 0 44 12 88 33 128z m107-339c-6-5-12-9-17-11-1-1-2-1-3-2-1 0-2 1-3 2-5 2-11 6-17 11-14 12-30 29-45 49-1 0-1 1-1 2l132 0c0-1 0-2-1-2-15-20-31-37-45-49z m-52 227c-9 0-16-7-16-16 0-9 7-16 16-16l16 0 0-24-16 0c-9 0-16-7-16-16 0-9 7-16 16-16l16 0 0-8c0-9 7-16 16-16 9 0 16 7 16 16l0 8 16 0c9 0 16 7 16 16 0 9-7 16-16 16l-16 0 0 24 16 0c9 0 16 7 16 16 0 9-7 16-16 16l-16 0 0 24 16 0c9 0 16 7 16 16 0 9-7 16-16 16l-16 0 0 8c0 9-7 16-16 16-9 0-16-7-16-16l0-8-16 0c-9 0-16-7-16-16 0-9 7-16 16-16l16 0 0-24z"/>
<glyph glyph-name="forward" unicode="&#57406;" d="M502 269l-290 190c-11 7-20 3-20-11l0-101-22 15-26 16-124 81c-11 7-20 3-20-11l0-385c0-13 9-18 20-11l124 82 26 17 22 15 0-101c0-14 9-19 20-11l290 190c12 6 12 18 0 25z m-262-141l0 126-192-126 0 255 192-125 0 125 195-128z"/>
<glyph glyph-name="forward-f" unicode="&#57407;" d="M497 268l-281 184c-11 7-20 3-20-11l0-100-170 111c-10 7-19 3-19-11l0-373c0-13 9-18 19-11l170 111 0-101c0-13 9-17 20-10l281 184c11 8 11 20 0 27z"/>
<glyph glyph-name="gamepad" unicode="&#57408;" d="M384 448c-22 0-44-6-62-16l-132 0c-18 10-39 16-62 16-70 0-128-57-128-127 0-71 30-257 101-257 37 0 79 52 109 112l92 0c31-60 72-112 110-112 70 0 100 186 100 257 0 70-58 127-128 127z m27-352c-17 0-51 37-81 94l-8 18-132 0-8-18c-30-57-64-94-81-94-12 0-31 28-47 79-13 47-22 107-22 146 0 52 43 95 96 95 17 0 33-4 46-12l8-4 148 0 7 4c14 8 30 12 47 12 53 0 96-43 96-95 0-39-9-99-22-146-16-51-35-79-47-79z m-3 248c0-9-7-16-16-16-9 0-16 7-16 16 0 9 7 16 16 16 9 0 16-7 16-16z m0-80c0-9-7-16-16-16-9 0-16 7-16 16 0 9 7 16 16 16 9 0 16-7 16-16z m-40 40c0-9-7-16-16-16-9 0-16 7-16 16 0 9 7 16 16 16 9 0 16-7 16-16z m80 0c0-9-7-16-16-16-9 0-16 7-16 16 0 9 7 16 16 16 9 0 16-7 16-16z m-272 16l-32 0 0 32c0 9-7 16-16 16-9 0-16-7-16-16l0-32-32 0c-9 0-16-7-16-16 0-9 7-16 16-16l32 0 0-32c0-9 7-16 16-16 9 0 16 7 16 16l0 32 32 0c9 0 16 7 16 16 0 9-7 16-16 16z"/>
<glyph glyph-name="gamepad-retro" unicode="&#57409;" d="M368 400l-224 0c-79 0-144-65-144-144 0-79 65-144 144-144 24 0 46 6 66 16l92 0c20-10 43-16 67-16 79 0 144 65 144 144-1 79-66 144-145 144z m0-256c-18 0-36 4-51 13l-7 3-108 0-7-3c-16-8-33-13-51-13-62 0-112 50-112 112 0 62 50 112 112 112l224 0c62 0 112-50 112-112 0-62-50-112-112-112z m24 152c0-9-7-16-16-16-9 0-16 7-16 16 0 9 7 16 16 16 9 0 16-7 16-16z m0-80c0-9-7-16-16-16-9 0-16 7-16 16 0 9 7 16 16 16 9 0 16-7 16-16z m-40 40c0-9-7-16-16-16-9 0-16 7-16 16 0 9 7 16 16 16 9 0 16-7 16-16z m80 0c0-9-7-16-16-16-9 0-16 7-16 16 0 9 7 16 16 16 9 0 16-7 16-16z m-248 16l-32 0 0 32c0 9-7 16-16 16-9 0-16-7-16-16l0-32-32 0c-9 0-16-7-16-16 0-9 7-16 16-16l32 0 0-32c0-9 7-16 16-16 9 0 16 7 16 16l0 32 32 0c9 0 16 7 16 16 0 9-7 16-16 16z"/>
<glyph glyph-name="ghost" unicode="&#57410;" d="M384 336c0-27-21-48-48-48-27 0-48 21-48 48 0 27 21 48 48 48 27 0 48-21 48-48z m-160 0c0-27-21-48-48-48-27 0-48 21-48 48 0 27 21 48 48 48 27 0 48-21 48-48z m32 176c-106 0-192-86-192-192l0-320 65 64 64-64 41 42 22 22 64-64 64 64 64-64 0 320c0 106-86 192-192 192z m160-434l-31 31-65-64-64 64-64-64-63 64-33-32 0 243c0 88 72 160 160 160 88 0 160-72 160-160z"/>
<glyph glyph-name="ghost-f" unicode="&#57411;" d="M256 512c-106 0-192-86-192-192l0-320 65 64 64-64 41 42 22 22 64-64 64 64 64-64 0 320c0 106-86 192-192 192z m-80-224c-26 0-48 22-48 48 0 26 22 48 48 48 26 0 48-22 48-48 0-26-22-48-48-48z m160 0c-26 0-48 22-48 48 0 26 22 48 48 48 26 0 48-22 48-48 0-26-22-48-48-48z"/>
<glyph glyph-name="gift" unicode="&#57412;" d="M488 380l-44 0c4 23-2 48-18 67-30 35-84 40-119 11l-51-44-51 44c-35 29-89 25-119-11-16-19-22-44-19-67l-43 0c-14 0-24-10-24-24l0-80c0-14 10-24 24-24l8 0 0-200c0-14 10-24 24-24l400 0c13 0 24 10 24 24l0 200 8 0c14 0 24 10 24 24l0 80c0 14-10 24-24 24z m-160 53c22 18 55 16 74-7 10-12 14-30 9-46l-146 0z m-218-7c19 22 52 25 74 7l63-53-147 0c-4 16-1 34 10 46z m-78-78l200 0 0-64-200 0z m32-96l168 0 0-192-168 0z m384-192l-168 0 0 192 168 0z m32 224l-200 0 0 64 200 0z"/>
<glyph glyph-name="github" unicode="&#57413;" d="M478 379c-24 40-54 71-93 95-39 23-83 34-129 34-46 0-90-11-129-34-39-24-69-55-93-95-23-39-34-82-34-129 0-56 16-108 49-152 33-45 74-76 126-94 6-1 11 0 14 2 3 3 4 7 4 11 0 1 0 6 0 18 0 11 0 22 0 30l-8-2c-5-1-11-1-19-1-7 0-15 1-23 3-8 1-15 5-22 10-7 6-12 12-15 21l-3 8c-2 5-5 11-10 17-5 6-10 10-15 13l-2 1c-2 1-3 3-4 4-2 2-2 3-3 5-1 2 0 3 1 4 2 1 5 2 10 2l6-1c5-1 10-3 17-8 7-5 12-11 16-18 5-9 11-16 19-21 7-4 14-7 21-7 7 0 14 1 19 2 6 1 11 3 16 5 1 15 7 26 16 34-13 2-24 3-35 6-10 3-21 8-31 13-10 7-20 14-27 23-7 8-13 20-18 35-5 14-7 31-7 50 0 27 9 51 26 70-8 20-7 43 3 69 6 2 16 0 29-5 12-5 21-10 28-13 5-3 10-6 14-9 21 6 42 9 64 9 22 0 43-3 64-9l13 8c9 6 19 11 30 15 12 4 21 5 27 4 10-26 12-48 3-69 17-19 26-43 26-70 0-19-2-36-7-50-5-15-10-27-18-35-7-9-16-16-27-23-10-6-21-10-31-13-10-2-22-4-34-6 11-10 17-26 17-48l0-71c0-4 2-7 4-11 3-2 7-3 13-2 51 18 94 48 126 94 33 44 49 95 49 152 1 47-10 90-33 129z"/>
<glyph glyph-name="github-alt" unicode="&#57414;" d="M345 221c-20 0-36-22-36-49 0-27 16-49 36-49 20 0 36 22 36 49 0 26-16 49-36 49z m125 127c4 10 4 66-17 120 0 0-51-6-127-57-16 4-43 7-70 7-27 0-54-3-70-7-76 51-127 57-127 57-21-54-21-110-17-120-26-28-42-61-42-106 0-195 166-198 208-198 10 0 28 0 48 0 20 0 38 0 48 0 42 0 208 3 208 198 0 45-16 78-42 106z m-213-280l-2 0c-105 0-186 12-186 112 0 24 9 46 29 64 34 30 92 14 157 14 0 0 1 0 1 0 0 0 1 0 1 0 65 0 123 16 157-14 21-18 29-41 29-64 0-100-81-112-186-112z m-90 153c-20 0-36-22-36-49 0-27 16-49 36-49 20 0 36 22 36 49 1 26-16 49-36 49z"/>
<glyph glyph-name="glass-empty" unicode="&#57415;" d="M368 512l-224 0c-9 0-16-7-16-16l0-128c0-66 49-119 112-127l0-209-40 0c-9 0-16-7-16-16l0-16 144 0 0 16c0 9-7 16-16 16l-40 0 0 209c63 8 112 61 112 127l0 128c0 9-7 16-16 16z m-16-144c0-53-43-96-96-96-53 0-96 43-96 96l0 112 192 0z"/>
<glyph glyph-name="glass-filled" unicode="&#57416;" d="M256 296c40 0 72 32 72 72l0 72-144 0 0-72c0-40 32-72 72-72z m112 216l-224 0c-9 0-16-7-16-16l0-128c0-66 49-119 112-127l0-209-40 0c-9 0-16-7-16-16l0-16 144 0 0 16c0 9-7 16-16 16l-40 0 0 209c63 8 112 61 112 127l0 128c0 9-7 16-16 16z m-16-144c0-53-43-96-96-96-53 0-96 43-96 96l0 112 192 0z"/>
<glyph glyph-name="glue" unicode="&#57417;" d="M336 294l0 18c0 20-13 38-30 45l-36 155-28 0-36-155c-17-7-30-25-30-45l0-18c-23-8-40-28-40-54l0-184c0-31 25-56 56-56l128 0c31 0 56 25 56 56l0 184c0 26-17 46-40 54z m-32 18l0-16-96 0 0 16c0 9 7 16 16 16l64 0c9 0 16-7 16-16z m-48 120l16-72-32 0z m88-376c0-14-10-24-24-24l-128 0c-14 0-24 10-24 24l0 24 176 0z m-168 56l0 64 160 0 0-64z m168 96l-176 0 0 32c0 14 10 24 24 24l128 0c14 0 24-10 24-24z"/>
<glyph glyph-name="google" unicode="&#57418;" d="M273 284l0-78 143 0c-21-68-85-118-160-118-93 0-168 75-168 168 0 93 75 168 168 168 46 0 89-19 119-50l57 62c-46 45-108 72-176 72-139 0-252-113-252-252 0-139 113-252 252-252 122 0 229 86 252 202l0 78z"/>
<glyph glyph-name="google-plus" unicode="&#57419;" d="M214 216l113 0c-17-54-67-94-127-94-74 0-134 60-134 134 0 74 60 134 134 134 37 0 70-16 94-40l45 49c-35 35-85 57-139 57-110 0-200-90-200-200 0-110 90-200 200-200 97 0 182 69 200 160l0 62-186 0z m261 60l0 36-31 0 0-36-36 0 0-31 36 0 0-37 31 0 0 37 37 0 0 31z"/>
<glyph glyph-name="gps" unicode="&#57420;" d="M482 505l-461-213c-22-10-21-24 3-31l183-53 53-183c7-24 21-25 31-3l212 462c11 22 1 32-21 21z m-202-421l-44 153-154 45 367 169z"/>
<glyph glyph-name="gps-f" unicode="&#57421;" d="M482 505l-461-213c-22-10-21-24 3-31l183-53 53-183c7-24 21-25 31-3l212 462c11 22 1 32-21 21z"/>
<glyph glyph-name="graphic-chart" unicode="&#57422;" d="M48 48l0 464-48 0 0-512 512 0 0 48z m208 40l232 0-116 104-29-26-83 194-66-154-26 50-88-168z"/>
<glyph glyph-name="hair-dryer" unicode="&#57423;" d="M496 376c0 75-61 136-136 136-42 0-152-17-242-44-11 7-24 12-38 12l-64 0 0-208 64 0c17 0 33 7 44 18 54-19 114-33 162-41-9-19-15-42-15-67 0 0 0-2 0-3 0-1 0-1 0-2 0-3 0-5 1-7 2-33 14-63 31-79l0-28c0-33 27-60 60-60 33 0 60 27 60 60l0 183c0 4 0 7-1 9 44 23 74 69 74 121z m-416-72l-32 0 0 144 32 0c18 0 32-14 32-32l0-80c0-18-14-32-32-32z m224-131c0 1 0 3 0 5 1 8 7 14 16 14 9 0 16-7 16-16 0-9-7-16-16-16-8 0-14 6-16 13z m88-111c0-16-13-28-28-28-15 0-28 12-28 28l0 41-10 10c-4 4-7 9-10 15 2 0 3 0 5 0 26 0 48 22 48 48 0 26-22 48-48 48-3 0-7 0-10-1 3 7 6 15 9 19 16-2 30-3 41-3 11 0 21 1 32 3l0-180z m-32 210c-40 0-138 20-216 45l0 125c77 22 174 38 216 38 58 0 104-46 104-104 0-58-46-104-104-104z m34 157c-2 6-8 9-15 7-6-2-9-9-7-15l33-91c2-6 9-9 15-7 6 3 10 9 7 15z m-40 0c-2 6-8 9-15 7-6-2-9-9-7-15l33-91c2-6 9-9 15-7 6 3 10 9 7 15z m-40 0c-2 6-8 9-15 7-6-2-9-9-7-15l33-91c2-6 9-9 15-7 6 3 10 9 7 15z"/>
<glyph glyph-name="hammer" unicode="&#57424;" d="M503 334l-52 52c7 12 6 28-5 38l-22 23c-10 11-26 12-38 5l-52 52c-10 10-25 10-34 0l-68-68c-10-10-10-25 0-34l51-51-266-266c-13-13-13-33 0-46l23-22c13-13 33-13 46 0l265 265 51-51c10-9 25-9 34 0l68 68c9 11 9 26-1 35z m-441-294c0 0-22 22-22 22 0 0 53 53 118 119l23-23c-66-65-119-118-119-118z m142 141l-22 22c41 42 86 87 124 125l23-22c-39-39-83-84-125-125z"/>
<glyph glyph-name="hashtag" unicode="&#57425;" d="M488 184l-120 0 0 144 120 0c14 0 24 10 24 24 0 14-10 24-24 24l-120 0 0 112c0 14-10 24-24 24-14 0-24-10-24-24l0-112-144 0 0 112c0 14-10 24-24 24-14 0-24-10-24-24l0-112-104 0c-14 0-24-10-24-24 0-14 10-24 24-24l104 0 0-144-104 0c-14 0-24-10-24-24 0-14 10-24 24-24l104 0 0-112c0-14 10-24 24-24 14 0 24 10 24 24l0 112 144 0 0-112c0-14 10-24 24-24 14 0 24 10 24 24l0 112 120 0c14 0 24 10 24 24 0 14-10 24-24 24z m-168 0l-144 0 0 144 144 0z"/>
<glyph glyph-name="heading" unicode="&#57426;" d="M472 479c11 3 20 7 29 12l0 21-186 0 0-21c8-4 17-7 26-11 9-3 19-5 30-8l0-191-230 0 0 191c9 3 19 5 28 7 9 4 18 7 26 12l0 21-184 0 0-21c17-9 37-15 60-18l0-434c-21-4-41-10-60-18l0-21 185 0 0 21c-8 4-17 7-26 11-9 3-19 5-29 7l0 205 230 0 0-205c-18-4-37-10-55-18l0-21 185 0 0 21c-8 4-17 7-27 11-10 3-21 5-33 7l0 433c10 3 21 5 31 7z"/>
<glyph glyph-name="headphone" unicode="&#57427;" d="M488 224c0 9-7 16-16 16 0 119-97 216-216 216-119 0-216-97-216-216-9 0-16-7-16-16-14-2-24-14-24-28l0-88c0-14 10-26 24-28l0-8c0-9 7-16 16-16l56 0c9 0 16 7 16 16l0 152c0 9-7 16-16 16l-8 0c0 93 75 168 168 168 93 0 168-75 168-168l-8 0c-9 0-16-7-16-16l0-152c0-9 7-16 16-16l56 0c9 0 16 7 16 16l0 8c14 2 24 14 24 28l0 88c0 14-10 26-24 28z"/>
<glyph glyph-name="heart" unicode="&#57428;" d="M464 448c-58 57-151 58-209 1l-1-1-2 1c-56 57-150 56-208-1-58-58-59-152-2-209l212-213 213 213c57 57 56 150-3 209z m-30-194l-180-181-181 181c-48 49-51 125-5 170 44 45 120 43 169-6l17-17 18 17c48 49 124 51 169 6 45-45 42-121-7-170z"/>
<glyph glyph-name="heart-f" unicode="&#57429;" d="M460 440c-57 57-145 61-197 9l-9-9-2 2c-56 56-148 56-206-2-57-56-57-148-1-205l209-209 216 216c52 53 48 142-10 198z"/>
<glyph glyph-name="helmet" unicode="&#57430;" d="M512 260c0 10-2 21-4 30-22 120-126 210-252 210-142 0-256-114-256-256l0-56c0-3 0-7 0-10l445-162c41 45 67 106 67 172l0 56c0 3 0 7 0 10 0 3 0 4 0 6z m-112-80c-18 0-35 6-49 17l-1 1-132 78c0 0-10 0-10 0-18 0-32 14-32 32 0 18 14 32 32 32l186 0c3 0 4 0 7 0 25 0 46-11 61-29 8-21 11-44 11-67l0-18c-14-28-41-46-73-46z m32-118l-392 144 0 38c0 119 97 216 216 216 74 0 138-37 178-93-11 3-22 5-34 5-3 0-6 0-9 0 0 0-183 0-183 0-35 0-64-29-64-64 0-35 29-64 65-64l122-73c19-14 43-23 69-23 27 0 52 10 71 26-2-40-16-79-39-112z"/>
<glyph glyph-name="highlighter" unicode="&#57431;" d="M488 411l-69 69c-26 25-67 25-92 0l-201-201 20-21 138 139 121-121-138-138 20-20 201 201c26 26 26 66 0 92z m-20-72l-40-40-121 120 40 40c13 13 33 13 46 0l75-75c12-12 12-32 0-45z m-401-220l1-1-63-64 75-39 46 46 2-2 159 59-161 161z m9-74l-30 16 39 40 23-23z m152 86l-92-34-16 15-15 16 34 92z"/>
<glyph glyph-name="home" unicode="&#57432;" d="M460 346l-199 166-208-166c-7-6-13-17-13-26l0-304c0-9 7-16 16-16l144 0 0 136c0 31 25 56 56 56 31 0 56-25 56-56l0-136 144 0c9 0 16 7 16 16l0 304c0 9-6 20-12 26z m-20-314l-96 0 0 104c0 49-39 88-88 88-49 0-88-39-88-88l0-104-96 0c0 0 1 289 1 289l187 149 179-149c-1 1 1-2 1-1z"/>
<glyph glyph-name="home-f" unicode="&#57433;" d="M460 346l-199 166-208-166c-7-6-13-17-13-26l0-304c0-9 7-16 16-16l128 0 0 152c0 40 32 72 72 72 40 0 72-32 72-72l0-152 128 0c9 0 16 7 16 16l0 304c0 9-6 20-12 26z"/>
<glyph glyph-name="hourglass" unicode="&#57434;" d="M178 246c4 2 0 0 0 0z m168 31c24 23 38 56 38 91l0 96c13 0 24 10 24 24l0 24-304 0 0-24c0-14 10-24 24-24l0-96c0-36 14-68 38-91 15-14 12-11 12-11 5-4 11-7 16-10-6-3-11-6-16-10-1-1-4-4-12-10-24-24-38-56-38-92l0-96c-13 0-24-10-24-24l0-24 304 0 0 24c0 14-10 24-24 24l0 96c0 36-14 68-38 91-17 15-12 11-12 11-5 4-11 7-16 10 6 3 11 6 16 10 0 0-4-4 12 11z m6-133l0-96-192 0 0 96c0 35 19 67 50 84l46 26 46-26c31-17 50-49 50-84z m-50 140l-46-26-46 26c-31 17-50 49-50 84l0 96 192 0 0-96c0-35-19-67-50-84z"/>
<glyph glyph-name="html5" unicode="&#57435;" d="M472 512l-432 0c-5 0-8-4-8-9l39-445c1-4 5-9 9-10l167-46c5-2 12-2 16 0l168 47c5 1 9 6 9 11l40 443c0 5-3 9-8 9z m-78-118l0-12c-1-5-1-12-2-16 0-3-1-6-1-6l-206 0c-5 0-8-4-8-9l4-41c1-4 5-8 9-8l189 0c4 0 7-4 7-8 0-4 0-12-1-16l-12-132c-1-5-1-11-1-14 0-2-4-6-9-7l-99-26c-5-1-8-2-8-2 0 0-4 1-8 2l-99 28c-5 2-9 7-9 11l-6 72c-1 5 3 9 8 9l39 0c5 0 9-4 9-9l3-28c1-4 5-9 9-10l46-13c5-1 8-2 8-2 0 0 4 1 8 2l46 13c5 2 9 6 9 10l5 57c1 5-3 9-8 9l-178 0c-4 0-8 4-9 9l-12 139c-1 5-1 12-2 16 0 4 3 8 8 8l266 0c5 0 8-3 8-8-1-6-2-14-3-18z"/>
<glyph glyph-name="ice-cream" unicode="&#57436;" d="M256 512c-70 0-128-58-128-128l0-256 104 0 0-104c0-13 10-24 24-24 14 0 24 10 24 24l0 104 104 0 0 256c0 70-58 128-128 128z m96-352l-192 0 0 224c0 53 43 96 96 96 53 0 96-43 96-96z"/>
<glyph glyph-name="ice-cream-alt" unicode="&#57437;" d="M395 255c1 3 2 6 2 10 0 17-12 31-28 34 1 3 2 6 2 10 0 17-12 30-27 34l0 1c0 59-33 157-33 157-3 10-8 10-11 0 0 0-25-88-76-76-37 9-56-57-56-81l0-1c-15-3-27-17-27-34 0-4 1-6 2-10-16-3-28-17-28-34 0-4 1-6 2-10-16-3-29-18-29-34 0-17 13-32 29-35 0 0 0 0 0-1l14-159c1-14 14-26 28-26l194 0c14 0 27 11 28 26l14 159c0 0 0 0 0 1 16 3 29 17 29 35 0 16-13 31-29 34z m-245 19l75 0c7 0 13 6 13 13 0 7-6 13-13 13l-48 0c-5 0-9 4-9 9 0 5 4 9 9 9l22 0c7 0 13 6 13 13 0 7-6 13-13 13l-9 0c0 24 17 59 30 56 33-8 61 14 82 52 1-3 1-4 2-7 3-13 6-26 8-37 7-27 9-49 9-64l-53 0c-7 0-13-6-13-13 0-7 6-13 13-13l67 0c5 0 9-4 9-9 0-5-4-9-9-9l-30 0c-8 0-14-6-14-13 0-7 6-13 14-13l57 0c5 0 9-4 9-9 0-5-5-9-9-9l-212 0c-5 0-9 4-9 9 0 5 5 9 9 9z m206-246c0-1-2-2-3-2l-194 0c-1 0-2 1-3 2l-12 157 225 0z m32 184l-264 0c-5 0-9 3-9 9 0 5 4 9 9 9l264 0c5 0 9-4 9-9 0-6-4-9-9-9z m-194-168c7 1 13 7 13 14l-7 89c0 7-7 12-15 12-7-1-12-7-12-14l6-89c1-7 7-12 15-12z"/>
<glyph glyph-name="ice-cream-f" unicode="&#57438;" d="M256 512c-70 0-128-58-128-128l0-256 104 0 0-104c0-13 10-24 24-24 14 0 24 10 24 24l0 104 104 0 0 256c0 70-58 128-128 128z"/>
<glyph glyph-name="id-card" unicode="&#57439;" d="M472 424l-432 0c-22 0-40-18-40-40l0-256c0-22 18-40 40-40l432 0c22 0 40 18 40 40l0 256c0 22-18 40-40 40z m8-296c0-5-3-8-8-8l-432 0c-4 0-8 3-8 8l0 256c0 5 3 8 8 8l432 0c4 0 8-3 8-8z m-312 216l-88 0c-9 0-16-7-16-16l0-112c0-9 7-16 16-16l88 0c9 0 16 7 16 16l0 112c0 9-7 16-16 16z m264 0l-200 0c-9 0-16-7-16-16 0-9 7-16 16-16l200 0c9 0 16 7 16 16 0 9-7 16-16 16z m0-48l-200 0c-9 0-16-7-16-16 0-9 7-16 16-16l200 0c9 0 16 7 16 16 0 9-7 16-16 16z m-168-48l-32 0c-9 0-16-7-16-16 0-9 7-16 16-16l32 0c9 0 16 7 16 16 0 9-7 16-16 16z m80 0l-32 0c-9 0-16-7-16-16 0-9 7-16 16-16l32 0c9 0 16 7 16 16 0 9-7 16-16 16z"/>
<glyph glyph-name="indent" unicode="&#57440;" d="M24 400l464 0c14 0 24 10 24 24 0 14-10 24-24 24l-464 0c-14 0-24-10-24-24 0-14 10-24 24-24z m464-176l-272 0c-14 0-24-10-24-24 0-14 10-24 24-24l272 0c14 0 24 10 24 24 0 14-10 24-24 24z m0 112l-272 0c-14 0-24-10-24-24 0-14 10-24 24-24l272 0c14 0 24 10 24 24 0 14-10 24-24 24z m0-224l-464 0c-14 0-24-10-24-24 0-14 10-24 24-24l464 0c14 0 24 10 24 24 0 14-10 24-24 24z m-476 36l110 104c4 3 4 8 0 11l-110 104c-6 6-12 3-12-5l0-209c0-9 5-11 12-5z"/>
<glyph glyph-name="info" unicode="&#57441;" d="M256 512c-142 0-256-114-256-256 0-142 114-256 256-256 142 0 256 114 256 256 0 142-114 256-256 256z m0-480c-124 0-224 100-224 224 0 124 100 224 224 224 124 0 224-100 224-224 0-124-100-224-224-224z m17 132c-6-6-11-10-14-10-1 0-2 0-4 1-1 1-1 3-1 5 0 2 0 9 3 18 1 3 2 9 5 18l28 105-16-3c-5-1-15-3-28-4-13-2-23-3-30-4l0-9c8 0 14-1 17-3 3-1 5-4 5-8 0-1 0-2 0-3 0-1 0-1-1-3l-23-83c-1-7-3-11-4-15-1-6-2-11-2-14 0-9 2-15 8-19 6-4 11-7 18-7 12 0 24 5 34 16 6 6 15 18 27 36l-8 5c-4-6-9-13-14-19z m6 220c-7 0-13-2-17-7-5-5-8-11-8-18 0-7 3-13 8-17 4-5 10-8 17-8 7 0 13 3 18 8 5 4 7 10 7 17 0 7-2 13-7 18-5 5-11 7-18 7z"/>
<glyph glyph-name="instagram" unicode="&#57442;" d="M359 512l-206 0c-83 0-151-66-153-148l0-216c2-82 70-148 153-148l207 0c83 0 152 69 152 153l0 206c0 84-69 153-153 153z m102-359c0-56-46-101-101-101l-207 0c-56 0-101 46-101 101l0 206c0 56 46 101 101 101l207 0c56 0 101-46 101-101z m-201 231c-73 0-132-59-132-132 0-73 59-132 132-132 73 0 132 59 132 132 0 73-59 132-132 132z m0-213c-45 0-81 36-81 81 0 45 36 81 81 81 45 0 81-36 81-81 0-45-36-81-81-81z m148 225c0-15-13-28-28-28-15 0-28 13-28 28 0 15 13 28 28 28 15 0 28-13 28-28z"/>
<glyph glyph-name="instagram-circle" unicode="&#57443;" d="M256 512c-142 0-256-114-256-256 0-142 114-256 256-256 142 0 256 114 256 256 0 142-114 256-256 256z m160-321c0-53-42-95-95-95l-130 0c-52 0-93 42-95 93l0 134c2 52 44 93 95 93l130 0c53 0 95-42 95-95z m-95 193l-130 0c-35 0-63-28-63-63l0-130c0-35 28-63 63-63l130 0c35 0 63 28 63 63l0 130c0 34-29 63-63 63z m-61-216c-46 0-84 38-84 84 0 46 38 84 84 84 46 0 84-38 84-84 0-46-38-84-84-84z m80 152c-11 0-20 9-20 20 0 11 9 20 20 20 11 0 20-9 20-20 0-11-9-20-20-20z m-29-68c0-28-23-51-51-51-28 0-51 23-51 51 0 28 23 51 51 51 28 0 51-23 51-51z"/>
<glyph glyph-name="instagram-square" unicode="&#57444;" d="M488 512l-464 0c-14 0-24-10-24-24l0-464c0-14 10-24 24-24l464 0c14 0 24 10 24 24l0 464c0 14-10 24-24 24z m-72-321c0-53-42-95-95-95l-130 0c-52 0-93 42-95 93l0 134c2 52 44 93 95 93l130 0c53 0 95-42 95-95z m-95 193l-130 0c-35 0-63-28-63-63l0-130c0-35 28-63 63-63l130 0c35 0 63 28 63 63l0 130c0 34-29 63-63 63z m-61-216c-46 0-84 38-84 84 0 46 38 84 84 84 46 0 84-38 84-84 0-46-38-84-84-84z m80 152c-11 0-20 9-20 20 0 11 9 20 20 20 11 0 20-9 20-20 0-11-9-20-20-20z m-29-68c0-28-23-51-51-51-28 0-51 23-51 51 0 28 23 51 51 51 28 0 51-23 51-51z"/>
<glyph glyph-name="italic" unicode="&#57445;" d="M214 512l-4-22c8-3 17-7 26-10 9-3 18-6 27-8l-89-434c-20-3-41-8-62-17l-4-21 184 0 3 22c-7 4-15 7-25 10-9 3-19 6-28 7l91 434c9 1 20 5 31 8 11 3 22 6 31 10l3 21z"/>
<glyph glyph-name="joystick" unicode="&#57446;" d="M416 128c0 14-10 24-24 24l-48 0c-14 0-24-10-24-24l-40 0 0 211c37 11 64 44 64 85 0 49-39 88-88 88-49 0-88-39-88-88 0-40 27-74 64-85l0-211-168 0 0-128 384 0 0 128z"/>
<glyph glyph-name="jsfiddle" unicode="&#57447;" d="M446 273c0 3 1 7 1 11-1 80-67 145-147 145-59 0-109-34-133-85-13 9-28 14-43 14-41 0-75-33-75-74 0-7 1-12 2-19-31-16-51-48-51-85 0-54 44-97 98-97l316 0c54 0 98 43 98 97 0 43-28 79-66 93z m-6-84c-4-35-28-73-87-73-45 0-88 47-106 73 0 0-34 54-73 52-37-2-47-21-49-39-1-17 9-34 25-43 20-10 45-4 71 18l25-29c-25-21-51-32-76-32-13 0-26 3-38 9-30 16-48 48-45 81 4 36 28 74 87 74 53 0 90-48 102-65 19-28 55-61 76-61 37 0 47 22 49 39 2 17-9 35-24 44-21 10-46 4-71-18l-26 29c38 32 79 41 114 23 31-16 49-49 46-82z"/>
<glyph glyph-name="key" unicode="&#57448;" d="M452 463c-58 58-152 58-211 0-52-52-57-133-16-191 0-1 0-1-1-2l-198-198c-10-10-10-26 0-35 10-10 25-10 34 0l23-23c10-10 26-10 35 0 10 10 10 26 0 35l-23 23 23 23 35-35c10-10 25-10 34 0 10 10 10 26 0 35l-34 35 105 105c0 0 0 0 1 1 58-41 140-36 192 16 59 59 59 153 1 211z m-30-181c-42-42-110-42-152 0-42 43-42 110 0 152 42 42 110 42 152 0 42-42 42-109 0-152z"/>
<glyph glyph-name="keyboard" unicode="&#57449;" d="M472 384l-432 0c-22 0-40-18-40-40l0-176c0-22 18-40 40-40l432 0c22 0 40 18 40 40l0 176c0 22-18 40-40 40z m8-216c0-5-3-8-8-8l-432 0c-4 0-8 3-8 8l0 176c0 5 3 8 8 8l432 0c4 0 8-3 8-8z m-344 128l16 0c5 0 8 4 8 8l0 16c0 5-4 8-8 8l-16 0c-5 0-8-4-8-8l0-16c0-5 4-8 8-8z m56 0l16 0c5 0 8 4 8 8l0 16c0 5-4 8-8 8l-16 0c-5 0-8-4-8-8l0-16c0-5 4-8 8-8z m-112 0l16 0c5 0 8 4 8 8l0 16c0 5-4 8-8 8l-16 0c-5 0-8-4-8-8l0-16c0-5 4-8 8-8z m136-48c0-5 4-8 8-8l16 0c5 0 8 4 8 8l0 16c0 5-4 8-8 8l-16 0c-5 0-8-4-8-8z m32 48l16 0c5 0 8 4 8 8l0 16c0 5-4 8-8 8l-16 0c-5 0-8-4-8-8l0-16c0-5 4-8 8-8z m184 32l-16 0c-5 0-8-4-8-8l0-16c0-5 4-8 8-8l16 0c5 0 8 4 8 8l0 16c0 5-4 8-8 8z m-128-32l16 0c5 0 8 4 8 8l0 16c0 5-4 8-8 8l-16 0c-5 0-8-4-8-8l0-16c0-5 4-8 8-8z m-208-80l-16 0c-5 0-8-4-8-8l0-16c0-5 4-8 8-8l16 0c5 0 8 4 8 8l0 16c0 5-4 8-8 8z m176 32c0-5 4-8 8-8l16 0c5 0 8 4 8 8l0 16c0 5-4 8-8 8l-16 0c-5 0-8-4-8-8z m88 48l16 0c5 0 8 4 8 8l0 16c0 5-4 8-8 8l-16 0c-5 0-8-4-8-8l0-16c0-5 4-8 8-8z m-224-48l0 16c0 5-4 8-8 8l-16 0c-5 0-8-4-8-8l0-16c0-5 4-8 8-8l16 0c5 0 8 4 8 8z m240-32l-16 0c-5 0-8-4-8-8l0-16c0-5 4-8 8-8l16 0c5 0 8 4 8 8l0 16c0 5-4 8-8 8z m40 32l0 16c0 5-4 8-8 8l-16 0c-5 0-8-4-8-8l0-16c0-5 4-8 8-8l16 0c5 0 8 4 8 8z m16-32l-16 0c-5 0-8-4-8-8l0-16c0-5 4-8 8-8l16 0c5 0 8 4 8 8l0 16c0 5-4 8-8 8z m-72 32l0 16c0 5-4 8-8 8l-16 0c-5 0-8-4-8-8l0-16c0-5 4-8 8-8l16 0c5 0 8 4 8 8z m-208-32l-16 0c-5 0-8-4-8-8l0-16c0-5 4-8 8-8l16 0c5 0 8 4 8 8l0 16c0 5-4 8-8 8z m40 32l0 16c0 5-4 8-8 8l-16 0c-5 0-8-4-8-8l0-16c0-5 4-8 8-8l16 0c5 0 8 4 8 8z m128-32l-128 0c-4 0-8-4-8-8l0-16c0-5 3-8 8-8l128 0c4 0 8 4 8 8l0 16c0 5-3 8-8 8z"/>
<glyph glyph-name="language" unicode="&#57450;" d="M255 414l-255 0 0-38 227 0c-15-35-35-65-61-86-28-22-65-40-114-52l21-36c59 15 104 39 137 72 28 28 50 70 67 123z m-224 77l208 0 0-38-208 0z m363-176l-55 0-112-294 51 0 27 74 123 0 27-74 51 0z m-75-181l46 129 2 0 46-129z"/>
<glyph glyph-name="levels" unicode="&#57451;" d="M88 464l0 24c0 14-10 24-24 24-14 0-24-10-24-24l0-24c-9 0-16-7-16-16l0-64c0-9 7-16 16-16l0-344c0-14 10-24 24-24 14 0 24 10 24 24l0 344c9 0 16 7 16 16l0 64c0 9-7 16-16 16z m128-336l0 360c0 14-10 24-24 24-14 0-24-10-24-24l0-360c-9 0-16-7-16-16l0-64c0-9 7-16 16-16l0-8c0-14 10-24 24-24 14 0 24 10 24 24l0 8c9 0 16 7 16 16l0 64c0 9-7 16-16 16z m128 208l0 152c0 14-10 24-24 24-14 0-24-10-24-24l0-152c-9 0-16-7-16-16l0-64c0-9 7-16 16-16l0-216c0-14 10-24 24-24 14 0 24 10 24 24l0 216c9 0 16 7 16 16l0 64c0 9-7 16-16 16z m128-112l0 264c0 14-10 24-24 24-14 0-24-10-24-24l0-264c-9 0-16-7-16-16l0-64c0-9 7-16 16-16l0-104c0-14 10-24 24-24 14 0 24 10 24 24l0 104c9 0 16 7 16 16l0 64c0 9-7 16-16 16z"/>
<glyph glyph-name="life-bouy" unicode="&#57452;" d="M256 512c-142 0-256-114-256-256 0-142 114-256 256-256 142 0 256 114 256 256 0 142-114 256-256 256z m101-56c43-22 77-56 99-99l-67-45c-15 34-43 62-76 76z m-202 0l45-67c-34-15-62-42-76-76l-68 45c22 42 57 76 99 98z m-1-400c-42 22-76 56-98 98l67 45c15-34 42-61 76-76z m-10 200c0 62 50 112 112 112 62 0 112-50 112-112 0-62-50-112-112-112-62 0-112 50-112 112z m214-200l-46 67c34 15 62 43 76 76l67-45c-21-41-55-76-97-98z"/>
<glyph glyph-name="light-bulb" unicode="&#57453;" d="M256 512c-106 0-192-86-192-192 0-68 35-127 88-162l0-118c0-22 18-40 40-40l128 0c22 0 40 18 40 40l0 118c53 35 88 94 88 162 0 106-86 192-192 192z m72-472c0-4-3-8-8-8l-128 0c-4 0-8 4-8 8l0 8 56 0c9 0 16 7 16 16 0 9-7 16-16 16l-56 0 0 24 144 0z m0 137l0-41-24 0 0 232c0 9-7 16-16 16-9 0-16-7-16-16l0-232-32 0 0 184c0 9-7 16-16 16-9 0-16-7-16-16l0-184-24 0 0 41c-52 26-88 81-88 143 0 88 72 160 160 160 88 0 160-72 160-160 0-62-36-117-88-143z"/>
<glyph glyph-name="line-chart" unicode="&#57454;" d="M48 48l0 464-48 0 0-512 512 0 0 48z m155 131l89-76 214 270-25 20-194-244-85 74-113-114 22-23z"/>
<glyph glyph-name="link" unicode="&#57455;" d="M479 479c-40 40-105 40-145 0l-106-106 33-33 106 106c21 21 57 21 78 0 21-21 21-57 0-78l-122-123c-21-21-57-21-78 0-4 4-7 8-9 13l-34-34c3-4 6-8 10-12 40-40 105-40 145 0l122 122c39 40 39 105 0 145z m-218-318l-1 3-10 9-106-106c-21-21-57-21-78 0-21 21-21 57 0 78l123 122c21 21 57 21 78 0 6-6 10-13 13-20l35 35c-4 6-9 13-15 19-40 40-105 40-145 0l-122-123c-40-40-40-105 0-145 40-40 105-40 145 0l106 106-22 22z"/>
<glyph glyph-name="linkedin" unicode="&#57456;" d="M0 340l112 0 0-328-112 0z m478-30c-24 25-54 38-92 38-15 0-27-2-39-5-11-3-21-8-29-14-8-7-14-12-19-18-5-5-9-11-13-17l0 46-110 0 0-16c0-10 0-43 0-98 0-55 0-127-1-215l111 0 0 184c0 11 1 20 4 27 4 12 12 21 21 28 10 8 22 12 35 12 20 0 34-7 43-20 9-13 13-32 13-55l0-176 110 0 0 189c0 49-11 86-34 110z m-423 78c18 0 31 6 42 16 10 10 15 24 15 40 0 16-6 30-15 40-11 10-23 16-40 16-18 0-31-6-42-16-10-10-15-24-15-40 0-16 5-30 15-40 11-10 23-16 40-16z"/>
<glyph glyph-name="linkedin-circle" unicode="&#57457;" d="M256 512c-142 0-256-114-256-256 0-142 114-256 256-256 142 0 256 114 256 256 0 142-114 256-256 256z m-120-136c5 6 12 8 20 8 8 0 15-2 20-8 5-6 8-12 8-20 0-8-2-14-8-20-5-6-12-8-21-8-8 0-15 2-20 8-5 6-7 12-7 20 0 8 2 14 8 20z m48-240l-56 0 0 168 56 0z m208 0l-58 0 0 88c0 11-2 21-7 27-5 7-12 10-22 10-7 0-14-2-19-6-4-4-8-9-11-14-1-3-1-8-1-14l0-91-58 0c0 44 0 80 0 107 0 27 0 44 0 49l0 8 58 0 0-23c2 3 4 6 7 9 2 2 5 5 9 8 4 4 10 6 16 8 6 1 12 2 20 2 20 0 36-6 48-19 12-13 18-31 18-55z"/>
<glyph glyph-name="linkedin-square" unicode="&#57458;" d="M0 480c0 18 14 32 32 32l448 0c18 0 32-14 32-32l0-448c0-18-14-32-32-32l-448 0c-18 0-32 14-32 32z m128-344l56 0 0 168-56 0z m246 149c-12 13-28 19-48 19-8 0-15-1-20-2-7-2-12-4-16-8-4-3-7-5-9-8-3-3-5-6-7-9l0 23-58 0 0-8c0-6 0-22 0-49 0-27 0-63 0-107l58 0 0 92c0 6 0 10 1 14 3 5 7 10 11 14 5 4 12 6 19 6 10 0 17-4 22-10 5-6 7-16 7-27l0-88 58 0 0 93c0 24-6 43-18 55z m-218 99c-8 0-15-2-20-8-5-6-8-12-8-20 0-8 2-14 7-20 5-6 12-8 20-8 9 0 15 2 21 8 5 6 8 12 8 20 0 8-2 14-8 20-5 6-11 8-20 8z"/>
<glyph glyph-name="luggage" unicode="&#57459;" d="M400 408l-64 0 0 24c0 31-25 56-56 56l-48 0c-31 0-56-25-56-56l0-24-64 0c-62 0-112-50-112-112l0-160c0-62 50-112 112-112l288 0c62 0 112 50 112 112l0 160c0 62-50 112-112 112z m-192 24c0 14 10 24 24 24l48 0c14 0 24-10 24-24l0-24-96 0z m128-56l32 0 0-320-224 0 0 320z m-304-240l0 160c0 44 36 80 80 80l0-320c-44 0-80 36-80 80z m448 0c0-44-36-80-80-80l0 320c44 0 80-36 80-80z"/>
<glyph glyph-name="magic" unicode="&#57460;" d="M351 382c-6 6-16 6-23 0l-322-322c-7-6-7-16 0-23l29-29c6-6 16-6 23 0l322 322c6 6 6 16 0 23z m-305-351l-17 17 236 236 17-17z m253 253l-17 17 58 57 17-17z m80 115l69 69 12-12-69-69z m-161 57l12 12 69-69-12-12z m116-180l16 0 0-98-16 0z m0 235l16 0 0-97-16 0z m77-158l98 0 0-17-98 0z m-235 0l97 0 0-17-97 0z m209-64l11 12 69-69-11-12z"/>
<glyph glyph-name="magnet" unicode="&#57461;" d="M256 512c-124 0-224-100-224-224l0-256c0-18 14-32 32-32l88 0c18 0 32 14 32 32l0 248c0 40 32 72 72 72 40 0 72-32 72-72l0-248c0-18 14-32 32-32l88 0c18 0 32 14 32 32l0 256c0 124-100 224-224 224z m-104-480c0 0-88 0-88 0l0 96 88 0c0-51 0-96 0-96z m104 352c-58 0-104-46-104-104 0 0 0-59 0-120l-88 0 0 128c0 106 86 192 192 192 106 0 192-86 192-192 0 0 0-64 0-128l-88 0 0 120c0 58-46 104-104 104z m192-352c0 0-88 0-88 0l0 96 88 0c0-52 0-96 0-96z"/>
</font>
</defs>
</svg>
